<?xml version="1.0" encoding="utf-8"?>
<!-- Generator: Adobe Illustrator 28.0.0, SVG Export Plug-In . SVG Version: 6.00 Build 0)  -->
<svg version="1.1" id="root" xmlns:ev="http://www.w3.org/2001/xml-events" xmlns:ifc="http://www.ifcopenshell.org/ns"
	 xmlns="http://www.w3.org/2000/svg" xmlns:xlink="http://www.w3.org/1999/xlink" x="0px" y="0px" viewBox="0 0 189.8 166"
	 style="enable-background:new 0 0 189.8 166;" xml:space="preserve">
<style type="text/css">
	.st0{fill:#FFFFFF;stroke:#000000;stroke-width:0.7087;stroke-linecap:round;stroke-linejoin:round;stroke-miterlimit:11.3386;}
	.st1{stroke:#000000;stroke-width:0.7087;stroke-linecap:round;stroke-linejoin:round;stroke-miterlimit:11.3386;}
	.st2{fill:none;stroke:#000000;stroke-width:0.7087;stroke-linecap:round;stroke-linejoin:round;stroke-miterlimit:11.3386;}
</style>
<g id="product-8f075a9b-2058-431b-9a5b-0bf865f1baff" ifc:guid="2F1rgR85X36vfR2$XbyRh$" ifc:name="Wall">
	<path class="st0" d="M108.9,117.4H86.2"/>
	<path class="st0" d="M108.9,109.8v7.6"/>
	<path class="st0" d="M86.2,109.8h22.7"/>
	<path class="st0" d="M86.2,117.4v-7.6"/>
</g>
<g id="product-fda5005e-d50b-4a54-b09e-9ecdc6052cdb" ifc:guid="3zfG1UrGjALB2Udit61IpR" ifc:name="Wall">
	<path class="st0" d="M116.5,109.8v37.8"/>
	<path class="st0" d="M108.9,109.8h7.6"/>
	<path class="st0" d="M108.9,147.6v-37.8"/>
	<path class="st0" d="M116.5,147.6h-7.6"/>
</g>
<g id="product-fb2900b3-40c0-43f0-9183-74a2e334d450" ifc:guid="3xAG2pGC13y963TABZDDHG" ifc:name="Wall">
	<path class="st0" d="M86.2,87.1v30.2"/>
	<path class="st0" d="M78.7,87.1h7.6"/>
	<path class="st0" d="M78.7,117.4V87.1"/>
	<path class="st0" d="M86.2,117.4h-7.6"/>
</g>
<g id="product-b8a5931c-6fc0-4822-9ca3-97d759e37734" ifc:guid="2ufPCSRy188foZbzTPutSq" ifc:name="Wall">
	<path class="st0" d="M33.3,87.1H18.2"/>
	<path class="st0" d="M33.3,94.7H18.2"/>
	<path class="st0" d="M18.2,94.7v-7.6"/>
	<path class="st0" d="M33.3,94.7v-7.6"/>
</g>
<g id="product-72e8b0c7-0113-4449-92a4-e974ca60255d" ifc:guid="1owB370HD4IPAawNJAO2LT" ifc:name="Wall">
	<path class="st0" d="M184.5,85.2V26.7"/>
	<path class="st0" d="M169.4,85.2V26.7"/>
	<path class="st0" d="M169.4,26.7h15.1"/>
	<path class="st0" d="M169.4,85.2h15.1"/>
</g>
<g id="product-ad204bc9-b86e-411a-96ae-1fbfde08a160" ifc:guid="2j84l9k6v16fQk7x$U2A5W" ifc:name="Wall">
	<path class="st1" d="M18.2,26.7l0,136.1"/>
	<path class="st1" d="M3.1,26.7h15.1"/>
	<path class="st1" d="M3.1,162.7V26.7"/>
	<path class="st1" d="M18.2,162.7H3.1"/>
</g>
<g id="product-d4428fcc-6405-4f14-8ec9-48b80e0c9e15" ifc:guid="3KGe$CP0LF58x9IBWE39uL" ifc:name="Wall">
	<path class="st1" d="M46.5,26.7H18.2"/>
	<path class="st1" d="M46.5,41.8H18.2"/>
	<path class="st1" d="M18.2,41.8V26.7"/>
	<path class="st1" d="M46.5,41.8V26.7"/>
</g>
<g id="product-48953282-77c3-48e2-bf60-6694ae276746" ifc:guid="18bJA2TyD8uhzWPfIk9sT6" ifc:name="Wall">
	<path class="st0" d="M46.5,147.6H18.2"/>
	<path class="st0" d="M46.5,162.7H18.2"/>
	<path class="st0" d="M18.2,162.7v-15.1"/>
	<path class="st0" d="M46.5,162.7v-15.1"/>
</g>
<g id="product-aecfbb5d-a2a2-4973-ac9f-0c7c265db9c8" ifc:guid="2kpxjTeg99SwoV37mcNRd8" ifc:name="Door">
	<path class="st0" d="M33.3,64.6v30.1"/>
	<path class="st0" d="M37.1,64.6h-3.8"/>
	<path class="st0" d="M37.1,64.6"/>
	<path class="st0" d="M47.2,66.9l-10.1-2.3"/>
	<path class="st0" d="M55.8,73.4l-8.6-6.6"/>
	<path class="st0" d="M60.6,79.6l-4.8-6.2"/>
	<path class="st0" d="M63.6,87.1l-3-7.5"/>
</g>
<g id="product-48953282-77c3-48e2-bf60-6694ae276746_00000002367368977051140390000003097254301046460047_" ifc:guid="18bJA2TyD8uhzWPfIk9sT6" ifc:name="Wall">
	<path class="st0" d="M169.4,147.6H80.6"/>
	<path class="st0" d="M169.4,162.7H80.6"/>
	<path class="st0" d="M80.6,162.7v-15.1"/>
	<path class="st0" d="M169.4,162.7v-15.1"/>
</g>
<g id="product-48953282-77c3-48e2-bf60-6694ae276746_00000044886605006051334920000013480686535093758110_" ifc:guid="18bJA2TyD8uhzWPfIk9sT6" ifc:name="Wall">
	<path class="st0" d="M80.6,147.6h-34"/>
	<path class="st0" d="M80.6,162.7h-34"/>
	<path class="st0" d="M46.5,162.7v-15.1"/>
	<path class="st0" d="M80.6,162.7v-15.1"/>
</g>
<line class="st2" x1="46.5" y1="155.2" x2="80.6" y2="155.2"/>
<g id="product-48953282-77c3-48e2-bf60-6694ae276746_00000145032263895211627040000002101670761300216767_" ifc:guid="18bJA2TyD8uhzWPfIk9sT6" ifc:name="Wall">
	<path class="st0" d="M184.5,119.3v-34"/>
	<path class="st0" d="M169.4,119.3v-34"/>
	<path class="st0" d="M169.4,85.2h15.1"/>
	<path class="st0" d="M169.4,119.3h15.1"/>
</g>
<g id="product-48953282-77c3-48e2-bf60-6694ae276746_00000016783006799540206910000000756532013931247780_" ifc:guid="18bJA2TyD8uhzWPfIk9sT6" ifc:name="Wall">
	<path class="st0" d="M80.5,26.7h-34"/>
	<path class="st0" d="M80.5,41.8h-34"/>
	<path class="st0" d="M46.5,41.8V26.7"/>
	<path class="st0" d="M80.5,41.8V26.7"/>
</g>
<line class="st2" x1="176.9" y1="85.2" x2="176.9" y2="119.3"/>
<line class="st2" x1="46.5" y1="34.2" x2="80.6" y2="34.2"/>
<g id="product-d4428fcc-6405-4f14-8ec9-48b80e0c9e15_00000012433312436600065270000008652689527177435058_" ifc:guid="3KGe$CP0LF58x9IBWE39uL" ifc:name="Wall">
	<path class="st0" d="M108.9,26.7H80.6"/>
	<path class="st0" d="M108.9,41.8H80.6"/>
	<path class="st0" d="M80.6,41.8V26.7"/>
	<path class="st0" d="M108.9,41.8V26.7"/>
</g>
<g id="product-72e8b0c7-0113-4449-92a4-e974ca60255d_00000049192964896952763890000008713156436340504225_" ifc:guid="1owB370HD4IPAawNJAO2LT" ifc:name="Wall">
	<path class="st1" d="M184.5,162.7v-43.5"/>
	<path class="st1" d="M169.4,162.7v-43.5"/>
	<path class="st1" d="M169.4,119.3h15.1"/>
	<path class="st1" d="M169.4,162.7h15.1"/>
</g>
<g id="product-b8a5931c-6fc0-4822-9ca3-97d759e37734_00000129205384042943633960000007818661422613250688_" ifc:guid="2ufPCSRy188foZbzTPutSq" ifc:name="Wall">
	<path class="st0" d="M78.7,87.1H63.6"/>
	<path class="st0" d="M78.7,94.7H63.6"/>
	<path class="st0" d="M63.6,94.7v-7.6"/>
	<path class="st0" d="M78.7,94.7v-7.6"/>
</g>
<path class="st2" d="M33.3,94.7"/>
<g id="product-aecfbb5d-a2a2-4973-ac9f-0c7c265db9c8_00000183224226095312622840000008221784248633800065_" ifc:guid="2kpxjTeg99SwoV37mcNRd8" ifc:name="Door">
	<path class="st0" d="M108.9,41.7"/>
	<path class="st0" d="M108.9,11.6"/>
	<path class="st0" d="M108.9,3.8"/>
	<path class="st0" d="M141.6,26.9"/>
</g>
<path class="st2" d="M108.9,41.7"/>
<g id="product-d4428fcc-6405-4f14-8ec9-48b80e0c9e15_00000116208985069776053330000010807676380169494173_" ifc:guid="3KGe$CP0LF58x9IBWE39uL" ifc:name="Wall">
	<path class="st0" d="M169.4,26.7h-27.8"/>
	<path class="st0" d="M169.4,41.8h-27.8"/>
	<path class="st0" d="M141.6,41.8V26.7"/>
	<path class="st0" d="M169.4,41.8V26.7"/>
</g>
<path class="st0" d="M108.9,3.8v22.6"/>
<path class="st0" d="M115.1,4.1l-6.2-0.3"/>
<path class="st0" d="M115.1,4.1"/>
<path class="st0" d="M125.2,6.4l-10.1-2.3"/>
<path class="st0" d="M133.8,12.9l-8.6-6.6"/>
<path class="st0" d="M138.6,19.1l-4.8-6.2"/>
<path class="st0" d="M141.6,26.7l-3-7.5"/>
<rect x="18.7" y="26.7" class="st1" width="27.8" height="15.1"/>
<rect x="81" y="26.7" width="27.8" height="15.1"/>
<rect x="141.6" y="26.7" class="st1" width="27.8" height="15.1"/>
<rect x="3.1" y="26.7" class="st1" width="15.1" height="136.1"/>
<rect x="18.7" y="147.6" class="st1" width="27.8" height="15.1"/>
<rect x="81" y="147.6" class="st1" width="88.4" height="15.1"/>
<rect x="169.4" y="26.7" class="st1" width="15.1" height="58.6"/>
<rect x="169.4" y="119.3" class="st1" width="15.1" height="43.5"/>
<rect x="86.8" y="109.8" class="st1" width="22.1" height="7.6"/>
<rect x="67.5" y="98.5" transform="matrix(-1.836970e-16 1 -1 -1.836970e-16 184.6916 19.795)" class="st1" width="29.9" height="7.6"/>
<rect x="93.8" y="124.9" transform="matrix(-1.836970e-16 1 -1 -1.836970e-16 241.3846 16.0156)" class="st1" width="37.8" height="7.6"/>
<rect x="18.7" y="87.1" transform="matrix(-1 -1.224647e-16 1.224647e-16 -1 52.0238 181.8095)" class="st1" width="14.6" height="7.6"/>
<rect x="63.8" y="87.1" transform="matrix(-1 -1.224647e-16 1.224647e-16 -1 142.2195 181.8095)" class="st1" width="14.6" height="7.6"/>
</svg>
