solid 
 facet normal -9.553365e-01 -2.955202e-01 -1.110984e-15
   outer loop
     vertex -3.594602e+00 -5.298947e+00 -3.500000e+00
     vertex -3.594602e+00 -5.298947e+00 -4.500000e+00
     vertex -3.299081e+00 -6.254283e+00 -4.500000e+00
   endloop
 endfacet
 facet normal -9.553365e-01 -2.955202e-01 -7.874240e-16
   outer loop
     vertex -3.299081e+00 -6.254283e+00 -3.500000e+00
     vertex -3.594602e+00 -5.298947e+00 -3.500000e+00
     vertex -3.299081e+00 -6.254283e+00 -4.500000e+00
   endloop
 endfacet
 facet normal  2.955202e-01 -9.553365e-01 -2.486900e-15
   outer loop
     vertex  6.254283e+00 -3.299081e+00 -4.500000e+00
     vertex -3.299081e+00 -6.254283e+00 -3.500000e+00
     vertex -3.299081e+00 -6.254283e+00 -4.500000e+00
   endloop
 endfacet
 facet normal  2.955202e-01 -9.553365e-01  6.217249e-16
   outer loop
     vertex  6.254283e+00 -3.299081e+00 -2.500000e+00
     vertex -3.299081e+00 -6.254283e+00  5.000000e-01
     vertex -3.299081e+00 -6.254283e+00 -3.500000e+00
   endloop
 endfacet
 facet normal  2.955202e-01 -9.553365e-01 -1.272764e-15
   outer loop
     vertex  6.254283e+00 -3.299081e+00 -2.500000e+00
     vertex -3.299081e+00 -6.254283e+00 -3.500000e+00
     vertex  6.254283e+00 -3.299081e+00 -4.500000e+00
   endloop
 endfacet
 facet normal  2.955202e-01 -9.553365e-01  8.485093e-16
   outer loop
     vertex  6.254283e+00 -3.299081e+00  5.000000e-01
     vertex -3.299081e+00 -6.254283e+00  5.000000e-01
     vertex  6.254283e+00 -3.299081e+00 -2.500000e+00
   endloop
 endfacet
 facet normal  0.000000e+00 -0.000000e+00 -1.000000e+00
   outer loop
     vertex -3.594602e+00 -5.298947e+00 -3.500000e+00
     vertex -3.299081e+00 -6.254283e+00 -3.500000e+00
     vertex -4.254418e+00 -6.549804e+00 -3.500000e+00
   endloop
 endfacet
 facet normal  0.000000e+00  0.000000e+00 -1.000000e+00
   outer loop
     vertex -7.209620e+00  3.003561e+00 -3.500000e+00
     vertex -6.254283e+00  3.299081e+00 -3.500000e+00
     vertex -3.594602e+00 -5.298947e+00 -3.500000e+00
   endloop
 endfacet
 facet normal  0.000000e+00  0.000000e+00 -1.000000e+00
   outer loop
     vertex -7.209620e+00  3.003561e+00 -3.500000e+00
     vertex -3.594602e+00 -5.298947e+00 -3.500000e+00
     vertex -4.254418e+00 -6.549804e+00 -3.500000e+00
   endloop
 endfacet
 facet normal -2.955202e-01  9.553365e-01  7.105427e-16
   outer loop
     vertex  5.958763e+00 -2.343745e+00 -4.500000e+00
     vertex -3.594602e+00 -5.298947e+00 -4.500000e+00
     vertex -3.594602e+00 -5.298947e+00 -3.500000e+00
   endloop
 endfacet
 facet normal -2.955202e-01  9.553365e-01 -1.776357e-16
   outer loop
     vertex  5.958763e+00 -2.343745e+00 -2.500000e+00
     vertex -3.594602e+00 -5.298947e+00 -3.500000e+00
     vertex -3.594602e+00 -5.298947e+00  5.000000e-01
   endloop
 endfacet
 facet normal -2.955202e-01  9.553365e-01 -1.312373e-16
   outer loop
     vertex  5.958763e+00 -2.343745e+00 -2.500000e+00
     vertex  5.958763e+00 -2.343745e+00 -4.500000e+00
     vertex -3.594602e+00 -5.298947e+00 -3.500000e+00
   endloop
 endfacet
 facet normal -2.955202e-01  9.553365e-01  8.749156e-17
   outer loop
     vertex  5.958763e+00 -2.343745e+00  5.000000e-01
     vertex  5.958763e+00 -2.343745e+00 -2.500000e+00
     vertex -3.594602e+00 -5.298947e+00  5.000000e-01
   endloop
 endfacet
 facet normal  0.000000e+00  0.000000e+00 -1.000000e+00
   outer loop
     vertex  5.958763e+00 -2.343745e+00 -4.500000e+00
     vertex -3.299081e+00 -6.254283e+00 -4.500000e+00
     vertex -3.594602e+00 -5.298947e+00 -4.500000e+00
   endloop
 endfacet
 facet normal  0.000000e+00 -0.000000e+00 -1.000000e+00
   outer loop
     vertex  5.958763e+00 -2.343745e+00 -4.500000e+00
     vertex  6.254283e+00 -3.299081e+00 -4.500000e+00
     vertex -3.299081e+00 -6.254283e+00 -4.500000e+00
   endloop
 endfacet
 facet normal  9.553365e-01  2.955202e-01  3.937120e-16
   outer loop
     vertex  6.254283e+00 -3.299081e+00 -2.500000e+00
     vertex  6.254283e+00 -3.299081e+00 -4.500000e+00
     vertex  5.958763e+00 -2.343745e+00 -4.500000e+00
   endloop
 endfacet
 facet normal  9.553365e-01  2.955202e-01  4.440892e-16
   outer loop
     vertex  6.254283e+00 -3.299081e+00 -2.500000e+00
     vertex  5.958763e+00 -2.343745e+00 -4.500000e+00
     vertex  5.958763e+00 -2.343745e+00 -2.500000e+00
   endloop
 endfacet
 facet normal  2.955202e-01 -9.553365e-01  8.485093e-16
   outer loop
     vertex  6.254283e+00 -3.299081e+00  5.000000e-01
     vertex  6.254283e+00 -3.299081e+00 -2.500000e+00
     vertex  7.209620e+00 -3.003561e+00 -2.500000e+00
   endloop
 endfacet
 facet normal  2.955202e-01 -9.553365e-01 -1.276756e-15
   outer loop
     vertex  7.209620e+00 -3.003561e+00  2.500000e+00
     vertex  6.254283e+00 -3.299081e+00  2.500000e+00
     vertex  6.254283e+00 -3.299081e+00  5.000000e-01
   endloop
 endfacet
 facet normal  2.955202e-01 -9.553365e-01  0.000000e+00
   outer loop
     vertex  7.209620e+00 -3.003561e+00  2.500000e+00
     vertex  6.254283e+00 -3.299081e+00  5.000000e-01
     vertex  7.209620e+00 -3.003561e+00 -2.500000e+00
   endloop
 endfacet
 facet normal  0.000000e+00  0.000000e+00  1.000000e+00
   outer loop
     vertex  5.958763e+00 -2.343745e+00  5.000000e-01
     vertex -3.594602e+00 -5.298947e+00  5.000000e-01
     vertex -3.299081e+00 -6.254283e+00  5.000000e-01
   endloop
 endfacet
 facet normal  0.000000e+00  0.000000e+00  1.000000e+00
   outer loop
     vertex  5.958763e+00 -2.343745e+00  5.000000e-01
     vertex -3.299081e+00 -6.254283e+00  5.000000e-01
     vertex  6.254283e+00 -3.299081e+00  5.000000e-01
   endloop
 endfacet
 facet normal  2.955202e-01 -9.553365e-01  6.363819e-16
   outer loop
     vertex -3.299081e+00 -6.254283e+00  5.000000e-01
     vertex -4.254418e+00 -6.549804e+00 -3.500000e+00
     vertex -3.299081e+00 -6.254283e+00 -3.500000e+00
   endloop
 endfacet
 facet normal  2.955202e-01 -9.553365e-01  0.000000e+00
   outer loop
     vertex -3.299081e+00 -6.254283e+00  5.000000e-01
     vertex -4.254418e+00 -6.549804e+00  1.500000e+00
     vertex -4.254418e+00 -6.549804e+00 -3.500000e+00
   endloop
 endfacet
 facet normal  2.955202e-01 -9.553365e-01 -2.545528e-15
   outer loop
     vertex -3.299081e+00 -6.254283e+00  1.500000e+00
     vertex -4.254418e+00 -6.549804e+00  1.500000e+00
     vertex -3.299081e+00 -6.254283e+00  5.000000e-01
   endloop
 endfacet
 facet normal -9.553365e-01 -2.955202e-01 -0.000000e+00
   outer loop
     vertex -7.209620e+00  3.003561e+00  1.500000e+00
     vertex -7.209620e+00  3.003561e+00 -3.500000e+00
     vertex -4.254418e+00 -6.549804e+00 -3.500000e+00
   endloop
 endfacet
 facet normal -9.553365e-01 -2.955202e-01  0.000000e+00
   outer loop
     vertex -7.209620e+00  3.003561e+00  1.500000e+00
     vertex -4.254418e+00 -6.549804e+00 -3.500000e+00
     vertex -4.254418e+00 -6.549804e+00  1.500000e+00
   endloop
 endfacet
 facet normal -2.955202e-01  9.553365e-01  0.000000e+00
   outer loop
     vertex -6.254283e+00  3.299081e+00  1.500000e+00
     vertex -6.254283e+00  3.299081e+00 -3.500000e+00
     vertex -7.209620e+00  3.003561e+00 -3.500000e+00
   endloop
 endfacet
 facet normal -2.955202e-01  9.553365e-01  0.000000e+00
   outer loop
     vertex -6.254283e+00  3.299081e+00  1.500000e+00
     vertex -7.209620e+00  3.003561e+00 -3.500000e+00
     vertex -7.209620e+00  3.003561e+00  1.500000e+00
   endloop
 endfacet
 facet normal  9.553365e-01  2.955202e-01  7.874240e-16
   outer loop
     vertex -3.299081e+00 -6.254283e+00  1.500000e+00
     vertex -3.299081e+00 -6.254283e+00  5.000000e-01
     vertex -3.594602e+00 -5.298947e+00  5.000000e-01
   endloop
 endfacet
 facet normal  9.553365e-01  2.955202e-01 -1.973730e-16
   outer loop
     vertex -6.254283e+00  3.299081e+00 -3.500000e+00
     vertex -3.594602e+00 -5.298947e+00  5.000000e-01
     vertex -3.594602e+00 -5.298947e+00 -3.500000e+00
   endloop
 endfacet
 facet normal  9.553365e-01  2.955202e-01  0.000000e+00
   outer loop
     vertex -6.254283e+00  3.299081e+00  1.500000e+00
     vertex -3.594602e+00 -5.298947e+00  5.000000e-01
     vertex -6.254283e+00  3.299081e+00 -3.500000e+00
   endloop
 endfacet
 facet normal  9.553365e-01  2.955202e-01  7.105427e-16
   outer loop
     vertex -6.254283e+00  3.299081e+00  1.500000e+00
     vertex -3.299081e+00 -6.254283e+00  1.500000e+00
     vertex -3.594602e+00 -5.298947e+00  5.000000e-01
   endloop
 endfacet
 facet normal -9.553365e-01 -2.955202e-01 -3.937120e-16
   outer loop
     vertex  6.254283e+00 -3.299081e+00  2.500000e+00
     vertex  5.958763e+00 -2.343745e+00  5.000000e-01
     vertex  6.254283e+00 -3.299081e+00  5.000000e-01
   endloop
 endfacet
 facet normal -9.553365e-01 -2.955202e-01  2.631640e-16
   outer loop
     vertex  3.299081e+00  6.254283e+00 -2.500000e+00
     vertex  5.958763e+00 -2.343745e+00 -2.500000e+00
     vertex  5.958763e+00 -2.343745e+00  5.000000e-01
   endloop
 endfacet
 facet normal -9.553365e-01 -2.955202e-01 -0.000000e+00
   outer loop
     vertex  3.299081e+00  6.254283e+00  2.500000e+00
     vertex  3.299081e+00  6.254283e+00 -2.500000e+00
     vertex  5.958763e+00 -2.343745e+00  5.000000e-01
   endloop
 endfacet
 facet normal -9.553365e-01 -2.955202e-01 -3.552714e-16
   outer loop
     vertex  3.299081e+00  6.254283e+00  2.500000e+00
     vertex  5.958763e+00 -2.343745e+00  5.000000e-01
     vertex  6.254283e+00 -3.299081e+00  2.500000e+00
   endloop
 endfacet
 facet normal  0.000000e+00  0.000000e+00 -1.000000e+00
   outer loop
     vertex  5.958763e+00 -2.343745e+00 -2.500000e+00
     vertex  7.209620e+00 -3.003561e+00 -2.500000e+00
     vertex  6.254283e+00 -3.299081e+00 -2.500000e+00
   endloop
 endfacet
 facet normal  0.000000e+00  0.000000e+00 -1.000000e+00
   outer loop
     vertex  4.254418e+00  6.549804e+00 -2.500000e+00
     vertex  7.209620e+00 -3.003561e+00 -2.500000e+00
     vertex  5.958763e+00 -2.343745e+00 -2.500000e+00
   endloop
 endfacet
 facet normal  0.000000e+00  0.000000e+00 -1.000000e+00
   outer loop
     vertex  3.299081e+00  6.254283e+00 -2.500000e+00
     vertex  4.254418e+00  6.549804e+00 -2.500000e+00
     vertex  5.958763e+00 -2.343745e+00 -2.500000e+00
   endloop
 endfacet
 facet normal  9.553365e-01  2.955202e-01  0.000000e+00
   outer loop
     vertex  4.254418e+00  6.549804e+00  2.500000e+00
     vertex  7.209620e+00 -3.003561e+00 -2.500000e+00
     vertex  4.254418e+00  6.549804e+00 -2.500000e+00
   endloop
 endfacet
 facet normal  9.553365e-01  2.955202e-01  0.000000e+00
   outer loop
     vertex  4.254418e+00  6.549804e+00  2.500000e+00
     vertex  7.209620e+00 -3.003561e+00  2.500000e+00
     vertex  7.209620e+00 -3.003561e+00 -2.500000e+00
   endloop
 endfacet
 facet normal  0.000000e+00  0.000000e+00  1.000000e+00
   outer loop
     vertex  3.299081e+00  6.254283e+00  2.500000e+00
     vertex  6.254283e+00 -3.299081e+00  2.500000e+00
     vertex  7.209620e+00 -3.003561e+00  2.500000e+00
   endloop
 endfacet
 facet normal -0.000000e+00  0.000000e+00  1.000000e+00
   outer loop
     vertex  3.299081e+00  6.254283e+00  2.500000e+00
     vertex  7.209620e+00 -3.003561e+00  2.500000e+00
     vertex  4.254418e+00  6.549804e+00  2.500000e+00
   endloop
 endfacet
 facet normal  0.000000e+00  0.000000e+00  1.000000e+00
   outer loop
     vertex -7.209620e+00  3.003561e+00  1.500000e+00
     vertex -4.254418e+00 -6.549804e+00  1.500000e+00
     vertex -3.299081e+00 -6.254283e+00  1.500000e+00
   endloop
 endfacet
 facet normal -0.000000e+00  0.000000e+00  1.000000e+00
   outer loop
     vertex -7.209620e+00  3.003561e+00  1.500000e+00
     vertex -3.299081e+00 -6.254283e+00  1.500000e+00
     vertex -6.254283e+00  3.299081e+00  1.500000e+00
   endloop
 endfacet
 facet normal -2.955202e-01  9.553365e-01  0.000000e+00
   outer loop
     vertex  4.254418e+00  6.549804e+00  2.500000e+00
     vertex  4.254418e+00  6.549804e+00 -2.500000e+00
     vertex  3.299081e+00  6.254283e+00 -2.500000e+00
   endloop
 endfacet
 facet normal -2.955202e-01  9.553365e-01  0.000000e+00
   outer loop
     vertex  4.254418e+00  6.549804e+00  2.500000e+00
     vertex  3.299081e+00  6.254283e+00 -2.500000e+00
     vertex  3.299081e+00  6.254283e+00  2.500000e+00
   endloop
 endfacet
endsolid
