solid 
 facet normal  2.955202e-01 -9.553365e-01 -6.363819e-16
   outer loop
     vertex  3.092754e+00 -3.230306e+00  6.500000e+00
     vertex  2.137417e+00 -3.525826e+00  4.500000e+00
     vertex  3.092754e+00 -3.230306e+00  4.500000e+00
   endloop
 endfacet
 facet normal  2.955202e-01 -9.553365e-01 -8.326673e-17
   outer loop
     vertex  3.092754e+00 -3.230306e+00  6.500000e+00
     vertex  2.137417e+00 -3.525826e+00  6.500000e+00
     vertex  2.137417e+00 -3.525826e+00  4.500000e+00
   endloop
 endfacet
 facet normal  9.553365e-01  2.955202e-01 -1.480297e-16
   outer loop
     vertex  1.910673e+00  5.910404e-01  1.500000e+00
     vertex  3.092754e+00 -3.230306e+00  4.500000e+00
     vertex  3.092754e+00 -3.230306e+00  1.500000e+00
   endloop
 endfacet
 facet normal  9.553365e-01  2.955202e-01  2.220446e-16
   outer loop
     vertex  1.910673e+00  5.910404e-01  6.500000e+00
     vertex  3.092754e+00 -3.230306e+00  6.500000e+00
     vertex  3.092754e+00 -3.230306e+00  4.500000e+00
   endloop
 endfacet
 facet normal  9.553365e-01  2.955202e-01  0.000000e+00
   outer loop
     vertex  1.910673e+00  5.910404e-01  6.500000e+00
     vertex  3.092754e+00 -3.230306e+00  4.500000e+00
     vertex  1.910673e+00  5.910404e-01  1.500000e+00
   endloop
 endfacet
 facet normal  0.000000e+00  0.000000e+00  1.000000e+00
   outer loop
     vertex  9.553365e-01  2.955202e-01  6.500000e+00
     vertex  2.137417e+00 -3.525826e+00  6.500000e+00
     vertex  3.092754e+00 -3.230306e+00  6.500000e+00
   endloop
 endfacet
 facet normal -0.000000e+00  0.000000e+00  1.000000e+00
   outer loop
     vertex  9.553365e-01  2.955202e-01  6.500000e+00
     vertex  3.092754e+00 -3.230306e+00  6.500000e+00
     vertex  1.910673e+00  5.910404e-01  6.500000e+00
   endloop
 endfacet
 facet normal -9.553365e-01 -2.955202e-01 -1.480297e-16
   outer loop
     vertex  9.553365e-01  2.955202e-01  1.500000e+00
     vertex  2.137417e+00 -3.525826e+00  1.500000e+00
     vertex  2.137417e+00 -3.525826e+00  4.500000e+00
   endloop
 endfacet
 facet normal -9.553365e-01 -2.955202e-01  2.220446e-16
   outer loop
     vertex  9.553365e-01  2.955202e-01  6.500000e+00
     vertex  2.137417e+00 -3.525826e+00  4.500000e+00
     vertex  2.137417e+00 -3.525826e+00  6.500000e+00
   endloop
 endfacet
 facet normal -9.553365e-01 -2.955202e-01 -0.000000e+00
   outer loop
     vertex  9.553365e-01  2.955202e-01  6.500000e+00
     vertex  9.553365e-01  2.955202e-01  1.500000e+00
     vertex  2.137417e+00 -3.525826e+00  4.500000e+00
   endloop
 endfacet
 facet normal  0.000000e+00  0.000000e+00  1.000000e+00
   outer loop
     vertex  2.137417e+00 -3.525826e+00  4.500000e+00
     vertex -7.285922e-01 -4.412386e+00  4.500000e+00
     vertex -4.330719e-01 -5.367723e+00  4.500000e+00
   endloop
 endfacet
 facet normal  0.000000e+00  0.000000e+00  1.000000e+00
   outer loop
     vertex  3.388274e+00 -4.185642e+00  4.500000e+00
     vertex  2.137417e+00 -3.525826e+00  4.500000e+00
     vertex -4.330719e-01 -5.367723e+00  4.500000e+00
   endloop
 endfacet
 facet normal  0.000000e+00  0.000000e+00  1.000000e+00
   outer loop
     vertex  3.092754e+00 -3.230306e+00  4.500000e+00
     vertex  2.137417e+00 -3.525826e+00  4.500000e+00
     vertex  3.388274e+00 -4.185642e+00  4.500000e+00
   endloop
 endfacet
 facet normal  0.000000e+00  0.000000e+00 -1.000000e+00
   outer loop
     vertex  9.553365e-01  2.955202e-01  1.500000e+00
     vertex  3.092754e+00 -3.230306e+00  1.500000e+00
     vertex  2.137417e+00 -3.525826e+00  1.500000e+00
   endloop
 endfacet
 facet normal  0.000000e+00  0.000000e+00 -1.000000e+00
   outer loop
     vertex  9.553365e-01  2.955202e-01  1.500000e+00
     vertex  1.910673e+00  5.910404e-01  1.500000e+00
     vertex  3.092754e+00 -3.230306e+00  1.500000e+00
   endloop
 endfacet
 facet normal -2.955202e-01  9.553365e-01  0.000000e+00
   outer loop
     vertex  1.910673e+00  5.910404e-01  6.500000e+00
     vertex  1.910673e+00  5.910404e-01  1.500000e+00
     vertex  9.553365e-01  2.955202e-01  1.500000e+00
   endloop
 endfacet
 facet normal -2.955202e-01  9.553365e-01  0.000000e+00
   outer loop
     vertex  1.910673e+00  5.910404e-01  6.500000e+00
     vertex  9.553365e-01  2.955202e-01  1.500000e+00
     vertex  9.553365e-01  2.955202e-01  6.500000e+00
   endloop
 endfacet
 facet normal  9.553365e-01  2.955202e-01  2.624747e-16
   outer loop
     vertex  3.092754e+00 -3.230306e+00  1.500000e+00
     vertex  3.388274e+00 -4.185642e+00  5.000000e-01
     vertex  3.092754e+00 -3.230306e+00  5.000000e-01
   endloop
 endfacet
 facet normal  9.553365e-01  2.955202e-01 -1.295260e-16
   outer loop
     vertex  3.388274e+00 -4.185642e+00  4.500000e+00
     vertex  3.092754e+00 -3.230306e+00  1.500000e+00
     vertex  3.092754e+00 -3.230306e+00  4.500000e+00
   endloop
 endfacet
 facet normal  9.553365e-01  2.955202e-01 -1.060637e-16
   outer loop
     vertex  3.388274e+00 -4.185642e+00  4.500000e+00
     vertex  3.388274e+00 -4.185642e+00  5.000000e-01
     vertex  3.092754e+00 -3.230306e+00  1.500000e+00
   endloop
 endfacet
 facet normal -2.955202e-01  9.553365e-01  5.551115e-16
   outer loop
     vertex  2.137417e+00 -3.525826e+00  1.500000e+00
     vertex  3.092754e+00 -3.230306e+00  5.000000e-01
     vertex -7.285922e-01 -4.412386e+00  5.000000e-01
   endloop
 endfacet
 facet normal -2.955202e-01  9.553365e-01  0.000000e+00
   outer loop
     vertex -7.285922e-01 -4.412386e+00  4.500000e+00
     vertex  2.137417e+00 -3.525826e+00  1.500000e+00
     vertex -7.285922e-01 -4.412386e+00  5.000000e-01
   endloop
 endfacet
 facet normal -2.955202e-01  9.553365e-01  8.485093e-16
   outer loop
     vertex  3.092754e+00 -3.230306e+00  1.500000e+00
     vertex  3.092754e+00 -3.230306e+00  5.000000e-01
     vertex  2.137417e+00 -3.525826e+00  1.500000e+00
   endloop
 endfacet
 facet normal -2.955202e-01  9.553365e-01 -4.374578e-17
   outer loop
     vertex  2.137417e+00 -3.525826e+00  4.500000e+00
     vertex  2.137417e+00 -3.525826e+00  1.500000e+00
     vertex -7.285922e-01 -4.412386e+00  4.500000e+00
   endloop
 endfacet
 facet normal -9.553365e-01 -2.955202e-01  1.842692e-16
   outer loop
     vertex -4.330719e-01 -5.367723e+00  4.500000e+00
     vertex -7.285922e-01 -4.412386e+00  5.000000e-01
     vertex -4.330719e-01 -5.367723e+00  5.000000e-01
   endloop
 endfacet
 facet normal -9.553365e-01 -2.955202e-01  0.000000e+00
   outer loop
     vertex -4.330719e-01 -5.367723e+00  4.500000e+00
     vertex -7.285922e-01 -4.412386e+00  4.500000e+00
     vertex -7.285922e-01 -4.412386e+00  5.000000e-01
   endloop
 endfacet
 facet normal  2.955202e-01 -9.553365e-01  4.078500e-16
   outer loop
     vertex -4.330719e-01 -5.367723e+00  4.500000e+00
     vertex -4.330719e-01 -5.367723e+00  5.000000e-01
     vertex  3.388274e+00 -4.185642e+00  5.000000e-01
   endloop
 endfacet
 facet normal  2.955202e-01 -9.553365e-01 -3.280933e-17
   outer loop
     vertex  3.388274e+00 -4.185642e+00  4.500000e+00
     vertex -4.330719e-01 -5.367723e+00  4.500000e+00
     vertex  3.388274e+00 -4.185642e+00  5.000000e-01
   endloop
 endfacet
 facet normal  0.000000e+00  0.000000e+00  1.000000e+00
   outer loop
     vertex  5.958763e+00 -2.343745e+00  5.000000e-01
     vertex  3.092754e+00 -3.230306e+00  5.000000e-01
     vertex  3.388274e+00 -4.185642e+00  5.000000e-01
   endloop
 endfacet
 facet normal  0.000000e+00  0.000000e+00  1.000000e+00
   outer loop
     vertex  5.958763e+00 -2.343745e+00  5.000000e-01
     vertex  3.388274e+00 -4.185642e+00  5.000000e-01
     vertex  6.254283e+00 -3.299081e+00  5.000000e-01
   endloop
 endfacet
 facet normal -2.955202e-01  9.553365e-01  4.242546e-16
   outer loop
     vertex  3.092754e+00 -3.230306e+00  5.000000e-01
     vertex  3.092754e+00 -3.230306e+00 -5.000000e-01
     vertex -7.285922e-01 -4.412386e+00 -5.000000e-01
   endloop
 endfacet
 facet normal -2.955202e-01  9.553365e-01  0.000000e+00
   outer loop
     vertex  3.092754e+00 -3.230306e+00  5.000000e-01
     vertex -7.285922e-01 -4.412386e+00 -5.000000e-01
     vertex -7.285922e-01 -4.412386e+00  5.000000e-01
   endloop
 endfacet
 facet normal  0.000000e+00  0.000000e+00  1.000000e+00
   outer loop
     vertex -7.285922e-01 -4.412386e+00  5.000000e-01
     vertex -3.594602e+00 -5.298947e+00  5.000000e-01
     vertex -3.299081e+00 -6.254283e+00  5.000000e-01
   endloop
 endfacet
 facet normal  0.000000e+00  0.000000e+00  1.000000e+00
   outer loop
     vertex -7.285922e-01 -4.412386e+00  5.000000e-01
     vertex -3.299081e+00 -6.254283e+00  5.000000e-01
     vertex -4.330719e-01 -5.367723e+00  5.000000e-01
   endloop
 endfacet
 facet normal  2.955202e-01 -9.553365e-01  1.312373e-16
   outer loop
     vertex  3.388274e+00 -4.185642e+00  5.000000e-01
     vertex -4.330719e-01 -5.367723e+00 -5.000000e-01
     vertex  3.388274e+00 -4.185642e+00 -5.000000e-01
   endloop
 endfacet
 facet normal  2.955202e-01 -9.553365e-01 -1.776357e-15
   outer loop
     vertex  3.388274e+00 -4.185642e+00  5.000000e-01
     vertex -4.330719e-01 -5.367723e+00  5.000000e-01
     vertex -4.330719e-01 -5.367723e+00 -5.000000e-01
   endloop
 endfacet
 facet normal -2.955202e-01  9.553365e-01  5.921189e-16
   outer loop
     vertex -7.285922e-01 -4.412386e+00 -5.000000e-01
     vertex -3.594602e+00 -5.298947e+00 -4.500000e+00
     vertex -3.594602e+00 -5.298947e+00 -3.500000e+00
   endloop
 endfacet
 facet normal -2.955202e-01  9.553365e-01 -1.480297e-16
   outer loop
     vertex -7.285922e-01 -4.412386e+00 -5.000000e-01
     vertex -3.594602e+00 -5.298947e+00 -3.500000e+00
     vertex -3.594602e+00 -5.298947e+00  5.000000e-01
   endloop
 endfacet
 facet normal -2.955202e-01  9.553365e-01  0.000000e+00
   outer loop
     vertex -7.285922e-01 -4.412386e+00  5.000000e-01
     vertex -7.285922e-01 -4.412386e+00 -5.000000e-01
     vertex -3.594602e+00 -5.298947e+00  5.000000e-01
   endloop
 endfacet
 facet normal -2.955202e-01  9.553365e-01 -2.220446e-17
   outer loop
     vertex  3.092754e+00 -3.230306e+00 -5.000000e-01
     vertex  5.958763e+00 -2.343745e+00 -4.500000e+00
     vertex -3.594602e+00 -5.298947e+00 -4.500000e+00
   endloop
 endfacet
 facet normal -2.955202e-01  9.553365e-01  1.665335e-16
   outer loop
     vertex  3.092754e+00 -3.230306e+00 -5.000000e-01
     vertex -3.594602e+00 -5.298947e+00 -4.500000e+00
     vertex -7.285922e-01 -4.412386e+00 -5.000000e-01
   endloop
 endfacet
 facet normal -2.955202e-01  9.553365e-01 -1.312373e-16
   outer loop
     vertex  5.958763e+00 -2.343745e+00 -2.500000e+00
     vertex  5.958763e+00 -2.343745e+00 -4.500000e+00
     vertex  3.092754e+00 -3.230306e+00 -5.000000e-01
   endloop
 endfacet
 facet normal -2.955202e-01  9.553365e-01  4.440892e-16
   outer loop
     vertex  5.958763e+00 -2.343745e+00  5.000000e-01
     vertex  3.092754e+00 -3.230306e+00 -5.000000e-01
     vertex  3.092754e+00 -3.230306e+00  5.000000e-01
   endloop
 endfacet
 facet normal -2.955202e-01  9.553365e-01  8.749156e-17
   outer loop
     vertex  5.958763e+00 -2.343745e+00  5.000000e-01
     vertex  5.958763e+00 -2.343745e+00 -2.500000e+00
     vertex  3.092754e+00 -3.230306e+00 -5.000000e-01
   endloop
 endfacet
 facet normal -9.553365e-01 -2.955202e-01 -3.937120e-16
   outer loop
     vertex  6.254283e+00 -3.299081e+00  2.500000e+00
     vertex  5.958763e+00 -2.343745e+00  5.000000e-01
     vertex  6.254283e+00 -3.299081e+00  5.000000e-01
   endloop
 endfacet
 facet normal -9.553365e-01 -2.955202e-01  2.960595e-16
   outer loop
     vertex  3.594602e+00  5.298947e+00 -1.500000e+00
     vertex  5.958763e+00 -2.343745e+00 -2.500000e+00
     vertex  5.958763e+00 -2.343745e+00  5.000000e-01
   endloop
 endfacet
 facet normal -9.553365e-01 -2.955202e-01 -7.401487e-16
   outer loop
     vertex  3.299081e+00  6.254283e+00 -2.500000e+00
     vertex  5.958763e+00 -2.343745e+00 -2.500000e+00
     vertex  3.594602e+00  5.298947e+00 -1.500000e+00
   endloop
 endfacet
 facet normal -9.553365e-01 -2.955202e-01 -7.874240e-16
   outer loop
     vertex  3.299081e+00  6.254283e+00 -1.500000e+00
     vertex  3.299081e+00  6.254283e+00 -2.500000e+00
     vertex  3.594602e+00  5.298947e+00 -1.500000e+00
   endloop
 endfacet
 facet normal -9.553365e-01 -2.955202e-01 -1.973730e-16
   outer loop
     vertex  3.594602e+00  5.298947e+00  2.500000e+00
     vertex  5.958763e+00 -2.343745e+00  5.000000e-01
     vertex  6.254283e+00 -3.299081e+00  2.500000e+00
   endloop
 endfacet
 facet normal -9.553365e-01 -2.955202e-01  2.777460e-16
   outer loop
     vertex  3.594602e+00  5.298947e+00  2.500000e+00
     vertex  3.594602e+00  5.298947e+00 -1.500000e+00
     vertex  5.958763e+00 -2.343745e+00  5.000000e-01
   endloop
 endfacet
 facet normal  2.955202e-01 -9.553365e-01 -2.516506e-15
   outer loop
     vertex -4.330719e-01 -5.367723e+00 -5.000000e-01
     vertex -3.299081e+00 -6.254283e+00 -3.500000e+00
     vertex -3.299081e+00 -6.254283e+00 -4.500000e+00
   endloop
 endfacet
 facet normal  2.955202e-01 -9.553365e-01  6.291264e-16
   outer loop
     vertex -4.330719e-01 -5.367723e+00 -5.000000e-01
     vertex -3.299081e+00 -6.254283e+00  5.000000e-01
     vertex -3.299081e+00 -6.254283e+00 -3.500000e+00
   endloop
 endfacet
 facet normal  2.955202e-01 -9.553365e-01 -1.631400e-15
   outer loop
     vertex -4.330719e-01 -5.367723e+00  5.000000e-01
     vertex -3.299081e+00 -6.254283e+00  5.000000e-01
     vertex -4.330719e-01 -5.367723e+00 -5.000000e-01
   endloop
 endfacet
 facet normal  2.955202e-01 -9.553365e-01 -1.332268e-16
   outer loop
     vertex  3.388274e+00 -4.185642e+00 -5.000000e-01
     vertex -3.299081e+00 -6.254283e+00 -4.500000e+00
     vertex  6.254283e+00 -3.299081e+00 -4.500000e+00
   endloop
 endfacet
 facet normal  2.955202e-01 -9.553365e-01  1.665335e-16
   outer loop
     vertex  3.388274e+00 -4.185642e+00 -5.000000e-01
     vertex -4.330719e-01 -5.367723e+00 -5.000000e-01
     vertex -3.299081e+00 -6.254283e+00 -4.500000e+00
   endloop
 endfacet
 facet normal  2.955202e-01 -9.553365e-01 -1.272764e-15
   outer loop
     vertex  6.254283e+00 -3.299081e+00 -2.500000e+00
     vertex  3.388274e+00 -4.185642e+00 -5.000000e-01
     vertex  6.254283e+00 -3.299081e+00 -4.500000e+00
   endloop
 endfacet
 facet normal  2.955202e-01 -9.553365e-01  1.480297e-16
   outer loop
     vertex  6.254283e+00 -3.299081e+00  5.000000e-01
     vertex  3.388274e+00 -4.185642e+00  5.000000e-01
     vertex  3.388274e+00 -4.185642e+00 -5.000000e-01
   endloop
 endfacet
 facet normal  2.955202e-01 -9.553365e-01  8.485093e-16
   outer loop
     vertex  6.254283e+00 -3.299081e+00  5.000000e-01
     vertex  3.388274e+00 -4.185642e+00 -5.000000e-01
     vertex  6.254283e+00 -3.299081e+00 -2.500000e+00
   endloop
 endfacet
 facet normal  9.553365e-01  2.955202e-01  7.874240e-16
   outer loop
     vertex -3.299081e+00 -6.254283e+00  1.500000e+00
     vertex -3.299081e+00 -6.254283e+00  5.000000e-01
     vertex -3.594602e+00 -5.298947e+00  5.000000e-01
   endloop
 endfacet
 facet normal  9.553365e-01  2.955202e-01 -1.973730e-16
   outer loop
     vertex -6.254283e+00  3.299081e+00 -3.500000e+00
     vertex -3.594602e+00 -5.298947e+00  5.000000e-01
     vertex -3.594602e+00 -5.298947e+00 -3.500000e+00
   endloop
 endfacet
 facet normal  9.553365e-01  2.955202e-01  0.000000e+00
   outer loop
     vertex -6.254283e+00  3.299081e+00  1.500000e+00
     vertex -3.594602e+00 -5.298947e+00  5.000000e-01
     vertex -6.254283e+00  3.299081e+00 -3.500000e+00
   endloop
 endfacet
 facet normal  9.553365e-01  2.955202e-01  7.105427e-16
   outer loop
     vertex -6.254283e+00  3.299081e+00  1.500000e+00
     vertex -3.299081e+00 -6.254283e+00  1.500000e+00
     vertex -3.594602e+00 -5.298947e+00  5.000000e-01
   endloop
 endfacet
 facet normal  9.553365e-01  2.955202e-01  3.937120e-16
   outer loop
     vertex  6.254283e+00 -3.299081e+00 -2.500000e+00
     vertex  6.254283e+00 -3.299081e+00 -4.500000e+00
     vertex  5.958763e+00 -2.343745e+00 -4.500000e+00
   endloop
 endfacet
 facet normal  9.553365e-01  2.955202e-01  4.440892e-16
   outer loop
     vertex  6.254283e+00 -3.299081e+00 -2.500000e+00
     vertex  5.958763e+00 -2.343745e+00 -4.500000e+00
     vertex  5.958763e+00 -2.343745e+00 -2.500000e+00
   endloop
 endfacet
 facet normal -9.553365e-01 -2.955202e-01 -1.110984e-15
   outer loop
     vertex -3.594602e+00 -5.298947e+00 -3.500000e+00
     vertex -3.594602e+00 -5.298947e+00 -4.500000e+00
     vertex -3.299081e+00 -6.254283e+00 -4.500000e+00
   endloop
 endfacet
 facet normal -9.553365e-01 -2.955202e-01 -7.874240e-16
   outer loop
     vertex -3.299081e+00 -6.254283e+00 -3.500000e+00
     vertex -3.594602e+00 -5.298947e+00 -3.500000e+00
     vertex -3.299081e+00 -6.254283e+00 -4.500000e+00
   endloop
 endfacet
 facet normal  0.000000e+00  0.000000e+00 -1.000000e+00
   outer loop
     vertex  5.958763e+00 -2.343745e+00 -4.500000e+00
     vertex -3.299081e+00 -6.254283e+00 -4.500000e+00
     vertex -3.594602e+00 -5.298947e+00 -4.500000e+00
   endloop
 endfacet
 facet normal  0.000000e+00 -0.000000e+00 -1.000000e+00
   outer loop
     vertex  5.958763e+00 -2.343745e+00 -4.500000e+00
     vertex  6.254283e+00 -3.299081e+00 -4.500000e+00
     vertex -3.299081e+00 -6.254283e+00 -4.500000e+00
   endloop
 endfacet
 facet normal -2.955202e-01  9.553365e-01  1.110984e-15
   outer loop
     vertex  4.254418e+00  6.549804e+00 -1.500000e+00
     vertex  4.254418e+00  6.549804e+00 -2.500000e+00
     vertex  3.299081e+00  6.254283e+00 -2.500000e+00
   endloop
 endfacet
 facet normal -2.955202e-01  9.553365e-01  2.553513e-15
   outer loop
     vertex  4.254418e+00  6.549804e+00 -1.500000e+00
     vertex  3.299081e+00  6.254283e+00 -2.500000e+00
     vertex  3.299081e+00  6.254283e+00 -1.500000e+00
   endloop
 endfacet
 facet normal -9.553365e-01 -2.955202e-01  1.968560e-16
   outer loop
     vertex  3.299081e+00  6.254283e+00  2.500000e+00
     vertex  3.299081e+00  6.254283e+00 -1.500000e+00
     vertex  3.594602e+00  5.298947e+00 -1.500000e+00
   endloop
 endfacet
 facet normal -9.553365e-01 -2.955202e-01  2.775558e-16
   outer loop
     vertex  3.299081e+00  6.254283e+00  2.500000e+00
     vertex  3.594602e+00  5.298947e+00 -1.500000e+00
     vertex  3.594602e+00  5.298947e+00  2.500000e+00
   endloop
 endfacet
 facet normal  0.000000e+00  0.000000e+00  1.000000e+00
   outer loop
     vertex  3.594602e+00  5.298947e+00  2.500000e+00
     vertex  6.254283e+00 -3.299081e+00  2.500000e+00
     vertex  7.209620e+00 -3.003561e+00  2.500000e+00
   endloop
 endfacet
 facet normal -0.000000e+00  0.000000e+00  1.000000e+00
   outer loop
     vertex  3.594602e+00  5.298947e+00  2.500000e+00
     vertex  7.209620e+00 -3.003561e+00  2.500000e+00
     vertex  4.549938e+00  5.594467e+00  2.500000e+00
   endloop
 endfacet
 facet normal  2.955202e-01 -9.553365e-01  8.485093e-16
   outer loop
     vertex  6.254283e+00 -3.299081e+00  5.000000e-01
     vertex  6.254283e+00 -3.299081e+00 -2.500000e+00
     vertex  7.209620e+00 -3.003561e+00 -2.500000e+00
   endloop
 endfacet
 facet normal  2.955202e-01 -9.553365e-01 -1.276756e-15
   outer loop
     vertex  7.209620e+00 -3.003561e+00  2.500000e+00
     vertex  6.254283e+00 -3.299081e+00  2.500000e+00
     vertex  6.254283e+00 -3.299081e+00  5.000000e-01
   endloop
 endfacet
 facet normal  2.955202e-01 -9.553365e-01  0.000000e+00
   outer loop
     vertex  7.209620e+00 -3.003561e+00  2.500000e+00
     vertex  6.254283e+00 -3.299081e+00  5.000000e-01
     vertex  7.209620e+00 -3.003561e+00 -2.500000e+00
   endloop
 endfacet
 facet normal  0.000000e+00  0.000000e+00 -1.000000e+00
   outer loop
     vertex  5.958763e+00 -2.343745e+00 -2.500000e+00
     vertex  7.209620e+00 -3.003561e+00 -2.500000e+00
     vertex  6.254283e+00 -3.299081e+00 -2.500000e+00
   endloop
 endfacet
 facet normal  0.000000e+00  0.000000e+00 -1.000000e+00
   outer loop
     vertex  4.254418e+00  6.549804e+00 -2.500000e+00
     vertex  7.209620e+00 -3.003561e+00 -2.500000e+00
     vertex  5.958763e+00 -2.343745e+00 -2.500000e+00
   endloop
 endfacet
 facet normal  0.000000e+00  0.000000e+00 -1.000000e+00
   outer loop
     vertex  3.299081e+00  6.254283e+00 -2.500000e+00
     vertex  4.254418e+00  6.549804e+00 -2.500000e+00
     vertex  5.958763e+00 -2.343745e+00 -2.500000e+00
   endloop
 endfacet
 facet normal  2.955202e-01 -9.553365e-01  6.363819e-16
   outer loop
     vertex -3.299081e+00 -6.254283e+00  5.000000e-01
     vertex -4.254418e+00 -6.549804e+00 -3.500000e+00
     vertex -3.299081e+00 -6.254283e+00 -3.500000e+00
   endloop
 endfacet
 facet normal  2.955202e-01 -9.553365e-01  0.000000e+00
   outer loop
     vertex -3.299081e+00 -6.254283e+00  5.000000e-01
     vertex -4.254418e+00 -6.549804e+00  1.500000e+00
     vertex -4.254418e+00 -6.549804e+00 -3.500000e+00
   endloop
 endfacet
 facet normal  2.955202e-01 -9.553365e-01 -2.545528e-15
   outer loop
     vertex -3.299081e+00 -6.254283e+00  1.500000e+00
     vertex -4.254418e+00 -6.549804e+00  1.500000e+00
     vertex -3.299081e+00 -6.254283e+00  5.000000e-01
   endloop
 endfacet
 facet normal  0.000000e+00 -0.000000e+00 -1.000000e+00
   outer loop
     vertex -3.594602e+00 -5.298947e+00 -3.500000e+00
     vertex -3.299081e+00 -6.254283e+00 -3.500000e+00
     vertex -4.254418e+00 -6.549804e+00 -3.500000e+00
   endloop
 endfacet
 facet normal  0.000000e+00  0.000000e+00 -1.000000e+00
   outer loop
     vertex -7.209620e+00  3.003561e+00 -3.500000e+00
     vertex -6.254283e+00  3.299081e+00 -3.500000e+00
     vertex -3.594602e+00 -5.298947e+00 -3.500000e+00
   endloop
 endfacet
 facet normal  0.000000e+00  0.000000e+00 -1.000000e+00
   outer loop
     vertex -7.209620e+00  3.003561e+00 -3.500000e+00
     vertex -3.594602e+00 -5.298947e+00 -3.500000e+00
     vertex -4.254418e+00 -6.549804e+00 -3.500000e+00
   endloop
 endfacet
 facet normal -2.955202e-01  9.553365e-01  0.000000e+00
   outer loop
     vertex -6.254283e+00  3.299081e+00  1.500000e+00
     vertex -6.254283e+00  3.299081e+00 -3.500000e+00
     vertex -7.209620e+00  3.003561e+00 -3.500000e+00
   endloop
 endfacet
 facet normal -2.955202e-01  9.553365e-01  0.000000e+00
   outer loop
     vertex -6.254283e+00  3.299081e+00  1.500000e+00
     vertex -7.209620e+00  3.003561e+00 -3.500000e+00
     vertex -7.209620e+00  3.003561e+00  1.500000e+00
   endloop
 endfacet
 facet normal  0.000000e+00  0.000000e+00  1.000000e+00
   outer loop
     vertex -7.209620e+00  3.003561e+00  1.500000e+00
     vertex -4.254418e+00 -6.549804e+00  1.500000e+00
     vertex -3.299081e+00 -6.254283e+00  1.500000e+00
   endloop
 endfacet
 facet normal -0.000000e+00  0.000000e+00  1.000000e+00
   outer loop
     vertex -7.209620e+00  3.003561e+00  1.500000e+00
     vertex -3.299081e+00 -6.254283e+00  1.500000e+00
     vertex -6.254283e+00  3.299081e+00  1.500000e+00
   endloop
 endfacet
 facet normal  9.553365e-01  2.955202e-01 -8.437695e-16
   outer loop
     vertex  4.549938e+00  5.594467e+00 -1.500000e+00
     vertex  7.209620e+00 -3.003561e+00 -2.500000e+00
     vertex  4.254418e+00  6.549804e+00 -2.500000e+00
   endloop
 endfacet
 facet normal  9.553365e-01  2.955202e-01  0.000000e+00
   outer loop
     vertex  4.549938e+00  5.594467e+00 -1.500000e+00
     vertex  7.209620e+00 -3.003561e+00  2.500000e+00
     vertex  7.209620e+00 -3.003561e+00 -2.500000e+00
   endloop
 endfacet
 facet normal  9.553365e-01  2.955202e-01 -5.860346e-16
   outer loop
     vertex  4.254418e+00  6.549804e+00 -1.500000e+00
     vertex  4.549938e+00  5.594467e+00 -1.500000e+00
     vertex  4.254418e+00  6.549804e+00 -2.500000e+00
   endloop
 endfacet
 facet normal  9.553365e-01  2.955202e-01  0.000000e+00
   outer loop
     vertex  4.549938e+00  5.594467e+00  2.500000e+00
     vertex  7.209620e+00 -3.003561e+00  2.500000e+00
     vertex  4.549938e+00  5.594467e+00 -1.500000e+00
   endloop
 endfacet
 facet normal -2.955202e-01  9.553365e-01 -2.777460e-16
   outer loop
     vertex  4.254418e+00  6.549804e+00  2.500000e+00
     vertex  4.254418e+00  6.549804e+00 -1.500000e+00
     vertex  3.299081e+00  6.254283e+00 -1.500000e+00
   endloop
 endfacet
 facet normal -2.955202e-01  9.553365e-01 -6.383782e-16
   outer loop
     vertex  4.254418e+00  6.549804e+00  2.500000e+00
     vertex  3.299081e+00  6.254283e+00 -1.500000e+00
     vertex  3.299081e+00  6.254283e+00  2.500000e+00
   endloop
 endfacet
 facet normal -9.553365e-01 -2.955202e-01 -1.110984e-15
   outer loop
     vertex  3.594602e+00  5.298947e+00  3.500000e+00
     vertex  3.299081e+00  6.254283e+00  2.500000e+00
     vertex  3.594602e+00  5.298947e+00  2.500000e+00
   endloop
 endfacet
 facet normal -9.553365e-01 -2.955202e-01 -7.771561e-16
   outer loop
     vertex  3.594602e+00  5.298947e+00  3.500000e+00
     vertex  3.299081e+00  6.254283e+00  3.500000e+00
     vertex  3.299081e+00  6.254283e+00  2.500000e+00
   endloop
 endfacet
 facet normal  2.955202e-01 -9.553365e-01 -5.551115e-16
   outer loop
     vertex  4.549938e+00  5.594467e+00  2.500000e+00
     vertex  3.594602e+00  5.298947e+00  3.500000e+00
     vertex  3.594602e+00  5.298947e+00  2.500000e+00
   endloop
 endfacet
 facet normal  2.955202e-01 -9.553365e-01  0.000000e+00
   outer loop
     vertex  1.314797e+01  8.254149e+00 -1.500000e+00
     vertex  4.549938e+00  5.594467e+00  2.500000e+00
     vertex  4.549938e+00  5.594467e+00 -1.500000e+00
   endloop
 endfacet
 facet normal  2.955202e-01 -9.553365e-01  0.000000e+00
   outer loop
     vertex  1.314797e+01  8.254149e+00  3.500000e+00
     vertex  4.549938e+00  5.594467e+00  2.500000e+00
     vertex  1.314797e+01  8.254149e+00 -1.500000e+00
   endloop
 endfacet
 facet normal  2.955202e-01 -9.553365e-01 -3.552714e-16
   outer loop
     vertex  1.314797e+01  8.254149e+00  3.500000e+00
     vertex  3.594602e+00  5.298947e+00  3.500000e+00
     vertex  4.549938e+00  5.594467e+00  2.500000e+00
   endloop
 endfacet
 facet normal -9.553365e-01 -2.955202e-01 -0.000000e+00
   outer loop
     vertex -7.209620e+00  3.003561e+00  1.500000e+00
     vertex -7.209620e+00  3.003561e+00 -3.500000e+00
     vertex -4.254418e+00 -6.549804e+00 -3.500000e+00
   endloop
 endfacet
 facet normal -9.553365e-01 -2.955202e-01  0.000000e+00
   outer loop
     vertex -7.209620e+00  3.003561e+00  1.500000e+00
     vertex -4.254418e+00 -6.549804e+00 -3.500000e+00
     vertex -4.254418e+00 -6.549804e+00  1.500000e+00
   endloop
 endfacet
 facet normal  0.000000e+00  0.000000e+00 -1.000000e+00
   outer loop
     vertex  1.285245e+01  9.209486e+00 -1.500000e+00
     vertex  4.549938e+00  5.594467e+00 -1.500000e+00
     vertex  4.254418e+00  6.549804e+00 -1.500000e+00
   endloop
 endfacet
 facet normal  0.000000e+00 -0.000000e+00 -1.000000e+00
   outer loop
     vertex  1.285245e+01  9.209486e+00 -1.500000e+00
     vertex  1.314797e+01  8.254149e+00 -1.500000e+00
     vertex  4.549938e+00  5.594467e+00 -1.500000e+00
   endloop
 endfacet
 facet normal -2.955202e-01  9.553365e-01  2.553513e-15
   outer loop
     vertex  4.254418e+00  6.549804e+00  2.500000e+00
     vertex  3.299081e+00  6.254283e+00  2.500000e+00
     vertex  3.299081e+00  6.254283e+00  3.500000e+00
   endloop
 endfacet
 facet normal -2.955202e-01  9.553365e-01 -1.973730e-16
   outer loop
     vertex  1.285245e+01  9.209486e+00 -1.500000e+00
     vertex  4.254418e+00  6.549804e+00 -1.500000e+00
     vertex  4.254418e+00  6.549804e+00  2.500000e+00
   endloop
 endfacet
 facet normal -2.955202e-01  9.553365e-01  0.000000e+00
   outer loop
     vertex  1.285245e+01  9.209486e+00  3.500000e+00
     vertex  1.285245e+01  9.209486e+00 -1.500000e+00
     vertex  4.254418e+00  6.549804e+00  2.500000e+00
   endloop
 endfacet
 facet normal -2.955202e-01  9.553365e-01  2.842171e-15
   outer loop
     vertex  1.285245e+01  9.209486e+00  3.500000e+00
     vertex  4.254418e+00  6.549804e+00  2.500000e+00
     vertex  3.299081e+00  6.254283e+00  3.500000e+00
   endloop
 endfacet
 facet normal  0.000000e+00  0.000000e+00  1.000000e+00
   outer loop
     vertex  1.285245e+01  9.209486e+00  3.500000e+00
     vertex  3.299081e+00  6.254283e+00  3.500000e+00
     vertex  3.594602e+00  5.298947e+00  3.500000e+00
   endloop
 endfacet
 facet normal  0.000000e+00  0.000000e+00  1.000000e+00
   outer loop
     vertex  1.285245e+01  9.209486e+00  3.500000e+00
     vertex  3.594602e+00  5.298947e+00  3.500000e+00
     vertex  1.314797e+01  8.254149e+00  3.500000e+00
   endloop
 endfacet
 facet normal  9.553365e-01  2.955202e-01  0.000000e+00
   outer loop
     vertex  1.314797e+01  8.254149e+00  3.500000e+00
     vertex  1.314797e+01  8.254149e+00 -1.500000e+00
     vertex  1.285245e+01  9.209486e+00 -1.500000e+00
   endloop
 endfacet
 facet normal  9.553365e-01  2.955202e-01  0.000000e+00
   outer loop
     vertex  1.314797e+01  8.254149e+00  3.500000e+00
     vertex  1.285245e+01  9.209486e+00 -1.500000e+00
     vertex  1.285245e+01  9.209486e+00  3.500000e+00
   endloop
 endfacet
endsolid
