solid 
 facet normal  0.000000e+00  0.000000e+00 -1.000000e+00
   outer loop
     vertex  5.000000e+00  2.500000e+01 -2.500000e+00
     vertex  6.000000e+00  2.400000e+01 -2.500000e+00
     vertex  5.000000e+00  2.400000e+01 -2.500000e+00
   endloop
 endfacet
 facet normal  0.000000e+00  0.000000e+00 -1.000000e+00
   outer loop
     vertex  5.000000e+00  2.500000e+01 -2.500000e+00
     vertex  6.000000e+00  2.500000e+01 -2.500000e+00
     vertex  6.000000e+00  2.400000e+01 -2.500000e+00
   endloop
 endfacet
<<<<<<< Updated upstream
 facet normal -1.000000e+00  0.000000e+00 -0.000000e+00
=======
 facet normal  1.000000e+00 -3.552714e-16  1.184238e-15
>>>>>>> Stashed changes
   outer loop
     vertex  5.000000e+00  2.500000e+01  2.500000e+00
     vertex  5.000000e+00  2.500000e+01 -2.500000e+00
     vertex  5.000000e+00  2.400000e+01 -2.500000e+00
   endloop
 endfacet
 facet normal -1.000000e+00 -0.000000e+00  0.000000e+00
   outer loop
     vertex  5.000000e+00  2.500000e+01  2.500000e+00
     vertex  5.000000e+00  2.400000e+01 -2.500000e+00
     vertex  5.000000e+00  2.400000e+01  2.500000e+00
   endloop
 endfacet
 facet normal  0.000000e+00  1.000000e+00  0.000000e+00
   outer loop
     vertex  6.000000e+00  2.500000e+01  2.500000e+00
     vertex  6.000000e+00  2.500000e+01 -2.500000e+00
     vertex  5.000000e+00  2.500000e+01 -2.500000e+00
   endloop
 endfacet
<<<<<<< Updated upstream
 facet normal  0.000000e+00  1.000000e+00  0.000000e+00
=======
 facet normal  1.000000e+00 -3.552714e-16 -5.075305e-16
>>>>>>> Stashed changes
   outer loop
     vertex  6.000000e+00  2.500000e+01  2.500000e+00
     vertex  5.000000e+00  2.500000e+01 -2.500000e+00
     vertex  5.000000e+00  2.500000e+01  2.500000e+00
   endloop
 endfacet
 facet normal -0.000000e+00  0.000000e+00 -1.000000e+00
   outer loop
     vertex  1.500000e+01  2.500000e+01 -2.500000e+00
     vertex  6.000000e+00  2.400000e+01 -2.500000e+00
     vertex  6.000000e+00  2.500000e+01 -2.500000e+00
   endloop
 endfacet
 facet normal  0.000000e+00 -0.000000e+00 -1.000000e+00
   outer loop
     vertex  1.500000e+01  2.500000e+01 -2.500000e+00
     vertex  1.500000e+01  2.400000e+01 -2.500000e+00
     vertex  6.000000e+00  2.400000e+01 -2.500000e+00
   endloop
 endfacet
 facet normal  0.000000e+00  0.000000e+00 -1.000000e+00
   outer loop
     vertex  5.000000e+00  2.400000e+01 -2.500000e+00
     vertex  6.000000e+00  1.500000e+01 -2.500000e+00
     vertex  5.000000e+00  1.500000e+01 -2.500000e+00
   endloop
 endfacet
 facet normal  0.000000e+00  0.000000e+00 -1.000000e+00
   outer loop
     vertex  5.000000e+00  2.400000e+01 -2.500000e+00
     vertex  6.000000e+00  2.400000e+01 -2.500000e+00
     vertex  6.000000e+00  1.500000e+01 -2.500000e+00
   endloop
 endfacet
 facet normal  0.000000e+00  0.000000e+00  1.000000e+00
   outer loop
     vertex  5.000000e+00  2.500000e+01  2.500000e+00
     vertex  5.000000e+00  2.400000e+01  2.500000e+00
     vertex  6.000000e+00  2.400000e+01  2.500000e+00
   endloop
 endfacet
 facet normal -0.000000e+00  0.000000e+00  1.000000e+00
   outer loop
     vertex  5.000000e+00  2.500000e+01  2.500000e+00
     vertex  6.000000e+00  2.400000e+01  2.500000e+00
     vertex  6.000000e+00  2.500000e+01  2.500000e+00
   endloop
 endfacet
 facet normal -1.000000e+00  3.552714e-16 -1.184238e-15
   outer loop
     vertex  5.000000e+00  2.400000e+01  2.500000e+00
     vertex  5.000000e+00  2.400000e+01 -2.500000e+00
     vertex  5.000000e+00  1.500000e+01 -2.500000e+00
   endloop
 endfacet
 facet normal -1.000000e+00 -0.000000e+00  0.000000e+00
   outer loop
     vertex  5.000000e+00  2.400000e+01  2.500000e+00
     vertex  5.000000e+00  1.500000e+01 -2.500000e+00
     vertex  5.000000e+00  1.500000e+01  2.500000e+00
   endloop
 endfacet
 facet normal  0.000000e+00  1.000000e+00  0.000000e+00
   outer loop
     vertex  1.500000e+01  2.500000e+01  2.500000e+00
     vertex  1.500000e+01  2.500000e+01 -2.500000e+00
     vertex  6.000000e+00  2.500000e+01 -2.500000e+00
   endloop
 endfacet
<<<<<<< Updated upstream
 facet normal  0.000000e+00  1.000000e+00  0.000000e+00
=======
 facet normal -1.000000e+00  3.552714e-16  5.075305e-16
>>>>>>> Stashed changes
   outer loop
     vertex  1.500000e+01  2.500000e+01  2.500000e+00
     vertex  6.000000e+00  2.500000e+01 -2.500000e+00
     vertex  6.000000e+00  2.500000e+01  2.500000e+00
   endloop
 endfacet
<<<<<<< Updated upstream
 facet normal  1.000000e+00  0.000000e+00  0.000000e+00
=======
 facet normal  0.000000e+00 -0.000000e+00 -1.000000e+00
>>>>>>> Stashed changes
   outer loop
     vertex  1.500000e+01  2.400000e+01  2.500000e+00
     vertex  1.500000e+01  2.400000e+01 -2.500000e+00
     vertex  1.500000e+01  2.500000e+01 -2.500000e+00
   endloop
 endfacet
 facet normal  1.000000e+00 -0.000000e+00  0.000000e+00
   outer loop
     vertex  1.500000e+01  2.400000e+01  2.500000e+00
     vertex  1.500000e+01  2.500000e+01 -2.500000e+00
     vertex  1.500000e+01  2.500000e+01  2.500000e+00
   endloop
 endfacet
 facet normal  0.000000e+00 -1.000000e+00 -0.000000e+00
   outer loop
     vertex  1.500000e+01  2.400000e+01  2.500000e+00
     vertex  6.000000e+00  2.400000e+01 -2.500000e+00
     vertex  1.500000e+01  2.400000e+01 -2.500000e+00
   endloop
 endfacet
 facet normal -0.000000e+00 -1.000000e+00  0.000000e+00
   outer loop
     vertex  1.500000e+01  2.400000e+01  2.500000e+00
     vertex  6.000000e+00  2.400000e+01  2.500000e+00
     vertex  6.000000e+00  2.400000e+01 -2.500000e+00
   endloop
 endfacet
 facet normal  1.000000e+00 -1.776357e-16  0.000000e+00
   outer loop
     vertex  6.000000e+00  2.400000e+01  2.500000e+00
     vertex  6.000000e+00  1.500000e+01 -2.500000e+00
     vertex  6.000000e+00  2.400000e+01 -2.500000e+00
   endloop
 endfacet
 facet normal  1.000000e+00 -1.776357e-16  0.000000e+00
   outer loop
     vertex  6.000000e+00  2.400000e+01  2.500000e+00
     vertex  6.000000e+00  1.500000e+01  2.500000e+00
     vertex  6.000000e+00  1.500000e+01 -2.500000e+00
   endloop
 endfacet
 facet normal  0.000000e+00 -1.000000e+00 -0.000000e+00
   outer loop
     vertex  6.000000e+00  1.500000e+01  2.500000e+00
     vertex  5.000000e+00  1.500000e+01 -2.500000e+00
     vertex  6.000000e+00  1.500000e+01 -2.500000e+00
   endloop
 endfacet
 facet normal -0.000000e+00 -1.000000e+00  0.000000e+00
   outer loop
     vertex  6.000000e+00  1.500000e+01  2.500000e+00
     vertex  5.000000e+00  1.500000e+01  2.500000e+00
     vertex  5.000000e+00  1.500000e+01 -2.500000e+00
   endloop
 endfacet
<<<<<<< Updated upstream
 facet normal  0.000000e+00  0.000000e+00  1.000000e+00
=======
 facet normal -1.000000e+00  1.776357e-16  0.000000e+00
>>>>>>> Stashed changes
   outer loop
     vertex  1.500000e+01  2.500000e+01  2.500000e+00
     vertex  6.000000e+00  2.500000e+01  2.500000e+00
     vertex  6.000000e+00  2.400000e+01  2.500000e+00
   endloop
 endfacet
<<<<<<< Updated upstream
 facet normal  0.000000e+00  0.000000e+00  1.000000e+00
=======
 facet normal -1.000000e+00  1.776357e-16  0.000000e+00
>>>>>>> Stashed changes
   outer loop
     vertex  1.500000e+01  2.500000e+01  2.500000e+00
     vertex  6.000000e+00  2.400000e+01  2.500000e+00
     vertex  1.500000e+01  2.400000e+01  2.500000e+00
   endloop
 endfacet
<<<<<<< Updated upstream
 facet normal  0.000000e+00  0.000000e+00  1.000000e+00
=======
 facet normal  0.000000e+00 -0.000000e+00 -1.000000e+00
>>>>>>> Stashed changes
   outer loop
     vertex  5.000000e+00  2.400000e+01  2.500000e+00
     vertex  5.000000e+00  1.500000e+01  2.500000e+00
     vertex  6.000000e+00  1.500000e+01  2.500000e+00
   endloop
 endfacet
 facet normal -0.000000e+00  0.000000e+00  1.000000e+00
   outer loop
     vertex  5.000000e+00  2.400000e+01  2.500000e+00
     vertex  6.000000e+00  1.500000e+01  2.500000e+00
     vertex  6.000000e+00  2.400000e+01  2.500000e+00
   endloop
 endfacet
 facet normal -1.000000e+00  0.000000e+00  0.000000e+00
   outer loop
     vertex  5.000000e+00  5.000000e+00  2.500000e+00
     vertex  5.000000e+00  6.000000e+00 -2.500000e+00
     vertex  5.000000e+00  5.000000e+00 -2.500000e+00
   endloop
 endfacet
<<<<<<< Updated upstream
 facet normal -1.000000e+00  0.000000e+00  0.000000e+00
=======
 facet normal  1.000000e+00 -1.776357e-16 -5.075305e-16
>>>>>>> Stashed changes
   outer loop
     vertex  5.000000e+00  5.000000e+00  2.500000e+00
     vertex  5.000000e+00  6.000000e+00  2.500000e+00
     vertex  5.000000e+00  6.000000e+00 -2.500000e+00
   endloop
 endfacet
<<<<<<< Updated upstream
 facet normal -1.000000e+00  0.000000e+00 -0.000000e+00
=======
 facet normal  1.000000e+00 -0.000000e+00  0.000000e+00
>>>>>>> Stashed changes
   outer loop
     vertex  5.000000e+00  5.000000e+00  2.500000e+00
     vertex  5.000000e+00  5.000000e+00 -2.500000e+00
     vertex  5.000000e+00 -5.000000e+00 -2.500000e+00
   endloop
 endfacet
<<<<<<< Updated upstream
 facet normal -1.000000e+00 -0.000000e+00  0.000000e+00
=======
 facet normal  1.000000e+00 -0.000000e+00  0.000000e+00
>>>>>>> Stashed changes
   outer loop
     vertex  5.000000e+00  5.000000e+00  2.500000e+00
     vertex  5.000000e+00 -5.000000e+00 -2.500000e+00
     vertex  5.000000e+00 -5.000000e+00  2.500000e+00
   endloop
 endfacet
<<<<<<< Updated upstream
 facet normal  0.000000e+00  0.000000e+00  1.000000e+00
=======
 facet normal  1.000000e+00 -1.776357e-16  1.184238e-15
>>>>>>> Stashed changes
   outer loop
     vertex  6.000000e+00  5.000000e+00  2.500000e+00
     vertex  5.000000e+00  6.000000e+00  2.500000e+00
     vertex  5.000000e+00  5.000000e+00  2.500000e+00
   endloop
 endfacet
 facet normal  0.000000e+00  0.000000e+00  1.000000e+00
   outer loop
     vertex  1.500000e+01  6.000000e+00  2.500000e+00
     vertex  6.000000e+00  5.000000e+00  2.500000e+00
     vertex  1.500000e+01  5.000000e+00  2.500000e+00
   endloop
 endfacet
 facet normal  0.000000e+00  0.000000e+00  1.000000e+00
   outer loop
     vertex  1.500000e+01  6.000000e+00  2.500000e+00
     vertex  5.000000e+00  6.000000e+00  2.500000e+00
     vertex  6.000000e+00  5.000000e+00  2.500000e+00
   endloop
 endfacet
<<<<<<< Updated upstream
 facet normal  0.000000e+00  1.000000e+00  0.000000e+00
=======
 facet normal -1.000000e+00  1.776357e-16  5.075305e-16
>>>>>>> Stashed changes
   outer loop
     vertex  1.500000e+01  6.000000e+00  2.500000e+00
     vertex  1.500000e+01  6.000000e+00 -2.500000e+00
     vertex  5.000000e+00  6.000000e+00 -2.500000e+00
   endloop
 endfacet
<<<<<<< Updated upstream
 facet normal  0.000000e+00  1.000000e+00  0.000000e+00
=======
 facet normal -1.000000e+00  0.000000e+00  0.000000e+00
>>>>>>> Stashed changes
   outer loop
     vertex  1.500000e+01  6.000000e+00  2.500000e+00
     vertex  5.000000e+00  6.000000e+00 -2.500000e+00
     vertex  5.000000e+00  6.000000e+00  2.500000e+00
   endloop
 endfacet
<<<<<<< Updated upstream
 facet normal  0.000000e+00  0.000000e+00 -1.000000e+00
=======
 facet normal -1.000000e+00  0.000000e+00  0.000000e+00
>>>>>>> Stashed changes
   outer loop
     vertex  6.000000e+00  5.000000e+00 -2.500000e+00
     vertex  5.000000e+00  5.000000e+00 -2.500000e+00
     vertex  5.000000e+00  6.000000e+00 -2.500000e+00
   endloop
 endfacet
<<<<<<< Updated upstream
 facet normal  0.000000e+00 -0.000000e+00 -1.000000e+00
=======
 facet normal -1.000000e+00  1.776357e-16 -1.184238e-15
>>>>>>> Stashed changes
   outer loop
     vertex  1.500000e+01  6.000000e+00 -2.500000e+00
     vertex  1.500000e+01  5.000000e+00 -2.500000e+00
     vertex  6.000000e+00  5.000000e+00 -2.500000e+00
   endloop
 endfacet
 facet normal -0.000000e+00  0.000000e+00 -1.000000e+00
   outer loop
     vertex  1.500000e+01  6.000000e+00 -2.500000e+00
     vertex  6.000000e+00  5.000000e+00 -2.500000e+00
     vertex  5.000000e+00  6.000000e+00 -2.500000e+00
   endloop
 endfacet
 facet normal  0.000000e+00  0.000000e+00 -1.000000e+00
   outer loop
     vertex  5.000000e+00  5.000000e+00 -2.500000e+00
     vertex  6.000000e+00 -5.000000e+00 -2.500000e+00
     vertex  5.000000e+00 -5.000000e+00 -2.500000e+00
   endloop
 endfacet
 facet normal  0.000000e+00  0.000000e+00 -1.000000e+00
   outer loop
     vertex  5.000000e+00  5.000000e+00 -2.500000e+00
     vertex  6.000000e+00  5.000000e+00 -2.500000e+00
     vertex  6.000000e+00 -5.000000e+00 -2.500000e+00
   endloop
 endfacet
 facet normal  0.000000e+00  0.000000e+00  1.000000e+00
   outer loop
     vertex  5.000000e+00  5.000000e+00  2.500000e+00
     vertex  5.000000e+00 -5.000000e+00  2.500000e+00
     vertex  6.000000e+00 -5.000000e+00  2.500000e+00
   endloop
 endfacet
<<<<<<< Updated upstream
 facet normal -0.000000e+00  0.000000e+00  1.000000e+00
   outer loop
=======
 facet normal  0.000000e+00 -1.000000e+00 -0.000000e+00
   outer loop
     vertex  6.000000e+00  5.000000e+00  4.000000e+00
>>>>>>> Stashed changes
     vertex  5.000000e+00  5.000000e+00  2.500000e+00
     vertex  6.000000e+00 -5.000000e+00  2.500000e+00
     vertex  6.000000e+00  5.000000e+00  2.500000e+00
   endloop
 endfacet
 facet normal  0.000000e+00 -1.000000e+00 -0.000000e+00
   outer loop
<<<<<<< Updated upstream
     vertex  6.000000e+00 -5.000000e+00  2.500000e+00
     vertex  5.000000e+00 -5.000000e+00 -2.500000e+00
     vertex  6.000000e+00 -5.000000e+00 -2.500000e+00
=======
     vertex  5.000000e+00  5.000000e+00  4.000000e+00
     vertex  5.000000e+00  5.000000e+00  2.500000e+00
     vertex  6.000000e+00  5.000000e+00  4.000000e+00
>>>>>>> Stashed changes
   endloop
 endfacet
 facet normal -0.000000e+00 -1.000000e+00  0.000000e+00
   outer loop
     vertex  6.000000e+00 -5.000000e+00  2.500000e+00
     vertex  5.000000e+00 -5.000000e+00  2.500000e+00
     vertex  5.000000e+00 -5.000000e+00 -2.500000e+00
   endloop
 endfacet
 facet normal  1.000000e+00  0.000000e+00  0.000000e+00
   outer loop
     vertex  1.500000e+01  5.000000e+00  2.500000e+00
     vertex  1.500000e+01  5.000000e+00 -2.500000e+00
     vertex  1.500000e+01  6.000000e+00 -2.500000e+00
   endloop
 endfacet
 facet normal  1.000000e+00 -0.000000e+00  0.000000e+00
   outer loop
     vertex  1.500000e+01  5.000000e+00  2.500000e+00
     vertex  1.500000e+01  6.000000e+00 -2.500000e+00
     vertex  1.500000e+01  6.000000e+00  2.500000e+00
   endloop
 endfacet
 facet normal  0.000000e+00 -1.000000e+00 -0.000000e+00
   outer loop
     vertex  1.500000e+01  5.000000e+00  2.500000e+00
     vertex  6.000000e+00  5.000000e+00 -2.500000e+00
     vertex  1.500000e+01  5.000000e+00 -2.500000e+00
   endloop
 endfacet
 facet normal -0.000000e+00 -1.000000e+00  0.000000e+00
   outer loop
     vertex  1.500000e+01  5.000000e+00  2.500000e+00
     vertex  6.000000e+00  5.000000e+00  2.500000e+00
     vertex  6.000000e+00  5.000000e+00 -2.500000e+00
   endloop
 endfacet
 facet normal  1.000000e+00  0.000000e+00  0.000000e+00
   outer loop
     vertex  6.000000e+00  5.000000e+00  2.500000e+00
     vertex  6.000000e+00 -5.000000e+00 -2.500000e+00
     vertex  6.000000e+00  5.000000e+00 -2.500000e+00
   endloop
 endfacet
 facet normal  1.000000e+00  0.000000e+00  0.000000e+00
   outer loop
     vertex  6.000000e+00  5.000000e+00  2.500000e+00
     vertex  6.000000e+00 -5.000000e+00  2.500000e+00
     vertex  6.000000e+00 -5.000000e+00 -2.500000e+00
   endloop
 endfacet
endsolid
