solid 
 facet normal  0.000000e+00  1.000000e+00  0.000000e+00
   outer loop
     vertex  0.000000e+00  6.000000e+00  7.200000e-01
     vertex  4.000000e-01  6.000000e+00 -4.800000e-01
     vertex  0.000000e+00  6.000000e+00 -4.800000e-01
   endloop
 endfacet
 facet normal -0.000000e+00  1.000000e+00  0.000000e+00
   outer loop
     vertex  0.000000e+00  6.000000e+00  7.200000e-01
     vertex  4.000000e-01  6.000000e+00  7.200000e-01
     vertex  4.000000e-01  6.000000e+00 -4.800000e-01
   endloop
 endfacet
 facet normal -1.000000e+00  0.000000e+00  0.000000e+00
   outer loop
     vertex  0.000000e+00  5.000000e+00  7.200000e-01
     vertex  0.000000e+00  6.000000e+00 -4.800000e-01
     vertex  0.000000e+00  5.000000e+00 -4.800000e-01
   endloop
 endfacet
 facet normal -1.000000e+00  0.000000e+00  0.000000e+00
   outer loop
     vertex  0.000000e+00  5.000000e+00  7.200000e-01
     vertex  0.000000e+00  6.000000e+00  7.200000e-01
     vertex  0.000000e+00  6.000000e+00 -4.800000e-01
   endloop
 endfacet
 facet normal  0.000000e+00 -0.000000e+00  1.000000e+00
   outer loop
     vertex  4.000000e-01  5.400000e+00  7.200000e-01
     vertex  4.000000e-01  6.000000e+00  7.200000e-01
     vertex  0.000000e+00  6.000000e+00  7.200000e-01
   endloop
 endfacet
 facet normal  0.000000e+00  0.000000e+00  1.000000e+00
   outer loop
     vertex  0.000000e+00  5.000000e+00  7.200000e-01
     vertex  4.000000e-01  5.400000e+00  7.200000e-01
     vertex  0.000000e+00  6.000000e+00  7.200000e-01
   endloop
 endfacet
 facet normal  0.000000e+00 -0.000000e+00  1.000000e+00
   outer loop
     vertex  4.000000e-01  5.000000e+00  7.200000e-01
     vertex  4.000000e-01  5.400000e+00  7.200000e-01
     vertex  0.000000e+00  5.000000e+00  7.200000e-01
   endloop
 endfacet
 facet normal  1.000000e+00  0.000000e+00  0.000000e+00
   outer loop
     vertex  4.000000e-01  5.400000e+00  7.200000e-01
     vertex  4.000000e-01  5.400000e+00 -4.800000e-01
     vertex  4.000000e-01  6.000000e+00 -4.800000e-01
   endloop
 endfacet
 facet normal  1.000000e+00 -0.000000e+00  0.000000e+00
   outer loop
     vertex  4.000000e-01  5.400000e+00  7.200000e-01
     vertex  4.000000e-01  6.000000e+00 -4.800000e-01
     vertex  4.000000e-01  6.000000e+00  7.200000e-01
   endloop
 endfacet
 facet normal  0.000000e+00  0.000000e+00 -1.000000e+00
   outer loop
     vertex  4.000000e-01  5.400000e+00 -4.800000e-01
     vertex  0.000000e+00  6.000000e+00 -4.800000e-01
     vertex  4.000000e-01  6.000000e+00 -4.800000e-01
   endloop
 endfacet
 facet normal  0.000000e+00  0.000000e+00 -1.000000e+00
   outer loop
     vertex  0.000000e+00  5.000000e+00 -4.800000e-01
     vertex  0.000000e+00  6.000000e+00 -4.800000e-01
     vertex  4.000000e-01  5.400000e+00 -4.800000e-01
   endloop
 endfacet
 facet normal  0.000000e+00  0.000000e+00 -1.000000e+00
   outer loop
     vertex  4.000000e-01  5.000000e+00 -4.800000e-01
     vertex  0.000000e+00  5.000000e+00 -4.800000e-01
     vertex  4.000000e-01  5.400000e+00 -4.800000e-01
   endloop
 endfacet
 facet normal  0.000000e+00 -1.000000e+00  0.000000e+00
   outer loop
     vertex  0.000000e+00  5.000000e+00  7.200000e-01
     vertex  0.000000e+00  5.000000e+00 -4.800000e-01
     vertex  4.000000e-01  5.000000e+00 -4.800000e-01
   endloop
 endfacet
 facet normal  0.000000e+00 -1.000000e+00  0.000000e+00
   outer loop
     vertex  0.000000e+00  5.000000e+00  7.200000e-01
     vertex  4.000000e-01  5.000000e+00 -4.800000e-01
     vertex  4.000000e-01  5.000000e+00  7.200000e-01
   endloop
 endfacet
 facet normal  0.000000e+00  0.000000e+00  1.000000e+00
   outer loop
     vertex  1.400000e+00  5.400000e+00  7.200000e-01
     vertex  4.000000e-01  5.400000e+00  7.200000e-01
     vertex  4.000000e-01  5.000000e+00  7.200000e-01
   endloop
 endfacet
 facet normal  0.000000e+00  0.000000e+00  1.000000e+00
   outer loop
     vertex  1.400000e+00  5.400000e+00  7.200000e-01
     vertex  4.000000e-01  5.000000e+00  7.200000e-01
     vertex  1.400000e+00  5.000000e+00  7.200000e-01
   endloop
 endfacet
 facet normal  0.000000e+00  1.000000e+00  0.000000e+00
   outer loop
     vertex  1.400000e+00  5.400000e+00  7.200000e-01
     vertex  1.400000e+00  5.400000e+00 -4.800000e-01
     vertex  4.000000e-01  5.400000e+00 -4.800000e-01
   endloop
 endfacet
 facet normal  0.000000e+00  1.000000e+00  0.000000e+00
   outer loop
     vertex  1.400000e+00  5.400000e+00  7.200000e-01
     vertex  4.000000e-01  5.400000e+00 -4.800000e-01
     vertex  4.000000e-01  5.400000e+00  7.200000e-01
   endloop
 endfacet
 facet normal -0.000000e+00  0.000000e+00 -1.000000e+00
   outer loop
     vertex  1.400000e+00  5.400000e+00 -4.800000e-01
     vertex  4.000000e-01  5.000000e+00 -4.800000e-01
     vertex  4.000000e-01  5.400000e+00 -4.800000e-01
   endloop
 endfacet
 facet normal  0.000000e+00 -0.000000e+00 -1.000000e+00
   outer loop
     vertex  1.400000e+00  5.400000e+00 -4.800000e-01
     vertex  1.400000e+00  5.000000e+00 -4.800000e-01
     vertex  4.000000e-01  5.000000e+00 -4.800000e-01
   endloop
 endfacet
 facet normal  0.000000e+00 -1.000000e+00 -0.000000e+00
   outer loop
     vertex  1.400000e+00  5.000000e+00  7.200000e-01
     vertex  4.000000e-01  5.000000e+00 -4.800000e-01
     vertex  1.400000e+00  5.000000e+00 -4.800000e-01
   endloop
 endfacet
 facet normal -0.000000e+00 -1.000000e+00  0.000000e+00
   outer loop
     vertex  1.400000e+00  5.000000e+00  7.200000e-01
     vertex  4.000000e-01  5.000000e+00  7.200000e-01
     vertex  4.000000e-01  5.000000e+00 -4.800000e-01
   endloop
 endfacet
 facet normal  1.000000e+00  0.000000e+00  0.000000e+00
   outer loop
     vertex  1.400000e+00  5.000000e+00  7.200000e-01
     vertex  1.400000e+00  5.000000e+00 -4.800000e-01
     vertex  1.400000e+00  5.400000e+00 -4.800000e-01
   endloop
 endfacet
 facet normal  1.000000e+00 -0.000000e+00  0.000000e+00
   outer loop
     vertex  1.400000e+00  5.000000e+00  7.200000e-01
     vertex  1.400000e+00  5.400000e+00 -4.800000e-01
     vertex  1.400000e+00  5.400000e+00  7.200000e-01
   endloop
 endfacet
endsolid
