solid 
 facet normal  1.000000e+00 -1.776357e-16  0.000000e+00
   outer loop
     vertex -4.000000e+00 -5.000000e-01  5.000000e+00
     vertex -4.000000e+00 -5.500000e+00  7.000000e+00
     vertex -4.000000e+00 -5.500000e+00  5.000000e+00
   endloop
 endfacet
 facet normal  1.000000e+00  0.000000e+00  4.440892e-16
   outer loop
     vertex -4.000000e+00  5.000000e-01  5.000000e+00
     vertex -4.000000e+00 -5.500000e+00  7.000000e+00
     vertex -4.000000e+00 -5.000000e-01  5.000000e+00
   endloop
 endfacet
 facet normal  1.000000e+00 -2.960595e-16 -2.220446e-16
   outer loop
     vertex -4.000000e+00  6.500000e+00  7.000000e+00
     vertex -4.000000e+00  5.000000e-01  5.000000e+00
     vertex -4.000000e+00  6.500000e+00  5.000000e+00
   endloop
 endfacet
 facet normal  1.000000e+00 -2.590520e-16 -3.330669e-16
   outer loop
     vertex -4.000000e+00  6.500000e+00  7.000000e+00
     vertex -4.000000e+00 -5.500000e+00  7.000000e+00
     vertex -4.000000e+00  5.000000e-01  5.000000e+00
   endloop
 endfacet
 facet normal  1.000000e+00 -2.960595e-16  0.000000e+00
   outer loop
     vertex -4.000000e+00  5.000000e-01  5.000000e+00
     vertex -4.000000e+00  5.000000e-01  2.500000e+00
     vertex -4.000000e+00  6.500000e+00  2.500000e+00
   endloop
 endfacet
 facet normal  1.000000e+00 -2.960595e-16  0.000000e+00
   outer loop
     vertex -4.000000e+00  5.000000e-01  5.000000e+00
     vertex -4.000000e+00  6.500000e+00  2.500000e+00
     vertex -4.000000e+00  6.500000e+00  5.000000e+00
   endloop
 endfacet
 facet normal  0.000000e+00 -0.000000e+00 -1.000000e+00
   outer loop
     vertex -5.000000e+00 -5.000000e-01  5.000000e+00
     vertex -4.000000e+00 -5.500000e+00  5.000000e+00
     vertex -5.000000e+00 -5.500000e+00  5.000000e+00
   endloop
 endfacet
 facet normal  0.000000e+00  0.000000e+00 -1.000000e+00
   outer loop
     vertex -5.000000e+00 -5.000000e-01  5.000000e+00
     vertex -4.000000e+00 -5.000000e-01  5.000000e+00
     vertex -4.000000e+00 -5.500000e+00  5.000000e+00
   endloop
 endfacet
 facet normal  0.000000e+00  0.000000e+00  1.000000e+00
   outer loop
     vertex  4.000000e+00  5.000000e-01  5.000000e+00
     vertex -4.000000e+00  5.000000e-01  5.000000e+00
     vertex -4.000000e+00 -5.000000e-01  5.000000e+00
   endloop
 endfacet
 facet normal  0.000000e+00  0.000000e+00  1.000000e+00
   outer loop
     vertex  4.000000e+00  5.000000e-01  5.000000e+00
     vertex -4.000000e+00 -5.000000e-01  5.000000e+00
     vertex  4.000000e+00 -5.000000e-01  5.000000e+00
   endloop
 endfacet
 facet normal -0.000000e+00 -1.000000e+00  0.000000e+00
   outer loop
     vertex -4.000000e+00  6.500000e+00  2.500000e+00
     vertex -5.000000e+00  6.500000e+00  2.500000e+00
     vertex -5.000000e+00  6.500000e+00  0.000000e+00
   endloop
 endfacet
 facet normal  0.000000e+00 -1.000000e+00  0.000000e+00
   outer loop
     vertex  4.000000e+00  6.500000e+00  0.000000e+00
     vertex -4.000000e+00  6.500000e+00  2.500000e+00
     vertex -5.000000e+00  6.500000e+00  0.000000e+00
   endloop
 endfacet
 facet normal -0.000000e+00 -1.000000e+00 -0.000000e+00
   outer loop
     vertex  4.000000e+00  6.500000e+00  2.500000e+00
     vertex -4.000000e+00  6.500000e+00  2.500000e+00
     vertex  4.000000e+00  6.500000e+00  0.000000e+00
   endloop
 endfacet
 facet normal -0.000000e+00 -1.000000e+00  0.000000e+00
   outer loop
     vertex  4.000000e+00  6.500000e+00  5.000000e+00
     vertex -4.000000e+00  6.500000e+00  5.000000e+00
     vertex -4.000000e+00  6.500000e+00  2.500000e+00
   endloop
 endfacet
 facet normal  0.000000e+00 -1.000000e+00  0.000000e+00
   outer loop
     vertex  4.000000e+00  6.500000e+00  5.000000e+00
     vertex -4.000000e+00  6.500000e+00  2.500000e+00
     vertex  4.000000e+00  6.500000e+00  2.500000e+00
   endloop
 endfacet
 facet normal  0.000000e+00 -1.000000e+00 -0.000000e+00
   outer loop
     vertex  5.000000e+00  6.500000e+00  5.000000e+00
     vertex  4.000000e+00  6.500000e+00  2.500000e+00
     vertex  5.000000e+00  6.500000e+00  2.500000e+00
   endloop
 endfacet
 facet normal -0.000000e+00 -1.000000e+00  0.000000e+00
   outer loop
     vertex  5.000000e+00  6.500000e+00  5.000000e+00
     vertex  4.000000e+00  6.500000e+00  5.000000e+00
     vertex  4.000000e+00  6.500000e+00  2.500000e+00
   endloop
 endfacet
 facet normal -0.000000e+00 -1.000000e+00  0.000000e+00
   outer loop
     vertex  4.000000e+00  6.500000e+00  7.000000e+00
     vertex -4.000000e+00  6.500000e+00  7.000000e+00
     vertex -4.000000e+00  6.500000e+00  5.000000e+00
   endloop
 endfacet
 facet normal  0.000000e+00 -1.000000e+00 -0.000000e+00
   outer loop
     vertex  4.000000e+00  6.500000e+00  7.000000e+00
     vertex -4.000000e+00  6.500000e+00  5.000000e+00
     vertex  4.000000e+00  6.500000e+00  5.000000e+00
   endloop
 endfacet
 facet normal  0.000000e+00  0.000000e+00  1.000000e+00
   outer loop
     vertex -5.000000e+00  6.500000e+00  7.000000e+00
     vertex -5.000000e+00 -5.500000e+00  7.000000e+00
     vertex -4.000000e+00 -5.500000e+00  7.000000e+00
   endloop
 endfacet
 facet normal -0.000000e+00  0.000000e+00  1.000000e+00
   outer loop
     vertex -5.000000e+00  6.500000e+00  7.000000e+00
     vertex -4.000000e+00 -5.500000e+00  7.000000e+00
     vertex -4.000000e+00  6.500000e+00  7.000000e+00
   endloop
 endfacet
 facet normal  0.000000e+00  1.000000e+00  0.000000e+00
   outer loop
     vertex -4.000000e+00 -5.500000e+00  5.000000e+00
     vertex -4.000000e+00 -5.500000e+00  2.500000e+00
     vertex -5.000000e+00 -5.500000e+00  2.500000e+00
   endloop
 endfacet
 facet normal  0.000000e+00  1.000000e+00  0.000000e+00
   outer loop
     vertex -4.000000e+00 -5.500000e+00  5.000000e+00
     vertex -5.000000e+00 -5.500000e+00  2.500000e+00
     vertex -5.000000e+00 -5.500000e+00  5.000000e+00
   endloop
 endfacet
 facet normal  0.000000e+00  1.000000e+00  0.000000e+00
   outer loop
     vertex  4.000000e+00 -5.500000e+00  2.500000e+00
     vertex  5.000000e+00 -5.500000e+00  0.000000e+00
     vertex -4.000000e+00 -5.500000e+00  0.000000e+00
   endloop
 endfacet
 facet normal  0.000000e+00  1.000000e+00  0.000000e+00
   outer loop
     vertex  4.000000e+00 -5.500000e+00  2.500000e+00
     vertex -4.000000e+00 -5.500000e+00  0.000000e+00
     vertex -4.000000e+00 -5.500000e+00  2.500000e+00
   endloop
 endfacet
 facet normal  0.000000e+00  1.000000e+00  0.000000e+00
   outer loop
     vertex  5.000000e+00 -5.500000e+00  2.500000e+00
     vertex  5.000000e+00 -5.500000e+00  0.000000e+00
     vertex  4.000000e+00 -5.500000e+00  2.500000e+00
   endloop
 endfacet
 facet normal  0.000000e+00  1.000000e+00  0.000000e+00
   outer loop
     vertex  4.000000e+00 -5.500000e+00  5.000000e+00
     vertex  4.000000e+00 -5.500000e+00  2.500000e+00
     vertex -4.000000e+00 -5.500000e+00  2.500000e+00
   endloop
 endfacet
 facet normal  0.000000e+00  1.000000e+00  0.000000e+00
   outer loop
     vertex  4.000000e+00 -5.500000e+00  5.000000e+00
     vertex -4.000000e+00 -5.500000e+00  2.500000e+00
     vertex -4.000000e+00 -5.500000e+00  5.000000e+00
   endloop
 endfacet
 facet normal  0.000000e+00  1.000000e+00  0.000000e+00
   outer loop
     vertex  4.000000e+00 -5.500000e+00  7.000000e+00
     vertex -4.000000e+00 -5.500000e+00  5.000000e+00
     vertex -4.000000e+00 -5.500000e+00  7.000000e+00
   endloop
 endfacet
 facet normal  0.000000e+00  1.000000e+00  0.000000e+00
   outer loop
     vertex  4.000000e+00 -5.500000e+00  7.000000e+00
     vertex  4.000000e+00 -5.500000e+00  5.000000e+00
     vertex -4.000000e+00 -5.500000e+00  5.000000e+00
   endloop
 endfacet
 facet normal  0.000000e+00  0.000000e+00 -1.000000e+00
   outer loop
     vertex -4.000000e+00  5.000000e-01  2.500000e+00
     vertex -5.000000e+00  6.500000e+00  2.500000e+00
     vertex -4.000000e+00  6.500000e+00  2.500000e+00
   endloop
 endfacet
 facet normal  0.000000e+00  0.000000e+00 -1.000000e+00
   outer loop
     vertex -4.000000e+00  5.000000e-01  2.500000e+00
     vertex -5.000000e+00  5.000000e-01  2.500000e+00
     vertex -5.000000e+00  6.500000e+00  2.500000e+00
   endloop
 endfacet
 facet normal  0.000000e+00  1.000000e+00  0.000000e+00
   outer loop
     vertex -4.000000e+00  5.000000e-01  2.500000e+00
     vertex -5.000000e+00  5.000000e-01  0.000000e+00
     vertex -5.000000e+00  5.000000e-01  2.500000e+00
   endloop
 endfacet
 facet normal  0.000000e+00  1.000000e+00  0.000000e+00
   outer loop
     vertex  4.000000e+00  5.000000e-01  0.000000e+00
     vertex -5.000000e+00  5.000000e-01  0.000000e+00
     vertex -4.000000e+00  5.000000e-01  2.500000e+00
   endloop
 endfacet
 facet normal  0.000000e+00  1.000000e+00  0.000000e+00
   outer loop
     vertex  4.000000e+00  5.000000e-01  2.500000e+00
     vertex  4.000000e+00  5.000000e-01  0.000000e+00
     vertex -4.000000e+00  5.000000e-01  2.500000e+00
   endloop
 endfacet
 facet normal  0.000000e+00  1.000000e+00  0.000000e+00
   outer loop
     vertex  4.000000e+00  5.000000e-01  5.000000e+00
     vertex -4.000000e+00  5.000000e-01  2.500000e+00
     vertex -4.000000e+00  5.000000e-01  5.000000e+00
   endloop
 endfacet
 facet normal  0.000000e+00  1.000000e+00  0.000000e+00
   outer loop
     vertex  4.000000e+00  5.000000e-01  5.000000e+00
     vertex  4.000000e+00  5.000000e-01  2.500000e+00
     vertex -4.000000e+00  5.000000e-01  2.500000e+00
   endloop
 endfacet
 facet normal  0.000000e+00  1.000000e+00  0.000000e+00
   outer loop
     vertex  5.000000e+00  5.000000e-01  5.000000e+00
     vertex  5.000000e+00  5.000000e-01  2.500000e+00
     vertex  4.000000e+00  5.000000e-01  2.500000e+00
   endloop
 endfacet
 facet normal  0.000000e+00  1.000000e+00  0.000000e+00
   outer loop
     vertex  5.000000e+00  5.000000e-01  5.000000e+00
     vertex  4.000000e+00  5.000000e-01  2.500000e+00
     vertex  4.000000e+00  5.000000e-01  5.000000e+00
   endloop
 endfacet
 facet normal -1.000000e+00  3.552714e-16  4.440892e-16
   outer loop
     vertex -5.000000e+00 -5.000000e-01  5.000000e+00
     vertex -5.000000e+00 -5.500000e+00  5.000000e+00
     vertex -5.000000e+00 -5.500000e+00  7.000000e+00
   endloop
 endfacet
 facet normal -1.000000e+00 -0.000000e+00 -4.440892e-16
   outer loop
     vertex -5.000000e+00  5.000000e-01  5.000000e+00
     vertex -5.000000e+00 -5.000000e-01  5.000000e+00
     vertex -5.000000e+00 -5.500000e+00  7.000000e+00
   endloop
 endfacet
 facet normal -1.000000e+00  0.000000e+00  4.440892e-16
   outer loop
     vertex -5.000000e+00  6.500000e+00  7.000000e+00
     vertex -5.000000e+00  6.500000e+00  5.000000e+00
     vertex -5.000000e+00  5.000000e-01  5.000000e+00
   endloop
 endfacet
 facet normal -1.000000e+00  1.480297e-16  0.000000e+00
   outer loop
     vertex -5.000000e+00  6.500000e+00  7.000000e+00
     vertex -5.000000e+00  5.000000e-01  5.000000e+00
     vertex -5.000000e+00 -5.500000e+00  7.000000e+00
   endloop
 endfacet
 facet normal  0.000000e+00 -1.000000e+00 -0.000000e+00
   outer loop
     vertex -4.000000e+00 -5.000000e-01  5.000000e+00
     vertex -5.000000e+00 -5.000000e-01  2.500000e+00
     vertex -4.000000e+00 -5.000000e-01  2.500000e+00
   endloop
 endfacet
 facet normal -0.000000e+00 -1.000000e+00  0.000000e+00
   outer loop
     vertex -4.000000e+00 -5.000000e-01  5.000000e+00
     vertex -5.000000e+00 -5.000000e-01  5.000000e+00
     vertex -5.000000e+00 -5.000000e-01  2.500000e+00
   endloop
 endfacet
 facet normal  0.000000e+00 -1.000000e+00 -0.000000e+00
   outer loop
     vertex  4.000000e+00 -5.000000e-01  2.500000e+00
     vertex -4.000000e+00 -5.000000e-01  0.000000e+00
     vertex  5.000000e+00 -5.000000e-01  0.000000e+00
   endloop
 endfacet
 facet normal -0.000000e+00 -1.000000e+00  0.000000e+00
   outer loop
     vertex  4.000000e+00 -5.000000e-01  2.500000e+00
     vertex -4.000000e+00 -5.000000e-01  2.500000e+00
     vertex -4.000000e+00 -5.000000e-01  0.000000e+00
   endloop
 endfacet
 facet normal -0.000000e+00 -1.000000e+00  0.000000e+00
   outer loop
     vertex  5.000000e+00 -5.000000e-01  2.500000e+00
     vertex  4.000000e+00 -5.000000e-01  2.500000e+00
     vertex  5.000000e+00 -5.000000e-01  0.000000e+00
   endloop
 endfacet
 facet normal -0.000000e+00 -1.000000e+00  0.000000e+00
   outer loop
     vertex  4.000000e+00 -5.000000e-01  5.000000e+00
     vertex -4.000000e+00 -5.000000e-01  5.000000e+00
     vertex -4.000000e+00 -5.000000e-01  2.500000e+00
   endloop
 endfacet
 facet normal  0.000000e+00 -1.000000e+00 -0.000000e+00
   outer loop
     vertex  4.000000e+00 -5.000000e-01  5.000000e+00
     vertex -4.000000e+00 -5.000000e-01  2.500000e+00
     vertex  4.000000e+00 -5.000000e-01  2.500000e+00
   endloop
 endfacet
 facet normal -1.000000e+00  2.664535e-16 -6.661338e-16
   outer loop
     vertex  4.000000e+00 -5.000000e-01  5.000000e+00
     vertex  4.000000e+00 -5.500000e+00  5.000000e+00
     vertex  4.000000e+00 -5.500000e+00  7.000000e+00
   endloop
 endfacet
 facet normal -1.000000e+00 -8.881784e-16 -3.552714e-15
   outer loop
     vertex  4.000000e+00  5.000000e-01  5.000000e+00
     vertex  4.000000e+00 -5.000000e-01  5.000000e+00
     vertex  4.000000e+00 -5.500000e+00  7.000000e+00
   endloop
 endfacet
 facet normal -1.000000e+00  1.480297e-16 -4.440892e-16
   outer loop
     vertex  4.000000e+00  6.500000e+00  7.000000e+00
     vertex  4.000000e+00  6.500000e+00  5.000000e+00
     vertex  4.000000e+00  5.000000e-01  5.000000e+00
   endloop
 endfacet
 facet normal -1.000000e+00  1.480297e-16 -4.440892e-16
   outer loop
     vertex  4.000000e+00  6.500000e+00  7.000000e+00
     vertex  4.000000e+00  5.000000e-01  5.000000e+00
     vertex  4.000000e+00 -5.500000e+00  7.000000e+00
   endloop
 endfacet
 facet normal  1.000000e+00 -8.881784e-16  0.000000e+00
   outer loop
     vertex  5.000000e+00  6.500000e+00  5.000000e+00
     vertex  5.000000e+00  6.500000e+00  2.500000e+00
     vertex  5.000000e+00  7.500000e+00  2.500000e+00
   endloop
 endfacet
 facet normal  1.000000e+00 -1.776357e-15 -3.552714e-16
   outer loop
     vertex  5.000000e+00  6.500000e+00  5.000000e+00
     vertex  5.000000e+00  7.500000e+00  2.500000e+00
     vertex  5.000000e+00  7.500000e+00  5.000000e+00
   endloop
 endfacet
 facet normal  0.000000e+00 -0.000000e+00 -1.000000e+00
   outer loop
     vertex  4.000000e+00  6.500000e+00  5.000000e+00
     vertex  5.000000e+00  5.000000e-01  5.000000e+00
     vertex  4.000000e+00  5.000000e-01  5.000000e+00
   endloop
 endfacet
 facet normal  0.000000e+00  0.000000e+00 -1.000000e+00
   outer loop
     vertex  4.000000e+00  6.500000e+00  5.000000e+00
     vertex  5.000000e+00  6.500000e+00  5.000000e+00
     vertex  5.000000e+00  5.000000e-01  5.000000e+00
   endloop
 endfacet
 facet normal  0.000000e+00  0.000000e+00  1.000000e+00
   outer loop
     vertex -4.000000e+00  6.500000e+00  7.000000e+00
     vertex -5.000000e+00  7.500000e+00  7.000000e+00
     vertex -5.000000e+00  6.500000e+00  7.000000e+00
   endloop
 endfacet
 facet normal  0.000000e+00  0.000000e+00  1.000000e+00
   outer loop
     vertex  4.000000e+00  7.500000e+00  7.000000e+00
     vertex -4.000000e+00  6.500000e+00  7.000000e+00
     vertex  4.000000e+00  6.500000e+00  7.000000e+00
   endloop
 endfacet
 facet normal  0.000000e+00  0.000000e+00  1.000000e+00
   outer loop
     vertex  4.000000e+00  7.500000e+00  7.000000e+00
     vertex -5.000000e+00  7.500000e+00  7.000000e+00
     vertex -4.000000e+00  6.500000e+00  7.000000e+00
   endloop
 endfacet
 facet normal -1.000000e+00  0.000000e+00  0.000000e+00
   outer loop
     vertex -5.000000e+00  6.500000e+00  2.500000e+00
     vertex -5.000000e+00  7.500000e+00  0.000000e+00
     vertex -5.000000e+00  6.500000e+00  0.000000e+00
   endloop
 endfacet
 facet normal -1.000000e+00  8.881784e-16  3.552714e-16
   outer loop
     vertex -5.000000e+00  6.500000e+00  2.500000e+00
     vertex -5.000000e+00  7.500000e+00  2.500000e+00
     vertex -5.000000e+00  7.500000e+00  0.000000e+00
   endloop
 endfacet
 facet normal -0.000000e+00  0.000000e+00 -1.000000e+00
   outer loop
     vertex  4.000000e+00  7.500000e+00  0.000000e+00
     vertex -5.000000e+00  6.500000e+00  0.000000e+00
     vertex -5.000000e+00  7.500000e+00  0.000000e+00
   endloop
 endfacet
 facet normal  0.000000e+00  0.000000e+00 -1.000000e+00
   outer loop
     vertex  4.000000e+00  7.500000e+00  0.000000e+00
     vertex  4.000000e+00  6.500000e+00  0.000000e+00
     vertex -5.000000e+00  6.500000e+00  0.000000e+00
   endloop
 endfacet
 facet normal -1.000000e+00  1.480297e-16  0.000000e+00
   outer loop
     vertex  4.000000e+00  6.500000e+00  2.500000e+00
     vertex  4.000000e+00  6.500000e+00  0.000000e+00
     vertex  4.000000e+00  5.000000e-01  0.000000e+00
   endloop
 endfacet
 facet normal -1.000000e+00  1.480297e-16  0.000000e+00
   outer loop
     vertex  4.000000e+00  6.500000e+00  2.500000e+00
     vertex  4.000000e+00  5.000000e-01  0.000000e+00
     vertex  4.000000e+00  5.000000e-01  2.500000e+00
   endloop
 endfacet
 facet normal  0.000000e+00  0.000000e+00  1.000000e+00
   outer loop
     vertex  4.000000e+00  6.500000e+00  2.500000e+00
     vertex  4.000000e+00  5.000000e-01  2.500000e+00
     vertex  5.000000e+00  5.000000e-01  2.500000e+00
   endloop
 endfacet
 facet normal -0.000000e+00  0.000000e+00  1.000000e+00
   outer loop
     vertex  4.000000e+00  6.500000e+00  2.500000e+00
     vertex  5.000000e+00  5.000000e-01  2.500000e+00
     vertex  5.000000e+00  6.500000e+00  2.500000e+00
   endloop
 endfacet
 facet normal  0.000000e+00  0.000000e+00  1.000000e+00
   outer loop
     vertex -4.000000e+00 -5.500000e+00  7.000000e+00
     vertex -5.000000e+00 -5.500000e+00  7.000000e+00
     vertex -5.000000e+00 -6.500000e+00  7.000000e+00
   endloop
 endfacet
 facet normal  0.000000e+00  0.000000e+00  1.000000e+00
   outer loop
     vertex  4.000000e+00 -6.500000e+00  7.000000e+00
     vertex -4.000000e+00 -5.500000e+00  7.000000e+00
     vertex -5.000000e+00 -6.500000e+00  7.000000e+00
   endloop
 endfacet
 facet normal  0.000000e+00  0.000000e+00  1.000000e+00
   outer loop
     vertex  4.000000e+00 -5.500000e+00  7.000000e+00
     vertex -4.000000e+00 -5.500000e+00  7.000000e+00
     vertex  4.000000e+00 -6.500000e+00  7.000000e+00
   endloop
 endfacet
 facet normal -0.000000e+00  0.000000e+00 -1.000000e+00
   outer loop
     vertex -4.000000e+00 -5.500000e+00  0.000000e+00
     vertex -5.000000e+00 -6.500000e+00  0.000000e+00
     vertex -5.000000e+00 -5.500000e+00  0.000000e+00
   endloop
 endfacet
 facet normal  0.000000e+00  0.000000e+00 -1.000000e+00
   outer loop
     vertex  5.000000e+00 -6.500000e+00  0.000000e+00
     vertex -5.000000e+00 -6.500000e+00  0.000000e+00
     vertex -4.000000e+00 -5.500000e+00  0.000000e+00
   endloop
 endfacet
 facet normal -0.000000e+00 -0.000000e+00 -1.000000e+00
   outer loop
     vertex  5.000000e+00 -5.500000e+00  0.000000e+00
     vertex  5.000000e+00 -6.500000e+00  0.000000e+00
     vertex -4.000000e+00 -5.500000e+00  0.000000e+00
   endloop
 endfacet
 facet normal  1.000000e+00  0.000000e+00  3.552714e-16
   outer loop
     vertex  5.000000e+00 -5.500000e+00  2.500000e+00
     vertex  5.000000e+00 -6.500000e+00  0.000000e+00
     vertex  5.000000e+00 -5.500000e+00  0.000000e+00
   endloop
 endfacet
 facet normal  1.000000e+00 -8.881784e-16  0.000000e+00
   outer loop
     vertex  5.000000e+00 -6.500000e+00  5.000000e+00
     vertex  5.000000e+00 -5.500000e+00  2.500000e+00
     vertex  5.000000e+00 -5.500000e+00  5.000000e+00
   endloop
 endfacet
 facet normal  1.000000e+00  0.000000e+00  3.552714e-16
   outer loop
     vertex  5.000000e+00 -6.500000e+00  5.000000e+00
     vertex  5.000000e+00 -6.500000e+00  0.000000e+00
     vertex  5.000000e+00 -5.500000e+00  2.500000e+00
   endloop
 endfacet
 facet normal  0.000000e+00  0.000000e+00 -1.000000e+00
   outer loop
     vertex  5.000000e+00 -5.500000e+00  2.500000e+00
     vertex  4.000000e+00 -5.000000e-01  2.500000e+00
     vertex  5.000000e+00 -5.000000e-01  2.500000e+00
   endloop
 endfacet
 facet normal  0.000000e+00  0.000000e+00 -1.000000e+00
   outer loop
     vertex  5.000000e+00 -5.500000e+00  2.500000e+00
     vertex  4.000000e+00 -5.500000e+00  2.500000e+00
     vertex  4.000000e+00 -5.000000e-01  2.500000e+00
   endloop
 endfacet
 facet normal -1.000000e+00  2.664535e-16  0.000000e+00
   outer loop
     vertex  4.000000e+00 -5.500000e+00  5.000000e+00
     vertex  4.000000e+00 -5.000000e-01  2.500000e+00
     vertex  4.000000e+00 -5.500000e+00  2.500000e+00
   endloop
 endfacet
 facet normal -1.000000e+00  2.664535e-16  0.000000e+00
   outer loop
     vertex  4.000000e+00 -5.500000e+00  5.000000e+00
     vertex  4.000000e+00 -5.000000e-01  5.000000e+00
     vertex  4.000000e+00 -5.000000e-01  2.500000e+00
   endloop
 endfacet
 facet normal -1.000000e+00  0.000000e+00 -3.552714e-16
   outer loop
     vertex -5.000000e+00 -5.500000e+00  2.500000e+00
     vertex -5.000000e+00 -5.500000e+00  0.000000e+00
     vertex -5.000000e+00 -6.500000e+00  0.000000e+00
   endloop
 endfacet
 facet normal -1.000000e+00 -8.881784e-16  4.440892e-16
   outer loop
     vertex -5.000000e+00 -6.500000e+00  7.000000e+00
     vertex -5.000000e+00 -5.500000e+00  7.000000e+00
     vertex -5.000000e+00 -5.500000e+00  5.000000e+00
   endloop
 endfacet
 facet normal -1.000000e+00 -8.881784e-16 -0.000000e+00
   outer loop
     vertex -5.000000e+00 -6.500000e+00  7.000000e+00
     vertex -5.000000e+00 -5.500000e+00  2.500000e+00
     vertex -5.000000e+00 -6.500000e+00  0.000000e+00
   endloop
 endfacet
 facet normal -1.000000e+00 -2.486900e-15 -3.552714e-16
   outer loop
     vertex -5.000000e+00 -6.500000e+00  7.000000e+00
     vertex -5.000000e+00 -5.500000e+00  5.000000e+00
     vertex -5.000000e+00 -5.500000e+00  2.500000e+00
   endloop
 endfacet
 facet normal  0.000000e+00  0.000000e+00  1.000000e+00
   outer loop
     vertex -5.000000e+00 -5.000000e-01  2.500000e+00
     vertex -5.000000e+00 -5.500000e+00  2.500000e+00
     vertex -4.000000e+00 -5.500000e+00  2.500000e+00
   endloop
 endfacet
 facet normal -0.000000e+00  0.000000e+00  1.000000e+00
   outer loop
     vertex -5.000000e+00 -5.000000e-01  2.500000e+00
     vertex -4.000000e+00 -5.500000e+00  2.500000e+00
     vertex -4.000000e+00 -5.000000e-01  2.500000e+00
   endloop
 endfacet
 facet normal  1.000000e+00 -1.776357e-16  0.000000e+00
   outer loop
     vertex -4.000000e+00 -5.000000e-01  2.500000e+00
     vertex -4.000000e+00 -5.500000e+00  0.000000e+00
     vertex -4.000000e+00 -5.000000e-01  0.000000e+00
   endloop
 endfacet
 facet normal  1.000000e+00 -1.776357e-16  0.000000e+00
   outer loop
     vertex -4.000000e+00 -5.000000e-01  2.500000e+00
     vertex -4.000000e+00 -5.500000e+00  2.500000e+00
     vertex -4.000000e+00 -5.500000e+00  0.000000e+00
   endloop
 endfacet
 facet normal -1.000000e+00  1.480297e-16  3.552714e-16
   outer loop
     vertex -5.000000e+00  5.000000e-01  5.000000e+00
     vertex -5.000000e+00  6.500000e+00  2.500000e+00
     vertex -5.000000e+00  5.000000e-01  2.500000e+00
   endloop
 endfacet
 facet normal -1.000000e+00  0.000000e+00  0.000000e+00
   outer loop
     vertex -5.000000e+00  5.000000e-01  5.000000e+00
     vertex -5.000000e+00  6.500000e+00  5.000000e+00
     vertex -5.000000e+00  6.500000e+00  2.500000e+00
   endloop
 endfacet
 facet normal  1.000000e+00  0.000000e+00 -3.552714e-16
   outer loop
     vertex  5.000000e+00 -5.000000e-01  2.500000e+00
     vertex  5.000000e+00 -5.000000e-01  0.000000e+00
     vertex  5.000000e+00  5.000000e-01  0.000000e+00
   endloop
 endfacet
 facet normal  1.000000e+00  1.776357e-15  3.552714e-16
   outer loop
     vertex  5.000000e+00 -5.000000e-01  2.500000e+00
     vertex  5.000000e+00  5.000000e-01  0.000000e+00
     vertex  5.000000e+00  5.000000e-01  2.500000e+00
   endloop
 endfacet
 facet normal  1.000000e+00  0.000000e+00 -3.552714e-16
   outer loop
     vertex  5.000000e+00 -5.000000e-01  5.000000e+00
     vertex  5.000000e+00  5.000000e-01  2.500000e+00
     vertex  5.000000e+00  5.000000e-01  5.000000e+00
   endloop
 endfacet
 facet normal  1.000000e+00  1.776357e-15  3.552714e-16
   outer loop
     vertex  5.000000e+00 -5.000000e-01  5.000000e+00
     vertex  5.000000e+00 -5.000000e-01  2.500000e+00
     vertex  5.000000e+00  5.000000e-01  2.500000e+00
   endloop
 endfacet
 facet normal -1.000000e+00  0.000000e+00  3.552714e-16
   outer loop
     vertex -5.000000e+00 -5.000000e-01  2.500000e+00
     vertex -5.000000e+00  5.000000e-01  0.000000e+00
     vertex -5.000000e+00 -5.000000e-01  0.000000e+00
   endloop
 endfacet
 facet normal -1.000000e+00 -1.776357e-15 -3.552714e-16
   outer loop
     vertex -5.000000e+00 -5.000000e-01  2.500000e+00
     vertex -5.000000e+00  5.000000e-01  2.500000e+00
     vertex -5.000000e+00  5.000000e-01  0.000000e+00
   endloop
 endfacet
 facet normal -1.000000e+00  0.000000e+00  3.552714e-16
   outer loop
     vertex -5.000000e+00 -5.000000e-01  5.000000e+00
     vertex -5.000000e+00  5.000000e-01  5.000000e+00
     vertex -5.000000e+00  5.000000e-01  2.500000e+00
   endloop
 endfacet
 facet normal -1.000000e+00 -1.776357e-15 -3.552714e-16
   outer loop
     vertex -5.000000e+00 -5.000000e-01  5.000000e+00
     vertex -5.000000e+00  5.000000e-01  2.500000e+00
     vertex -5.000000e+00 -5.000000e-01  2.500000e+00
   endloop
 endfacet
 facet normal  0.000000e+00  0.000000e+00 -1.000000e+00
   outer loop
     vertex -4.000000e+00 -5.000000e-01  0.000000e+00
     vertex -5.000000e+00 -5.000000e-01  0.000000e+00
     vertex -5.000000e+00  5.000000e-01  0.000000e+00
   endloop
 endfacet
 facet normal  0.000000e+00 -0.000000e+00 -1.000000e+00
   outer loop
     vertex  4.000000e+00  5.000000e-01  0.000000e+00
     vertex  5.000000e+00 -5.000000e-01  0.000000e+00
     vertex -4.000000e+00 -5.000000e-01  0.000000e+00
   endloop
 endfacet
 facet normal -0.000000e+00  0.000000e+00 -1.000000e+00
   outer loop
     vertex  4.000000e+00  5.000000e-01  0.000000e+00
     vertex -4.000000e+00 -5.000000e-01  0.000000e+00
     vertex -5.000000e+00  5.000000e-01  0.000000e+00
   endloop
 endfacet
 facet normal -0.000000e+00 -0.000000e+00 -1.000000e+00
   outer loop
     vertex  5.000000e+00  5.000000e-01  0.000000e+00
     vertex  5.000000e+00 -5.000000e-01  0.000000e+00
     vertex  4.000000e+00  5.000000e-01  0.000000e+00
   endloop
 endfacet
 facet normal -1.000000e+00  8.881784e-16  4.440892e-16
   outer loop
     vertex -5.000000e+00  6.500000e+00  7.000000e+00
     vertex -5.000000e+00  7.500000e+00  5.000000e+00
     vertex -5.000000e+00  6.500000e+00  5.000000e+00
   endloop
 endfacet
 facet normal -1.000000e+00 -8.881784e-16 -4.440892e-16
   outer loop
     vertex -5.000000e+00  6.500000e+00  7.000000e+00
     vertex -5.000000e+00  7.500000e+00  7.000000e+00
     vertex -5.000000e+00  7.500000e+00  5.000000e+00
   endloop
 endfacet
 facet normal  0.000000e+00  0.000000e+00  1.000000e+00
   outer loop
     vertex  4.000000e+00  6.500000e+00  7.000000e+00
     vertex  4.000000e+00 -5.500000e+00  7.000000e+00
     vertex  5.000000e+00 -5.500000e+00  7.000000e+00
   endloop
 endfacet
 facet normal -0.000000e+00  0.000000e+00  1.000000e+00
   outer loop
     vertex  4.000000e+00  6.500000e+00  7.000000e+00
     vertex  5.000000e+00 -5.500000e+00  7.000000e+00
     vertex  5.000000e+00  6.500000e+00  7.000000e+00
   endloop
 endfacet
 facet normal  1.000000e+00 -1.776357e-15  0.000000e+00
   outer loop
     vertex  5.000000e+00  6.500000e+00  7.000000e+00
     vertex  5.000000e+00  6.500000e+00  5.000000e+00
     vertex  5.000000e+00  7.500000e+00  5.000000e+00
   endloop
 endfacet
 facet normal  1.000000e+00 -8.881784e-16  4.440892e-16
   outer loop
     vertex  5.000000e+00  6.500000e+00  7.000000e+00
     vertex  5.000000e+00  7.500000e+00  5.000000e+00
     vertex  5.000000e+00  7.500000e+00  7.000000e+00
   endloop
 endfacet
 facet normal  0.000000e+00  1.000000e+00  0.000000e+00
   outer loop
     vertex -4.000000e+00  7.500000e+00  2.500000e+00
     vertex -5.000000e+00  7.500000e+00  0.000000e+00
     vertex -5.000000e+00  7.500000e+00  2.500000e+00
   endloop
 endfacet
 facet normal  0.000000e+00  1.000000e+00  0.000000e+00
   outer loop
     vertex -5.000000e+00  7.500000e+00  7.000000e+00
     vertex -4.000000e+00  7.500000e+00  5.000000e+00
     vertex -5.000000e+00  7.500000e+00  5.000000e+00
   endloop
 endfacet
 facet normal  0.000000e+00  1.000000e+00  0.000000e+00
   outer loop
     vertex  4.000000e+00  7.500000e+00  0.000000e+00
     vertex -5.000000e+00  7.500000e+00  0.000000e+00
     vertex -4.000000e+00  7.500000e+00  2.500000e+00
   endloop
 endfacet
 facet normal  0.000000e+00  1.000000e+00  0.000000e+00
   outer loop
     vertex  4.000000e+00  7.500000e+00  2.500000e+00
     vertex -4.000000e+00  7.500000e+00  2.500000e+00
     vertex -4.000000e+00  7.500000e+00  5.000000e+00
   endloop
 endfacet
 facet normal  0.000000e+00  1.000000e+00  0.000000e+00
   outer loop
     vertex  4.000000e+00  7.500000e+00  2.500000e+00
     vertex  4.000000e+00  7.500000e+00  0.000000e+00
     vertex -4.000000e+00  7.500000e+00  2.500000e+00
   endloop
 endfacet
 facet normal  0.000000e+00  1.000000e+00  0.000000e+00
   outer loop
     vertex  4.000000e+00  7.500000e+00  5.000000e+00
     vertex  4.000000e+00  7.500000e+00  2.500000e+00
     vertex -4.000000e+00  7.500000e+00  5.000000e+00
   endloop
 endfacet
 facet normal  0.000000e+00  1.000000e+00  0.000000e+00
   outer loop
     vertex  5.000000e+00  7.500000e+00  5.000000e+00
     vertex  5.000000e+00  7.500000e+00  2.500000e+00
     vertex  4.000000e+00  7.500000e+00  2.500000e+00
   endloop
 endfacet
 facet normal  0.000000e+00  1.000000e+00  0.000000e+00
   outer loop
     vertex  5.000000e+00  7.500000e+00  5.000000e+00
     vertex  4.000000e+00  7.500000e+00  2.500000e+00
     vertex  4.000000e+00  7.500000e+00  5.000000e+00
   endloop
 endfacet
 facet normal  0.000000e+00  1.000000e+00  0.000000e+00
   outer loop
     vertex  4.000000e+00  7.500000e+00  7.000000e+00
     vertex -4.000000e+00  7.500000e+00  5.000000e+00
     vertex -5.000000e+00  7.500000e+00  7.000000e+00
   endloop
 endfacet
 facet normal  0.000000e+00  1.000000e+00  0.000000e+00
   outer loop
     vertex  4.000000e+00  7.500000e+00  7.000000e+00
     vertex  4.000000e+00  7.500000e+00  5.000000e+00
     vertex -4.000000e+00  7.500000e+00  5.000000e+00
   endloop
 endfacet
 facet normal  1.000000e+00  0.000000e+00  0.000000e+00
   outer loop
     vertex  5.000000e+00  6.500000e+00  2.500000e+00
     vertex  5.000000e+00  6.500000e+00  0.000000e+00
     vertex  5.000000e+00  7.500000e+00  0.000000e+00
   endloop
 endfacet
 facet normal  1.000000e+00 -8.881784e-16 -3.552714e-16
   outer loop
     vertex  5.000000e+00  6.500000e+00  2.500000e+00
     vertex  5.000000e+00  7.500000e+00  0.000000e+00
     vertex  5.000000e+00  7.500000e+00  2.500000e+00
   endloop
 endfacet
 facet normal  1.000000e+00 -1.776357e-16 -4.440892e-16
   outer loop
     vertex  5.000000e+00 -5.000000e-01  5.000000e+00
     vertex  5.000000e+00 -5.500000e+00  7.000000e+00
     vertex  5.000000e+00 -5.500000e+00  5.000000e+00
   endloop
 endfacet
 facet normal  1.000000e+00  0.000000e+00  0.000000e+00
   outer loop
     vertex  5.000000e+00  5.000000e-01  5.000000e+00
     vertex  5.000000e+00 -5.500000e+00  7.000000e+00
     vertex  5.000000e+00 -5.000000e-01  5.000000e+00
   endloop
 endfacet
 facet normal  1.000000e+00  0.000000e+00  0.000000e+00
   outer loop
     vertex  5.000000e+00  6.500000e+00  7.000000e+00
     vertex  5.000000e+00  5.000000e-01  5.000000e+00
     vertex  5.000000e+00  6.500000e+00  5.000000e+00
   endloop
 endfacet
 facet normal  1.000000e+00  0.000000e+00  0.000000e+00
   outer loop
     vertex  5.000000e+00  6.500000e+00  7.000000e+00
     vertex  5.000000e+00 -5.500000e+00  7.000000e+00
     vertex  5.000000e+00  5.000000e-01  5.000000e+00
   endloop
 endfacet
 facet normal  0.000000e+00  0.000000e+00  1.000000e+00
   outer loop
     vertex  5.000000e+00  6.500000e+00  7.000000e+00
     vertex  4.000000e+00  7.500000e+00  7.000000e+00
     vertex  4.000000e+00  6.500000e+00  7.000000e+00
   endloop
 endfacet
 facet normal  0.000000e+00  0.000000e+00  1.000000e+00
   outer loop
     vertex  5.000000e+00  7.500000e+00  7.000000e+00
     vertex  4.000000e+00  7.500000e+00  7.000000e+00
     vertex  5.000000e+00  6.500000e+00  7.000000e+00
   endloop
 endfacet
 facet normal -1.000000e+00  8.881784e-16  0.000000e+00
   outer loop
     vertex -5.000000e+00  6.500000e+00  5.000000e+00
     vertex -5.000000e+00  7.500000e+00  2.500000e+00
     vertex -5.000000e+00  6.500000e+00  2.500000e+00
   endloop
 endfacet
 facet normal -1.000000e+00  8.881784e-16  0.000000e+00
   outer loop
     vertex -5.000000e+00  6.500000e+00  5.000000e+00
     vertex -5.000000e+00  7.500000e+00  5.000000e+00
     vertex -5.000000e+00  7.500000e+00  2.500000e+00
   endloop
 endfacet
 facet normal  0.000000e+00  0.000000e+00 -1.000000e+00
   outer loop
     vertex  5.000000e+00  6.500000e+00  0.000000e+00
     vertex  4.000000e+00  6.500000e+00  0.000000e+00
     vertex  4.000000e+00  7.500000e+00  0.000000e+00
   endloop
 endfacet
 facet normal -0.000000e+00 -0.000000e+00 -1.000000e+00
   outer loop
     vertex  5.000000e+00  7.500000e+00  0.000000e+00
     vertex  5.000000e+00  6.500000e+00  0.000000e+00
     vertex  4.000000e+00  7.500000e+00  0.000000e+00
   endloop
 endfacet
 facet normal  0.000000e+00 -0.000000e+00 -1.000000e+00
   outer loop
     vertex  4.000000e+00  6.500000e+00  0.000000e+00
     vertex  5.000000e+00  5.000000e-01  0.000000e+00
     vertex  4.000000e+00  5.000000e-01  0.000000e+00
   endloop
 endfacet
 facet normal  0.000000e+00  0.000000e+00 -1.000000e+00
   outer loop
     vertex  4.000000e+00  6.500000e+00  0.000000e+00
     vertex  5.000000e+00  6.500000e+00  0.000000e+00
     vertex  5.000000e+00  5.000000e-01  0.000000e+00
   endloop
 endfacet
 facet normal  1.000000e+00  0.000000e+00  0.000000e+00
   outer loop
     vertex  5.000000e+00  6.500000e+00  2.500000e+00
     vertex  5.000000e+00  5.000000e-01  0.000000e+00
     vertex  5.000000e+00  6.500000e+00  0.000000e+00
   endloop
 endfacet
 facet normal  1.000000e+00 -1.480297e-16  3.552714e-16
   outer loop
     vertex  5.000000e+00  6.500000e+00  2.500000e+00
     vertex  5.000000e+00  5.000000e-01  2.500000e+00
     vertex  5.000000e+00  5.000000e-01  0.000000e+00
   endloop
 endfacet
 facet normal  0.000000e+00  0.000000e+00  1.000000e+00
   outer loop
     vertex  5.000000e+00 -5.500000e+00  7.000000e+00
     vertex  4.000000e+00 -5.500000e+00  7.000000e+00
     vertex  4.000000e+00 -6.500000e+00  7.000000e+00
   endloop
 endfacet
 facet normal  0.000000e+00  0.000000e+00  1.000000e+00
   outer loop
     vertex  5.000000e+00 -5.500000e+00  7.000000e+00
     vertex  4.000000e+00 -6.500000e+00  7.000000e+00
     vertex  5.000000e+00 -6.500000e+00  7.000000e+00
   endloop
 endfacet
 facet normal  0.000000e+00 -1.000000e+00 -0.000000e+00
   outer loop
     vertex  4.000000e+00 -6.500000e+00  5.000000e+00
     vertex -5.000000e+00 -6.500000e+00  0.000000e+00
     vertex  5.000000e+00 -6.500000e+00  0.000000e+00
   endloop
 endfacet
 facet normal -0.000000e+00 -1.000000e+00  0.000000e+00
   outer loop
     vertex  4.000000e+00 -6.500000e+00  5.000000e+00
     vertex -5.000000e+00 -6.500000e+00  7.000000e+00
     vertex -5.000000e+00 -6.500000e+00  0.000000e+00
   endloop
 endfacet
 facet normal -0.000000e+00 -1.000000e+00 -0.000000e+00
   outer loop
     vertex  5.000000e+00 -6.500000e+00  5.000000e+00
     vertex  4.000000e+00 -6.500000e+00  5.000000e+00
     vertex  5.000000e+00 -6.500000e+00  0.000000e+00
   endloop
 endfacet
 facet normal -0.000000e+00 -1.000000e+00 -0.000000e+00
   outer loop
     vertex  4.000000e+00 -6.500000e+00  7.000000e+00
     vertex -5.000000e+00 -6.500000e+00  7.000000e+00
     vertex  4.000000e+00 -6.500000e+00  5.000000e+00
   endloop
 endfacet
 facet normal  0.000000e+00  0.000000e+00 -1.000000e+00
   outer loop
     vertex -5.000000e+00 -5.000000e-01  0.000000e+00
     vertex -4.000000e+00 -5.500000e+00  0.000000e+00
     vertex -5.000000e+00 -5.500000e+00  0.000000e+00
   endloop
 endfacet
 facet normal  0.000000e+00  0.000000e+00 -1.000000e+00
   outer loop
     vertex -5.000000e+00 -5.000000e-01  0.000000e+00
     vertex -4.000000e+00 -5.000000e-01  0.000000e+00
     vertex -4.000000e+00 -5.500000e+00  0.000000e+00
   endloop
 endfacet
 facet normal  1.000000e+00 -8.881784e-16 -4.440892e-16
   outer loop
     vertex  5.000000e+00 -6.500000e+00  7.000000e+00
     vertex  5.000000e+00 -6.500000e+00  5.000000e+00
     vertex  5.000000e+00 -5.500000e+00  5.000000e+00
   endloop
 endfacet
 facet normal  1.000000e+00 -8.881784e-16 -4.440892e-16
   outer loop
     vertex  5.000000e+00 -6.500000e+00  7.000000e+00
     vertex  5.000000e+00 -5.500000e+00  5.000000e+00
     vertex  5.000000e+00 -5.500000e+00  7.000000e+00
   endloop
 endfacet
 facet normal  1.000000e+00 -3.552714e-16  0.000000e+00
   outer loop
     vertex  5.000000e+00 -5.500000e+00  5.000000e+00
     vertex  5.000000e+00 -5.500000e+00  2.500000e+00
     vertex  5.000000e+00 -5.000000e-01  2.500000e+00
   endloop
 endfacet
 facet normal  1.000000e+00 -1.776357e-16  3.552714e-16
   outer loop
     vertex  5.000000e+00 -5.500000e+00  5.000000e+00
     vertex  5.000000e+00 -5.000000e-01  2.500000e+00
     vertex  5.000000e+00 -5.000000e-01  5.000000e+00
   endloop
 endfacet
 facet normal -1.000000e+00  0.000000e+00  3.552714e-16
   outer loop
     vertex -5.000000e+00 -5.000000e-01  2.500000e+00
     vertex -5.000000e+00 -5.000000e-01  0.000000e+00
     vertex -5.000000e+00 -5.500000e+00  0.000000e+00
   endloop
 endfacet
 facet normal -1.000000e+00  3.552714e-16 -3.552714e-16
   outer loop
     vertex -5.000000e+00 -5.000000e-01  2.500000e+00
     vertex -5.000000e+00 -5.500000e+00  0.000000e+00
     vertex -5.000000e+00 -5.500000e+00  2.500000e+00
   endloop
 endfacet
 facet normal  0.000000e+00  1.000000e+00  0.000000e+00
   outer loop
     vertex  5.000000e+00  7.500000e+00  7.000000e+00
     vertex  5.000000e+00  7.500000e+00  5.000000e+00
     vertex  4.000000e+00  7.500000e+00  5.000000e+00
   endloop
 endfacet
 facet normal  0.000000e+00  1.000000e+00  0.000000e+00
   outer loop
     vertex  5.000000e+00  7.500000e+00  7.000000e+00
     vertex  4.000000e+00  7.500000e+00  5.000000e+00
     vertex  4.000000e+00  7.500000e+00  7.000000e+00
   endloop
 endfacet
 facet normal  0.000000e+00  1.000000e+00  0.000000e+00
   outer loop
     vertex -5.000000e+00  7.500000e+00  5.000000e+00
     vertex -4.000000e+00  7.500000e+00  2.500000e+00
     vertex -5.000000e+00  7.500000e+00  2.500000e+00
   endloop
 endfacet
 facet normal -0.000000e+00  1.000000e+00  0.000000e+00
   outer loop
     vertex -5.000000e+00  7.500000e+00  5.000000e+00
     vertex -4.000000e+00  7.500000e+00  5.000000e+00
     vertex -4.000000e+00  7.500000e+00  2.500000e+00
   endloop
 endfacet
 facet normal  0.000000e+00  1.000000e+00  0.000000e+00
   outer loop
     vertex  5.000000e+00  7.500000e+00  2.500000e+00
     vertex  5.000000e+00  7.500000e+00  0.000000e+00
     vertex  4.000000e+00  7.500000e+00  0.000000e+00
   endloop
 endfacet
 facet normal  0.000000e+00  1.000000e+00  0.000000e+00
   outer loop
     vertex  5.000000e+00  7.500000e+00  2.500000e+00
     vertex  4.000000e+00  7.500000e+00  0.000000e+00
     vertex  4.000000e+00  7.500000e+00  2.500000e+00
   endloop
 endfacet
 facet normal  0.000000e+00 -1.000000e+00  0.000000e+00
   outer loop
     vertex  4.000000e+00 -6.500000e+00  7.000000e+00
     vertex  4.000000e+00 -6.500000e+00  5.000000e+00
     vertex  5.000000e+00 -6.500000e+00  5.000000e+00
   endloop
 endfacet
 facet normal -0.000000e+00 -1.000000e+00  0.000000e+00
   outer loop
     vertex  5.000000e+00 -6.500000e+00  7.000000e+00
     vertex  4.000000e+00 -6.500000e+00  7.000000e+00
     vertex  5.000000e+00 -6.500000e+00  5.000000e+00
   endloop
 endfacet
endsolid
