solid 
 facet normal -4.114324e-01  2.339784e-01 -8.808958e-01
   outer loop
     vertex -6.334546e-01  6.522495e+00 -3.647711e+00
     vertex -3.480870e+00 -4.182711e+00 -5.161248e+00
     vertex -5.116660e+00  5.135677e+00 -1.922137e+00
   endloop
 endfacet
 facet normal -4.114324e-01  2.339784e-01 -8.808958e-01
   outer loop
     vertex -6.334546e-01  6.522495e+00 -3.647711e+00
     vertex  1.002336e+00 -2.795893e+00 -6.886821e+00
     vertex -3.480870e+00 -4.182711e+00 -5.161248e+00
   endloop
 endfacet
 facet normal -8.966411e-01 -2.773636e-01  3.451147e-01
   outer loop
     vertex -5.116660e+00  5.135677e+00 -1.922137e+00
     vertex -3.480870e+00 -4.182711e+00 -5.161248e+00
     vertex -3.069437e+00 -4.416689e+00 -4.280352e+00
   endloop
 endfacet
 facet normal -8.966411e-01 -2.773636e-01  3.451147e-01
   outer loop
     vertex -4.705228e+00  4.901699e+00 -1.041241e+00
     vertex -5.116660e+00  5.135677e+00 -1.922137e+00
     vertex -3.069437e+00 -4.416689e+00 -4.280352e+00
   endloop
 endfacet
 facet normal -4.114324e-01  2.339784e-01 -8.808958e-01
   outer loop
     vertex -7.970336e-01  7.454334e+00 -3.323800e+00
     vertex -5.116660e+00  5.135677e+00 -1.922137e+00
     vertex -5.280239e+00  6.067516e+00 -1.598226e+00
   endloop
 endfacet
 facet normal -4.114324e-01  2.339784e-01 -8.808958e-01
   outer loop
     vertex -7.970336e-01  7.454334e+00 -3.323800e+00
     vertex -6.334546e-01  6.522495e+00 -3.647711e+00
     vertex -5.116660e+00  5.135677e+00 -1.922137e+00
   endloop
 endfacet
 facet normal  8.966411e-01  2.773636e-01 -3.451147e-01
   outer loop
     vertex -2.220221e-01  6.288517e+00 -2.766815e+00
     vertex  1.413768e+00 -3.029871e+00 -6.005925e+00
     vertex  1.002336e+00 -2.795893e+00 -6.886821e+00
   endloop
 endfacet
 facet normal  8.966411e-01  2.773636e-01 -3.451147e-01
   outer loop
     vertex -2.220221e-01  6.288517e+00 -2.766815e+00
     vertex  1.002336e+00 -2.795893e+00 -6.886821e+00
     vertex -6.334546e-01  6.522495e+00 -3.647711e+00
   endloop
 endfacet
 facet normal -4.114324e-01  2.339784e-01 -8.808958e-01
   outer loop
     vertex  1.002336e+00 -2.795893e+00 -6.886821e+00
     vertex -3.317291e+00 -5.114550e+00 -5.485159e+00
     vertex -3.480870e+00 -4.182711e+00 -5.161248e+00
   endloop
 endfacet
 facet normal -4.114324e-01  2.339784e-01 -8.808958e-01
   outer loop
     vertex  1.002336e+00 -2.795893e+00 -6.886821e+00
     vertex  1.165915e+00 -3.727732e+00 -7.210732e+00
     vertex -3.317291e+00 -5.114550e+00 -5.485159e+00
   endloop
 endfacet
 facet normal -8.966411e-01 -2.773636e-01  3.451147e-01
   outer loop
     vertex -3.069437e+00 -4.416689e+00 -4.280352e+00
     vertex -3.480870e+00 -4.182711e+00 -5.161248e+00
     vertex -3.317291e+00 -5.114550e+00 -5.485159e+00
   endloop
 endfacet
 facet normal -8.966411e-01 -2.773636e-01  3.451147e-01
   outer loop
     vertex  7.970336e-01 -7.454334e+00  3.323800e+00
     vertex  6.334546e-01 -6.522495e+00  3.647711e+00
     vertex -3.069437e+00 -4.416689e+00 -4.280352e+00
   endloop
 endfacet
 facet normal -8.966411e-01 -2.773636e-01  3.451147e-01
   outer loop
     vertex  7.970336e-01 -7.454334e+00  3.323800e+00
     vertex -3.069437e+00 -4.416689e+00 -4.280352e+00
     vertex -3.317291e+00 -5.114550e+00 -5.485159e+00
   endloop
 endfacet
 facet normal  4.114324e-01 -2.339784e-01  8.808958e-01
   outer loop
     vertex -2.220221e-01  6.288517e+00 -2.766815e+00
     vertex -4.705228e+00  4.901699e+00 -1.041241e+00
     vertex -3.069437e+00 -4.416689e+00 -4.280352e+00
   endloop
 endfacet
 facet normal  4.114324e-01 -2.339784e-01  8.808958e-01
   outer loop
     vertex -2.220221e-01  6.288517e+00 -2.766815e+00
     vertex -3.069437e+00 -4.416689e+00 -4.280352e+00
     vertex  1.413768e+00 -3.029871e+00 -6.005925e+00
   endloop
 endfacet
 facet normal -8.966411e-01 -2.773636e-01  3.451147e-01
   outer loop
     vertex -4.705228e+00  4.901699e+00 -1.041241e+00
     vertex -5.280239e+00  6.067516e+00 -1.598226e+00
     vertex -5.116660e+00  5.135677e+00 -1.922137e+00
   endloop
 endfacet
 facet normal -8.966411e-01 -2.773636e-01  3.451147e-01
   outer loop
     vertex -1.577347e+00  3.961710e+00  6.329836e+00
     vertex -5.280239e+00  6.067516e+00 -1.598226e+00
     vertex -4.705228e+00  4.901699e+00 -1.041241e+00
   endloop
 endfacet
 facet normal -8.966411e-01 -2.773636e-01  3.451147e-01
   outer loop
     vertex -1.413768e+00  3.029871e+00  6.005925e+00
     vertex -1.577347e+00  3.961710e+00  6.329836e+00
     vertex -4.705228e+00  4.901699e+00 -1.041241e+00
   endloop
 endfacet
 facet normal -1.635790e-01  9.318388e-01  3.239111e-01
   outer loop
     vertex  2.905858e+00  5.348528e+00  4.604263e+00
     vertex -5.280239e+00  6.067516e+00 -1.598226e+00
     vertex -1.577347e+00  3.961710e+00  6.329836e+00
   endloop
 endfacet
 facet normal -1.635790e-01  9.318388e-01  3.239111e-01
   outer loop
     vertex  2.905858e+00  5.348528e+00  4.604263e+00
     vertex -7.970336e-01  7.454334e+00 -3.323800e+00
     vertex -5.280239e+00  6.067516e+00 -1.598226e+00
   endloop
 endfacet
 facet normal  8.966411e-01  2.773636e-01 -3.451147e-01
   outer loop
     vertex -2.220221e-01  6.288517e+00 -2.766815e+00
     vertex -6.334546e-01  6.522495e+00 -3.647711e+00
     vertex -7.970336e-01  7.454334e+00 -3.323800e+00
   endloop
 endfacet
 facet normal  8.966411e-01  2.773636e-01 -3.451147e-01
   outer loop
     vertex  2.905858e+00  5.348528e+00  4.604263e+00
     vertex -2.220221e-01  6.288517e+00 -2.766815e+00
     vertex -7.970336e-01  7.454334e+00 -3.323800e+00
   endloop
 endfacet
 facet normal  8.966411e-01  2.773636e-01 -3.451147e-01
   outer loop
     vertex  3.069437e+00  4.416689e+00  4.280352e+00
     vertex -2.220221e-01  6.288517e+00 -2.766815e+00
     vertex  2.905858e+00  5.348528e+00  4.604263e+00
   endloop
 endfacet
 facet normal  8.966411e-01  2.773636e-01 -3.451147e-01
   outer loop
     vertex  1.165915e+00 -3.727732e+00 -7.210732e+00
     vertex  1.002336e+00 -2.795893e+00 -6.886821e+00
     vertex  1.413768e+00 -3.029871e+00 -6.005925e+00
   endloop
 endfacet
 facet normal  8.966411e-01  2.773636e-01 -3.451147e-01
   outer loop
     vertex  5.280239e+00 -6.067516e+00  1.598226e+00
     vertex  1.413768e+00 -3.029871e+00 -6.005925e+00
     vertex  5.116660e+00 -5.135677e+00  1.922137e+00
   endloop
 endfacet
 facet normal  8.966411e-01  2.773636e-01 -3.451147e-01
   outer loop
     vertex  5.280239e+00 -6.067516e+00  1.598226e+00
     vertex  1.165915e+00 -3.727732e+00 -7.210732e+00
     vertex  1.413768e+00 -3.029871e+00 -6.005925e+00
   endloop
 endfacet
 facet normal  1.635790e-01 -9.318388e-01 -3.239111e-01
   outer loop
     vertex  5.280239e+00 -6.067516e+00  1.598226e+00
     vertex  7.970336e-01 -7.454334e+00  3.323800e+00
     vertex -3.317291e+00 -5.114550e+00 -5.485159e+00
   endloop
 endfacet
 facet normal  1.635790e-01 -9.318388e-01 -3.239111e-01
   outer loop
     vertex  5.280239e+00 -6.067516e+00  1.598226e+00
     vertex -3.317291e+00 -5.114550e+00 -5.485159e+00
     vertex  1.165915e+00 -3.727732e+00 -7.210732e+00
   endloop
 endfacet
 facet normal  4.114324e-01 -2.339784e-01  8.808958e-01
   outer loop
     vertex  5.116660e+00 -5.135677e+00  1.922137e+00
     vertex  6.334546e-01 -6.522495e+00  3.647711e+00
     vertex  7.970336e-01 -7.454334e+00  3.323800e+00
   endloop
 endfacet
 facet normal  4.114324e-01 -2.339784e-01  8.808958e-01
   outer loop
     vertex  5.116660e+00 -5.135677e+00  1.922137e+00
     vertex  7.970336e-01 -7.454334e+00  3.323800e+00
     vertex  5.280239e+00 -6.067516e+00  1.598226e+00
   endloop
 endfacet
 facet normal -1.635790e-01  9.318388e-01  3.239111e-01
   outer loop
     vertex  6.334546e-01 -6.522495e+00  3.647711e+00
     vertex  1.413768e+00 -3.029871e+00 -6.005925e+00
     vertex -3.069437e+00 -4.416689e+00 -4.280352e+00
   endloop
 endfacet
 facet normal -1.635790e-01  9.318388e-01  3.239111e-01
   outer loop
     vertex  5.116660e+00 -5.135677e+00  1.922137e+00
     vertex  1.413768e+00 -3.029871e+00 -6.005925e+00
     vertex  6.334546e-01 -6.522495e+00  3.647711e+00
   endloop
 endfacet
 facet normal  1.635790e-01 -9.318388e-01 -3.239111e-01
   outer loop
     vertex -1.413768e+00  3.029871e+00  6.005925e+00
     vertex -4.705228e+00  4.901699e+00 -1.041241e+00
     vertex -2.220221e-01  6.288517e+00 -2.766815e+00
   endloop
 endfacet
 facet normal  1.635790e-01 -9.318388e-01 -3.239111e-01
   outer loop
     vertex  3.069437e+00  4.416689e+00  4.280352e+00
     vertex -1.413768e+00  3.029871e+00  6.005925e+00
     vertex -2.220221e-01  6.288517e+00 -2.766815e+00
   endloop
 endfacet
 facet normal -8.966411e-01 -2.773636e-01  3.451147e-01
   outer loop
     vertex -1.165915e+00  3.727732e+00  7.210732e+00
     vertex -1.577347e+00  3.961710e+00  6.329836e+00
     vertex -1.413768e+00  3.029871e+00  6.005925e+00
   endloop
 endfacet
 facet normal -8.966411e-01 -2.773636e-01  3.451147e-01
   outer loop
     vertex -1.002336e+00  2.795893e+00  6.886821e+00
     vertex -1.165915e+00  3.727732e+00  7.210732e+00
     vertex -1.413768e+00  3.029871e+00  6.005925e+00
   endloop
 endfacet
 facet normal -4.114324e-01  2.339784e-01 -8.808958e-01
   outer loop
     vertex  1.433647e+00  1.373508e+01  7.519462e+00
     vertex -1.577347e+00  3.961710e+00  6.329836e+00
     vertex -3.049558e+00  1.234826e+01  9.245036e+00
   endloop
 endfacet
 facet normal -4.114324e-01  2.339784e-01 -8.808958e-01
   outer loop
     vertex  1.433647e+00  1.373508e+01  7.519462e+00
     vertex  2.905858e+00  5.348528e+00  4.604263e+00
     vertex -1.577347e+00  3.961710e+00  6.329836e+00
   endloop
 endfacet
 facet normal  8.966411e-01  2.773636e-01 -3.451147e-01
   outer loop
     vertex  3.317291e+00  5.114550e+00  5.485159e+00
     vertex  3.069437e+00  4.416689e+00  4.280352e+00
     vertex  2.905858e+00  5.348528e+00  4.604263e+00
   endloop
 endfacet
 facet normal  8.966411e-01  2.773636e-01 -3.451147e-01
   outer loop
     vertex  3.480870e+00  4.182711e+00  5.161248e+00
     vertex  3.069437e+00  4.416689e+00  4.280352e+00
     vertex  3.317291e+00  5.114550e+00  5.485159e+00
   endloop
 endfacet
 facet normal  1.635790e-01 -9.318388e-01 -3.239111e-01
   outer loop
     vertex  3.480870e+00  4.182711e+00  5.161248e+00
     vertex -1.002336e+00  2.795893e+00  6.886821e+00
     vertex -1.413768e+00  3.029871e+00  6.005925e+00
   endloop
 endfacet
 facet normal  1.635790e-01 -9.318388e-01 -3.239111e-01
   outer loop
     vertex  3.480870e+00  4.182711e+00  5.161248e+00
     vertex -1.413768e+00  3.029871e+00  6.005925e+00
     vertex  3.069437e+00  4.416689e+00  4.280352e+00
   endloop
 endfacet
 facet normal  4.114324e-01 -2.339784e-01  8.808958e-01
   outer loop
     vertex  3.317291e+00  5.114550e+00  5.485159e+00
     vertex -1.165915e+00  3.727732e+00  7.210732e+00
     vertex -1.002336e+00  2.795893e+00  6.886821e+00
   endloop
 endfacet
 facet normal  4.114324e-01 -2.339784e-01  8.808958e-01
   outer loop
     vertex  3.317291e+00  5.114550e+00  5.485159e+00
     vertex -1.002336e+00  2.795893e+00  6.886821e+00
     vertex  3.480870e+00  4.182711e+00  5.161248e+00
   endloop
 endfacet
 facet normal -8.966411e-01 -2.773636e-01  3.451147e-01
   outer loop
     vertex -3.049558e+00  1.234826e+01  9.245036e+00
     vertex -1.577347e+00  3.961710e+00  6.329836e+00
     vertex -1.165915e+00  3.727732e+00  7.210732e+00
   endloop
 endfacet
 facet normal -8.966411e-01 -2.773636e-01  3.451147e-01
   outer loop
     vertex -2.638126e+00  1.211428e+01  1.012593e+01
     vertex -3.049558e+00  1.234826e+01  9.245036e+00
     vertex -1.165915e+00  3.727732e+00  7.210732e+00
   endloop
 endfacet
 facet normal -1.635790e-01  9.318388e-01  3.239111e-01
   outer loop
     vertex  1.433647e+00  1.373508e+01  7.519462e+00
     vertex -3.049558e+00  1.234826e+01  9.245036e+00
     vertex -2.638126e+00  1.211428e+01  1.012593e+01
   endloop
 endfacet
 facet normal -1.635790e-01  9.318388e-01  3.239111e-01
   outer loop
     vertex  1.433647e+00  1.373508e+01  7.519462e+00
     vertex -2.638126e+00  1.211428e+01  1.012593e+01
     vertex  1.845080e+00  1.350110e+01  8.400358e+00
   endloop
 endfacet
 facet normal  8.966411e-01  2.773636e-01 -3.451147e-01
   outer loop
     vertex  1.433647e+00  1.373508e+01  7.519462e+00
     vertex  3.317291e+00  5.114550e+00  5.485159e+00
     vertex  2.905858e+00  5.348528e+00  4.604263e+00
   endloop
 endfacet
 facet normal  8.966411e-01  2.773636e-01 -3.451147e-01
   outer loop
     vertex  1.845080e+00  1.350110e+01  8.400358e+00
     vertex  3.317291e+00  5.114550e+00  5.485159e+00
     vertex  1.433647e+00  1.373508e+01  7.519462e+00
   endloop
 endfacet
 facet normal  4.114324e-01 -2.339784e-01  8.808958e-01
   outer loop
     vertex  1.845080e+00  1.350110e+01  8.400358e+00
     vertex -2.638126e+00  1.211428e+01  1.012593e+01
     vertex -1.165915e+00  3.727732e+00  7.210732e+00
   endloop
 endfacet
 facet normal  4.114324e-01 -2.339784e-01  8.808958e-01
   outer loop
     vertex  1.845080e+00  1.350110e+01  8.400358e+00
     vertex -1.165915e+00  3.727732e+00  7.210732e+00
     vertex  3.317291e+00  5.114550e+00  5.485159e+00
   endloop
 endfacet
endsolid
