solid 
 facet normal -1.000000e+00  0.000000e+00  0.000000e+00
   outer loop
     vertex -8.000000e+00  5.000000e-01  2.500000e+00
     vertex -8.000000e+00  1.500000e+00  0.000000e+00
     vertex -8.000000e+00  5.000000e-01  0.000000e+00
   endloop
 endfacet
 facet normal -1.000000e+00  0.000000e+00  0.000000e+00
   outer loop
     vertex -8.000000e+00  5.000000e-01  2.500000e+00
     vertex -8.000000e+00  1.500000e+00  2.500000e+00
     vertex -8.000000e+00  1.500000e+00  0.000000e+00
   endloop
 endfacet
 facet normal -0.000000e+00 -1.000000e+00  0.000000e+00
   outer loop
     vertex -4.000000e+00  5.000000e-01  1.500000e+00
     vertex -8.000000e+00  5.000000e-01  2.500000e+00
     vertex -8.000000e+00  5.000000e-01  0.000000e+00
   endloop
 endfacet
 facet normal -0.000000e+00 -1.000000e+00 -0.000000e+00
   outer loop
     vertex -4.000000e+00  5.000000e-01  2.500000e+00
     vertex -8.000000e+00  5.000000e-01  2.500000e+00
     vertex -4.000000e+00  5.000000e-01  1.500000e+00
   endloop
 endfacet
 facet normal  0.000000e+00 -1.000000e+00  0.000000e+00
   outer loop
     vertex  1.000000e+00  5.000000e-01  0.000000e+00
     vertex -4.000000e+00  5.000000e-01  1.500000e+00
     vertex -8.000000e+00  5.000000e-01  0.000000e+00
   endloop
 endfacet
 facet normal -0.000000e+00 -1.000000e+00 -0.000000e+00
   outer loop
     vertex  1.000000e+00  5.000000e-01  1.500000e+00
     vertex -4.000000e+00  5.000000e-01  1.500000e+00
     vertex  1.000000e+00  5.000000e-01  0.000000e+00
   endloop
 endfacet
 facet normal  0.000000e+00  0.000000e+00  1.000000e+00
   outer loop
     vertex -4.000000e+00  1.500000e+00  2.500000e+00
     vertex -8.000000e+00  1.500000e+00  2.500000e+00
     vertex -8.000000e+00  5.000000e-01  2.500000e+00
   endloop
 endfacet
 facet normal  0.000000e+00  0.000000e+00  1.000000e+00
   outer loop
     vertex -4.000000e+00  1.500000e+00  2.500000e+00
     vertex -8.000000e+00  5.000000e-01  2.500000e+00
     vertex -4.000000e+00  5.000000e-01  2.500000e+00
   endloop
 endfacet
 facet normal  0.000000e+00  1.000000e+00  0.000000e+00
   outer loop
     vertex -4.000000e+00  1.500000e+00  1.500000e+00
     vertex -8.000000e+00  1.500000e+00  0.000000e+00
     vertex -8.000000e+00  1.500000e+00  2.500000e+00
   endloop
 endfacet
 facet normal  0.000000e+00  1.000000e+00  0.000000e+00
   outer loop
     vertex -4.000000e+00  1.500000e+00  2.500000e+00
     vertex -4.000000e+00  1.500000e+00  1.500000e+00
     vertex -8.000000e+00  1.500000e+00  2.500000e+00
   endloop
 endfacet
 facet normal  0.000000e+00  1.000000e+00  0.000000e+00
   outer loop
     vertex  1.000000e+00  1.500000e+00  0.000000e+00
     vertex -8.000000e+00  1.500000e+00  0.000000e+00
     vertex -4.000000e+00  1.500000e+00  1.500000e+00
   endloop
 endfacet
 facet normal  0.000000e+00  1.000000e+00  0.000000e+00
   outer loop
     vertex  1.000000e+00  1.500000e+00  1.500000e+00
     vertex  1.000000e+00  1.500000e+00  0.000000e+00
     vertex -4.000000e+00  1.500000e+00  1.500000e+00
   endloop
 endfacet
 facet normal -0.000000e+00  0.000000e+00 -1.000000e+00
   outer loop
     vertex  1.000000e+00  1.500000e+00  0.000000e+00
     vertex -8.000000e+00  5.000000e-01  0.000000e+00
     vertex -8.000000e+00  1.500000e+00  0.000000e+00
   endloop
 endfacet
 facet normal  0.000000e+00 -0.000000e+00 -1.000000e+00
   outer loop
     vertex  1.000000e+00  1.500000e+00  0.000000e+00
     vertex  1.000000e+00  5.000000e-01  0.000000e+00
     vertex -8.000000e+00  5.000000e-01  0.000000e+00
   endloop
 endfacet
 facet normal  1.000000e+00  0.000000e+00  0.000000e+00
   outer loop
     vertex  1.000000e+00  5.000000e-01  1.500000e+00
     vertex  1.000000e+00  5.000000e-01  0.000000e+00
     vertex  1.000000e+00  1.500000e+00  0.000000e+00
   endloop
 endfacet
 facet normal  1.000000e+00 -0.000000e+00  0.000000e+00
   outer loop
     vertex  1.000000e+00  5.000000e-01  1.500000e+00
     vertex  1.000000e+00  1.500000e+00  0.000000e+00
     vertex  1.000000e+00  1.500000e+00  1.500000e+00
   endloop
 endfacet
 facet normal  0.000000e+00 -1.000000e+00 -0.000000e+00
   outer loop
     vertex  1.000000e+00  5.000000e-01  2.500000e+00
     vertex -4.000000e+00  5.000000e-01  1.500000e+00
     vertex  1.000000e+00  5.000000e-01  1.500000e+00
   endloop
 endfacet
 facet normal -0.000000e+00 -1.000000e+00  0.000000e+00
   outer loop
     vertex  1.000000e+00  5.000000e-01  2.500000e+00
     vertex -4.000000e+00  5.000000e-01  2.500000e+00
     vertex -4.000000e+00  5.000000e-01  1.500000e+00
   endloop
 endfacet
 facet normal -1.000000e+00  0.000000e+00  0.000000e+00
   outer loop
     vertex -4.000000e+00  5.000000e-01  4.000000e+00
     vertex -4.000000e+00  1.500000e+00  2.500000e+00
     vertex -4.000000e+00  5.000000e-01  2.500000e+00
   endloop
 endfacet
 facet normal -1.000000e+00  0.000000e+00  0.000000e+00
   outer loop
     vertex -4.000000e+00  5.000000e-01  4.000000e+00
     vertex -4.000000e+00  1.500000e+00  4.000000e+00
     vertex -4.000000e+00  1.500000e+00  2.500000e+00
   endloop
 endfacet
 facet normal  0.000000e+00  1.000000e+00  0.000000e+00
   outer loop
     vertex  1.000000e+00  1.500000e+00  2.500000e+00
     vertex  1.000000e+00  1.500000e+00  1.500000e+00
     vertex -4.000000e+00  1.500000e+00  1.500000e+00
   endloop
 endfacet
 facet normal  0.000000e+00  1.000000e+00  0.000000e+00
   outer loop
     vertex  1.000000e+00  1.500000e+00  2.500000e+00
     vertex -4.000000e+00  1.500000e+00  1.500000e+00
     vertex -4.000000e+00  1.500000e+00  2.500000e+00
   endloop
 endfacet
 facet normal -0.000000e+00  0.000000e+00 -1.000000e+00
   outer loop
     vertex  5.000000e+00  1.500000e+00  1.500000e+00
     vertex  1.000000e+00  5.000000e-01  1.500000e+00
     vertex  1.000000e+00  1.500000e+00  1.500000e+00
   endloop
 endfacet
 facet normal  0.000000e+00 -0.000000e+00 -1.000000e+00
   outer loop
     vertex  5.000000e+00  1.500000e+00  1.500000e+00
     vertex  5.000000e+00  5.000000e-01  1.500000e+00
     vertex  1.000000e+00  5.000000e-01  1.500000e+00
   endloop
 endfacet
 facet normal -0.000000e+00 -1.000000e+00  0.000000e+00
   outer loop
     vertex  0.000000e+00  5.000000e-01  4.000000e+00
     vertex -4.000000e+00  5.000000e-01  4.000000e+00
     vertex -4.000000e+00  5.000000e-01  2.500000e+00
   endloop
 endfacet
 facet normal -0.000000e+00 -1.000000e+00 -0.000000e+00
   outer loop
     vertex  1.000000e+00  5.000000e-01  4.000000e+00
     vertex  0.000000e+00  5.000000e-01  4.000000e+00
     vertex  1.000000e+00  5.000000e-01  2.500000e+00
   endloop
 endfacet
 facet normal  0.000000e+00 -1.000000e+00 -0.000000e+00
   outer loop
     vertex  5.000000e+00  5.000000e-01  2.000000e+00
     vertex  1.000000e+00  5.000000e-01  1.500000e+00
     vertex  5.000000e+00  5.000000e-01  1.500000e+00
   endloop
 endfacet
 facet normal -0.000000e+00 -1.000000e+00  0.000000e+00
   outer loop
     vertex  5.000000e+00  5.000000e-01  2.000000e+00
     vertex  1.000000e+00  5.000000e-01  2.500000e+00
     vertex  1.000000e+00  5.000000e-01  1.500000e+00
   endloop
 endfacet
 facet normal  0.000000e+00 -1.000000e+00 -0.000000e+00
   outer loop
     vertex  5.000000e+00  5.000000e-01  3.500000e+00
     vertex  1.000000e+00  5.000000e-01  2.500000e+00
     vertex  5.000000e+00  5.000000e-01  2.000000e+00
   endloop
 endfacet
 facet normal -0.000000e+00 -1.000000e+00  0.000000e+00
   outer loop
     vertex  5.000000e+00  5.000000e-01  3.500000e+00
     vertex  1.000000e+00  5.000000e-01  4.000000e+00
     vertex  1.000000e+00  5.000000e-01  2.500000e+00
   endloop
 endfacet
 facet normal -0.000000e+00 -1.000000e+00 -0.000000e+00
   outer loop
     vertex  5.000000e+00  5.000000e-01  4.000000e+00
     vertex  1.000000e+00  5.000000e-01  4.000000e+00
     vertex  5.000000e+00  5.000000e-01  3.500000e+00
   endloop
 endfacet
 facet normal  0.000000e+00 -1.000000e+00  0.000000e+00
   outer loop
     vertex  1.000000e+00  5.000000e-01  2.500000e+00
     vertex  0.000000e+00  5.000000e-01  4.000000e+00
     vertex -4.000000e+00  5.000000e-01  2.500000e+00
   endloop
 endfacet
 facet normal -0.000000e+00  0.000000e+00 -1.000000e+00
   outer loop
     vertex -4.000000e+00  1.500000e+00  4.000000e+00
     vertex -7.000000e+00  5.000000e-01  4.000000e+00
     vertex -7.000000e+00  1.500000e+00  4.000000e+00
   endloop
 endfacet
 facet normal  0.000000e+00 -0.000000e+00 -1.000000e+00
   outer loop
     vertex -4.000000e+00  1.500000e+00  4.000000e+00
     vertex -4.000000e+00  5.000000e-01  4.000000e+00
     vertex -7.000000e+00  5.000000e-01  4.000000e+00
   endloop
 endfacet
 facet normal  0.000000e+00  1.000000e+00  0.000000e+00
   outer loop
     vertex  0.000000e+00  1.500000e+00  4.000000e+00
     vertex -4.000000e+00  1.500000e+00  2.500000e+00
     vertex -4.000000e+00  1.500000e+00  4.000000e+00
   endloop
 endfacet
 facet normal  0.000000e+00  1.000000e+00  0.000000e+00
   outer loop
     vertex  1.000000e+00  1.500000e+00  4.000000e+00
     vertex  1.000000e+00  1.500000e+00  2.500000e+00
     vertex  0.000000e+00  1.500000e+00  4.000000e+00
   endloop
 endfacet
 facet normal  0.000000e+00  1.000000e+00  0.000000e+00
   outer loop
     vertex  5.000000e+00  1.500000e+00  2.000000e+00
     vertex  5.000000e+00  1.500000e+00  1.500000e+00
     vertex  1.000000e+00  1.500000e+00  1.500000e+00
   endloop
 endfacet
 facet normal  0.000000e+00  1.000000e+00  0.000000e+00
   outer loop
     vertex  5.000000e+00  1.500000e+00  2.000000e+00
     vertex  1.000000e+00  1.500000e+00  1.500000e+00
     vertex  1.000000e+00  1.500000e+00  2.500000e+00
   endloop
 endfacet
 facet normal  0.000000e+00  1.000000e+00  0.000000e+00
   outer loop
     vertex  5.000000e+00  1.500000e+00  3.500000e+00
     vertex  5.000000e+00  1.500000e+00  2.000000e+00
     vertex  1.000000e+00  1.500000e+00  2.500000e+00
   endloop
 endfacet
 facet normal  0.000000e+00  1.000000e+00  0.000000e+00
   outer loop
     vertex  5.000000e+00  1.500000e+00  3.500000e+00
     vertex  1.000000e+00  1.500000e+00  2.500000e+00
     vertex  1.000000e+00  1.500000e+00  4.000000e+00
   endloop
 endfacet
 facet normal  0.000000e+00  1.000000e+00  0.000000e+00
   outer loop
     vertex  5.000000e+00  1.500000e+00  4.000000e+00
     vertex  5.000000e+00  1.500000e+00  3.500000e+00
     vertex  1.000000e+00  1.500000e+00  4.000000e+00
   endloop
 endfacet
 facet normal  0.000000e+00  1.000000e+00  0.000000e+00
   outer loop
     vertex  1.000000e+00  1.500000e+00  2.500000e+00
     vertex -4.000000e+00  1.500000e+00  2.500000e+00
     vertex  0.000000e+00  1.500000e+00  4.000000e+00
   endloop
 endfacet
 facet normal  1.000000e+00  0.000000e+00  0.000000e+00
   outer loop
     vertex  5.000000e+00  5.000000e-01  2.000000e+00
     vertex  5.000000e+00  5.000000e-01  1.500000e+00
     vertex  5.000000e+00  1.500000e+00  1.500000e+00
   endloop
 endfacet
 facet normal  1.000000e+00 -0.000000e+00  0.000000e+00
   outer loop
     vertex  5.000000e+00  5.000000e-01  2.000000e+00
     vertex  5.000000e+00  1.500000e+00  1.500000e+00
     vertex  5.000000e+00  1.500000e+00  2.000000e+00
   endloop
 endfacet
 facet normal  0.000000e+00 -1.000000e+00 -0.000000e+00
   outer loop
     vertex  8.000000e+00  5.000000e-01  3.500000e+00
     vertex  5.000000e+00  5.000000e-01  2.000000e+00
     vertex  8.000000e+00  5.000000e-01  2.000000e+00
   endloop
 endfacet
 facet normal -0.000000e+00 -1.000000e+00  0.000000e+00
   outer loop
     vertex  8.000000e+00  5.000000e-01  3.500000e+00
     vertex  5.000000e+00  5.000000e-01  3.500000e+00
     vertex  5.000000e+00  5.000000e-01  2.000000e+00
   endloop
 endfacet
 facet normal  1.000000e+00  0.000000e+00  0.000000e+00
   outer loop
     vertex  5.000000e+00  5.000000e-01  4.000000e+00
     vertex  5.000000e+00  5.000000e-01  3.500000e+00
     vertex  5.000000e+00  1.500000e+00  3.500000e+00
   endloop
 endfacet
 facet normal  1.000000e+00 -0.000000e+00  0.000000e+00
   outer loop
     vertex  5.000000e+00  5.000000e-01  4.000000e+00
     vertex  5.000000e+00  1.500000e+00  3.500000e+00
     vertex  5.000000e+00  1.500000e+00  4.000000e+00
   endloop
 endfacet
 facet normal  0.000000e+00 -1.000000e+00 -0.000000e+00
   outer loop
     vertex  5.000000e+00  5.000000e-01  5.500000e+00
     vertex  1.000000e+00  5.000000e-01  4.000000e+00
     vertex  5.000000e+00  5.000000e-01  4.000000e+00
   endloop
 endfacet
 facet normal -0.000000e+00 -1.000000e+00  0.000000e+00
   outer loop
     vertex  5.000000e+00  5.000000e-01  5.500000e+00
     vertex  1.000000e+00  5.000000e-01  5.500000e+00
     vertex  1.000000e+00  5.000000e-01  4.000000e+00
   endloop
 endfacet
 facet normal  0.000000e+00  0.000000e+00  1.000000e+00
   outer loop
     vertex  1.000000e+00  1.500000e+00  4.000000e+00
     vertex  0.000000e+00  1.500000e+00  4.000000e+00
     vertex  0.000000e+00  5.000000e-01  4.000000e+00
   endloop
 endfacet
 facet normal  0.000000e+00  0.000000e+00  1.000000e+00
   outer loop
     vertex  1.000000e+00  1.500000e+00  4.000000e+00
     vertex  0.000000e+00  5.000000e-01  4.000000e+00
     vertex  1.000000e+00  5.000000e-01  4.000000e+00
   endloop
 endfacet
 facet normal  0.000000e+00 -1.000000e+00  0.000000e+00
   outer loop
     vertex -4.000000e+00  5.000000e-01  4.000000e+00
     vertex -7.000000e+00  5.000000e-01  6.500000e+00
     vertex -7.000000e+00  5.000000e-01  4.000000e+00
   endloop
 endfacet
 facet normal  0.000000e+00 -1.000000e+00 -0.000000e+00
   outer loop
     vertex  0.000000e+00  5.000000e-01  6.500000e+00
     vertex -4.000000e+00  5.000000e-01  4.000000e+00
     vertex  0.000000e+00  5.000000e-01  4.000000e+00
   endloop
 endfacet
 facet normal -0.000000e+00 -1.000000e+00  0.000000e+00
   outer loop
     vertex  0.000000e+00  5.000000e-01  6.500000e+00
     vertex -7.000000e+00  5.000000e-01  6.500000e+00
     vertex -4.000000e+00  5.000000e-01  4.000000e+00
   endloop
 endfacet
 facet normal -1.000000e+00  0.000000e+00  0.000000e+00
   outer loop
     vertex -7.000000e+00  5.000000e-01  6.500000e+00
     vertex -7.000000e+00  1.500000e+00  4.000000e+00
     vertex -7.000000e+00  5.000000e-01  4.000000e+00
   endloop
 endfacet
 facet normal -1.000000e+00  0.000000e+00  0.000000e+00
   outer loop
     vertex -7.000000e+00  5.000000e-01  6.500000e+00
     vertex -7.000000e+00  1.500000e+00  6.500000e+00
     vertex -7.000000e+00  1.500000e+00  4.000000e+00
   endloop
 endfacet
 facet normal  0.000000e+00  1.000000e+00  0.000000e+00
   outer loop
     vertex -4.000000e+00  1.500000e+00  4.000000e+00
     vertex -7.000000e+00  1.500000e+00  4.000000e+00
     vertex -7.000000e+00  1.500000e+00  6.500000e+00
   endloop
 endfacet
 facet normal  0.000000e+00  1.000000e+00  0.000000e+00
   outer loop
     vertex  0.000000e+00  1.500000e+00  6.500000e+00
     vertex  0.000000e+00  1.500000e+00  4.000000e+00
     vertex -4.000000e+00  1.500000e+00  4.000000e+00
   endloop
 endfacet
 facet normal  0.000000e+00  1.000000e+00  0.000000e+00
   outer loop
     vertex  0.000000e+00  1.500000e+00  6.500000e+00
     vertex -4.000000e+00  1.500000e+00  4.000000e+00
     vertex -7.000000e+00  1.500000e+00  6.500000e+00
   endloop
 endfacet
 facet normal  0.000000e+00  1.000000e+00  0.000000e+00
   outer loop
     vertex  8.000000e+00  1.500000e+00  3.500000e+00
     vertex  8.000000e+00  1.500000e+00  2.000000e+00
     vertex  5.000000e+00  1.500000e+00  2.000000e+00
   endloop
 endfacet
 facet normal  0.000000e+00  1.000000e+00  0.000000e+00
   outer loop
     vertex  8.000000e+00  1.500000e+00  3.500000e+00
     vertex  5.000000e+00  1.500000e+00  2.000000e+00
     vertex  5.000000e+00  1.500000e+00  3.500000e+00
   endloop
 endfacet
 facet normal  0.000000e+00  1.000000e+00  0.000000e+00
   outer loop
     vertex  5.000000e+00  1.500000e+00  5.500000e+00
     vertex  5.000000e+00  1.500000e+00  4.000000e+00
     vertex  1.000000e+00  1.500000e+00  4.000000e+00
   endloop
 endfacet
 facet normal  0.000000e+00  1.000000e+00  0.000000e+00
   outer loop
     vertex  5.000000e+00  1.500000e+00  5.500000e+00
     vertex  1.000000e+00  1.500000e+00  4.000000e+00
     vertex  1.000000e+00  1.500000e+00  5.500000e+00
   endloop
 endfacet
 facet normal -0.000000e+00  0.000000e+00 -1.000000e+00
   outer loop
     vertex  8.000000e+00  1.500000e+00  2.000000e+00
     vertex  5.000000e+00  5.000000e-01  2.000000e+00
     vertex  5.000000e+00  1.500000e+00  2.000000e+00
   endloop
 endfacet
 facet normal  0.000000e+00 -0.000000e+00 -1.000000e+00
   outer loop
     vertex  8.000000e+00  1.500000e+00  2.000000e+00
     vertex  8.000000e+00  5.000000e-01  2.000000e+00
     vertex  5.000000e+00  5.000000e-01  2.000000e+00
   endloop
 endfacet
 facet normal  1.000000e+00  0.000000e+00  0.000000e+00
   outer loop
     vertex  8.000000e+00  5.000000e-01  3.500000e+00
     vertex  8.000000e+00  5.000000e-01  2.000000e+00
     vertex  8.000000e+00  1.500000e+00  2.000000e+00
   endloop
 endfacet
 facet normal  1.000000e+00 -0.000000e+00  0.000000e+00
   outer loop
     vertex  8.000000e+00  5.000000e-01  3.500000e+00
     vertex  8.000000e+00  1.500000e+00  2.000000e+00
     vertex  8.000000e+00  1.500000e+00  3.500000e+00
   endloop
 endfacet
 facet normal  0.000000e+00  0.000000e+00  1.000000e+00
   outer loop
     vertex  8.000000e+00  1.500000e+00  3.500000e+00
     vertex  5.000000e+00  1.500000e+00  3.500000e+00
     vertex  5.000000e+00  5.000000e-01  3.500000e+00
   endloop
 endfacet
 facet normal  0.000000e+00  0.000000e+00  1.000000e+00
   outer loop
     vertex  8.000000e+00  1.500000e+00  3.500000e+00
     vertex  5.000000e+00  5.000000e-01  3.500000e+00
     vertex  8.000000e+00  5.000000e-01  3.500000e+00
   endloop
 endfacet
 facet normal  1.000000e+00  0.000000e+00  0.000000e+00
   outer loop
     vertex  5.000000e+00  5.000000e-01  5.500000e+00
     vertex  5.000000e+00  5.000000e-01  4.000000e+00
     vertex  5.000000e+00  1.500000e+00  4.000000e+00
   endloop
 endfacet
 facet normal  1.000000e+00 -0.000000e+00  0.000000e+00
   outer loop
     vertex  5.000000e+00  5.000000e-01  5.500000e+00
     vertex  5.000000e+00  1.500000e+00  4.000000e+00
     vertex  5.000000e+00  1.500000e+00  5.500000e+00
   endloop
 endfacet
 facet normal  0.000000e+00  0.000000e+00  1.000000e+00
   outer loop
     vertex  5.000000e+00  1.500000e+00  5.500000e+00
     vertex  1.000000e+00  1.500000e+00  5.500000e+00
     vertex  1.000000e+00  5.000000e-01  5.500000e+00
   endloop
 endfacet
 facet normal  0.000000e+00  0.000000e+00  1.000000e+00
   outer loop
     vertex  5.000000e+00  1.500000e+00  5.500000e+00
     vertex  1.000000e+00  5.000000e-01  5.500000e+00
     vertex  5.000000e+00  5.000000e-01  5.500000e+00
   endloop
 endfacet
 facet normal -1.000000e+00  0.000000e+00  0.000000e+00
   outer loop
     vertex  1.000000e+00  5.000000e-01  5.500000e+00
     vertex  1.000000e+00  1.500000e+00  4.000000e+00
     vertex  1.000000e+00  5.000000e-01  4.000000e+00
   endloop
 endfacet
 facet normal -1.000000e+00  0.000000e+00  0.000000e+00
   outer loop
     vertex  1.000000e+00  5.000000e-01  5.500000e+00
     vertex  1.000000e+00  1.500000e+00  5.500000e+00
     vertex  1.000000e+00  1.500000e+00  4.000000e+00
   endloop
 endfacet
 facet normal  1.000000e+00  0.000000e+00  0.000000e+00
   outer loop
     vertex  0.000000e+00  5.000000e-01  6.500000e+00
     vertex  0.000000e+00  5.000000e-01  4.000000e+00
     vertex  0.000000e+00  1.500000e+00  4.000000e+00
   endloop
 endfacet
 facet normal  1.000000e+00 -0.000000e+00  0.000000e+00
   outer loop
     vertex  0.000000e+00  5.000000e-01  6.500000e+00
     vertex  0.000000e+00  1.500000e+00  4.000000e+00
     vertex  0.000000e+00  1.500000e+00  6.500000e+00
   endloop
 endfacet
 facet normal  0.000000e+00  0.000000e+00  1.000000e+00
   outer loop
     vertex  0.000000e+00  1.500000e+00  6.500000e+00
     vertex -7.000000e+00  1.500000e+00  6.500000e+00
     vertex -7.000000e+00  5.000000e-01  6.500000e+00
   endloop
 endfacet
 facet normal  0.000000e+00  0.000000e+00  1.000000e+00
   outer loop
     vertex  0.000000e+00  1.500000e+00  6.500000e+00
     vertex -7.000000e+00  5.000000e-01  6.500000e+00
     vertex  0.000000e+00  5.000000e-01  6.500000e+00
   endloop
 endfacet
 facet normal -1.000000e+00  0.000000e+00  0.000000e+00
   outer loop
     vertex  5.000000e+00  5.000000e-01  1.500000e+00
     vertex  5.000000e+00  1.500000e+00  0.000000e+00
     vertex  5.000000e+00  5.000000e-01  0.000000e+00
   endloop
 endfacet
 facet normal -1.000000e+00  0.000000e+00  0.000000e+00
   outer loop
     vertex  5.000000e+00  5.000000e-01  1.500000e+00
     vertex  5.000000e+00  1.500000e+00  1.500000e+00
     vertex  5.000000e+00  1.500000e+00  0.000000e+00
   endloop
 endfacet
 facet normal  0.000000e+00 -1.000000e+00 -0.000000e+00
   outer loop
     vertex  8.000000e+00  5.000000e-01  1.500000e+00
     vertex  5.000000e+00  5.000000e-01  0.000000e+00
     vertex  8.000000e+00  5.000000e-01  0.000000e+00
   endloop
 endfacet
 facet normal -0.000000e+00 -1.000000e+00  0.000000e+00
   outer loop
     vertex  8.000000e+00  5.000000e-01  1.500000e+00
     vertex  5.000000e+00  5.000000e-01  1.500000e+00
     vertex  5.000000e+00  5.000000e-01  0.000000e+00
   endloop
 endfacet
 facet normal  0.000000e+00  0.000000e+00  1.000000e+00
   outer loop
     vertex  8.000000e+00  1.500000e+00  1.500000e+00
     vertex  5.000000e+00  1.500000e+00  1.500000e+00
     vertex  5.000000e+00  5.000000e-01  1.500000e+00
   endloop
 endfacet
 facet normal  0.000000e+00  0.000000e+00  1.000000e+00
   outer loop
     vertex  8.000000e+00  1.500000e+00  1.500000e+00
     vertex  5.000000e+00  5.000000e-01  1.500000e+00
     vertex  8.000000e+00  5.000000e-01  1.500000e+00
   endloop
 endfacet
 facet normal  0.000000e+00  1.000000e+00  0.000000e+00
   outer loop
     vertex  8.000000e+00  1.500000e+00  1.500000e+00
     vertex  8.000000e+00  1.500000e+00  0.000000e+00
     vertex  5.000000e+00  1.500000e+00  0.000000e+00
   endloop
 endfacet
 facet normal  0.000000e+00  1.000000e+00  0.000000e+00
   outer loop
     vertex  8.000000e+00  1.500000e+00  1.500000e+00
     vertex  5.000000e+00  1.500000e+00  0.000000e+00
     vertex  5.000000e+00  1.500000e+00  1.500000e+00
   endloop
 endfacet
 facet normal -0.000000e+00  0.000000e+00 -1.000000e+00
   outer loop
     vertex  8.000000e+00  1.500000e+00  0.000000e+00
     vertex  5.000000e+00  5.000000e-01  0.000000e+00
     vertex  5.000000e+00  1.500000e+00  0.000000e+00
   endloop
 endfacet
 facet normal  0.000000e+00 -0.000000e+00 -1.000000e+00
   outer loop
     vertex  8.000000e+00  1.500000e+00  0.000000e+00
     vertex  8.000000e+00  5.000000e-01  0.000000e+00
     vertex  5.000000e+00  5.000000e-01  0.000000e+00
   endloop
 endfacet
 facet normal  1.000000e+00  0.000000e+00  0.000000e+00
   outer loop
     vertex  8.000000e+00  5.000000e-01  1.500000e+00
     vertex  8.000000e+00  5.000000e-01  0.000000e+00
     vertex  8.000000e+00  1.500000e+00  0.000000e+00
   endloop
 endfacet
 facet normal  1.000000e+00 -0.000000e+00  0.000000e+00
   outer loop
     vertex  8.000000e+00  5.000000e-01  1.500000e+00
     vertex  8.000000e+00  1.500000e+00  0.000000e+00
     vertex  8.000000e+00  1.500000e+00  1.500000e+00
   endloop
 endfacet
endsolid
