solid 
 facet normal  0.000000e+00 -1.000000e+00 -0.000000e+00
   outer loop
     vertex  5.000000e-01 -4.000000e+00  2.500000e+00
     vertex -5.000000e-01 -4.000000e+00 -2.500000e+00
     vertex  5.000000e-01 -4.000000e+00 -2.500000e+00
   endloop
 endfacet
 facet normal -0.000000e+00 -1.000000e+00  0.000000e+00
   outer loop
     vertex  5.000000e-01 -4.000000e+00  2.500000e+00
     vertex -5.000000e-01 -4.000000e+00  2.500000e+00
     vertex -5.000000e-01 -4.000000e+00 -2.500000e+00
   endloop
 endfacet
 facet normal  0.000000e+00  1.000000e+00  0.000000e+00
   outer loop
     vertex  5.000000e-01  0.000000e+00  2.500000e+00
     vertex  5.000000e-01  0.000000e+00 -2.500000e+00
     vertex -5.000000e-01  0.000000e+00 -2.500000e+00
   endloop
 endfacet
 facet normal  0.000000e+00  1.000000e+00  0.000000e+00
   outer loop
     vertex  5.000000e-01  0.000000e+00  2.500000e+00
     vertex -5.000000e-01  0.000000e+00 -2.500000e+00
     vertex -5.000000e-01  0.000000e+00  2.500000e+00
   endloop
 endfacet
 facet normal  1.000000e+00  0.000000e+00  0.000000e+00
   outer loop
     vertex  5.000000e-01  0.000000e+00  2.500000e+00
     vertex  5.000000e-01 -4.000000e+00 -2.500000e+00
     vertex  5.000000e-01  0.000000e+00 -2.500000e+00
   endloop
 endfacet
 facet normal  1.000000e+00  0.000000e+00  0.000000e+00
   outer loop
     vertex  5.000000e-01  0.000000e+00  2.500000e+00
     vertex  5.000000e-01 -4.000000e+00  2.500000e+00
     vertex  5.000000e-01 -4.000000e+00 -2.500000e+00
   endloop
 endfacet
 facet normal -1.000000e+00  0.000000e+00 -0.000000e+00
   outer loop
     vertex -5.000000e-01  0.000000e+00  2.500000e+00
     vertex -5.000000e-01  0.000000e+00 -2.500000e+00
     vertex -5.000000e-01 -4.000000e+00 -2.500000e+00
   endloop
 endfacet
 facet normal -1.000000e+00 -0.000000e+00  0.000000e+00
   outer loop
     vertex -5.000000e-01  0.000000e+00  2.500000e+00
     vertex -5.000000e-01 -4.000000e+00 -2.500000e+00
     vertex -5.000000e-01 -4.000000e+00  2.500000e+00
   endloop
 endfacet
 facet normal  0.000000e+00  0.000000e+00 -1.000000e+00
   outer loop
     vertex -5.000000e-01  0.000000e+00 -2.500000e+00
     vertex  5.000000e-01 -4.000000e+00 -2.500000e+00
     vertex -5.000000e-01 -4.000000e+00 -2.500000e+00
   endloop
 endfacet
 facet normal  0.000000e+00  0.000000e+00 -1.000000e+00
   outer loop
     vertex -5.000000e-01  0.000000e+00 -2.500000e+00
     vertex  5.000000e-01  0.000000e+00 -2.500000e+00
     vertex  5.000000e-01 -4.000000e+00 -2.500000e+00
   endloop
 endfacet
 facet normal  0.000000e+00  0.000000e+00  1.000000e+00
   outer loop
     vertex -5.000000e-01  0.000000e+00  2.500000e+00
     vertex -5.000000e-01 -4.000000e+00  2.500000e+00
     vertex  5.000000e-01 -4.000000e+00  2.500000e+00
   endloop
 endfacet
 facet normal -0.000000e+00  0.000000e+00  1.000000e+00
   outer loop
     vertex -5.000000e-01  0.000000e+00  2.500000e+00
     vertex  5.000000e-01 -4.000000e+00  2.500000e+00
     vertex  5.000000e-01  0.000000e+00  2.500000e+00
   endloop
 endfacet
 facet normal -1.000000e+00  0.000000e+00  0.000000e+00
   outer loop
     vertex -5.000000e-01 -6.000000e+00  2.500000e+00
     vertex -5.000000e-01 -5.000000e+00 -2.500000e+00
     vertex -5.000000e-01 -6.000000e+00 -2.500000e+00
   endloop
 endfacet
 facet normal -1.000000e+00  0.000000e+00  0.000000e+00
   outer loop
     vertex -5.000000e-01 -6.000000e+00  2.500000e+00
     vertex -5.000000e-01 -5.000000e+00  2.500000e+00
     vertex -5.000000e-01 -5.000000e+00 -2.500000e+00
   endloop
 endfacet
 facet normal -1.000000e+00  0.000000e+00 -0.000000e+00
   outer loop
     vertex -5.000000e-01 -6.000000e+00  2.500000e+00
     vertex -5.000000e-01 -6.000000e+00 -2.500000e+00
     vertex -5.000000e-01 -1.600000e+01 -2.500000e+00
   endloop
 endfacet
 facet normal -1.000000e+00 -0.000000e+00  0.000000e+00
   outer loop
     vertex -5.000000e-01 -6.000000e+00  2.500000e+00
     vertex -5.000000e-01 -1.600000e+01 -2.500000e+00
     vertex -5.000000e-01 -1.600000e+01  2.500000e+00
   endloop
 endfacet
 facet normal  0.000000e+00  0.000000e+00  1.000000e+00
   outer loop
     vertex  5.000000e-01 -6.000000e+00  2.500000e+00
     vertex -5.000000e-01 -5.000000e+00  2.500000e+00
     vertex -5.000000e-01 -6.000000e+00  2.500000e+00
   endloop
 endfacet
 facet normal  0.000000e+00  0.000000e+00  1.000000e+00
   outer loop
     vertex  9.500000e+00 -5.000000e+00  2.500000e+00
     vertex  5.000000e-01 -6.000000e+00  2.500000e+00
     vertex  9.500000e+00 -6.000000e+00  2.500000e+00
   endloop
 endfacet
 facet normal  0.000000e+00  0.000000e+00  1.000000e+00
   outer loop
     vertex  9.500000e+00 -5.000000e+00  2.500000e+00
     vertex -5.000000e-01 -5.000000e+00  2.500000e+00
     vertex  5.000000e-01 -6.000000e+00  2.500000e+00
   endloop
 endfacet
 facet normal  0.000000e+00  1.000000e+00  0.000000e+00
   outer loop
     vertex  9.500000e+00 -5.000000e+00  2.500000e+00
     vertex  9.500000e+00 -5.000000e+00 -2.500000e+00
     vertex -5.000000e-01 -5.000000e+00 -2.500000e+00
   endloop
 endfacet
 facet normal  0.000000e+00  1.000000e+00  0.000000e+00
   outer loop
     vertex  9.500000e+00 -5.000000e+00  2.500000e+00
     vertex -5.000000e-01 -5.000000e+00 -2.500000e+00
     vertex -5.000000e-01 -5.000000e+00  2.500000e+00
   endloop
 endfacet
 facet normal  0.000000e+00  0.000000e+00 -1.000000e+00
   outer loop
     vertex  5.000000e-01 -6.000000e+00 -2.500000e+00
     vertex -5.000000e-01 -6.000000e+00 -2.500000e+00
     vertex -5.000000e-01 -5.000000e+00 -2.500000e+00
   endloop
 endfacet
 facet normal  0.000000e+00 -0.000000e+00 -1.000000e+00
   outer loop
     vertex  9.500000e+00 -5.000000e+00 -2.500000e+00
     vertex  9.500000e+00 -6.000000e+00 -2.500000e+00
     vertex  5.000000e-01 -6.000000e+00 -2.500000e+00
   endloop
 endfacet
 facet normal -0.000000e+00  0.000000e+00 -1.000000e+00
   outer loop
     vertex  9.500000e+00 -5.000000e+00 -2.500000e+00
     vertex  5.000000e-01 -6.000000e+00 -2.500000e+00
     vertex -5.000000e-01 -5.000000e+00 -2.500000e+00
   endloop
 endfacet
 facet normal  0.000000e+00  0.000000e+00 -1.000000e+00
   outer loop
     vertex -5.000000e-01 -6.000000e+00 -2.500000e+00
     vertex  5.000000e-01 -1.600000e+01 -2.500000e+00
     vertex -5.000000e-01 -1.600000e+01 -2.500000e+00
   endloop
 endfacet
 facet normal  0.000000e+00  0.000000e+00 -1.000000e+00
   outer loop
     vertex -5.000000e-01 -6.000000e+00 -2.500000e+00
     vertex  5.000000e-01 -6.000000e+00 -2.500000e+00
     vertex  5.000000e-01 -1.600000e+01 -2.500000e+00
   endloop
 endfacet
 facet normal  0.000000e+00  0.000000e+00  1.000000e+00
   outer loop
     vertex -5.000000e-01 -6.000000e+00  2.500000e+00
     vertex -5.000000e-01 -1.600000e+01  2.500000e+00
     vertex  5.000000e-01 -1.600000e+01  2.500000e+00
   endloop
 endfacet
 facet normal -0.000000e+00  0.000000e+00  1.000000e+00
   outer loop
     vertex -5.000000e-01 -6.000000e+00  2.500000e+00
     vertex  5.000000e-01 -1.600000e+01  2.500000e+00
     vertex  5.000000e-01 -6.000000e+00  2.500000e+00
   endloop
 endfacet
 facet normal  0.000000e+00 -1.000000e+00 -0.000000e+00
   outer loop
     vertex  5.000000e-01 -1.600000e+01  2.500000e+00
     vertex -5.000000e-01 -1.600000e+01 -2.500000e+00
     vertex  5.000000e-01 -1.600000e+01 -2.500000e+00
   endloop
 endfacet
 facet normal -0.000000e+00 -1.000000e+00  0.000000e+00
   outer loop
     vertex  5.000000e-01 -1.600000e+01  2.500000e+00
     vertex -5.000000e-01 -1.600000e+01  2.500000e+00
     vertex -5.000000e-01 -1.600000e+01 -2.500000e+00
   endloop
 endfacet
 facet normal  1.000000e+00  0.000000e+00  0.000000e+00
   outer loop
     vertex  9.500000e+00 -6.000000e+00  2.500000e+00
     vertex  9.500000e+00 -6.000000e+00 -2.500000e+00
     vertex  9.500000e+00 -5.000000e+00 -2.500000e+00
   endloop
 endfacet
 facet normal  1.000000e+00 -0.000000e+00  0.000000e+00
   outer loop
     vertex  9.500000e+00 -6.000000e+00  2.500000e+00
     vertex  9.500000e+00 -5.000000e+00 -2.500000e+00
     vertex  9.500000e+00 -5.000000e+00  2.500000e+00
   endloop
 endfacet
 facet normal  0.000000e+00 -1.000000e+00 -0.000000e+00
   outer loop
     vertex  9.500000e+00 -6.000000e+00  2.500000e+00
     vertex  5.000000e-01 -6.000000e+00 -2.500000e+00
     vertex  9.500000e+00 -6.000000e+00 -2.500000e+00
   endloop
 endfacet
 facet normal -0.000000e+00 -1.000000e+00  0.000000e+00
   outer loop
     vertex  9.500000e+00 -6.000000e+00  2.500000e+00
     vertex  5.000000e-01 -6.000000e+00  2.500000e+00
     vertex  5.000000e-01 -6.000000e+00 -2.500000e+00
   endloop
 endfacet
 facet normal  1.000000e+00  0.000000e+00  0.000000e+00
   outer loop
     vertex  5.000000e-01 -6.000000e+00  2.500000e+00
     vertex  5.000000e-01 -1.600000e+01 -2.500000e+00
     vertex  5.000000e-01 -6.000000e+00 -2.500000e+00
   endloop
 endfacet
 facet normal  1.000000e+00  0.000000e+00  0.000000e+00
   outer loop
     vertex  5.000000e-01 -6.000000e+00  2.500000e+00
     vertex  5.000000e-01 -1.600000e+01  2.500000e+00
     vertex  5.000000e-01 -1.600000e+01 -2.500000e+00
   endloop
 endfacet
endsolid
