solid 
 facet normal -2.498002e-16  0.000000e+00  1.000000e+00
   outer loop
     vertex -5.000000e-01 -6.000000e+00  5.000000e-01
     vertex -2.500000e+00 -5.000000e+00  5.000000e-01
     vertex -2.500000e+00 -6.000000e+00  5.000000e-01
   endloop
 endfacet
 facet normal -2.498002e-16  3.328007e-31  1.000000e+00
   outer loop
     vertex -5.000000e-01 -6.000000e+00  5.000000e-01
     vertex -5.000000e-01 -5.000000e+00  5.000000e-01
     vertex -2.500000e+00 -5.000000e+00  5.000000e-01
   endloop
 endfacet
 facet normal  0.000000e+00 -1.000000e+00  0.000000e+00
   outer loop
     vertex -5.000000e-01 -6.000000e+00 -2.500000e+00
     vertex -5.000000e-01 -6.000000e+00  5.000000e-01
     vertex -2.500000e+00 -6.000000e+00  5.000000e-01
   endloop
 endfacet
 facet normal  0.000000e+00 -1.000000e+00  0.000000e+00
   outer loop
     vertex -2.500000e+00 -6.000000e+00 -9.500000e+00
     vertex -5.000000e-01 -6.000000e+00 -2.500000e+00
     vertex -2.500000e+00 -6.000000e+00  5.000000e-01
   endloop
 endfacet
 facet normal  0.000000e+00 -1.000000e+00  0.000000e+00
   outer loop
     vertex  2.500000e+00 -6.000000e+00 -9.500000e+00
     vertex  5.000000e-01 -6.000000e+00 -2.500000e+00
     vertex -5.000000e-01 -6.000000e+00 -2.500000e+00
   endloop
 endfacet
 facet normal  0.000000e+00 -1.000000e+00  0.000000e+00
   outer loop
     vertex  2.500000e+00 -6.000000e+00 -9.500000e+00
     vertex  2.500000e+00 -6.000000e+00 -2.500000e+00
     vertex  5.000000e-01 -6.000000e+00 -2.500000e+00
   endloop
 endfacet
 facet normal  0.000000e+00 -1.000000e+00  0.000000e+00
   outer loop
     vertex  2.500000e+00 -6.000000e+00 -9.500000e+00
     vertex -5.000000e-01 -6.000000e+00 -2.500000e+00
     vertex -2.500000e+00 -6.000000e+00 -9.500000e+00
   endloop
 endfacet
 facet normal -1.000000e+00  1.332268e-15  3.330669e-16
   outer loop
     vertex -5.000000e-01 -6.000000e+00  2.500000e+00
     vertex -5.000000e-01 -5.000000e+00  5.000000e-01
     vertex -5.000000e-01 -6.000000e+00  5.000000e-01
   endloop
 endfacet
 facet normal -1.000000e+00  6.661338e-16  0.000000e+00
   outer loop
     vertex -5.000000e-01 -6.000000e+00  2.500000e+00
     vertex -5.000000e-01 -5.000000e+00  2.500000e+00
     vertex -5.000000e-01 -5.000000e+00  5.000000e-01
   endloop
 endfacet
 facet normal  0.000000e+00  1.000000e+00 -0.000000e+00
   outer loop
     vertex -5.000000e-01 -5.000000e+00 -2.500000e+00
     vertex -2.500000e+00 -5.000000e+00  5.000000e-01
     vertex -5.000000e-01 -5.000000e+00  5.000000e-01
   endloop
 endfacet
 facet normal  0.000000e+00  1.000000e+00 -0.000000e+00
   outer loop
     vertex -2.500000e+00 -5.000000e+00 -9.500000e+00
     vertex -2.500000e+00 -5.000000e+00  5.000000e-01
     vertex -5.000000e-01 -5.000000e+00 -2.500000e+00
   endloop
 endfacet
 facet normal  0.000000e+00  1.000000e+00  0.000000e+00
   outer loop
     vertex  2.500000e+00 -5.000000e+00 -9.500000e+00
     vertex -5.000000e-01 -5.000000e+00 -2.500000e+00
     vertex  2.500000e+00 -5.000000e+00 -2.500000e+00
   endloop
 endfacet
 facet normal  0.000000e+00  1.000000e+00  0.000000e+00
   outer loop
     vertex  2.500000e+00 -5.000000e+00 -9.500000e+00
     vertex -2.500000e+00 -5.000000e+00 -9.500000e+00
     vertex -5.000000e-01 -5.000000e+00 -2.500000e+00
   endloop
 endfacet
 facet normal -1.000000e+00  0.000000e+00 -2.220446e-16
   outer loop
     vertex -2.500000e+00 -5.000000e+00 -9.500000e+00
     vertex -2.500000e+00 -6.000000e+00  5.000000e-01
     vertex -2.500000e+00 -5.000000e+00  5.000000e-01
   endloop
 endfacet
 facet normal -1.000000e+00 -0.000000e+00 -2.220446e-16
   outer loop
     vertex -2.500000e+00 -5.000000e+00 -9.500000e+00
     vertex -2.500000e+00 -6.000000e+00 -9.500000e+00
     vertex -2.500000e+00 -6.000000e+00  5.000000e-01
   endloop
 endfacet
 facet normal  0.000000e+00  0.000000e+00 -1.000000e+00
   outer loop
     vertex  2.500000e+00 -6.000000e+00 -9.500000e+00
     vertex -2.500000e+00 -6.000000e+00 -9.500000e+00
     vertex -2.500000e+00 -5.000000e+00 -9.500000e+00
   endloop
 endfacet
 facet normal  0.000000e+00  0.000000e+00 -1.000000e+00
   outer loop
     vertex  2.500000e+00 -6.000000e+00 -9.500000e+00
     vertex -2.500000e+00 -5.000000e+00 -9.500000e+00
     vertex  2.500000e+00 -5.000000e+00 -9.500000e+00
   endloop
 endfacet
 facet normal  1.000000e+00  0.000000e+00  1.903239e-16
   outer loop
     vertex  2.500000e+00 -5.000000e+00 -9.500000e+00
     vertex  2.500000e+00 -5.000000e+00 -2.500000e+00
     vertex  2.500000e+00 -6.000000e+00 -2.500000e+00
   endloop
 endfacet
 facet normal  1.000000e+00  0.000000e+00  1.903239e-16
   outer loop
     vertex  2.500000e+00 -5.000000e+00 -9.500000e+00
     vertex  2.500000e+00 -6.000000e+00 -2.500000e+00
     vertex  2.500000e+00 -6.000000e+00 -9.500000e+00
   endloop
 endfacet
 facet normal  0.000000e+00 -1.000000e+00 -0.000000e+00
   outer loop
     vertex  2.500000e+00 -6.000000e+00  5.000000e-01
     vertex  5.000000e-01 -6.000000e+00 -2.500000e+00
     vertex  2.500000e+00 -6.000000e+00 -2.500000e+00
   endloop
 endfacet
 facet normal  0.000000e+00 -1.000000e+00  0.000000e+00
   outer loop
     vertex  2.500000e+00 -6.000000e+00  5.000000e-01
     vertex  5.000000e-01 -6.000000e+00  5.000000e-01
     vertex  5.000000e-01 -6.000000e+00 -2.500000e+00
   endloop
 endfacet
 facet normal  0.000000e+00 -0.000000e+00 -1.000000e+00
   outer loop
     vertex -5.000000e-01 -6.000000e+00 -2.500000e+00
     vertex  5.000000e-01 -1.600000e+01 -2.500000e+00
     vertex -5.000000e-01 -1.600000e+01 -2.500000e+00
   endloop
 endfacet
 facet normal  0.000000e+00  0.000000e+00 -1.000000e+00
   outer loop
     vertex -5.000000e-01 -6.000000e+00 -2.500000e+00
     vertex  5.000000e-01 -6.000000e+00 -2.500000e+00
     vertex  5.000000e-01 -1.600000e+01 -2.500000e+00
   endloop
 endfacet
 facet normal -1.000000e+00  2.886580e-16  0.000000e+00
   outer loop
     vertex -5.000000e-01 -6.000000e+00 -2.500000e+00
     vertex -5.000000e-01 -1.600000e+01 -2.500000e+00
     vertex -5.000000e-01 -1.600000e+01 -5.000000e-01
   endloop
 endfacet
 facet normal -1.000000e+00  2.220446e-16  0.000000e+00
   outer loop
     vertex -5.000000e-01 -6.000000e+00  5.000000e-01
     vertex -5.000000e-01 -1.600000e+01 -5.000000e-01
     vertex -5.000000e-01 -1.600000e+01  5.000000e-01
   endloop
 endfacet
 facet normal -1.000000e+00  2.442491e-16 -2.220446e-16
   outer loop
     vertex -5.000000e-01 -6.000000e+00  5.000000e-01
     vertex -5.000000e-01 -6.000000e+00 -2.500000e+00
     vertex -5.000000e-01 -1.600000e+01 -5.000000e-01
   endloop
 endfacet
 facet normal -1.000000e+00  2.886580e-16  0.000000e+00
   outer loop
     vertex -5.000000e-01 -6.000000e+00  2.500000e+00
     vertex -5.000000e-01 -1.600000e+01  5.000000e-01
     vertex -5.000000e-01 -1.600000e+01  2.500000e+00
   endloop
 endfacet
 facet normal -1.000000e+00  2.220446e-16  3.330669e-16
   outer loop
     vertex -5.000000e-01 -6.000000e+00  2.500000e+00
     vertex -5.000000e-01 -6.000000e+00  5.000000e-01
     vertex -5.000000e-01 -1.600000e+01  5.000000e-01
   endloop
 endfacet
 facet normal  0.000000e+00  0.000000e+00  1.000000e+00
   outer loop
     vertex -5.000000e-01 -5.000000e+00  2.500000e+00
     vertex -5.000000e-01 -6.000000e+00  2.500000e+00
     vertex  5.000000e-01 -6.000000e+00  2.500000e+00
   endloop
 endfacet
 facet normal  0.000000e+00  0.000000e+00  1.000000e+00
   outer loop
     vertex  9.500000e+00 -5.000000e+00  2.500000e+00
     vertex  5.000000e-01 -6.000000e+00  2.500000e+00
     vertex  9.500000e+00 -6.000000e+00  2.500000e+00
   endloop
 endfacet
 facet normal  0.000000e+00  0.000000e+00  1.000000e+00
   outer loop
     vertex  9.500000e+00 -5.000000e+00  2.500000e+00
     vertex -5.000000e-01 -5.000000e+00  2.500000e+00
     vertex  5.000000e-01 -6.000000e+00  2.500000e+00
   endloop
 endfacet
 facet normal  0.000000e+00  1.000000e+00  0.000000e+00
   outer loop
     vertex  2.500000e+00 -5.000000e+00  5.000000e-01
     vertex -5.000000e-01 -5.000000e+00  5.000000e-01
     vertex -5.000000e-01 -5.000000e+00  2.500000e+00
   endloop
 endfacet
 facet normal  0.000000e+00  1.000000e+00  0.000000e+00
   outer loop
     vertex  9.500000e+00 -5.000000e+00 -2.500000e+00
     vertex  2.500000e+00 -5.000000e+00 -2.500000e+00
     vertex  2.500000e+00 -5.000000e+00  5.000000e-01
   endloop
 endfacet
 facet normal  0.000000e+00  1.000000e+00  0.000000e+00
   outer loop
     vertex  9.500000e+00 -5.000000e+00  2.500000e+00
     vertex  9.500000e+00 -5.000000e+00 -2.500000e+00
     vertex  2.500000e+00 -5.000000e+00  5.000000e-01
   endloop
 endfacet
 facet normal  0.000000e+00  1.000000e+00  0.000000e+00
   outer loop
     vertex  9.500000e+00 -5.000000e+00  2.500000e+00
     vertex  2.500000e+00 -5.000000e+00  5.000000e-01
     vertex -5.000000e-01 -5.000000e+00  2.500000e+00
   endloop
 endfacet
 facet normal  0.000000e+00  1.000000e+00  0.000000e+00
   outer loop
     vertex  2.500000e+00 -5.000000e+00  5.000000e-01
     vertex  2.500000e+00 -5.000000e+00 -2.500000e+00
     vertex -5.000000e-01 -5.000000e+00 -2.500000e+00
   endloop
 endfacet
 facet normal  0.000000e+00  1.000000e+00  0.000000e+00
   outer loop
     vertex  2.500000e+00 -5.000000e+00  5.000000e-01
     vertex -5.000000e-01 -5.000000e+00 -2.500000e+00
     vertex -5.000000e-01 -5.000000e+00  5.000000e-01
   endloop
 endfacet
 facet normal -0.000000e+00  0.000000e+00 -1.000000e+00
   outer loop
     vertex  9.500000e+00 -5.000000e+00 -2.500000e+00
     vertex  2.500000e+00 -6.000000e+00 -2.500000e+00
     vertex  2.500000e+00 -5.000000e+00 -2.500000e+00
   endloop
 endfacet
 facet normal  0.000000e+00 -0.000000e+00 -1.000000e+00
   outer loop
     vertex  9.500000e+00 -5.000000e+00 -2.500000e+00
     vertex  9.500000e+00 -6.000000e+00 -2.500000e+00
     vertex  2.500000e+00 -6.000000e+00 -2.500000e+00
   endloop
 endfacet
 facet normal -0.000000e+00 -1.000000e+00  0.000000e+00
   outer loop
     vertex  2.500000e+00 -6.000000e+00  5.000000e-01
     vertex  5.000000e-01 -6.000000e+00  2.500000e+00
     vertex  5.000000e-01 -6.000000e+00  5.000000e-01
   endloop
 endfacet
 facet normal  0.000000e+00 -1.000000e+00  0.000000e+00
   outer loop
     vertex  9.500000e+00 -6.000000e+00 -2.500000e+00
     vertex  2.500000e+00 -6.000000e+00  5.000000e-01
     vertex  2.500000e+00 -6.000000e+00 -2.500000e+00
   endloop
 endfacet
 facet normal  0.000000e+00 -1.000000e+00 -0.000000e+00
   outer loop
     vertex  9.500000e+00 -6.000000e+00  2.500000e+00
     vertex  2.500000e+00 -6.000000e+00  5.000000e-01
     vertex  9.500000e+00 -6.000000e+00 -2.500000e+00
   endloop
 endfacet
 facet normal -0.000000e+00 -1.000000e+00  0.000000e+00
   outer loop
     vertex  9.500000e+00 -6.000000e+00  2.500000e+00
     vertex  5.000000e-01 -6.000000e+00  2.500000e+00
     vertex  2.500000e+00 -6.000000e+00  5.000000e-01
   endloop
 endfacet
 facet normal  1.000000e+00 -2.220446e-16  0.000000e+00
   outer loop
     vertex  5.000000e-01 -6.000000e+00 -2.500000e+00
     vertex  5.000000e-01 -1.600000e+01 -5.000000e-01
     vertex  5.000000e-01 -1.600000e+01 -2.500000e+00
   endloop
 endfacet
 facet normal  1.000000e+00 -2.220446e-16  0.000000e+00
   outer loop
     vertex  5.000000e-01 -6.000000e+00  5.000000e-01
     vertex  5.000000e-01 -1.600000e+01  5.000000e-01
     vertex  5.000000e-01 -1.600000e+01 -5.000000e-01
   endloop
 endfacet
 facet normal  1.000000e+00 -2.220446e-16  0.000000e+00
   outer loop
     vertex  5.000000e-01 -6.000000e+00  5.000000e-01
     vertex  5.000000e-01 -1.600000e+01 -5.000000e-01
     vertex  5.000000e-01 -6.000000e+00 -2.500000e+00
   endloop
 endfacet
 facet normal  1.000000e+00 -2.220446e-16  0.000000e+00
   outer loop
     vertex  5.000000e-01 -6.000000e+00  2.500000e+00
     vertex  5.000000e-01 -1.600000e+01  2.500000e+00
     vertex  5.000000e-01 -1.600000e+01  5.000000e-01
   endloop
 endfacet
 facet normal  1.000000e+00 -2.220446e-16  0.000000e+00
   outer loop
     vertex  5.000000e-01 -6.000000e+00  2.500000e+00
     vertex  5.000000e-01 -1.600000e+01  5.000000e-01
     vertex  5.000000e-01 -6.000000e+00  5.000000e-01
   endloop
 endfacet
 facet normal  0.000000e+00 -1.000000e+00 -0.000000e+00
   outer loop
     vertex  5.000000e-01 -1.600000e+01 -5.000000e-01
     vertex -5.000000e-01 -1.600000e+01 -2.500000e+00
     vertex  5.000000e-01 -1.600000e+01 -2.500000e+00
   endloop
 endfacet
 facet normal  0.000000e+00 -1.000000e+00  0.000000e+00
   outer loop
     vertex  5.000000e-01 -1.600000e+01 -5.000000e-01
     vertex -5.000000e-01 -1.600000e+01 -5.000000e-01
     vertex -5.000000e-01 -1.600000e+01 -2.500000e+00
   endloop
 endfacet
 facet normal  0.000000e+00  0.000000e+00  1.000000e+00
   outer loop
     vertex -5.000000e-01 -6.000000e+00  2.500000e+00
     vertex -5.000000e-01 -1.600000e+01  2.500000e+00
     vertex  5.000000e-01 -1.600000e+01  2.500000e+00
   endloop
 endfacet
 facet normal -0.000000e+00  0.000000e+00  1.000000e+00
   outer loop
     vertex -5.000000e-01 -6.000000e+00  2.500000e+00
     vertex  5.000000e-01 -1.600000e+01  2.500000e+00
     vertex  5.000000e-01 -6.000000e+00  2.500000e+00
   endloop
 endfacet
 facet normal  0.000000e+00  1.000000e+00  0.000000e+00
   outer loop
     vertex -5.000000e-01 -1.600000e+01 -5.000000e-01
     vertex -2.500000e+00 -1.600000e+01 -5.000000e-01
     vertex -2.500000e+00 -1.600000e+01  5.000000e-01
   endloop
 endfacet
 facet normal  0.000000e+00  1.000000e+00 -0.000000e+00
   outer loop
     vertex -5.000000e-01 -1.600000e+01 -5.000000e-01
     vertex -2.500000e+00 -1.600000e+01  5.000000e-01
     vertex -5.000000e-01 -1.600000e+01  5.000000e-01
   endloop
 endfacet
 facet normal  0.000000e+00 -1.000000e+00 -0.000000e+00
   outer loop
     vertex  5.000000e-01 -1.600000e+01  2.500000e+00
     vertex -5.000000e-01 -1.600000e+01  5.000000e-01
     vertex  5.000000e-01 -1.600000e+01  5.000000e-01
   endloop
 endfacet
 facet normal -0.000000e+00 -1.000000e+00  0.000000e+00
   outer loop
     vertex  5.000000e-01 -1.600000e+01  2.500000e+00
     vertex -5.000000e-01 -1.600000e+01  2.500000e+00
     vertex -5.000000e-01 -1.600000e+01  5.000000e-01
   endloop
 endfacet
 facet normal  1.000000e+00  0.000000e+00  0.000000e+00
   outer loop
     vertex  9.500000e+00 -6.000000e+00  2.500000e+00
     vertex  9.500000e+00 -6.000000e+00 -2.500000e+00
     vertex  9.500000e+00 -5.000000e+00 -2.500000e+00
   endloop
 endfacet
 facet normal  1.000000e+00 -0.000000e+00  0.000000e+00
   outer loop
     vertex  9.500000e+00 -6.000000e+00  2.500000e+00
     vertex  9.500000e+00 -5.000000e+00 -2.500000e+00
     vertex  9.500000e+00 -5.000000e+00  2.500000e+00
   endloop
 endfacet
 facet normal  0.000000e+00  1.000000e+00  0.000000e+00
   outer loop
     vertex  2.500000e+00 -1.600000e+01 -5.000000e-01
     vertex  5.000000e-01 -1.600000e+01 -5.000000e-01
     vertex  5.000000e-01 -1.600000e+01  5.000000e-01
   endloop
 endfacet
 facet normal  0.000000e+00  1.000000e+00 -0.000000e+00
   outer loop
     vertex  2.500000e+00 -1.600000e+01 -5.000000e-01
     vertex  5.000000e-01 -1.600000e+01  5.000000e-01
     vertex  2.500000e+00 -1.600000e+01  5.000000e-01
   endloop
 endfacet
 facet normal  2.498002e-16 -2.220446e-16 -1.000000e+00
   outer loop
     vertex -5.000000e-01 -1.600000e+01 -5.000000e-01
     vertex -2.500000e+00 -2.600000e+01 -5.000000e-01
     vertex -2.500000e+00 -1.600000e+01 -5.000000e-01
   endloop
 endfacet
 facet normal  2.220446e-16 -2.275957e-16 -1.000000e+00
   outer loop
     vertex  5.000000e-01 -1.600000e+01 -5.000000e-01
     vertex  2.500000e+00 -2.600000e+01 -5.000000e-01
     vertex -2.500000e+00 -2.600000e+01 -5.000000e-01
   endloop
 endfacet
 facet normal  1.110223e-16 -1.942890e-16 -1.000000e+00
   outer loop
     vertex  5.000000e-01 -1.600000e+01 -5.000000e-01
     vertex -2.500000e+00 -2.600000e+01 -5.000000e-01
     vertex -5.000000e-01 -1.600000e+01 -5.000000e-01
   endloop
 endfacet
 facet normal  2.498002e-16 -2.220446e-16 -1.000000e+00
   outer loop
     vertex  2.500000e+00 -1.600000e+01 -5.000000e-01
     vertex  2.500000e+00 -2.600000e+01 -5.000000e-01
     vertex  5.000000e-01 -1.600000e+01 -5.000000e-01
   endloop
 endfacet
 facet normal -2.775558e-16  2.220446e-16  1.000000e+00
   outer loop
     vertex -5.000000e-01 -1.600000e+01  5.000000e-01
     vertex -2.500000e+00 -1.600000e+01  5.000000e-01
     vertex -2.500000e+00 -2.600000e+01  5.000000e-01
   endloop
 endfacet
 facet normal -2.220446e-16  2.331468e-16  1.000000e+00
   outer loop
     vertex  5.000000e-01 -1.600000e+01  5.000000e-01
     vertex -2.500000e+00 -2.600000e+01  5.000000e-01
     vertex  2.500000e+00 -2.600000e+01  5.000000e-01
   endloop
 endfacet
 facet normal  0.000000e+00  1.665335e-16  1.000000e+00
   outer loop
     vertex  5.000000e-01 -1.600000e+01  5.000000e-01
     vertex -5.000000e-01 -1.600000e+01  5.000000e-01
     vertex -2.500000e+00 -2.600000e+01  5.000000e-01
   endloop
 endfacet
 facet normal -2.775558e-16  2.220446e-16  1.000000e+00
   outer loop
     vertex  2.500000e+00 -1.600000e+01  5.000000e-01
     vertex  5.000000e-01 -1.600000e+01  5.000000e-01
     vertex  2.500000e+00 -2.600000e+01  5.000000e-01
   endloop
 endfacet
 facet normal -1.000000e+00 -0.000000e+00  0.000000e+00
   outer loop
     vertex -2.500000e+00 -1.600000e+01  5.000000e-01
     vertex -2.500000e+00 -2.600000e+01 -5.000000e-01
     vertex -2.500000e+00 -2.600000e+01  5.000000e-01
   endloop
 endfacet
 facet normal -1.000000e+00  0.000000e+00 -0.000000e+00
   outer loop
     vertex -2.500000e+00 -1.600000e+01  5.000000e-01
     vertex -2.500000e+00 -1.600000e+01 -5.000000e-01
     vertex -2.500000e+00 -2.600000e+01 -5.000000e-01
   endloop
 endfacet
 facet normal  1.000000e+00  0.000000e+00  0.000000e+00
   outer loop
     vertex  2.500000e+00 -1.600000e+01  5.000000e-01
     vertex  2.500000e+00 -2.600000e+01  5.000000e-01
     vertex  2.500000e+00 -2.600000e+01 -5.000000e-01
   endloop
 endfacet
 facet normal  1.000000e+00  0.000000e+00  0.000000e+00
   outer loop
     vertex  2.500000e+00 -1.600000e+01  5.000000e-01
     vertex  2.500000e+00 -2.600000e+01 -5.000000e-01
     vertex  2.500000e+00 -1.600000e+01 -5.000000e-01
   endloop
 endfacet
 facet normal  2.220446e-16 -2.220446e-16 -1.000000e+00
   outer loop
     vertex  2.500000e+00 -2.600000e+01 -5.000000e-01
     vertex -2.500000e+00 -3.600000e+01 -5.000000e-01
     vertex -2.500000e+00 -2.600000e+01 -5.000000e-01
   endloop
 endfacet
 facet normal  2.220446e-16 -2.220446e-16 -1.000000e+00
   outer loop
     vertex  2.500000e+00 -2.600000e+01 -5.000000e-01
     vertex  2.500000e+00 -3.600000e+01 -5.000000e-01
     vertex -2.500000e+00 -3.600000e+01 -5.000000e-01
   endloop
 endfacet
 facet normal -2.220446e-16  2.220446e-16  1.000000e+00
   outer loop
     vertex  2.500000e+00 -2.600000e+01  5.000000e-01
     vertex -2.500000e+00 -2.600000e+01  5.000000e-01
     vertex -2.500000e+00 -3.600000e+01  5.000000e-01
   endloop
 endfacet
 facet normal -2.220446e-16  2.220446e-16  1.000000e+00
   outer loop
     vertex  2.500000e+00 -2.600000e+01  5.000000e-01
     vertex -2.500000e+00 -3.600000e+01  5.000000e-01
     vertex  2.500000e+00 -3.600000e+01  5.000000e-01
   endloop
 endfacet
 facet normal -1.000000e+00 -0.000000e+00  0.000000e+00
   outer loop
     vertex -2.500000e+00 -2.600000e+01  5.000000e-01
     vertex -2.500000e+00 -3.600000e+01 -5.000000e-01
     vertex -2.500000e+00 -3.600000e+01  5.000000e-01
   endloop
 endfacet
 facet normal -1.000000e+00  0.000000e+00 -0.000000e+00
   outer loop
     vertex -2.500000e+00 -2.600000e+01  5.000000e-01
     vertex -2.500000e+00 -2.600000e+01 -5.000000e-01
     vertex -2.500000e+00 -3.600000e+01 -5.000000e-01
   endloop
 endfacet
 facet normal  1.000000e+00  0.000000e+00  0.000000e+00
   outer loop
     vertex  2.500000e+00 -2.600000e+01  5.000000e-01
     vertex  2.500000e+00 -3.600000e+01  5.000000e-01
     vertex  2.500000e+00 -3.600000e+01 -5.000000e-01
   endloop
 endfacet
 facet normal  1.000000e+00  0.000000e+00  0.000000e+00
   outer loop
     vertex  2.500000e+00 -2.600000e+01  5.000000e-01
     vertex  2.500000e+00 -3.600000e+01 -5.000000e-01
     vertex  2.500000e+00 -2.600000e+01 -5.000000e-01
   endloop
 endfacet
 facet normal -0.000000e+00 -1.000000e+00  0.000000e+00
   outer loop
     vertex  2.500000e+00 -3.600000e+01 -5.000000e-01
     vertex -2.500000e+00 -3.600000e+01  5.000000e-01
     vertex -2.500000e+00 -3.600000e+01 -5.000000e-01
   endloop
 endfacet
 facet normal  0.000000e+00 -1.000000e+00  0.000000e+00
   outer loop
     vertex  2.500000e+00 -3.600000e+01 -5.000000e-01
     vertex  2.500000e+00 -3.600000e+01  5.000000e-01
     vertex -2.500000e+00 -3.600000e+01  5.000000e-01
   endloop
 endfacet
 facet normal -0.000000e+00 -1.000000e+00  0.000000e+00
   outer loop
     vertex  2.500000e+00 -2.600000e+01  4.500000e+00
     vertex -2.500000e+00 -2.600000e+01  5.500000e+00
     vertex -2.500000e+00 -2.600000e+01  4.500000e+00
   endloop
 endfacet
 facet normal  0.000000e+00 -1.000000e+00  0.000000e+00
   outer loop
     vertex  2.500000e+00 -2.600000e+01  4.500000e+00
     vertex  2.500000e+00 -2.600000e+01  5.500000e+00
     vertex -2.500000e+00 -2.600000e+01  5.500000e+00
   endloop
 endfacet
 facet normal  0.000000e+00  1.000000e+00  0.000000e+00
   outer loop
     vertex  2.500000e+00 -6.000000e+00  4.500000e+00
     vertex -2.500000e+00 -6.000000e+00  4.500000e+00
     vertex -2.500000e+00 -6.000000e+00  5.500000e+00
   endloop
 endfacet
 facet normal  0.000000e+00  1.000000e+00  0.000000e+00
   outer loop
     vertex  2.500000e+00 -6.000000e+00  4.500000e+00
     vertex -2.500000e+00 -6.000000e+00  5.500000e+00
     vertex  2.500000e+00 -6.000000e+00  5.500000e+00
   endloop
 endfacet
 facet normal  3.552714e-16 -1.776357e-16 -1.000000e+00
   outer loop
     vertex  2.500000e+00 -6.000000e+00  4.500000e+00
     vertex -2.500000e+00 -2.600000e+01  4.500000e+00
     vertex -2.500000e+00 -6.000000e+00  4.500000e+00
   endloop
 endfacet
 facet normal  3.552714e-16 -1.776357e-16 -1.000000e+00
   outer loop
     vertex  2.500000e+00 -6.000000e+00  4.500000e+00
     vertex  2.500000e+00 -2.600000e+01  4.500000e+00
     vertex -2.500000e+00 -2.600000e+01  4.500000e+00
   endloop
 endfacet
 facet normal -3.552714e-16  1.776357e-16  1.000000e+00
   outer loop
     vertex  2.500000e+00 -6.000000e+00  5.500000e+00
     vertex -2.500000e+00 -6.000000e+00  5.500000e+00
     vertex -2.500000e+00 -2.600000e+01  5.500000e+00
   endloop
 endfacet
 facet normal -3.552714e-16  1.776357e-16  1.000000e+00
   outer loop
     vertex  2.500000e+00 -6.000000e+00  5.500000e+00
     vertex -2.500000e+00 -2.600000e+01  5.500000e+00
     vertex  2.500000e+00 -2.600000e+01  5.500000e+00
   endloop
 endfacet
 facet normal -1.000000e+00 -7.888609e-32 -4.440892e-16
   outer loop
     vertex -2.500000e+00 -6.000000e+00  5.500000e+00
     vertex -2.500000e+00 -2.600000e+01  4.500000e+00
     vertex -2.500000e+00 -2.600000e+01  5.500000e+00
   endloop
 endfacet
 facet normal -1.000000e+00 -7.888609e-32 -4.440892e-16
   outer loop
     vertex -2.500000e+00 -6.000000e+00  5.500000e+00
     vertex -2.500000e+00 -6.000000e+00  4.500000e+00
     vertex -2.500000e+00 -2.600000e+01  4.500000e+00
   endloop
 endfacet
 facet normal  1.000000e+00  7.888609e-32  4.440892e-16
   outer loop
     vertex  2.500000e+00 -6.000000e+00  5.500000e+00
     vertex  2.500000e+00 -2.600000e+01  5.500000e+00
     vertex  2.500000e+00 -2.600000e+01  4.500000e+00
   endloop
 endfacet
 facet normal  1.000000e+00  7.888609e-32  4.440892e-16
   outer loop
     vertex  2.500000e+00 -6.000000e+00  5.500000e+00
     vertex  2.500000e+00 -2.600000e+01  4.500000e+00
     vertex  2.500000e+00 -6.000000e+00  4.500000e+00
   endloop
 endfacet
endsolid
