solid 
 facet normal -4.114324e-01  2.339784e-01 -8.808958e-01
   outer loop
     vertex  2.958638e+00  4.325091e+00 -4.773892e+00
     vertex  2.225576e+00  3.115889e+00 -4.752689e+00
     vertex  2.061997e+00  4.047728e+00 -4.428777e+00
   endloop
 endfacet
 facet normal -4.114324e-01  2.339784e-01 -8.808958e-01
   outer loop
     vertex  2.958638e+00  4.325091e+00 -4.773892e+00
     vertex  3.122217e+00  3.393252e+00 -5.097803e+00
     vertex  2.225576e+00  3.115889e+00 -4.752689e+00
   endloop
 endfacet
<<<<<<< HEAD
 facet normal -1.635790e-01  9.318388e-01  3.239111e-01
=======
<<<<<<< Updated upstream
 facet normal -1.000000e+00  0.000000e+00 -0.000000e+00
=======
 facet normal  1.000000e+00 -3.552714e-16  1.184238e-15
>>>>>>> Stashed changes
>>>>>>> main
   outer loop
     vertex  1.211625e-01  2.002359e+00  4.752648e-01
     vertex  2.061997e+00  4.047728e+00 -4.428777e+00
     vertex -1.524567e+00  2.938273e+00 -3.048319e+00
   endloop
 endfacet
 facet normal -1.635790e-01  9.318388e-01  3.239111e-01
   outer loop
     vertex  4.604368e+00  3.389177e+00 -1.250309e+00
     vertex  2.958638e+00  4.325091e+00 -4.773892e+00
     vertex  2.061997e+00  4.047728e+00 -4.428777e+00
   endloop
 endfacet
 facet normal -1.635790e-01  9.318388e-01  3.239111e-01
   outer loop
     vertex  4.604368e+00  3.389177e+00 -1.250309e+00
     vertex  2.061997e+00  4.047728e+00 -4.428777e+00
     vertex  1.211625e-01  2.002359e+00  4.752648e-01
   endloop
 endfacet
<<<<<<< HEAD
 facet normal  8.966411e-01  2.773636e-01 -3.451147e-01
=======
<<<<<<< Updated upstream
 facet normal  0.000000e+00  1.000000e+00  0.000000e+00
=======
 facet normal  1.000000e+00 -3.552714e-16 -5.075305e-16
>>>>>>> Stashed changes
>>>>>>> main
   outer loop
     vertex  4.767947e+00  2.457339e+00 -1.574220e+00
     vertex  3.122217e+00  3.393252e+00 -5.097803e+00
     vertex  2.958638e+00  4.325091e+00 -4.773892e+00
   endloop
 endfacet
 facet normal  8.966411e-01  2.773636e-01 -3.451147e-01
   outer loop
     vertex  4.767947e+00  2.457339e+00 -1.574220e+00
     vertex  2.958638e+00  4.325091e+00 -4.773892e+00
     vertex  4.604368e+00  3.389177e+00 -1.250309e+00
   endloop
 endfacet
 facet normal  1.635790e-01 -9.318388e-01 -3.239111e-01
   outer loop
     vertex  2.847415e-01  1.070521e+00  1.513537e-01
     vertex -1.360988e+00  2.006434e+00 -3.372230e+00
     vertex  2.225576e+00  3.115889e+00 -4.752689e+00
   endloop
 endfacet
 facet normal  1.635790e-01 -9.318388e-01 -3.239111e-01
   outer loop
     vertex  4.767947e+00  2.457339e+00 -1.574220e+00
     vertex  2.225576e+00  3.115889e+00 -4.752689e+00
     vertex  3.122217e+00  3.393252e+00 -5.097803e+00
   endloop
 endfacet
 facet normal  1.635790e-01 -9.318388e-01 -3.239111e-01
   outer loop
     vertex  4.767947e+00  2.457339e+00 -1.574220e+00
     vertex  2.847415e-01  1.070521e+00  1.513537e-01
     vertex  2.225576e+00  3.115889e+00 -4.752689e+00
   endloop
 endfacet
 facet normal  8.966411e-01  2.773636e-01 -3.451147e-01
   outer loop
     vertex  2.225576e+00  3.115889e+00 -4.752689e+00
     vertex  2.716313e+00  3.203723e-01 -5.724422e+00
     vertex  2.304881e+00  5.543508e-01 -6.605318e+00
   endloop
 endfacet
 facet normal  8.966411e-01  2.773636e-01 -3.451147e-01
   outer loop
     vertex  1.650565e+00  4.281706e+00 -5.309673e+00
     vertex  2.225576e+00  3.115889e+00 -4.752689e+00
     vertex  2.304881e+00  5.543508e-01 -6.605318e+00
   endloop
 endfacet
<<<<<<< HEAD
 facet normal  8.966411e-01  2.773636e-01 -3.451147e-01
=======
 facet normal -1.000000e+00  3.552714e-16 -1.184238e-15
>>>>>>> main
   outer loop
     vertex  2.061997e+00  4.047728e+00 -4.428777e+00
     vertex  2.225576e+00  3.115889e+00 -4.752689e+00
     vertex  1.650565e+00  4.281706e+00 -5.309673e+00
   endloop
 endfacet
 facet normal -8.966411e-01 -2.773636e-01  3.451147e-01
   outer loop
     vertex  2.847415e-01  1.070521e+00  1.513537e-01
     vertex -1.524567e+00  2.938273e+00 -3.048319e+00
     vertex -1.360988e+00  2.006434e+00 -3.372230e+00
   endloop
 endfacet
 facet normal -8.966411e-01 -2.773636e-01  3.451147e-01
   outer loop
     vertex  2.847415e-01  1.070521e+00  1.513537e-01
     vertex  1.211625e-01  2.002359e+00  4.752648e-01
     vertex -1.524567e+00  2.938273e+00 -3.048319e+00
   endloop
 endfacet
<<<<<<< HEAD
 facet normal  4.114324e-01 -2.339784e-01  8.808958e-01
=======
<<<<<<< Updated upstream
 facet normal  0.000000e+00  1.000000e+00  0.000000e+00
=======
 facet normal -1.000000e+00  3.552714e-16  5.075305e-16
>>>>>>> Stashed changes
>>>>>>> main
   outer loop
     vertex  4.604368e+00  3.389177e+00 -1.250309e+00
     vertex  1.211625e-01  2.002359e+00  4.752648e-01
     vertex  2.847415e-01  1.070521e+00  1.513537e-01
   endloop
 endfacet
<<<<<<< HEAD
 facet normal  4.114324e-01 -2.339784e-01  8.808958e-01
=======
<<<<<<< Updated upstream
 facet normal  1.000000e+00  0.000000e+00  0.000000e+00
=======
 facet normal  0.000000e+00 -0.000000e+00 -1.000000e+00
>>>>>>> Stashed changes
>>>>>>> main
   outer loop
     vertex  4.604368e+00  3.389177e+00 -1.250309e+00
     vertex  2.847415e-01  1.070521e+00  1.513537e-01
     vertex  4.767947e+00  2.457339e+00 -1.574220e+00
   endloop
 endfacet
 facet normal -1.635790e-01  9.318388e-01  3.239111e-01
   outer loop
     vertex -2.832641e+00  2.894888e+00 -3.584100e+00
     vertex -2.421208e+00  2.660910e+00 -2.703204e+00
     vertex -1.524567e+00  2.938273e+00 -3.048319e+00
   endloop
 endfacet
 facet normal -1.635790e-01  9.318388e-01  3.239111e-01
   outer loop
     vertex  1.650565e+00  4.281706e+00 -5.309673e+00
     vertex -1.524567e+00  2.938273e+00 -3.048319e+00
     vertex  2.061997e+00  4.047728e+00 -4.428777e+00
   endloop
 endfacet
 facet normal -1.635790e-01  9.318388e-01  3.239111e-01
   outer loop
     vertex  1.650565e+00  4.281706e+00 -5.309673e+00
     vertex -2.832641e+00  2.894888e+00 -3.584100e+00
     vertex -1.524567e+00  2.938273e+00 -3.048319e+00
   endloop
 endfacet
<<<<<<< HEAD
 facet normal  4.114324e-01 -2.339784e-01  8.808958e-01
=======
 facet normal  1.000000e+00 -1.776357e-16  0.000000e+00
>>>>>>> main
   outer loop
     vertex -1.360988e+00  2.006434e+00 -3.372230e+00
     vertex -2.421208e+00  2.660910e+00 -2.703204e+00
     vertex -1.766892e+00 -1.066446e+00 -3.998848e+00
   endloop
 endfacet
<<<<<<< HEAD
 facet normal  4.114324e-01 -2.339784e-01  8.808958e-01
=======
 facet normal  1.000000e+00 -1.776357e-16  0.000000e+00
>>>>>>> main
   outer loop
     vertex  2.716313e+00  3.203723e-01 -5.724422e+00
     vertex -1.360988e+00  2.006434e+00 -3.372230e+00
     vertex -1.766892e+00 -1.066446e+00 -3.998848e+00
   endloop
 endfacet
 facet normal  4.114324e-01 -2.339784e-01  8.808958e-01
   outer loop
     vertex -1.524567e+00  2.938273e+00 -3.048319e+00
     vertex -2.421208e+00  2.660910e+00 -2.703204e+00
     vertex -1.360988e+00  2.006434e+00 -3.372230e+00
   endloop
 endfacet
 facet normal  4.114324e-01 -2.339784e-01  8.808958e-01
   outer loop
     vertex  2.225576e+00  3.115889e+00 -4.752689e+00
     vertex -1.360988e+00  2.006434e+00 -3.372230e+00
     vertex  2.716313e+00  3.203723e-01 -5.724422e+00
   endloop
 endfacet
<<<<<<< HEAD
 facet normal  1.635790e-01 -9.318388e-01 -3.239111e-01
=======
<<<<<<< Updated upstream
 facet normal  0.000000e+00  0.000000e+00  1.000000e+00
=======
 facet normal -1.000000e+00  1.776357e-16  0.000000e+00
>>>>>>> Stashed changes
>>>>>>> main
   outer loop
     vertex  2.304881e+00  5.543508e-01 -6.605318e+00
     vertex -1.766892e+00 -1.066446e+00 -3.998848e+00
     vertex -2.178325e+00 -8.324672e-01 -4.879744e+00
   endloop
 endfacet
<<<<<<< HEAD
 facet normal  1.635790e-01 -9.318388e-01 -3.239111e-01
=======
<<<<<<< Updated upstream
 facet normal  0.000000e+00  0.000000e+00  1.000000e+00
=======
 facet normal -1.000000e+00  1.776357e-16  0.000000e+00
>>>>>>> Stashed changes
>>>>>>> main
   outer loop
     vertex  2.304881e+00  5.543508e-01 -6.605318e+00
     vertex  2.716313e+00  3.203723e-01 -5.724422e+00
     vertex -1.766892e+00 -1.066446e+00 -3.998848e+00
   endloop
 endfacet
<<<<<<< HEAD
 facet normal -4.114324e-01  2.339784e-01 -8.808958e-01
=======
<<<<<<< Updated upstream
 facet normal  0.000000e+00  0.000000e+00  1.000000e+00
=======
 facet normal  0.000000e+00 -0.000000e+00 -1.000000e+00
>>>>>>> Stashed changes
>>>>>>> main
   outer loop
     vertex  1.650565e+00  4.281706e+00 -5.309673e+00
     vertex -2.178325e+00 -8.324672e-01 -4.879744e+00
     vertex -2.832641e+00  2.894888e+00 -3.584100e+00
   endloop
 endfacet
 facet normal -4.114324e-01  2.339784e-01 -8.808958e-01
   outer loop
     vertex  1.650565e+00  4.281706e+00 -5.309673e+00
     vertex  2.304881e+00  5.543508e-01 -6.605318e+00
     vertex -2.178325e+00 -8.324672e-01 -4.879744e+00
   endloop
 endfacet
 facet normal  8.966411e-01  2.773636e-01 -3.451147e-01
   outer loop
     vertex -3.323378e+00  5.690404e+00 -2.612366e+00
     vertex -2.421208e+00  2.660910e+00 -2.703204e+00
     vertex -2.832641e+00  2.894888e+00 -3.584100e+00
   endloop
 endfacet
<<<<<<< HEAD
 facet normal  8.966411e-01  2.773636e-01 -3.451147e-01
=======
<<<<<<< Updated upstream
 facet normal -1.000000e+00  0.000000e+00  0.000000e+00
=======
 facet normal  1.000000e+00 -1.776357e-16 -5.075305e-16
>>>>>>> Stashed changes
>>>>>>> main
   outer loop
     vertex -2.911945e+00  5.456426e+00 -1.731471e+00
     vertex -2.421208e+00  2.660910e+00 -2.703204e+00
     vertex -3.323378e+00  5.690404e+00 -2.612366e+00
   endloop
 endfacet
<<<<<<< HEAD
 facet normal  4.114324e-01 -2.339784e-01  8.808958e-01
=======
<<<<<<< Updated upstream
 facet normal -1.000000e+00  0.000000e+00 -0.000000e+00
=======
 facet normal  1.000000e+00 -0.000000e+00  0.000000e+00
>>>>>>> Stashed changes
>>>>>>> main
   outer loop
     vertex -1.766892e+00 -1.066446e+00 -3.998848e+00
     vertex -5.759361e+00 -5.248780e+00 -3.245008e+00
     vertex -3.966078e+00 -4.694053e+00 -3.935237e+00
   endloop
 endfacet
<<<<<<< HEAD
 facet normal  4.114324e-01 -2.339784e-01  8.808958e-01
=======
<<<<<<< Updated upstream
 facet normal -1.000000e+00 -0.000000e+00  0.000000e+00
=======
 facet normal  1.000000e+00 -0.000000e+00  0.000000e+00
>>>>>>> Stashed changes
>>>>>>> main
   outer loop
     vertex -1.766892e+00 -1.066446e+00 -3.998848e+00
     vertex -3.966078e+00 -4.694053e+00 -3.935237e+00
     vertex -1.276155e+00 -3.861962e+00 -4.970581e+00
   endloop
 endfacet
<<<<<<< HEAD
 facet normal  4.114324e-01 -2.339784e-01  8.808958e-01
=======
<<<<<<< Updated upstream
 facet normal  0.000000e+00  0.000000e+00  1.000000e+00
=======
 facet normal  1.000000e+00 -1.776357e-16  1.184238e-15
>>>>>>> Stashed changes
>>>>>>> main
   outer loop
     vertex -7.395151e+00  4.069608e+00 -5.896892e-03
     vertex -5.759361e+00 -5.248780e+00 -3.245008e+00
     vertex -1.766892e+00 -1.066446e+00 -3.998848e+00
   endloop
 endfacet
 facet normal  4.114324e-01 -2.339784e-01  8.808958e-01
   outer loop
     vertex -2.421208e+00  2.660910e+00 -2.703204e+00
     vertex -7.395151e+00  4.069608e+00 -5.896892e-03
     vertex -1.766892e+00 -1.066446e+00 -3.998848e+00
   endloop
 endfacet
 facet normal  4.114324e-01 -2.339784e-01  8.808958e-01
   outer loop
     vertex -4.705228e+00  4.901699e+00 -1.041241e+00
     vertex -7.395151e+00  4.069608e+00 -5.896892e-03
     vertex -2.421208e+00  2.660910e+00 -2.703204e+00
   endloop
 endfacet
<<<<<<< HEAD
 facet normal  4.114324e-01 -2.339784e-01  8.808958e-01
=======
<<<<<<< Updated upstream
 facet normal  0.000000e+00  1.000000e+00  0.000000e+00
=======
 facet normal -1.000000e+00  1.776357e-16  5.075305e-16
>>>>>>> Stashed changes
>>>>>>> main
   outer loop
     vertex -2.911945e+00  5.456426e+00 -1.731471e+00
     vertex -4.705228e+00  4.901699e+00 -1.041241e+00
     vertex -2.421208e+00  2.660910e+00 -2.703204e+00
   endloop
 endfacet
<<<<<<< HEAD
 facet normal  8.966411e-01  2.773636e-01 -3.451147e-01
=======
<<<<<<< Updated upstream
 facet normal  0.000000e+00  1.000000e+00  0.000000e+00
=======
 facet normal -1.000000e+00  0.000000e+00  0.000000e+00
>>>>>>> Stashed changes
>>>>>>> main
   outer loop
     vertex -1.766892e+00 -1.066446e+00 -3.998848e+00
     vertex -1.276155e+00 -3.861962e+00 -4.970581e+00
     vertex -1.687588e+00 -3.627984e+00 -5.851477e+00
   endloop
 endfacet
<<<<<<< HEAD
 facet normal  8.966411e-01  2.773636e-01 -3.451147e-01
=======
<<<<<<< Updated upstream
 facet normal  0.000000e+00  0.000000e+00 -1.000000e+00
=======
 facet normal -1.000000e+00  0.000000e+00  0.000000e+00
>>>>>>> Stashed changes
>>>>>>> main
   outer loop
     vertex -1.766892e+00 -1.066446e+00 -3.998848e+00
     vertex -1.687588e+00 -3.627984e+00 -5.851477e+00
     vertex -2.178325e+00 -8.324672e-01 -4.879744e+00
   endloop
 endfacet
<<<<<<< HEAD
 facet normal -4.114324e-01  2.339784e-01 -8.808958e-01
=======
<<<<<<< Updated upstream
 facet normal  0.000000e+00 -0.000000e+00 -1.000000e+00
=======
 facet normal -1.000000e+00  1.776357e-16 -1.184238e-15
>>>>>>> Stashed changes
>>>>>>> main
   outer loop
     vertex -2.178325e+00 -8.324672e-01 -4.879744e+00
     vertex -4.377511e+00 -4.460074e+00 -4.816133e+00
     vertex -6.170793e+00 -5.014802e+00 -4.125903e+00
   endloop
 endfacet
 facet normal -4.114324e-01  2.339784e-01 -8.808958e-01
   outer loop
     vertex -2.178325e+00 -8.324672e-01 -4.879744e+00
     vertex -1.687588e+00 -3.627984e+00 -5.851477e+00
     vertex -4.377511e+00 -4.460074e+00 -4.816133e+00
   endloop
 endfacet
 facet normal -4.114324e-01  2.339784e-01 -8.808958e-01
   outer loop
     vertex -2.832641e+00  2.894888e+00 -3.584100e+00
     vertex -6.170793e+00 -5.014802e+00 -4.125903e+00
     vertex -7.806583e+00  4.303586e+00 -8.867927e-01
   endloop
 endfacet
 facet normal -4.114324e-01  2.339784e-01 -8.808958e-01
   outer loop
     vertex -2.832641e+00  2.894888e+00 -3.584100e+00
     vertex -2.178325e+00 -8.324672e-01 -4.879744e+00
     vertex -6.170793e+00 -5.014802e+00 -4.125903e+00
   endloop
 endfacet
 facet normal -4.114324e-01  2.339784e-01 -8.808958e-01
   outer loop
     vertex -5.116660e+00  5.135677e+00 -1.922137e+00
     vertex -2.832641e+00  2.894888e+00 -3.584100e+00
     vertex -7.806583e+00  4.303586e+00 -8.867927e-01
   endloop
 endfacet
<<<<<<< HEAD
 facet normal -4.114324e-01  2.339784e-01 -8.808958e-01
   outer loop
     vertex -3.323378e+00  5.690404e+00 -2.612366e+00
     vertex -2.832641e+00  2.894888e+00 -3.584100e+00
     vertex -5.116660e+00  5.135677e+00 -1.922137e+00
=======
<<<<<<< Updated upstream
 facet normal -0.000000e+00  0.000000e+00  1.000000e+00
   outer loop
=======
 facet normal  0.000000e+00 -1.000000e+00 -0.000000e+00
   outer loop
     vertex  6.000000e+00  5.000000e+00  4.000000e+00
>>>>>>> Stashed changes
     vertex  5.000000e+00  5.000000e+00  2.500000e+00
     vertex  6.000000e+00 -5.000000e+00  2.500000e+00
     vertex  6.000000e+00  5.000000e+00  2.500000e+00
>>>>>>> main
   endloop
 endfacet
 facet normal  1.635790e-01 -9.318388e-01 -3.239111e-01
   outer loop
<<<<<<< HEAD
     vertex -6.334546e-01  6.522495e+00 -3.647711e+00
     vertex -2.911945e+00  5.456426e+00 -1.731471e+00
     vertex -3.323378e+00  5.690404e+00 -2.612366e+00
=======
<<<<<<< Updated upstream
     vertex  6.000000e+00 -5.000000e+00  2.500000e+00
     vertex  5.000000e+00 -5.000000e+00 -2.500000e+00
     vertex  6.000000e+00 -5.000000e+00 -2.500000e+00
=======
     vertex  5.000000e+00  5.000000e+00  4.000000e+00
     vertex  5.000000e+00  5.000000e+00  2.500000e+00
     vertex  6.000000e+00  5.000000e+00  4.000000e+00
>>>>>>> Stashed changes
>>>>>>> main
   endloop
 endfacet
 facet normal  1.635790e-01 -9.318388e-01 -3.239111e-01
   outer loop
     vertex -5.171270e-01  3.307235e+00  5.660811e+00
     vertex -1.002336e+00  2.795893e+00  6.886821e+00
     vertex -4.705228e+00  4.901699e+00 -1.041241e+00
   endloop
 endfacet
 facet normal  1.635790e-01 -9.318388e-01 -3.239111e-01
   outer loop
     vertex -5.171270e-01  3.307235e+00  5.660811e+00
     vertex -4.705228e+00  4.901699e+00 -1.041241e+00
     vertex -2.911945e+00  5.456426e+00 -1.731471e+00
   endloop
 endfacet
 facet normal  1.635790e-01 -9.318388e-01 -3.239111e-01
   outer loop
     vertex -1.056946e-01  3.073256e+00  6.541707e+00
     vertex -1.002336e+00  2.795893e+00  6.886821e+00
     vertex -5.171270e-01  3.307235e+00  5.660811e+00
   endloop
 endfacet
 facet normal  1.635790e-01 -9.318388e-01 -3.239111e-01
   outer loop
     vertex  3.069437e+00  4.416689e+00  4.280352e+00
     vertex -2.911945e+00  5.456426e+00 -1.731471e+00
     vertex -6.334546e-01  6.522495e+00 -3.647711e+00
   endloop
 endfacet
 facet normal  1.635790e-01 -9.318388e-01 -3.239111e-01
   outer loop
     vertex  3.069437e+00  4.416689e+00  4.280352e+00
     vertex -5.171270e-01  3.307235e+00  5.660811e+00
     vertex -2.911945e+00  5.456426e+00 -1.731471e+00
   endloop
 endfacet
 facet normal -8.966411e-01 -2.773636e-01  3.451147e-01
   outer loop
     vertex -7.395151e+00  4.069608e+00 -5.896892e-03
     vertex -6.170793e+00 -5.014802e+00 -4.125903e+00
     vertex -5.759361e+00 -5.248780e+00 -3.245008e+00
   endloop
 endfacet
 facet normal -8.966411e-01 -2.773636e-01  3.451147e-01
   outer loop
     vertex -7.395151e+00  4.069608e+00 -5.896892e-03
     vertex -7.806583e+00  4.303586e+00 -8.867927e-01
     vertex -6.170793e+00 -5.014802e+00 -4.125903e+00
   endloop
 endfacet
 facet normal -1.635790e-01  9.318388e-01  3.239111e-01
   outer loop
     vertex -5.116660e+00  5.135677e+00 -1.922137e+00
     vertex -7.806583e+00  4.303586e+00 -8.867927e-01
     vertex -7.395151e+00  4.069608e+00 -5.896892e-03
   endloop
 endfacet
 facet normal -1.635790e-01  9.318388e-01  3.239111e-01
   outer loop
     vertex -5.116660e+00  5.135677e+00 -1.922137e+00
     vertex -7.395151e+00  4.069608e+00 -5.896892e-03
     vertex -4.705228e+00  4.901699e+00 -1.041241e+00
   endloop
 endfacet
 facet normal  1.635790e-01 -9.318388e-01 -3.239111e-01
   outer loop
     vertex -3.966078e+00 -4.694053e+00 -3.935237e+00
     vertex -5.759361e+00 -5.248780e+00 -3.245008e+00
     vertex -6.170793e+00 -5.014802e+00 -4.125903e+00
   endloop
 endfacet
 facet normal  1.635790e-01 -9.318388e-01 -3.239111e-01
   outer loop
     vertex -4.377511e+00 -4.460074e+00 -4.816133e+00
     vertex -3.966078e+00 -4.694053e+00 -3.935237e+00
     vertex -6.170793e+00 -5.014802e+00 -4.125903e+00
   endloop
 endfacet
 facet normal -1.635790e-01  9.318388e-01  3.239111e-01
   outer loop
     vertex  1.056946e-01 -3.073256e+00 -6.541707e+00
     vertex -1.687588e+00 -3.627984e+00 -5.851477e+00
     vertex -1.276155e+00 -3.861962e+00 -4.970581e+00
   endloop
 endfacet
 facet normal -1.635790e-01  9.318388e-01  3.239111e-01
   outer loop
     vertex -2.631865e-01 -6.799859e+00  3.992825e+00
     vertex -1.276155e+00 -3.861962e+00 -4.970581e+00
     vertex -3.966078e+00 -4.694053e+00 -3.935237e+00
   endloop
 endfacet
 facet normal -1.635790e-01  9.318388e-01  3.239111e-01
   outer loop
     vertex  4.220019e+00 -5.413041e+00  2.267252e+00
     vertex -1.276155e+00 -3.861962e+00 -4.970581e+00
     vertex -2.631865e-01 -6.799859e+00  3.992825e+00
   endloop
 endfacet
 facet normal -1.635790e-01  9.318388e-01  3.239111e-01
   outer loop
     vertex  4.220019e+00 -5.413041e+00  2.267252e+00
     vertex  1.056946e-01 -3.073256e+00 -6.541707e+00
     vertex -1.276155e+00 -3.861962e+00 -4.970581e+00
   endloop
 endfacet
 facet normal -4.114324e-01  2.339784e-01 -8.808958e-01
   outer loop
     vertex -3.323378e+00  5.690404e+00 -2.612366e+00
     vertex -5.116660e+00  5.135677e+00 -1.922137e+00
     vertex -5.280239e+00  6.067516e+00 -1.598226e+00
   endloop
 endfacet
 facet normal -4.114324e-01  2.339784e-01 -8.808958e-01
   outer loop
     vertex -7.970336e-01  7.454334e+00 -3.323800e+00
     vertex -6.334546e-01  6.522495e+00 -3.647711e+00
     vertex -3.323378e+00  5.690404e+00 -2.612366e+00
   endloop
 endfacet
 facet normal -4.114324e-01  2.339784e-01 -8.808958e-01
   outer loop
     vertex -7.970336e-01  7.454334e+00 -3.323800e+00
     vertex -3.323378e+00  5.690404e+00 -2.612366e+00
     vertex -5.280239e+00  6.067516e+00 -1.598226e+00
   endloop
 endfacet
 facet normal -4.114324e-01  2.339784e-01 -8.808958e-01
   outer loop
     vertex -1.687588e+00 -3.627984e+00 -5.851477e+00
     vertex -4.213932e+00 -5.391913e+00 -5.140044e+00
     vertex -4.377511e+00 -4.460074e+00 -4.816133e+00
   endloop
 endfacet
 facet normal -4.114324e-01  2.339784e-01 -8.808958e-01
   outer loop
     vertex  2.692736e-01 -4.005095e+00 -6.865618e+00
     vertex -4.213932e+00 -5.391913e+00 -5.140044e+00
     vertex -1.687588e+00 -3.627984e+00 -5.851477e+00
   endloop
 endfacet
 facet normal -4.114324e-01  2.339784e-01 -8.808958e-01
   outer loop
     vertex  1.056946e-01 -3.073256e+00 -6.541707e+00
     vertex  2.692736e-01 -4.005095e+00 -6.865618e+00
     vertex -1.687588e+00 -3.627984e+00 -5.851477e+00
   endloop
 endfacet
 facet normal  4.114324e-01 -2.339784e-01  8.808958e-01
   outer loop
     vertex -1.056946e-01  3.073256e+00  6.541707e+00
     vertex -1.165915e+00  3.727732e+00  7.210732e+00
     vertex -1.002336e+00  2.795893e+00  6.886821e+00
   endloop
 endfacet
 facet normal  4.114324e-01 -2.339784e-01  8.808958e-01
   outer loop
     vertex -2.692736e-01  4.005095e+00  6.865618e+00
     vertex -1.165915e+00  3.727732e+00  7.210732e+00
     vertex -1.056946e-01  3.073256e+00  6.541707e+00
   endloop
 endfacet
 facet normal  1.635790e-01 -9.318388e-01 -3.239111e-01
   outer loop
     vertex  3.480870e+00  4.182711e+00  5.161248e+00
     vertex -1.056946e-01  3.073256e+00  6.541707e+00
     vertex -5.171270e-01  3.307235e+00  5.660811e+00
   endloop
 endfacet
 facet normal  1.635790e-01 -9.318388e-01 -3.239111e-01
   outer loop
     vertex  3.480870e+00  4.182711e+00  5.161248e+00
     vertex -5.171270e-01  3.307235e+00  5.660811e+00
     vertex  3.069437e+00  4.416689e+00  4.280352e+00
   endloop
 endfacet
 facet normal  8.966411e-01  2.773636e-01 -3.451147e-01
   outer loop
     vertex  3.069437e+00  4.416689e+00  4.280352e+00
     vertex -6.334546e-01  6.522495e+00 -3.647711e+00
     vertex -7.970336e-01  7.454334e+00 -3.323800e+00
   endloop
 endfacet
 facet normal  8.966411e-01  2.773636e-01 -3.451147e-01
   outer loop
     vertex  3.069437e+00  4.416689e+00  4.280352e+00
     vertex -7.970336e-01  7.454334e+00 -3.323800e+00
     vertex  2.905858e+00  5.348528e+00  4.604263e+00
   endloop
 endfacet
 facet normal -8.966411e-01 -2.773636e-01  3.451147e-01
   outer loop
     vertex -4.705228e+00  4.901699e+00 -1.041241e+00
     vertex -5.280239e+00  6.067516e+00 -1.598226e+00
     vertex -5.116660e+00  5.135677e+00 -1.922137e+00
   endloop
 endfacet
 facet normal -8.966411e-01 -2.773636e-01  3.451147e-01
   outer loop
     vertex -1.165915e+00  3.727732e+00  7.210732e+00
     vertex -5.280239e+00  6.067516e+00 -1.598226e+00
     vertex -4.705228e+00  4.901699e+00 -1.041241e+00
   endloop
 endfacet
 facet normal -8.966411e-01 -2.773636e-01  3.451147e-01
   outer loop
     vertex -1.002336e+00  2.795893e+00  6.886821e+00
     vertex -1.165915e+00  3.727732e+00  7.210732e+00
     vertex -4.705228e+00  4.901699e+00 -1.041241e+00
   endloop
 endfacet
 facet normal -8.966411e-01 -2.773636e-01  3.451147e-01
   outer loop
     vertex -3.966078e+00 -4.694053e+00 -3.935237e+00
     vertex -4.377511e+00 -4.460074e+00 -4.816133e+00
     vertex -4.213932e+00 -5.391913e+00 -5.140044e+00
   endloop
 endfacet
 facet normal -8.966411e-01 -2.773636e-01  3.451147e-01
   outer loop
     vertex -9.960752e-02 -7.731698e+00  3.668914e+00
     vertex -2.631865e-01 -6.799859e+00  3.992825e+00
     vertex -3.966078e+00 -4.694053e+00 -3.935237e+00
   endloop
 endfacet
 facet normal -8.966411e-01 -2.773636e-01  3.451147e-01
   outer loop
     vertex -9.960752e-02 -7.731698e+00  3.668914e+00
     vertex -3.966078e+00 -4.694053e+00 -3.935237e+00
     vertex -4.213932e+00 -5.391913e+00 -5.140044e+00
   endloop
 endfacet
 facet normal  4.114324e-01 -2.339784e-01  8.808958e-01
   outer loop
     vertex  4.220019e+00 -5.413041e+00  2.267252e+00
     vertex -2.631865e-01 -6.799859e+00  3.992825e+00
     vertex -9.960752e-02 -7.731698e+00  3.668914e+00
   endloop
 endfacet
 facet normal  4.114324e-01 -2.339784e-01  8.808958e-01
   outer loop
     vertex  4.220019e+00 -5.413041e+00  2.267252e+00
     vertex -9.960752e-02 -7.731698e+00  3.668914e+00
     vertex  4.383598e+00 -6.344880e+00  1.943341e+00
   endloop
 endfacet
 facet normal  8.966411e-01  2.773636e-01 -3.451147e-01
   outer loop
     vertex  4.383598e+00 -6.344880e+00  1.943341e+00
     vertex  2.692736e-01 -4.005095e+00 -6.865618e+00
     vertex  1.056946e-01 -3.073256e+00 -6.541707e+00
   endloop
 endfacet
 facet normal  8.966411e-01  2.773636e-01 -3.451147e-01
   outer loop
     vertex  4.383598e+00 -6.344880e+00  1.943341e+00
     vertex  1.056946e-01 -3.073256e+00 -6.541707e+00
     vertex  4.220019e+00 -5.413041e+00  2.267252e+00
   endloop
 endfacet
 facet normal -1.635790e-01  9.318388e-01  3.239111e-01
   outer loop
     vertex -6.807060e-01  4.239074e+00  5.984722e+00
     vertex -5.280239e+00  6.067516e+00 -1.598226e+00
     vertex -1.165915e+00  3.727732e+00  7.210732e+00
   endloop
 endfacet
 facet normal -1.635790e-01  9.318388e-01  3.239111e-01
   outer loop
     vertex -6.807060e-01  4.239074e+00  5.984722e+00
     vertex -7.970336e-01  7.454334e+00 -3.323800e+00
     vertex -5.280239e+00  6.067516e+00 -1.598226e+00
   endloop
 endfacet
 facet normal -1.635790e-01  9.318388e-01  3.239111e-01
   outer loop
     vertex -2.692736e-01  4.005095e+00  6.865618e+00
     vertex -6.807060e-01  4.239074e+00  5.984722e+00
     vertex -1.165915e+00  3.727732e+00  7.210732e+00
   endloop
 endfacet
 facet normal -1.635790e-01  9.318388e-01  3.239111e-01
   outer loop
     vertex  2.905858e+00  5.348528e+00  4.604263e+00
     vertex -7.970336e-01  7.454334e+00 -3.323800e+00
     vertex -6.807060e-01  4.239074e+00  5.984722e+00
   endloop
 endfacet
 facet normal  1.635790e-01 -9.318388e-01 -3.239111e-01
   outer loop
     vertex  4.383598e+00 -6.344880e+00  1.943341e+00
     vertex -9.960752e-02 -7.731698e+00  3.668914e+00
     vertex -4.213932e+00 -5.391913e+00 -5.140044e+00
   endloop
 endfacet
 facet normal  1.635790e-01 -9.318388e-01 -3.239111e-01
   outer loop
     vertex  4.383598e+00 -6.344880e+00  1.943341e+00
     vertex -4.213932e+00 -5.391913e+00 -5.140044e+00
     vertex  2.692736e-01 -4.005095e+00 -6.865618e+00
   endloop
 endfacet
 facet normal  4.114324e-01 -2.339784e-01  8.808958e-01
   outer loop
     vertex  3.480870e+00  4.182711e+00  5.161248e+00
     vertex -2.692736e-01  4.005095e+00  6.865618e+00
     vertex -1.056946e-01  3.073256e+00  6.541707e+00
   endloop
 endfacet
 facet normal  4.114324e-01 -2.339784e-01  8.808958e-01
   outer loop
     vertex  3.317291e+00  5.114550e+00  5.485159e+00
     vertex -2.692736e-01  4.005095e+00  6.865618e+00
     vertex  3.480870e+00  4.182711e+00  5.161248e+00
   endloop
 endfacet
 facet normal  1.635790e-01 -9.318388e-01 -3.239111e-01
   outer loop
     vertex  3.069437e+00  4.416689e+00  4.280352e+00
     vertex  4.377511e+00  4.460074e+00  4.816133e+00
     vertex  3.480870e+00  4.182711e+00  5.161248e+00
   endloop
 endfacet
 facet normal  1.635790e-01 -9.318388e-01 -3.239111e-01
   outer loop
     vertex  3.966078e+00  4.694053e+00  3.935237e+00
     vertex  4.377511e+00  4.460074e+00  4.816133e+00
     vertex  3.069437e+00  4.416689e+00  4.280352e+00
   endloop
 endfacet
 facet normal -4.114324e-01  2.339784e-01 -8.808958e-01
   outer loop
     vertex  3.966078e+00  4.694053e+00  3.935237e+00
     vertex  3.069437e+00  4.416689e+00  4.280352e+00
     vertex  2.905858e+00  5.348528e+00  4.604263e+00
   endloop
 endfacet
 facet normal -4.114324e-01  2.339784e-01 -8.808958e-01
   outer loop
     vertex -2.152917e+00  1.262562e+01  8.899921e+00
     vertex  2.905858e+00  5.348528e+00  4.604263e+00
     vertex -6.807060e-01  4.239074e+00  5.984722e+00
   endloop
 endfacet
 facet normal -4.114324e-01  2.339784e-01 -8.808958e-01
   outer loop
     vertex  2.330288e+00  1.401244e+01  7.174348e+00
     vertex  2.905858e+00  5.348528e+00  4.604263e+00
     vertex -2.152917e+00  1.262562e+01  8.899921e+00
   endloop
 endfacet
 facet normal -4.114324e-01  2.339784e-01 -8.808958e-01
   outer loop
     vertex  2.330288e+00  1.401244e+01  7.174348e+00
     vertex  3.966078e+00  4.694053e+00  3.935237e+00
     vertex  2.905858e+00  5.348528e+00  4.604263e+00
   endloop
 endfacet
 facet normal -8.966411e-01 -2.773636e-01  3.451147e-01
   outer loop
     vertex -1.741485e+00  1.239164e+01  9.780817e+00
     vertex -6.807060e-01  4.239074e+00  5.984722e+00
     vertex -2.692736e-01  4.005095e+00  6.865618e+00
   endloop
 endfacet
 facet normal -8.966411e-01 -2.773636e-01  3.451147e-01
   outer loop
     vertex -1.741485e+00  1.239164e+01  9.780817e+00
     vertex -2.152917e+00  1.262562e+01  8.899921e+00
     vertex -6.807060e-01  4.239074e+00  5.984722e+00
   endloop
 endfacet
 facet normal  4.114324e-01 -2.339784e-01  8.808958e-01
   outer loop
     vertex  3.317291e+00  5.114550e+00  5.485159e+00
     vertex  3.480870e+00  4.182711e+00  5.161248e+00
     vertex  4.377511e+00  4.460074e+00  4.816133e+00
   endloop
 endfacet
 facet normal  4.114324e-01 -2.339784e-01  8.808958e-01
   outer loop
     vertex -1.741485e+00  1.239164e+01  9.780817e+00
     vertex -2.692736e-01  4.005095e+00  6.865618e+00
     vertex  3.317291e+00  5.114550e+00  5.485159e+00
   endloop
 endfacet
 facet normal  4.114324e-01 -2.339784e-01  8.808958e-01
   outer loop
     vertex  2.741721e+00  1.377846e+01  8.055243e+00
     vertex -1.741485e+00  1.239164e+01  9.780817e+00
     vertex  3.317291e+00  5.114550e+00  5.485159e+00
   endloop
 endfacet
 facet normal  4.114324e-01 -2.339784e-01  8.808958e-01
   outer loop
     vertex  2.741721e+00  1.377846e+01  8.055243e+00
     vertex  3.317291e+00  5.114550e+00  5.485159e+00
     vertex  4.377511e+00  4.460074e+00  4.816133e+00
   endloop
 endfacet
 facet normal  8.966411e-01  2.773636e-01 -3.451147e-01
   outer loop
     vertex  2.741721e+00  1.377846e+01  8.055243e+00
     vertex  4.377511e+00  4.460074e+00  4.816133e+00
     vertex  3.966078e+00  4.694053e+00  3.935237e+00
   endloop
 endfacet
 facet normal  8.966411e-01  2.773636e-01 -3.451147e-01
   outer loop
     vertex  2.741721e+00  1.377846e+01  8.055243e+00
     vertex  3.966078e+00  4.694053e+00  3.935237e+00
     vertex  2.330288e+00  1.401244e+01  7.174348e+00
   endloop
 endfacet
 facet normal -1.635790e-01  9.318388e-01  3.239111e-01
   outer loop
     vertex  2.330288e+00  1.401244e+01  7.174348e+00
     vertex -2.152917e+00  1.262562e+01  8.899921e+00
     vertex -1.741485e+00  1.239164e+01  9.780817e+00
   endloop
 endfacet
 facet normal -1.635790e-01  9.318388e-01  3.239111e-01
   outer loop
     vertex  2.330288e+00  1.401244e+01  7.174348e+00
     vertex -1.741485e+00  1.239164e+01  9.780817e+00
     vertex  2.741721e+00  1.377846e+01  8.055243e+00
   endloop
 endfacet
endsolid
