solid 
 facet normal -1.000000e+00  2.220446e-16 -6.026346e-17
   outer loop
     vertex -5.000000e-01 -6.000000e+00 -6.577178e-01
     vertex -5.000000e-01 -5.000000e+00 -2.500000e+00
     vertex -5.000000e-01 -6.000000e+00 -2.500000e+00
   endloop
 endfacet
 facet normal -1.000000e+00  7.272285e-16  2.139529e-16
   outer loop
     vertex -5.000000e-01 -6.000000e+00  3.801022e-01
     vertex -5.000000e-01 -5.000000e+00 -2.500000e+00
     vertex -5.000000e-01 -6.000000e+00 -6.577178e-01
   endloop
 endfacet
 facet normal -1.000000e+00  1.110223e-16  0.000000e+00
   outer loop
     vertex -5.000000e-01 -5.000000e+00  2.500000e+00
     vertex -5.000000e-01 -5.000000e+00 -2.500000e+00
     vertex -5.000000e-01 -6.000000e+00  3.801022e-01
   endloop
 endfacet
 facet normal -1.000000e+00  2.220446e-16 -5.237154e-17
   outer loop
     vertex -5.000000e-01 -6.000000e+00  2.500000e+00
     vertex -5.000000e-01 -5.000000e+00  2.500000e+00
     vertex -5.000000e-01 -6.000000e+00  3.801022e-01
   endloop
 endfacet
 facet normal  0.000000e+00 -1.000000e+00  0.000000e+00
   outer loop
     vertex  2.542645e+00 -6.000000e+00  1.869680e-01
     vertex -5.000000e-01 -6.000000e+00 -6.577178e-01
     vertex -5.000000e-01 -6.000000e+00 -2.500000e+00
   endloop
 endfacet
 facet normal -0.000000e+00 -1.000000e+00  0.000000e+00
   outer loop
     vertex  2.275146e+00 -6.000000e+00  1.150526e+00
     vertex -5.000000e-01 -6.000000e+00  2.500000e+00
     vertex -5.000000e-01 -6.000000e+00  3.801022e-01
   endloop
 endfacet
 facet normal -2.664535e-16 -1.000000e+00  3.017243e-16
   outer loop
     vertex  9.500000e+00 -6.000000e+00 -2.500000e+00
     vertex  2.542645e+00 -6.000000e+00  1.869680e-01
     vertex -5.000000e-01 -6.000000e+00 -2.500000e+00
   endloop
 endfacet
 facet normal -3.506203e-16 -1.000000e+00 -9.733769e-17
   outer loop
     vertex  9.500000e+00 -6.000000e+00  2.500000e+00
     vertex  2.275146e+00 -6.000000e+00  1.150526e+00
     vertex  2.542645e+00 -6.000000e+00  1.869680e-01
   endloop
 endfacet
 facet normal -3.829811e-16 -1.000000e+00 -0.000000e+00
   outer loop
     vertex  9.500000e+00 -6.000000e+00  2.500000e+00
     vertex  2.542645e+00 -6.000000e+00  1.869680e-01
     vertex  9.500000e+00 -6.000000e+00 -2.500000e+00
   endloop
 endfacet
 facet normal -2.664535e-16 -1.000000e+00 -5.479524e-16
   outer loop
     vertex  9.500000e+00 -6.000000e+00  2.500000e+00
     vertex -5.000000e-01 -6.000000e+00  2.500000e+00
     vertex  2.275146e+00 -6.000000e+00  1.150526e+00
   endloop
 endfacet
 facet normal  0.000000e+00  1.000000e+00  0.000000e+00
   outer loop
     vertex -5.000000e-01 -6.000000e+00 -6.577178e-01
     vertex -2.275146e+00 -6.000000e+00 -1.150526e+00
     vertex -2.542645e+00 -6.000000e+00 -1.869680e-01
   endloop
 endfacet
 facet normal  0.000000e+00  1.000000e+00 -0.000000e+00
   outer loop
     vertex -5.000000e-01 -6.000000e+00 -6.577178e-01
     vertex -2.542645e+00 -6.000000e+00 -1.869680e-01
     vertex -5.000000e-01 -6.000000e+00  3.801022e-01
   endloop
 endfacet
 facet normal  0.000000e+00  0.000000e+00  1.000000e+00
   outer loop
     vertex  9.500000e+00 -5.000000e+00  2.500000e+00
     vertex -5.000000e-01 -5.000000e+00  2.500000e+00
     vertex -5.000000e-01 -6.000000e+00  2.500000e+00
   endloop
 endfacet
 facet normal  0.000000e+00  0.000000e+00  1.000000e+00
   outer loop
     vertex  9.500000e+00 -5.000000e+00  2.500000e+00
     vertex -5.000000e-01 -6.000000e+00  2.500000e+00
     vertex  9.500000e+00 -6.000000e+00  2.500000e+00
   endloop
 endfacet
 facet normal  2.664535e-16  1.000000e+00  0.000000e+00
   outer loop
     vertex  9.500000e+00 -5.000000e+00  2.500000e+00
     vertex  9.500000e+00 -5.000000e+00 -2.500000e+00
     vertex -5.000000e-01 -5.000000e+00 -2.500000e+00
   endloop
 endfacet
 facet normal  2.664535e-16  1.000000e+00  0.000000e+00
   outer loop
     vertex  9.500000e+00 -5.000000e+00  2.500000e+00
     vertex -5.000000e-01 -5.000000e+00 -2.500000e+00
     vertex -5.000000e-01 -5.000000e+00  2.500000e+00
   endloop
 endfacet
 facet normal -0.000000e+00  0.000000e+00 -1.000000e+00
   outer loop
     vertex  9.500000e+00 -5.000000e+00 -2.500000e+00
     vertex -5.000000e-01 -6.000000e+00 -2.500000e+00
     vertex -5.000000e-01 -5.000000e+00 -2.500000e+00
   endloop
 endfacet
 facet normal  0.000000e+00 -0.000000e+00 -1.000000e+00
   outer loop
     vertex  9.500000e+00 -5.000000e+00 -2.500000e+00
     vertex  9.500000e+00 -6.000000e+00 -2.500000e+00
     vertex -5.000000e-01 -6.000000e+00 -2.500000e+00
   endloop
 endfacet
 facet normal  1.000000e+00  0.000000e+00  0.000000e+00
   outer loop
     vertex  9.500000e+00 -6.000000e+00  2.500000e+00
     vertex  9.500000e+00 -6.000000e+00 -2.500000e+00
     vertex  9.500000e+00 -5.000000e+00 -2.500000e+00
   endloop
 endfacet
 facet normal  1.000000e+00 -0.000000e+00  0.000000e+00
   outer loop
     vertex  9.500000e+00 -6.000000e+00  2.500000e+00
     vertex  9.500000e+00 -5.000000e+00 -2.500000e+00
     vertex  9.500000e+00 -5.000000e+00  2.500000e+00
   endloop
 endfacet
 facet normal -2.674988e-01 -6.284584e-17  9.635582e-01
   outer loop
     vertex -5.000000e-01 -6.000000e+00  3.801022e-01
     vertex -2.542645e+00 -6.000000e+00 -1.869680e-01
     vertex -2.542645e+00 -1.600000e+01 -1.869680e-01
   endloop
 endfacet
 facet normal -2.674988e-01 -7.105427e-17  9.635582e-01
   outer loop
     vertex -5.000000e-01 -6.000000e+00  3.801022e-01
     vertex -2.542645e+00 -1.600000e+01 -1.869680e-01
     vertex  2.275146e+00 -1.600000e+01  1.150526e+00
   endloop
 endfacet
 facet normal -2.674988e-01 -6.418587e-17  9.635582e-01
   outer loop
     vertex  2.275146e+00 -6.000000e+00  1.150526e+00
     vertex -5.000000e-01 -6.000000e+00  3.801022e-01
     vertex  2.275146e+00 -1.600000e+01  1.150526e+00
   endloop
 endfacet
 facet normal  9.635582e-01 -1.781900e-17  2.674988e-01
   outer loop
     vertex  2.275146e+00 -6.000000e+00  1.150526e+00
     vertex  2.275146e+00 -1.600000e+01  1.150526e+00
     vertex  2.542645e+00 -1.600000e+01  1.869680e-01
   endloop
 endfacet
 facet normal  9.635582e-01 -1.110223e-17  2.674988e-01
   outer loop
     vertex  2.275146e+00 -6.000000e+00  1.150526e+00
     vertex  2.542645e+00 -1.600000e+01  1.869680e-01
     vertex  2.542645e+00 -6.000000e+00  1.869680e-01
   endloop
 endfacet
 facet normal  2.674988e-01  6.628981e-17 -9.635582e-01
   outer loop
     vertex -5.000000e-01 -6.000000e+00 -6.577178e-01
     vertex -2.275146e+00 -1.600000e+01 -1.150526e+00
     vertex -2.275146e+00 -6.000000e+00 -1.150526e+00
   endloop
 endfacet
 facet normal  2.674988e-01  7.105427e-17 -9.635582e-01
   outer loop
     vertex -5.000000e-01 -6.000000e+00 -6.577178e-01
     vertex  2.542645e+00 -1.600000e+01  1.869680e-01
     vertex -2.275146e+00 -1.600000e+01 -1.150526e+00
   endloop
 endfacet
 facet normal  2.674988e-01  5.348822e-17 -9.635582e-01
   outer loop
     vertex  2.542645e+00 -6.000000e+00  1.869680e-01
     vertex  2.542645e+00 -1.600000e+01  1.869680e-01
     vertex -5.000000e-01 -6.000000e+00 -6.577178e-01
   endloop
 endfacet
 facet normal -9.635582e-01  1.484917e-17 -2.674988e-01
   outer loop
     vertex -2.542645e+00 -6.000000e+00 -1.869680e-01
     vertex -2.275146e+00 -1.600000e+01 -1.150526e+00
     vertex -2.542645e+00 -1.600000e+01 -1.869680e-01
   endloop
 endfacet
 facet normal -9.635582e-01  1.665335e-17 -2.674988e-01
   outer loop
     vertex -2.542645e+00 -6.000000e+00 -1.869680e-01
     vertex -2.275146e+00 -6.000000e+00 -1.150526e+00
     vertex -2.275146e+00 -1.600000e+01 -1.150526e+00
   endloop
 endfacet
 facet normal -2.674988e-01 -7.105427e-17  9.635582e-01
   outer loop
     vertex  2.275146e+00 -1.600000e+01  1.150526e+00
     vertex -2.542645e+00 -1.600000e+01 -1.869680e-01
     vertex -2.542645e+00 -2.600000e+01 -1.869680e-01
   endloop
 endfacet
 facet normal -2.674988e-01 -6.418587e-17  9.635582e-01
   outer loop
     vertex  2.275146e+00 -1.600000e+01  1.150526e+00
     vertex -2.542645e+00 -2.600000e+01 -1.869680e-01
     vertex  2.275146e+00 -2.600000e+01  1.150526e+00
   endloop
 endfacet
 facet normal  9.635582e-01 -1.781900e-17  2.674988e-01
   outer loop
     vertex  2.275146e+00 -1.600000e+01  1.150526e+00
     vertex  2.275146e+00 -2.600000e+01  1.150526e+00
     vertex  2.542645e+00 -2.600000e+01  1.869680e-01
   endloop
 endfacet
 facet normal  9.635582e-01 -1.665335e-17  2.674988e-01
   outer loop
     vertex  2.275146e+00 -1.600000e+01  1.150526e+00
     vertex  2.542645e+00 -2.600000e+01  1.869680e-01
     vertex  2.542645e+00 -1.600000e+01  1.869680e-01
   endloop
 endfacet
 facet normal  2.674988e-01  7.105427e-17 -9.635582e-01
   outer loop
     vertex  2.542645e+00 -1.600000e+01  1.869680e-01
     vertex -2.275146e+00 -2.600000e+01 -1.150526e+00
     vertex -2.275146e+00 -1.600000e+01 -1.150526e+00
   endloop
 endfacet
 facet normal  2.674988e-01  5.348822e-17 -9.635582e-01
   outer loop
     vertex  2.542645e+00 -1.600000e+01  1.869680e-01
     vertex  2.542645e+00 -2.600000e+01  1.869680e-01
     vertex -2.275146e+00 -2.600000e+01 -1.150526e+00
   endloop
 endfacet
 facet normal -9.635582e-01  1.484917e-17 -2.674988e-01
   outer loop
     vertex -2.542645e+00 -1.600000e+01 -1.869680e-01
     vertex -2.275146e+00 -2.600000e+01 -1.150526e+00
     vertex -2.542645e+00 -2.600000e+01 -1.869680e-01
   endloop
 endfacet
 facet normal -9.635582e-01  1.665335e-17 -2.674988e-01
   outer loop
     vertex -2.542645e+00 -1.600000e+01 -1.869680e-01
     vertex -2.275146e+00 -1.600000e+01 -1.150526e+00
     vertex -2.275146e+00 -2.600000e+01 -1.150526e+00
   endloop
 endfacet
 facet normal  0.000000e+00 -1.000000e+00  0.000000e+00
   outer loop
     vertex  2.542645e+00 -2.600000e+01  1.869680e-01
     vertex -2.542645e+00 -2.600000e+01 -1.869680e-01
     vertex -2.275146e+00 -2.600000e+01 -1.150526e+00
   endloop
 endfacet
 facet normal -0.000000e+00 -1.000000e+00  0.000000e+00
   outer loop
     vertex  2.542645e+00 -2.600000e+01  1.869680e-01
     vertex  2.275146e+00 -2.600000e+01  1.150526e+00
     vertex -2.542645e+00 -2.600000e+01 -1.869680e-01
   endloop
 endfacet
endsolid
