solid 
 facet normal -1.000000e+00 -1.332268e-15 -0.000000e+00
   outer loop
     vertex -5.000000e-01 -6.000000e+00  2.500000e+00
     vertex -5.000000e-01 -5.000000e+00 -2.500000e+00
     vertex -5.000000e-01 -6.000000e+00 -2.500000e+00
   endloop
 endfacet
 facet normal -1.000000e+00 -1.332268e-15  0.000000e+00
   outer loop
     vertex -5.000000e-01 -6.000000e+00  2.500000e+00
     vertex -5.000000e-01 -5.000000e+00  2.500000e+00
     vertex -5.000000e-01 -5.000000e+00 -2.500000e+00
   endloop
 endfacet
 facet normal -1.000000e+00 -7.771561e-17 -0.000000e+00
   outer loop
     vertex -5.000000e-01 -6.000000e+00  2.500000e+00
     vertex -5.000000e-01 -6.000000e+00 -2.500000e+00
     vertex -5.000000e-01 -1.600000e+01 -2.500000e+00
   endloop
 endfacet
 facet normal -1.000000e+00 -7.771561e-17  0.000000e+00
   outer loop
     vertex -5.000000e-01 -6.000000e+00  2.500000e+00
     vertex -5.000000e-01 -1.600000e+01 -2.500000e+00
     vertex -5.000000e-01 -1.600000e+01  2.500000e+00
   endloop
 endfacet
 facet normal  0.000000e+00  0.000000e+00  1.000000e+00
   outer loop
     vertex  5.000000e-01 -6.000000e+00  2.500000e+00
     vertex -5.000000e-01 -5.000000e+00  2.500000e+00
     vertex -5.000000e-01 -6.000000e+00  2.500000e+00
   endloop
 endfacet
 facet normal  0.000000e+00  0.000000e+00  1.000000e+00
   outer loop
     vertex  9.500000e+00 -5.000000e+00  2.500000e+00
     vertex  5.000000e-01 -6.000000e+00  2.500000e+00
     vertex  9.500000e+00 -6.000000e+00  2.500000e+00
   endloop
 endfacet
 facet normal  0.000000e+00  0.000000e+00  1.000000e+00
   outer loop
     vertex  9.500000e+00 -5.000000e+00  2.500000e+00
     vertex -5.000000e-01 -5.000000e+00  2.500000e+00
     vertex  5.000000e-01 -6.000000e+00  2.500000e+00
   endloop
 endfacet
 facet normal  1.776357e-16  1.000000e+00  0.000000e+00
   outer loop
     vertex  9.500000e+00 -5.000000e+00  2.500000e+00
     vertex  9.500000e+00 -5.000000e+00 -2.500000e+00
     vertex -5.000000e-01 -5.000000e+00 -2.500000e+00
   endloop
 endfacet
 facet normal  1.776357e-16  1.000000e+00  0.000000e+00
   outer loop
     vertex  9.500000e+00 -5.000000e+00  2.500000e+00
     vertex -5.000000e-01 -5.000000e+00 -2.500000e+00
     vertex -5.000000e-01 -5.000000e+00  2.500000e+00
   endloop
 endfacet
 facet normal  0.000000e+00  0.000000e+00 -1.000000e+00
   outer loop
     vertex  5.000000e-01 -6.000000e+00 -2.500000e+00
     vertex -5.000000e-01 -6.000000e+00 -2.500000e+00
     vertex -5.000000e-01 -5.000000e+00 -2.500000e+00
   endloop
 endfacet
 facet normal  0.000000e+00 -0.000000e+00 -1.000000e+00
   outer loop
     vertex  9.500000e+00 -5.000000e+00 -2.500000e+00
     vertex  9.500000e+00 -6.000000e+00 -2.500000e+00
     vertex  5.000000e-01 -6.000000e+00 -2.500000e+00
   endloop
 endfacet
 facet normal -0.000000e+00  0.000000e+00 -1.000000e+00
   outer loop
     vertex  9.500000e+00 -5.000000e+00 -2.500000e+00
     vertex  5.000000e-01 -6.000000e+00 -2.500000e+00
     vertex -5.000000e-01 -5.000000e+00 -2.500000e+00
   endloop
 endfacet
 facet normal  0.000000e+00  0.000000e+00 -1.000000e+00
   outer loop
     vertex -5.000000e-01 -6.000000e+00 -2.500000e+00
     vertex  5.000000e-01 -1.600000e+01 -2.500000e+00
     vertex -5.000000e-01 -1.600000e+01 -2.500000e+00
   endloop
 endfacet
 facet normal  0.000000e+00  0.000000e+00 -1.000000e+00
   outer loop
     vertex -5.000000e-01 -6.000000e+00 -2.500000e+00
     vertex  5.000000e-01 -6.000000e+00 -2.500000e+00
     vertex  5.000000e-01 -1.600000e+01 -2.500000e+00
   endloop
 endfacet
 facet normal  0.000000e+00  0.000000e+00  1.000000e+00
   outer loop
     vertex -5.000000e-01 -6.000000e+00  2.500000e+00
     vertex -5.000000e-01 -1.600000e+01  2.500000e+00
     vertex  5.000000e-01 -1.600000e+01  2.500000e+00
   endloop
 endfacet
 facet normal -0.000000e+00  0.000000e+00  1.000000e+00
   outer loop
     vertex -5.000000e-01 -6.000000e+00  2.500000e+00
     vertex  5.000000e-01 -1.600000e+01  2.500000e+00
     vertex  5.000000e-01 -6.000000e+00  2.500000e+00
   endloop
 endfacet
 facet normal -1.000000e+00  0.000000e+00 -0.000000e+00
   outer loop
     vertex -5.000000e-01 -1.600000e+01  2.500000e+00
     vertex -5.000000e-01 -1.600000e+01 -2.500000e+00
     vertex -5.000000e-01 -2.600000e+01 -2.500000e+00
   endloop
 endfacet
 facet normal -1.000000e+00 -0.000000e+00  0.000000e+00
   outer loop
     vertex -5.000000e-01 -1.600000e+01  2.500000e+00
     vertex -5.000000e-01 -2.600000e+01 -2.500000e+00
     vertex -5.000000e-01 -2.600000e+01  2.500000e+00
   endloop
 endfacet
 facet normal  1.000000e+00 -3.552714e-15  0.000000e+00
   outer loop
     vertex  9.500000e+00 -6.000000e+00  2.500000e+00
     vertex  9.500000e+00 -6.000000e+00 -2.500000e+00
     vertex  9.500000e+00 -5.000000e+00 -2.500000e+00
   endloop
 endfacet
 facet normal  1.000000e+00 -3.552714e-15  0.000000e+00
   outer loop
     vertex  9.500000e+00 -6.000000e+00  2.500000e+00
     vertex  9.500000e+00 -5.000000e+00 -2.500000e+00
     vertex  9.500000e+00 -5.000000e+00  2.500000e+00
   endloop
 endfacet
 facet normal -1.973730e-16 -1.000000e+00 -0.000000e+00
   outer loop
     vertex  9.500000e+00 -6.000000e+00  2.500000e+00
     vertex  5.000000e-01 -6.000000e+00 -2.500000e+00
     vertex  9.500000e+00 -6.000000e+00 -2.500000e+00
   endloop
 endfacet
 facet normal -1.973730e-16 -1.000000e+00  0.000000e+00
   outer loop
     vertex  9.500000e+00 -6.000000e+00  2.500000e+00
     vertex  5.000000e-01 -6.000000e+00  2.500000e+00
     vertex  5.000000e-01 -6.000000e+00 -2.500000e+00
   endloop
 endfacet
 facet normal  0.000000e+00  0.000000e+00 -1.000000e+00
   outer loop
     vertex -5.000000e-01 -1.600000e+01 -2.500000e+00
     vertex  5.000000e-01 -2.600000e+01 -2.500000e+00
     vertex -5.000000e-01 -2.600000e+01 -2.500000e+00
   endloop
 endfacet
 facet normal  0.000000e+00  0.000000e+00 -1.000000e+00
   outer loop
     vertex -5.000000e-01 -1.600000e+01 -2.500000e+00
     vertex  5.000000e-01 -1.600000e+01 -2.500000e+00
     vertex  5.000000e-01 -2.600000e+01 -2.500000e+00
   endloop
 endfacet
 facet normal  1.000000e+00  0.000000e+00  0.000000e+00
   outer loop
     vertex  5.000000e-01 -6.000000e+00  2.500000e+00
     vertex  5.000000e-01 -1.600000e+01 -2.500000e+00
     vertex  5.000000e-01 -6.000000e+00 -2.500000e+00
   endloop
 endfacet
 facet normal  1.000000e+00  0.000000e+00  0.000000e+00
   outer loop
     vertex  5.000000e-01 -6.000000e+00  2.500000e+00
     vertex  5.000000e-01 -1.600000e+01  2.500000e+00
     vertex  5.000000e-01 -1.600000e+01 -2.500000e+00
   endloop
 endfacet
 facet normal  0.000000e+00  0.000000e+00  1.000000e+00
   outer loop
     vertex -5.000000e-01 -1.600000e+01  2.500000e+00
     vertex -5.000000e-01 -2.600000e+01  2.500000e+00
     vertex  5.000000e-01 -2.600000e+01  2.500000e+00
   endloop
 endfacet
 facet normal -0.000000e+00  0.000000e+00  1.000000e+00
   outer loop
     vertex -5.000000e-01 -1.600000e+01  2.500000e+00
     vertex  5.000000e-01 -2.600000e+01  2.500000e+00
     vertex  5.000000e-01 -1.600000e+01  2.500000e+00
   endloop
 endfacet
 facet normal  0.000000e+00 -1.000000e+00 -0.000000e+00
   outer loop
     vertex  5.000000e-01 -2.600000e+01  2.500000e+00
     vertex -5.000000e-01 -2.600000e+01 -2.500000e+00
     vertex  5.000000e-01 -2.600000e+01 -2.500000e+00
   endloop
 endfacet
 facet normal -0.000000e+00 -1.000000e+00  0.000000e+00
   outer loop
     vertex  5.000000e-01 -2.600000e+01  2.500000e+00
     vertex -5.000000e-01 -2.600000e+01  2.500000e+00
     vertex -5.000000e-01 -2.600000e+01 -2.500000e+00
   endloop
 endfacet
 facet normal  1.000000e+00  0.000000e+00  0.000000e+00
   outer loop
     vertex  5.000000e-01 -1.600000e+01  2.500000e+00
     vertex  5.000000e-01 -2.600000e+01 -2.500000e+00
     vertex  5.000000e-01 -1.600000e+01 -2.500000e+00
   endloop
 endfacet
 facet normal  1.000000e+00  0.000000e+00  0.000000e+00
   outer loop
     vertex  5.000000e-01 -1.600000e+01  2.500000e+00
     vertex  5.000000e-01 -2.600000e+01  2.500000e+00
     vertex  5.000000e-01 -2.600000e+01 -2.500000e+00
   endloop
 endfacet
endsolid
