solid 
 facet normal  4.330127e-01 -5.000000e-01 -7.500000e-01
   outer loop
     vertex  1.250000e+00  1.830127e+00 -7.165064e+00
     vertex  3.080127e+00 -6.830127e+00 -3.349365e-01
     vertex -1.250000e+00 -6.830127e+00 -2.834936e+00
   endloop
 endfacet
 facet normal  4.330127e-01 -5.000000e-01 -7.500000e-01
   outer loop
     vertex  5.580127e+00  1.830127e+00 -4.665064e+00
     vertex  3.080127e+00 -6.830127e+00 -3.349365e-01
     vertex  1.250000e+00  1.830127e+00 -7.165064e+00
   endloop
 endfacet
 facet normal -8.660254e-01  0.000000e+00 -5.000000e-01
   outer loop
     vertex  8.169873e-01  2.330127e+00 -6.415064e+00
     vertex -1.250000e+00 -6.830127e+00 -2.834936e+00
     vertex -1.683013e+00 -6.330127e+00 -2.084936e+00
   endloop
 endfacet
 facet normal -8.660254e-01 -1.998401e-16 -5.000000e-01
   outer loop
     vertex  8.169873e-01  2.330127e+00 -6.415064e+00
     vertex  1.250000e+00  1.830127e+00 -7.165064e+00
     vertex -1.250000e+00 -6.830127e+00 -2.834936e+00
   endloop
 endfacet
 facet normal  4.330127e-01 -5.000000e-01 -7.500000e-01
   outer loop
     vertex  5.830127e+00  2.696152e+00 -5.098076e+00
     vertex  1.250000e+00  1.830127e+00 -7.165064e+00
     vertex  1.500000e+00  2.696152e+00 -7.598076e+00
   endloop
 endfacet
 facet normal  4.330127e-01 -5.000000e-01 -7.500000e-01
   outer loop
     vertex  5.830127e+00  2.696152e+00 -5.098076e+00
     vertex  5.580127e+00  1.830127e+00 -4.665064e+00
     vertex  1.250000e+00  1.830127e+00 -7.165064e+00
   endloop
 endfacet
 facet normal  8.660254e-01 -1.776357e-16  5.000000e-01
   outer loop
     vertex  5.147114e+00  2.330127e+00 -3.915064e+00
     vertex  2.647114e+00 -6.330127e+00  4.150635e-01
     vertex  3.080127e+00 -6.830127e+00 -3.349365e-01
   endloop
 endfacet
 facet normal  8.660254e-01  5.551115e-16  5.000000e-01
   outer loop
     vertex  5.147114e+00  2.330127e+00 -3.915064e+00
     vertex  3.080127e+00 -6.830127e+00 -3.349365e-01
     vertex  5.580127e+00  1.830127e+00 -4.665064e+00
   endloop
 endfacet
 facet normal  4.330127e-01 -5.000000e-01 -7.500000e-01
   outer loop
     vertex  3.080127e+00 -6.830127e+00 -3.349365e-01
     vertex -1.500000e+00 -7.696152e+00 -2.401924e+00
     vertex -1.250000e+00 -6.830127e+00 -2.834936e+00
   endloop
 endfacet
 facet normal  4.330127e-01 -5.000000e-01 -7.500000e-01
   outer loop
     vertex  3.080127e+00 -6.830127e+00 -3.349365e-01
     vertex  2.830127e+00 -7.696152e+00  9.807621e-02
     vertex -1.500000e+00 -7.696152e+00 -2.401924e+00
   endloop
 endfacet
 facet normal -8.660254e-01  6.938894e-17 -5.000000e-01
   outer loop
     vertex -1.500000e+00 -7.696152e+00 -2.401924e+00
     vertex -1.683013e+00 -6.330127e+00 -2.084936e+00
     vertex -1.250000e+00 -6.830127e+00 -2.834936e+00
   endloop
 endfacet
 facet normal -8.660254e-01  8.388352e-16 -5.000000e-01
   outer loop
     vertex -5.830127e+00 -2.696152e+00  5.098076e+00
     vertex -5.580127e+00 -1.830127e+00  4.665064e+00
     vertex -1.683013e+00 -6.330127e+00 -2.084936e+00
   endloop
 endfacet
 facet normal -8.660254e-01  3.552714e-16 -5.000000e-01
   outer loop
     vertex -5.830127e+00 -2.696152e+00  5.098076e+00
     vertex -1.683013e+00 -6.330127e+00 -2.084936e+00
     vertex -1.500000e+00 -7.696152e+00 -2.401924e+00
   endloop
 endfacet
 facet normal -4.330127e-01  5.000000e-01  7.500000e-01
   outer loop
     vertex  5.147114e+00  2.330127e+00 -3.915064e+00
     vertex  8.169873e-01  2.330127e+00 -6.415064e+00
     vertex -1.683013e+00 -6.330127e+00 -2.084936e+00
   endloop
 endfacet
 facet normal -4.330127e-01  5.000000e-01  7.500000e-01
   outer loop
     vertex  5.147114e+00  2.330127e+00 -3.915064e+00
     vertex -1.683013e+00 -6.330127e+00 -2.084936e+00
     vertex  2.647114e+00 -6.330127e+00  4.150635e-01
   endloop
 endfacet
 facet normal -8.660254e-01  1.110223e-16 -5.000000e-01
   outer loop
     vertex  8.169873e-01  2.330127e+00 -6.415064e+00
     vertex  1.500000e+00  2.696152e+00 -7.598076e+00
     vertex  1.250000e+00  1.830127e+00 -7.165064e+00
   endloop
 endfacet
 facet normal -8.660254e-01  0.000000e+00 -5.000000e-01
   outer loop
     vertex -2.397114e+00  7.196152e+00 -8.480762e-01
     vertex  1.500000e+00  2.696152e+00 -7.598076e+00
     vertex  8.169873e-01  2.330127e+00 -6.415064e+00
   endloop
 endfacet
 facet normal -8.660254e-01  1.665335e-16 -5.000000e-01
   outer loop
     vertex -3.080127e+00  6.830127e+00  3.349365e-01
     vertex -2.830127e+00  7.696152e+00 -9.807621e-02
     vertex -2.397114e+00  7.196152e+00 -8.480762e-01
   endloop
 endfacet
 facet normal -8.660254e-01 -1.973730e-16 -5.000000e-01
   outer loop
     vertex -3.080127e+00  6.830127e+00  3.349365e-01
     vertex -2.397114e+00  7.196152e+00 -8.480762e-01
     vertex  8.169873e-01  2.330127e+00 -6.415064e+00
   endloop
 endfacet
 facet normal  2.500000e-01  8.660254e-01 -4.330127e-01
   outer loop
     vertex  1.933013e+00  7.196152e+00  1.651924e+00
     vertex  1.500000e+00  2.696152e+00 -7.598076e+00
     vertex -2.397114e+00  7.196152e+00 -8.480762e-01
   endloop
 endfacet
 facet normal  2.500000e-01  8.660254e-01 -4.330127e-01
   outer loop
     vertex  1.933013e+00  7.196152e+00  1.651924e+00
     vertex  5.830127e+00  2.696152e+00 -5.098076e+00
     vertex  1.500000e+00  2.696152e+00 -7.598076e+00
   endloop
 endfacet
 facet normal  8.660254e-01  7.771561e-16  5.000000e-01
   outer loop
     vertex  5.147114e+00  2.330127e+00 -3.915064e+00
     vertex  5.580127e+00  1.830127e+00 -4.665064e+00
     vertex  5.830127e+00  2.696152e+00 -5.098076e+00
   endloop
 endfacet
 facet normal  8.660254e-01 -7.894919e-16  5.000000e-01
   outer loop
     vertex  1.933013e+00  7.196152e+00  1.651924e+00
     vertex  5.147114e+00  2.330127e+00 -3.915064e+00
     vertex  5.830127e+00  2.696152e+00 -5.098076e+00
   endloop
 endfacet
 facet normal  8.660254e-01 -3.885781e-16  5.000000e-01
   outer loop
     vertex  1.250000e+00  6.830127e+00  2.834936e+00
     vertex  1.933013e+00  7.196152e+00  1.651924e+00
     vertex  1.500000e+00  7.696152e+00  2.401924e+00
   endloop
 endfacet
 facet normal  8.660254e-01 -5.921189e-16  5.000000e-01
   outer loop
     vertex  1.250000e+00  6.830127e+00  2.834936e+00
     vertex  5.147114e+00  2.330127e+00 -3.915064e+00
     vertex  1.933013e+00  7.196152e+00  1.651924e+00
   endloop
 endfacet
 facet normal  8.660254e-01 -6.106227e-16  5.000000e-01
   outer loop
     vertex  2.830127e+00 -7.696152e+00  9.807621e-02
     vertex  3.080127e+00 -6.830127e+00 -3.349365e-01
     vertex  2.647114e+00 -6.330127e+00  4.150635e-01
   endloop
 endfacet
 facet normal  8.660254e-01 -4.194176e-16  5.000000e-01
   outer loop
     vertex -1.500000e+00 -2.696152e+00  7.598076e+00
     vertex  2.647114e+00 -6.330127e+00  4.150635e-01
     vertex -1.250000e+00 -1.830127e+00  7.165064e+00
   endloop
 endfacet
 facet normal  8.660254e-01 -1.065814e-15  5.000000e-01
   outer loop
     vertex -1.500000e+00 -2.696152e+00  7.598076e+00
     vertex  2.830127e+00 -7.696152e+00  9.807621e-02
     vertex  2.647114e+00 -6.330127e+00  4.150635e-01
   endloop
 endfacet
 facet normal -2.500000e-01 -8.660254e-01  4.330127e-01
   outer loop
     vertex -1.500000e+00 -2.696152e+00  7.598076e+00
     vertex -5.830127e+00 -2.696152e+00  5.098076e+00
     vertex -1.500000e+00 -7.696152e+00 -2.401924e+00
   endloop
 endfacet
 facet normal -2.500000e-01 -8.660254e-01  4.330127e-01
   outer loop
     vertex -1.500000e+00 -2.696152e+00  7.598076e+00
     vertex -1.500000e+00 -7.696152e+00 -2.401924e+00
     vertex  2.830127e+00 -7.696152e+00  9.807621e-02
   endloop
 endfacet
 facet normal -4.330127e-01  5.000000e-01  7.500000e-01
   outer loop
     vertex -1.250000e+00 -1.830127e+00  7.165064e+00
     vertex -5.580127e+00 -1.830127e+00  4.665064e+00
     vertex -5.830127e+00 -2.696152e+00  5.098076e+00
   endloop
 endfacet
 facet normal -4.330127e-01  5.000000e-01  7.500000e-01
   outer loop
     vertex -1.250000e+00 -1.830127e+00  7.165064e+00
     vertex -5.830127e+00 -2.696152e+00  5.098076e+00
     vertex -1.500000e+00 -2.696152e+00  7.598076e+00
   endloop
 endfacet
 facet normal  2.500000e-01  8.660254e-01 -4.330127e-01
   outer loop
     vertex -1.250000e+00 -1.830127e+00  7.165064e+00
     vertex -1.683013e+00 -6.330127e+00 -2.084936e+00
     vertex -5.580127e+00 -1.830127e+00  4.665064e+00
   endloop
 endfacet
 facet normal  2.500000e-01  8.660254e-01 -4.330127e-01
   outer loop
     vertex -1.250000e+00 -1.830127e+00  7.165064e+00
     vertex  2.647114e+00 -6.330127e+00  4.150635e-01
     vertex -1.683013e+00 -6.330127e+00 -2.084936e+00
   endloop
 endfacet
 facet normal -2.500000e-01 -8.660254e-01  4.330127e-01
   outer loop
     vertex  1.250000e+00  6.830127e+00  2.834936e+00
     vertex -3.080127e+00  6.830127e+00  3.349365e-01
     vertex  8.169873e-01  2.330127e+00 -6.415064e+00
   endloop
 endfacet
 facet normal -2.500000e-01 -8.660254e-01  4.330127e-01
   outer loop
     vertex  1.250000e+00  6.830127e+00  2.834936e+00
     vertex  8.169873e-01  2.330127e+00 -6.415064e+00
     vertex  5.147114e+00  2.330127e+00 -3.915064e+00
   endloop
 endfacet
 facet normal -4.330127e-01  5.000000e-01  7.500000e-01
   outer loop
     vertex  1.500000e+00  7.696152e+00  2.401924e+00
     vertex -2.830127e+00  7.696152e+00 -9.807621e-02
     vertex -3.080127e+00  6.830127e+00  3.349365e-01
   endloop
 endfacet
 facet normal -4.330127e-01  5.000000e-01  7.500000e-01
   outer loop
     vertex  1.500000e+00  7.696152e+00  2.401924e+00
     vertex -3.080127e+00  6.830127e+00  3.349365e-01
     vertex  1.250000e+00  6.830127e+00  2.834936e+00
   endloop
 endfacet
 facet normal -8.660254e-01  0.000000e+00 -5.000000e-01
   outer loop
     vertex -3.301270e-01  1.635641e+01 -4.428203e+00
     vertex -2.397114e+00  7.196152e+00 -8.480762e-01
     vertex -2.830127e+00  7.696152e+00 -9.807621e-02
   endloop
 endfacet
 facet normal -8.660254e-01 -1.776357e-16 -5.000000e-01
   outer loop
     vertex -3.301270e-01  1.635641e+01 -4.428203e+00
     vertex  1.028857e-01  1.585641e+01 -5.178203e+00
     vertex -2.397114e+00  7.196152e+00 -8.480762e-01
   endloop
 endfacet
 facet normal  4.330127e-01 -5.000000e-01 -7.500000e-01
   outer loop
     vertex  4.433013e+00  1.585641e+01 -2.678203e+00
     vertex -2.397114e+00  7.196152e+00 -8.480762e-01
     vertex  1.028857e-01  1.585641e+01 -5.178203e+00
   endloop
 endfacet
 facet normal  4.330127e-01 -5.000000e-01 -7.500000e-01
   outer loop
     vertex  4.433013e+00  1.585641e+01 -2.678203e+00
     vertex  1.933013e+00  7.196152e+00  1.651924e+00
     vertex -2.397114e+00  7.196152e+00 -8.480762e-01
   endloop
 endfacet
 facet normal  8.660254e-01  1.776357e-16  5.000000e-01
   outer loop
     vertex  4.000000e+00  1.635641e+01 -1.928203e+00
     vertex  1.500000e+00  7.696152e+00  2.401924e+00
     vertex  1.933013e+00  7.196152e+00  1.651924e+00
   endloop
 endfacet
 facet normal  8.660254e-01  1.776357e-16  5.000000e-01
   outer loop
     vertex  4.000000e+00  1.635641e+01 -1.928203e+00
     vertex  1.933013e+00  7.196152e+00  1.651924e+00
     vertex  4.433013e+00  1.585641e+01 -2.678203e+00
   endloop
 endfacet
 facet normal -4.330127e-01  5.000000e-01  7.500000e-01
   outer loop
     vertex  4.000000e+00  1.635641e+01 -1.928203e+00
     vertex -3.301270e-01  1.635641e+01 -4.428203e+00
     vertex -2.830127e+00  7.696152e+00 -9.807621e-02
   endloop
 endfacet
 facet normal -4.330127e-01  5.000000e-01  7.500000e-01
   outer loop
     vertex  4.000000e+00  1.635641e+01 -1.928203e+00
     vertex -2.830127e+00  7.696152e+00 -9.807621e-02
     vertex  1.500000e+00  7.696152e+00  2.401924e+00
   endloop
 endfacet
 facet normal  2.500000e-01  8.660254e-01 -4.330127e-01
   outer loop
     vertex  4.433013e+00  1.585641e+01 -2.678203e+00
     vertex  1.028857e-01  1.585641e+01 -5.178203e+00
     vertex -3.301270e-01  1.635641e+01 -4.428203e+00
   endloop
 endfacet
 facet normal  2.500000e-01  8.660254e-01 -4.330127e-01
   outer loop
     vertex  4.433013e+00  1.585641e+01 -2.678203e+00
     vertex -3.301270e-01  1.635641e+01 -4.428203e+00
     vertex  4.000000e+00  1.635641e+01 -1.928203e+00
   endloop
 endfacet
endsolid
