solid 
 facet normal  1.000000e+00  0.000000e+00  0.000000e+00
   outer loop
     vertex  1.500000e+01  7.000000e+00  1.000000e+00
     vertex  1.500000e+01  6.000000e+00  0.000000e+00
     vertex  1.500000e+01  7.000000e+00  0.000000e+00
   endloop
 endfacet
 facet normal  1.000000e+00  0.000000e+00  0.000000e+00
   outer loop
     vertex  1.500000e+01  7.000000e+00  1.000000e+00
     vertex  1.500000e+01  6.000000e+00  1.000000e+00
     vertex  1.500000e+01  6.000000e+00  0.000000e+00
   endloop
 endfacet
 facet normal  2.664535e-16  1.000000e+00  0.000000e+00
   outer loop
     vertex  5.000000e+00  7.000000e+00  1.000000e+00
     vertex  1.500000e+01  7.000000e+00  0.000000e+00
     vertex  5.000000e+00  7.000000e+00  0.000000e+00
   endloop
 endfacet
 facet normal  2.664535e-16  1.000000e+00  0.000000e+00
   outer loop
     vertex  5.000000e+00  7.000000e+00  1.000000e+00
     vertex  1.500000e+01  7.000000e+00  1.000000e+00
     vertex  1.500000e+01  7.000000e+00  0.000000e+00
   endloop
 endfacet
 facet normal -0.000000e+00  0.000000e+00  1.000000e+00
   outer loop
     vertex  6.000000e+00  6.000000e+00  1.000000e+00
     vertex  1.500000e+01  6.000000e+00  1.000000e+00
     vertex  1.500000e+01  7.000000e+00  1.000000e+00
   endloop
 endfacet
 facet normal  0.000000e+00  0.000000e+00  1.000000e+00
   outer loop
     vertex  5.000000e+00  7.000000e+00  1.000000e+00
     vertex  6.000000e+00  6.000000e+00  1.000000e+00
     vertex  1.500000e+01  7.000000e+00  1.000000e+00
   endloop
 endfacet
 facet normal -0.000000e+00  0.000000e+00  1.000000e+00
   outer loop
     vertex  5.000000e+00  6.000000e+00  1.000000e+00
     vertex  6.000000e+00  6.000000e+00  1.000000e+00
     vertex  5.000000e+00  7.000000e+00  1.000000e+00
   endloop
 endfacet
 facet normal -9.868649e-17 -1.000000e+00 -0.000000e+00
   outer loop
     vertex  6.000000e+00  6.000000e+00  1.000000e+00
     vertex  6.000000e+00  6.000000e+00  0.000000e+00
     vertex  1.500000e+01  6.000000e+00  0.000000e+00
   endloop
 endfacet
 facet normal -9.868649e-17 -1.000000e+00  0.000000e+00
   outer loop
     vertex  6.000000e+00  6.000000e+00  1.000000e+00
     vertex  1.500000e+01  6.000000e+00  0.000000e+00
     vertex  1.500000e+01  6.000000e+00  1.000000e+00
   endloop
 endfacet
 facet normal  0.000000e+00  0.000000e+00 -1.000000e+00
   outer loop
     vertex  6.000000e+00  6.000000e+00  0.000000e+00
     vertex  1.500000e+01  7.000000e+00  0.000000e+00
     vertex  1.500000e+01  6.000000e+00  0.000000e+00
   endloop
 endfacet
 facet normal  0.000000e+00  0.000000e+00 -1.000000e+00
   outer loop
     vertex  5.000000e+00  7.000000e+00  0.000000e+00
     vertex  1.500000e+01  7.000000e+00  0.000000e+00
     vertex  6.000000e+00  6.000000e+00  0.000000e+00
   endloop
 endfacet
 facet normal  0.000000e+00  0.000000e+00 -1.000000e+00
   outer loop
     vertex  5.000000e+00  6.000000e+00  0.000000e+00
     vertex  5.000000e+00  7.000000e+00  0.000000e+00
     vertex  6.000000e+00  6.000000e+00  0.000000e+00
   endloop
 endfacet
 facet normal -1.000000e+00 -8.881784e-16 -0.000000e+00
   outer loop
     vertex  5.000000e+00  7.000000e+00  1.000000e+00
     vertex  5.000000e+00  7.000000e+00  0.000000e+00
     vertex  5.000000e+00  6.000000e+00  0.000000e+00
   endloop
 endfacet
 facet normal -1.000000e+00 -0.000000e+00 -8.881784e-16
   outer loop
     vertex  5.000000e+00  7.000000e+00  1.000000e+00
     vertex  5.000000e+00  6.000000e+00  0.000000e+00
     vertex  5.000000e+00  6.000000e+00  1.000000e+00
   endloop
 endfacet
 facet normal  8.881784e-16  1.000000e+00  1.776357e-15
   outer loop
     vertex  5.000000e+00  6.000000e+00  1.500000e+00
     vertex  6.000000e+00  6.000000e+00  1.000000e+00
     vertex  5.000000e+00  6.000000e+00  1.000000e+00
   endloop
 endfacet
 facet normal -0.000000e+00  1.000000e+00  0.000000e+00
   outer loop
     vertex  5.000000e+00  6.000000e+00  1.500000e+00
     vertex  6.000000e+00  6.000000e+00  1.500000e+00
     vertex  6.000000e+00  6.000000e+00  1.000000e+00
   endloop
 endfacet
 facet normal  1.000000e+00 -2.960595e-16  0.000000e+00
   outer loop
     vertex  6.000000e+00 -6.000000e+00  0.000000e+00
     vertex  6.000000e+00  6.000000e+00  0.000000e+00
     vertex  6.000000e+00  6.000000e+00  1.000000e+00
   endloop
 endfacet
 facet normal  1.000000e+00 -2.960595e-16  0.000000e+00
   outer loop
     vertex  6.000000e+00 -6.000000e+00  1.500000e+00
     vertex  6.000000e+00  6.000000e+00  1.000000e+00
     vertex  6.000000e+00  6.000000e+00  1.500000e+00
   endloop
 endfacet
 facet normal  1.000000e+00 -2.960595e-16  0.000000e+00
   outer loop
     vertex  6.000000e+00 -6.000000e+00  1.500000e+00
     vertex  6.000000e+00 -6.000000e+00  0.000000e+00
     vertex  6.000000e+00  6.000000e+00  1.000000e+00
   endloop
 endfacet
 facet normal  0.000000e+00  0.000000e+00 -1.000000e+00
   outer loop
     vertex  6.000000e+00 -6.000000e+00  0.000000e+00
     vertex  5.000000e+00  6.000000e+00  0.000000e+00
     vertex  6.000000e+00  6.000000e+00  0.000000e+00
   endloop
 endfacet
 facet normal  0.000000e+00  0.000000e+00 -1.000000e+00
   outer loop
     vertex  6.000000e+00 -6.000000e+00  0.000000e+00
     vertex  5.000000e+00 -6.000000e+00  0.000000e+00
     vertex  5.000000e+00  6.000000e+00  0.000000e+00
   endloop
 endfacet
 facet normal -1.000000e+00  2.220446e-16 -8.881784e-16
   outer loop
     vertex  5.000000e+00 -6.000000e+00  0.000000e+00
     vertex  5.000000e+00  6.000000e+00  1.000000e+00
     vertex  5.000000e+00  6.000000e+00  0.000000e+00
   endloop
 endfacet
 facet normal -1.000000e+00  2.960595e-16  3.552714e-15
   outer loop
     vertex  5.000000e+00 -6.000000e+00  1.500000e+00
     vertex  5.000000e+00  6.000000e+00  1.500000e+00
     vertex  5.000000e+00  6.000000e+00  1.000000e+00
   endloop
 endfacet
 facet normal -1.000000e+00  1.480297e-16  0.000000e+00
   outer loop
     vertex  5.000000e+00 -6.000000e+00  1.500000e+00
     vertex  5.000000e+00  6.000000e+00  1.000000e+00
     vertex  5.000000e+00 -6.000000e+00  0.000000e+00
   endloop
 endfacet
 facet normal  0.000000e+00 -0.000000e+00  1.000000e+00
   outer loop
     vertex  6.000000e+00 -6.000000e+00  1.500000e+00
     vertex  6.000000e+00  6.000000e+00  1.500000e+00
     vertex  5.000000e+00  6.000000e+00  1.500000e+00
   endloop
 endfacet
 facet normal  0.000000e+00  0.000000e+00  1.000000e+00
   outer loop
     vertex  6.000000e+00 -6.000000e+00  1.500000e+00
     vertex  5.000000e+00  6.000000e+00  1.500000e+00
     vertex  5.000000e+00 -6.000000e+00  1.500000e+00
   endloop
 endfacet
 facet normal  0.000000e+00 -1.000000e+00  0.000000e+00
   outer loop
     vertex  5.000000e+00 -6.000000e+00  1.500000e+00
     vertex  5.000000e+00 -6.000000e+00  0.000000e+00
     vertex  6.000000e+00 -6.000000e+00  0.000000e+00
   endloop
 endfacet
 facet normal  0.000000e+00 -1.000000e+00  0.000000e+00
   outer loop
     vertex  5.000000e+00 -6.000000e+00  1.500000e+00
     vertex  6.000000e+00 -6.000000e+00  0.000000e+00
     vertex  6.000000e+00 -6.000000e+00  1.500000e+00
   endloop
 endfacet
endsolid
