solid 
<<<<<<< HEAD
 facet normal -2.955202e-01 -1.110223e-16 -9.553365e-01
=======
 facet normal  2.823212e-01 -9.553365e-01 -8.733219e-02
>>>>>>> main
   outer loop
     vertex -8.963159e-01 -6.618580e+00  8.006388e-01
     vertex -2.869412e+00 -7.209620e+00  8.876130e-01
     vertex -1.044076e+00 -6.618580e+00  3.229706e-01
   endloop
 endfacet
<<<<<<< HEAD
 facet normal -2.955202e-01 -5.551115e-17 -9.553365e-01
=======
 facet normal  2.823212e-01 -9.553365e-01 -8.733219e-02
>>>>>>> main
   outer loop
     vertex -8.963159e-01 -6.618580e+00  8.006388e-01
     vertex -2.721652e+00 -7.209620e+00  1.365281e+00
     vertex -2.869412e+00 -7.209620e+00  8.876130e-01
   endloop
 endfacet
 facet normal  9.126678e-01  2.955202e-01 -2.823212e-01
   outer loop
<<<<<<< HEAD
     vertex -3.542217e+00 -2.432938e+00  3.712615e+00
     vertex -4.281018e+00 -2.432938e+00  1.324274e+00
     vertex -3.716375e+00 -4.343611e+00  1.149610e+00
=======
     vertex -1.743280e+00 -3.752570e+00  1.062635e+00
     vertex -1.044076e+00 -6.618580e+00  3.229706e-01
     vertex -1.891040e+00 -3.752570e+00  5.849671e-01
>>>>>>> main
   endloop
 endfacet
 facet normal  9.126678e-01  2.955202e-01 -2.823212e-01
   outer loop
<<<<<<< HEAD
     vertex -3.542217e+00 -2.432938e+00  3.712615e+00
     vertex -3.716375e+00 -4.343611e+00  1.149610e+00
     vertex -2.977575e+00 -4.343611e+00  3.537951e+00
=======
     vertex -1.743280e+00 -3.752570e+00  1.062635e+00
     vertex -8.963159e-01 -6.618580e+00  8.006388e-01
     vertex -1.044076e+00 -6.618580e+00  3.229706e-01
>>>>>>> main
   endloop
 endfacet
 facet normal  2.955202e-01 -1.850372e-17  9.553365e-01
   outer loop
<<<<<<< HEAD
     vertex -1.716882e+00 -1.841897e+00  3.147973e+00
     vertex -2.455682e+00 -1.841897e+00  7.596315e-01
     vertex -4.281018e+00 -2.432938e+00  1.324274e+00
=======
     vertex -1.743280e+00 -3.752570e+00  1.062635e+00
     vertex -2.721652e+00 -7.209620e+00  1.365281e+00
     vertex -8.963159e-01 -6.618580e+00  8.006388e-01
>>>>>>> main
   endloop
 endfacet
 facet normal  2.955202e-01 -1.850372e-17  9.553365e-01
   outer loop
<<<<<<< HEAD
     vertex -1.716882e+00 -1.841897e+00  3.147973e+00
     vertex -4.281018e+00 -2.432938e+00  1.324274e+00
     vertex -3.542217e+00 -2.432938e+00  3.712615e+00
=======
     vertex -3.568615e+00 -4.343611e+00  1.627278e+00
     vertex -2.721652e+00 -7.209620e+00  1.365281e+00
     vertex -1.743280e+00 -3.752570e+00  1.062635e+00
>>>>>>> main
   endloop
 endfacet
 facet normal -9.126678e-01 -2.955202e-01  2.823212e-01
   outer loop
     vertex -3.568615e+00 -4.343611e+00  1.627278e+00
     vertex -3.716375e+00 -4.343611e+00  1.149610e+00
     vertex -2.869412e+00 -7.209620e+00  8.876130e-01
   endloop
 endfacet
<<<<<<< HEAD
 facet normal -2.955202e-01  3.700743e-17 -9.553365e-01
=======
 facet normal -9.126678e-01 -2.955202e-01  2.823212e-01
>>>>>>> main
   outer loop
     vertex -3.568615e+00 -4.343611e+00  1.627278e+00
     vertex -2.869412e+00 -7.209620e+00  8.876130e-01
     vertex -2.721652e+00 -7.209620e+00  1.365281e+00
   endloop
 endfacet
 facet normal -2.955202e-01 -9.251859e-17 -9.553365e-01
   outer loop
     vertex -1.891040e+00 -3.752570e+00  5.849671e-01
     vertex -1.044076e+00 -6.618580e+00  3.229706e-01
     vertex -2.869412e+00 -7.209620e+00  8.876130e-01
   endloop
 endfacet
<<<<<<< HEAD
 facet normal -2.955202e-01 -3.700743e-17 -9.553365e-01
=======
 facet normal -2.955202e-01  0.000000e+00 -9.553365e-01
>>>>>>> main
   outer loop
     vertex -3.716375e+00 -4.343611e+00  1.149610e+00
     vertex -1.891040e+00 -3.752570e+00  5.849671e-01
     vertex -2.869412e+00 -7.209620e+00  8.876130e-01
   endloop
 endfacet
<<<<<<< HEAD
 facet normal  2.955202e-01 -5.551115e-17  9.553365e-01
   outer loop
     vertex -3.542217e+00 -2.432938e+00  3.712615e+00
     vertex -2.977575e+00 -4.343611e+00  3.537951e+00
     vertex -1.152239e+00 -3.752570e+00  2.973308e+00
=======
 facet normal  2.823212e-01 -9.553365e-01 -8.733219e-02
   outer loop
     vertex  3.732727e+00 -1.979449e+00 -6.312920e-01
     vertex -1.891040e+00 -3.752570e+00  5.849671e-01
     vertex  3.584967e+00 -1.979449e+00 -1.108960e+00
   endloop
 endfacet
 facet normal  2.823212e-01 -9.553365e-01 -8.733219e-02
   outer loop
     vertex  3.732727e+00 -1.979449e+00 -6.312920e-01
     vertex -1.743280e+00 -3.752570e+00  1.062635e+00
     vertex -1.891040e+00 -3.752570e+00  5.849671e-01
>>>>>>> main
   endloop
 endfacet
 facet normal  2.955202e-01  2.775558e-17  9.553365e-01
   outer loop
<<<<<<< HEAD
     vertex -3.542217e+00 -2.432938e+00  3.712615e+00
     vertex -1.152239e+00 -3.752570e+00  2.973308e+00
     vertex -1.716882e+00 -1.841897e+00  3.147973e+00
=======
     vertex -2.307922e+00 -1.841897e+00  1.237300e+00
     vertex -4.133258e+00 -2.432938e+00  1.801942e+00
     vertex -3.568615e+00 -4.343611e+00  1.627278e+00
   endloop
 endfacet
 facet normal  2.955202e-01  2.081668e-16  9.553365e-01
   outer loop
     vertex -2.307922e+00 -1.841897e+00  1.237300e+00
     vertex -3.568615e+00 -4.343611e+00  1.627278e+00
     vertex -1.743280e+00 -3.752570e+00  1.062635e+00
>>>>>>> main
   endloop
 endfacet
 facet normal -9.126678e-01 -2.955202e-01  2.823212e-01
   outer loop
<<<<<<< HEAD
     vertex -3.716375e+00 -4.343611e+00  1.149610e+00
     vertex -2.869412e+00 -7.209620e+00  8.876130e-01
     vertex -2.130611e+00 -7.209620e+00  3.275954e+00
=======
     vertex -3.568615e+00 -4.343611e+00  1.627278e+00
     vertex -4.281018e+00 -2.432938e+00  1.324274e+00
     vertex -3.716375e+00 -4.343611e+00  1.149610e+00
>>>>>>> main
   endloop
 endfacet
 facet normal -9.126678e-01 -2.955202e-01  2.823212e-01
   outer loop
<<<<<<< HEAD
     vertex -2.977575e+00 -4.343611e+00  3.537951e+00
     vertex -3.716375e+00 -4.343611e+00  1.149610e+00
     vertex -2.130611e+00 -7.209620e+00  3.275954e+00
=======
     vertex -3.568615e+00 -4.343611e+00  1.627278e+00
     vertex -4.133258e+00 -2.432938e+00  1.801942e+00
     vertex -4.281018e+00 -2.432938e+00  1.324274e+00
>>>>>>> main
   endloop
 endfacet
 facet normal -2.955202e-01 -1.942890e-16 -9.553365e-01
   outer loop
<<<<<<< HEAD
     vertex  3.759125e+00 -6.877587e-02  1.454045e+00
     vertex  3.020325e+00 -6.877587e-02 -9.342959e-01
=======
>>>>>>> main
     vertex -2.455682e+00 -1.841897e+00  7.596315e-01
     vertex -3.716375e+00 -4.343611e+00  1.149610e+00
     vertex -4.281018e+00 -2.432938e+00  1.324274e+00
   endloop
 endfacet
 facet normal -2.955202e-01 -2.567391e-16 -9.553365e-01
   outer loop
<<<<<<< HEAD
     vertex  3.759125e+00 -6.877587e-02  1.454045e+00
     vertex -2.455682e+00 -1.841897e+00  7.596315e-01
     vertex -1.716882e+00 -1.841897e+00  3.147973e+00
   endloop
 endfacet
 facet normal -2.955202e-01  5.551115e-17 -9.553365e-01
=======
     vertex -2.455682e+00 -1.841897e+00  7.596315e-01
     vertex -1.891040e+00 -3.752570e+00  5.849671e-01
     vertex -3.716375e+00 -4.343611e+00  1.149610e+00
   endloop
 endfacet
 facet normal -2.955202e-01 -2.960595e-16 -9.553365e-01
>>>>>>> main
   outer loop
     vertex  3.020325e+00 -6.877587e-02 -9.342959e-01
     vertex -1.891040e+00 -3.752570e+00  5.849671e-01
     vertex -2.455682e+00 -1.841897e+00  7.596315e-01
   endloop
 endfacet
 facet normal -2.955202e-01 -1.202742e-16 -9.553365e-01
   outer loop
     vertex  3.020325e+00 -6.877587e-02 -9.342959e-01
     vertex  3.584967e+00 -1.979449e+00 -1.108960e+00
     vertex -1.891040e+00 -3.752570e+00  5.849671e-01
   endloop
 endfacet
 facet normal -9.126678e-01 -2.955202e-01  2.823212e-01
   outer loop
<<<<<<< HEAD
     vertex  4.323768e+00 -1.979449e+00  1.279381e+00
     vertex -1.891040e+00 -3.752570e+00  5.849671e-01
=======
     vertex  3.732727e+00 -1.979449e+00 -6.312920e-01
>>>>>>> main
     vertex  3.584967e+00 -1.979449e+00 -1.108960e+00
     vertex  4.431931e+00 -4.845458e+00 -1.370957e+00
   endloop
 endfacet
 facet normal -9.126678e-01 -2.955202e-01  2.823212e-01
   outer loop
<<<<<<< HEAD
     vertex  4.323768e+00 -1.979449e+00  1.279381e+00
     vertex -1.152239e+00 -3.752570e+00  2.973308e+00
     vertex -1.891040e+00 -3.752570e+00  5.849671e-01
   endloop
 endfacet
 facet normal  9.126678e-01  2.955202e-01 -2.823212e-01
   outer loop
     vertex -1.152239e+00 -3.752570e+00  2.973308e+00
     vertex -1.044076e+00 -6.618580e+00  3.229706e-01
     vertex -1.891040e+00 -3.752570e+00  5.849671e-01
   endloop
 endfacet
 facet normal  9.126678e-01  2.955202e-01 -2.823212e-01
   outer loop
     vertex -1.152239e+00 -3.752570e+00  2.973308e+00
     vertex -3.052755e-01 -6.618580e+00  2.711312e+00
     vertex -1.044076e+00 -6.618580e+00  3.229706e-01
   endloop
 endfacet
 facet normal  2.823212e-01 -9.553365e-01 -8.733219e-02
   outer loop
     vertex -3.052755e-01 -6.618580e+00  2.711312e+00
     vertex -2.869412e+00 -7.209620e+00  8.876130e-01
     vertex -1.044076e+00 -6.618580e+00  3.229706e-01
   endloop
 endfacet
 facet normal  2.823212e-01 -9.553365e-01 -8.733219e-02
   outer loop
     vertex -3.052755e-01 -6.618580e+00  2.711312e+00
     vertex -2.130611e+00 -7.209620e+00  3.275954e+00
     vertex -2.869412e+00 -7.209620e+00  8.876130e-01
=======
     vertex  3.732727e+00 -1.979449e+00 -6.312920e-01
     vertex  4.431931e+00 -4.845458e+00 -1.370957e+00
     vertex  4.579691e+00 -4.845458e+00 -8.932886e-01
>>>>>>> main
   endloop
 endfacet
 facet normal  2.955202e-01  1.480297e-16  9.553365e-01
   outer loop
<<<<<<< HEAD
     vertex  4.323768e+00 -1.979449e+00  1.279381e+00
     vertex -1.716882e+00 -1.841897e+00  3.147973e+00
     vertex -1.152239e+00 -3.752570e+00  2.973308e+00
   endloop
 endfacet
 facet normal  2.955202e-01  1.110223e-16  9.553365e-01
   outer loop
     vertex  3.759125e+00 -6.877587e-02  1.454045e+00
     vertex -1.716882e+00 -1.841897e+00  3.147973e+00
     vertex  4.323768e+00 -1.979449e+00  1.279381e+00
   endloop
 endfacet
 facet normal  2.955202e-01  2.775558e-17  9.553365e-01
   outer loop
     vertex -1.152239e+00 -3.752570e+00  2.973308e+00
     vertex -2.130611e+00 -7.209620e+00  3.275954e+00
     vertex -3.052755e-01 -6.618580e+00  2.711312e+00
=======
     vertex  3.168085e+00 -6.877587e-02 -4.566277e-01
     vertex -2.307922e+00 -1.841897e+00  1.237300e+00
     vertex -1.743280e+00 -3.752570e+00  1.062635e+00
   endloop
 endfacet
 facet normal  2.955202e-01  1.202742e-16  9.553365e-01
   outer loop
     vertex  3.168085e+00 -6.877587e-02 -4.566277e-01
     vertex -1.743280e+00 -3.752570e+00  1.062635e+00
     vertex  3.732727e+00 -1.979449e+00 -6.312920e-01
   endloop
 endfacet
 facet normal -2.823212e-01  9.553365e-01  8.733219e-02
   outer loop
     vertex -2.307922e+00 -1.841897e+00  1.237300e+00
     vertex -2.455682e+00 -1.841897e+00  7.596315e-01
     vertex -4.281018e+00 -2.432938e+00  1.324274e+00
>>>>>>> main
   endloop
 endfacet
 facet normal -2.823212e-01  9.553365e-01  8.733219e-02
   outer loop
<<<<<<< HEAD
     vertex -2.977575e+00 -4.343611e+00  3.537951e+00
     vertex -2.130611e+00 -7.209620e+00  3.275954e+00
     vertex -1.152239e+00 -3.752570e+00  2.973308e+00
=======
     vertex -2.307922e+00 -1.841897e+00  1.237300e+00
     vertex -4.281018e+00 -2.432938e+00  1.324274e+00
     vertex -4.133258e+00 -2.432938e+00  1.801942e+00
>>>>>>> main
   endloop
 endfacet
 facet normal -2.823212e-01  9.553365e-01  8.733219e-02
   outer loop
<<<<<<< HEAD
     vertex  5.584461e+00  5.222645e-01  8.894028e-01
     vertex  4.845660e+00  5.222645e-01 -1.498938e+00
=======
     vertex  3.168085e+00 -6.877587e-02 -4.566277e-01
>>>>>>> main
     vertex  3.020325e+00 -6.877587e-02 -9.342959e-01
     vertex -2.455682e+00 -1.841897e+00  7.596315e-01
   endloop
 endfacet
 facet normal -2.823212e-01  9.553365e-01  8.733219e-02
   outer loop
<<<<<<< HEAD
     vertex  5.584461e+00  5.222645e-01  8.894028e-01
     vertex  3.020325e+00 -6.877587e-02 -9.342959e-01
     vertex  3.759125e+00 -6.877587e-02  1.454045e+00
=======
     vertex  3.168085e+00 -6.877587e-02 -4.566277e-01
     vertex -2.455682e+00 -1.841897e+00  7.596315e-01
     vertex -2.307922e+00 -1.841897e+00  1.237300e+00
>>>>>>> main
   endloop
 endfacet
 facet normal -2.955202e-01 -1.526557e-16 -9.553365e-01
   outer loop
<<<<<<< HEAD
     vertex  5.584461e+00  5.222645e-01  8.894028e-01
=======
     vertex  3.020325e+00 -6.877587e-02 -9.342959e-01
>>>>>>> main
     vertex  5.410303e+00 -1.388408e+00 -1.673603e+00
     vertex  3.584967e+00 -1.979449e+00 -1.108960e+00
   endloop
 endfacet
 facet normal -2.955202e-01  2.775558e-17 -9.553365e-01
   outer loop
<<<<<<< HEAD
     vertex  5.584461e+00  5.222645e-01  8.894028e-01
     vertex  6.149103e+00 -1.388408e+00  7.147385e-01
=======
     vertex  4.845660e+00  5.222645e-01 -1.498938e+00
>>>>>>> main
     vertex  5.410303e+00 -1.388408e+00 -1.673603e+00
     vertex  3.020325e+00 -6.877587e-02 -9.342959e-01
   endloop
 endfacet
 facet normal -2.955202e-01 -3.700743e-17 -9.553365e-01
   outer loop
     vertex  5.410303e+00 -1.388408e+00 -1.673603e+00
     vertex  6.257266e+00 -4.254418e+00 -1.935599e+00
     vertex  4.431931e+00 -4.845458e+00 -1.370957e+00
   endloop
 endfacet
<<<<<<< HEAD
 facet normal -2.955202e-01 -1.110223e-16 -9.553365e-01
=======
 facet normal -2.955202e-01 -5.551115e-17 -9.553365e-01
>>>>>>> main
   outer loop
     vertex  3.584967e+00 -1.979449e+00 -1.108960e+00
     vertex  5.410303e+00 -1.388408e+00 -1.673603e+00
     vertex  4.431931e+00 -4.845458e+00 -1.370957e+00
   endloop
 endfacet
 facet normal  2.955202e-01  4.625929e-17  9.553365e-01
   outer loop
<<<<<<< HEAD
     vertex  3.584967e+00 -1.979449e+00 -1.108960e+00
     vertex  4.431931e+00 -4.845458e+00 -1.370957e+00
     vertex  5.170731e+00 -4.845458e+00  1.017384e+00
=======
     vertex  5.558063e+00 -1.388408e+00 -1.195935e+00
     vertex  4.579691e+00 -4.845458e+00 -8.932886e-01
     vertex  6.405027e+00 -4.254418e+00 -1.457931e+00
>>>>>>> main
   endloop
 endfacet
 facet normal  2.955202e-01  8.326673e-17  9.553365e-01
   outer loop
<<<<<<< HEAD
     vertex  4.323768e+00 -1.979449e+00  1.279381e+00
     vertex  3.584967e+00 -1.979449e+00 -1.108960e+00
     vertex  5.170731e+00 -4.845458e+00  1.017384e+00
   endloop
 endfacet
 facet normal  2.955202e-01  1.526557e-16  9.553365e-01
=======
     vertex  3.732727e+00 -1.979449e+00 -6.312920e-01
     vertex  4.579691e+00 -4.845458e+00 -8.932886e-01
     vertex  5.558063e+00 -1.388408e+00 -1.195935e+00
   endloop
 endfacet
 facet normal  2.823212e-01 -9.553365e-01 -8.733219e-02
   outer loop
     vertex  6.405027e+00 -4.254418e+00 -1.457931e+00
     vertex  4.431931e+00 -4.845458e+00 -1.370957e+00
     vertex  6.257266e+00 -4.254418e+00 -1.935599e+00
   endloop
 endfacet
 facet normal  2.823212e-01 -9.553365e-01 -8.733219e-02
   outer loop
     vertex  6.405027e+00 -4.254418e+00 -1.457931e+00
     vertex  4.579691e+00 -4.845458e+00 -8.932886e-01
     vertex  4.431931e+00 -4.845458e+00 -1.370957e+00
   endloop
 endfacet
 facet normal  2.955202e-01  1.665335e-16  9.553365e-01
>>>>>>> main
   outer loop
     vertex  3.759125e+00 -6.877587e-02  1.454045e+00
     vertex  4.323768e+00 -1.979449e+00  1.279381e+00
     vertex  6.149103e+00 -1.388408e+00  7.147385e-01
   endloop
 endfacet
 facet normal  2.955202e-01 -2.775558e-17  9.553365e-01
   outer loop
<<<<<<< HEAD
     vertex  3.759125e+00 -6.877587e-02  1.454045e+00
     vertex  6.149103e+00 -1.388408e+00  7.147385e-01
     vertex  5.584461e+00  5.222645e-01  8.894028e-01
=======
     vertex  4.993420e+00  5.222645e-01 -1.021270e+00
     vertex  3.168085e+00 -6.877587e-02 -4.566277e-01
     vertex  5.558063e+00 -1.388408e+00 -1.195935e+00
   endloop
 endfacet
 facet normal -2.823212e-01  9.553365e-01  8.733219e-02
   outer loop
     vertex  4.993420e+00  5.222645e-01 -1.021270e+00
     vertex  4.845660e+00  5.222645e-01 -1.498938e+00
     vertex  3.020325e+00 -6.877587e-02 -9.342959e-01
   endloop
 endfacet
 facet normal -2.823212e-01  9.553365e-01  8.733219e-02
   outer loop
     vertex  4.993420e+00  5.222645e-01 -1.021270e+00
     vertex  3.020325e+00 -6.877587e-02 -9.342959e-01
     vertex  3.168085e+00 -6.877587e-02 -4.566277e-01
>>>>>>> main
   endloop
 endfacet
 facet normal  9.126678e-01  2.955202e-01 -2.823212e-01
   outer loop
<<<<<<< HEAD
     vertex  6.149103e+00 -1.388408e+00  7.147385e-01
     vertex  6.257266e+00 -4.254418e+00 -1.935599e+00
=======
     vertex  5.558063e+00 -1.388408e+00 -1.195935e+00
>>>>>>> main
     vertex  5.410303e+00 -1.388408e+00 -1.673603e+00
     vertex  4.845660e+00  5.222645e-01 -1.498938e+00
   endloop
 endfacet
 facet normal  9.126678e-01  2.955202e-01 -2.823212e-01
   outer loop
<<<<<<< HEAD
     vertex  6.149103e+00 -1.388408e+00  7.147385e-01
     vertex  6.996067e+00 -4.254418e+00  4.527419e-01
     vertex  6.257266e+00 -4.254418e+00 -1.935599e+00
=======
     vertex  5.558063e+00 -1.388408e+00 -1.195935e+00
     vertex  4.845660e+00  5.222645e-01 -1.498938e+00
     vertex  4.993420e+00  5.222645e-01 -1.021270e+00
>>>>>>> main
   endloop
 endfacet
 facet normal  9.126678e-01  2.955202e-01 -2.823212e-01
   outer loop
<<<<<<< HEAD
     vertex  6.996067e+00 -4.254418e+00  4.527419e-01
     vertex  4.431931e+00 -4.845458e+00 -1.370957e+00
=======
     vertex  5.558063e+00 -1.388408e+00 -1.195935e+00
>>>>>>> main
     vertex  6.257266e+00 -4.254418e+00 -1.935599e+00
     vertex  5.410303e+00 -1.388408e+00 -1.673603e+00
   endloop
 endfacet
<<<<<<< HEAD
 facet normal  2.823212e-01 -9.553365e-01 -8.733219e-02
   outer loop
     vertex  6.996067e+00 -4.254418e+00  4.527419e-01
     vertex  5.170731e+00 -4.845458e+00  1.017384e+00
     vertex  4.431931e+00 -4.845458e+00 -1.370957e+00
   endloop
 endfacet
 facet normal  2.955202e-01  4.625929e-17  9.553365e-01
   outer loop
     vertex  6.149103e+00 -1.388408e+00  7.147385e-01
     vertex  5.170731e+00 -4.845458e+00  1.017384e+00
     vertex  6.996067e+00 -4.254418e+00  4.527419e-01
   endloop
 endfacet
 facet normal  2.955202e-01  5.551115e-17  9.553365e-01
   outer loop
     vertex  4.323768e+00 -1.979449e+00  1.279381e+00
     vertex  5.170731e+00 -4.845458e+00  1.017384e+00
     vertex  6.149103e+00 -1.388408e+00  7.147385e-01
=======
 facet normal  9.126678e-01  2.955202e-01 -2.823212e-01
   outer loop
     vertex  5.558063e+00 -1.388408e+00 -1.195935e+00
     vertex  6.405027e+00 -4.254418e+00 -1.457931e+00
     vertex  6.257266e+00 -4.254418e+00 -1.935599e+00
>>>>>>> main
   endloop
 endfacet
 facet normal  2.823212e-01 -9.553365e-01 -8.733219e-02
   outer loop
     vertex -2.281524e+00  6.877587e-02  3.322637e+00
     vertex -4.845660e+00 -5.222645e-01  1.498938e+00
     vertex -3.020325e+00  6.877587e-02  9.342959e-01
   endloop
 endfacet
 facet normal  2.823212e-01 -9.553365e-01 -8.733219e-02
   outer loop
     vertex -2.281524e+00  6.877587e-02  3.322637e+00
     vertex -4.106860e+00 -5.222645e-01  3.887280e+00
     vertex -4.845660e+00 -5.222645e-01  1.498938e+00
   endloop
 endfacet
 facet normal -2.955202e-01  0.000000e+00 -9.553365e-01
   outer loop
     vertex -3.584967e+00  1.979449e+00  1.108960e+00
     vertex -4.845660e+00 -5.222645e-01  1.498938e+00
     vertex -5.410303e+00  1.388408e+00  1.673603e+00
   endloop
 endfacet
 facet normal -2.955202e-01 -6.938894e-18 -9.553365e-01
   outer loop
     vertex -3.584967e+00  1.979449e+00  1.108960e+00
     vertex -3.020325e+00  6.877587e-02  9.342959e-01
     vertex -4.845660e+00 -5.222645e-01  1.498938e+00
   endloop
 endfacet
 facet normal  2.823212e-01 -9.553365e-01 -8.733219e-02
   outer loop
     vertex  3.194483e+00  1.841897e+00  1.628710e+00
     vertex -3.020325e+00  6.877587e-02  9.342959e-01
     vertex  2.455682e+00  1.841897e+00 -7.596315e-01
   endloop
 endfacet
 facet normal  2.823212e-01 -9.553365e-01 -8.733219e-02
   outer loop
     vertex  3.194483e+00  1.841897e+00  1.628710e+00
     vertex -2.281524e+00  6.877587e-02  3.322637e+00
     vertex -3.020325e+00  6.877587e-02  9.342959e-01
   endloop
 endfacet
<<<<<<< HEAD
 facet normal  2.955202e-01 -5.551115e-17  9.553365e-01
   outer loop
     vertex -4.671502e+00  1.388408e+00  4.061944e+00
     vertex -4.106860e+00 -5.222645e-01  3.887280e+00
     vertex -2.281524e+00  6.877587e-02  3.322637e+00
=======
 facet normal  2.955202e-01  2.220446e-16  9.553365e-01
   outer loop
     vertex -3.437207e+00  1.979449e+00  1.586629e+00
     vertex -5.262543e+00  1.388408e+00  2.151271e+00
     vertex -4.697900e+00 -5.222645e-01  1.976607e+00
>>>>>>> main
   endloop
 endfacet
 facet normal  2.955202e-01  1.595946e-16  9.553365e-01
   outer loop
<<<<<<< HEAD
     vertex -4.671502e+00  1.388408e+00  4.061944e+00
     vertex -2.281524e+00  6.877587e-02  3.322637e+00
     vertex -2.846167e+00  1.979449e+00  3.497302e+00
=======
     vertex -3.437207e+00  1.979449e+00  1.586629e+00
     vertex -4.697900e+00 -5.222645e-01  1.976607e+00
     vertex -2.872565e+00  6.877587e-02  1.411964e+00
>>>>>>> main
   endloop
 endfacet
 facet normal -9.126678e-01 -2.955202e-01  2.823212e-01
   outer loop
<<<<<<< HEAD
     vertex -4.106860e+00 -5.222645e-01  3.887280e+00
=======
     vertex -4.697900e+00 -5.222645e-01  1.976607e+00
>>>>>>> main
     vertex -5.410303e+00  1.388408e+00  1.673603e+00
     vertex -4.845660e+00 -5.222645e-01  1.498938e+00
   endloop
 endfacet
 facet normal -9.126678e-01 -2.955202e-01  2.823212e-01
   outer loop
<<<<<<< HEAD
     vertex -4.671502e+00  1.388408e+00  4.061944e+00
     vertex -5.410303e+00  1.388408e+00  1.673603e+00
     vertex -4.106860e+00 -5.222645e-01  3.887280e+00
   endloop
 endfacet
 facet normal -2.955202e-01  6.245005e-17 -9.553365e-01
   outer loop
     vertex -3.584967e+00  1.979449e+00  1.108960e+00
     vertex -3.020325e+00  6.877587e-02  9.342959e-01
     vertex -4.845660e+00 -5.222645e-01  1.498938e+00
   endloop
 endfacet
 facet normal -2.955202e-01  1.387779e-17 -9.553365e-01
=======
     vertex -4.697900e+00 -5.222645e-01  1.976607e+00
     vertex -5.262543e+00  1.388408e+00  2.151271e+00
     vertex -5.410303e+00  1.388408e+00  1.673603e+00
   endloop
 endfacet
 facet normal -2.955202e-01  0.000000e+00 -9.553365e-01
   outer loop
     vertex -6.257266e+00  4.254418e+00  1.935599e+00
     vertex -3.584967e+00  1.979449e+00  1.108960e+00
     vertex -5.410303e+00  1.388408e+00  1.673603e+00
   endloop
 endfacet
 facet normal -2.955202e-01 -1.480297e-16 -9.553365e-01
>>>>>>> main
   outer loop
     vertex -6.257266e+00  4.254418e+00  1.935599e+00
     vertex -4.431931e+00  4.845458e+00  1.370957e+00
     vertex -3.584967e+00  1.979449e+00  1.108960e+00
<<<<<<< HEAD
     vertex -4.845660e+00 -5.222645e-01  1.498938e+00
=======
>>>>>>> main
   endloop
 endfacet
 facet normal -2.955202e-01  0.000000e+00 -9.553365e-01
   outer loop
     vertex  2.455682e+00  1.841897e+00 -7.596315e-01
     vertex -3.020325e+00  6.877587e-02  9.342959e-01
     vertex -3.584967e+00  1.979449e+00  1.108960e+00
   endloop
 endfacet
 facet normal -2.955202e-01 -4.625929e-17 -9.553365e-01
   outer loop
     vertex  1.891040e+00  3.752570e+00 -5.849671e-01
     vertex  2.455682e+00  1.841897e+00 -7.596315e-01
     vertex -3.584967e+00  1.979449e+00  1.108960e+00
   endloop
 endfacet
 facet normal  2.823212e-01 -9.553365e-01 -8.733219e-02
   outer loop
     vertex  5.019818e+00  2.432938e+00  1.064067e+00
     vertex  2.455682e+00  1.841897e+00 -7.596315e-01
     vertex  4.281018e+00  2.432938e+00 -1.324274e+00
   endloop
 endfacet
 facet normal  2.823212e-01 -9.553365e-01 -8.733219e-02
   outer loop
     vertex  5.019818e+00  2.432938e+00  1.064067e+00
     vertex  3.194483e+00  1.841897e+00  1.628710e+00
     vertex  2.455682e+00  1.841897e+00 -7.596315e-01
   endloop
 endfacet
 facet normal  2.955202e-01  1.480297e-16  9.553365e-01
   outer loop
     vertex  3.194483e+00  1.841897e+00  1.628710e+00
     vertex -2.846167e+00  1.979449e+00  3.497302e+00
     vertex -2.281524e+00  6.877587e-02  3.322637e+00
   endloop
 endfacet
<<<<<<< HEAD
 facet normal  2.955202e-01  3.515706e-16  9.553365e-01
=======
 facet normal  2.955202e-01  6.476301e-17  9.553365e-01
>>>>>>> main
   outer loop
     vertex  2.629840e+00  3.752570e+00  1.803374e+00
     vertex -2.846167e+00  1.979449e+00  3.497302e+00
     vertex  3.194483e+00  1.841897e+00  1.628710e+00
   endloop
 endfacet
 facet normal  2.955202e-01 -7.401487e-17  9.553365e-01
   outer loop
     vertex -5.518466e+00  4.254418e+00  4.323941e+00
     vertex -4.671502e+00  1.388408e+00  4.061944e+00
     vertex -2.846167e+00  1.979449e+00  3.497302e+00
   endloop
 endfacet
 facet normal  2.955202e-01  1.480297e-16  9.553365e-01
   outer loop
     vertex -5.518466e+00  4.254418e+00  4.323941e+00
     vertex -2.846167e+00  1.979449e+00  3.497302e+00
     vertex -3.693130e+00  4.845458e+00  3.759298e+00
   endloop
 endfacet
 facet normal -9.126678e-01 -2.955202e-01  2.823212e-01
   outer loop
     vertex -6.257266e+00  4.254418e+00  1.935599e+00
     vertex -5.410303e+00  1.388408e+00  1.673603e+00
     vertex -4.671502e+00  1.388408e+00  4.061944e+00
   endloop
 endfacet
 facet normal -9.126678e-01 -2.955202e-01  2.823212e-01
   outer loop
     vertex -5.518466e+00  4.254418e+00  4.323941e+00
     vertex -6.257266e+00  4.254418e+00  1.935599e+00
     vertex -4.671502e+00  1.388408e+00  4.061944e+00
   endloop
 endfacet
<<<<<<< HEAD
 facet normal -2.955202e-01 -5.551115e-17 -9.553365e-01
=======
 facet normal -2.823212e-01  9.553365e-01  8.733219e-02
>>>>>>> main
   outer loop
     vertex -4.284171e+00  4.845458e+00  1.848625e+00
     vertex -4.431931e+00  4.845458e+00  1.370957e+00
     vertex -6.257266e+00  4.254418e+00  1.935599e+00
   endloop
 endfacet
<<<<<<< HEAD
 facet normal -2.955202e-01 -2.220446e-16 -9.553365e-01
=======
 facet normal -2.823212e-01  9.553365e-01  8.733219e-02
>>>>>>> main
   outer loop
     vertex -4.284171e+00  4.845458e+00  1.848625e+00
     vertex -6.257266e+00  4.254418e+00  1.935599e+00
     vertex -6.109506e+00  4.254418e+00  2.413268e+00
   endloop
 endfacet
 facet normal  9.126678e-01  2.955202e-01 -2.823212e-01
   outer loop
     vertex -4.284171e+00  4.845458e+00  1.848625e+00
     vertex -3.584967e+00  1.979449e+00  1.108960e+00
     vertex -4.431931e+00  4.845458e+00  1.370957e+00
   endloop
 endfacet
 facet normal  9.126678e-01  2.955202e-01 -2.823212e-01
   outer loop
     vertex -4.284171e+00  4.845458e+00  1.848625e+00
     vertex -3.437207e+00  1.979449e+00  1.586629e+00
     vertex -3.584967e+00  1.979449e+00  1.108960e+00
   endloop
 endfacet
 facet normal -2.823212e-01  9.553365e-01  8.733219e-02
   outer loop
     vertex  2.629840e+00  3.752570e+00  1.803374e+00
     vertex  1.891040e+00  3.752570e+00 -5.849671e-01
     vertex -3.584967e+00  1.979449e+00  1.108960e+00
   endloop
 endfacet
 facet normal -2.823212e-01  9.553365e-01  8.733219e-02
   outer loop
     vertex  2.629840e+00  3.752570e+00  1.803374e+00
     vertex -3.584967e+00  1.979449e+00  1.108960e+00
     vertex -2.846167e+00  1.979449e+00  3.497302e+00
   endloop
 endfacet
 facet normal -2.955202e-01 -1.526557e-16 -9.553365e-01
   outer loop
     vertex  1.891040e+00  3.752570e+00 -5.849671e-01
     vertex  4.281018e+00  2.432938e+00 -1.324274e+00
     vertex  2.455682e+00  1.841897e+00 -7.596315e-01
   endloop
 endfacet
 facet normal -2.955202e-01 -1.387779e-17 -9.553365e-01
   outer loop
     vertex  3.716375e+00  4.343611e+00 -1.149610e+00
     vertex  4.281018e+00  2.432938e+00 -1.324274e+00
     vertex  1.891040e+00  3.752570e+00 -5.849671e-01
   endloop
 endfacet
 facet normal  9.126678e-01  2.955202e-01 -2.823212e-01
   outer loop
<<<<<<< HEAD
     vertex  4.455176e+00  4.343611e+00  1.238732e+00
=======
     vertex  4.428778e+00  2.432938e+00 -8.466057e-01
>>>>>>> main
     vertex  4.281018e+00  2.432938e+00 -1.324274e+00
     vertex  3.716375e+00  4.343611e+00 -1.149610e+00
   endloop
 endfacet
 facet normal  9.126678e-01  2.955202e-01 -2.823212e-01
   outer loop
<<<<<<< HEAD
     vertex  4.455176e+00  4.343611e+00  1.238732e+00
     vertex  5.019818e+00  2.432938e+00  1.064067e+00
     vertex  4.281018e+00  2.432938e+00 -1.324274e+00
=======
     vertex  4.428778e+00  2.432938e+00 -8.466057e-01
     vertex  3.716375e+00  4.343611e+00 -1.149610e+00
     vertex  3.864135e+00  4.343611e+00 -6.719414e-01
>>>>>>> main
   endloop
 endfacet
 facet normal  2.955202e-01  4.718448e-16  9.553365e-01
   outer loop
     vertex  2.629840e+00  3.752570e+00  1.803374e+00
     vertex  3.194483e+00  1.841897e+00  1.628710e+00
     vertex  5.019818e+00  2.432938e+00  1.064067e+00
   endloop
 endfacet
<<<<<<< HEAD
 facet normal  2.955202e-01 -5.551115e-17  9.553365e-01
   outer loop
     vertex  2.629840e+00  3.752570e+00  1.803374e+00
     vertex  5.019818e+00  2.432938e+00  1.064067e+00
     vertex  4.455176e+00  4.343611e+00  1.238732e+00
   endloop
 endfacet
 facet normal -2.823212e-01  9.553365e-01  8.733219e-02
   outer loop
     vertex -3.693130e+00  4.845458e+00  3.759298e+00
     vertex -4.431931e+00  4.845458e+00  1.370957e+00
     vertex -6.257266e+00  4.254418e+00  1.935599e+00
   endloop
 endfacet
 facet normal -2.823212e-01  9.553365e-01  8.733219e-02
   outer loop
     vertex -3.693130e+00  4.845458e+00  3.759298e+00
     vertex -6.257266e+00  4.254418e+00  1.935599e+00
     vertex -5.518466e+00  4.254418e+00  4.323941e+00
   endloop
 endfacet
 facet normal  9.126678e-01  2.955202e-01 -2.823212e-01
   outer loop
     vertex -3.693130e+00  4.845458e+00  3.759298e+00
     vertex -3.584967e+00  1.979449e+00  1.108960e+00
     vertex -4.431931e+00  4.845458e+00  1.370957e+00
   endloop
 endfacet
 facet normal  9.126678e-01  2.955202e-01 -2.823212e-01
   outer loop
     vertex -3.693130e+00  4.845458e+00  3.759298e+00
     vertex -2.846167e+00  1.979449e+00  3.497302e+00
     vertex -3.584967e+00  1.979449e+00  1.108960e+00
=======
 facet normal  2.955202e-01  4.163336e-17  9.553365e-01
   outer loop
     vertex  3.864135e+00  4.343611e+00 -6.719414e-01
     vertex  2.038800e+00  3.752570e+00 -1.072989e-01
     vertex  4.428778e+00  2.432938e+00 -8.466057e-01
>>>>>>> main
   endloop
 endfacet
 facet normal -9.126678e-01 -2.955202e-01  2.823212e-01
   outer loop
     vertex  1.782877e+00  6.618580e+00  2.065371e+00
     vertex  1.044076e+00  6.618580e+00 -3.229706e-01
     vertex  1.891040e+00  3.752570e+00 -5.849671e-01
   endloop
 endfacet
 facet normal -9.126678e-01 -2.955202e-01  2.823212e-01
   outer loop
     vertex  1.782877e+00  6.618580e+00  2.065371e+00
     vertex  1.891040e+00  3.752570e+00 -5.849671e-01
     vertex  2.629840e+00  3.752570e+00  1.803374e+00
   endloop
 endfacet
 facet normal -2.955202e-01 -1.110223e-16 -9.553365e-01
   outer loop
     vertex  1.044076e+00  6.618580e+00 -3.229706e-01
     vertex  3.716375e+00  4.343611e+00 -1.149610e+00
     vertex  1.891040e+00  3.752570e+00 -5.849671e-01
   endloop
 endfacet
 facet normal -2.955202e-01  3.700743e-17 -9.553365e-01
   outer loop
     vertex  1.044076e+00  6.618580e+00 -3.229706e-01
     vertex  2.869412e+00  7.209620e+00 -8.876130e-01
     vertex  3.716375e+00  4.343611e+00 -1.149610e+00
   endloop
 endfacet
 facet normal  9.126678e-01  2.955202e-01 -2.823212e-01
   outer loop
     vertex  3.608212e+00  7.209620e+00  1.500728e+00
     vertex  3.716375e+00  4.343611e+00 -1.149610e+00
     vertex  2.869412e+00  7.209620e+00 -8.876130e-01
   endloop
 endfacet
 facet normal  9.126678e-01  2.955202e-01 -2.823212e-01
   outer loop
     vertex  3.608212e+00  7.209620e+00  1.500728e+00
     vertex  4.455176e+00  4.343611e+00  1.238732e+00
     vertex  3.716375e+00  4.343611e+00 -1.149610e+00
   endloop
 endfacet
 facet normal  2.955202e-01  0.000000e+00  9.553365e-01
   outer loop
     vertex  1.782877e+00  6.618580e+00  2.065371e+00
     vertex  2.629840e+00  3.752570e+00  1.803374e+00
     vertex  4.455176e+00  4.343611e+00  1.238732e+00
   endloop
 endfacet
 facet normal  2.955202e-01 -1.480297e-16  9.553365e-01
   outer loop
     vertex  1.782877e+00  6.618580e+00  2.065371e+00
     vertex  4.455176e+00  4.343611e+00  1.238732e+00
     vertex  3.608212e+00  7.209620e+00  1.500728e+00
   endloop
 endfacet
 facet normal -2.823212e-01  9.553365e-01  8.733219e-02
   outer loop
     vertex  3.608212e+00  7.209620e+00  1.500728e+00
     vertex  2.869412e+00  7.209620e+00 -8.876130e-01
     vertex  1.044076e+00  6.618580e+00 -3.229706e-01
   endloop
 endfacet
 facet normal -2.823212e-01  9.553365e-01  8.733219e-02
   outer loop
     vertex  3.608212e+00  7.209620e+00  1.500728e+00
     vertex  1.044076e+00  6.618580e+00 -3.229706e-01
     vertex  1.782877e+00  6.618580e+00  2.065371e+00
   endloop
 endfacet
endsolid
