solid 
 facet normal -0.000000e+00  0.000000e+00 -1.000000e+00
   outer loop
     vertex -6.000000e+00  2.000000e+00  0.000000e+00
     vertex -8.000000e+00  0.000000e+00  0.000000e+00
     vertex -8.000000e+00  2.000000e+00  0.000000e+00
   endloop
 endfacet
 facet normal  0.000000e+00  0.000000e+00 -1.000000e+00
   outer loop
     vertex -6.000000e+00  2.000000e+00  0.000000e+00
     vertex -6.000000e+00  0.000000e+00  0.000000e+00
     vertex -8.000000e+00  0.000000e+00  0.000000e+00
   endloop
 endfacet
 facet normal  0.000000e+00  0.000000e+00 -1.000000e+00
   outer loop
     vertex -6.000000e+00  8.000000e+00  0.000000e+00
     vertex -6.000000e+00  2.000000e+00  0.000000e+00
     vertex -8.000000e+00  2.000000e+00  0.000000e+00
   endloop
 endfacet
 facet normal  0.000000e+00  0.000000e+00 -1.000000e+00
   outer loop
     vertex -8.000000e+00  8.000000e+00  0.000000e+00
     vertex -6.000000e+00  8.000000e+00  0.000000e+00
     vertex -8.000000e+00  2.000000e+00  0.000000e+00
   endloop
 endfacet
 facet normal -0.000000e+00  0.000000e+00 -1.000000e+00
   outer loop
     vertex -1.000000e+00  2.000000e+00  0.000000e+00
     vertex -6.000000e+00  0.000000e+00  0.000000e+00
     vertex -6.000000e+00  2.000000e+00  0.000000e+00
   endloop
 endfacet
 facet normal  0.000000e+00  0.000000e+00 -1.000000e+00
   outer loop
     vertex -1.000000e+00  2.000000e+00  0.000000e+00
     vertex -1.000000e+00  0.000000e+00  0.000000e+00
     vertex -6.000000e+00  0.000000e+00  0.000000e+00
   endloop
 endfacet
 facet normal  0.000000e+00 -1.000000e+00 -0.000000e+00
   outer loop
     vertex -6.000000e+00  0.000000e+00  2.500000e+00
     vertex -8.000000e+00  0.000000e+00  0.000000e+00
     vertex -6.000000e+00  0.000000e+00  0.000000e+00
   endloop
 endfacet
 facet normal -0.000000e+00 -1.000000e+00  0.000000e+00
   outer loop
     vertex -6.000000e+00  0.000000e+00  2.500000e+00
     vertex -8.000000e+00  0.000000e+00  2.500000e+00
     vertex -8.000000e+00  0.000000e+00  0.000000e+00
   endloop
 endfacet
 facet normal -1.000000e+00  0.000000e+00  0.000000e+00
   outer loop
     vertex -8.000000e+00  0.000000e+00  2.500000e+00
     vertex -8.000000e+00  2.000000e+00  0.000000e+00
     vertex -8.000000e+00  0.000000e+00  0.000000e+00
   endloop
 endfacet
 facet normal -1.000000e+00  0.000000e+00  0.000000e+00
   outer loop
     vertex -8.000000e+00  0.000000e+00  2.500000e+00
     vertex -8.000000e+00  2.000000e+00  2.500000e+00
     vertex -8.000000e+00  2.000000e+00  0.000000e+00
   endloop
 endfacet
 facet normal -1.000000e+00  0.000000e+00 -0.000000e+00
   outer loop
     vertex -8.000000e+00  8.000000e+00  2.500000e+00
     vertex -8.000000e+00  8.000000e+00  0.000000e+00
     vertex -8.000000e+00  2.000000e+00  0.000000e+00
   endloop
 endfacet
 facet normal -1.000000e+00 -0.000000e+00  0.000000e+00
   outer loop
     vertex -8.000000e+00  8.000000e+00  2.500000e+00
     vertex -8.000000e+00  2.000000e+00  0.000000e+00
     vertex -8.000000e+00  2.000000e+00  2.500000e+00
   endloop
 endfacet
 facet normal -0.000000e+00  0.000000e+00 -1.000000e+00
   outer loop
     vertex -6.000000e+00  1.000000e+01  0.000000e+00
     vertex -8.000000e+00  8.000000e+00  0.000000e+00
     vertex -8.000000e+00  1.000000e+01  0.000000e+00
   endloop
 endfacet
 facet normal  0.000000e+00 -0.000000e+00 -1.000000e+00
   outer loop
     vertex -6.000000e+00  1.000000e+01  0.000000e+00
     vertex -6.000000e+00  8.000000e+00  0.000000e+00
     vertex -8.000000e+00  8.000000e+00  0.000000e+00
   endloop
 endfacet
 facet normal  1.000000e+00 -1.480297e-16  0.000000e+00
   outer loop
     vertex -6.000000e+00  8.000000e+00  2.500000e+00
     vertex -6.000000e+00  2.000000e+00  0.000000e+00
     vertex -6.000000e+00  8.000000e+00  0.000000e+00
   endloop
 endfacet
 facet normal  1.000000e+00 -1.480297e-16  0.000000e+00
   outer loop
     vertex -6.000000e+00  8.000000e+00  2.500000e+00
     vertex -6.000000e+00  2.000000e+00  2.500000e+00
     vertex -6.000000e+00  2.000000e+00  0.000000e+00
   endloop
 endfacet
 facet normal  0.000000e+00  1.000000e+00  0.000000e+00
   outer loop
     vertex -1.000000e+00  2.000000e+00  2.500000e+00
     vertex -1.000000e+00  2.000000e+00  0.000000e+00
     vertex -6.000000e+00  2.000000e+00  0.000000e+00
   endloop
 endfacet
 facet normal  0.000000e+00  1.000000e+00  0.000000e+00
   outer loop
     vertex -1.000000e+00  2.000000e+00  2.500000e+00
     vertex -6.000000e+00  2.000000e+00  0.000000e+00
     vertex -6.000000e+00  2.000000e+00  2.500000e+00
   endloop
 endfacet
 facet normal  0.000000e+00 -0.000000e+00 -1.000000e+00
   outer loop
     vertex -1.000000e+00  2.000000e+00  0.000000e+00
     vertex  1.000000e+00  0.000000e+00  0.000000e+00
     vertex -1.000000e+00  0.000000e+00  0.000000e+00
   endloop
 endfacet
 facet normal -0.000000e+00  0.000000e+00 -1.000000e+00
   outer loop
     vertex  1.000000e+00  2.000000e+00  0.000000e+00
     vertex  1.000000e+00  0.000000e+00  0.000000e+00
     vertex -1.000000e+00  2.000000e+00  0.000000e+00
   endloop
 endfacet
 facet normal  0.000000e+00 -1.000000e+00 -0.000000e+00
   outer loop
     vertex -1.000000e+00  0.000000e+00  2.500000e+00
     vertex -6.000000e+00  0.000000e+00  0.000000e+00
     vertex -1.000000e+00  0.000000e+00  0.000000e+00
   endloop
 endfacet
 facet normal -0.000000e+00 -1.000000e+00  0.000000e+00
   outer loop
     vertex -1.000000e+00  0.000000e+00  2.500000e+00
     vertex -6.000000e+00  0.000000e+00  2.500000e+00
     vertex -6.000000e+00  0.000000e+00  0.000000e+00
   endloop
 endfacet
 facet normal  0.000000e+00  0.000000e+00  1.000000e+00
   outer loop
     vertex -6.000000e+00  2.000000e+00  2.500000e+00
     vertex -8.000000e+00  2.000000e+00  2.500000e+00
     vertex -8.000000e+00  0.000000e+00  2.500000e+00
   endloop
 endfacet
 facet normal  0.000000e+00  0.000000e+00  1.000000e+00
   outer loop
     vertex -6.000000e+00  2.000000e+00  2.500000e+00
     vertex -8.000000e+00  0.000000e+00  2.500000e+00
     vertex -6.000000e+00  0.000000e+00  2.500000e+00
   endloop
 endfacet
 facet normal -1.000000e+00  0.000000e+00  0.000000e+00
   outer loop
     vertex -8.000000e+00  8.000000e+00  2.500000e+00
     vertex -8.000000e+00  1.000000e+01  0.000000e+00
     vertex -8.000000e+00  8.000000e+00  0.000000e+00
   endloop
 endfacet
 facet normal -1.000000e+00  0.000000e+00  0.000000e+00
   outer loop
     vertex -8.000000e+00  8.000000e+00  2.500000e+00
     vertex -8.000000e+00  1.000000e+01  2.500000e+00
     vertex -8.000000e+00  1.000000e+01  0.000000e+00
   endloop
 endfacet
 facet normal  0.000000e+00  0.000000e+00  1.000000e+00
   outer loop
     vertex -6.000000e+00  8.000000e+00  2.500000e+00
     vertex -8.000000e+00  2.000000e+00  2.500000e+00
     vertex -6.000000e+00  2.000000e+00  2.500000e+00
   endloop
 endfacet
 facet normal -0.000000e+00  0.000000e+00  1.000000e+00
   outer loop
     vertex -8.000000e+00  8.000000e+00  2.500000e+00
     vertex -8.000000e+00  2.000000e+00  2.500000e+00
     vertex -6.000000e+00  8.000000e+00  2.500000e+00
   endloop
 endfacet
 facet normal  0.000000e+00  1.000000e+00  0.000000e+00
   outer loop
     vertex -6.000000e+00  1.000000e+01  2.500000e+00
     vertex -6.000000e+00  1.000000e+01  0.000000e+00
     vertex -8.000000e+00  1.000000e+01  0.000000e+00
   endloop
 endfacet
 facet normal  0.000000e+00  1.000000e+00  0.000000e+00
   outer loop
     vertex -6.000000e+00  1.000000e+01  2.500000e+00
     vertex -8.000000e+00  1.000000e+01  0.000000e+00
     vertex -8.000000e+00  1.000000e+01  2.500000e+00
   endloop
 endfacet
 facet normal  0.000000e+00  0.000000e+00 -1.000000e+00
   outer loop
     vertex -1.000000e+00  8.000000e+00  0.000000e+00
     vertex -6.000000e+00  8.000000e+00  0.000000e+00
     vertex -6.000000e+00  1.000000e+01  0.000000e+00
   endloop
 endfacet
 facet normal -0.000000e+00  0.000000e+00 -1.000000e+00
   outer loop
     vertex -1.000000e+00  1.000000e+01  0.000000e+00
     vertex -1.000000e+00  8.000000e+00  0.000000e+00
     vertex -6.000000e+00  1.000000e+01  0.000000e+00
   endloop
 endfacet
 facet normal  0.000000e+00 -1.000000e+00 -0.000000e+00
   outer loop
     vertex -1.000000e+00  8.000000e+00  2.500000e+00
     vertex -6.000000e+00  8.000000e+00  0.000000e+00
     vertex -1.000000e+00  8.000000e+00  0.000000e+00
   endloop
 endfacet
 facet normal -0.000000e+00 -1.000000e+00  0.000000e+00
   outer loop
     vertex -1.000000e+00  8.000000e+00  2.500000e+00
     vertex -6.000000e+00  8.000000e+00  2.500000e+00
     vertex -6.000000e+00  8.000000e+00  0.000000e+00
   endloop
 endfacet
 facet normal -1.000000e+00  2.775558e-16  0.000000e+00
   outer loop
     vertex -1.000000e+00  8.000000e+00  2.500000e+00
     vertex -1.000000e+00  8.000000e+00  0.000000e+00
     vertex -1.000000e+00  2.000000e+00  0.000000e+00
   endloop
 endfacet
 facet normal -1.000000e+00  2.775558e-16  0.000000e+00
   outer loop
     vertex -1.000000e+00  8.000000e+00  2.500000e+00
     vertex -1.000000e+00  2.000000e+00  0.000000e+00
     vertex -1.000000e+00  2.000000e+00  2.500000e+00
   endloop
 endfacet
 facet normal  0.000000e+00  0.000000e+00  1.000000e+00
   outer loop
     vertex -1.000000e+00  2.000000e+00  2.500000e+00
     vertex -6.000000e+00  2.000000e+00  2.500000e+00
     vertex -6.000000e+00  0.000000e+00  2.500000e+00
   endloop
 endfacet
 facet normal  0.000000e+00  0.000000e+00  1.000000e+00
   outer loop
     vertex -1.000000e+00  2.000000e+00  2.500000e+00
     vertex -6.000000e+00  0.000000e+00  2.500000e+00
     vertex -1.000000e+00  0.000000e+00  2.500000e+00
   endloop
 endfacet
 facet normal  0.000000e+00 -0.000000e+00 -1.000000e+00
   outer loop
     vertex -1.000000e+00  8.000000e+00  0.000000e+00
     vertex  1.000000e+00  2.000000e+00  0.000000e+00
     vertex -1.000000e+00  2.000000e+00  0.000000e+00
   endloop
 endfacet
 facet normal  0.000000e+00  0.000000e+00 -1.000000e+00
   outer loop
     vertex -1.000000e+00  8.000000e+00  0.000000e+00
     vertex  1.000000e+00  8.000000e+00  0.000000e+00
     vertex  1.000000e+00  2.000000e+00  0.000000e+00
   endloop
 endfacet
 facet normal  1.000000e+00 -2.775558e-16  0.000000e+00
   outer loop
     vertex  1.000000e+00  0.000000e+00  2.500000e+00
     vertex  1.000000e+00  0.000000e+00  0.000000e+00
     vertex  1.000000e+00  2.000000e+00  0.000000e+00
   endloop
 endfacet
 facet normal  1.000000e+00 -2.775558e-16  0.000000e+00
   outer loop
     vertex  1.000000e+00  0.000000e+00  2.500000e+00
     vertex  1.000000e+00  2.000000e+00  0.000000e+00
     vertex  1.000000e+00  2.000000e+00  2.500000e+00
   endloop
 endfacet
 facet normal  0.000000e+00 -1.000000e+00 -0.000000e+00
   outer loop
     vertex  1.000000e+00  0.000000e+00  2.500000e+00
     vertex -1.000000e+00  0.000000e+00  0.000000e+00
     vertex  1.000000e+00  0.000000e+00  0.000000e+00
   endloop
 endfacet
 facet normal -0.000000e+00 -1.000000e+00  0.000000e+00
   outer loop
     vertex  1.000000e+00  0.000000e+00  2.500000e+00
     vertex -1.000000e+00  0.000000e+00  2.500000e+00
     vertex -1.000000e+00  0.000000e+00  0.000000e+00
   endloop
 endfacet
 facet normal  0.000000e+00  0.000000e+00  1.000000e+00
   outer loop
     vertex -6.000000e+00  1.000000e+01  2.500000e+00
     vertex -8.000000e+00  1.000000e+01  2.500000e+00
     vertex -8.000000e+00  8.000000e+00  2.500000e+00
   endloop
 endfacet
 facet normal  0.000000e+00  0.000000e+00  1.000000e+00
   outer loop
     vertex -6.000000e+00  1.000000e+01  2.500000e+00
     vertex -8.000000e+00  8.000000e+00  2.500000e+00
     vertex -6.000000e+00  8.000000e+00  2.500000e+00
   endloop
 endfacet
 facet normal  0.000000e+00  1.000000e+00  0.000000e+00
   outer loop
     vertex -1.000000e+00  1.000000e+01  2.500000e+00
     vertex -1.000000e+00  1.000000e+01  0.000000e+00
     vertex -6.000000e+00  1.000000e+01  0.000000e+00
   endloop
 endfacet
 facet normal  0.000000e+00  1.000000e+00  0.000000e+00
   outer loop
     vertex -1.000000e+00  1.000000e+01  2.500000e+00
     vertex -6.000000e+00  1.000000e+01  0.000000e+00
     vertex -6.000000e+00  1.000000e+01  2.500000e+00
   endloop
 endfacet
 facet normal  0.000000e+00  0.000000e+00 -1.000000e+00
   outer loop
     vertex -1.000000e+00  8.000000e+00  0.000000e+00
     vertex  1.000000e+00  1.000000e+01  0.000000e+00
     vertex  1.000000e+00  8.000000e+00  0.000000e+00
   endloop
 endfacet
 facet normal  0.000000e+00 -0.000000e+00 -1.000000e+00
   outer loop
     vertex -1.000000e+00  1.000000e+01  0.000000e+00
     vertex  1.000000e+00  1.000000e+01  0.000000e+00
     vertex -1.000000e+00  8.000000e+00  0.000000e+00
   endloop
 endfacet
 facet normal  0.000000e+00  0.000000e+00  1.000000e+00
   outer loop
     vertex -1.000000e+00  8.000000e+00  2.500000e+00
     vertex -6.000000e+00  1.000000e+01  2.500000e+00
     vertex -6.000000e+00  8.000000e+00  2.500000e+00
   endloop
 endfacet
 facet normal  0.000000e+00  0.000000e+00  1.000000e+00
   outer loop
     vertex -1.000000e+00  1.000000e+01  2.500000e+00
     vertex -6.000000e+00  1.000000e+01  2.500000e+00
     vertex -1.000000e+00  8.000000e+00  2.500000e+00
   endloop
 endfacet
 facet normal  0.000000e+00  0.000000e+00  1.000000e+00
   outer loop
     vertex -1.000000e+00  8.000000e+00  2.500000e+00
     vertex -1.000000e+00  2.000000e+00  2.500000e+00
     vertex  1.000000e+00  2.000000e+00  2.500000e+00
   endloop
 endfacet
 facet normal -0.000000e+00  0.000000e+00  1.000000e+00
   outer loop
     vertex -1.000000e+00  8.000000e+00  2.500000e+00
     vertex  1.000000e+00  2.000000e+00  2.500000e+00
     vertex  1.000000e+00  8.000000e+00  2.500000e+00
   endloop
 endfacet
 facet normal  0.000000e+00  0.000000e+00  1.000000e+00
   outer loop
     vertex -1.000000e+00  2.000000e+00  2.500000e+00
     vertex -1.000000e+00  0.000000e+00  2.500000e+00
     vertex  1.000000e+00  0.000000e+00  2.500000e+00
   endloop
 endfacet
 facet normal  0.000000e+00  0.000000e+00  1.000000e+00
   outer loop
     vertex  1.000000e+00  2.000000e+00  2.500000e+00
     vertex -1.000000e+00  2.000000e+00  2.500000e+00
     vertex  1.000000e+00  0.000000e+00  2.500000e+00
   endloop
 endfacet
 facet normal  1.000000e+00  0.000000e+00  0.000000e+00
   outer loop
     vertex  1.000000e+00  8.000000e+00  2.500000e+00
     vertex  1.000000e+00  2.000000e+00  0.000000e+00
     vertex  1.000000e+00  8.000000e+00  0.000000e+00
   endloop
 endfacet
 facet normal  1.000000e+00  0.000000e+00  0.000000e+00
   outer loop
     vertex  1.000000e+00  8.000000e+00  2.500000e+00
     vertex  1.000000e+00  2.000000e+00  2.500000e+00
     vertex  1.000000e+00  2.000000e+00  0.000000e+00
   endloop
 endfacet
 facet normal  0.000000e+00  1.000000e+00  0.000000e+00
   outer loop
     vertex  1.000000e+00  1.000000e+01  2.500000e+00
     vertex  1.000000e+00  1.000000e+01  0.000000e+00
     vertex -1.000000e+00  1.000000e+01  0.000000e+00
   endloop
 endfacet
 facet normal  0.000000e+00  1.000000e+00  0.000000e+00
   outer loop
     vertex  1.000000e+00  1.000000e+01  2.500000e+00
     vertex -1.000000e+00  1.000000e+01  0.000000e+00
     vertex -1.000000e+00  1.000000e+01  2.500000e+00
   endloop
 endfacet
 facet normal  1.000000e+00 -3.330669e-16  0.000000e+00
   outer loop
     vertex  1.000000e+00  1.000000e+01  2.500000e+00
     vertex  1.000000e+00  8.000000e+00  0.000000e+00
     vertex  1.000000e+00  1.000000e+01  0.000000e+00
   endloop
 endfacet
 facet normal  1.000000e+00 -3.330669e-16  0.000000e+00
   outer loop
     vertex  1.000000e+00  1.000000e+01  2.500000e+00
     vertex  1.000000e+00  8.000000e+00  2.500000e+00
     vertex  1.000000e+00  8.000000e+00  0.000000e+00
   endloop
 endfacet
 facet normal  0.000000e+00  0.000000e+00  1.000000e+00
   outer loop
     vertex -1.000000e+00  8.000000e+00  2.500000e+00
     vertex  1.000000e+00  8.000000e+00  2.500000e+00
     vertex  1.000000e+00  1.000000e+01  2.500000e+00
   endloop
 endfacet
 facet normal -0.000000e+00  0.000000e+00  1.000000e+00
   outer loop
     vertex -1.000000e+00  1.000000e+01  2.500000e+00
     vertex -1.000000e+00  8.000000e+00  2.500000e+00
     vertex  1.000000e+00  1.000000e+01  2.500000e+00
   endloop
 endfacet
endsolid
