solid 
 facet normal  4.330127e-01 -5.000000e-01 -7.500000e-01
   outer loop
     vertex  1.250000e+00  1.830127e+00 -7.165064e+00
     vertex  3.080127e+00 -6.830127e+00 -3.349365e-01
     vertex -1.250000e+00 -6.830127e+00 -2.834936e+00
   endloop
 endfacet
 facet normal  4.330127e-01 -5.000000e-01 -7.500000e-01
   outer loop
     vertex  5.580127e+00  1.830127e+00 -4.665064e+00
     vertex  3.080127e+00 -6.830127e+00 -3.349365e-01
     vertex  1.250000e+00  1.830127e+00 -7.165064e+00
   endloop
 endfacet
 facet normal -8.660254e-01  0.000000e+00 -5.000000e-01
   outer loop
     vertex  8.169873e-01  2.330127e+00 -6.415064e+00
     vertex -1.250000e+00 -6.830127e+00 -2.834936e+00
     vertex -1.683013e+00 -6.330127e+00 -2.084936e+00
   endloop
 endfacet
 facet normal -8.660254e-01 -1.998401e-16 -5.000000e-01
   outer loop
     vertex  8.169873e-01  2.330127e+00 -6.415064e+00
     vertex  1.250000e+00  1.830127e+00 -7.165064e+00
     vertex -1.250000e+00 -6.830127e+00 -2.834936e+00
   endloop
 endfacet
 facet normal  4.330127e-01 -5.000000e-01 -7.500000e-01
   outer loop
     vertex  5.830127e+00  2.696152e+00 -5.098076e+00
     vertex  1.250000e+00  1.830127e+00 -7.165064e+00
     vertex  1.500000e+00  2.696152e+00 -7.598076e+00
   endloop
 endfacet
 facet normal  4.330127e-01 -5.000000e-01 -7.500000e-01
   outer loop
     vertex  5.830127e+00  2.696152e+00 -5.098076e+00
     vertex  5.580127e+00  1.830127e+00 -4.665064e+00
     vertex  1.250000e+00  1.830127e+00 -7.165064e+00
   endloop
 endfacet
 facet normal  8.660254e-01 -1.776357e-16  5.000000e-01
   outer loop
     vertex  5.147114e+00  2.330127e+00 -3.915064e+00
     vertex  2.647114e+00 -6.330127e+00  4.150635e-01
     vertex  3.080127e+00 -6.830127e+00 -3.349365e-01
   endloop
 endfacet
 facet normal  8.660254e-01  5.551115e-16  5.000000e-01
   outer loop
     vertex  5.147114e+00  2.330127e+00 -3.915064e+00
     vertex  3.080127e+00 -6.830127e+00 -3.349365e-01
     vertex  5.580127e+00  1.830127e+00 -4.665064e+00
   endloop
 endfacet
 facet normal  4.330127e-01 -5.000000e-01 -7.500000e-01
   outer loop
     vertex  3.080127e+00 -6.830127e+00 -3.349365e-01
     vertex -1.500000e+00 -7.696152e+00 -2.401924e+00
     vertex -1.250000e+00 -6.830127e+00 -2.834936e+00
   endloop
 endfacet
 facet normal  4.330127e-01 -5.000000e-01 -7.500000e-01
   outer loop
     vertex  3.080127e+00 -6.830127e+00 -3.349365e-01
     vertex  2.830127e+00 -7.696152e+00  9.807621e-02
     vertex -1.500000e+00 -7.696152e+00 -2.401924e+00
   endloop
 endfacet
 facet normal -8.660254e-01  6.938894e-17 -5.000000e-01
   outer loop
     vertex -1.500000e+00 -7.696152e+00 -2.401924e+00
     vertex -1.683013e+00 -6.330127e+00 -2.084936e+00
     vertex -1.250000e+00 -6.830127e+00 -2.834936e+00
   endloop
 endfacet
 facet normal -8.660254e-01 -7.771561e-16 -5.000000e-01
   outer loop
     vertex -5.830127e+00 -2.696152e+00  5.098076e+00
     vertex -5.580127e+00 -1.830127e+00  4.665064e+00
     vertex -5.147114e+00 -2.330127e+00  3.915064e+00
   endloop
 endfacet
 facet normal -8.660254e-01  6.217249e-16 -5.000000e-01
   outer loop
     vertex -5.830127e+00 -2.696152e+00  5.098076e+00
     vertex -5.147114e+00 -2.330127e+00  3.915064e+00
     vertex -1.500000e+00 -7.696152e+00 -2.401924e+00
   endloop
 endfacet
 facet normal -8.660254e-01  0.000000e+00 -5.000000e-01
   outer loop
     vertex -5.147114e+00 -2.330127e+00  3.915064e+00
     vertex -1.683013e+00 -6.330127e+00 -2.084936e+00
     vertex -1.500000e+00 -7.696152e+00 -2.401924e+00
   endloop
 endfacet
 facet normal -4.330127e-01  5.000000e-01  7.500000e-01
   outer loop
     vertex  5.147114e+00  2.330127e+00 -3.915064e+00
     vertex  8.169873e-01  2.330127e+00 -6.415064e+00
     vertex -1.683013e+00 -6.330127e+00 -2.084936e+00
   endloop
 endfacet
 facet normal -4.330127e-01  5.000000e-01  7.500000e-01
   outer loop
     vertex  5.147114e+00  2.330127e+00 -3.915064e+00
     vertex -1.683013e+00 -6.330127e+00 -2.084936e+00
     vertex  2.647114e+00 -6.330127e+00  4.150635e-01
   endloop
 endfacet
 facet normal -8.660254e-01  1.110223e-16 -5.000000e-01
   outer loop
     vertex  8.169873e-01  2.330127e+00 -6.415064e+00
     vertex  1.500000e+00  2.696152e+00 -7.598076e+00
     vertex  1.250000e+00  1.830127e+00 -7.165064e+00
   endloop
 endfacet
 facet normal -8.660254e-01  9.992007e-16 -5.000000e-01
   outer loop
     vertex -2.830127e+00  7.696152e+00 -9.807621e-02
     vertex  8.169873e-01  2.330127e+00 -6.415064e+00
     vertex -2.647114e+00  6.330127e+00 -4.150635e-01
   endloop
 endfacet
 facet normal -8.660254e-01  3.552714e-16 -5.000000e-01
   outer loop
     vertex -2.830127e+00  7.696152e+00 -9.807621e-02
     vertex  1.500000e+00  2.696152e+00 -7.598076e+00
     vertex  8.169873e-01  2.330127e+00 -6.415064e+00
   endloop
 endfacet
 facet normal -8.660254e-01  6.106227e-16 -5.000000e-01
   outer loop
     vertex -3.080127e+00  6.830127e+00  3.349365e-01
     vertex -2.830127e+00  7.696152e+00 -9.807621e-02
     vertex -2.647114e+00  6.330127e+00 -4.150635e-01
   endloop
 endfacet
 facet normal  2.500000e-01  8.660254e-01 -4.330127e-01
   outer loop
     vertex  1.500000e+00  7.696152e+00  2.401924e+00
     vertex  1.500000e+00  2.696152e+00 -7.598076e+00
     vertex -2.830127e+00  7.696152e+00 -9.807621e-02
   endloop
 endfacet
 facet normal  2.500000e-01  8.660254e-01 -4.330127e-01
   outer loop
     vertex  1.500000e+00  7.696152e+00  2.401924e+00
     vertex  5.830127e+00  2.696152e+00 -5.098076e+00
     vertex  1.500000e+00  2.696152e+00 -7.598076e+00
   endloop
 endfacet
 facet normal  8.660254e-01  7.771561e-16  5.000000e-01
   outer loop
     vertex  5.147114e+00  2.330127e+00 -3.915064e+00
     vertex  5.580127e+00  1.830127e+00 -4.665064e+00
     vertex  5.830127e+00  2.696152e+00 -5.098076e+00
   endloop
 endfacet
 facet normal  8.660254e-01 -1.942890e-16  5.000000e-01
   outer loop
     vertex  1.500000e+00  7.696152e+00  2.401924e+00
     vertex  1.683013e+00  6.330127e+00  2.084936e+00
     vertex  5.147114e+00  2.330127e+00 -3.915064e+00
   endloop
 endfacet
 facet normal  8.660254e-01 -3.552714e-16  5.000000e-01
   outer loop
     vertex  1.500000e+00  7.696152e+00  2.401924e+00
     vertex  5.147114e+00  2.330127e+00 -3.915064e+00
     vertex  5.830127e+00  2.696152e+00 -5.098076e+00
   endloop
 endfacet
 facet normal  8.660254e-01 -2.220446e-16  5.000000e-01
   outer loop
     vertex  1.250000e+00  6.830127e+00  2.834936e+00
     vertex  1.683013e+00  6.330127e+00  2.084936e+00
     vertex  1.500000e+00  7.696152e+00  2.401924e+00
   endloop
 endfacet
 facet normal  8.660254e-01 -6.106227e-16  5.000000e-01
   outer loop
     vertex  2.830127e+00 -7.696152e+00  9.807621e-02
     vertex  3.080127e+00 -6.830127e+00 -3.349365e-01
     vertex  2.647114e+00 -6.330127e+00  4.150635e-01
   endloop
 endfacet
 facet normal  8.660254e-01 -1.110223e-16  5.000000e-01
   outer loop
     vertex -1.500000e+00 -2.696152e+00  7.598076e+00
     vertex -8.169873e-01 -2.330127e+00  6.415064e+00
     vertex -1.250000e+00 -1.830127e+00  7.165064e+00
   endloop
 endfacet
 facet normal  8.660254e-01 -4.440892e-16  5.000000e-01
   outer loop
     vertex -1.500000e+00 -2.696152e+00  7.598076e+00
     vertex  2.830127e+00 -7.696152e+00  9.807621e-02
     vertex -8.169873e-01 -2.330127e+00  6.415064e+00
   endloop
 endfacet
 facet normal  8.660254e-01 -1.332268e-15  5.000000e-01
   outer loop
     vertex -8.169873e-01 -2.330127e+00  6.415064e+00
     vertex  2.830127e+00 -7.696152e+00  9.807621e-02
     vertex  2.647114e+00 -6.330127e+00  4.150635e-01
   endloop
 endfacet
 facet normal -2.500000e-01 -8.660254e-01  4.330127e-01
   outer loop
     vertex -1.500000e+00 -2.696152e+00  7.598076e+00
     vertex -5.830127e+00 -2.696152e+00  5.098076e+00
     vertex -1.500000e+00 -7.696152e+00 -2.401924e+00
   endloop
 endfacet
 facet normal -2.500000e-01 -8.660254e-01  4.330127e-01
   outer loop
     vertex -1.500000e+00 -2.696152e+00  7.598076e+00
     vertex -1.500000e+00 -7.696152e+00 -2.401924e+00
     vertex  2.830127e+00 -7.696152e+00  9.807621e-02
   endloop
 endfacet
 facet normal -4.330127e-01  5.000000e-01  7.500000e-01
   outer loop
     vertex -1.250000e+00 -1.830127e+00  7.165064e+00
     vertex -5.580127e+00 -1.830127e+00  4.665064e+00
     vertex -5.830127e+00 -2.696152e+00  5.098076e+00
   endloop
 endfacet
 facet normal -4.330127e-01  5.000000e-01  7.500000e-01
   outer loop
     vertex -1.250000e+00 -1.830127e+00  7.165064e+00
     vertex -5.830127e+00 -2.696152e+00  5.098076e+00
     vertex -1.500000e+00 -2.696152e+00  7.598076e+00
   endloop
 endfacet
 facet normal  2.500000e-01  8.660254e-01 -4.330127e-01
   outer loop
     vertex -8.169873e-01 -2.330127e+00  6.415064e+00
     vertex -1.683013e+00 -6.330127e+00 -2.084936e+00
     vertex -5.147114e+00 -2.330127e+00  3.915064e+00
   endloop
 endfacet
 facet normal  2.500000e-01  8.660254e-01 -4.330127e-01
   outer loop
     vertex -8.169873e-01 -2.330127e+00  6.415064e+00
     vertex  2.647114e+00 -6.330127e+00  4.150635e-01
     vertex -1.683013e+00 -6.330127e+00 -2.084936e+00
   endloop
 endfacet
 facet normal -8.660254e-01 -5.329071e-16 -5.000000e-01
   outer loop
     vertex -3.080127e+00  6.830127e+00  3.349365e-01
     vertex -5.147114e+00 -2.330127e+00  3.915064e+00
     vertex -5.580127e+00 -1.830127e+00  4.665064e+00
   endloop
 endfacet
 facet normal -8.660254e-01  2.442491e-16 -5.000000e-01
   outer loop
     vertex -3.080127e+00  6.830127e+00  3.349365e-01
     vertex -2.647114e+00  6.330127e+00 -4.150635e-01
     vertex -5.147114e+00 -2.330127e+00  3.915064e+00
   endloop
 endfacet
 facet normal -2.500000e-01 -8.660254e-01  4.330127e-01
   outer loop
     vertex  1.683013e+00  6.330127e+00  2.084936e+00
     vertex -2.647114e+00  6.330127e+00 -4.150635e-01
     vertex  8.169873e-01  2.330127e+00 -6.415064e+00
   endloop
 endfacet
 facet normal -2.500000e-01 -8.660254e-01  4.330127e-01
   outer loop
     vertex  1.683013e+00  6.330127e+00  2.084936e+00
     vertex  8.169873e-01  2.330127e+00 -6.415064e+00
     vertex  5.147114e+00  2.330127e+00 -3.915064e+00
   endloop
 endfacet
 facet normal -4.330127e-01  5.000000e-01  7.500000e-01
   outer loop
     vertex  1.500000e+00  7.696152e+00  2.401924e+00
     vertex -2.830127e+00  7.696152e+00 -9.807621e-02
     vertex -3.080127e+00  6.830127e+00  3.349365e-01
   endloop
 endfacet
 facet normal -4.330127e-01  5.000000e-01  7.500000e-01
   outer loop
     vertex  1.500000e+00  7.696152e+00  2.401924e+00
     vertex -3.080127e+00  6.830127e+00  3.349365e-01
     vertex  1.250000e+00  6.830127e+00  2.834936e+00
   endloop
 endfacet
 facet normal  8.660254e-01  1.776357e-16  5.000000e-01
   outer loop
     vertex  1.250000e+00  6.830127e+00  2.834936e+00
     vertex -1.250000e+00 -1.830127e+00  7.165064e+00
     vertex -8.169873e-01 -2.330127e+00  6.415064e+00
   endloop
 endfacet
 facet normal  8.660254e-01  1.776357e-16  5.000000e-01
   outer loop
     vertex  1.250000e+00  6.830127e+00  2.834936e+00
     vertex -8.169873e-01 -2.330127e+00  6.415064e+00
     vertex  1.683013e+00  6.330127e+00  2.084936e+00
   endloop
 endfacet
 facet normal -4.330127e-01  5.000000e-01  7.500000e-01
   outer loop
     vertex  1.250000e+00  6.830127e+00  2.834936e+00
     vertex -3.080127e+00  6.830127e+00  3.349365e-01
     vertex -5.580127e+00 -1.830127e+00  4.665064e+00
   endloop
 endfacet
 facet normal -4.330127e-01  5.000000e-01  7.500000e-01
   outer loop
     vertex  1.250000e+00  6.830127e+00  2.834936e+00
     vertex -5.580127e+00 -1.830127e+00  4.665064e+00
     vertex -1.250000e+00 -1.830127e+00  7.165064e+00
   endloop
 endfacet
 facet normal  4.330127e-01 -5.000000e-01 -7.500000e-01
   outer loop
     vertex  1.683013e+00  6.330127e+00  2.084936e+00
     vertex -5.147114e+00 -2.330127e+00  3.915064e+00
     vertex -2.647114e+00  6.330127e+00 -4.150635e-01
   endloop
 endfacet
 facet normal  4.330127e-01 -5.000000e-01 -7.500000e-01
   outer loop
     vertex  1.683013e+00  6.330127e+00  2.084936e+00
     vertex -8.169873e-01 -2.330127e+00  6.415064e+00
     vertex -5.147114e+00 -2.330127e+00  3.915064e+00
   endloop
 endfacet
endsolid
