solid 
 facet normal  1.000000e+00  0.000000e+00  0.000000e+00
   outer loop
     vertex  5.000000e+00  5.000000e-01  5.000000e+00
     vertex  5.000000e+00 -5.000000e-01  0.000000e+00
     vertex  5.000000e+00  5.000000e-01  0.000000e+00
   endloop
 endfacet
 facet normal  1.000000e+00  0.000000e+00  0.000000e+00
   outer loop
     vertex  5.000000e+00  5.000000e-01  5.000000e+00
     vertex  5.000000e+00 -5.000000e-01  5.000000e+00
     vertex  5.000000e+00 -5.000000e-01  0.000000e+00
   endloop
 endfacet
 facet normal  1.110223e-16  1.000000e+00  0.000000e+00
   outer loop
     vertex  3.000000e+00  5.000000e-01  5.000000e+00
     vertex  5.000000e+00  5.000000e-01  5.000000e+00
     vertex  5.000000e+00  5.000000e-01  0.000000e+00
   endloop
 endfacet
 facet normal  1.276756e-16  1.000000e+00  1.554312e-17
   outer loop
     vertex -3.000000e+00  5.000000e-01  5.000000e+00
     vertex  5.000000e+00  5.000000e-01  0.000000e+00
     vertex -5.000000e+00  5.000000e-01  0.000000e+00
   endloop
 endfacet
 facet normal  1.202742e-16  1.000000e+00  3.700743e-18
   outer loop
     vertex -3.000000e+00  5.000000e-01  5.000000e+00
     vertex  3.000000e+00  5.000000e-01  5.000000e+00
     vertex  5.000000e+00  5.000000e-01  0.000000e+00
   endloop
 endfacet
 facet normal  1.665335e-16  1.000000e+00  0.000000e+00
   outer loop
     vertex -5.000000e+00  5.000000e-01  5.000000e+00
     vertex -3.000000e+00  5.000000e-01  5.000000e+00
     vertex -5.000000e+00  5.000000e-01  0.000000e+00
   endloop
 endfacet
 facet normal -0.000000e+00  0.000000e+00  1.000000e+00
   outer loop
     vertex  3.000000e+00 -5.000000e-01  5.000000e+00
     vertex  5.000000e+00 -5.000000e-01  5.000000e+00
     vertex  5.000000e+00  5.000000e-01  5.000000e+00
   endloop
 endfacet
 facet normal  0.000000e+00  0.000000e+00  1.000000e+00
   outer loop
     vertex  3.000000e+00 -5.000000e-01  5.000000e+00
     vertex  5.000000e+00  5.000000e-01  5.000000e+00
     vertex  3.000000e+00  5.000000e-01  5.000000e+00
   endloop
 endfacet
 facet normal -1.665335e-16 -1.000000e+00  0.000000e+00
   outer loop
     vertex  3.000000e+00 -5.000000e-01  5.000000e+00
     vertex  5.000000e+00 -5.000000e-01  0.000000e+00
     vertex  5.000000e+00 -5.000000e-01  5.000000e+00
   endloop
 endfacet
 facet normal -1.276756e-16 -1.000000e+00  6.661338e-18
   outer loop
     vertex -3.000000e+00 -5.000000e-01  5.000000e+00
     vertex -5.000000e+00 -5.000000e-01  0.000000e+00
     vertex  5.000000e+00 -5.000000e-01  0.000000e+00
   endloop
 endfacet
 facet normal -1.202742e-16 -1.000000e+00  1.850372e-17
   outer loop
     vertex -3.000000e+00 -5.000000e-01  5.000000e+00
     vertex  5.000000e+00 -5.000000e-01  0.000000e+00
     vertex  3.000000e+00 -5.000000e-01  5.000000e+00
   endloop
 endfacet
 facet normal -1.110223e-16 -1.000000e+00 -0.000000e+00
   outer loop
     vertex -5.000000e+00 -5.000000e-01  5.000000e+00
     vertex -5.000000e+00 -5.000000e-01  0.000000e+00
     vertex -3.000000e+00 -5.000000e-01  5.000000e+00
   endloop
 endfacet
 facet normal  0.000000e+00  0.000000e+00 -1.000000e+00
   outer loop
     vertex -5.000000e+00 -5.000000e-01  0.000000e+00
     vertex  5.000000e+00  5.000000e-01  0.000000e+00
     vertex  5.000000e+00 -5.000000e-01  0.000000e+00
   endloop
 endfacet
 facet normal  0.000000e+00  0.000000e+00 -1.000000e+00
   outer loop
     vertex -5.000000e+00 -5.000000e-01  0.000000e+00
     vertex -5.000000e+00  5.000000e-01  0.000000e+00
     vertex  5.000000e+00  5.000000e-01  0.000000e+00
   endloop
 endfacet
 facet normal -1.000000e+00  0.000000e+00 -0.000000e+00
   outer loop
     vertex -5.000000e+00  5.000000e-01  5.000000e+00
     vertex -5.000000e+00  5.000000e-01  0.000000e+00
     vertex -5.000000e+00 -5.000000e-01  0.000000e+00
   endloop
 endfacet
 facet normal -1.000000e+00 -0.000000e+00  0.000000e+00
   outer loop
     vertex -5.000000e+00  5.000000e-01  5.000000e+00
     vertex -5.000000e+00 -5.000000e-01  0.000000e+00
     vertex -5.000000e+00 -5.000000e-01  5.000000e+00
   endloop
 endfacet
 facet normal  1.202742e-16  1.000000e+00  0.000000e+00
   outer loop
     vertex -3.000000e+00  5.000000e-01  7.500000e+00
     vertex  3.000000e+00  5.000000e-01  5.000000e+00
     vertex -3.000000e+00  5.000000e-01  5.000000e+00
   endloop
 endfacet
 facet normal  1.202742e-16  1.000000e+00  0.000000e+00
   outer loop
     vertex -3.000000e+00  5.000000e-01  7.500000e+00
     vertex  3.000000e+00  5.000000e-01  7.500000e+00
     vertex  3.000000e+00  5.000000e-01  5.000000e+00
   endloop
 endfacet
 facet normal -0.000000e+00  0.000000e+00  1.000000e+00
   outer loop
     vertex -5.000000e+00 -5.000000e-01  5.000000e+00
     vertex -3.000000e+00 -5.000000e-01  5.000000e+00
     vertex -3.000000e+00  5.000000e-01  5.000000e+00
   endloop
 endfacet
 facet normal  0.000000e+00  0.000000e+00  1.000000e+00
   outer loop
     vertex -5.000000e+00 -5.000000e-01  5.000000e+00
     vertex -3.000000e+00  5.000000e-01  5.000000e+00
     vertex -5.000000e+00  5.000000e-01  5.000000e+00
   endloop
 endfacet
 facet normal  1.000000e+00  0.000000e+00  0.000000e+00
   outer loop
     vertex  3.000000e+00  5.000000e-01  7.500000e+00
     vertex  3.000000e+00 -5.000000e-01  5.000000e+00
     vertex  3.000000e+00  5.000000e-01  5.000000e+00
   endloop
 endfacet
 facet normal  1.000000e+00  0.000000e+00  0.000000e+00
   outer loop
     vertex  3.000000e+00  5.000000e-01  7.500000e+00
     vertex  3.000000e+00 -5.000000e-01  7.500000e+00
     vertex  3.000000e+00 -5.000000e-01  5.000000e+00
   endloop
 endfacet
 facet normal -1.202742e-16 -1.000000e+00 -0.000000e+00
   outer loop
     vertex -3.000000e+00 -5.000000e-01  7.500000e+00
     vertex -3.000000e+00 -5.000000e-01  5.000000e+00
     vertex  3.000000e+00 -5.000000e-01  5.000000e+00
   endloop
 endfacet
 facet normal -1.202742e-16 -1.000000e+00  0.000000e+00
   outer loop
     vertex -3.000000e+00 -5.000000e-01  7.500000e+00
     vertex  3.000000e+00 -5.000000e-01  5.000000e+00
     vertex  3.000000e+00 -5.000000e-01  7.500000e+00
   endloop
 endfacet
 facet normal -1.000000e+00  0.000000e+00 -0.000000e+00
   outer loop
     vertex -3.000000e+00  5.000000e-01  7.500000e+00
     vertex -3.000000e+00  5.000000e-01  5.000000e+00
     vertex -3.000000e+00 -5.000000e-01  5.000000e+00
   endloop
 endfacet
 facet normal -1.000000e+00 -0.000000e+00  0.000000e+00
   outer loop
     vertex -3.000000e+00  5.000000e-01  7.500000e+00
     vertex -3.000000e+00 -5.000000e-01  5.000000e+00
     vertex -3.000000e+00 -5.000000e-01  7.500000e+00
   endloop
 endfacet
 facet normal -0.000000e+00  0.000000e+00  1.000000e+00
   outer loop
     vertex -3.000000e+00 -5.000000e-01  7.500000e+00
     vertex  3.000000e+00 -5.000000e-01  7.500000e+00
     vertex  3.000000e+00  5.000000e-01  7.500000e+00
   endloop
 endfacet
 facet normal  0.000000e+00  0.000000e+00  1.000000e+00
   outer loop
     vertex -3.000000e+00 -5.000000e-01  7.500000e+00
     vertex  3.000000e+00  5.000000e-01  7.500000e+00
     vertex -3.000000e+00  5.000000e-01  7.500000e+00
   endloop
 endfacet
endsolid
