solid 
 facet normal -7.795965e-01 -4.694716e-01  4.145188e-01
   outer loop
     vertex  3.154431e+00  9.109454e-01  4.551895e+00
     vertex  2.035705e+00  1.793893e+00  3.447877e+00
     vertex  2.450223e+00  9.109454e-01  3.227473e+00
   endloop
 endfacet
 facet normal -7.795965e-01 -4.694716e-01  4.145188e-01
   outer loop
     vertex  3.154431e+00  9.109454e-01  4.551895e+00
     vertex  2.739912e+00  1.793893e+00  4.772298e+00
     vertex  2.035705e+00  1.793893e+00  3.447877e+00
   endloop
 endfacet
 facet normal  4.145188e-01 -8.829476e-01 -2.204035e-01
   outer loop
     vertex  6.272816e+00  2.788832e+00  2.893820e+00
     vertex  2.450223e+00  9.109454e-01  3.227473e+00
     vertex  5.568609e+00  2.788832e+00  1.569398e+00
   endloop
 endfacet
 facet normal  4.145188e-01 -8.829476e-01 -2.204035e-01
   outer loop
     vertex  6.272816e+00  2.788832e+00  2.893820e+00
     vertex  3.154431e+00  9.109454e-01  4.551895e+00
     vertex  2.450223e+00  9.109454e-01  3.227473e+00
   endloop
 endfacet
 facet normal  4.694716e-01  2.220446e-16  8.829476e-01
   outer loop
     vertex  5.858298e+00  3.671779e+00  3.114223e+00
     vertex  2.739912e+00  1.793893e+00  4.772298e+00
     vertex  3.154431e+00  9.109454e-01  4.551895e+00
   endloop
 endfacet
 facet normal  4.694716e-01  4.440892e-16  8.829476e-01
   outer loop
     vertex  5.858298e+00  3.671779e+00  3.114223e+00
     vertex  3.154431e+00  9.109454e-01  4.551895e+00
     vertex  6.272816e+00  2.788832e+00  2.893820e+00
   endloop
 endfacet
 facet normal -4.145188e-01  8.829476e-01  2.204035e-01
   outer loop
     vertex  5.858298e+00  3.671779e+00  3.114223e+00
     vertex  5.154090e+00  3.671779e+00  1.789802e+00
     vertex  2.035705e+00  1.793893e+00  3.447877e+00
   endloop
 endfacet
 facet normal -4.145188e-01  8.829476e-01  2.204035e-01
   outer loop
     vertex  5.858298e+00  3.671779e+00  3.114223e+00
     vertex  2.035705e+00  1.793893e+00  3.447877e+00
     vertex  2.739912e+00  1.793893e+00  4.772298e+00
   endloop
 endfacet
 facet normal  4.694716e-01 -8.326673e-17  8.829476e-01
   outer loop
     vertex  2.035705e+00  1.793893e+00  3.447877e+00
     vertex  1.256108e+00  1.324421e+00  3.862396e+00
     vertex  1.670627e+00  4.414738e-01  3.641992e+00
   endloop
 endfacet
 facet normal  4.694716e-01 -1.110223e-16  8.829476e-01
   outer loop
     vertex  2.035705e+00  1.793893e+00  3.447877e+00
     vertex  1.670627e+00  4.414738e-01  3.641992e+00
     vertex  2.450223e+00  9.109454e-01  3.227473e+00
   endloop
 endfacet
 facet normal  4.145188e-01 -8.829476e-01 -2.204035e-01
   outer loop
     vertex  1.670627e+00  4.414738e-01  3.641992e+00
     vertex -1.447759e+00 -1.436412e+00  5.300067e+00
     vertex -2.151966e+00 -1.436412e+00  3.975646e+00
   endloop
 endfacet
 facet normal  4.145188e-01 -8.829476e-01 -2.204035e-01
   outer loop
     vertex  2.450223e+00  9.109454e-01  3.227473e+00
     vertex  1.670627e+00  4.414738e-01  3.641992e+00
     vertex  1.746016e+00  9.109454e-01  1.903052e+00
   endloop
 endfacet
 facet normal  4.145188e-01 -8.829476e-01 -2.204035e-01
   outer loop
     vertex  4.629666e+00  2.788832e+00 -1.964970e-01
     vertex  1.276544e+00  9.109454e-01  1.020104e+00
     vertex  4.394930e+00  2.788832e+00 -6.379708e-01
   endloop
 endfacet
 facet normal  4.145188e-01 -8.829476e-01 -2.204035e-01
   outer loop
     vertex  4.629666e+00  2.788832e+00 -1.964970e-01
     vertex  1.746016e+00  9.109454e-01  1.903052e+00
     vertex  1.276544e+00  9.109454e-01  1.020104e+00
   endloop
 endfacet
 facet normal  4.145188e-01 -8.829476e-01 -2.204035e-01
   outer loop
     vertex  5.333873e+00  2.788832e+00  1.127924e+00
     vertex  1.746016e+00  9.109454e-01  1.903052e+00
     vertex  4.629666e+00  2.788832e+00 -1.964970e-01
   endloop
 endfacet
 facet normal  4.145188e-01 -8.829476e-01 -2.204035e-01
   outer loop
     vertex  5.333873e+00  2.788832e+00  1.127924e+00
     vertex  2.450223e+00  9.109454e-01  3.227473e+00
     vertex  1.746016e+00  9.109454e-01  1.903052e+00
   endloop
 endfacet
 facet normal  4.145188e-01 -8.829476e-01 -2.204035e-01
   outer loop
     vertex  5.568609e+00  2.788832e+00  1.569398e+00
     vertex  2.450223e+00  9.109454e-01  3.227473e+00
     vertex  5.333873e+00  2.788832e+00  1.127924e+00
   endloop
 endfacet
 facet normal  4.145188e-01 -8.829476e-01 -2.204035e-01
   outer loop
     vertex  1.746016e+00  9.109454e-01  1.903052e+00
     vertex  1.670627e+00  4.414738e-01  3.641992e+00
     vertex -2.151966e+00 -1.436412e+00  3.975646e+00
   endloop
 endfacet
 facet normal  7.795965e-01  4.694716e-01 -4.145188e-01
   outer loop
     vertex  6.272816e+00  2.788832e+00  2.893820e+00
     vertex  5.568609e+00  2.788832e+00  1.569398e+00
     vertex  5.154090e+00  3.671779e+00  1.789802e+00
   endloop
 endfacet
 facet normal  7.795965e-01  4.694716e-01 -4.145188e-01
   outer loop
     vertex  6.272816e+00  2.788832e+00  2.893820e+00
     vertex  5.154090e+00  3.671779e+00  1.789802e+00
     vertex  5.858298e+00  3.671779e+00  3.114223e+00
   endloop
 endfacet
 facet normal -4.145188e-01  8.829476e-01  2.204035e-01
   outer loop
     vertex  1.256108e+00  1.324421e+00  3.862396e+00
     vertex -2.566485e+00 -5.534649e-01  4.196049e+00
     vertex -1.862278e+00 -5.534649e-01  5.520471e+00
   endloop
 endfacet
 facet normal -4.145188e-01  8.829476e-01  2.204035e-01
   outer loop
     vertex  2.035705e+00  1.793893e+00  3.447877e+00
     vertex  1.331497e+00  1.793893e+00  2.123456e+00
     vertex  1.256108e+00  1.324421e+00  3.862396e+00
   endloop
 endfacet
 facet normal -4.145188e-01  8.829476e-01  2.204035e-01
   outer loop
     vertex  4.215147e+00  3.671779e+00  2.390658e-02
     vertex  3.980411e+00  3.671779e+00 -4.175672e-01
     vertex  8.620256e-01  1.793893e+00  1.240508e+00
   endloop
 endfacet
 facet normal -4.145188e-01  8.829476e-01  2.204035e-01
   outer loop
     vertex  4.215147e+00  3.671779e+00  2.390658e-02
     vertex  8.620256e-01  1.793893e+00  1.240508e+00
     vertex  1.331497e+00  1.793893e+00  2.123456e+00
   endloop
 endfacet
 facet normal -4.145188e-01  8.829476e-01  2.204035e-01
   outer loop
     vertex  4.919355e+00  3.671779e+00  1.348328e+00
     vertex  4.215147e+00  3.671779e+00  2.390658e-02
     vertex  1.331497e+00  1.793893e+00  2.123456e+00
   endloop
 endfacet
 facet normal -4.145188e-01  8.829476e-01  2.204035e-01
   outer loop
     vertex  4.919355e+00  3.671779e+00  1.348328e+00
     vertex  1.331497e+00  1.793893e+00  2.123456e+00
     vertex  2.035705e+00  1.793893e+00  3.447877e+00
   endloop
 endfacet
 facet normal -4.145188e-01  8.829476e-01  2.204035e-01
   outer loop
     vertex  5.154090e+00  3.671779e+00  1.789802e+00
     vertex  4.919355e+00  3.671779e+00  1.348328e+00
     vertex  2.035705e+00  1.793893e+00  3.447877e+00
   endloop
 endfacet
 facet normal -4.145188e-01  8.829476e-01  2.204035e-01
   outer loop
     vertex  1.331497e+00  1.793893e+00  2.123456e+00
     vertex -2.566485e+00 -5.534649e-01  4.196049e+00
     vertex  1.256108e+00  1.324421e+00  3.862396e+00
   endloop
 endfacet
 facet normal  7.795965e-01  4.694716e-01 -4.145188e-01
   outer loop
     vertex  2.844306e+00  4.414738e-01  5.849361e+00
     vertex  1.670627e+00  4.414738e-01  3.641992e+00
     vertex  1.256108e+00  1.324421e+00  3.862396e+00
   endloop
 endfacet
 facet normal  7.795965e-01  4.694716e-01 -4.145188e-01
   outer loop
     vertex  2.844306e+00  4.414738e-01  5.849361e+00
     vertex  1.256108e+00  1.324421e+00  3.862396e+00
     vertex  2.429787e+00  1.324421e+00  6.069765e+00
   endloop
 endfacet
 facet normal -4.694716e-01  0.000000e+00 -8.829476e-01
   outer loop
     vertex  3.980411e+00  3.671779e+00 -4.175672e-01
     vertex  1.276544e+00  9.109454e-01  1.020104e+00
     vertex  8.620256e-01  1.793893e+00  1.240508e+00
   endloop
 endfacet
 facet normal -4.694716e-01 -1.110223e-16 -8.829476e-01
   outer loop
     vertex  3.980411e+00  3.671779e+00 -4.175672e-01
     vertex  4.394930e+00  2.788832e+00 -6.379708e-01
     vertex  1.276544e+00  9.109454e-01  1.020104e+00
   endloop
 endfacet
 facet normal  7.795965e-01  4.694716e-01 -4.145188e-01
   outer loop
     vertex  4.629666e+00  2.788832e+00 -1.964970e-01
     vertex  4.394930e+00  2.788832e+00 -6.379708e-01
     vertex  3.980411e+00  3.671779e+00 -4.175672e-01
   endloop
 endfacet
 facet normal  7.795965e-01  4.694716e-01 -4.145188e-01
   outer loop
     vertex  4.629666e+00  2.788832e+00 -1.964970e-01
     vertex  3.980411e+00  3.671779e+00 -4.175672e-01
     vertex  4.215147e+00  3.671779e+00  2.390658e-02
   endloop
 endfacet
 facet normal  4.145188e-01 -8.829476e-01 -2.204035e-01
   outer loop
     vertex  7.672663e+00  4.197246e+00 -1.156319e-01
     vertex  4.629666e+00  2.788832e+00 -1.964970e-01
     vertex  6.968455e+00  4.197246e+00 -1.440053e+00
   endloop
 endfacet
 facet normal  4.145188e-01 -8.829476e-01 -2.204035e-01
   outer loop
     vertex  7.672663e+00  4.197246e+00 -1.156319e-01
     vertex  5.333873e+00  2.788832e+00  1.127924e+00
     vertex  4.629666e+00  2.788832e+00 -1.964970e-01
   endloop
 endfacet
 facet normal  7.795965e-01  4.694716e-01 -4.145188e-01
   outer loop
     vertex  5.568609e+00  2.788832e+00  1.569398e+00
     vertex  5.333873e+00  2.788832e+00  1.127924e+00
     vertex  4.919355e+00  3.671779e+00  1.348328e+00
   endloop
 endfacet
 facet normal  7.795965e-01  4.694716e-01 -4.145188e-01
   outer loop
     vertex  5.568609e+00  2.788832e+00  1.569398e+00
     vertex  4.919355e+00  3.671779e+00  1.348328e+00
     vertex  5.154090e+00  3.671779e+00  1.789802e+00
   endloop
 endfacet
 facet normal  4.145188e-01 -8.829476e-01 -2.204035e-01
   outer loop
     vertex -1.447759e+00 -1.436412e+00  5.300067e+00
     vertex -2.612869e+00 -2.844827e+00  8.750993e+00
     vertex -3.786548e+00 -2.844827e+00  6.543624e+00
   endloop
 endfacet
 facet normal  4.145188e-01 -8.829476e-01 -2.204035e-01
   outer loop
     vertex  2.844306e+00  4.414738e-01  5.849361e+00
     vertex -1.447759e+00 -1.436412e+00  5.300067e+00
     vertex  1.670627e+00  4.414738e-01  3.641992e+00
   endloop
 endfacet
 facet normal  4.145188e-01 -8.829476e-01 -2.204035e-01
   outer loop
     vertex  2.844306e+00  4.414738e-01  5.849361e+00
     vertex -2.612869e+00 -2.844827e+00  8.750993e+00
     vertex -1.447759e+00 -1.436412e+00  5.300067e+00
   endloop
 endfacet
 facet normal -7.795965e-01 -4.694716e-01  4.145188e-01
   outer loop
     vertex -1.447759e+00 -1.436412e+00  5.300067e+00
     vertex -2.566485e+00 -5.534649e-01  4.196049e+00
     vertex -2.151966e+00 -1.436412e+00  3.975646e+00
   endloop
 endfacet
 facet normal -7.795965e-01 -4.694716e-01  4.145188e-01
   outer loop
     vertex -1.447759e+00 -1.436412e+00  5.300067e+00
     vertex -1.862278e+00 -5.534649e-01  5.520471e+00
     vertex -2.566485e+00 -5.534649e-01  4.196049e+00
   endloop
 endfacet
 facet normal  4.145188e-01 -8.829476e-01 -2.204035e-01
   outer loop
     vertex  1.746016e+00  9.109454e-01  1.903052e+00
     vertex -2.621438e+00 -1.436412e+00  3.092698e+00
     vertex  1.276544e+00  9.109454e-01  1.020104e+00
   endloop
 endfacet
 facet normal  4.145188e-01 -8.829476e-01 -2.204035e-01
   outer loop
     vertex  1.746016e+00  9.109454e-01  1.903052e+00
     vertex -2.151966e+00 -1.436412e+00  3.975646e+00
     vertex -2.621438e+00 -1.436412e+00  3.092698e+00
   endloop
 endfacet
 facet normal -4.145188e-01  8.829476e-01  2.204035e-01
   outer loop
     vertex  7.258144e+00  5.080194e+00  1.047716e-01
     vertex  6.553937e+00  5.080194e+00 -1.219650e+00
     vertex  4.215147e+00  3.671779e+00  2.390658e-02
   endloop
 endfacet
 facet normal -4.145188e-01  8.829476e-01  2.204035e-01
   outer loop
     vertex  7.258144e+00  5.080194e+00  1.047716e-01
     vertex  4.215147e+00  3.671779e+00  2.390658e-02
     vertex  4.919355e+00  3.671779e+00  1.348328e+00
   endloop
 endfacet
 facet normal -4.145188e-01  8.829476e-01  2.204035e-01
   outer loop
     vertex -1.862278e+00 -5.534649e-01  5.520471e+00
     vertex -4.201067e+00 -1.961880e+00  6.764027e+00
     vertex -3.027388e+00 -1.961880e+00  8.971396e+00
   endloop
 endfacet
 facet normal -4.145188e-01  8.829476e-01  2.204035e-01
   outer loop
     vertex  2.429787e+00  1.324421e+00  6.069765e+00
     vertex  1.256108e+00  1.324421e+00  3.862396e+00
     vertex -1.862278e+00 -5.534649e-01  5.520471e+00
   endloop
 endfacet
 facet normal -4.145188e-01  8.829476e-01  2.204035e-01
   outer loop
     vertex  2.429787e+00  1.324421e+00  6.069765e+00
     vertex -1.862278e+00 -5.534649e-01  5.520471e+00
     vertex -3.027388e+00 -1.961880e+00  8.971396e+00
   endloop
 endfacet
 facet normal -4.145188e-01  8.829476e-01  2.204035e-01
   outer loop
     vertex  1.331497e+00  1.793893e+00  2.123456e+00
     vertex  8.620256e-01  1.793893e+00  1.240508e+00
     vertex -3.035957e+00 -5.534649e-01  3.313102e+00
   endloop
 endfacet
 facet normal -4.145188e-01  8.829476e-01  2.204035e-01
   outer loop
     vertex  1.331497e+00  1.793893e+00  2.123456e+00
     vertex -3.035957e+00 -5.534649e-01  3.313102e+00
     vertex -2.566485e+00 -5.534649e-01  4.196049e+00
   endloop
 endfacet
 facet normal  4.694716e-01  5.075305e-16  8.829476e-01
   outer loop
     vertex  2.429787e+00  1.324421e+00  6.069765e+00
     vertex -3.027388e+00 -1.961880e+00  8.971396e+00
     vertex -2.612869e+00 -2.844827e+00  8.750993e+00
   endloop
 endfacet
 facet normal  4.694716e-01  3.172066e-17  8.829476e-01
   outer loop
     vertex  2.429787e+00  1.324421e+00  6.069765e+00
     vertex -2.612869e+00 -2.844827e+00  8.750993e+00
     vertex  2.844306e+00  4.414738e-01  5.849361e+00
   endloop
 endfacet
 facet normal  7.795965e-01  4.694716e-01 -4.145188e-01
   outer loop
     vertex  1.276544e+00  9.109454e-01  1.020104e+00
     vertex  5.723371e-01  9.109454e-01 -3.043170e-01
     vertex  1.578183e-01  1.793893e+00 -8.391346e-02
   endloop
 endfacet
 facet normal  7.795965e-01  4.694716e-01 -4.145188e-01
   outer loop
     vertex  1.276544e+00  9.109454e-01  1.020104e+00
     vertex  1.578183e-01  1.793893e+00 -8.391346e-02
     vertex  8.620256e-01  1.793893e+00  1.240508e+00
   endloop
 endfacet
 facet normal -4.694716e-01 -2.960595e-16 -8.829476e-01
   outer loop
     vertex  6.553937e+00  5.080194e+00 -1.219650e+00
     vertex  4.629666e+00  2.788832e+00 -1.964970e-01
     vertex  4.215147e+00  3.671779e+00  2.390658e-02
   endloop
 endfacet
 facet normal -4.694716e-01  1.850372e-16 -8.829476e-01
   outer loop
     vertex  6.553937e+00  5.080194e+00 -1.219650e+00
     vertex  6.968455e+00  4.197246e+00 -1.440053e+00
     vertex  4.629666e+00  2.788832e+00 -1.964970e-01
   endloop
 endfacet
 facet normal  7.795965e-01  4.694716e-01 -4.145188e-01
   outer loop
     vertex  7.672663e+00  4.197246e+00 -1.156319e-01
     vertex  6.968455e+00  4.197246e+00 -1.440053e+00
     vertex  6.553937e+00  5.080194e+00 -1.219650e+00
   endloop
 endfacet
 facet normal  7.795965e-01  4.694716e-01 -4.145188e-01
   outer loop
     vertex  7.672663e+00  4.197246e+00 -1.156319e-01
     vertex  6.553937e+00  5.080194e+00 -1.219650e+00
     vertex  7.258144e+00  5.080194e+00  1.047716e-01
   endloop
 endfacet
 facet normal  4.694716e-01  0.000000e+00  8.829476e-01
   outer loop
     vertex  7.258144e+00  5.080194e+00  1.047716e-01
     vertex  4.919355e+00  3.671779e+00  1.348328e+00
     vertex  5.333873e+00  2.788832e+00  1.127924e+00
   endloop
 endfacet
 facet normal  4.694716e-01  1.850372e-17  8.829476e-01
   outer loop
     vertex  7.258144e+00  5.080194e+00  1.047716e-01
     vertex  5.333873e+00  2.788832e+00  1.127924e+00
     vertex  7.672663e+00  4.197246e+00 -1.156319e-01
   endloop
 endfacet
 facet normal -4.694716e-01 -1.480297e-16 -8.829476e-01
   outer loop
     vertex -1.862278e+00 -5.534649e-01  5.520471e+00
     vertex -3.786548e+00 -2.844827e+00  6.543624e+00
     vertex -4.201067e+00 -1.961880e+00  6.764027e+00
   endloop
 endfacet
 facet normal -4.694716e-01 -1.850372e-17 -8.829476e-01
   outer loop
     vertex -1.862278e+00 -5.534649e-01  5.520471e+00
     vertex -1.447759e+00 -1.436412e+00  5.300067e+00
     vertex -3.786548e+00 -2.844827e+00  6.543624e+00
   endloop
 endfacet
 facet normal -7.795965e-01 -4.694716e-01  4.145188e-01
   outer loop
     vertex -2.612869e+00 -2.844827e+00  8.750993e+00
     vertex -4.201067e+00 -1.961880e+00  6.764027e+00
     vertex -3.786548e+00 -2.844827e+00  6.543624e+00
   endloop
 endfacet
 facet normal -7.795965e-01 -4.694716e-01  4.145188e-01
   outer loop
     vertex -2.612869e+00 -2.844827e+00  8.750993e+00
     vertex -3.027388e+00 -1.961880e+00  8.971396e+00
     vertex -4.201067e+00 -1.961880e+00  6.764027e+00
   endloop
 endfacet
 facet normal  4.694716e-01 -6.661338e-16  8.829476e-01
   outer loop
     vertex -2.566485e+00 -5.534649e-01  4.196049e+00
     vertex -5.684871e+00 -2.431351e+00  5.854125e+00
     vertex -5.270352e+00 -3.314299e+00  5.633721e+00
   endloop
 endfacet
 facet normal  4.694716e-01  0.000000e+00  8.829476e-01
   outer loop
     vertex -2.566485e+00 -5.534649e-01  4.196049e+00
     vertex -5.270352e+00 -3.314299e+00  5.633721e+00
     vertex -2.151966e+00 -1.436412e+00  3.975646e+00
   endloop
 endfacet
 facet normal  4.145188e-01 -8.829476e-01 -2.204035e-01
   outer loop
     vertex -2.621438e+00 -1.436412e+00  3.092698e+00
     vertex -5.270352e+00 -3.314299e+00  5.633721e+00
     vertex -6.444031e+00 -3.314299e+00  3.426352e+00
   endloop
 endfacet
 facet normal  4.145188e-01 -8.829476e-01 -2.204035e-01
   outer loop
     vertex -2.151966e+00 -1.436412e+00  3.975646e+00
     vertex -5.270352e+00 -3.314299e+00  5.633721e+00
     vertex -2.621438e+00 -1.436412e+00  3.092698e+00
   endloop
 endfacet
 facet normal  4.145188e-01 -8.829476e-01 -2.204035e-01
   outer loop
     vertex  5.723371e-01  9.109454e-01 -3.043170e-01
     vertex -2.621438e+00 -1.436412e+00  3.092698e+00
     vertex -6.444031e+00 -3.314299e+00  3.426352e+00
   endloop
 endfacet
 facet normal  4.145188e-01 -8.829476e-01 -2.204035e-01
   outer loop
     vertex  1.276544e+00  9.109454e-01  1.020104e+00
     vertex -2.621438e+00 -1.436412e+00  3.092698e+00
     vertex  5.723371e-01  9.109454e-01 -3.043170e-01
   endloop
 endfacet
 facet normal -4.145188e-01  8.829476e-01  2.204035e-01
   outer loop
     vertex -3.035957e+00 -5.534649e-01  3.313102e+00
     vertex -6.858550e+00 -2.431351e+00  3.646756e+00
     vertex -5.684871e+00 -2.431351e+00  5.854125e+00
   endloop
 endfacet
 facet normal -4.145188e-01  8.829476e-01  2.204035e-01
   outer loop
     vertex -2.566485e+00 -5.534649e-01  4.196049e+00
     vertex -3.035957e+00 -5.534649e-01  3.313102e+00
     vertex -5.684871e+00 -2.431351e+00  5.854125e+00
   endloop
 endfacet
 facet normal -4.145188e-01  8.829476e-01  2.204035e-01
   outer loop
     vertex  1.578183e-01  1.793893e+00 -8.391346e-02
     vertex -6.858550e+00 -2.431351e+00  3.646756e+00
     vertex -3.035957e+00 -5.534649e-01  3.313102e+00
   endloop
 endfacet
 facet normal -4.145188e-01  8.829476e-01  2.204035e-01
   outer loop
     vertex  8.620256e-01  1.793893e+00  1.240508e+00
     vertex  1.578183e-01  1.793893e+00 -8.391346e-02
     vertex -3.035957e+00 -5.534649e-01  3.313102e+00
   endloop
 endfacet
 facet normal -4.694716e-01 -7.894919e-16 -8.829476e-01
   outer loop
     vertex  1.578183e-01  1.793893e+00 -8.391346e-02
     vertex -6.444031e+00 -3.314299e+00  3.426352e+00
     vertex -6.858550e+00 -2.431351e+00  3.646756e+00
   endloop
 endfacet
 facet normal -4.694716e-01 -2.467162e-17 -8.829476e-01
   outer loop
     vertex  1.578183e-01  1.793893e+00 -8.391346e-02
     vertex  5.723371e-01  9.109454e-01 -3.043170e-01
     vertex -6.444031e+00 -3.314299e+00  3.426352e+00
   endloop
 endfacet
 facet normal -7.795965e-01 -4.694716e-01  4.145188e-01
   outer loop
     vertex -5.270352e+00 -3.314299e+00  5.633721e+00
     vertex -6.858550e+00 -2.431351e+00  3.646756e+00
     vertex -6.444031e+00 -3.314299e+00  3.426352e+00
   endloop
 endfacet
 facet normal -7.795965e-01 -4.694716e-01  4.145188e-01
   outer loop
     vertex -5.270352e+00 -3.314299e+00  5.633721e+00
     vertex -5.684871e+00 -2.431351e+00  5.854125e+00
     vertex -6.858550e+00 -2.431351e+00  3.646756e+00
   endloop
 endfacet
 facet normal -7.795965e-01 -4.694716e-01  4.145188e-01
   outer loop
     vertex  4.394930e+00  2.788832e+00 -6.379708e-01
     vertex  3.276204e+00  3.671779e+00 -1.741989e+00
     vertex  3.690723e+00  2.788832e+00 -1.962392e+00
   endloop
 endfacet
 facet normal -7.795965e-01 -4.694716e-01  4.145188e-01
   outer loop
     vertex  4.394930e+00  2.788832e+00 -6.379708e-01
     vertex  3.980411e+00  3.671779e+00 -4.175672e-01
     vertex  3.276204e+00  3.671779e+00 -1.741989e+00
   endloop
 endfacet
 facet normal  4.145188e-01 -8.829476e-01 -2.204035e-01
   outer loop
     vertex  6.733720e+00  4.197246e+00 -1.881527e+00
     vertex  3.690723e+00  2.788832e+00 -1.962392e+00
     vertex  6.029512e+00  4.197246e+00 -3.205949e+00
   endloop
 endfacet
 facet normal  4.145188e-01 -8.829476e-01 -2.204035e-01
   outer loop
     vertex  6.733720e+00  4.197246e+00 -1.881527e+00
     vertex  4.394930e+00  2.788832e+00 -6.379708e-01
     vertex  3.690723e+00  2.788832e+00 -1.962392e+00
   endloop
 endfacet
 facet normal  4.694716e-01  1.480297e-16  8.829476e-01
   outer loop
     vertex  6.319201e+00  5.080194e+00 -1.661124e+00
     vertex  3.980411e+00  3.671779e+00 -4.175672e-01
     vertex  4.394930e+00  2.788832e+00 -6.379708e-01
   endloop
 endfacet
 facet normal  4.694716e-01 -1.665335e-16  8.829476e-01
   outer loop
     vertex  6.319201e+00  5.080194e+00 -1.661124e+00
     vertex  4.394930e+00  2.788832e+00 -6.379708e-01
     vertex  6.733720e+00  4.197246e+00 -1.881527e+00
   endloop
 endfacet
 facet normal -4.145188e-01  8.829476e-01  2.204035e-01
   outer loop
     vertex  6.319201e+00  5.080194e+00 -1.661124e+00
     vertex  5.614993e+00  5.080194e+00 -2.985545e+00
     vertex  3.276204e+00  3.671779e+00 -1.741989e+00
   endloop
 endfacet
 facet normal -4.145188e-01  8.829476e-01  2.204035e-01
   outer loop
     vertex  6.319201e+00  5.080194e+00 -1.661124e+00
     vertex  3.276204e+00  3.671779e+00 -1.741989e+00
     vertex  3.980411e+00  3.671779e+00 -4.175672e-01
   endloop
 endfacet
 facet normal -4.694716e-01  0.000000e+00 -8.829476e-01
   outer loop
     vertex  5.614993e+00  5.080194e+00 -2.985545e+00
     vertex  3.690723e+00  2.788832e+00 -1.962392e+00
     vertex  3.276204e+00  3.671779e+00 -1.741989e+00
   endloop
 endfacet
 facet normal -4.694716e-01  4.996004e-16 -8.829476e-01
   outer loop
     vertex  5.614993e+00  5.080194e+00 -2.985545e+00
     vertex  6.029512e+00  4.197246e+00 -3.205949e+00
     vertex  3.690723e+00  2.788832e+00 -1.962392e+00
   endloop
 endfacet
 facet normal  7.795965e-01  4.694716e-01 -4.145188e-01
   outer loop
     vertex  6.733720e+00  4.197246e+00 -1.881527e+00
     vertex  6.029512e+00  4.197246e+00 -3.205949e+00
     vertex  5.614993e+00  5.080194e+00 -2.985545e+00
   endloop
 endfacet
 facet normal  7.795965e-01  4.694716e-01 -4.145188e-01
   outer loop
     vertex  6.733720e+00  4.197246e+00 -1.881527e+00
     vertex  5.614993e+00  5.080194e+00 -2.985545e+00
     vertex  6.319201e+00  5.080194e+00 -1.661124e+00
   endloop
 endfacet
endsolid
