solid 
 facet normal  5.000000e-01  0.000000e+00 -8.660254e-01
   outer loop
     vertex  6.915064e+00 -6.000000e+00 -6.977241e+00
     vertex  2.584936e+00 -1.600000e+01 -9.477241e+00
     vertex  2.584936e+00 -6.000000e+00 -9.477241e+00
   endloop
 endfacet
 facet normal  5.000000e-01  0.000000e+00 -8.660254e-01
   outer loop
     vertex  6.915064e+00 -6.000000e+00 -6.977241e+00
     vertex  6.915064e+00 -1.600000e+01 -6.977241e+00
     vertex  2.584936e+00 -1.600000e+01 -9.477241e+00
   endloop
 endfacet
 facet normal -8.660254e-01 -0.000000e+00 -5.000000e-01
   outer loop
     vertex  2.084936e+00 -6.000000e+00 -8.611216e+00
     vertex  2.584936e+00 -1.600000e+01 -9.477241e+00
     vertex  2.084936e+00 -1.600000e+01 -8.611216e+00
   endloop
 endfacet
 facet normal -8.660254e-01  0.000000e+00 -5.000000e-01
   outer loop
     vertex  2.084936e+00 -6.000000e+00 -8.611216e+00
     vertex  2.584936e+00 -6.000000e+00 -9.477241e+00
     vertex  2.584936e+00 -1.600000e+01 -9.477241e+00
   endloop
 endfacet
 facet normal  5.000000e-01  7.105427e-16 -8.660254e-01
   outer loop
     vertex  6.915064e+00 -6.000000e+00 -6.977241e+00
     vertex  2.584936e+00 -6.000000e+00 -9.477241e+00
     vertex  2.584936e+00 -5.000000e+00 -9.477241e+00
   endloop
 endfacet
 facet normal  5.000000e-01  1.213274e-15 -8.660254e-01
   outer loop
     vertex  6.915064e+00 -6.000000e+00 -6.977241e+00
     vertex  2.584936e+00 -5.000000e+00 -9.477241e+00
     vertex  6.915064e+00 -5.000000e+00 -6.977241e+00
   endloop
 endfacet
 facet normal  8.660254e-01  0.000000e+00  5.000000e-01
   outer loop
     vertex  6.415064e+00 -6.000000e+00 -6.111216e+00
     vertex  6.415064e+00 -1.600000e+01 -6.111216e+00
     vertex  6.915064e+00 -1.600000e+01 -6.977241e+00
   endloop
 endfacet
 facet normal  8.660254e-01  0.000000e+00  5.000000e-01
   outer loop
     vertex  6.415064e+00 -6.000000e+00 -6.111216e+00
     vertex  6.915064e+00 -1.600000e+01 -6.977241e+00
     vertex  6.915064e+00 -6.000000e+00 -6.977241e+00
   endloop
 endfacet
 facet normal  5.000000e-01  0.000000e+00 -8.660254e-01
   outer loop
     vertex  6.915064e+00 -1.700000e+01 -6.977241e+00
     vertex  2.584936e+00 -1.700000e+01 -9.477241e+00
     vertex  2.584936e+00 -1.600000e+01 -9.477241e+00
   endloop
 endfacet
 facet normal  5.000000e-01 -1.213274e-15 -8.660254e-01
   outer loop
     vertex  6.915064e+00 -1.700000e+01 -6.977241e+00
     vertex  2.584936e+00 -1.600000e+01 -9.477241e+00
     vertex  6.915064e+00 -1.600000e+01 -6.977241e+00
   endloop
 endfacet
 facet normal -8.660254e-01  0.000000e+00 -5.000000e-01
   outer loop
     vertex -1.915064e+00 -1.600000e+01 -1.683013e+00
     vertex -2.415064e+00 -1.700000e+01 -8.169873e-01
     vertex -2.415064e+00 -1.600000e+01 -8.169873e-01
   endloop
 endfacet
 facet normal -8.660254e-01  0.000000e+00 -5.000000e-01
   outer loop
     vertex  2.584936e+00 -1.700000e+01 -9.477241e+00
     vertex -2.415064e+00 -1.700000e+01 -8.169873e-01
     vertex -1.915064e+00 -1.600000e+01 -1.683013e+00
   endloop
 endfacet
 facet normal -8.660254e-01  3.330669e-16 -5.000000e-01
   outer loop
     vertex  2.084936e+00 -1.600000e+01 -8.611216e+00
     vertex  2.584936e+00 -1.700000e+01 -9.477241e+00
     vertex -1.915064e+00 -1.600000e+01 -1.683013e+00
   endloop
 endfacet
 facet normal -8.660254e-01  3.845925e-16 -5.000000e-01
   outer loop
     vertex  2.584936e+00 -1.600000e+01 -9.477241e+00
     vertex  2.584936e+00 -1.700000e+01 -9.477241e+00
     vertex  2.084936e+00 -1.600000e+01 -8.611216e+00
   endloop
 endfacet
 facet normal -5.000000e-01  0.000000e+00  8.660254e-01
   outer loop
     vertex  6.415064e+00 -6.000000e+00 -6.111216e+00
     vertex  2.084936e+00 -6.000000e+00 -8.611216e+00
     vertex  2.084936e+00 -1.600000e+01 -8.611216e+00
   endloop
 endfacet
 facet normal -5.000000e-01  0.000000e+00  8.660254e-01
   outer loop
     vertex  6.415064e+00 -6.000000e+00 -6.111216e+00
     vertex  2.084936e+00 -1.600000e+01 -8.611216e+00
     vertex  6.415064e+00 -1.600000e+01 -6.111216e+00
   endloop
 endfacet
 facet normal -8.660254e-01  0.000000e+00 -5.000000e-01
   outer loop
     vertex -1.915064e+00 -6.000000e+00 -1.683013e+00
     vertex -2.415064e+00 -6.000000e+00 -8.169873e-01
     vertex -2.415064e+00 -5.000000e+00 -8.169873e-01
   endloop
 endfacet
 facet normal -8.660254e-01 -3.845925e-16 -5.000000e-01
   outer loop
     vertex  2.584936e+00 -5.000000e+00 -9.477241e+00
     vertex  2.584936e+00 -6.000000e+00 -9.477241e+00
     vertex  2.084936e+00 -6.000000e+00 -8.611216e+00
   endloop
 endfacet
 facet normal -8.660254e-01  0.000000e+00 -5.000000e-01
   outer loop
     vertex  2.584936e+00 -5.000000e+00 -9.477241e+00
     vertex -1.915064e+00 -6.000000e+00 -1.683013e+00
     vertex -2.415064e+00 -5.000000e+00 -8.169873e-01
   endloop
 endfacet
 facet normal -8.660254e-01 -3.885781e-16 -5.000000e-01
   outer loop
     vertex  2.584936e+00 -5.000000e+00 -9.477241e+00
     vertex  2.084936e+00 -6.000000e+00 -8.611216e+00
     vertex -1.915064e+00 -6.000000e+00 -1.683013e+00
   endloop
 endfacet
 facet normal  8.660254e-01  0.000000e+00  5.000000e-01
   outer loop
     vertex  2.415064e+00 -6.000000e+00  8.169873e-01
     vertex  1.915064e+00 -5.000000e+00  1.683013e+00
     vertex  1.915064e+00 -6.000000e+00  1.683013e+00
   endloop
 endfacet
 facet normal  8.660254e-01  3.250959e-16  5.000000e-01
   outer loop
     vertex  6.915064e+00 -5.000000e+00 -6.977241e+00
     vertex  6.415064e+00 -6.000000e+00 -6.111216e+00
     vertex  6.915064e+00 -6.000000e+00 -6.977241e+00
   endloop
 endfacet
 facet normal  8.660254e-01  7.105427e-16  5.000000e-01
   outer loop
     vertex  6.915064e+00 -5.000000e+00 -6.977241e+00
     vertex  1.915064e+00 -5.000000e+00  1.683013e+00
     vertex  2.415064e+00 -6.000000e+00  8.169873e-01
   endloop
 endfacet
 facet normal  8.660254e-01  8.326673e-16  5.000000e-01
   outer loop
     vertex  6.915064e+00 -5.000000e+00 -6.977241e+00
     vertex  2.415064e+00 -6.000000e+00  8.169873e-01
     vertex  6.415064e+00 -6.000000e+00 -6.111216e+00
   endloop
 endfacet
 facet normal  0.000000e+00  1.000000e+00  0.000000e+00
   outer loop
     vertex  6.915064e+00 -5.000000e+00 -6.977241e+00
     vertex  2.584936e+00 -5.000000e+00 -9.477241e+00
     vertex -2.415064e+00 -5.000000e+00 -8.169873e-01
   endloop
 endfacet
 facet normal  0.000000e+00  1.000000e+00  0.000000e+00
   outer loop
     vertex  6.915064e+00 -5.000000e+00 -6.977241e+00
     vertex -2.415064e+00 -5.000000e+00 -8.169873e-01
     vertex  1.915064e+00 -5.000000e+00  1.683013e+00
   endloop
 endfacet
 facet normal  8.660254e-01  0.000000e+00  5.000000e-01
   outer loop
     vertex  2.415064e+00 -1.600000e+01  8.169873e-01
     vertex  1.915064e+00 -1.600000e+01  1.683013e+00
     vertex  1.915064e+00 -1.700000e+01  1.683013e+00
   endloop
 endfacet
 facet normal  8.660254e-01 -7.105427e-16  5.000000e-01
   outer loop
     vertex  6.415064e+00 -1.600000e+01 -6.111216e+00
     vertex  1.915064e+00 -1.700000e+01  1.683013e+00
     vertex  6.915064e+00 -1.700000e+01 -6.977241e+00
   endloop
 endfacet
 facet normal  8.660254e-01  0.000000e+00  5.000000e-01
   outer loop
     vertex  6.415064e+00 -1.600000e+01 -6.111216e+00
     vertex  2.415064e+00 -1.600000e+01  8.169873e-01
     vertex  1.915064e+00 -1.700000e+01  1.683013e+00
   endloop
 endfacet
 facet normal  8.660254e-01 -3.250959e-16  5.000000e-01
   outer loop
     vertex  6.915064e+00 -1.600000e+01 -6.977241e+00
     vertex  6.415064e+00 -1.600000e+01 -6.111216e+00
     vertex  6.915064e+00 -1.700000e+01 -6.977241e+00
   endloop
 endfacet
 facet normal -0.000000e+00 -1.000000e+00  0.000000e+00
   outer loop
     vertex  6.915064e+00 -1.700000e+01 -6.977241e+00
     vertex -2.415064e+00 -1.700000e+01 -8.169873e-01
     vertex  2.584936e+00 -1.700000e+01 -9.477241e+00
   endloop
 endfacet
 facet normal  0.000000e+00 -1.000000e+00  0.000000e+00
   outer loop
     vertex  6.915064e+00 -1.700000e+01 -6.977241e+00
     vertex  1.915064e+00 -1.700000e+01  1.683013e+00
     vertex -2.415064e+00 -1.700000e+01 -8.169873e-01
   endloop
 endfacet
 facet normal -5.000000e-01  0.000000e+00  8.660254e-01
   outer loop
     vertex  1.915064e+00 -1.700000e+01  1.683013e+00
     vertex -2.415064e+00 -1.600000e+01 -8.169873e-01
     vertex -2.415064e+00 -1.700000e+01 -8.169873e-01
   endloop
 endfacet
 facet normal -5.000000e-01  0.000000e+00  8.660254e-01
   outer loop
     vertex  1.915064e+00 -1.700000e+01  1.683013e+00
     vertex  1.915064e+00 -1.600000e+01  1.683013e+00
     vertex -2.415064e+00 -1.600000e+01 -8.169873e-01
   endloop
 endfacet
 facet normal -8.660254e-01 -0.000000e+00 -5.000000e-01
   outer loop
     vertex -2.415064e+00 -6.000000e+00 -8.169873e-01
     vertex -1.915064e+00 -1.600000e+01 -1.683013e+00
     vertex -2.415064e+00 -1.600000e+01 -8.169873e-01
   endloop
 endfacet
 facet normal -8.660254e-01  0.000000e+00 -5.000000e-01
   outer loop
     vertex -2.415064e+00 -6.000000e+00 -8.169873e-01
     vertex -1.915064e+00 -6.000000e+00 -1.683013e+00
     vertex -1.915064e+00 -1.600000e+01 -1.683013e+00
   endloop
 endfacet
 facet normal  0.000000e+00  1.000000e+00  0.000000e+00
   outer loop
     vertex  6.415064e+00 -1.600000e+01 -6.111216e+00
     vertex  2.084936e+00 -1.600000e+01 -8.611216e+00
     vertex -1.915064e+00 -1.600000e+01 -1.683013e+00
   endloop
 endfacet
 facet normal  0.000000e+00  1.000000e+00  0.000000e+00
   outer loop
     vertex  6.415064e+00 -1.600000e+01 -6.111216e+00
     vertex -1.915064e+00 -1.600000e+01 -1.683013e+00
     vertex  2.415064e+00 -1.600000e+01  8.169873e-01
   endloop
 endfacet
 facet normal -0.000000e+00 -1.000000e+00  0.000000e+00
   outer loop
     vertex  6.415064e+00 -6.000000e+00 -6.111216e+00
     vertex -1.915064e+00 -6.000000e+00 -1.683013e+00
     vertex  2.084936e+00 -6.000000e+00 -8.611216e+00
   endloop
 endfacet
 facet normal  0.000000e+00 -1.000000e+00  0.000000e+00
   outer loop
     vertex  6.415064e+00 -6.000000e+00 -6.111216e+00
     vertex  2.415064e+00 -6.000000e+00  8.169873e-01
     vertex -1.915064e+00 -6.000000e+00 -1.683013e+00
   endloop
 endfacet
 facet normal -5.000000e-01  0.000000e+00  8.660254e-01
   outer loop
     vertex  1.915064e+00 -6.000000e+00  1.683013e+00
     vertex -2.415064e+00 -5.000000e+00 -8.169873e-01
     vertex -2.415064e+00 -6.000000e+00 -8.169873e-01
   endloop
 endfacet
 facet normal -5.000000e-01  0.000000e+00  8.660254e-01
   outer loop
     vertex  1.915064e+00 -6.000000e+00  1.683013e+00
     vertex  1.915064e+00 -5.000000e+00  1.683013e+00
     vertex -2.415064e+00 -5.000000e+00 -8.169873e-01
   endloop
 endfacet
 facet normal  8.660254e-01  0.000000e+00  5.000000e-01
   outer loop
     vertex  1.915064e+00 -6.000000e+00  1.683013e+00
     vertex  1.915064e+00 -1.600000e+01  1.683013e+00
     vertex  2.415064e+00 -1.600000e+01  8.169873e-01
   endloop
 endfacet
 facet normal  8.660254e-01  0.000000e+00  5.000000e-01
   outer loop
     vertex  1.915064e+00 -6.000000e+00  1.683013e+00
     vertex  2.415064e+00 -1.600000e+01  8.169873e-01
     vertex  2.415064e+00 -6.000000e+00  8.169873e-01
   endloop
 endfacet
 facet normal -5.000000e-01  0.000000e+00  8.660254e-01
   outer loop
     vertex  1.915064e+00 -6.000000e+00  1.683013e+00
     vertex -2.415064e+00 -6.000000e+00 -8.169873e-01
     vertex -2.415064e+00 -1.600000e+01 -8.169873e-01
   endloop
 endfacet
 facet normal -5.000000e-01  0.000000e+00  8.660254e-01
   outer loop
     vertex  1.915064e+00 -6.000000e+00  1.683013e+00
     vertex -2.415064e+00 -1.600000e+01 -8.169873e-01
     vertex  1.915064e+00 -1.600000e+01  1.683013e+00
   endloop
 endfacet
 facet normal  5.000000e-01  0.000000e+00 -8.660254e-01
   outer loop
     vertex  2.415064e+00 -6.000000e+00  8.169873e-01
     vertex -1.915064e+00 -1.600000e+01 -1.683013e+00
     vertex -1.915064e+00 -6.000000e+00 -1.683013e+00
   endloop
 endfacet
 facet normal  5.000000e-01  0.000000e+00 -8.660254e-01
   outer loop
     vertex  2.415064e+00 -6.000000e+00  8.169873e-01
     vertex  2.415064e+00 -1.600000e+01  8.169873e-01
     vertex -1.915064e+00 -1.600000e+01 -1.683013e+00
   endloop
 endfacet
 facet normal -2.122187e-01 -9.721604e-01  9.933467e-02
   outer loop
     vertex  1.049224e-01 -3.855286e+00  2.761479e+00
     vertex -1.802672e+00 -3.921998e+00 -1.966801e+00
     vertex -8.440579e-01 -4.148840e+00 -2.138854e+00
   endloop
 endfacet
 facet normal -2.122187e-01 -9.721604e-01  9.933467e-02
   outer loop
     vertex  1.049224e-01 -3.855286e+00  2.761479e+00
     vertex -8.536915e-01 -3.628444e+00  2.933531e+00
     vertex -1.802672e+00 -3.921998e+00 -1.966801e+00
   endloop
 endfacet
 facet normal  2.122187e-01  9.721604e-01 -9.933467e-02
   outer loop
     vertex  9.537971e-01  3.335612e-02  2.364140e+00
     vertex  4.816818e-03 -2.601979e-01 -2.536193e+00
     vertex -9.537971e-01 -3.335612e-02 -2.364140e+00
   endloop
 endfacet
 facet normal  2.122187e-01  9.721604e-01 -9.933467e-02
   outer loop
     vertex  9.537971e-01  3.335612e-02  2.364140e+00
     vertex -9.537971e-01 -3.335612e-02 -2.364140e+00
     vertex -4.816818e-03  2.601979e-01  2.536193e+00
   endloop
 endfacet
 facet normal  9.586139e-01 -2.268418e-01 -1.720527e-01
   outer loop
     vertex  9.537971e-01  3.335612e-02  2.364140e+00
     vertex -8.440579e-01 -4.148840e+00 -2.138854e+00
     vertex  4.816818e-03 -2.601979e-01 -2.536193e+00
   endloop
 endfacet
 facet normal  9.586139e-01 -2.268418e-01 -1.720527e-01
   outer loop
     vertex  9.537971e-01  3.335612e-02  2.364140e+00
     vertex  1.049224e-01 -3.855286e+00  2.761479e+00
     vertex -8.440579e-01 -4.148840e+00 -2.138854e+00
   endloop
 endfacet
 facet normal -9.586139e-01  2.268418e-01  1.720527e-01
   outer loop
     vertex -4.816818e-03  2.601979e-01  2.536193e+00
     vertex -9.537971e-01 -3.335612e-02 -2.364140e+00
     vertex -1.802672e+00 -3.921998e+00 -1.966801e+00
   endloop
 endfacet
 facet normal -9.586139e-01  2.268418e-01  1.720527e-01
   outer loop
     vertex -4.816818e-03  2.601979e-01  2.536193e+00
     vertex -1.802672e+00 -3.921998e+00 -1.966801e+00
     vertex -8.536915e-01 -3.628444e+00  2.933531e+00
   endloop
 endfacet
 facet normal -1.897961e-01 -5.871080e-02 -9.800666e-01
   outer loop
     vertex -9.537971e-01 -3.335612e-02 -2.364140e+00
     vertex -8.440579e-01 -4.148840e+00 -2.138854e+00
     vertex -1.802672e+00 -3.921998e+00 -1.966801e+00
   endloop
 endfacet
 facet normal -1.897961e-01 -5.871080e-02 -9.800666e-01
   outer loop
     vertex -9.537971e-01 -3.335612e-02 -2.364140e+00
     vertex  4.816818e-03 -2.601979e-01 -2.536193e+00
     vertex -8.440579e-01 -4.148840e+00 -2.138854e+00
   endloop
 endfacet
 facet normal  1.897961e-01  5.871080e-02  9.800666e-01
   outer loop
     vertex -4.816818e-03  2.601979e-01  2.536193e+00
     vertex -8.536915e-01 -3.628444e+00  2.933531e+00
     vertex  1.049224e-01 -3.855286e+00  2.761479e+00
   endloop
 endfacet
 facet normal  1.897961e-01  5.871080e-02  9.800666e-01
   outer loop
     vertex -4.816818e-03  2.601979e-01  2.536193e+00
     vertex  1.049224e-01 -3.855286e+00  2.761479e+00
     vertex  9.537971e-01  3.335612e-02  2.364140e+00
   endloop
 endfacet
endsolid
