solid 
 facet normal  0.000000e+00 -1.000000e+00 -0.000000e+00
   outer loop
     vertex  6.000000e+00 -1.000000e+01  6.000000e+00
     vertex  5.000000e+00 -1.000000e+01 -4.000000e+00
     vertex  6.000000e+00 -1.000000e+01 -4.000000e+00
   endloop
 endfacet
 facet normal -0.000000e+00 -1.000000e+00  0.000000e+00
   outer loop
     vertex  6.000000e+00 -1.000000e+01  6.000000e+00
     vertex  5.000000e+00 -1.000000e+01  6.000000e+00
     vertex  5.000000e+00 -1.000000e+01 -4.000000e+00
   endloop
 endfacet
 facet normal  1.000000e+00  0.000000e+00  0.000000e+00
   outer loop
     vertex  6.000000e+00 -5.000000e+00 -2.500000e+00
     vertex  6.000000e+00 -1.000000e+01 -4.000000e+00
     vertex  6.000000e+00 -5.000000e+00 -4.000000e+00
   endloop
 endfacet
 facet normal  1.000000e+00  0.000000e+00  0.000000e+00
   outer loop
     vertex  6.000000e+00 -5.000000e+00  2.500000e+00
     vertex  6.000000e+00 -1.000000e+01  6.000000e+00
     vertex  6.000000e+00 -1.000000e+01 -4.000000e+00
   endloop
 endfacet
 facet normal  1.000000e+00  0.000000e+00  0.000000e+00
   outer loop
     vertex  6.000000e+00 -5.000000e+00  2.500000e+00
     vertex  6.000000e+00 -1.000000e+01 -4.000000e+00
     vertex  6.000000e+00 -5.000000e+00 -2.500000e+00
   endloop
 endfacet
 facet normal  1.000000e+00  0.000000e+00  0.000000e+00
   outer loop
     vertex  6.000000e+00 -5.000000e+00  6.000000e+00
     vertex  6.000000e+00 -1.000000e+01  6.000000e+00
     vertex  6.000000e+00 -5.000000e+00  2.500000e+00
   endloop
 endfacet
 facet normal  0.000000e+00  0.000000e+00  1.000000e+00
   outer loop
     vertex  5.000000e+00 -5.000000e+00  6.000000e+00
     vertex  5.000000e+00 -1.000000e+01  6.000000e+00
     vertex  6.000000e+00 -1.000000e+01  6.000000e+00
   endloop
 endfacet
 facet normal -0.000000e+00  0.000000e+00  1.000000e+00
   outer loop
     vertex  5.000000e+00 -5.000000e+00  6.000000e+00
     vertex  6.000000e+00 -1.000000e+01  6.000000e+00
     vertex  6.000000e+00 -5.000000e+00  6.000000e+00
   endloop
 endfacet
 facet normal -1.000000e+00  0.000000e+00 -0.000000e+00
   outer loop
     vertex  5.000000e+00 -5.000000e+00 -2.500000e+00
     vertex  5.000000e+00 -5.000000e+00 -4.000000e+00
     vertex  5.000000e+00 -1.000000e+01 -4.000000e+00
   endloop
 endfacet
 facet normal -1.000000e+00 -0.000000e+00  0.000000e+00
   outer loop
     vertex  5.000000e+00 -5.000000e+00  2.500000e+00
     vertex  5.000000e+00 -1.000000e+01 -4.000000e+00
     vertex  5.000000e+00 -1.000000e+01  6.000000e+00
   endloop
 endfacet
 facet normal -1.000000e+00  0.000000e+00 -0.000000e+00
   outer loop
     vertex  5.000000e+00 -5.000000e+00  2.500000e+00
     vertex  5.000000e+00 -5.000000e+00 -2.500000e+00
     vertex  5.000000e+00 -1.000000e+01 -4.000000e+00
   endloop
 endfacet
 facet normal -1.000000e+00 -0.000000e+00 -0.000000e+00
   outer loop
     vertex  5.000000e+00 -5.000000e+00  6.000000e+00
     vertex  5.000000e+00 -5.000000e+00  2.500000e+00
     vertex  5.000000e+00 -1.000000e+01  6.000000e+00
   endloop
 endfacet
 facet normal  0.000000e+00  0.000000e+00 -1.000000e+00
   outer loop
     vertex  5.000000e+00 -5.000000e+00 -4.000000e+00
     vertex  6.000000e+00 -1.000000e+01 -4.000000e+00
     vertex  5.000000e+00 -1.000000e+01 -4.000000e+00
   endloop
 endfacet
 facet normal  0.000000e+00  0.000000e+00 -1.000000e+00
   outer loop
     vertex  5.000000e+00 -5.000000e+00 -4.000000e+00
     vertex  6.000000e+00 -5.000000e+00 -4.000000e+00
     vertex  6.000000e+00 -1.000000e+01 -4.000000e+00
   endloop
 endfacet
 facet normal  0.000000e+00  1.000000e+00  0.000000e+00
   outer loop
     vertex  6.000000e+00 -5.000000e+00 -2.500000e+00
     vertex  6.000000e+00 -5.000000e+00 -4.000000e+00
     vertex  5.000000e+00 -5.000000e+00 -4.000000e+00
   endloop
 endfacet
 facet normal  0.000000e+00  1.000000e+00  0.000000e+00
   outer loop
     vertex  6.000000e+00 -5.000000e+00 -2.500000e+00
     vertex  5.000000e+00 -5.000000e+00 -4.000000e+00
     vertex  5.000000e+00 -5.000000e+00 -2.500000e+00
   endloop
 endfacet
 facet normal  1.000000e+00  0.000000e+00  0.000000e+00
   outer loop
     vertex  6.000000e+00  5.000000e+00  2.500000e+00
     vertex  6.000000e+00 -5.000000e+00 -2.500000e+00
     vertex  6.000000e+00  5.000000e+00 -2.500000e+00
   endloop
 endfacet
 facet normal  1.000000e+00  0.000000e+00  0.000000e+00
   outer loop
     vertex  6.000000e+00  5.000000e+00  2.500000e+00
     vertex  6.000000e+00 -5.000000e+00  2.500000e+00
     vertex  6.000000e+00 -5.000000e+00 -2.500000e+00
   endloop
 endfacet
 facet normal  0.000000e+00  1.000000e+00  0.000000e+00
   outer loop
     vertex  6.000000e+00 -5.000000e+00  6.000000e+00
     vertex  6.000000e+00 -5.000000e+00  2.500000e+00
     vertex  5.000000e+00 -5.000000e+00  2.500000e+00
   endloop
 endfacet
 facet normal  0.000000e+00  1.000000e+00  0.000000e+00
   outer loop
     vertex  6.000000e+00 -5.000000e+00  6.000000e+00
     vertex  5.000000e+00 -5.000000e+00  2.500000e+00
     vertex  5.000000e+00 -5.000000e+00  6.000000e+00
   endloop
 endfacet
 facet normal -1.000000e+00  0.000000e+00 -0.000000e+00
   outer loop
     vertex  5.000000e+00  5.000000e+00  2.500000e+00
     vertex  5.000000e+00  5.000000e+00 -2.500000e+00
     vertex  5.000000e+00 -5.000000e+00 -2.500000e+00
   endloop
 endfacet
 facet normal -1.000000e+00 -0.000000e+00  0.000000e+00
   outer loop
     vertex  5.000000e+00  5.000000e+00  2.500000e+00
     vertex  5.000000e+00 -5.000000e+00 -2.500000e+00
     vertex  5.000000e+00 -5.000000e+00  2.500000e+00
   endloop
 endfacet
 facet normal  0.000000e+00  0.000000e+00 -1.000000e+00
   outer loop
     vertex  5.000000e+00  5.000000e+00 -2.500000e+00
     vertex  6.000000e+00 -5.000000e+00 -2.500000e+00
     vertex  5.000000e+00 -5.000000e+00 -2.500000e+00
   endloop
 endfacet
 facet normal  0.000000e+00  0.000000e+00 -1.000000e+00
   outer loop
     vertex  5.000000e+00  5.000000e+00 -2.500000e+00
     vertex  6.000000e+00  5.000000e+00 -2.500000e+00
     vertex  6.000000e+00 -5.000000e+00 -2.500000e+00
   endloop
 endfacet
 facet normal  1.000000e+00 -1.776357e-16 -2.537653e-16
   outer loop
     vertex  6.000000e+00  5.000000e+00 -2.500000e+00
     vertex  6.000000e+00  5.000000e+00 -6.000000e+00
     vertex  6.000000e+00  1.500000e+01 -6.000000e+00
   endloop
 endfacet
 facet normal  1.000000e+00 -8.881784e-17  0.000000e+00
   outer loop
     vertex  6.000000e+00  5.000000e+00 -2.500000e+00
     vertex  6.000000e+00  1.500000e+01 -6.000000e+00
     vertex  6.000000e+00  1.500000e+01  4.000000e+00
   endloop
 endfacet
 facet normal  1.000000e+00 -8.881784e-17  0.000000e+00
   outer loop
     vertex  6.000000e+00  5.000000e+00  2.500000e+00
     vertex  6.000000e+00  5.000000e+00 -2.500000e+00
     vertex  6.000000e+00  1.500000e+01  4.000000e+00
   endloop
 endfacet
 facet normal  1.000000e+00 -1.776357e-16  5.921189e-16
   outer loop
     vertex  6.000000e+00  5.000000e+00  4.000000e+00
     vertex  6.000000e+00  5.000000e+00  2.500000e+00
     vertex  6.000000e+00  1.500000e+01  4.000000e+00
   endloop
 endfacet
 facet normal  0.000000e+00  0.000000e+00  1.000000e+00
   outer loop
     vertex  5.000000e+00  5.000000e+00  2.500000e+00
     vertex  5.000000e+00 -5.000000e+00  2.500000e+00
     vertex  6.000000e+00 -5.000000e+00  2.500000e+00
   endloop
 endfacet
 facet normal -0.000000e+00  0.000000e+00  1.000000e+00
   outer loop
     vertex  5.000000e+00  5.000000e+00  2.500000e+00
     vertex  6.000000e+00 -5.000000e+00  2.500000e+00
     vertex  6.000000e+00  5.000000e+00  2.500000e+00
   endloop
 endfacet
 facet normal -1.000000e+00  1.776357e-16  2.537653e-16
   outer loop
     vertex  5.000000e+00  5.000000e+00 -2.500000e+00
     vertex  5.000000e+00  1.500000e+01 -6.000000e+00
     vertex  5.000000e+00  5.000000e+00 -6.000000e+00
   endloop
 endfacet
 facet normal -1.000000e+00  8.881784e-17  0.000000e+00
   outer loop
     vertex  5.000000e+00  5.000000e+00 -2.500000e+00
     vertex  5.000000e+00  1.500000e+01  4.000000e+00
     vertex  5.000000e+00  1.500000e+01 -6.000000e+00
   endloop
 endfacet
 facet normal -1.000000e+00  8.881784e-17  0.000000e+00
   outer loop
     vertex  5.000000e+00  5.000000e+00  2.500000e+00
     vertex  5.000000e+00  1.500000e+01  4.000000e+00
     vertex  5.000000e+00  5.000000e+00 -2.500000e+00
   endloop
 endfacet
 facet normal -1.000000e+00  1.776357e-16 -5.921189e-16
   outer loop
     vertex  5.000000e+00  5.000000e+00  4.000000e+00
     vertex  5.000000e+00  1.500000e+01  4.000000e+00
     vertex  5.000000e+00  5.000000e+00  2.500000e+00
   endloop
 endfacet
 facet normal  0.000000e+00 -1.000000e+00 -0.000000e+00
   outer loop
     vertex  5.000000e+00  5.000000e+00 -2.500000e+00
     vertex  5.000000e+00  5.000000e+00 -6.000000e+00
     vertex  6.000000e+00  5.000000e+00 -6.000000e+00
   endloop
 endfacet
 facet normal  0.000000e+00 -1.000000e+00  0.000000e+00
   outer loop
     vertex  5.000000e+00  5.000000e+00 -2.500000e+00
     vertex  6.000000e+00  5.000000e+00 -6.000000e+00
     vertex  6.000000e+00  5.000000e+00 -2.500000e+00
   endloop
 endfacet
 facet normal  0.000000e+00  0.000000e+00 -1.000000e+00
   outer loop
     vertex  6.000000e+00  5.000000e+00 -6.000000e+00
     vertex  5.000000e+00  1.500000e+01 -6.000000e+00
     vertex  6.000000e+00  1.500000e+01 -6.000000e+00
   endloop
 endfacet
 facet normal  0.000000e+00  0.000000e+00 -1.000000e+00
   outer loop
     vertex  6.000000e+00  5.000000e+00 -6.000000e+00
     vertex  5.000000e+00  5.000000e+00 -6.000000e+00
     vertex  5.000000e+00  1.500000e+01 -6.000000e+00
   endloop
 endfacet
 facet normal  0.000000e+00 -1.000000e+00  0.000000e+00
   outer loop
     vertex  5.000000e+00  5.000000e+00  4.000000e+00
     vertex  5.000000e+00  5.000000e+00  2.500000e+00
     vertex  6.000000e+00  5.000000e+00  2.500000e+00
   endloop
 endfacet
 facet normal  0.000000e+00 -1.000000e+00  0.000000e+00
   outer loop
     vertex  5.000000e+00  5.000000e+00  4.000000e+00
     vertex  6.000000e+00  5.000000e+00  2.500000e+00
     vertex  6.000000e+00  5.000000e+00  4.000000e+00
   endloop
 endfacet
 facet normal  0.000000e+00 -0.000000e+00  1.000000e+00
   outer loop
     vertex  6.000000e+00  5.000000e+00  4.000000e+00
     vertex  6.000000e+00  1.500000e+01  4.000000e+00
     vertex  5.000000e+00  1.500000e+01  4.000000e+00
   endloop
 endfacet
 facet normal  0.000000e+00  0.000000e+00  1.000000e+00
   outer loop
     vertex  6.000000e+00  5.000000e+00  4.000000e+00
     vertex  5.000000e+00  1.500000e+01  4.000000e+00
     vertex  5.000000e+00  5.000000e+00  4.000000e+00
   endloop
 endfacet
 facet normal  0.000000e+00  1.000000e+00  0.000000e+00
   outer loop
     vertex  5.000000e+00  1.500000e+01  4.000000e+00
     vertex  6.000000e+00  1.500000e+01 -6.000000e+00
     vertex  5.000000e+00  1.500000e+01 -6.000000e+00
   endloop
 endfacet
 facet normal -0.000000e+00  1.000000e+00  0.000000e+00
   outer loop
     vertex  5.000000e+00  1.500000e+01  4.000000e+00
     vertex  6.000000e+00  1.500000e+01  4.000000e+00
     vertex  6.000000e+00  1.500000e+01 -6.000000e+00
   endloop
 endfacet
endsolid
