solid 
 facet normal  0.000000e+00 -1.000000e+00 -0.000000e+00
   outer loop
     vertex  1.760000e-01  0.000000e+00  7.680000e-02
     vertex  1.600000e-02  0.000000e+00  0.000000e+00
     vertex  1.760000e-01  0.000000e+00  0.000000e+00
   endloop
 endfacet
 facet normal -0.000000e+00 -1.000000e+00  0.000000e+00
   outer loop
     vertex  1.760000e-01  0.000000e+00  7.680000e-02
     vertex  1.600000e-02  0.000000e+00  7.680000e-02
     vertex  1.600000e-02  0.000000e+00  0.000000e+00
   endloop
 endfacet
 facet normal  0.000000e+00  0.000000e+00 -1.000000e+00
   outer loop
     vertex  1.120000e-01  1.600000e-02  0.000000e+00
     vertex  1.600000e-02  0.000000e+00  0.000000e+00
     vertex  1.600000e-02  1.600000e-02  0.000000e+00
   endloop
 endfacet
 facet normal  0.000000e+00  0.000000e+00 -1.000000e+00
   outer loop
     vertex  1.760000e-01  0.000000e+00  0.000000e+00
     vertex  1.120000e-01  1.600000e-02  0.000000e+00
     vertex  1.200000e-01  1.600000e-02  0.000000e+00
   endloop
 endfacet
 facet normal  0.000000e+00  0.000000e+00 -1.000000e+00
   outer loop
     vertex  1.760000e-01  0.000000e+00  0.000000e+00
     vertex  1.600000e-02  0.000000e+00  0.000000e+00
     vertex  1.120000e-01  1.600000e-02  0.000000e+00
   endloop
 endfacet
 facet normal -0.000000e+00 -0.000000e+00 -1.000000e+00
   outer loop
     vertex  1.760000e-01  1.600000e-02  0.000000e+00
     vertex  1.760000e-01  0.000000e+00  0.000000e+00
     vertex  1.200000e-01  1.600000e-02  0.000000e+00
   endloop
 endfacet
 facet normal  0.000000e+00 -1.000000e+00 -0.000000e+00
   outer loop
     vertex  1.920000e-01  0.000000e+00  7.680000e-02
     vertex  1.760000e-01  0.000000e+00  0.000000e+00
     vertex  1.920000e-01  0.000000e+00  0.000000e+00
   endloop
 endfacet
 facet normal -0.000000e+00 -1.000000e+00  0.000000e+00
   outer loop
     vertex  1.920000e-01  0.000000e+00  7.680000e-02
     vertex  1.760000e-01  0.000000e+00  7.680000e-02
     vertex  1.760000e-01  0.000000e+00  0.000000e+00
   endloop
 endfacet
 facet normal  0.000000e+00  0.000000e+00  1.000000e+00
   outer loop
     vertex  1.120000e-01  1.600000e-02  7.680000e-02
     vertex  1.600000e-02  1.600000e-02  7.680000e-02
     vertex  1.600000e-02  0.000000e+00  7.680000e-02
   endloop
 endfacet
 facet normal  0.000000e+00  0.000000e+00  1.000000e+00
   outer loop
     vertex  1.760000e-01  0.000000e+00  7.680000e-02
     vertex  1.200000e-01  1.600000e-02  7.680000e-02
     vertex  1.120000e-01  1.600000e-02  7.680000e-02
   endloop
 endfacet
 facet normal  0.000000e+00  0.000000e+00  1.000000e+00
   outer loop
     vertex  1.760000e-01  0.000000e+00  7.680000e-02
     vertex  1.120000e-01  1.600000e-02  7.680000e-02
     vertex  1.600000e-02  0.000000e+00  7.680000e-02
   endloop
 endfacet
 facet normal  0.000000e+00  0.000000e+00  1.000000e+00
   outer loop
     vertex  1.760000e-01  1.600000e-02  7.680000e-02
     vertex  1.200000e-01  1.600000e-02  7.680000e-02
     vertex  1.760000e-01  0.000000e+00  7.680000e-02
   endloop
 endfacet
 facet normal  0.000000e+00 -1.000000e+00 -0.000000e+00
   outer loop
     vertex  1.600000e-02  0.000000e+00  7.680000e-02
     vertex  0.000000e+00  0.000000e+00  0.000000e+00
     vertex  1.600000e-02  0.000000e+00  0.000000e+00
   endloop
 endfacet
 facet normal -0.000000e+00 -1.000000e+00  0.000000e+00
   outer loop
     vertex  1.600000e-02  0.000000e+00  7.680000e-02
     vertex  0.000000e+00  0.000000e+00  7.680000e-02
     vertex  0.000000e+00  0.000000e+00  0.000000e+00
   endloop
 endfacet
 facet normal  0.000000e+00 -0.000000e+00 -1.000000e+00
   outer loop
     vertex  1.600000e-02  1.600000e-02  0.000000e+00
     vertex  1.600000e-02  0.000000e+00  0.000000e+00
     vertex  0.000000e+00  0.000000e+00  0.000000e+00
   endloop
 endfacet
 facet normal  0.000000e+00 -0.000000e+00 -1.000000e+00
   outer loop
     vertex  1.600000e-02  7.200000e-02  0.000000e+00
     vertex  1.600000e-02  1.600000e-02  0.000000e+00
     vertex  0.000000e+00  0.000000e+00  0.000000e+00
   endloop
 endfacet
 facet normal  0.000000e+00  0.000000e+00 -1.000000e+00
   outer loop
     vertex  0.000000e+00  1.440000e-01  0.000000e+00
     vertex  1.600000e-02  1.280000e-01  0.000000e+00
     vertex  1.600000e-02  8.000000e-02  0.000000e+00
   endloop
 endfacet
 facet normal  0.000000e+00  0.000000e+00 -1.000000e+00
   outer loop
     vertex  0.000000e+00  1.440000e-01  0.000000e+00
     vertex  1.600000e-02  1.440000e-01  0.000000e+00
     vertex  1.600000e-02  1.280000e-01  0.000000e+00
   endloop
 endfacet
 facet normal  0.000000e+00  0.000000e+00 -1.000000e+00
   outer loop
     vertex  0.000000e+00  1.440000e-01  0.000000e+00
     vertex  1.600000e-02  7.200000e-02  0.000000e+00
     vertex  0.000000e+00  0.000000e+00  0.000000e+00
   endloop
 endfacet
 facet normal  0.000000e+00  0.000000e+00 -1.000000e+00
   outer loop
     vertex  0.000000e+00  1.440000e-01  0.000000e+00
     vertex  1.600000e-02  8.000000e-02  0.000000e+00
     vertex  1.600000e-02  7.200000e-02  0.000000e+00
   endloop
 endfacet
 facet normal -3.614007e-17  1.000000e+00  0.000000e+00
   outer loop
     vertex  1.120000e-01  1.600000e-02  7.680000e-02
     vertex  1.120000e-01  1.600000e-02  0.000000e+00
     vertex  1.600000e-02  1.600000e-02  0.000000e+00
   endloop
 endfacet
 facet normal -3.614007e-17  1.000000e+00  0.000000e+00
   outer loop
     vertex  1.120000e-01  1.600000e-02  7.680000e-02
     vertex  1.600000e-02  1.600000e-02  0.000000e+00
     vertex  1.600000e-02  1.600000e-02  7.680000e-02
   endloop
 endfacet
 facet normal  0.000000e+00  0.000000e+00 -1.000000e+00
   outer loop
     vertex  1.120000e-01  4.800000e-02  0.000000e+00
     vertex  1.200000e-01  1.600000e-02  0.000000e+00
     vertex  1.120000e-01  1.600000e-02  0.000000e+00
   endloop
 endfacet
 facet normal  0.000000e+00  0.000000e+00 -1.000000e+00
   outer loop
     vertex  1.120000e-01  4.800000e-02  0.000000e+00
     vertex  1.200000e-01  5.600000e-02  0.000000e+00
     vertex  1.200000e-01  1.600000e-02  0.000000e+00
   endloop
 endfacet
 facet normal  0.000000e+00  0.000000e+00 -1.000000e+00
   outer loop
     vertex  1.120000e-01  5.600000e-02  0.000000e+00
     vertex  1.200000e-01  5.600000e-02  0.000000e+00
     vertex  1.120000e-01  4.800000e-02  0.000000e+00
   endloop
 endfacet
 facet normal  6.195441e-17  1.000000e+00  0.000000e+00
   outer loop
     vertex  1.760000e-01  1.600000e-02  7.680000e-02
     vertex  1.760000e-01  1.600000e-02  0.000000e+00
     vertex  1.200000e-01  1.600000e-02  0.000000e+00
   endloop
 endfacet
 facet normal  6.195441e-17  1.000000e+00  0.000000e+00
   outer loop
     vertex  1.760000e-01  1.600000e-02  7.680000e-02
     vertex  1.200000e-01  1.600000e-02  0.000000e+00
     vertex  1.200000e-01  1.600000e-02  7.680000e-02
   endloop
 endfacet
 facet normal  0.000000e+00  0.000000e+00 -1.000000e+00
   outer loop
     vertex  1.760000e-01  1.600000e-02  0.000000e+00
     vertex  1.920000e-01  0.000000e+00  0.000000e+00
     vertex  1.760000e-01  0.000000e+00  0.000000e+00
   endloop
 endfacet
 facet normal  0.000000e+00  0.000000e+00 -1.000000e+00
   outer loop
     vertex  1.920000e-01  1.440000e-01  0.000000e+00
     vertex  1.760000e-01  1.600000e-02  0.000000e+00
     vertex  1.760000e-01  1.280000e-01  0.000000e+00
   endloop
 endfacet
 facet normal  0.000000e+00 -0.000000e+00 -1.000000e+00
   outer loop
     vertex  1.920000e-01  1.440000e-01  0.000000e+00
     vertex  1.920000e-01  0.000000e+00  0.000000e+00
     vertex  1.760000e-01  1.600000e-02  0.000000e+00
   endloop
 endfacet
 facet normal  0.000000e+00 -0.000000e+00 -1.000000e+00
   outer loop
     vertex  1.760000e-01  1.440000e-01  0.000000e+00
     vertex  1.920000e-01  1.440000e-01  0.000000e+00
     vertex  1.760000e-01  1.280000e-01  0.000000e+00
   endloop
 endfacet
 facet normal  1.000000e+00  0.000000e+00  0.000000e+00
   outer loop
     vertex  1.920000e-01  1.440000e-01  7.680000e-02
     vertex  1.920000e-01  0.000000e+00  0.000000e+00
     vertex  1.920000e-01  1.440000e-01  0.000000e+00
   endloop
 endfacet
 facet normal  1.000000e+00  0.000000e+00  0.000000e+00
   outer loop
     vertex  1.920000e-01  1.440000e-01  7.680000e-02
     vertex  1.920000e-01  0.000000e+00  7.680000e-02
     vertex  1.920000e-01  0.000000e+00  0.000000e+00
   endloop
 endfacet
 facet normal  0.000000e+00  0.000000e+00  1.000000e+00
   outer loop
     vertex  1.760000e-01  1.600000e-02  7.680000e-02
     vertex  1.760000e-01  0.000000e+00  7.680000e-02
     vertex  1.920000e-01  0.000000e+00  7.680000e-02
   endloop
 endfacet
 facet normal  0.000000e+00  0.000000e+00  1.000000e+00
   outer loop
     vertex  1.920000e-01  1.440000e-01  7.680000e-02
     vertex  1.760000e-01  1.280000e-01  7.680000e-02
     vertex  1.760000e-01  1.600000e-02  7.680000e-02
   endloop
 endfacet
 facet normal  0.000000e+00  0.000000e+00  1.000000e+00
   outer loop
     vertex  1.920000e-01  1.440000e-01  7.680000e-02
     vertex  1.760000e-01  1.600000e-02  7.680000e-02
     vertex  1.920000e-01  0.000000e+00  7.680000e-02
   endloop
 endfacet
 facet normal  0.000000e+00  0.000000e+00  1.000000e+00
   outer loop
     vertex  1.760000e-01  1.440000e-01  7.680000e-02
     vertex  1.760000e-01  1.280000e-01  7.680000e-02
     vertex  1.920000e-01  1.440000e-01  7.680000e-02
   endloop
 endfacet
 facet normal  0.000000e+00  0.000000e+00  1.000000e+00
   outer loop
     vertex  1.600000e-02  1.600000e-02  7.680000e-02
     vertex  0.000000e+00  0.000000e+00  7.680000e-02
     vertex  1.600000e-02  0.000000e+00  7.680000e-02
   endloop
 endfacet
 facet normal  0.000000e+00  0.000000e+00  1.000000e+00
   outer loop
     vertex  1.600000e-02  7.200000e-02  7.680000e-02
     vertex  0.000000e+00  0.000000e+00  7.680000e-02
     vertex  1.600000e-02  1.600000e-02  7.680000e-02
   endloop
 endfacet
 facet normal  0.000000e+00  0.000000e+00  1.000000e+00
   outer loop
     vertex  0.000000e+00  1.440000e-01  7.680000e-02
     vertex  1.600000e-02  8.000000e-02  7.680000e-02
     vertex  1.600000e-02  1.280000e-01  7.680000e-02
   endloop
 endfacet
 facet normal -0.000000e+00  0.000000e+00  1.000000e+00
   outer loop
     vertex  0.000000e+00  1.440000e-01  7.680000e-02
     vertex  1.600000e-02  1.280000e-01  7.680000e-02
     vertex  1.600000e-02  1.440000e-01  7.680000e-02
   endloop
 endfacet
 facet normal  0.000000e+00  0.000000e+00  1.000000e+00
   outer loop
     vertex  0.000000e+00  1.440000e-01  7.680000e-02
     vertex  0.000000e+00  0.000000e+00  7.680000e-02
     vertex  1.600000e-02  7.200000e-02  7.680000e-02
   endloop
 endfacet
 facet normal  0.000000e+00  0.000000e+00  1.000000e+00
   outer loop
     vertex  0.000000e+00  1.440000e-01  7.680000e-02
     vertex  1.600000e-02  7.200000e-02  7.680000e-02
     vertex  1.600000e-02  8.000000e-02  7.680000e-02
   endloop
 endfacet
 facet normal  0.000000e+00  0.000000e+00  1.000000e+00
   outer loop
     vertex  1.120000e-01  4.800000e-02  7.680000e-02
     vertex  1.120000e-01  1.600000e-02  7.680000e-02
     vertex  1.200000e-01  1.600000e-02  7.680000e-02
   endloop
 endfacet
 facet normal -0.000000e+00  0.000000e+00  1.000000e+00
   outer loop
     vertex  1.120000e-01  4.800000e-02  7.680000e-02
     vertex  1.200000e-01  1.600000e-02  7.680000e-02
     vertex  1.200000e-01  5.600000e-02  7.680000e-02
   endloop
 endfacet
 facet normal  0.000000e+00  0.000000e+00  1.000000e+00
   outer loop
     vertex  1.120000e-01  5.600000e-02  7.680000e-02
     vertex  1.120000e-01  4.800000e-02  7.680000e-02
     vertex  1.200000e-01  5.600000e-02  7.680000e-02
   endloop
 endfacet
 facet normal -1.000000e+00  0.000000e+00 -0.000000e+00
   outer loop
     vertex  0.000000e+00  1.440000e-01  7.680000e-02
     vertex  0.000000e+00  1.440000e-01  0.000000e+00
     vertex  0.000000e+00  0.000000e+00  0.000000e+00
   endloop
 endfacet
 facet normal -1.000000e+00 -0.000000e+00  0.000000e+00
   outer loop
     vertex  0.000000e+00  1.440000e-01  7.680000e-02
     vertex  0.000000e+00  0.000000e+00  0.000000e+00
     vertex  0.000000e+00  0.000000e+00  7.680000e-02
   endloop
 endfacet
 facet normal -1.734723e-15  1.000000e+00  0.000000e+00
   outer loop
     vertex  1.600000e-02  1.440000e-01  7.680000e-02
     vertex  1.600000e-02  1.440000e-01  0.000000e+00
     vertex  0.000000e+00  1.440000e-01  0.000000e+00
   endloop
 endfacet
 facet normal -1.734723e-15  1.000000e+00  0.000000e+00
   outer loop
     vertex  1.600000e-02  1.440000e-01  7.680000e-02
     vertex  0.000000e+00  1.440000e-01  0.000000e+00
     vertex  0.000000e+00  1.440000e-01  7.680000e-02
   endloop
 endfacet
 facet normal  1.000000e+00  0.000000e+00  0.000000e+00
   outer loop
     vertex  1.600000e-02  7.200000e-02  7.680000e-02
     vertex  1.600000e-02  1.600000e-02  0.000000e+00
     vertex  1.600000e-02  7.200000e-02  0.000000e+00
   endloop
 endfacet
 facet normal  1.000000e+00  0.000000e+00  0.000000e+00
   outer loop
     vertex  1.600000e-02  7.200000e-02  7.680000e-02
     vertex  1.600000e-02  1.600000e-02  7.680000e-02
     vertex  1.600000e-02  1.600000e-02  0.000000e+00
   endloop
 endfacet
 facet normal -0.000000e+00  0.000000e+00 -1.000000e+00
   outer loop
     vertex  8.000000e-02  8.000000e-02  0.000000e+00
     vertex  1.600000e-02  7.200000e-02  0.000000e+00
     vertex  1.600000e-02  8.000000e-02  0.000000e+00
   endloop
 endfacet
 facet normal  0.000000e+00 -0.000000e+00 -1.000000e+00
   outer loop
     vertex  8.000000e-02  8.000000e-02  0.000000e+00
     vertex  8.000000e-02  7.200000e-02  0.000000e+00
     vertex  1.600000e-02  7.200000e-02  0.000000e+00
   endloop
 endfacet
 facet normal  1.000000e+00  0.000000e+00  0.000000e+00
   outer loop
     vertex  1.600000e-02  1.280000e-01  7.680000e-02
     vertex  1.600000e-02  8.000000e-02  0.000000e+00
     vertex  1.600000e-02  1.280000e-01  0.000000e+00
   endloop
 endfacet
 facet normal  1.000000e+00  0.000000e+00  0.000000e+00
   outer loop
     vertex  1.600000e-02  1.280000e-01  7.680000e-02
     vertex  1.600000e-02  8.000000e-02  7.680000e-02
     vertex  1.600000e-02  8.000000e-02  0.000000e+00
   endloop
 endfacet
 facet normal -0.000000e+00  0.000000e+00 -1.000000e+00
   outer loop
     vertex  1.760000e-01  1.440000e-01  0.000000e+00
     vertex  1.600000e-02  1.280000e-01  0.000000e+00
     vertex  1.600000e-02  1.440000e-01  0.000000e+00
   endloop
 endfacet
 facet normal  0.000000e+00  0.000000e+00 -1.000000e+00
   outer loop
     vertex  1.760000e-01  1.440000e-01  0.000000e+00
     vertex  1.760000e-01  1.280000e-01  0.000000e+00
     vertex  1.600000e-02  1.280000e-01  0.000000e+00
   endloop
 endfacet
 facet normal -1.000000e+00  0.000000e+00 -0.000000e+00
   outer loop
     vertex  1.120000e-01  4.800000e-02  7.680000e-02
     vertex  1.120000e-01  4.800000e-02  0.000000e+00
     vertex  1.120000e-01  1.600000e-02  0.000000e+00
   endloop
 endfacet
 facet normal -1.000000e+00 -0.000000e+00  0.000000e+00
   outer loop
     vertex  1.120000e-01  4.800000e-02  7.680000e-02
     vertex  1.120000e-01  1.600000e-02  0.000000e+00
     vertex  1.120000e-01  1.600000e-02  7.680000e-02
   endloop
 endfacet
 facet normal  0.000000e+00  0.000000e+00 -1.000000e+00
   outer loop
     vertex  1.120000e-01  5.600000e-02  0.000000e+00
     vertex  8.800000e-02  4.800000e-02  0.000000e+00
     vertex  8.800000e-02  5.600000e-02  0.000000e+00
   endloop
 endfacet
 facet normal  0.000000e+00 -0.000000e+00 -1.000000e+00
   outer loop
     vertex  1.120000e-01  5.600000e-02  0.000000e+00
     vertex  1.120000e-01  4.800000e-02  0.000000e+00
     vertex  8.800000e-02  4.800000e-02  0.000000e+00
   endloop
 endfacet
 facet normal  8.673617e-16  1.000000e+00  0.000000e+00
   outer loop
     vertex  1.200000e-01  5.600000e-02  7.680000e-02
     vertex  1.200000e-01  5.600000e-02  0.000000e+00
     vertex  1.120000e-01  5.600000e-02  0.000000e+00
   endloop
 endfacet
 facet normal  8.673617e-16  1.000000e+00  0.000000e+00
   outer loop
     vertex  1.200000e-01  5.600000e-02  7.680000e-02
     vertex  1.120000e-01  5.600000e-02  0.000000e+00
     vertex  1.120000e-01  5.600000e-02  7.680000e-02
   endloop
 endfacet
 facet normal  1.000000e+00  0.000000e+00  0.000000e+00
   outer loop
     vertex  1.200000e-01  5.600000e-02  7.680000e-02
     vertex  1.200000e-01  1.600000e-02  0.000000e+00
     vertex  1.200000e-01  5.600000e-02  0.000000e+00
   endloop
 endfacet
 facet normal  1.000000e+00  0.000000e+00  0.000000e+00
   outer loop
     vertex  1.200000e-01  5.600000e-02  7.680000e-02
     vertex  1.200000e-01  1.600000e-02  7.680000e-02
     vertex  1.200000e-01  1.600000e-02  0.000000e+00
   endloop
 endfacet
 facet normal -1.000000e+00  0.000000e+00 -0.000000e+00
   outer loop
     vertex  1.760000e-01  1.280000e-01  7.680000e-02
     vertex  1.760000e-01  1.280000e-01  0.000000e+00
     vertex  1.760000e-01  1.600000e-02  0.000000e+00
   endloop
 endfacet
 facet normal -1.000000e+00 -0.000000e+00  0.000000e+00
   outer loop
     vertex  1.760000e-01  1.280000e-01  7.680000e-02
     vertex  1.760000e-01  1.600000e-02  0.000000e+00
     vertex  1.760000e-01  1.600000e-02  7.680000e-02
   endloop
 endfacet
 facet normal  1.734723e-15  1.000000e+00  0.000000e+00
   outer loop
     vertex  1.920000e-01  1.440000e-01  7.680000e-02
     vertex  1.920000e-01  1.440000e-01  0.000000e+00
     vertex  1.760000e-01  1.440000e-01  0.000000e+00
   endloop
 endfacet
 facet normal  1.734723e-15  1.000000e+00  0.000000e+00
   outer loop
     vertex  1.920000e-01  1.440000e-01  7.680000e-02
     vertex  1.760000e-01  1.440000e-01  0.000000e+00
     vertex  1.760000e-01  1.440000e-01  7.680000e-02
   endloop
 endfacet
 facet normal  0.000000e+00  0.000000e+00  1.000000e+00
   outer loop
     vertex  1.760000e-01  1.440000e-01  7.680000e-02
     vertex  1.600000e-02  1.440000e-01  7.680000e-02
     vertex  1.600000e-02  1.280000e-01  7.680000e-02
   endloop
 endfacet
 facet normal  0.000000e+00  0.000000e+00  1.000000e+00
   outer loop
     vertex  1.760000e-01  1.440000e-01  7.680000e-02
     vertex  1.600000e-02  1.280000e-01  7.680000e-02
     vertex  1.760000e-01  1.280000e-01  7.680000e-02
   endloop
 endfacet
 facet normal  0.000000e+00  0.000000e+00  1.000000e+00
   outer loop
     vertex  8.000000e-02  8.000000e-02  7.680000e-02
     vertex  1.600000e-02  8.000000e-02  7.680000e-02
     vertex  1.600000e-02  7.200000e-02  7.680000e-02
   endloop
 endfacet
 facet normal  0.000000e+00  0.000000e+00  1.000000e+00
   outer loop
     vertex  8.000000e-02  8.000000e-02  7.680000e-02
     vertex  1.600000e-02  7.200000e-02  7.680000e-02
     vertex  8.000000e-02  7.200000e-02  7.680000e-02
   endloop
 endfacet
 facet normal  0.000000e+00  0.000000e+00  1.000000e+00
   outer loop
     vertex  1.120000e-01  5.600000e-02  7.680000e-02
     vertex  8.800000e-02  5.600000e-02  7.680000e-02
     vertex  8.800000e-02  4.800000e-02  7.680000e-02
   endloop
 endfacet
 facet normal  0.000000e+00  0.000000e+00  1.000000e+00
   outer loop
     vertex  1.120000e-01  5.600000e-02  7.680000e-02
     vertex  8.800000e-02  4.800000e-02  7.680000e-02
     vertex  1.120000e-01  4.800000e-02  7.680000e-02
   endloop
 endfacet
 facet normal  0.000000e+00  1.000000e+00  0.000000e+00
   outer loop
     vertex  1.760000e-01  1.440000e-01  7.680000e-02
     vertex  1.760000e-01  1.440000e-01  0.000000e+00
     vertex  1.600000e-02  1.440000e-01  0.000000e+00
   endloop
 endfacet
 facet normal  0.000000e+00  1.000000e+00  0.000000e+00
   outer loop
     vertex  1.760000e-01  1.440000e-01  7.680000e-02
     vertex  1.600000e-02  1.440000e-01  0.000000e+00
     vertex  1.600000e-02  1.440000e-01  7.680000e-02
   endloop
 endfacet
 facet normal  0.000000e+00 -1.000000e+00 -0.000000e+00
   outer loop
     vertex  8.000000e-02  7.200000e-02  7.680000e-02
     vertex  1.600000e-02  7.200000e-02  0.000000e+00
     vertex  8.000000e-02  7.200000e-02  0.000000e+00
   endloop
 endfacet
 facet normal -0.000000e+00 -1.000000e+00  0.000000e+00
   outer loop
     vertex  8.000000e-02  7.200000e-02  7.680000e-02
     vertex  1.600000e-02  7.200000e-02  7.680000e-02
     vertex  1.600000e-02  7.200000e-02  0.000000e+00
   endloop
 endfacet
 facet normal  0.000000e+00  1.000000e+00  0.000000e+00
   outer loop
     vertex  8.000000e-02  8.000000e-02  7.680000e-02
     vertex  8.000000e-02  8.000000e-02  0.000000e+00
     vertex  1.600000e-02  8.000000e-02  0.000000e+00
   endloop
 endfacet
 facet normal  0.000000e+00  1.000000e+00  0.000000e+00
   outer loop
     vertex  8.000000e-02  8.000000e-02  7.680000e-02
     vertex  1.600000e-02  8.000000e-02  0.000000e+00
     vertex  1.600000e-02  8.000000e-02  7.680000e-02
   endloop
 endfacet
 facet normal  0.000000e+00 -0.000000e+00 -1.000000e+00
   outer loop
     vertex  8.800000e-02  5.600000e-02  0.000000e+00
     vertex  8.800000e-02  4.800000e-02  0.000000e+00
     vertex  8.000000e-02  4.800000e-02  0.000000e+00
   endloop
 endfacet
 facet normal  0.000000e+00  0.000000e+00 -1.000000e+00
   outer loop
     vertex  8.000000e-02  7.200000e-02  0.000000e+00
     vertex  8.800000e-02  8.000000e-02  0.000000e+00
     vertex  8.800000e-02  5.600000e-02  0.000000e+00
   endloop
 endfacet
 facet normal  0.000000e+00 -0.000000e+00 -1.000000e+00
   outer loop
     vertex  8.000000e-02  7.200000e-02  0.000000e+00
     vertex  8.800000e-02  5.600000e-02  0.000000e+00
     vertex  8.000000e-02  4.800000e-02  0.000000e+00
   endloop
 endfacet
 facet normal  0.000000e+00  0.000000e+00 -1.000000e+00
   outer loop
     vertex  8.000000e-02  8.000000e-02  0.000000e+00
     vertex  8.800000e-02  8.000000e-02  0.000000e+00
     vertex  8.000000e-02  7.200000e-02  0.000000e+00
   endloop
 endfacet
 facet normal  0.000000e+00 -1.000000e+00 -0.000000e+00
   outer loop
     vertex  1.760000e-01  1.280000e-01  7.680000e-02
     vertex  1.600000e-02  1.280000e-01  0.000000e+00
     vertex  1.760000e-01  1.280000e-01  0.000000e+00
   endloop
 endfacet
 facet normal -0.000000e+00 -1.000000e+00  0.000000e+00
   outer loop
     vertex  1.760000e-01  1.280000e-01  7.680000e-02
     vertex  1.600000e-02  1.280000e-01  7.680000e-02
     vertex  1.600000e-02  1.280000e-01  0.000000e+00
   endloop
 endfacet
 facet normal  0.000000e+00 -1.000000e+00 -0.000000e+00
   outer loop
     vertex  1.120000e-01  4.800000e-02  7.680000e-02
     vertex  8.800000e-02  4.800000e-02  0.000000e+00
     vertex  1.120000e-01  4.800000e-02  0.000000e+00
   endloop
 endfacet
 facet normal -0.000000e+00 -1.000000e+00  0.000000e+00
   outer loop
     vertex  1.120000e-01  4.800000e-02  7.680000e-02
     vertex  8.800000e-02  4.800000e-02  7.680000e-02
     vertex  8.800000e-02  4.800000e-02  0.000000e+00
   endloop
 endfacet
 facet normal -2.891206e-16  1.000000e+00  0.000000e+00
   outer loop
     vertex  1.120000e-01  5.600000e-02  7.680000e-02
     vertex  1.120000e-01  5.600000e-02  0.000000e+00
     vertex  8.800000e-02  5.600000e-02  0.000000e+00
   endloop
 endfacet
 facet normal -2.891206e-16  1.000000e+00  0.000000e+00
   outer loop
     vertex  1.120000e-01  5.600000e-02  7.680000e-02
     vertex  8.800000e-02  5.600000e-02  0.000000e+00
     vertex  8.800000e-02  5.600000e-02  7.680000e-02
   endloop
 endfacet
 facet normal  0.000000e+00  0.000000e+00  1.000000e+00
   outer loop
     vertex  8.800000e-02  5.600000e-02  7.680000e-02
     vertex  8.000000e-02  4.800000e-02  7.680000e-02
     vertex  8.800000e-02  4.800000e-02  7.680000e-02
   endloop
 endfacet
 facet normal -0.000000e+00  0.000000e+00  1.000000e+00
   outer loop
     vertex  8.000000e-02  7.200000e-02  7.680000e-02
     vertex  8.800000e-02  5.600000e-02  7.680000e-02
     vertex  8.800000e-02  8.000000e-02  7.680000e-02
   endloop
 endfacet
 facet normal  0.000000e+00  0.000000e+00  1.000000e+00
   outer loop
     vertex  8.000000e-02  7.200000e-02  7.680000e-02
     vertex  8.000000e-02  4.800000e-02  7.680000e-02
     vertex  8.800000e-02  5.600000e-02  7.680000e-02
   endloop
 endfacet
 facet normal -0.000000e+00  0.000000e+00  1.000000e+00
   outer loop
     vertex  8.000000e-02  8.000000e-02  7.680000e-02
     vertex  8.000000e-02  7.200000e-02  7.680000e-02
     vertex  8.800000e-02  8.000000e-02  7.680000e-02
   endloop
 endfacet
 facet normal -1.000000e+00  5.782412e-16  0.000000e+00
   outer loop
     vertex  8.000000e-02  7.200000e-02  7.680000e-02
     vertex  8.000000e-02  7.200000e-02  0.000000e+00
     vertex  8.000000e-02  4.800000e-02  0.000000e+00
   endloop
 endfacet
 facet normal -1.000000e+00  5.782412e-16  0.000000e+00
   outer loop
     vertex  8.000000e-02  7.200000e-02  7.680000e-02
     vertex  8.000000e-02  4.800000e-02  0.000000e+00
     vertex  8.000000e-02  4.800000e-02  7.680000e-02
   endloop
 endfacet
 facet normal  0.000000e+00  1.000000e+00  0.000000e+00
   outer loop
     vertex  8.800000e-02  8.000000e-02  7.680000e-02
     vertex  8.800000e-02  8.000000e-02  0.000000e+00
     vertex  8.000000e-02  8.000000e-02  0.000000e+00
   endloop
 endfacet
 facet normal  0.000000e+00  1.000000e+00  0.000000e+00
   outer loop
     vertex  8.800000e-02  8.000000e-02  7.680000e-02
     vertex  8.000000e-02  8.000000e-02  0.000000e+00
     vertex  8.000000e-02  8.000000e-02  7.680000e-02
   endloop
 endfacet
 facet normal  0.000000e+00 -1.000000e+00 -0.000000e+00
   outer loop
     vertex  8.800000e-02  4.800000e-02  7.680000e-02
     vertex  8.000000e-02  4.800000e-02  0.000000e+00
     vertex  8.800000e-02  4.800000e-02  0.000000e+00
   endloop
 endfacet
 facet normal -0.000000e+00 -1.000000e+00  0.000000e+00
   outer loop
     vertex  8.800000e-02  4.800000e-02  7.680000e-02
     vertex  8.000000e-02  4.800000e-02  7.680000e-02
     vertex  8.000000e-02  4.800000e-02  0.000000e+00
   endloop
 endfacet
 facet normal  1.000000e+00  0.000000e+00  0.000000e+00
   outer loop
     vertex  8.800000e-02  8.000000e-02  7.680000e-02
     vertex  8.800000e-02  5.600000e-02  0.000000e+00
     vertex  8.800000e-02  8.000000e-02  0.000000e+00
   endloop
 endfacet
 facet normal  1.000000e+00  0.000000e+00  0.000000e+00
   outer loop
     vertex  8.800000e-02  8.000000e-02  7.680000e-02
     vertex  8.800000e-02  5.600000e-02  7.680000e-02
     vertex  8.800000e-02  5.600000e-02  0.000000e+00
   endloop
 endfacet
endsolid
