solid 
 facet normal  0.000000e+00  1.000000e+00  0.000000e+00
   outer loop
     vertex -5.000000e+00  7.500000e+00  5.000000e+00
     vertex -4.000000e+00  7.500000e+00  2.500000e+00
     vertex -5.000000e+00  7.500000e+00  2.500000e+00
   endloop
 endfacet
 facet normal -0.000000e+00  1.000000e+00  0.000000e+00
   outer loop
     vertex -5.000000e+00  7.500000e+00  5.000000e+00
     vertex -4.000000e+00  7.500000e+00  5.000000e+00
     vertex -4.000000e+00  7.500000e+00  2.500000e+00
   endloop
 endfacet
 facet normal -1.000000e+00  2.537653e-16  3.552714e-16
   outer loop
     vertex -5.000000e+00  5.000000e-01  5.000000e+00
     vertex -5.000000e+00  7.500000e+00  2.500000e+00
     vertex -5.000000e+00  5.000000e-01  2.500000e+00
   endloop
 endfacet
 facet normal -1.000000e+00  1.268826e-16  0.000000e+00
   outer loop
     vertex -5.000000e+00  5.000000e-01  5.000000e+00
     vertex -5.000000e+00  7.500000e+00  5.000000e+00
     vertex -5.000000e+00  7.500000e+00  2.500000e+00
   endloop
 endfacet
 facet normal  0.000000e+00  0.000000e+00  1.000000e+00
   outer loop
     vertex -5.000000e+00  5.000000e-01  5.000000e+00
     vertex -4.000000e+00  7.500000e+00  5.000000e+00
     vertex -5.000000e+00  7.500000e+00  5.000000e+00
   endloop
 endfacet
 facet normal  0.000000e+00 -0.000000e+00  1.000000e+00
   outer loop
     vertex -4.000000e+00  5.000000e-01  5.000000e+00
     vertex -4.000000e+00  7.500000e+00  5.000000e+00
     vertex -5.000000e+00  5.000000e-01  5.000000e+00
   endloop
 endfacet
 facet normal  1.000000e+00 -2.537653e-16  0.000000e+00
   outer loop
     vertex -4.000000e+00  5.000000e-01  5.000000e+00
     vertex -4.000000e+00  5.000000e-01  2.500000e+00
     vertex -4.000000e+00  7.500000e+00  2.500000e+00
   endloop
 endfacet
 facet normal  1.000000e+00 -2.537653e-16  0.000000e+00
   outer loop
     vertex -4.000000e+00  5.000000e-01  5.000000e+00
     vertex -4.000000e+00  7.500000e+00  2.500000e+00
     vertex -4.000000e+00  7.500000e+00  5.000000e+00
   endloop
 endfacet
 facet normal  0.000000e+00  0.000000e+00 -1.000000e+00
   outer loop
     vertex -4.000000e+00  5.000000e-01  2.500000e+00
     vertex -5.000000e+00  7.500000e+00  2.500000e+00
     vertex -4.000000e+00  7.500000e+00  2.500000e+00
   endloop
 endfacet
 facet normal  0.000000e+00  0.000000e+00 -1.000000e+00
   outer loop
     vertex -4.000000e+00  5.000000e-01  2.500000e+00
     vertex -5.000000e+00  5.000000e-01  2.500000e+00
     vertex -5.000000e+00  7.500000e+00  2.500000e+00
   endloop
 endfacet
 facet normal -1.000000e+00  0.000000e+00 -3.552714e-16
   outer loop
     vertex -5.000000e+00  5.000000e-01  2.500000e+00
     vertex -5.000000e+00  5.000000e-01  0.000000e+00
     vertex -5.000000e+00 -5.000000e-01  0.000000e+00
   endloop
 endfacet
 facet normal -1.000000e+00 -8.881784e-16 -7.888609e-32
   outer loop
     vertex -5.000000e+00  5.000000e-01  2.500000e+00
     vertex -5.000000e+00 -5.000000e-01  0.000000e+00
     vertex -5.000000e+00 -5.000000e-01  2.500000e+00
   endloop
 endfacet
 facet normal -1.000000e+00 -0.000000e+00  0.000000e+00
   outer loop
     vertex -5.000000e+00  5.000000e-01  5.000000e+00
     vertex -5.000000e+00 -5.000000e-01  2.500000e+00
     vertex -5.000000e+00 -5.000000e-01  5.000000e+00
   endloop
 endfacet
 facet normal -1.000000e+00 -8.881784e-16  3.552714e-16
   outer loop
     vertex -5.000000e+00  5.000000e-01  5.000000e+00
     vertex -5.000000e+00  5.000000e-01  2.500000e+00
     vertex -5.000000e+00 -5.000000e-01  2.500000e+00
   endloop
 endfacet
 facet normal  0.000000e+00  0.000000e+00  1.000000e+00
   outer loop
     vertex -4.000000e+00  5.000000e-01  5.000000e+00
     vertex  5.000000e+00 -5.000000e-01  5.000000e+00
     vertex  5.000000e+00  5.000000e-01  5.000000e+00
   endloop
 endfacet
 facet normal  0.000000e+00  0.000000e+00  1.000000e+00
   outer loop
     vertex -5.000000e+00 -5.000000e-01  5.000000e+00
     vertex -4.000000e+00  5.000000e-01  5.000000e+00
     vertex -5.000000e+00  5.000000e-01  5.000000e+00
   endloop
 endfacet
 facet normal -0.000000e+00  0.000000e+00  1.000000e+00
   outer loop
     vertex -5.000000e+00 -5.000000e-01  5.000000e+00
     vertex  5.000000e+00 -5.000000e-01  5.000000e+00
     vertex -4.000000e+00  5.000000e-01  5.000000e+00
   endloop
 endfacet
 facet normal  1.276756e-16  1.000000e+00  2.153833e-16
   outer loop
     vertex -4.000000e+00  5.000000e-01  2.500000e+00
     vertex  5.000000e+00  5.000000e-01  0.000000e+00
     vertex -5.000000e+00  5.000000e-01  0.000000e+00
   endloop
 endfacet
 facet normal  6.784696e-17  1.000000e+00  0.000000e+00
   outer loop
     vertex -4.000000e+00  5.000000e-01  2.500000e+00
     vertex  5.000000e+00  5.000000e-01  5.000000e+00
     vertex  5.000000e+00  5.000000e-01  0.000000e+00
   endloop
 endfacet
 facet normal -0.000000e+00  1.000000e+00  2.664535e-16
   outer loop
     vertex -5.000000e+00  5.000000e-01  2.500000e+00
     vertex -4.000000e+00  5.000000e-01  2.500000e+00
     vertex -5.000000e+00  5.000000e-01  0.000000e+00
   endloop
 endfacet
 facet normal  6.784696e-17  1.000000e+00  0.000000e+00
   outer loop
     vertex -4.000000e+00  5.000000e-01  5.000000e+00
     vertex  5.000000e+00  5.000000e-01  5.000000e+00
     vertex -4.000000e+00  5.000000e-01  2.500000e+00
   endloop
 endfacet
 facet normal -1.000000e+00  0.000000e+00  0.000000e+00
   outer loop
     vertex -5.000000e+00 -3.500000e+00  0.000000e+00
     vertex -5.000000e+00 -5.000000e-01  2.500000e+00
     vertex -5.000000e+00 -5.000000e-01  0.000000e+00
   endloop
 endfacet
 facet normal -1.000000e+00  0.000000e+00  0.000000e+00
   outer loop
     vertex -5.000000e+00 -3.500000e+00  2.500000e+00
     vertex -5.000000e+00 -5.000000e-01  2.500000e+00
     vertex -5.000000e+00 -3.500000e+00  0.000000e+00
   endloop
 endfacet
 facet normal -7.401487e-17 -1.000000e+00 -0.000000e+00
   outer loop
     vertex -4.000000e+00 -5.000000e-01  2.500000e+00
     vertex -4.000000e+00 -5.000000e-01  0.000000e+00
     vertex  5.000000e+00 -5.000000e-01  0.000000e+00
   endloop
 endfacet
 facet normal -7.401487e-17 -1.000000e+00  0.000000e+00
   outer loop
     vertex -4.000000e+00 -5.000000e-01  2.500000e+00
     vertex  5.000000e+00 -5.000000e-01  0.000000e+00
     vertex  5.000000e+00 -5.000000e-01  5.000000e+00
   endloop
 endfacet
 facet normal  0.000000e+00 -1.000000e+00  2.442491e-16
   outer loop
     vertex -5.000000e+00 -5.000000e-01  5.000000e+00
     vertex -5.000000e+00 -5.000000e-01  2.500000e+00
     vertex -4.000000e+00 -5.000000e-01  2.500000e+00
   endloop
 endfacet
 facet normal -1.276756e-16 -1.000000e+00  1.931788e-16
   outer loop
     vertex -5.000000e+00 -5.000000e-01  5.000000e+00
     vertex -4.000000e+00 -5.000000e-01  2.500000e+00
     vertex  5.000000e+00 -5.000000e-01  5.000000e+00
   endloop
 endfacet
 facet normal  0.000000e+00  0.000000e+00 -1.000000e+00
   outer loop
     vertex -4.000000e+00 -5.000000e-01  0.000000e+00
     vertex  5.000000e+00  5.000000e-01  0.000000e+00
     vertex  5.000000e+00 -5.000000e-01  0.000000e+00
   endloop
 endfacet
 facet normal  0.000000e+00  0.000000e+00 -1.000000e+00
   outer loop
     vertex -5.000000e+00  5.000000e-01  0.000000e+00
     vertex  5.000000e+00  5.000000e-01  0.000000e+00
     vertex -4.000000e+00 -5.000000e-01  0.000000e+00
   endloop
 endfacet
 facet normal  0.000000e+00  0.000000e+00 -1.000000e+00
   outer loop
     vertex -5.000000e+00 -5.000000e-01  0.000000e+00
     vertex -5.000000e+00  5.000000e-01  0.000000e+00
     vertex -4.000000e+00 -5.000000e-01  0.000000e+00
   endloop
 endfacet
 facet normal  1.000000e+00  0.000000e+00  0.000000e+00
   outer loop
     vertex  5.000000e+00  5.000000e-01  5.000000e+00
     vertex  5.000000e+00 -5.000000e-01  0.000000e+00
     vertex  5.000000e+00  5.000000e-01  0.000000e+00
   endloop
 endfacet
 facet normal  1.000000e+00  0.000000e+00  0.000000e+00
   outer loop
     vertex  5.000000e+00  5.000000e-01  5.000000e+00
     vertex  5.000000e+00 -5.000000e-01  5.000000e+00
     vertex  5.000000e+00 -5.000000e-01  0.000000e+00
   endloop
 endfacet
 facet normal  0.000000e+00  0.000000e+00 -1.000000e+00
   outer loop
     vertex -4.000000e+00 -3.500000e+00  0.000000e+00
     vertex -5.000000e+00 -5.000000e-01  0.000000e+00
     vertex -4.000000e+00 -5.000000e-01  0.000000e+00
   endloop
 endfacet
 facet normal  0.000000e+00  0.000000e+00 -1.000000e+00
   outer loop
     vertex -4.000000e+00 -3.500000e+00  0.000000e+00
     vertex -5.000000e+00 -3.500000e+00  0.000000e+00
     vertex -5.000000e+00 -5.000000e-01  0.000000e+00
   endloop
 endfacet
 facet normal  0.000000e+00 -1.000000e+00  0.000000e+00
   outer loop
     vertex -5.000000e+00 -3.500000e+00  2.500000e+00
     vertex -5.000000e+00 -3.500000e+00  0.000000e+00
     vertex -4.000000e+00 -3.500000e+00  0.000000e+00
   endloop
 endfacet
 facet normal  0.000000e+00 -1.000000e+00  0.000000e+00
   outer loop
     vertex -5.000000e+00 -3.500000e+00  2.500000e+00
     vertex -4.000000e+00 -3.500000e+00  0.000000e+00
     vertex -4.000000e+00 -3.500000e+00  2.500000e+00
   endloop
 endfacet
 facet normal  0.000000e+00 -0.000000e+00  1.000000e+00
   outer loop
     vertex -4.000000e+00 -3.500000e+00  2.500000e+00
     vertex -4.000000e+00 -5.000000e-01  2.500000e+00
     vertex -5.000000e+00 -5.000000e-01  2.500000e+00
   endloop
 endfacet
 facet normal  0.000000e+00  0.000000e+00  1.000000e+00
   outer loop
     vertex -4.000000e+00 -3.500000e+00  2.500000e+00
     vertex -5.000000e+00 -5.000000e-01  2.500000e+00
     vertex -5.000000e+00 -3.500000e+00  2.500000e+00
   endloop
 endfacet
 facet normal  1.000000e+00 -1.480297e-16  0.000000e+00
   outer loop
     vertex -4.000000e+00 -3.500000e+00  2.500000e+00
     vertex -4.000000e+00 -3.500000e+00  0.000000e+00
     vertex -4.000000e+00 -5.000000e-01  0.000000e+00
   endloop
 endfacet
 facet normal  1.000000e+00 -1.480297e-16  0.000000e+00
   outer loop
     vertex -4.000000e+00 -3.500000e+00  2.500000e+00
     vertex -4.000000e+00 -5.000000e-01  0.000000e+00
     vertex -4.000000e+00 -5.000000e-01  2.500000e+00
   endloop
 endfacet
endsolid
