solid 
 facet normal -1.000000e+00  0.000000e+00  0.000000e+00
   outer loop
     vertex -3.250000e+01  2.500000e+00  2.500000e+00
     vertex -3.250000e+01  3.500000e+00  0.000000e+00
     vertex -3.250000e+01  2.500000e+00  0.000000e+00
   endloop
 endfacet
 facet normal -1.000000e+00  0.000000e+00  0.000000e+00
   outer loop
     vertex -3.250000e+01  2.500000e+00  2.500000e+00
     vertex -3.250000e+01  3.500000e+00  2.500000e+00
     vertex -3.250000e+01  3.500000e+00  0.000000e+00
   endloop
 endfacet
 facet normal  1.000000e+00  0.000000e+00  0.000000e+00
   outer loop
     vertex -2.750000e+01  2.500000e+00  2.500000e+00
     vertex -2.750000e+01  2.500000e+00  0.000000e+00
     vertex -2.750000e+01  3.500000e+00  0.000000e+00
   endloop
 endfacet
 facet normal  1.000000e+00 -0.000000e+00  0.000000e+00
   outer loop
     vertex -2.750000e+01  2.500000e+00  2.500000e+00
     vertex -2.750000e+01  3.500000e+00  0.000000e+00
     vertex -2.750000e+01  3.500000e+00  2.500000e+00
   endloop
 endfacet
 facet normal  0.000000e+00 -1.000000e+00 -0.000000e+00
   outer loop
     vertex -2.750000e+01  2.500000e+00  2.500000e+00
     vertex -3.250000e+01  2.500000e+00  0.000000e+00
     vertex -2.750000e+01  2.500000e+00  0.000000e+00
   endloop
 endfacet
 facet normal -0.000000e+00 -1.000000e+00  0.000000e+00
   outer loop
     vertex -2.750000e+01  2.500000e+00  2.500000e+00
     vertex -3.250000e+01  2.500000e+00  2.500000e+00
     vertex -3.250000e+01  2.500000e+00  0.000000e+00
   endloop
 endfacet
 facet normal  0.000000e+00  1.000000e+00  0.000000e+00
   outer loop
     vertex -2.750000e+01  3.500000e+00  2.500000e+00
     vertex -2.750000e+01  3.500000e+00  0.000000e+00
     vertex -3.250000e+01  3.500000e+00  0.000000e+00
   endloop
 endfacet
 facet normal  0.000000e+00  1.000000e+00  0.000000e+00
   outer loop
     vertex -2.750000e+01  3.500000e+00  2.500000e+00
     vertex -3.250000e+01  3.500000e+00  0.000000e+00
     vertex -3.250000e+01  3.500000e+00  2.500000e+00
   endloop
 endfacet
 facet normal -0.000000e+00  0.000000e+00 -1.000000e+00
   outer loop
     vertex -2.750000e+01  3.500000e+00  0.000000e+00
     vertex -3.250000e+01  2.500000e+00  0.000000e+00
     vertex -3.250000e+01  3.500000e+00  0.000000e+00
   endloop
 endfacet
 facet normal  0.000000e+00 -0.000000e+00 -1.000000e+00
   outer loop
     vertex -2.750000e+01  3.500000e+00  0.000000e+00
     vertex -2.750000e+01  2.500000e+00  0.000000e+00
     vertex -3.250000e+01  2.500000e+00  0.000000e+00
   endloop
 endfacet
 facet normal  0.000000e+00  0.000000e+00  1.000000e+00
   outer loop
     vertex -2.750000e+01  3.500000e+00  2.500000e+00
     vertex -3.250000e+01  3.500000e+00  2.500000e+00
     vertex -3.250000e+01  2.500000e+00  2.500000e+00
   endloop
 endfacet
 facet normal  0.000000e+00  0.000000e+00  1.000000e+00
   outer loop
     vertex -2.750000e+01  3.500000e+00  2.500000e+00
     vertex -3.250000e+01  2.500000e+00  2.500000e+00
     vertex -2.750000e+01  2.500000e+00  2.500000e+00
   endloop
 endfacet
 facet normal  1.000000e+00 -2.220446e-16  0.000000e+00
   outer loop
     vertex -2.500000e+00  6.500000e+00  2.500000e+00
     vertex -2.500000e+00  5.000000e-01  0.000000e+00
     vertex -2.500000e+00  6.500000e+00  0.000000e+00
   endloop
 endfacet
 facet normal  1.000000e+00 -2.220446e-16  0.000000e+00
   outer loop
     vertex -2.500000e+00  6.500000e+00  2.500000e+00
     vertex -2.500000e+00  5.000000e-01  2.500000e+00
     vertex -2.500000e+00  5.000000e-01  0.000000e+00
   endloop
 endfacet
 facet normal  0.000000e+00 -0.000000e+00 -1.000000e+00
   outer loop
     vertex -3.500000e+00  6.500000e+00  0.000000e+00
     vertex -2.500000e+00  5.000000e-01  0.000000e+00
     vertex -3.500000e+00  5.000000e-01  0.000000e+00
   endloop
 endfacet
 facet normal  0.000000e+00  0.000000e+00 -1.000000e+00
   outer loop
     vertex -3.500000e+00  6.500000e+00  0.000000e+00
     vertex -2.500000e+00  6.500000e+00  0.000000e+00
     vertex -2.500000e+00  5.000000e-01  0.000000e+00
   endloop
 endfacet
 facet normal  0.000000e+00 -1.000000e+00 -0.000000e+00
   outer loop
     vertex -5.000000e-01  6.500000e+00  2.500000e+00
     vertex -2.500000e+00  6.500000e+00  0.000000e+00
     vertex -5.000000e-01  6.500000e+00  0.000000e+00
   endloop
 endfacet
 facet normal -0.000000e+00 -1.000000e+00  0.000000e+00
   outer loop
     vertex -5.000000e-01  6.500000e+00  2.500000e+00
     vertex -2.500000e+00  6.500000e+00  2.500000e+00
     vertex -2.500000e+00  6.500000e+00  0.000000e+00
   endloop
 endfacet
 facet normal  0.000000e+00  0.000000e+00  1.000000e+00
   outer loop
     vertex -3.500000e+00  6.500000e+00  2.500000e+00
     vertex -3.500000e+00  5.000000e-01  2.500000e+00
     vertex -2.500000e+00  5.000000e-01  2.500000e+00
   endloop
 endfacet
 facet normal -0.000000e+00  0.000000e+00  1.000000e+00
   outer loop
     vertex -3.500000e+00  6.500000e+00  2.500000e+00
     vertex -2.500000e+00  5.000000e-01  2.500000e+00
     vertex -2.500000e+00  6.500000e+00  2.500000e+00
   endloop
 endfacet
 facet normal  0.000000e+00  1.000000e+00  0.000000e+00
   outer loop
     vertex -5.000000e-01  5.000000e-01  2.500000e+00
     vertex -5.000000e-01  5.000000e-01  0.000000e+00
     vertex -2.500000e+00  5.000000e-01  0.000000e+00
   endloop
 endfacet
 facet normal  0.000000e+00  1.000000e+00  0.000000e+00
   outer loop
     vertex -5.000000e-01  5.000000e-01  2.500000e+00
     vertex -2.500000e+00  5.000000e-01  0.000000e+00
     vertex -2.500000e+00  5.000000e-01  2.500000e+00
   endloop
 endfacet
 facet normal -1.000000e+00  2.220446e-16  0.000000e+00
   outer loop
     vertex -3.500000e+00  6.500000e+00  2.500000e+00
     vertex -3.500000e+00  6.500000e+00  0.000000e+00
     vertex -3.500000e+00  5.000000e-01  0.000000e+00
   endloop
 endfacet
 facet normal -1.000000e+00  2.220446e-16  0.000000e+00
   outer loop
     vertex -3.500000e+00  6.500000e+00  2.500000e+00
     vertex -3.500000e+00  5.000000e-01  0.000000e+00
     vertex -3.500000e+00  5.000000e-01  2.500000e+00
   endloop
 endfacet
 facet normal -0.000000e+00  0.000000e+00 -1.000000e+00
   outer loop
     vertex -2.500000e+00  7.500000e+00  0.000000e+00
     vertex -3.500000e+00  6.500000e+00  0.000000e+00
     vertex -3.500000e+00  7.500000e+00  0.000000e+00
   endloop
 endfacet
 facet normal  0.000000e+00  0.000000e+00 -1.000000e+00
   outer loop
     vertex -2.500000e+00  7.500000e+00  0.000000e+00
     vertex -2.500000e+00  6.500000e+00  0.000000e+00
     vertex -3.500000e+00  6.500000e+00  0.000000e+00
   endloop
 endfacet
 facet normal -0.000000e+00  0.000000e+00 -1.000000e+00
   outer loop
     vertex -3.500000e+00  5.000000e-01  0.000000e+00
     vertex -5.500000e+00 -5.000000e-01  0.000000e+00
     vertex -5.500000e+00  5.000000e-01  0.000000e+00
   endloop
 endfacet
 facet normal -0.000000e+00  0.000000e+00 -1.000000e+00
   outer loop
     vertex -2.500000e+00  5.000000e-01  0.000000e+00
     vertex -5.500000e+00 -5.000000e-01  0.000000e+00
     vertex -3.500000e+00  5.000000e-01  0.000000e+00
   endloop
 endfacet
 facet normal  0.000000e+00  0.000000e+00 -1.000000e+00
   outer loop
     vertex -5.000000e-01 -5.000000e-01  0.000000e+00
     vertex -5.500000e+00 -5.000000e-01  0.000000e+00
     vertex -2.500000e+00  5.000000e-01  0.000000e+00
   endloop
 endfacet
 facet normal -0.000000e+00 -0.000000e+00 -1.000000e+00
   outer loop
     vertex -5.000000e-01  5.000000e-01  0.000000e+00
     vertex -5.000000e-01 -5.000000e-01  0.000000e+00
     vertex -2.500000e+00  5.000000e-01  0.000000e+00
   endloop
 endfacet
 facet normal -0.000000e+00  0.000000e+00 -1.000000e+00
   outer loop
     vertex -5.000000e-01  7.500000e+00  0.000000e+00
     vertex -2.500000e+00  6.500000e+00  0.000000e+00
     vertex -2.500000e+00  7.500000e+00  0.000000e+00
   endloop
 endfacet
 facet normal  0.000000e+00 -0.000000e+00 -1.000000e+00
   outer loop
     vertex -5.000000e-01  7.500000e+00  0.000000e+00
     vertex -5.000000e-01  6.500000e+00  0.000000e+00
     vertex -2.500000e+00  6.500000e+00  0.000000e+00
   endloop
 endfacet
 facet normal  1.000000e+00  0.000000e+00  0.000000e+00
   outer loop
     vertex -5.000000e-01  6.500000e+00  2.500000e+00
     vertex -5.000000e-01  6.500000e+00  0.000000e+00
     vertex -5.000000e-01  7.500000e+00  0.000000e+00
   endloop
 endfacet
 facet normal  1.000000e+00 -0.000000e+00  0.000000e+00
   outer loop
     vertex -5.000000e-01  6.500000e+00  2.500000e+00
     vertex -5.000000e-01  7.500000e+00  0.000000e+00
     vertex -5.000000e-01  7.500000e+00  2.500000e+00
   endloop
 endfacet
 facet normal  0.000000e+00  0.000000e+00  1.000000e+00
   outer loop
     vertex -5.000000e-01  7.500000e+00  2.500000e+00
     vertex -2.500000e+00  7.500000e+00  2.500000e+00
     vertex -2.500000e+00  6.500000e+00  2.500000e+00
   endloop
 endfacet
 facet normal  0.000000e+00  0.000000e+00  1.000000e+00
   outer loop
     vertex -5.000000e-01  7.500000e+00  2.500000e+00
     vertex -2.500000e+00  6.500000e+00  2.500000e+00
     vertex -5.000000e-01  6.500000e+00  2.500000e+00
   endloop
 endfacet
 facet normal  0.000000e+00  0.000000e+00  1.000000e+00
   outer loop
     vertex -2.500000e+00  7.500000e+00  2.500000e+00
     vertex -3.500000e+00  7.500000e+00  2.500000e+00
     vertex -3.500000e+00  6.500000e+00  2.500000e+00
   endloop
 endfacet
 facet normal  0.000000e+00  0.000000e+00  1.000000e+00
   outer loop
     vertex -2.500000e+00  7.500000e+00  2.500000e+00
     vertex -3.500000e+00  6.500000e+00  2.500000e+00
     vertex -2.500000e+00  6.500000e+00  2.500000e+00
   endloop
 endfacet
 facet normal  0.000000e+00  0.000000e+00  1.000000e+00
   outer loop
     vertex -3.500000e+00  5.000000e-01  2.500000e+00
     vertex -5.500000e+00  5.000000e-01  2.500000e+00
     vertex -5.500000e+00 -5.000000e-01  2.500000e+00
   endloop
 endfacet
 facet normal  0.000000e+00  0.000000e+00  1.000000e+00
   outer loop
     vertex -2.500000e+00  5.000000e-01  2.500000e+00
     vertex -3.500000e+00  5.000000e-01  2.500000e+00
     vertex -5.500000e+00 -5.000000e-01  2.500000e+00
   endloop
 endfacet
 facet normal  0.000000e+00  0.000000e+00  1.000000e+00
   outer loop
     vertex -5.000000e-01 -5.000000e-01  2.500000e+00
     vertex -2.500000e+00  5.000000e-01  2.500000e+00
     vertex -5.500000e+00 -5.000000e-01  2.500000e+00
   endloop
 endfacet
 facet normal  0.000000e+00  0.000000e+00  1.000000e+00
   outer loop
     vertex -5.000000e-01  5.000000e-01  2.500000e+00
     vertex -2.500000e+00  5.000000e-01  2.500000e+00
     vertex -5.000000e-01 -5.000000e-01  2.500000e+00
   endloop
 endfacet
 facet normal  1.000000e+00  0.000000e+00  0.000000e+00
   outer loop
     vertex -5.000000e-01 -5.000000e-01  2.500000e+00
     vertex -5.000000e-01 -5.000000e-01  0.000000e+00
     vertex -5.000000e-01  5.000000e-01  0.000000e+00
   endloop
 endfacet
 facet normal  1.000000e+00 -0.000000e+00  0.000000e+00
   outer loop
     vertex -5.000000e-01 -5.000000e-01  2.500000e+00
     vertex -5.000000e-01  5.000000e-01  0.000000e+00
     vertex -5.000000e-01  5.000000e-01  2.500000e+00
   endloop
 endfacet
 facet normal  0.000000e+00 -1.000000e+00 -0.000000e+00
   outer loop
     vertex -3.500000e+00  6.500000e+00  2.500000e+00
     vertex -5.500000e+00  6.500000e+00  0.000000e+00
     vertex -3.500000e+00  6.500000e+00  0.000000e+00
   endloop
 endfacet
 facet normal -0.000000e+00 -1.000000e+00  0.000000e+00
   outer loop
     vertex -3.500000e+00  6.500000e+00  2.500000e+00
     vertex -5.500000e+00  6.500000e+00  2.500000e+00
     vertex -5.500000e+00  6.500000e+00  0.000000e+00
   endloop
 endfacet
 facet normal  0.000000e+00  1.000000e+00  0.000000e+00
   outer loop
     vertex -3.500000e+00  5.000000e-01  2.500000e+00
     vertex -3.500000e+00  5.000000e-01  0.000000e+00
     vertex -5.500000e+00  5.000000e-01  0.000000e+00
   endloop
 endfacet
 facet normal  0.000000e+00  1.000000e+00  0.000000e+00
   outer loop
     vertex -3.500000e+00  5.000000e-01  2.500000e+00
     vertex -5.500000e+00  5.000000e-01  0.000000e+00
     vertex -5.500000e+00  5.000000e-01  2.500000e+00
   endloop
 endfacet
 facet normal  0.000000e+00  0.000000e+00 -1.000000e+00
   outer loop
     vertex -3.500000e+00  1.050000e+01  0.000000e+00
     vertex -2.500000e+00  7.500000e+00  0.000000e+00
     vertex -3.500000e+00  7.500000e+00  0.000000e+00
   endloop
 endfacet
 facet normal  0.000000e+00  0.000000e+00 -1.000000e+00
   outer loop
     vertex -3.500000e+00  1.050000e+01  0.000000e+00
     vertex -2.500000e+00  1.050000e+01  0.000000e+00
     vertex -2.500000e+00  7.500000e+00  0.000000e+00
   endloop
 endfacet
 facet normal -0.000000e+00  0.000000e+00 -1.000000e+00
   outer loop
     vertex -3.500000e+00  7.500000e+00  0.000000e+00
     vertex -5.500000e+00  6.500000e+00  0.000000e+00
     vertex -5.500000e+00  7.500000e+00  0.000000e+00
   endloop
 endfacet
 facet normal  0.000000e+00  0.000000e+00 -1.000000e+00
   outer loop
     vertex -3.500000e+00  7.500000e+00  0.000000e+00
     vertex -3.500000e+00  6.500000e+00  0.000000e+00
     vertex -5.500000e+00  6.500000e+00  0.000000e+00
   endloop
 endfacet
 facet normal -1.000000e+00  0.000000e+00  0.000000e+00
   outer loop
     vertex -5.500000e+00 -5.000000e-01  2.500000e+00
     vertex -5.500000e+00  5.000000e-01  0.000000e+00
     vertex -5.500000e+00 -5.000000e-01  0.000000e+00
   endloop
 endfacet
 facet normal -1.000000e+00  0.000000e+00  0.000000e+00
   outer loop
     vertex -5.500000e+00 -5.000000e-01  2.500000e+00
     vertex -5.500000e+00  5.000000e-01  2.500000e+00
     vertex -5.500000e+00  5.000000e-01  0.000000e+00
   endloop
 endfacet
 facet normal  0.000000e+00 -1.000000e+00 -0.000000e+00
   outer loop
     vertex -5.000000e-01 -5.000000e-01  2.500000e+00
     vertex -5.500000e+00 -5.000000e-01  0.000000e+00
     vertex -5.000000e-01 -5.000000e-01  0.000000e+00
   endloop
 endfacet
 facet normal -0.000000e+00 -1.000000e+00  0.000000e+00
   outer loop
     vertex -5.000000e-01 -5.000000e-01  2.500000e+00
     vertex -5.500000e+00 -5.000000e-01  2.500000e+00
     vertex -5.500000e+00 -5.000000e-01  0.000000e+00
   endloop
 endfacet
 facet normal  0.000000e+00  1.000000e+00  0.000000e+00
   outer loop
     vertex -5.000000e-01  7.500000e+00  2.500000e+00
     vertex -5.000000e-01  7.500000e+00  0.000000e+00
     vertex -2.500000e+00  7.500000e+00  0.000000e+00
   endloop
 endfacet
 facet normal  0.000000e+00  1.000000e+00  0.000000e+00
   outer loop
     vertex -5.000000e-01  7.500000e+00  2.500000e+00
     vertex -2.500000e+00  7.500000e+00  0.000000e+00
     vertex -2.500000e+00  7.500000e+00  2.500000e+00
   endloop
 endfacet
 facet normal  0.000000e+00  0.000000e+00  1.000000e+00
   outer loop
     vertex -3.500000e+00  1.050000e+01  2.500000e+00
     vertex -3.500000e+00  7.500000e+00  2.500000e+00
     vertex -2.500000e+00  7.500000e+00  2.500000e+00
   endloop
 endfacet
 facet normal -0.000000e+00  0.000000e+00  1.000000e+00
   outer loop
     vertex -3.500000e+00  1.050000e+01  2.500000e+00
     vertex -2.500000e+00  7.500000e+00  2.500000e+00
     vertex -2.500000e+00  1.050000e+01  2.500000e+00
   endloop
 endfacet
 facet normal  0.000000e+00  0.000000e+00  1.000000e+00
   outer loop
     vertex -3.500000e+00  7.500000e+00  2.500000e+00
     vertex -5.500000e+00  7.500000e+00  2.500000e+00
     vertex -5.500000e+00  6.500000e+00  2.500000e+00
   endloop
 endfacet
 facet normal  0.000000e+00  0.000000e+00  1.000000e+00
   outer loop
     vertex -3.500000e+00  7.500000e+00  2.500000e+00
     vertex -5.500000e+00  6.500000e+00  2.500000e+00
     vertex -3.500000e+00  6.500000e+00  2.500000e+00
   endloop
 endfacet
 facet normal -1.000000e+00  0.000000e+00  0.000000e+00
   outer loop
     vertex -5.500000e+00  6.500000e+00  2.500000e+00
     vertex -5.500000e+00  7.500000e+00  0.000000e+00
     vertex -5.500000e+00  6.500000e+00  0.000000e+00
   endloop
 endfacet
 facet normal -1.000000e+00  0.000000e+00  0.000000e+00
   outer loop
     vertex -5.500000e+00  6.500000e+00  2.500000e+00
     vertex -5.500000e+00  7.500000e+00  2.500000e+00
     vertex -5.500000e+00  7.500000e+00  0.000000e+00
   endloop
 endfacet
 facet normal -1.000000e+00  0.000000e+00 -0.000000e+00
   outer loop
     vertex -3.500000e+00  1.050000e+01  2.500000e+00
     vertex -3.500000e+00  1.050000e+01  0.000000e+00
     vertex -3.500000e+00  7.500000e+00  0.000000e+00
   endloop
 endfacet
 facet normal -1.000000e+00 -0.000000e+00  0.000000e+00
   outer loop
     vertex -3.500000e+00  1.050000e+01  2.500000e+00
     vertex -3.500000e+00  7.500000e+00  0.000000e+00
     vertex -3.500000e+00  7.500000e+00  2.500000e+00
   endloop
 endfacet
 facet normal  0.000000e+00  1.000000e+00  0.000000e+00
   outer loop
     vertex -2.500000e+00  1.050000e+01  2.500000e+00
     vertex -2.500000e+00  1.050000e+01  0.000000e+00
     vertex -3.500000e+00  1.050000e+01  0.000000e+00
   endloop
 endfacet
 facet normal  0.000000e+00  1.000000e+00  0.000000e+00
   outer loop
     vertex -2.500000e+00  1.050000e+01  2.500000e+00
     vertex -3.500000e+00  1.050000e+01  0.000000e+00
     vertex -3.500000e+00  1.050000e+01  2.500000e+00
   endloop
 endfacet
 facet normal  1.000000e+00  0.000000e+00  0.000000e+00
   outer loop
     vertex -2.500000e+00  1.050000e+01  2.500000e+00
     vertex -2.500000e+00  7.500000e+00  0.000000e+00
     vertex -2.500000e+00  1.050000e+01  0.000000e+00
   endloop
 endfacet
 facet normal  1.000000e+00  0.000000e+00  0.000000e+00
   outer loop
     vertex -2.500000e+00  1.050000e+01  2.500000e+00
     vertex -2.500000e+00  7.500000e+00  2.500000e+00
     vertex -2.500000e+00  7.500000e+00  0.000000e+00
   endloop
 endfacet
 facet normal  0.000000e+00  1.000000e+00  0.000000e+00
   outer loop
     vertex -3.500000e+00  7.500000e+00  2.500000e+00
     vertex -3.500000e+00  7.500000e+00  0.000000e+00
     vertex -5.500000e+00  7.500000e+00  0.000000e+00
   endloop
 endfacet
 facet normal  0.000000e+00  1.000000e+00  0.000000e+00
   outer loop
     vertex -3.500000e+00  7.500000e+00  2.500000e+00
     vertex -5.500000e+00  7.500000e+00  0.000000e+00
     vertex -5.500000e+00  7.500000e+00  2.500000e+00
   endloop
 endfacet
endsolid
