solid 
 facet normal  0.000000e+00  1.000000e+00  0.000000e+00
   outer loop
     vertex  1.750000e+01  1.050000e+01  2.500000e+00
     vertex  1.750000e+01  1.050000e+01  0.000000e+00
     vertex  1.650000e+01  1.050000e+01  0.000000e+00
   endloop
 endfacet
 facet normal  0.000000e+00  1.000000e+00  0.000000e+00
   outer loop
     vertex  1.750000e+01  1.050000e+01  2.500000e+00
     vertex  1.650000e+01  1.050000e+01  0.000000e+00
     vertex  1.650000e+01  1.050000e+01  2.500000e+00
   endloop
 endfacet
 facet normal  1.000000e+00  0.000000e+00  0.000000e+00
   outer loop
     vertex  1.750000e+01  1.050000e+01  2.500000e+00
     vertex  1.750000e+01  5.500000e+00  0.000000e+00
     vertex  1.750000e+01  1.050000e+01  0.000000e+00
   endloop
 endfacet
 facet normal  1.000000e+00  0.000000e+00  0.000000e+00
   outer loop
     vertex  1.750000e+01  1.050000e+01  2.500000e+00
     vertex  1.750000e+01  5.500000e+00  2.500000e+00
     vertex  1.750000e+01  5.500000e+00  0.000000e+00
   endloop
 endfacet
 facet normal  0.000000e+00  0.000000e+00  1.000000e+00
   outer loop
     vertex  1.650000e+01  1.050000e+01  2.500000e+00
     vertex  1.650000e+01  5.500000e+00  2.500000e+00
     vertex  1.750000e+01  5.500000e+00  2.500000e+00
   endloop
 endfacet
 facet normal -0.000000e+00  0.000000e+00  1.000000e+00
   outer loop
     vertex  1.650000e+01  1.050000e+01  2.500000e+00
     vertex  1.750000e+01  5.500000e+00  2.500000e+00
     vertex  1.750000e+01  1.050000e+01  2.500000e+00
   endloop
 endfacet
 facet normal -1.000000e+00 -7.105427e-16 -0.000000e+00
   outer loop
     vertex  1.650000e+01  1.050000e+01  2.500000e+00
     vertex  1.650000e+01  1.050000e+01  0.000000e+00
     vertex  1.650000e+01  5.500000e+00  0.000000e+00
   endloop
 endfacet
 facet normal -1.000000e+00 -7.105427e-16  0.000000e+00
   outer loop
     vertex  1.650000e+01  1.050000e+01  2.500000e+00
     vertex  1.650000e+01  5.500000e+00  0.000000e+00
     vertex  1.650000e+01  5.500000e+00  2.500000e+00
   endloop
 endfacet
 facet normal  0.000000e+00  0.000000e+00 -1.000000e+00
   outer loop
     vertex  1.650000e+01  1.050000e+01  0.000000e+00
     vertex  1.750000e+01  5.500000e+00  0.000000e+00
     vertex  1.650000e+01  5.500000e+00  0.000000e+00
   endloop
 endfacet
 facet normal  0.000000e+00  0.000000e+00 -1.000000e+00
   outer loop
     vertex  1.650000e+01  1.050000e+01  0.000000e+00
     vertex  1.750000e+01  1.050000e+01  0.000000e+00
     vertex  1.750000e+01  5.500000e+00  0.000000e+00
   endloop
 endfacet
 facet normal  1.000000e+00  0.000000e+00  0.000000e+00
   outer loop
     vertex  1.750000e+01  4.500000e+00  2.500000e+00
     vertex  1.750000e+01  4.500000e+00  0.000000e+00
     vertex  1.750000e+01  5.500000e+00  0.000000e+00
   endloop
 endfacet
 facet normal  1.000000e+00 -0.000000e+00  0.000000e+00
   outer loop
     vertex  1.750000e+01  4.500000e+00  2.500000e+00
     vertex  1.750000e+01  5.500000e+00  0.000000e+00
     vertex  1.750000e+01  5.500000e+00  2.500000e+00
   endloop
 endfacet
 facet normal  0.000000e+00  0.000000e+00  1.000000e+00
   outer loop
     vertex  1.650000e+01  5.500000e+00  2.500000e+00
     vertex  1.250000e+01  5.500000e+00  2.500000e+00
     vertex  1.250000e+01  4.500000e+00  2.500000e+00
   endloop
 endfacet
 facet normal  0.000000e+00  0.000000e+00  1.000000e+00
   outer loop
     vertex  1.750000e+01  4.500000e+00  2.500000e+00
     vertex  1.650000e+01  5.500000e+00  2.500000e+00
     vertex  1.250000e+01  4.500000e+00  2.500000e+00
   endloop
 endfacet
 facet normal  0.000000e+00  0.000000e+00  1.000000e+00
   outer loop
     vertex  1.750000e+01  5.500000e+00  2.500000e+00
     vertex  1.650000e+01  5.500000e+00  2.500000e+00
     vertex  1.750000e+01  4.500000e+00  2.500000e+00
   endloop
 endfacet
 facet normal  0.000000e+00  1.000000e+00  0.000000e+00
   outer loop
     vertex  1.650000e+01  5.500000e+00  2.500000e+00
     vertex  1.650000e+01  5.500000e+00  0.000000e+00
     vertex  1.250000e+01  5.500000e+00  0.000000e+00
   endloop
 endfacet
 facet normal  0.000000e+00  1.000000e+00  0.000000e+00
   outer loop
     vertex  1.650000e+01  5.500000e+00  2.500000e+00
     vertex  1.250000e+01  5.500000e+00  0.000000e+00
     vertex  1.250000e+01  5.500000e+00  2.500000e+00
   endloop
 endfacet
 facet normal -0.000000e+00  0.000000e+00 -1.000000e+00
   outer loop
     vertex  1.650000e+01  5.500000e+00  0.000000e+00
     vertex  1.250000e+01  4.500000e+00  0.000000e+00
     vertex  1.250000e+01  5.500000e+00  0.000000e+00
   endloop
 endfacet
 facet normal  0.000000e+00  0.000000e+00 -1.000000e+00
   outer loop
     vertex  1.750000e+01  4.500000e+00  0.000000e+00
     vertex  1.250000e+01  4.500000e+00  0.000000e+00
     vertex  1.650000e+01  5.500000e+00  0.000000e+00
   endloop
 endfacet
 facet normal -0.000000e+00 -0.000000e+00 -1.000000e+00
   outer loop
     vertex  1.750000e+01  5.500000e+00  0.000000e+00
     vertex  1.750000e+01  4.500000e+00  0.000000e+00
     vertex  1.650000e+01  5.500000e+00  0.000000e+00
   endloop
 endfacet
 facet normal  0.000000e+00 -1.000000e+00 -0.000000e+00
   outer loop
     vertex  1.750000e+01  4.500000e+00  2.500000e+00
     vertex  1.250000e+01  4.500000e+00  0.000000e+00
     vertex  1.750000e+01  4.500000e+00  0.000000e+00
   endloop
 endfacet
 facet normal -0.000000e+00 -1.000000e+00  0.000000e+00
   outer loop
     vertex  1.750000e+01  4.500000e+00  2.500000e+00
     vertex  1.250000e+01  4.500000e+00  2.500000e+00
     vertex  1.250000e+01  4.500000e+00  0.000000e+00
   endloop
 endfacet
 facet normal -1.000000e+00  0.000000e+00  0.000000e+00
   outer loop
     vertex  1.250000e+01  4.500000e+00  2.500000e+00
     vertex  1.250000e+01  5.500000e+00  0.000000e+00
     vertex  1.250000e+01  4.500000e+00  0.000000e+00
   endloop
 endfacet
 facet normal -1.000000e+00  0.000000e+00  0.000000e+00
   outer loop
     vertex  1.250000e+01  4.500000e+00  2.500000e+00
     vertex  1.250000e+01  5.500000e+00  2.500000e+00
     vertex  1.250000e+01  5.500000e+00  0.000000e+00
   endloop
 endfacet
 facet normal  0.000000e+00  1.000000e+00  0.000000e+00
   outer loop
     vertex  1.100000e+01  9.500000e+00  2.500000e+00
     vertex  1.100000e+01  9.500000e+00  0.000000e+00
     vertex  1.000000e+01  9.500000e+00  0.000000e+00
   endloop
 endfacet
 facet normal  0.000000e+00  1.000000e+00  0.000000e+00
   outer loop
     vertex  1.100000e+01  9.500000e+00  2.500000e+00
     vertex  1.000000e+01  9.500000e+00  0.000000e+00
     vertex  1.000000e+01  9.500000e+00  2.500000e+00
   endloop
 endfacet
 facet normal  1.000000e+00  0.000000e+00  0.000000e+00
   outer loop
     vertex  1.100000e+01  9.500000e+00  2.500000e+00
     vertex  1.100000e+01  5.500000e+00  0.000000e+00
     vertex  1.100000e+01  9.500000e+00  0.000000e+00
   endloop
 endfacet
 facet normal  1.000000e+00  0.000000e+00  0.000000e+00
   outer loop
     vertex  1.100000e+01  9.500000e+00  2.500000e+00
     vertex  1.100000e+01  5.500000e+00  2.500000e+00
     vertex  1.100000e+01  5.500000e+00  0.000000e+00
   endloop
 endfacet
 facet normal  0.000000e+00  0.000000e+00  1.000000e+00
   outer loop
     vertex  1.000000e+01  9.500000e+00  2.500000e+00
     vertex  1.000000e+01  5.500000e+00  2.500000e+00
     vertex  1.100000e+01  5.500000e+00  2.500000e+00
   endloop
 endfacet
 facet normal -0.000000e+00  0.000000e+00  1.000000e+00
   outer loop
     vertex  1.000000e+01  9.500000e+00  2.500000e+00
     vertex  1.100000e+01  5.500000e+00  2.500000e+00
     vertex  1.100000e+01  9.500000e+00  2.500000e+00
   endloop
 endfacet
 facet normal -1.000000e+00  0.000000e+00 -0.000000e+00
   outer loop
     vertex  1.000000e+01  9.500000e+00  2.500000e+00
     vertex  1.000000e+01  9.500000e+00  0.000000e+00
     vertex  1.000000e+01  5.500000e+00  0.000000e+00
   endloop
 endfacet
 facet normal -1.000000e+00 -0.000000e+00  0.000000e+00
   outer loop
     vertex  1.000000e+01  9.500000e+00  2.500000e+00
     vertex  1.000000e+01  5.500000e+00  0.000000e+00
     vertex  1.000000e+01  5.500000e+00  2.500000e+00
   endloop
 endfacet
 facet normal  0.000000e+00  0.000000e+00 -1.000000e+00
   outer loop
     vertex  1.000000e+01  9.500000e+00  0.000000e+00
     vertex  1.100000e+01  5.500000e+00  0.000000e+00
     vertex  1.000000e+01  5.500000e+00  0.000000e+00
   endloop
 endfacet
 facet normal  0.000000e+00  0.000000e+00 -1.000000e+00
   outer loop
     vertex  1.000000e+01  9.500000e+00  0.000000e+00
     vertex  1.100000e+01  9.500000e+00  0.000000e+00
     vertex  1.100000e+01  5.500000e+00  0.000000e+00
   endloop
 endfacet
 facet normal  1.000000e+00  0.000000e+00  0.000000e+00
   outer loop
     vertex  1.100000e+01  4.500000e+00  2.500000e+00
     vertex  1.100000e+01  4.500000e+00  0.000000e+00
     vertex  1.100000e+01  5.500000e+00  0.000000e+00
   endloop
 endfacet
 facet normal  1.000000e+00 -0.000000e+00  0.000000e+00
   outer loop
     vertex  1.100000e+01  4.500000e+00  2.500000e+00
     vertex  1.100000e+01  5.500000e+00  0.000000e+00
     vertex  1.100000e+01  5.500000e+00  2.500000e+00
   endloop
 endfacet
 facet normal  0.000000e+00  0.000000e+00  1.000000e+00
   outer loop
     vertex  1.000000e+01  5.500000e+00  2.500000e+00
     vertex  7.000000e+00  5.500000e+00  2.500000e+00
     vertex  7.000000e+00  4.500000e+00  2.500000e+00
   endloop
 endfacet
 facet normal  0.000000e+00  0.000000e+00  1.000000e+00
   outer loop
     vertex  1.100000e+01  4.500000e+00  2.500000e+00
     vertex  1.000000e+01  5.500000e+00  2.500000e+00
     vertex  7.000000e+00  4.500000e+00  2.500000e+00
   endloop
 endfacet
 facet normal  0.000000e+00  0.000000e+00  1.000000e+00
   outer loop
     vertex  1.100000e+01  5.500000e+00  2.500000e+00
     vertex  1.000000e+01  5.500000e+00  2.500000e+00
     vertex  1.100000e+01  4.500000e+00  2.500000e+00
   endloop
 endfacet
 facet normal  0.000000e+00  1.000000e+00  0.000000e+00
   outer loop
     vertex  1.000000e+01  5.500000e+00  2.500000e+00
     vertex  1.000000e+01  5.500000e+00  0.000000e+00
     vertex  7.000000e+00  5.500000e+00  0.000000e+00
   endloop
 endfacet
 facet normal  0.000000e+00  1.000000e+00  0.000000e+00
   outer loop
     vertex  1.000000e+01  5.500000e+00  2.500000e+00
     vertex  7.000000e+00  5.500000e+00  0.000000e+00
     vertex  7.000000e+00  5.500000e+00  2.500000e+00
   endloop
 endfacet
 facet normal -0.000000e+00  0.000000e+00 -1.000000e+00
   outer loop
     vertex  1.000000e+01  5.500000e+00  0.000000e+00
     vertex  7.000000e+00  4.500000e+00  0.000000e+00
     vertex  7.000000e+00  5.500000e+00  0.000000e+00
   endloop
 endfacet
 facet normal  0.000000e+00  0.000000e+00 -1.000000e+00
   outer loop
     vertex  1.100000e+01  4.500000e+00  0.000000e+00
     vertex  7.000000e+00  4.500000e+00  0.000000e+00
     vertex  1.000000e+01  5.500000e+00  0.000000e+00
   endloop
 endfacet
 facet normal -0.000000e+00 -0.000000e+00 -1.000000e+00
   outer loop
     vertex  1.100000e+01  5.500000e+00  0.000000e+00
     vertex  1.100000e+01  4.500000e+00  0.000000e+00
     vertex  1.000000e+01  5.500000e+00  0.000000e+00
   endloop
 endfacet
 facet normal  0.000000e+00 -1.000000e+00 -0.000000e+00
   outer loop
     vertex  1.100000e+01  4.500000e+00  2.500000e+00
     vertex  7.000000e+00  4.500000e+00  0.000000e+00
     vertex  1.100000e+01  4.500000e+00  0.000000e+00
   endloop
 endfacet
 facet normal -0.000000e+00 -1.000000e+00  0.000000e+00
   outer loop
     vertex  1.100000e+01  4.500000e+00  2.500000e+00
     vertex  7.000000e+00  4.500000e+00  2.500000e+00
     vertex  7.000000e+00  4.500000e+00  0.000000e+00
   endloop
 endfacet
 facet normal -1.000000e+00  0.000000e+00  0.000000e+00
   outer loop
     vertex  7.000000e+00  4.500000e+00  2.500000e+00
     vertex  7.000000e+00  5.500000e+00  0.000000e+00
     vertex  7.000000e+00  4.500000e+00  0.000000e+00
   endloop
 endfacet
 facet normal -1.000000e+00  0.000000e+00  0.000000e+00
   outer loop
     vertex  7.000000e+00  4.500000e+00  2.500000e+00
     vertex  7.000000e+00  5.500000e+00  2.500000e+00
     vertex  7.000000e+00  5.500000e+00  0.000000e+00
   endloop
 endfacet
 facet normal  0.000000e+00  1.000000e+00  0.000000e+00
   outer loop
     vertex  5.500000e+00  8.500000e+00  2.500000e+00
     vertex  5.500000e+00  8.500000e+00  0.000000e+00
     vertex  4.500000e+00  8.500000e+00  0.000000e+00
   endloop
 endfacet
 facet normal  0.000000e+00  1.000000e+00  0.000000e+00
   outer loop
     vertex  5.500000e+00  8.500000e+00  2.500000e+00
     vertex  4.500000e+00  8.500000e+00  0.000000e+00
     vertex  4.500000e+00  8.500000e+00  2.500000e+00
   endloop
 endfacet
 facet normal  1.000000e+00  0.000000e+00  0.000000e+00
   outer loop
     vertex  5.500000e+00  8.500000e+00  2.500000e+00
     vertex  5.500000e+00  5.500000e+00  0.000000e+00
     vertex  5.500000e+00  8.500000e+00  0.000000e+00
   endloop
 endfacet
 facet normal  1.000000e+00  0.000000e+00  0.000000e+00
   outer loop
     vertex  5.500000e+00  8.500000e+00  2.500000e+00
     vertex  5.500000e+00  5.500000e+00  2.500000e+00
     vertex  5.500000e+00  5.500000e+00  0.000000e+00
   endloop
 endfacet
 facet normal  0.000000e+00  0.000000e+00  1.000000e+00
   outer loop
     vertex  4.500000e+00  8.500000e+00  2.500000e+00
     vertex  4.500000e+00  5.500000e+00  2.500000e+00
     vertex  5.500000e+00  5.500000e+00  2.500000e+00
   endloop
 endfacet
 facet normal -0.000000e+00  0.000000e+00  1.000000e+00
   outer loop
     vertex  4.500000e+00  8.500000e+00  2.500000e+00
     vertex  5.500000e+00  5.500000e+00  2.500000e+00
     vertex  5.500000e+00  8.500000e+00  2.500000e+00
   endloop
 endfacet
 facet normal -1.000000e+00 -2.960595e-16 -0.000000e+00
   outer loop
     vertex  4.500000e+00  8.500000e+00  2.500000e+00
     vertex  4.500000e+00  8.500000e+00  0.000000e+00
     vertex  4.500000e+00  5.500000e+00  0.000000e+00
   endloop
 endfacet
 facet normal -1.000000e+00 -2.960595e-16  0.000000e+00
   outer loop
     vertex  4.500000e+00  8.500000e+00  2.500000e+00
     vertex  4.500000e+00  5.500000e+00  0.000000e+00
     vertex  4.500000e+00  5.500000e+00  2.500000e+00
   endloop
 endfacet
 facet normal  0.000000e+00  0.000000e+00 -1.000000e+00
   outer loop
     vertex  4.500000e+00  8.500000e+00  0.000000e+00
     vertex  5.500000e+00  5.500000e+00  0.000000e+00
     vertex  4.500000e+00  5.500000e+00  0.000000e+00
   endloop
 endfacet
 facet normal  0.000000e+00  0.000000e+00 -1.000000e+00
   outer loop
     vertex  4.500000e+00  8.500000e+00  0.000000e+00
     vertex  5.500000e+00  8.500000e+00  0.000000e+00
     vertex  5.500000e+00  5.500000e+00  0.000000e+00
   endloop
 endfacet
 facet normal  1.000000e+00  0.000000e+00  0.000000e+00
   outer loop
     vertex  5.500000e+00  4.500000e+00  2.500000e+00
     vertex  5.500000e+00  4.500000e+00  0.000000e+00
     vertex  5.500000e+00  5.500000e+00  0.000000e+00
   endloop
 endfacet
 facet normal  1.000000e+00 -0.000000e+00  0.000000e+00
   outer loop
     vertex  5.500000e+00  4.500000e+00  2.500000e+00
     vertex  5.500000e+00  5.500000e+00  0.000000e+00
     vertex  5.500000e+00  5.500000e+00  2.500000e+00
   endloop
 endfacet
 facet normal  0.000000e+00  0.000000e+00  1.000000e+00
   outer loop
     vertex  4.500000e+00  5.500000e+00  2.500000e+00
     vertex  2.500000e+00  5.500000e+00  2.500000e+00
     vertex  2.500000e+00  4.500000e+00  2.500000e+00
   endloop
 endfacet
 facet normal  0.000000e+00  0.000000e+00  1.000000e+00
   outer loop
     vertex  4.500000e+00  5.500000e+00  2.500000e+00
     vertex  2.500000e+00  4.500000e+00  2.500000e+00
     vertex  5.500000e+00  4.500000e+00  2.500000e+00
   endloop
 endfacet
 facet normal  0.000000e+00  0.000000e+00  1.000000e+00
   outer loop
     vertex  5.500000e+00  5.500000e+00  2.500000e+00
     vertex  4.500000e+00  5.500000e+00  2.500000e+00
     vertex  5.500000e+00  4.500000e+00  2.500000e+00
   endloop
 endfacet
 facet normal  0.000000e+00  1.000000e+00  0.000000e+00
   outer loop
     vertex  4.500000e+00  5.500000e+00  2.500000e+00
     vertex  4.500000e+00  5.500000e+00  0.000000e+00
     vertex  2.500000e+00  5.500000e+00  0.000000e+00
   endloop
 endfacet
 facet normal  0.000000e+00  1.000000e+00  0.000000e+00
   outer loop
     vertex  4.500000e+00  5.500000e+00  2.500000e+00
     vertex  2.500000e+00  5.500000e+00  0.000000e+00
     vertex  2.500000e+00  5.500000e+00  2.500000e+00
   endloop
 endfacet
 facet normal -0.000000e+00  0.000000e+00 -1.000000e+00
   outer loop
     vertex  4.500000e+00  5.500000e+00  0.000000e+00
     vertex  2.500000e+00  4.500000e+00  0.000000e+00
     vertex  2.500000e+00  5.500000e+00  0.000000e+00
   endloop
 endfacet
 facet normal  0.000000e+00 -0.000000e+00 -1.000000e+00
   outer loop
     vertex  4.500000e+00  5.500000e+00  0.000000e+00
     vertex  5.500000e+00  4.500000e+00  0.000000e+00
     vertex  2.500000e+00  4.500000e+00  0.000000e+00
   endloop
 endfacet
 facet normal -0.000000e+00 -0.000000e+00 -1.000000e+00
   outer loop
     vertex  5.500000e+00  5.500000e+00  0.000000e+00
     vertex  5.500000e+00  4.500000e+00  0.000000e+00
     vertex  4.500000e+00  5.500000e+00  0.000000e+00
   endloop
 endfacet
 facet normal  0.000000e+00 -1.000000e+00 -0.000000e+00
   outer loop
     vertex  5.500000e+00  4.500000e+00  2.500000e+00
     vertex  2.500000e+00  4.500000e+00  0.000000e+00
     vertex  5.500000e+00  4.500000e+00  0.000000e+00
   endloop
 endfacet
 facet normal -0.000000e+00 -1.000000e+00  0.000000e+00
   outer loop
     vertex  5.500000e+00  4.500000e+00  2.500000e+00
     vertex  2.500000e+00  4.500000e+00  2.500000e+00
     vertex  2.500000e+00  4.500000e+00  0.000000e+00
   endloop
 endfacet
 facet normal -1.000000e+00  0.000000e+00  0.000000e+00
   outer loop
     vertex  2.500000e+00  4.500000e+00  2.500000e+00
     vertex  2.500000e+00  5.500000e+00  0.000000e+00
     vertex  2.500000e+00  4.500000e+00  0.000000e+00
   endloop
 endfacet
 facet normal -1.000000e+00  0.000000e+00  0.000000e+00
   outer loop
     vertex  2.500000e+00  4.500000e+00  2.500000e+00
     vertex  2.500000e+00  5.500000e+00  2.500000e+00
     vertex  2.500000e+00  5.500000e+00  0.000000e+00
   endloop
 endfacet
 facet normal  0.000000e+00 -1.000000e+00 -0.000000e+00
   outer loop
     vertex  1.000000e+00  5.500000e+00  3.000000e+00
     vertex -2.220446e-16  5.500000e+00  2.500000e+00
     vertex  1.000000e+00  5.500000e+00  2.500000e+00
   endloop
 endfacet
 facet normal -0.000000e+00 -1.000000e+00  0.000000e+00
   outer loop
     vertex  1.000000e+00  5.500000e+00  3.000000e+00
     vertex -2.220446e-16  5.500000e+00  3.000000e+00
     vertex -2.220446e-16  5.500000e+00  2.500000e+00
   endloop
 endfacet
 facet normal  1.000000e+00 -2.220446e-16 -1.110223e-16
   outer loop
     vertex  1.000000e+00  5.500000e+00  2.500000e+00
     vertex  1.000000e+00  5.500000e+00  5.000000e-01
     vertex  1.000000e+00  7.500000e+00  5.000000e-01
   endloop
 endfacet
 facet normal  1.000000e+00 -2.220446e-16  4.440892e-16
   outer loop
     vertex  1.000000e+00  7.500000e+00  3.000000e+00
     vertex  1.000000e+00  5.500000e+00  3.000000e+00
     vertex  1.000000e+00  5.500000e+00  2.500000e+00
   endloop
 endfacet
 facet normal  1.000000e+00 -1.110223e-16  0.000000e+00
   outer loop
     vertex  1.000000e+00  7.500000e+00  3.000000e+00
     vertex  1.000000e+00  5.500000e+00  2.500000e+00
     vertex  1.000000e+00  7.500000e+00  5.000000e-01
   endloop
 endfacet
 facet normal  0.000000e+00  0.000000e+00  1.000000e+00
   outer loop
     vertex  2.220446e-16  7.500000e+00  3.000000e+00
     vertex -2.220446e-16  5.500000e+00  3.000000e+00
     vertex  1.000000e+00  5.500000e+00  3.000000e+00
   endloop
 endfacet
 facet normal -0.000000e+00  0.000000e+00  1.000000e+00
   outer loop
     vertex  2.220446e-16  7.500000e+00  3.000000e+00
     vertex  1.000000e+00  5.500000e+00  3.000000e+00
     vertex  1.000000e+00  7.500000e+00  3.000000e+00
   endloop
 endfacet
 facet normal -1.000000e+00  2.220446e-16  0.000000e+00
   outer loop
     vertex -2.220446e-16  5.500000e+00  2.500000e+00
     vertex  2.220446e-16  7.500000e+00  5.000000e-01
     vertex -2.220446e-16  5.500000e+00  5.000000e-01
   endloop
 endfacet
 facet normal -1.000000e+00  2.220446e-16  0.000000e+00
   outer loop
     vertex  2.220446e-16  7.500000e+00  3.000000e+00
     vertex -2.220446e-16  5.500000e+00  2.500000e+00
     vertex -2.220446e-16  5.500000e+00  3.000000e+00
   endloop
 endfacet
 facet normal -1.000000e+00  2.220446e-16  0.000000e+00
   outer loop
     vertex  2.220446e-16  7.500000e+00  3.000000e+00
     vertex  2.220446e-16  7.500000e+00  5.000000e-01
     vertex -2.220446e-16  5.500000e+00  2.500000e+00
   endloop
 endfacet
 facet normal  0.000000e+00  0.000000e+00  1.000000e+00
   outer loop
     vertex -2.220446e-16  5.500000e+00  2.500000e+00
     vertex -1.000000e+00  5.500000e+00  2.500000e+00
     vertex -1.000000e+00  4.500000e+00  2.500000e+00
   endloop
 endfacet
 facet normal  0.000000e+00  0.000000e+00  1.000000e+00
   outer loop
     vertex  1.000000e+00  4.500000e+00  2.500000e+00
     vertex -2.220446e-16  5.500000e+00  2.500000e+00
     vertex -1.000000e+00  4.500000e+00  2.500000e+00
   endloop
 endfacet
 facet normal  0.000000e+00  0.000000e+00  1.000000e+00
   outer loop
     vertex  1.000000e+00  5.500000e+00  2.500000e+00
     vertex -2.220446e-16  5.500000e+00  2.500000e+00
     vertex  1.000000e+00  4.500000e+00  2.500000e+00
   endloop
 endfacet
 facet normal  0.000000e+00 -0.000000e+00 -1.000000e+00
   outer loop
     vertex  2.220446e-16  7.500000e+00  5.000000e-01
     vertex  1.000000e+00  5.500000e+00  5.000000e-01
     vertex -2.220446e-16  5.500000e+00  5.000000e-01
   endloop
 endfacet
 facet normal  0.000000e+00  0.000000e+00 -1.000000e+00
   outer loop
     vertex  2.220446e-16  7.500000e+00  5.000000e-01
     vertex  1.000000e+00  7.500000e+00  5.000000e-01
     vertex  1.000000e+00  5.500000e+00  5.000000e-01
   endloop
 endfacet
 facet normal  0.000000e+00  1.000000e+00  0.000000e+00
   outer loop
     vertex  1.000000e+00  7.500000e+00  3.000000e+00
     vertex  1.000000e+00  7.500000e+00  5.000000e-01
     vertex  2.220446e-16  7.500000e+00  5.000000e-01
   endloop
 endfacet
 facet normal  0.000000e+00  1.000000e+00  0.000000e+00
   outer loop
     vertex  1.000000e+00  7.500000e+00  3.000000e+00
     vertex  2.220446e-16  7.500000e+00  5.000000e-01
     vertex  2.220446e-16  7.500000e+00  3.000000e+00
   endloop
 endfacet
 facet normal  1.000000e+00 -0.000000e+00  4.440892e-16
   outer loop
     vertex  1.000000e+00  4.500000e+00  0.000000e+00
     vertex  1.000000e+00  5.500000e+00  0.000000e+00
     vertex  1.000000e+00  5.500000e+00  5.000000e-01
   endloop
 endfacet
 facet normal  1.000000e+00  0.000000e+00 -1.110223e-16
   outer loop
     vertex  1.000000e+00  4.500000e+00  2.500000e+00
     vertex  1.000000e+00  5.500000e+00  5.000000e-01
     vertex  1.000000e+00  5.500000e+00  2.500000e+00
   endloop
 endfacet
 facet normal  1.000000e+00  2.220446e-16  0.000000e+00
   outer loop
     vertex  1.000000e+00  4.500000e+00  2.500000e+00
     vertex  1.000000e+00  4.500000e+00  0.000000e+00
     vertex  1.000000e+00  5.500000e+00  5.000000e-01
   endloop
 endfacet
 facet normal  0.000000e+00  1.000000e+00  0.000000e+00
   outer loop
     vertex  1.000000e+00  5.500000e+00  0.000000e+00
     vertex -1.000000e+00  5.500000e+00  0.000000e+00
     vertex -2.220446e-16  5.500000e+00  5.000000e-01
   endloop
 endfacet
 facet normal  0.000000e+00  1.000000e+00  0.000000e+00
   outer loop
     vertex -1.000000e+00  5.500000e+00  2.500000e+00
     vertex -2.220446e-16  5.500000e+00  5.000000e-01
     vertex -1.000000e+00  5.500000e+00  0.000000e+00
   endloop
 endfacet
 facet normal  0.000000e+00  1.000000e+00  0.000000e+00
   outer loop
     vertex  1.000000e+00  5.500000e+00  5.000000e-01
     vertex  1.000000e+00  5.500000e+00  0.000000e+00
     vertex -2.220446e-16  5.500000e+00  5.000000e-01
   endloop
 endfacet
 facet normal  0.000000e+00  1.000000e+00  0.000000e+00
   outer loop
     vertex -2.220446e-16  5.500000e+00  2.500000e+00
     vertex -2.220446e-16  5.500000e+00  5.000000e-01
     vertex -1.000000e+00  5.500000e+00  2.500000e+00
   endloop
 endfacet
 facet normal -1.000000e+00  0.000000e+00  0.000000e+00
   outer loop
     vertex -1.000000e+00  4.500000e+00  2.500000e+00
     vertex -1.000000e+00  5.500000e+00  0.000000e+00
     vertex -1.000000e+00  4.500000e+00  0.000000e+00
   endloop
 endfacet
 facet normal -1.000000e+00  0.000000e+00  0.000000e+00
   outer loop
     vertex -1.000000e+00  4.500000e+00  2.500000e+00
     vertex -1.000000e+00  5.500000e+00  2.500000e+00
     vertex -1.000000e+00  5.500000e+00  0.000000e+00
   endloop
 endfacet
 facet normal  0.000000e+00 -1.000000e+00 -0.000000e+00
   outer loop
     vertex  1.000000e+00  4.500000e+00  2.500000e+00
     vertex -1.000000e+00  4.500000e+00  0.000000e+00
     vertex  1.000000e+00  4.500000e+00  0.000000e+00
   endloop
 endfacet
 facet normal -0.000000e+00 -1.000000e+00  0.000000e+00
   outer loop
     vertex  1.000000e+00  4.500000e+00  2.500000e+00
     vertex -1.000000e+00  4.500000e+00  2.500000e+00
     vertex -1.000000e+00  4.500000e+00  0.000000e+00
   endloop
 endfacet
 facet normal -0.000000e+00  0.000000e+00 -1.000000e+00
   outer loop
     vertex  1.000000e+00  5.500000e+00  0.000000e+00
     vertex -1.000000e+00  4.500000e+00  0.000000e+00
     vertex -1.000000e+00  5.500000e+00  0.000000e+00
   endloop
 endfacet
 facet normal  0.000000e+00 -0.000000e+00 -1.000000e+00
   outer loop
     vertex  1.000000e+00  5.500000e+00  0.000000e+00
     vertex  1.000000e+00  4.500000e+00  0.000000e+00
     vertex -1.000000e+00  4.500000e+00  0.000000e+00
   endloop
 endfacet
 facet normal -1.000000e+00  0.000000e+00  0.000000e+00
   outer loop
     vertex  1.250000e+01 -5.000000e-01  2.500000e+00
     vertex  1.250000e+01  5.000000e-01  0.000000e+00
     vertex  1.250000e+01 -5.000000e-01  0.000000e+00
   endloop
 endfacet
 facet normal -1.000000e+00  0.000000e+00  0.000000e+00
   outer loop
     vertex  1.250000e+01 -5.000000e-01  2.500000e+00
     vertex  1.250000e+01  5.000000e-01  2.500000e+00
     vertex  1.250000e+01  5.000000e-01  0.000000e+00
   endloop
 endfacet
 facet normal  1.000000e+00  0.000000e+00  0.000000e+00
   outer loop
     vertex  1.750000e+01 -5.000000e-01  2.500000e+00
     vertex  1.750000e+01 -5.000000e-01  0.000000e+00
     vertex  1.750000e+01  5.000000e-01  0.000000e+00
   endloop
 endfacet
 facet normal  1.000000e+00 -0.000000e+00  0.000000e+00
   outer loop
     vertex  1.750000e+01 -5.000000e-01  2.500000e+00
     vertex  1.750000e+01  5.000000e-01  0.000000e+00
     vertex  1.750000e+01  5.000000e-01  2.500000e+00
   endloop
 endfacet
 facet normal  0.000000e+00 -1.000000e+00 -0.000000e+00
   outer loop
     vertex  1.750000e+01 -5.000000e-01  2.500000e+00
     vertex  1.250000e+01 -5.000000e-01  0.000000e+00
     vertex  1.750000e+01 -5.000000e-01  0.000000e+00
   endloop
 endfacet
 facet normal -0.000000e+00 -1.000000e+00  0.000000e+00
   outer loop
     vertex  1.750000e+01 -5.000000e-01  2.500000e+00
     vertex  1.250000e+01 -5.000000e-01  2.500000e+00
     vertex  1.250000e+01 -5.000000e-01  0.000000e+00
   endloop
 endfacet
 facet normal  0.000000e+00  1.000000e+00  0.000000e+00
   outer loop
     vertex  1.750000e+01  5.000000e-01  2.500000e+00
     vertex  1.750000e+01  5.000000e-01  0.000000e+00
     vertex  1.250000e+01  5.000000e-01  0.000000e+00
   endloop
 endfacet
 facet normal  0.000000e+00  1.000000e+00  0.000000e+00
   outer loop
     vertex  1.750000e+01  5.000000e-01  2.500000e+00
     vertex  1.250000e+01  5.000000e-01  0.000000e+00
     vertex  1.250000e+01  5.000000e-01  2.500000e+00
   endloop
 endfacet
 facet normal -0.000000e+00  0.000000e+00 -1.000000e+00
   outer loop
     vertex  1.750000e+01  5.000000e-01  0.000000e+00
     vertex  1.250000e+01 -5.000000e-01  0.000000e+00
     vertex  1.250000e+01  5.000000e-01  0.000000e+00
   endloop
 endfacet
 facet normal  0.000000e+00 -0.000000e+00 -1.000000e+00
   outer loop
     vertex  1.750000e+01  5.000000e-01  0.000000e+00
     vertex  1.750000e+01 -5.000000e-01  0.000000e+00
     vertex  1.250000e+01 -5.000000e-01  0.000000e+00
   endloop
 endfacet
 facet normal  0.000000e+00  0.000000e+00  1.000000e+00
   outer loop
     vertex  1.750000e+01  5.000000e-01  2.500000e+00
     vertex  1.250000e+01  5.000000e-01  2.500000e+00
     vertex  1.250000e+01 -5.000000e-01  2.500000e+00
   endloop
 endfacet
 facet normal  0.000000e+00  0.000000e+00  1.000000e+00
   outer loop
     vertex  1.750000e+01  5.000000e-01  2.500000e+00
     vertex  1.250000e+01 -5.000000e-01  2.500000e+00
     vertex  1.750000e+01 -5.000000e-01  2.500000e+00
   endloop
 endfacet
 facet normal -1.000000e+00  0.000000e+00  0.000000e+00
   outer loop
     vertex  7.000000e+00 -5.000000e-01  2.500000e+00
     vertex  7.000000e+00  5.000000e-01  0.000000e+00
     vertex  7.000000e+00 -5.000000e-01  0.000000e+00
   endloop
 endfacet
 facet normal -1.000000e+00  0.000000e+00  0.000000e+00
   outer loop
     vertex  7.000000e+00 -5.000000e-01  2.500000e+00
     vertex  7.000000e+00  5.000000e-01  2.500000e+00
     vertex  7.000000e+00  5.000000e-01  0.000000e+00
   endloop
 endfacet
 facet normal  1.000000e+00  0.000000e+00  0.000000e+00
   outer loop
     vertex  1.100000e+01 -5.000000e-01  2.500000e+00
     vertex  1.100000e+01 -5.000000e-01  0.000000e+00
     vertex  1.100000e+01  5.000000e-01  0.000000e+00
   endloop
 endfacet
 facet normal  1.000000e+00 -0.000000e+00  0.000000e+00
   outer loop
     vertex  1.100000e+01 -5.000000e-01  2.500000e+00
     vertex  1.100000e+01  5.000000e-01  0.000000e+00
     vertex  1.100000e+01  5.000000e-01  2.500000e+00
   endloop
 endfacet
 facet normal  0.000000e+00 -1.000000e+00 -0.000000e+00
   outer loop
     vertex  1.100000e+01 -5.000000e-01  2.500000e+00
     vertex  7.000000e+00 -5.000000e-01  0.000000e+00
     vertex  1.100000e+01 -5.000000e-01  0.000000e+00
   endloop
 endfacet
 facet normal -0.000000e+00 -1.000000e+00  0.000000e+00
   outer loop
     vertex  1.100000e+01 -5.000000e-01  2.500000e+00
     vertex  7.000000e+00 -5.000000e-01  2.500000e+00
     vertex  7.000000e+00 -5.000000e-01  0.000000e+00
   endloop
 endfacet
 facet normal  0.000000e+00  1.000000e+00  0.000000e+00
   outer loop
     vertex  1.100000e+01  5.000000e-01  2.500000e+00
     vertex  1.100000e+01  5.000000e-01  0.000000e+00
     vertex  7.000000e+00  5.000000e-01  0.000000e+00
   endloop
 endfacet
 facet normal  0.000000e+00  1.000000e+00  0.000000e+00
   outer loop
     vertex  1.100000e+01  5.000000e-01  2.500000e+00
     vertex  7.000000e+00  5.000000e-01  0.000000e+00
     vertex  7.000000e+00  5.000000e-01  2.500000e+00
   endloop
 endfacet
 facet normal -0.000000e+00  0.000000e+00 -1.000000e+00
   outer loop
     vertex  1.100000e+01  5.000000e-01  0.000000e+00
     vertex  7.000000e+00 -5.000000e-01  0.000000e+00
     vertex  7.000000e+00  5.000000e-01  0.000000e+00
   endloop
 endfacet
 facet normal  0.000000e+00 -0.000000e+00 -1.000000e+00
   outer loop
     vertex  1.100000e+01  5.000000e-01  0.000000e+00
     vertex  1.100000e+01 -5.000000e-01  0.000000e+00
     vertex  7.000000e+00 -5.000000e-01  0.000000e+00
   endloop
 endfacet
 facet normal  0.000000e+00  0.000000e+00  1.000000e+00
   outer loop
     vertex  1.100000e+01  5.000000e-01  2.500000e+00
     vertex  7.000000e+00  5.000000e-01  2.500000e+00
     vertex  7.000000e+00 -5.000000e-01  2.500000e+00
   endloop
 endfacet
 facet normal  0.000000e+00  0.000000e+00  1.000000e+00
   outer loop
     vertex  1.100000e+01  5.000000e-01  2.500000e+00
     vertex  7.000000e+00 -5.000000e-01  2.500000e+00
     vertex  1.100000e+01 -5.000000e-01  2.500000e+00
   endloop
 endfacet
 facet normal -1.000000e+00  0.000000e+00  0.000000e+00
   outer loop
     vertex  2.500000e+00 -5.000000e-01  2.500000e+00
     vertex  2.500000e+00  5.000000e-01  0.000000e+00
     vertex  2.500000e+00 -5.000000e-01  0.000000e+00
   endloop
 endfacet
 facet normal -1.000000e+00  0.000000e+00  0.000000e+00
   outer loop
     vertex  2.500000e+00 -5.000000e-01  2.500000e+00
     vertex  2.500000e+00  5.000000e-01  2.500000e+00
     vertex  2.500000e+00  5.000000e-01  0.000000e+00
   endloop
 endfacet
 facet normal  1.000000e+00  0.000000e+00  0.000000e+00
   outer loop
     vertex  5.500000e+00 -5.000000e-01  2.500000e+00
     vertex  5.500000e+00 -5.000000e-01  0.000000e+00
     vertex  5.500000e+00  5.000000e-01  0.000000e+00
   endloop
 endfacet
 facet normal  1.000000e+00 -0.000000e+00  0.000000e+00
   outer loop
     vertex  5.500000e+00 -5.000000e-01  2.500000e+00
     vertex  5.500000e+00  5.000000e-01  0.000000e+00
     vertex  5.500000e+00  5.000000e-01  2.500000e+00
   endloop
 endfacet
 facet normal  0.000000e+00 -1.000000e+00 -0.000000e+00
   outer loop
     vertex  5.500000e+00 -5.000000e-01  2.500000e+00
     vertex  2.500000e+00 -5.000000e-01  0.000000e+00
     vertex  5.500000e+00 -5.000000e-01  0.000000e+00
   endloop
 endfacet
 facet normal -0.000000e+00 -1.000000e+00  0.000000e+00
   outer loop
     vertex  5.500000e+00 -5.000000e-01  2.500000e+00
     vertex  2.500000e+00 -5.000000e-01  2.500000e+00
     vertex  2.500000e+00 -5.000000e-01  0.000000e+00
   endloop
 endfacet
 facet normal  0.000000e+00  1.000000e+00  0.000000e+00
   outer loop
     vertex  5.500000e+00  5.000000e-01  2.500000e+00
     vertex  5.500000e+00  5.000000e-01  0.000000e+00
     vertex  2.500000e+00  5.000000e-01  0.000000e+00
   endloop
 endfacet
 facet normal  0.000000e+00  1.000000e+00  0.000000e+00
   outer loop
     vertex  5.500000e+00  5.000000e-01  2.500000e+00
     vertex  2.500000e+00  5.000000e-01  0.000000e+00
     vertex  2.500000e+00  5.000000e-01  2.500000e+00
   endloop
 endfacet
 facet normal -0.000000e+00  0.000000e+00 -1.000000e+00
   outer loop
     vertex  5.500000e+00  5.000000e-01  0.000000e+00
     vertex  2.500000e+00 -5.000000e-01  0.000000e+00
     vertex  2.500000e+00  5.000000e-01  0.000000e+00
   endloop
 endfacet
 facet normal  0.000000e+00 -0.000000e+00 -1.000000e+00
   outer loop
     vertex  5.500000e+00  5.000000e-01  0.000000e+00
     vertex  5.500000e+00 -5.000000e-01  0.000000e+00
     vertex  2.500000e+00 -5.000000e-01  0.000000e+00
   endloop
 endfacet
 facet normal  0.000000e+00  0.000000e+00  1.000000e+00
   outer loop
     vertex  5.500000e+00  5.000000e-01  2.500000e+00
     vertex  2.500000e+00  5.000000e-01  2.500000e+00
     vertex  2.500000e+00 -5.000000e-01  2.500000e+00
   endloop
 endfacet
 facet normal  0.000000e+00  0.000000e+00  1.000000e+00
   outer loop
     vertex  5.500000e+00  5.000000e-01  2.500000e+00
     vertex  2.500000e+00 -5.000000e-01  2.500000e+00
     vertex  5.500000e+00 -5.000000e-01  2.500000e+00
   endloop
 endfacet
 facet normal -1.000000e+00  0.000000e+00  0.000000e+00
   outer loop
     vertex -1.000000e+00 -5.000000e-01  2.500000e+00
     vertex -1.000000e+00  5.000000e-01  0.000000e+00
     vertex -1.000000e+00 -5.000000e-01  0.000000e+00
   endloop
 endfacet
 facet normal -1.000000e+00  0.000000e+00  0.000000e+00
   outer loop
     vertex -1.000000e+00 -5.000000e-01  2.500000e+00
     vertex -1.000000e+00  5.000000e-01  2.500000e+00
     vertex -1.000000e+00  5.000000e-01  0.000000e+00
   endloop
 endfacet
 facet normal  1.000000e+00  0.000000e+00  0.000000e+00
   outer loop
     vertex  1.000000e+00 -5.000000e-01  2.500000e+00
     vertex  1.000000e+00 -5.000000e-01  0.000000e+00
     vertex  1.000000e+00  5.000000e-01  0.000000e+00
   endloop
 endfacet
 facet normal  1.000000e+00 -0.000000e+00  0.000000e+00
   outer loop
     vertex  1.000000e+00 -5.000000e-01  2.500000e+00
     vertex  1.000000e+00  5.000000e-01  0.000000e+00
     vertex  1.000000e+00  5.000000e-01  2.500000e+00
   endloop
 endfacet
 facet normal  0.000000e+00 -1.000000e+00 -0.000000e+00
   outer loop
     vertex  1.000000e+00 -5.000000e-01  2.500000e+00
     vertex -1.000000e+00 -5.000000e-01  0.000000e+00
     vertex  1.000000e+00 -5.000000e-01  0.000000e+00
   endloop
 endfacet
 facet normal -0.000000e+00 -1.000000e+00  0.000000e+00
   outer loop
     vertex  1.000000e+00 -5.000000e-01  2.500000e+00
     vertex -1.000000e+00 -5.000000e-01  2.500000e+00
     vertex -1.000000e+00 -5.000000e-01  0.000000e+00
   endloop
 endfacet
 facet normal  0.000000e+00  1.000000e+00  0.000000e+00
   outer loop
     vertex  1.000000e+00  5.000000e-01  2.500000e+00
     vertex  1.000000e+00  5.000000e-01  0.000000e+00
     vertex -1.000000e+00  5.000000e-01  0.000000e+00
   endloop
 endfacet
 facet normal  0.000000e+00  1.000000e+00  0.000000e+00
   outer loop
     vertex  1.000000e+00  5.000000e-01  2.500000e+00
     vertex -1.000000e+00  5.000000e-01  0.000000e+00
     vertex -1.000000e+00  5.000000e-01  2.500000e+00
   endloop
 endfacet
 facet normal -0.000000e+00  0.000000e+00 -1.000000e+00
   outer loop
     vertex  1.000000e+00  5.000000e-01  0.000000e+00
     vertex -1.000000e+00 -5.000000e-01  0.000000e+00
     vertex -1.000000e+00  5.000000e-01  0.000000e+00
   endloop
 endfacet
 facet normal  0.000000e+00 -0.000000e+00 -1.000000e+00
   outer loop
     vertex  1.000000e+00  5.000000e-01  0.000000e+00
     vertex  1.000000e+00 -5.000000e-01  0.000000e+00
     vertex -1.000000e+00 -5.000000e-01  0.000000e+00
   endloop
 endfacet
 facet normal  0.000000e+00  0.000000e+00  1.000000e+00
   outer loop
     vertex  1.000000e+00  5.000000e-01  2.500000e+00
     vertex -1.000000e+00  5.000000e-01  2.500000e+00
     vertex -1.000000e+00 -5.000000e-01  2.500000e+00
   endloop
 endfacet
 facet normal  0.000000e+00  0.000000e+00  1.000000e+00
   outer loop
     vertex  1.000000e+00  5.000000e-01  2.500000e+00
     vertex -1.000000e+00 -5.000000e-01  2.500000e+00
     vertex  1.000000e+00 -5.000000e-01  2.500000e+00
   endloop
 endfacet
 facet normal -1.000000e+00  0.000000e+00  0.000000e+00
   outer loop
     vertex -3.500000e+00 -5.000000e-01  2.500000e+00
     vertex -3.500000e+00  5.000000e-01  0.000000e+00
     vertex -3.500000e+00 -5.000000e-01  0.000000e+00
   endloop
 endfacet
 facet normal -1.000000e+00  0.000000e+00  0.000000e+00
   outer loop
     vertex -3.500000e+00 -5.000000e-01  2.500000e+00
     vertex -3.500000e+00  5.000000e-01  2.500000e+00
     vertex -3.500000e+00  5.000000e-01  0.000000e+00
   endloop
 endfacet
 facet normal  0.000000e+00 -1.000000e+00 -0.000000e+00
   outer loop
     vertex -2.500000e+00 -5.000000e-01  2.500000e+00
     vertex -3.500000e+00 -5.000000e-01  0.000000e+00
     vertex -2.500000e+00 -5.000000e-01  0.000000e+00
   endloop
 endfacet
 facet normal -0.000000e+00 -1.000000e+00  0.000000e+00
   outer loop
     vertex -2.500000e+00 -5.000000e-01  2.500000e+00
     vertex -3.500000e+00 -5.000000e-01  2.500000e+00
     vertex -3.500000e+00 -5.000000e-01  0.000000e+00
   endloop
 endfacet
 facet normal  0.000000e+00  0.000000e+00  1.000000e+00
   outer loop
     vertex -2.500000e+00  5.000000e-01  2.500000e+00
     vertex -3.500000e+00  5.000000e-01  2.500000e+00
     vertex -3.500000e+00 -5.000000e-01  2.500000e+00
   endloop
 endfacet
 facet normal  0.000000e+00  0.000000e+00  1.000000e+00
   outer loop
     vertex -2.500000e+00  5.000000e-01  2.500000e+00
     vertex -3.500000e+00 -5.000000e-01  2.500000e+00
     vertex -2.500000e+00 -5.000000e-01  2.500000e+00
   endloop
 endfacet
 facet normal  0.000000e+00  1.000000e+00  0.000000e+00
   outer loop
     vertex -2.500000e+00  5.000000e-01  2.500000e+00
     vertex -2.500000e+00  5.000000e-01  0.000000e+00
     vertex -3.500000e+00  5.000000e-01  0.000000e+00
   endloop
 endfacet
 facet normal  0.000000e+00  1.000000e+00  0.000000e+00
   outer loop
     vertex -2.500000e+00  5.000000e-01  2.500000e+00
     vertex -3.500000e+00  5.000000e-01  0.000000e+00
     vertex -3.500000e+00  5.000000e-01  2.500000e+00
   endloop
 endfacet
 facet normal -0.000000e+00  0.000000e+00 -1.000000e+00
   outer loop
     vertex -2.500000e+00  5.000000e-01  0.000000e+00
     vertex -3.500000e+00 -5.000000e-01  0.000000e+00
     vertex -3.500000e+00  5.000000e-01  0.000000e+00
   endloop
 endfacet
 facet normal  0.000000e+00 -0.000000e+00 -1.000000e+00
   outer loop
     vertex -2.500000e+00  5.000000e-01  0.000000e+00
     vertex -2.500000e+00 -5.000000e-01  0.000000e+00
     vertex -3.500000e+00 -5.000000e-01  0.000000e+00
   endloop
 endfacet
 facet normal  1.000000e+00  0.000000e+00  0.000000e+00
   outer loop
     vertex -2.500000e+00 -5.000000e-01  2.500000e+00
     vertex -2.500000e+00 -5.000000e-01  0.000000e+00
     vertex -2.500000e+00  5.000000e-01  0.000000e+00
   endloop
 endfacet
 facet normal  1.000000e+00 -0.000000e+00  0.000000e+00
   outer loop
     vertex -2.500000e+00 -5.000000e-01  2.500000e+00
     vertex -2.500000e+00  5.000000e-01  0.000000e+00
     vertex -2.500000e+00  5.000000e-01  2.500000e+00
   endloop
 endfacet
endsolid
