solid 
 facet normal  0.000000e+00 -1.000000e+00  0.000000e+00
   outer loop
     vertex  2.542645e+00 -3.600000e+01  1.869680e-01
     vertex -2.542645e+00 -3.600000e+01 -1.869680e-01
     vertex -2.275146e+00 -3.600000e+01 -1.150526e+00
   endloop
 endfacet
 facet normal -0.000000e+00 -1.000000e+00  0.000000e+00
   outer loop
     vertex  2.542645e+00 -3.600000e+01  1.869680e-01
     vertex  2.275146e+00 -3.600000e+01  1.150526e+00
     vertex -2.542645e+00 -3.600000e+01 -1.869680e-01
   endloop
 endfacet
 facet normal  2.674988e-01  5.329071e-17 -9.635582e-01
   outer loop
     vertex  2.542645e+00 -2.600000e+01  1.869680e-01
     vertex -2.275146e+00 -3.600000e+01 -1.150526e+00
     vertex -2.275146e+00 -2.600000e+01 -1.150526e+00
   endloop
 endfacet
 facet normal  2.674988e-01  5.348822e-17 -9.635582e-01
   outer loop
     vertex  2.542645e+00 -2.600000e+01  1.869680e-01
     vertex  2.542645e+00 -3.600000e+01  1.869680e-01
     vertex -2.275146e+00 -3.600000e+01 -1.150526e+00
   endloop
 endfacet
 facet normal  9.635582e-01 -1.187933e-17  2.674988e-01
   outer loop
     vertex  2.275146e+00 -2.600000e+01  1.150526e+00
     vertex  2.275146e+00 -3.600000e+01  1.150526e+00
     vertex  2.542645e+00 -3.600000e+01  1.869680e-01
   endloop
 endfacet
 facet normal  9.635582e-01 -1.110223e-17  2.674988e-01
   outer loop
     vertex  2.275146e+00 -2.600000e+01  1.150526e+00
     vertex  2.542645e+00 -3.600000e+01  1.869680e-01
     vertex  2.542645e+00 -2.600000e+01  1.869680e-01
   endloop
 endfacet
 facet normal -2.674988e-01 -5.329071e-17  9.635582e-01
   outer loop
     vertex  2.275146e+00 -2.600000e+01  1.150526e+00
     vertex -2.542645e+00 -2.600000e+01 -1.869680e-01
     vertex -2.542645e+00 -3.600000e+01 -1.869680e-01
   endloop
 endfacet
 facet normal -2.674988e-01 -4.279058e-17  9.635582e-01
   outer loop
     vertex  2.275146e+00 -2.600000e+01  1.150526e+00
     vertex -2.542645e+00 -3.600000e+01 -1.869680e-01
     vertex  2.275146e+00 -3.600000e+01  1.150526e+00
   endloop
 endfacet
 facet normal -9.635582e-01  1.484917e-17 -2.674988e-01
   outer loop
     vertex -2.542645e+00 -2.600000e+01 -1.869680e-01
     vertex -2.275146e+00 -3.600000e+01 -1.150526e+00
     vertex -2.542645e+00 -3.600000e+01 -1.869680e-01
   endloop
 endfacet
 facet normal -9.635582e-01  1.110223e-17 -2.674988e-01
   outer loop
     vertex -2.542645e+00 -2.600000e+01 -1.869680e-01
     vertex -2.275146e+00 -2.600000e+01 -1.150526e+00
     vertex -2.275146e+00 -3.600000e+01 -1.150526e+00
   endloop
 endfacet
 facet normal  2.674988e-01  7.105427e-17 -9.635582e-01
   outer loop
     vertex  2.542645e+00 -1.600000e+01  1.869680e-01
     vertex -2.275146e+00 -2.600000e+01 -1.150526e+00
     vertex -2.275146e+00 -1.600000e+01 -1.150526e+00
   endloop
 endfacet
 facet normal  2.674988e-01  5.348822e-17 -9.635582e-01
   outer loop
     vertex  2.542645e+00 -1.600000e+01  1.869680e-01
     vertex  2.542645e+00 -2.600000e+01  1.869680e-01
     vertex -2.275146e+00 -2.600000e+01 -1.150526e+00
   endloop
 endfacet
 facet normal  9.635582e-01 -1.781900e-17  2.674988e-01
   outer loop
     vertex  2.275146e+00 -1.600000e+01  1.150526e+00
     vertex  2.275146e+00 -2.600000e+01  1.150526e+00
     vertex  2.542645e+00 -2.600000e+01  1.869680e-01
   endloop
 endfacet
 facet normal  9.635582e-01 -1.665335e-17  2.674988e-01
   outer loop
     vertex  2.275146e+00 -1.600000e+01  1.150526e+00
     vertex  2.542645e+00 -2.600000e+01  1.869680e-01
     vertex  2.542645e+00 -1.600000e+01  1.869680e-01
   endloop
 endfacet
 facet normal -2.674988e-01 -7.105427e-17  9.635582e-01
   outer loop
     vertex  2.275146e+00 -1.600000e+01  1.150526e+00
     vertex -2.542645e+00 -1.600000e+01 -1.869680e-01
     vertex -2.542645e+00 -2.600000e+01 -1.869680e-01
   endloop
 endfacet
 facet normal -2.674988e-01 -6.418587e-17  9.635582e-01
   outer loop
     vertex  2.275146e+00 -1.600000e+01  1.150526e+00
     vertex -2.542645e+00 -2.600000e+01 -1.869680e-01
     vertex  2.275146e+00 -2.600000e+01  1.150526e+00
   endloop
 endfacet
 facet normal -9.635582e-01  1.484917e-17 -2.674988e-01
   outer loop
     vertex -2.542645e+00 -1.600000e+01 -1.869680e-01
     vertex -2.275146e+00 -2.600000e+01 -1.150526e+00
     vertex -2.542645e+00 -2.600000e+01 -1.869680e-01
   endloop
 endfacet
 facet normal -9.635582e-01  1.665335e-17 -2.674988e-01
   outer loop
     vertex -2.542645e+00 -1.600000e+01 -1.869680e-01
     vertex -2.275146e+00 -1.600000e+01 -1.150526e+00
     vertex -2.275146e+00 -2.600000e+01 -1.150526e+00
   endloop
 endfacet
 facet normal  2.674988e-01  8.881784e-17 -9.635582e-01
   outer loop
     vertex  2.542645e+00 -6.000000e+00  1.869680e-01
     vertex -2.275146e+00 -1.600000e+01 -1.150526e+00
     vertex -2.275146e+00 -6.000000e+00 -1.150526e+00
   endloop
 endfacet
 facet normal  2.674988e-01  5.348822e-17 -9.635582e-01
   outer loop
     vertex  2.542645e+00 -6.000000e+00  1.869680e-01
     vertex  2.542645e+00 -1.600000e+01  1.869680e-01
     vertex -2.275146e+00 -1.600000e+01 -1.150526e+00
   endloop
 endfacet
 facet normal  9.635582e-01 -1.781900e-17  2.674988e-01
   outer loop
     vertex  2.275146e+00 -6.000000e+00  1.150526e+00
     vertex  2.275146e+00 -1.600000e+01  1.150526e+00
     vertex  2.542645e+00 -1.600000e+01  1.869680e-01
   endloop
 endfacet
 facet normal  9.635582e-01 -1.110223e-17  2.674988e-01
   outer loop
     vertex  2.275146e+00 -6.000000e+00  1.150526e+00
     vertex  2.542645e+00 -1.600000e+01  1.869680e-01
     vertex  2.542645e+00 -6.000000e+00  1.869680e-01
   endloop
 endfacet
 facet normal -2.674988e-01 -5.329071e-17  9.635582e-01
   outer loop
     vertex  2.275146e+00 -6.000000e+00  1.150526e+00
     vertex -2.542645e+00 -6.000000e+00 -1.869680e-01
     vertex -2.542645e+00 -1.600000e+01 -1.869680e-01
   endloop
 endfacet
 facet normal -2.674988e-01 -6.418587e-17  9.635582e-01
   outer loop
     vertex  2.275146e+00 -6.000000e+00  1.150526e+00
     vertex -2.542645e+00 -1.600000e+01 -1.869680e-01
     vertex  2.275146e+00 -1.600000e+01  1.150526e+00
   endloop
 endfacet
 facet normal -9.635582e-01  1.484917e-17 -2.674988e-01
   outer loop
     vertex -2.542645e+00 -6.000000e+00 -1.869680e-01
     vertex -2.275146e+00 -1.600000e+01 -1.150526e+00
     vertex -2.542645e+00 -1.600000e+01 -1.869680e-01
   endloop
 endfacet
 facet normal -9.635582e-01  1.665335e-17 -2.674988e-01
   outer loop
     vertex -2.542645e+00 -6.000000e+00 -1.869680e-01
     vertex -2.275146e+00 -6.000000e+00 -1.150526e+00
     vertex -2.275146e+00 -1.600000e+01 -1.150526e+00
   endloop
 endfacet
 facet normal  0.000000e+00  1.000000e+00  0.000000e+00
   outer loop
     vertex  2.542645e+00 -6.000000e+00  1.869680e-01
     vertex -2.275146e+00 -6.000000e+00 -1.150526e+00
     vertex -2.542645e+00 -6.000000e+00 -1.869680e-01
   endloop
 endfacet
 facet normal  0.000000e+00  1.000000e+00  0.000000e+00
   outer loop
     vertex  2.542645e+00 -6.000000e+00  1.869680e-01
     vertex -2.542645e+00 -6.000000e+00 -1.869680e-01
     vertex  2.275146e+00 -6.000000e+00  1.150526e+00
   endloop
 endfacet
endsolid
