solid 
 facet normal  0.000000e+00  1.000000e+00  0.000000e+00
   outer loop
     vertex  5.000000e+00  1.500000e+01  4.000000e+00
     vertex  6.000000e+00  1.500000e+01 -6.000000e+00
     vertex  5.000000e+00  1.500000e+01 -6.000000e+00
   endloop
 endfacet
 facet normal -0.000000e+00  1.000000e+00  0.000000e+00
   outer loop
     vertex  5.000000e+00  1.500000e+01  4.000000e+00
     vertex  6.000000e+00  1.500000e+01  4.000000e+00
     vertex  6.000000e+00  1.500000e+01 -6.000000e+00
   endloop
 endfacet
 facet normal -1.000000e+00  0.000000e+00  0.000000e+00
   outer loop
     vertex  5.000000e+00  1.250000e+01  4.000000e+00
     vertex  5.000000e+00  1.500000e+01 -6.000000e+00
     vertex  5.000000e+00  1.250000e+01 -6.000000e+00
   endloop
 endfacet
 facet normal -1.000000e+00  0.000000e+00  0.000000e+00
   outer loop
     vertex  5.000000e+00  1.250000e+01  4.000000e+00
     vertex  5.000000e+00  1.500000e+01  4.000000e+00
     vertex  5.000000e+00  1.500000e+01 -6.000000e+00
   endloop
 endfacet
 facet normal -1.000000e+00  3.552714e-16  0.000000e+00
   outer loop
     vertex  5.000000e+00  7.500000e+00  4.000000e+00
     vertex  5.000000e+00  1.250000e+01 -6.000000e+00
     vertex  5.000000e+00  7.500000e+00 -6.000000e+00
   endloop
 endfacet
 facet normal -1.000000e+00  3.552714e-16  0.000000e+00
   outer loop
     vertex  5.000000e+00  7.500000e+00  4.000000e+00
     vertex  5.000000e+00  1.250000e+01  4.000000e+00
     vertex  5.000000e+00  1.250000e+01 -6.000000e+00
   endloop
 endfacet
 facet normal -1.000000e+00  0.000000e+00  0.000000e+00
   outer loop
     vertex  5.000000e+00  5.000000e+00  4.000000e+00
     vertex  5.000000e+00  7.500000e+00 -6.000000e+00
     vertex  5.000000e+00  5.000000e+00 -6.000000e+00
   endloop
 endfacet
 facet normal -1.000000e+00  0.000000e+00  0.000000e+00
   outer loop
     vertex  5.000000e+00  5.000000e+00  4.000000e+00
     vertex  5.000000e+00  7.500000e+00  4.000000e+00
     vertex  5.000000e+00  7.500000e+00 -6.000000e+00
   endloop
 endfacet
 facet normal  0.000000e+00 -0.000000e+00  1.000000e+00
   outer loop
     vertex  6.000000e+00  1.250000e+01  4.000000e+00
     vertex  6.000000e+00  1.500000e+01  4.000000e+00
     vertex  5.000000e+00  1.500000e+01  4.000000e+00
   endloop
 endfacet
 facet normal  0.000000e+00  0.000000e+00  1.000000e+00
   outer loop
     vertex  6.000000e+00  1.250000e+01  4.000000e+00
     vertex  5.000000e+00  1.500000e+01  4.000000e+00
     vertex  5.000000e+00  1.250000e+01  4.000000e+00
   endloop
 endfacet
 facet normal  1.000000e+00  0.000000e+00  0.000000e+00
   outer loop
     vertex  6.000000e+00  1.250000e+01  4.000000e+00
     vertex  6.000000e+00  1.250000e+01 -6.000000e+00
     vertex  6.000000e+00  1.500000e+01 -6.000000e+00
   endloop
 endfacet
 facet normal  1.000000e+00 -0.000000e+00  0.000000e+00
   outer loop
     vertex  6.000000e+00  1.250000e+01  4.000000e+00
     vertex  6.000000e+00  1.500000e+01 -6.000000e+00
     vertex  6.000000e+00  1.500000e+01  4.000000e+00
   endloop
 endfacet
 facet normal  1.000000e+00 -3.552714e-16  0.000000e+00
   outer loop
     vertex  6.000000e+00  7.500000e+00  4.000000e+00
     vertex  6.000000e+00  7.500000e+00 -6.000000e+00
     vertex  6.000000e+00  1.250000e+01 -6.000000e+00
   endloop
 endfacet
 facet normal  1.000000e+00 -3.552714e-16  0.000000e+00
   outer loop
     vertex  6.000000e+00  7.500000e+00  4.000000e+00
     vertex  6.000000e+00  1.250000e+01 -6.000000e+00
     vertex  6.000000e+00  1.250000e+01  4.000000e+00
   endloop
 endfacet
 facet normal  1.000000e+00  0.000000e+00  0.000000e+00
   outer loop
     vertex  6.000000e+00  5.000000e+00  4.000000e+00
     vertex  6.000000e+00  5.000000e+00 -6.000000e+00
     vertex  6.000000e+00  7.500000e+00 -6.000000e+00
   endloop
 endfacet
 facet normal  1.000000e+00 -0.000000e+00  0.000000e+00
   outer loop
     vertex  6.000000e+00  5.000000e+00  4.000000e+00
     vertex  6.000000e+00  7.500000e+00 -6.000000e+00
     vertex  6.000000e+00  7.500000e+00  4.000000e+00
   endloop
 endfacet
 facet normal  0.000000e+00  0.000000e+00 -1.000000e+00
   outer loop
     vertex  6.000000e+00  1.250000e+01 -6.000000e+00
     vertex  5.000000e+00  1.500000e+01 -6.000000e+00
     vertex  6.000000e+00  1.500000e+01 -6.000000e+00
   endloop
 endfacet
 facet normal  0.000000e+00  0.000000e+00 -1.000000e+00
   outer loop
     vertex  6.000000e+00  1.250000e+01 -6.000000e+00
     vertex  5.000000e+00  1.250000e+01 -6.000000e+00
     vertex  5.000000e+00  1.500000e+01 -6.000000e+00
   endloop
 endfacet
 facet normal -1.000000e+00  5.329071e-16  0.000000e+00
   outer loop
     vertex  5.000000e+00  7.500000e+00 -6.000000e+00
     vertex  5.000000e+00  1.250000e+01 -1.600000e+01
     vertex  5.000000e+00  7.500000e+00 -1.600000e+01
   endloop
 endfacet
 facet normal -1.000000e+00  5.329071e-16  0.000000e+00
   outer loop
     vertex  5.000000e+00  7.500000e+00 -6.000000e+00
     vertex  5.000000e+00  1.250000e+01 -6.000000e+00
     vertex  5.000000e+00  1.250000e+01 -1.600000e+01
   endloop
 endfacet
 facet normal  0.000000e+00  0.000000e+00 -1.000000e+00
   outer loop
     vertex  6.000000e+00  5.000000e+00 -6.000000e+00
     vertex  5.000000e+00  7.500000e+00 -6.000000e+00
     vertex  6.000000e+00  7.500000e+00 -6.000000e+00
   endloop
 endfacet
 facet normal  0.000000e+00  0.000000e+00 -1.000000e+00
   outer loop
     vertex  6.000000e+00  5.000000e+00 -6.000000e+00
     vertex  5.000000e+00  5.000000e+00 -6.000000e+00
     vertex  5.000000e+00  7.500000e+00 -6.000000e+00
   endloop
 endfacet
 facet normal  0.000000e+00 -1.000000e+00  0.000000e+00
   outer loop
     vertex  5.000000e+00  5.000000e+00  4.000000e+00
     vertex  5.000000e+00  5.000000e+00 -6.000000e+00
     vertex  6.000000e+00  5.000000e+00 -6.000000e+00
   endloop
 endfacet
 facet normal  0.000000e+00 -1.000000e+00  0.000000e+00
   outer loop
     vertex  5.000000e+00  5.000000e+00  4.000000e+00
     vertex  6.000000e+00  5.000000e+00 -6.000000e+00
     vertex  6.000000e+00  5.000000e+00  4.000000e+00
   endloop
 endfacet
 facet normal -1.000000e+00  5.329071e-16  0.000000e+00
   outer loop
     vertex  5.000000e+00  7.500000e+00  1.400000e+01
     vertex  5.000000e+00  1.250000e+01  4.000000e+00
     vertex  5.000000e+00  7.500000e+00  4.000000e+00
   endloop
 endfacet
 facet normal -1.000000e+00  5.329071e-16  0.000000e+00
   outer loop
     vertex  5.000000e+00  7.500000e+00  1.400000e+01
     vertex  5.000000e+00  1.250000e+01  1.400000e+01
     vertex  5.000000e+00  1.250000e+01  4.000000e+00
   endloop
 endfacet
 facet normal  0.000000e+00 -0.000000e+00  1.000000e+00
   outer loop
     vertex  6.000000e+00  5.000000e+00  4.000000e+00
     vertex  6.000000e+00  7.500000e+00  4.000000e+00
     vertex  5.000000e+00  7.500000e+00  4.000000e+00
   endloop
 endfacet
 facet normal  0.000000e+00  0.000000e+00  1.000000e+00
   outer loop
     vertex  6.000000e+00  5.000000e+00  4.000000e+00
     vertex  5.000000e+00  7.500000e+00  4.000000e+00
     vertex  5.000000e+00  5.000000e+00  4.000000e+00
   endloop
 endfacet
 facet normal  0.000000e+00  1.000000e+00  0.000000e+00
   outer loop
     vertex  5.000000e+00  1.250000e+01  1.400000e+01
     vertex  6.000000e+00  1.250000e+01  4.000000e+00
     vertex  5.000000e+00  1.250000e+01  4.000000e+00
   endloop
 endfacet
 facet normal -0.000000e+00  1.000000e+00  0.000000e+00
   outer loop
     vertex  5.000000e+00  1.250000e+01  1.400000e+01
     vertex  6.000000e+00  1.250000e+01  1.400000e+01
     vertex  6.000000e+00  1.250000e+01  4.000000e+00
   endloop
 endfacet
 facet normal  1.000000e+00 -5.329071e-16  0.000000e+00
   outer loop
     vertex  6.000000e+00  7.500000e+00 -6.000000e+00
     vertex  6.000000e+00  7.500000e+00 -1.600000e+01
     vertex  6.000000e+00  1.250000e+01 -1.600000e+01
   endloop
 endfacet
 facet normal  1.000000e+00 -5.329071e-16  0.000000e+00
   outer loop
     vertex  6.000000e+00  7.500000e+00 -6.000000e+00
     vertex  6.000000e+00  1.250000e+01 -1.600000e+01
     vertex  6.000000e+00  1.250000e+01 -6.000000e+00
   endloop
 endfacet
 facet normal  1.000000e+00 -5.329071e-16  0.000000e+00
   outer loop
     vertex  6.000000e+00  7.500000e+00  1.400000e+01
     vertex  6.000000e+00  7.500000e+00  4.000000e+00
     vertex  6.000000e+00  1.250000e+01  4.000000e+00
   endloop
 endfacet
 facet normal  1.000000e+00 -5.329071e-16  0.000000e+00
   outer loop
     vertex  6.000000e+00  7.500000e+00  1.400000e+01
     vertex  6.000000e+00  1.250000e+01  4.000000e+00
     vertex  6.000000e+00  1.250000e+01  1.400000e+01
   endloop
 endfacet
 facet normal  0.000000e+00  1.000000e+00  0.000000e+00
   outer loop
     vertex  5.000000e+00  1.250000e+01 -6.000000e+00
     vertex  6.000000e+00  1.250000e+01 -1.600000e+01
     vertex  5.000000e+00  1.250000e+01 -1.600000e+01
   endloop
 endfacet
 facet normal -0.000000e+00  1.000000e+00  0.000000e+00
   outer loop
     vertex  5.000000e+00  1.250000e+01 -6.000000e+00
     vertex  6.000000e+00  1.250000e+01 -6.000000e+00
     vertex  6.000000e+00  1.250000e+01 -1.600000e+01
   endloop
 endfacet
 facet normal  0.000000e+00  0.000000e+00 -1.000000e+00
   outer loop
     vertex  6.000000e+00  7.500000e+00 -1.600000e+01
     vertex  5.000000e+00  1.250000e+01 -1.600000e+01
     vertex  6.000000e+00  1.250000e+01 -1.600000e+01
   endloop
 endfacet
 facet normal  0.000000e+00  0.000000e+00 -1.000000e+00
   outer loop
     vertex  6.000000e+00  7.500000e+00 -1.600000e+01
     vertex  5.000000e+00  7.500000e+00 -1.600000e+01
     vertex  5.000000e+00  1.250000e+01 -1.600000e+01
   endloop
 endfacet
 facet normal  0.000000e+00 -1.000000e+00  0.000000e+00
   outer loop
     vertex  5.000000e+00  7.500000e+00 -6.000000e+00
     vertex  5.000000e+00  7.500000e+00 -1.600000e+01
     vertex  6.000000e+00  7.500000e+00 -1.600000e+01
   endloop
 endfacet
 facet normal  0.000000e+00 -1.000000e+00  0.000000e+00
   outer loop
     vertex  5.000000e+00  7.500000e+00 -6.000000e+00
     vertex  6.000000e+00  7.500000e+00 -1.600000e+01
     vertex  6.000000e+00  7.500000e+00 -6.000000e+00
   endloop
 endfacet
 facet normal  0.000000e+00 -1.000000e+00  0.000000e+00
   outer loop
     vertex  5.000000e+00  7.500000e+00  1.400000e+01
     vertex  5.000000e+00  7.500000e+00  4.000000e+00
     vertex  6.000000e+00  7.500000e+00  4.000000e+00
   endloop
 endfacet
 facet normal  0.000000e+00 -1.000000e+00  0.000000e+00
   outer loop
     vertex  5.000000e+00  7.500000e+00  1.400000e+01
     vertex  6.000000e+00  7.500000e+00  4.000000e+00
     vertex  6.000000e+00  7.500000e+00  1.400000e+01
   endloop
 endfacet
 facet normal  0.000000e+00 -0.000000e+00  1.000000e+00
   outer loop
     vertex  6.000000e+00  7.500000e+00  1.400000e+01
     vertex  6.000000e+00  1.250000e+01  1.400000e+01
     vertex  5.000000e+00  1.250000e+01  1.400000e+01
   endloop
 endfacet
 facet normal  0.000000e+00  0.000000e+00  1.000000e+00
   outer loop
     vertex  6.000000e+00  7.500000e+00  1.400000e+01
     vertex  5.000000e+00  1.250000e+01  1.400000e+01
     vertex  5.000000e+00  7.500000e+00  1.400000e+01
   endloop
 endfacet
endsolid
