solid 
 facet normal  0.000000e+00  0.000000e+00 -1.000000e+00
   outer loop
     vertex  4.000000e+00 -1.500000e+00  0.000000e+00
     vertex  4.000000e+00  6.500000e+00  0.000000e+00
     vertex  5.000000e+00  6.500000e+00  0.000000e+00
   endloop
 endfacet
 facet normal  0.000000e+00  0.000000e+00 -1.000000e+00
   outer loop
     vertex  5.000000e+00 -5.500000e+00  0.000000e+00
     vertex  4.000000e+00 -2.500000e+00  0.000000e+00
     vertex  4.000000e+00 -1.500000e+00  0.000000e+00
   endloop
 endfacet
 facet normal  0.000000e+00  0.000000e+00 -1.000000e+00
   outer loop
     vertex  5.000000e+00 -5.500000e+00  0.000000e+00
     vertex  4.000000e+00 -5.500000e+00  0.000000e+00
     vertex  4.000000e+00 -2.500000e+00  0.000000e+00
   endloop
 endfacet
 facet normal  0.000000e+00  0.000000e+00 -1.000000e+00
   outer loop
     vertex  5.000000e+00 -5.500000e+00  0.000000e+00
     vertex  4.000000e+00 -1.500000e+00  0.000000e+00
     vertex  5.000000e+00  6.500000e+00  0.000000e+00
   endloop
 endfacet
 facet normal  0.000000e+00  0.000000e+00 -1.000000e+00
   outer loop
     vertex  4.000000e+00  6.500000e+00  0.000000e+00
     vertex -4.000000e+00  6.500000e+00  0.000000e+00
     vertex -4.000000e+00  7.500000e+00  0.000000e+00
   endloop
 endfacet
 facet normal  0.000000e+00 -0.000000e+00 -1.000000e+00
   outer loop
     vertex  5.000000e+00  7.500000e+00  0.000000e+00
     vertex  5.000000e+00  6.500000e+00  0.000000e+00
     vertex  4.000000e+00  6.500000e+00  0.000000e+00
   endloop
 endfacet
 facet normal -0.000000e+00  0.000000e+00 -1.000000e+00
   outer loop
     vertex  5.000000e+00  7.500000e+00  0.000000e+00
     vertex  4.000000e+00  6.500000e+00  0.000000e+00
     vertex -4.000000e+00  7.500000e+00  0.000000e+00
   endloop
 endfacet
 facet normal  1.000000e+00 -7.401487e-17  0.000000e+00
   outer loop
     vertex  5.000000e+00 -5.500000e+00  5.000000e+00
     vertex  5.000000e+00 -5.500000e+00  0.000000e+00
     vertex  5.000000e+00  6.500000e+00  0.000000e+00
   endloop
 endfacet
 facet normal  1.000000e+00 -7.401487e-17  0.000000e+00
   outer loop
     vertex  5.000000e+00 -5.500000e+00  5.000000e+00
     vertex  5.000000e+00  6.500000e+00  0.000000e+00
     vertex  5.000000e+00  6.500000e+00  5.000000e+00
   endloop
 endfacet
 facet normal  0.000000e+00  0.000000e+00 -1.000000e+00
   outer loop
     vertex  5.000000e+00 -6.500000e+00  0.000000e+00
     vertex  4.000000e+00 -6.500000e+00  0.000000e+00
     vertex  4.000000e+00 -5.500000e+00  0.000000e+00
   endloop
 endfacet
 facet normal -0.000000e+00  0.000000e+00 -1.000000e+00
   outer loop
     vertex  5.000000e+00 -5.500000e+00  0.000000e+00
     vertex  5.000000e+00 -6.500000e+00  0.000000e+00
     vertex  4.000000e+00 -5.500000e+00  0.000000e+00
   endloop
 endfacet
 facet normal -1.000000e+00  1.480297e-16  0.000000e+00
   outer loop
     vertex  4.000000e+00 -5.500000e+00  5.000000e+00
     vertex  4.000000e+00 -2.500000e+00  0.000000e+00
     vertex  4.000000e+00 -5.500000e+00  0.000000e+00
   endloop
 endfacet
 facet normal -1.000000e+00  1.480297e-16  0.000000e+00
   outer loop
     vertex  4.000000e+00 -5.500000e+00  5.000000e+00
     vertex  4.000000e+00 -2.500000e+00  5.000000e+00
     vertex  4.000000e+00 -2.500000e+00  0.000000e+00
   endloop
 endfacet
 facet normal  0.000000e+00  0.000000e+00 -1.000000e+00
   outer loop
     vertex  4.000000e+00 -2.500000e+00  0.000000e+00
     vertex -4.000000e+00 -2.500000e+00  0.000000e+00
     vertex -4.000000e+00 -1.500000e+00  0.000000e+00
   endloop
 endfacet
 facet normal -0.000000e+00 -0.000000e+00 -1.000000e+00
   outer loop
     vertex  4.000000e+00 -1.500000e+00  0.000000e+00
     vertex  4.000000e+00 -2.500000e+00  0.000000e+00
     vertex -4.000000e+00 -1.500000e+00  0.000000e+00
   endloop
 endfacet
 facet normal -1.000000e+00  2.220446e-16  0.000000e+00
   outer loop
     vertex  4.000000e+00 -1.500000e+00  5.000000e+00
     vertex  4.000000e+00  6.500000e+00  0.000000e+00
     vertex  4.000000e+00 -1.500000e+00  0.000000e+00
   endloop
 endfacet
 facet normal -1.000000e+00  2.220446e-16  0.000000e+00
   outer loop
     vertex  4.000000e+00 -1.500000e+00  5.000000e+00
     vertex  4.000000e+00  6.500000e+00  5.000000e+00
     vertex  4.000000e+00  6.500000e+00  0.000000e+00
   endloop
 endfacet
 facet normal  0.000000e+00  1.000000e+00  0.000000e+00
   outer loop
     vertex  5.000000e+00  7.500000e+00  5.000000e+00
     vertex  5.000000e+00  7.500000e+00  0.000000e+00
     vertex -4.000000e+00  7.500000e+00  0.000000e+00
   endloop
 endfacet
 facet normal  0.000000e+00  1.000000e+00  0.000000e+00
   outer loop
     vertex  5.000000e+00  7.500000e+00  5.000000e+00
     vertex -4.000000e+00  7.500000e+00  0.000000e+00
     vertex -4.000000e+00  7.500000e+00  5.000000e+00
   endloop
 endfacet
 facet normal  1.000000e+00  8.881784e-16  0.000000e+00
   outer loop
     vertex  5.000000e+00  6.500000e+00  5.000000e+00
     vertex  5.000000e+00  6.500000e+00  0.000000e+00
     vertex  5.000000e+00  7.500000e+00  0.000000e+00
   endloop
 endfacet
 facet normal  1.000000e+00  8.881784e-16  0.000000e+00
   outer loop
     vertex  5.000000e+00  6.500000e+00  5.000000e+00
     vertex  5.000000e+00  7.500000e+00  0.000000e+00
     vertex  5.000000e+00  7.500000e+00  5.000000e+00
   endloop
 endfacet
 facet normal  0.000000e+00 -1.000000e+00 -0.000000e+00
   outer loop
     vertex  4.000000e+00  6.500000e+00  5.000000e+00
     vertex -4.000000e+00  6.500000e+00  0.000000e+00
     vertex  4.000000e+00  6.500000e+00  0.000000e+00
   endloop
 endfacet
 facet normal -0.000000e+00 -1.000000e+00  0.000000e+00
   outer loop
     vertex  4.000000e+00  6.500000e+00  5.000000e+00
     vertex -4.000000e+00  6.500000e+00  5.000000e+00
     vertex -4.000000e+00  6.500000e+00  0.000000e+00
   endloop
 endfacet
 facet normal  0.000000e+00  0.000000e+00 -1.000000e+00
   outer loop
     vertex -4.000000e+00  6.500000e+00  0.000000e+00
     vertex -5.000000e+00  7.500000e+00  0.000000e+00
     vertex -4.000000e+00  7.500000e+00  0.000000e+00
   endloop
 endfacet
 facet normal  0.000000e+00  0.000000e+00 -1.000000e+00
   outer loop
     vertex -4.000000e+00  6.500000e+00  0.000000e+00
     vertex -5.000000e+00  6.500000e+00  0.000000e+00
     vertex -5.000000e+00  7.500000e+00  0.000000e+00
   endloop
 endfacet
 facet normal  1.000000e+00 -8.881784e-16  0.000000e+00
   outer loop
     vertex  5.000000e+00 -6.500000e+00  5.000000e+00
     vertex  5.000000e+00 -6.500000e+00  0.000000e+00
     vertex  5.000000e+00 -5.500000e+00  0.000000e+00
   endloop
 endfacet
 facet normal  1.000000e+00 -8.881784e-16  0.000000e+00
   outer loop
     vertex  5.000000e+00 -6.500000e+00  5.000000e+00
     vertex  5.000000e+00 -5.500000e+00  0.000000e+00
     vertex  5.000000e+00 -5.500000e+00  5.000000e+00
   endloop
 endfacet
 facet normal  0.000000e+00  0.000000e+00  1.000000e+00
   outer loop
     vertex  4.000000e+00 -1.500000e+00  5.000000e+00
     vertex  5.000000e+00  6.500000e+00  5.000000e+00
     vertex  4.000000e+00  6.500000e+00  5.000000e+00
   endloop
 endfacet
 facet normal  0.000000e+00  0.000000e+00  1.000000e+00
   outer loop
     vertex  5.000000e+00 -5.500000e+00  5.000000e+00
     vertex  4.000000e+00 -1.500000e+00  5.000000e+00
     vertex  4.000000e+00 -2.500000e+00  5.000000e+00
   endloop
 endfacet
 facet normal  0.000000e+00  0.000000e+00  1.000000e+00
   outer loop
     vertex  5.000000e+00 -5.500000e+00  5.000000e+00
     vertex  4.000000e+00 -2.500000e+00  5.000000e+00
     vertex  4.000000e+00 -5.500000e+00  5.000000e+00
   endloop
 endfacet
 facet normal  0.000000e+00 -0.000000e+00  1.000000e+00
   outer loop
     vertex  5.000000e+00 -5.500000e+00  5.000000e+00
     vertex  5.000000e+00  6.500000e+00  5.000000e+00
     vertex  4.000000e+00 -1.500000e+00  5.000000e+00
   endloop
 endfacet
 facet normal -0.000000e+00  0.000000e+00 -1.000000e+00
   outer loop
     vertex -4.000000e+00 -5.500000e+00  0.000000e+00
     vertex -5.000000e+00 -6.500000e+00  0.000000e+00
     vertex -5.000000e+00 -5.500000e+00  0.000000e+00
   endloop
 endfacet
 facet normal  0.000000e+00  0.000000e+00 -1.000000e+00
   outer loop
     vertex  4.000000e+00 -6.500000e+00  0.000000e+00
     vertex -5.000000e+00 -6.500000e+00  0.000000e+00
     vertex -4.000000e+00 -5.500000e+00  0.000000e+00
   endloop
 endfacet
 facet normal -0.000000e+00  0.000000e+00 -1.000000e+00
   outer loop
     vertex  4.000000e+00 -5.500000e+00  0.000000e+00
     vertex  4.000000e+00 -6.500000e+00  0.000000e+00
     vertex -4.000000e+00 -5.500000e+00  0.000000e+00
   endloop
 endfacet
 facet normal  0.000000e+00 -1.000000e+00 -0.000000e+00
   outer loop
     vertex  5.000000e+00 -6.500000e+00  5.000000e+00
     vertex  4.000000e+00 -6.500000e+00  0.000000e+00
     vertex  5.000000e+00 -6.500000e+00  0.000000e+00
   endloop
 endfacet
 facet normal -0.000000e+00 -1.000000e+00  0.000000e+00
   outer loop
     vertex  5.000000e+00 -6.500000e+00  5.000000e+00
     vertex  4.000000e+00 -6.500000e+00  5.000000e+00
     vertex  4.000000e+00 -6.500000e+00  0.000000e+00
   endloop
 endfacet
 facet normal  0.000000e+00  1.000000e+00  0.000000e+00
   outer loop
     vertex  4.000000e+00 -5.500000e+00  5.000000e+00
     vertex  4.000000e+00 -5.500000e+00  0.000000e+00
     vertex -4.000000e+00 -5.500000e+00  0.000000e+00
   endloop
 endfacet
 facet normal  0.000000e+00  1.000000e+00  0.000000e+00
   outer loop
     vertex  4.000000e+00 -5.500000e+00  5.000000e+00
     vertex -4.000000e+00 -5.500000e+00  0.000000e+00
     vertex -4.000000e+00 -5.500000e+00  5.000000e+00
   endloop
 endfacet
 facet normal  0.000000e+00 -1.000000e+00 -0.000000e+00
   outer loop
     vertex  4.000000e+00 -2.500000e+00  5.000000e+00
     vertex -4.000000e+00 -2.500000e+00  0.000000e+00
     vertex  4.000000e+00 -2.500000e+00  0.000000e+00
   endloop
 endfacet
 facet normal -0.000000e+00 -1.000000e+00  0.000000e+00
   outer loop
     vertex  4.000000e+00 -2.500000e+00  5.000000e+00
     vertex -4.000000e+00 -2.500000e+00  5.000000e+00
     vertex -4.000000e+00 -2.500000e+00  0.000000e+00
   endloop
 endfacet
 facet normal  0.000000e+00  0.000000e+00 -1.000000e+00
   outer loop
     vertex -4.000000e+00 -1.500000e+00  0.000000e+00
     vertex -5.000000e+00  6.500000e+00  0.000000e+00
     vertex -4.000000e+00  6.500000e+00  0.000000e+00
   endloop
 endfacet
 facet normal  0.000000e+00  0.000000e+00 -1.000000e+00
   outer loop
     vertex -5.000000e+00 -5.500000e+00  0.000000e+00
     vertex -4.000000e+00 -1.500000e+00  0.000000e+00
     vertex -4.000000e+00 -2.500000e+00  0.000000e+00
   endloop
 endfacet
 facet normal  0.000000e+00  0.000000e+00 -1.000000e+00
   outer loop
     vertex -5.000000e+00 -5.500000e+00  0.000000e+00
     vertex -5.000000e+00  6.500000e+00  0.000000e+00
     vertex -4.000000e+00 -1.500000e+00  0.000000e+00
   endloop
 endfacet
 facet normal  0.000000e+00  0.000000e+00 -1.000000e+00
   outer loop
     vertex -4.000000e+00 -5.500000e+00  0.000000e+00
     vertex -5.000000e+00 -5.500000e+00  0.000000e+00
     vertex -4.000000e+00 -2.500000e+00  0.000000e+00
   endloop
 endfacet
 facet normal  0.000000e+00  1.000000e+00  0.000000e+00
   outer loop
     vertex  4.000000e+00 -1.500000e+00  5.000000e+00
     vertex  4.000000e+00 -1.500000e+00  0.000000e+00
     vertex -4.000000e+00 -1.500000e+00  0.000000e+00
   endloop
 endfacet
 facet normal  0.000000e+00  1.000000e+00  0.000000e+00
   outer loop
     vertex  4.000000e+00 -1.500000e+00  5.000000e+00
     vertex -4.000000e+00 -1.500000e+00  0.000000e+00
     vertex -4.000000e+00 -1.500000e+00  5.000000e+00
   endloop
 endfacet
 facet normal  0.000000e+00  0.000000e+00  1.000000e+00
   outer loop
     vertex  4.000000e+00  6.500000e+00  5.000000e+00
     vertex -4.000000e+00  7.500000e+00  5.000000e+00
     vertex -4.000000e+00  6.500000e+00  5.000000e+00
   endloop
 endfacet
 facet normal  0.000000e+00  0.000000e+00  1.000000e+00
   outer loop
     vertex  5.000000e+00  7.500000e+00  5.000000e+00
     vertex  4.000000e+00  6.500000e+00  5.000000e+00
     vertex  5.000000e+00  6.500000e+00  5.000000e+00
   endloop
 endfacet
 facet normal  0.000000e+00  0.000000e+00  1.000000e+00
   outer loop
     vertex  5.000000e+00  7.500000e+00  5.000000e+00
     vertex -4.000000e+00  7.500000e+00  5.000000e+00
     vertex  4.000000e+00  6.500000e+00  5.000000e+00
   endloop
 endfacet
 facet normal  0.000000e+00  1.000000e+00  0.000000e+00
   outer loop
     vertex -5.000000e+00  7.500000e+00  5.000000e+00
     vertex -4.000000e+00  7.500000e+00  0.000000e+00
     vertex -5.000000e+00  7.500000e+00  0.000000e+00
   endloop
 endfacet
 facet normal -0.000000e+00  1.000000e+00  0.000000e+00
   outer loop
     vertex -5.000000e+00  7.500000e+00  5.000000e+00
     vertex -4.000000e+00  7.500000e+00  5.000000e+00
     vertex -4.000000e+00  7.500000e+00  0.000000e+00
   endloop
 endfacet
 facet normal  1.000000e+00 -1.110223e-16  0.000000e+00
   outer loop
     vertex -4.000000e+00 -1.500000e+00  5.000000e+00
     vertex -4.000000e+00 -1.500000e+00  0.000000e+00
     vertex -4.000000e+00  6.500000e+00  0.000000e+00
   endloop
 endfacet
 facet normal  1.000000e+00 -1.110223e-16  0.000000e+00
   outer loop
     vertex -4.000000e+00 -1.500000e+00  5.000000e+00
     vertex -4.000000e+00  6.500000e+00  0.000000e+00
     vertex -4.000000e+00  6.500000e+00  5.000000e+00
   endloop
 endfacet
 facet normal -1.000000e+00  8.881784e-16  0.000000e+00
   outer loop
     vertex -5.000000e+00  6.500000e+00  5.000000e+00
     vertex -5.000000e+00  7.500000e+00  0.000000e+00
     vertex -5.000000e+00  6.500000e+00  0.000000e+00
   endloop
 endfacet
 facet normal -1.000000e+00  8.881784e-16  0.000000e+00
   outer loop
     vertex -5.000000e+00  6.500000e+00  5.000000e+00
     vertex -5.000000e+00  7.500000e+00  5.000000e+00
     vertex -5.000000e+00  7.500000e+00  0.000000e+00
   endloop
 endfacet
 facet normal  0.000000e+00  0.000000e+00  1.000000e+00
   outer loop
     vertex  5.000000e+00 -6.500000e+00  5.000000e+00
     vertex  4.000000e+00 -5.500000e+00  5.000000e+00
     vertex  4.000000e+00 -6.500000e+00  5.000000e+00
   endloop
 endfacet
 facet normal  0.000000e+00  0.000000e+00  1.000000e+00
   outer loop
     vertex  5.000000e+00 -5.500000e+00  5.000000e+00
     vertex  4.000000e+00 -5.500000e+00  5.000000e+00
     vertex  5.000000e+00 -6.500000e+00  5.000000e+00
   endloop
 endfacet
 facet normal  0.000000e+00  0.000000e+00  1.000000e+00
   outer loop
     vertex  4.000000e+00 -2.500000e+00  5.000000e+00
     vertex -4.000000e+00 -1.500000e+00  5.000000e+00
     vertex -4.000000e+00 -2.500000e+00  5.000000e+00
   endloop
 endfacet
 facet normal  0.000000e+00  0.000000e+00  1.000000e+00
   outer loop
     vertex  4.000000e+00 -1.500000e+00  5.000000e+00
     vertex -4.000000e+00 -1.500000e+00  5.000000e+00
     vertex  4.000000e+00 -2.500000e+00  5.000000e+00
   endloop
 endfacet
 facet normal -1.000000e+00 -8.881784e-16 -0.000000e+00
   outer loop
     vertex -5.000000e+00 -6.500000e+00  5.000000e+00
     vertex -5.000000e+00 -5.500000e+00  0.000000e+00
     vertex -5.000000e+00 -6.500000e+00  0.000000e+00
   endloop
 endfacet
 facet normal -1.000000e+00 -8.881784e-16  0.000000e+00
   outer loop
     vertex -5.000000e+00 -6.500000e+00  5.000000e+00
     vertex -5.000000e+00 -5.500000e+00  5.000000e+00
     vertex -5.000000e+00 -5.500000e+00  0.000000e+00
   endloop
 endfacet
 facet normal  0.000000e+00 -1.000000e+00 -0.000000e+00
   outer loop
     vertex  4.000000e+00 -6.500000e+00  5.000000e+00
     vertex -5.000000e+00 -6.500000e+00  0.000000e+00
     vertex  4.000000e+00 -6.500000e+00  0.000000e+00
   endloop
 endfacet
 facet normal -0.000000e+00 -1.000000e+00  0.000000e+00
   outer loop
     vertex  4.000000e+00 -6.500000e+00  5.000000e+00
     vertex -5.000000e+00 -6.500000e+00  5.000000e+00
     vertex -5.000000e+00 -6.500000e+00  0.000000e+00
   endloop
 endfacet
 facet normal  0.000000e+00  0.000000e+00  1.000000e+00
   outer loop
     vertex -4.000000e+00 -5.500000e+00  5.000000e+00
     vertex -5.000000e+00 -5.500000e+00  5.000000e+00
     vertex -5.000000e+00 -6.500000e+00  5.000000e+00
   endloop
 endfacet
 facet normal  0.000000e+00  0.000000e+00  1.000000e+00
   outer loop
     vertex  4.000000e+00 -6.500000e+00  5.000000e+00
     vertex -4.000000e+00 -5.500000e+00  5.000000e+00
     vertex -5.000000e+00 -6.500000e+00  5.000000e+00
   endloop
 endfacet
 facet normal  0.000000e+00  0.000000e+00  1.000000e+00
   outer loop
     vertex  4.000000e+00 -5.500000e+00  5.000000e+00
     vertex -4.000000e+00 -5.500000e+00  5.000000e+00
     vertex  4.000000e+00 -6.500000e+00  5.000000e+00
   endloop
 endfacet
 facet normal  1.000000e+00 -5.921189e-16  0.000000e+00
   outer loop
     vertex -4.000000e+00 -5.500000e+00  5.000000e+00
     vertex -4.000000e+00 -5.500000e+00  0.000000e+00
     vertex -4.000000e+00 -2.500000e+00  0.000000e+00
   endloop
 endfacet
 facet normal  1.000000e+00 -5.921189e-16  0.000000e+00
   outer loop
     vertex -4.000000e+00 -5.500000e+00  5.000000e+00
     vertex -4.000000e+00 -2.500000e+00  0.000000e+00
     vertex -4.000000e+00 -2.500000e+00  5.000000e+00
   endloop
 endfacet
 facet normal -1.000000e+00  7.401487e-17  0.000000e+00
   outer loop
     vertex -5.000000e+00 -5.500000e+00  5.000000e+00
     vertex -5.000000e+00  6.500000e+00  0.000000e+00
     vertex -5.000000e+00 -5.500000e+00  0.000000e+00
   endloop
 endfacet
 facet normal -1.000000e+00  7.401487e-17  0.000000e+00
   outer loop
     vertex -5.000000e+00 -5.500000e+00  5.000000e+00
     vertex -5.000000e+00  6.500000e+00  5.000000e+00
     vertex -5.000000e+00  6.500000e+00  0.000000e+00
   endloop
 endfacet
 facet normal  0.000000e+00 -0.000000e+00  1.000000e+00
   outer loop
     vertex -4.000000e+00  6.500000e+00  5.000000e+00
     vertex -4.000000e+00  7.500000e+00  5.000000e+00
     vertex -5.000000e+00  7.500000e+00  5.000000e+00
   endloop
 endfacet
 facet normal  0.000000e+00  0.000000e+00  1.000000e+00
   outer loop
     vertex -4.000000e+00  6.500000e+00  5.000000e+00
     vertex -5.000000e+00  7.500000e+00  5.000000e+00
     vertex -5.000000e+00  6.500000e+00  5.000000e+00
   endloop
 endfacet
 facet normal  0.000000e+00 -0.000000e+00  1.000000e+00
   outer loop
     vertex -4.000000e+00 -1.500000e+00  5.000000e+00
     vertex -4.000000e+00  6.500000e+00  5.000000e+00
     vertex -5.000000e+00  6.500000e+00  5.000000e+00
   endloop
 endfacet
 facet normal  0.000000e+00  0.000000e+00  1.000000e+00
   outer loop
     vertex -5.000000e+00 -5.500000e+00  5.000000e+00
     vertex -4.000000e+00 -2.500000e+00  5.000000e+00
     vertex -4.000000e+00 -1.500000e+00  5.000000e+00
   endloop
 endfacet
 facet normal  0.000000e+00  0.000000e+00  1.000000e+00
   outer loop
     vertex -5.000000e+00 -5.500000e+00  5.000000e+00
     vertex -4.000000e+00 -1.500000e+00  5.000000e+00
     vertex -5.000000e+00  6.500000e+00  5.000000e+00
   endloop
 endfacet
 facet normal  0.000000e+00 -0.000000e+00  1.000000e+00
   outer loop
     vertex -4.000000e+00 -5.500000e+00  5.000000e+00
     vertex -4.000000e+00 -2.500000e+00  5.000000e+00
     vertex -5.000000e+00 -5.500000e+00  5.000000e+00
   endloop
 endfacet
endsolid
