solid 
 facet normal -4.114324e-01  2.339784e-01 -8.808958e-01
   outer loop
     vertex  2.840481e-01  9.594999e+00 -8.936180e+00
     vertex -8.518784e+00  5.889524e+00 -5.808944e+00
     vertex -8.682363e+00  6.821363e+00 -5.485033e+00
   endloop
 endfacet
 facet normal -4.114324e-01  2.339784e-01 -8.808958e-01
   outer loop
     vertex  2.840481e-01  9.594999e+00 -8.936180e+00
     vertex  4.476271e-01  8.663160e+00 -9.260091e+00
     vertex -8.518784e+00  5.889524e+00 -5.808944e+00
   endloop
 endfacet
 facet normal -1.635790e-01  9.318388e-01  3.239111e-01
   outer loop
     vertex -5.280239e+00  6.067516e+00 -1.598226e+00
     vertex -8.682363e+00  6.821363e+00 -5.485033e+00
     vertex -6.625201e+00  5.651471e+00 -1.080554e+00
   endloop
 endfacet
 facet normal -1.635790e-01  9.318388e-01  3.239111e-01
   outer loop
     vertex -7.970336e-01  7.454334e+00 -3.323800e+00
     vertex  2.840481e-01  9.594999e+00 -8.936180e+00
     vertex -8.682363e+00  6.821363e+00 -5.485033e+00
   endloop
 endfacet
 facet normal -1.635790e-01  9.318388e-01  3.239111e-01
   outer loop
     vertex -7.970336e-01  7.454334e+00 -3.323800e+00
     vertex -8.682363e+00  6.821363e+00 -5.485033e+00
     vertex -5.280239e+00  6.067516e+00 -1.598226e+00
   endloop
 endfacet
 facet normal -1.635790e-01  9.318388e-01  3.239111e-01
   outer loop
     vertex  2.341210e+00  8.425106e+00 -4.531701e+00
     vertex  2.840481e-01  9.594999e+00 -8.936180e+00
     vertex -7.970336e-01  7.454334e+00 -3.323800e+00
   endloop
 endfacet
 facet normal  8.966411e-01  2.773636e-01 -3.451147e-01
   outer loop
     vertex  2.504789e+00  7.493268e+00 -4.855612e+00
     vertex  4.476271e-01  8.663160e+00 -9.260091e+00
     vertex  2.840481e-01  9.594999e+00 -8.936180e+00
   endloop
 endfacet
 facet normal  8.966411e-01  2.773636e-01 -3.451147e-01
   outer loop
     vertex  2.504789e+00  7.493268e+00 -4.855612e+00
     vertex  2.840481e-01  9.594999e+00 -8.936180e+00
     vertex  2.341210e+00  8.425106e+00 -4.531701e+00
   endloop
 endfacet
 facet normal  1.635790e-01 -9.318388e-01 -3.239111e-01
   outer loop
     vertex -5.116660e+00  5.135677e+00 -1.922137e+00
     vertex -6.461622e+00  4.719632e+00 -1.404465e+00
     vertex -8.518784e+00  5.889524e+00 -5.808944e+00
   endloop
 endfacet
 facet normal  1.635790e-01 -9.318388e-01 -3.239111e-01
   outer loop
     vertex -6.334546e-01  6.522495e+00 -3.647711e+00
     vertex -8.518784e+00  5.889524e+00 -5.808944e+00
     vertex  4.476271e-01  8.663160e+00 -9.260091e+00
   endloop
 endfacet
 facet normal  1.635790e-01 -9.318388e-01 -3.239111e-01
   outer loop
     vertex -6.334546e-01  6.522495e+00 -3.647711e+00
     vertex -5.116660e+00  5.135677e+00 -1.922137e+00
     vertex -8.518784e+00  5.889524e+00 -5.808944e+00
   endloop
 endfacet
 facet normal  1.635790e-01 -9.318388e-01 -3.239111e-01
   outer loop
     vertex  2.504789e+00  7.493268e+00 -4.855612e+00
     vertex -6.334546e-01  6.522495e+00 -3.647711e+00
     vertex  4.476271e-01  8.663160e+00 -9.260091e+00
   endloop
 endfacet
 facet normal -8.966411e-01 -2.773636e-01  3.451147e-01
   outer loop
     vertex -6.461622e+00  4.719632e+00 -1.404465e+00
     vertex -8.682363e+00  6.821363e+00 -5.485033e+00
     vertex -8.518784e+00  5.889524e+00 -5.808944e+00
   endloop
 endfacet
 facet normal -8.966411e-01 -2.773636e-01  3.451147e-01
   outer loop
     vertex -6.461622e+00  4.719632e+00 -1.404465e+00
     vertex -6.625201e+00  5.651471e+00 -1.080554e+00
     vertex -8.682363e+00  6.821363e+00 -5.485033e+00
   endloop
 endfacet
 facet normal  4.114324e-01 -2.339784e-01  8.808958e-01
   outer loop
     vertex -5.280239e+00  6.067516e+00 -1.598226e+00
     vertex -6.625201e+00  5.651471e+00 -1.080554e+00
     vertex -6.461622e+00  4.719632e+00 -1.404465e+00
   endloop
 endfacet
 facet normal  4.114324e-01 -2.339784e-01  8.808958e-01
   outer loop
     vertex -5.280239e+00  6.067516e+00 -1.598226e+00
     vertex -6.461622e+00  4.719632e+00 -1.404465e+00
     vertex -5.116660e+00  5.135677e+00 -1.922137e+00
   endloop
 endfacet
 facet normal -1.635790e-01  9.318388e-01  3.239111e-01
   outer loop
     vertex  3.317291e+00  5.114550e+00  5.485159e+00
     vertex -5.280239e+00  6.067516e+00 -1.598226e+00
     vertex -1.165915e+00  3.727732e+00  7.210732e+00
   endloop
 endfacet
 facet normal -1.635790e-01  9.318388e-01  3.239111e-01
   outer loop
     vertex  3.317291e+00  5.114550e+00  5.485159e+00
     vertex -7.970336e-01  7.454334e+00 -3.323800e+00
     vertex -5.280239e+00  6.067516e+00 -1.598226e+00
   endloop
 endfacet
 facet normal  4.114324e-01 -2.339784e-01  8.808958e-01
   outer loop
     vertex  2.341210e+00  8.425106e+00 -4.531701e+00
     vertex -7.970336e-01  7.454334e+00 -3.323800e+00
     vertex -6.334546e-01  6.522495e+00 -3.647711e+00
   endloop
 endfacet
 facet normal  4.114324e-01 -2.339784e-01  8.808958e-01
   outer loop
     vertex  2.341210e+00  8.425106e+00 -4.531701e+00
     vertex -6.334546e-01  6.522495e+00 -3.647711e+00
     vertex  2.504789e+00  7.493268e+00 -4.855612e+00
   endloop
 endfacet
 facet normal  1.635790e-01 -9.318388e-01 -3.239111e-01
   outer loop
     vertex  3.480870e+00  4.182711e+00  5.161248e+00
     vertex -1.002336e+00  2.795893e+00  6.886821e+00
     vertex -5.116660e+00  5.135677e+00 -1.922137e+00
   endloop
 endfacet
 facet normal  1.635790e-01 -9.318388e-01 -3.239111e-01
   outer loop
     vertex  3.480870e+00  4.182711e+00  5.161248e+00
     vertex -5.116660e+00  5.135677e+00 -1.922137e+00
     vertex -6.334546e-01  6.522495e+00 -3.647711e+00
   endloop
 endfacet
 facet normal -8.966411e-01 -2.773636e-01  3.451147e-01
   outer loop
     vertex -1.002336e+00  2.795893e+00  6.886821e+00
     vertex -5.280239e+00  6.067516e+00 -1.598226e+00
     vertex -5.116660e+00  5.135677e+00 -1.922137e+00
   endloop
 endfacet
 facet normal -8.966411e-01 -2.773636e-01  3.451147e-01
   outer loop
     vertex -1.002336e+00  2.795893e+00  6.886821e+00
     vertex -1.165915e+00  3.727732e+00  7.210732e+00
     vertex -5.280239e+00  6.067516e+00 -1.598226e+00
   endloop
 endfacet
 facet normal -1.635790e-01  9.318388e-01  3.239111e-01
   outer loop
     vertex  7.747996e+00  3.775757e+00  1.157421e+01
     vertex -1.218415e+00  1.002121e+00  1.502535e+01
     vertex -1.898342e-01  4.171746e-01  1.722759e+01
   endloop
 endfacet
 facet normal -1.635790e-01  9.318388e-01  3.239111e-01
   outer loop
     vertex  7.747996e+00  3.775757e+00  1.157421e+01
     vertex -1.898342e-01  4.171746e-01  1.722759e+01
     vertex  8.776577e+00  3.190811e+00  1.377644e+01
   endloop
 endfacet
 facet normal -1.635790e-01  9.318388e-01  3.239111e-01
   outer loop
     vertex -1.165915e+00  3.727732e+00  7.210732e+00
     vertex -4.304159e+00  2.756959e+00  8.418634e+00
     vertex -3.275577e+00  2.172013e+00  1.062087e+01
   endloop
 endfacet
 facet normal -1.635790e-01  9.318388e-01  3.239111e-01
   outer loop
     vertex -1.165915e+00  3.727732e+00  7.210732e+00
     vertex -3.275577e+00  2.172013e+00  1.062087e+01
     vertex -1.218415e+00  1.002121e+00  1.502535e+01
   endloop
 endfacet
 facet normal -1.635790e-01  9.318388e-01  3.239111e-01
   outer loop
     vertex -1.165915e+00  3.727732e+00  7.210732e+00
     vertex -1.218415e+00  1.002121e+00  1.502535e+01
     vertex  7.747996e+00  3.775757e+00  1.157421e+01
   endloop
 endfacet
 facet normal -1.635790e-01  9.318388e-01  3.239111e-01
   outer loop
     vertex  5.690834e+00  4.945649e+00  7.169726e+00
     vertex -1.165915e+00  3.727732e+00  7.210732e+00
     vertex  7.747996e+00  3.775757e+00  1.157421e+01
   endloop
 endfacet
 facet normal -1.635790e-01  9.318388e-01  3.239111e-01
   outer loop
     vertex  3.317291e+00  5.114550e+00  5.485159e+00
     vertex -1.165915e+00  3.727732e+00  7.210732e+00
     vertex  5.690834e+00  4.945649e+00  7.169726e+00
   endloop
 endfacet
 facet normal -1.635790e-01  9.318388e-01  3.239111e-01
   outer loop
     vertex  4.662252e+00  5.530595e+00  4.967487e+00
     vertex  3.317291e+00  5.114550e+00  5.485159e+00
     vertex  5.690834e+00  4.945649e+00  7.169726e+00
   endloop
 endfacet
 facet normal  8.966411e-01  2.773636e-01 -3.451147e-01
   outer loop
     vertex  3.480870e+00  4.182711e+00  5.161248e+00
     vertex -6.334546e-01  6.522495e+00 -3.647711e+00
     vertex -7.970336e-01  7.454334e+00 -3.323800e+00
   endloop
 endfacet
 facet normal  8.966411e-01  2.773636e-01 -3.451147e-01
   outer loop
     vertex  3.480870e+00  4.182711e+00  5.161248e+00
     vertex -7.970336e-01  7.454334e+00 -3.323800e+00
     vertex  3.317291e+00  5.114550e+00  5.485159e+00
   endloop
 endfacet
 facet normal  1.635790e-01 -9.318388e-01 -3.239111e-01
   outer loop
     vertex  7.911575e+00  2.843918e+00  1.125029e+01
     vertex -2.625514e-02 -5.146642e-01  1.690368e+01
     vertex -1.054836e+00  7.028190e-02  1.470144e+01
   endloop
 endfacet
 facet normal  1.635790e-01 -9.318388e-01 -3.239111e-01
   outer loop
     vertex  7.911575e+00  2.843918e+00  1.125029e+01
     vertex  8.940156e+00  2.258972e+00  1.345253e+01
     vertex -2.625514e-02 -5.146642e-01  1.690368e+01
   endloop
 endfacet
 facet normal  1.635790e-01 -9.318388e-01 -3.239111e-01
   outer loop
     vertex -1.002336e+00  2.795893e+00  6.886821e+00
     vertex -3.111998e+00  1.240174e+00  1.029696e+01
     vertex -4.140580e+00  1.825120e+00  8.094723e+00
   endloop
 endfacet
 facet normal  1.635790e-01 -9.318388e-01 -3.239111e-01
   outer loop
     vertex -1.002336e+00  2.795893e+00  6.886821e+00
     vertex -1.054836e+00  7.028190e-02  1.470144e+01
     vertex -3.111998e+00  1.240174e+00  1.029696e+01
   endloop
 endfacet
 facet normal  1.635790e-01 -9.318388e-01 -3.239111e-01
   outer loop
     vertex -1.002336e+00  2.795893e+00  6.886821e+00
     vertex  7.911575e+00  2.843918e+00  1.125029e+01
     vertex -1.054836e+00  7.028190e-02  1.470144e+01
   endloop
 endfacet
 facet normal  1.635790e-01 -9.318388e-01 -3.239111e-01
   outer loop
     vertex  5.854413e+00  4.013810e+00  6.845815e+00
     vertex  7.911575e+00  2.843918e+00  1.125029e+01
     vertex -1.002336e+00  2.795893e+00  6.886821e+00
   endloop
 endfacet
 facet normal  1.635790e-01 -9.318388e-01 -3.239111e-01
   outer loop
     vertex  3.480870e+00  4.182711e+00  5.161248e+00
     vertex  5.854413e+00  4.013810e+00  6.845815e+00
     vertex -1.002336e+00  2.795893e+00  6.886821e+00
   endloop
 endfacet
 facet normal  1.635790e-01 -9.318388e-01 -3.239111e-01
   outer loop
     vertex  4.825831e+00  4.598756e+00  4.643575e+00
     vertex  5.854413e+00  4.013810e+00  6.845815e+00
     vertex  3.480870e+00  4.182711e+00  5.161248e+00
   endloop
 endfacet
 facet normal -4.114324e-01  2.339784e-01 -8.808958e-01
   outer loop
     vertex -1.002336e+00  2.795893e+00  6.886821e+00
     vertex -4.140580e+00  1.825120e+00  8.094723e+00
     vertex -4.304159e+00  2.756959e+00  8.418634e+00
   endloop
 endfacet
 facet normal -4.114324e-01  2.339784e-01 -8.808958e-01
   outer loop
     vertex -1.002336e+00  2.795893e+00  6.886821e+00
     vertex -4.304159e+00  2.756959e+00  8.418634e+00
     vertex -1.165915e+00  3.727732e+00  7.210732e+00
   endloop
 endfacet
 facet normal -8.966411e-01 -2.773636e-01  3.451147e-01
   outer loop
     vertex -1.218415e+00  1.002121e+00  1.502535e+01
     vertex -2.625514e-02 -5.146642e-01  1.690368e+01
     vertex -1.898342e-01  4.171746e-01  1.722759e+01
   endloop
 endfacet
 facet normal -8.966411e-01 -2.773636e-01  3.451147e-01
   outer loop
     vertex -1.218415e+00  1.002121e+00  1.502535e+01
     vertex -1.054836e+00  7.028190e-02  1.470144e+01
     vertex -2.625514e-02 -5.146642e-01  1.690368e+01
   endloop
 endfacet
 facet normal -1.635790e-01  9.318388e-01  3.239111e-01
   outer loop
     vertex -3.275577e+00  2.172013e+00  1.062087e+01
     vertex -1.224199e+01 -6.016231e-01  1.407202e+01
     vertex -1.018483e+01 -1.771515e+00  1.847650e+01
   endloop
 endfacet
 facet normal -1.635790e-01  9.318388e-01  3.239111e-01
   outer loop
     vertex -3.275577e+00  2.172013e+00  1.062087e+01
     vertex -1.018483e+01 -1.771515e+00  1.847650e+01
     vertex -1.218415e+00  1.002121e+00  1.502535e+01
   endloop
 endfacet
 facet normal -8.966411e-01 -2.773636e-01  3.451147e-01
   outer loop
     vertex -4.304159e+00  2.756959e+00  8.418634e+00
     vertex -3.111998e+00  1.240174e+00  1.029696e+01
     vertex -3.275577e+00  2.172013e+00  1.062087e+01
   endloop
 endfacet
 facet normal -8.966411e-01 -2.773636e-01  3.451147e-01
   outer loop
     vertex -4.304159e+00  2.756959e+00  8.418634e+00
     vertex -4.140580e+00  1.825120e+00  8.094723e+00
     vertex -3.111998e+00  1.240174e+00  1.029696e+01
   endloop
 endfacet
 facet normal -4.114324e-01  2.339784e-01 -8.808958e-01
   outer loop
     vertex  4.662252e+00  5.530595e+00  4.967487e+00
     vertex  3.480870e+00  4.182711e+00  5.161248e+00
     vertex  3.317291e+00  5.114550e+00  5.485159e+00
   endloop
 endfacet
 facet normal -4.114324e-01  2.339784e-01 -8.808958e-01
   outer loop
     vertex  4.825831e+00  4.598756e+00  4.643575e+00
     vertex  3.480870e+00  4.182711e+00  5.161248e+00
     vertex  4.662252e+00  5.530595e+00  4.967487e+00
   endloop
 endfacet
 facet normal  8.966411e-01  2.773636e-01 -3.451147e-01
   outer loop
     vertex  7.911575e+00  2.843918e+00  1.125029e+01
     vertex  8.776577e+00  3.190811e+00  1.377644e+01
     vertex  8.940156e+00  2.258972e+00  1.345253e+01
   endloop
 endfacet
 facet normal  8.966411e-01  2.773636e-01 -3.451147e-01
   outer loop
     vertex  7.747996e+00  3.775757e+00  1.157421e+01
     vertex  8.776577e+00  3.190811e+00  1.377644e+01
     vertex  7.911575e+00  2.843918e+00  1.125029e+01
   endloop
 endfacet
 facet normal -1.635790e-01  9.318388e-01  3.239111e-01
   outer loop
     vertex  1.465724e+01  7.719285e+00  3.718579e+00
     vertex  5.690834e+00  4.945649e+00  7.169726e+00
     vertex  7.747996e+00  3.775757e+00  1.157421e+01
   endloop
 endfacet
 facet normal -1.635790e-01  9.318388e-01  3.239111e-01
   outer loop
     vertex  1.465724e+01  7.719285e+00  3.718579e+00
     vertex  7.747996e+00  3.775757e+00  1.157421e+01
     vertex  1.671441e+01  6.549393e+00  8.123058e+00
   endloop
 endfacet
 facet normal  8.966411e-01  2.773636e-01 -3.451147e-01
   outer loop
     vertex  4.662252e+00  5.530595e+00  4.967487e+00
     vertex  5.690834e+00  4.945649e+00  7.169726e+00
     vertex  5.854413e+00  4.013810e+00  6.845815e+00
   endloop
 endfacet
 facet normal  8.966411e-01  2.773636e-01 -3.451147e-01
   outer loop
     vertex  4.662252e+00  5.530595e+00  4.967487e+00
     vertex  5.854413e+00  4.013810e+00  6.845815e+00
     vertex  4.825831e+00  4.598756e+00  4.643575e+00
   endloop
 endfacet
 facet normal  4.114324e-01 -2.339784e-01  8.808958e-01
   outer loop
     vertex  8.940156e+00  2.258972e+00  1.345253e+01
     vertex -1.898342e-01  4.171746e-01  1.722759e+01
     vertex -2.625514e-02 -5.146642e-01  1.690368e+01
   endloop
 endfacet
 facet normal  4.114324e-01 -2.339784e-01  8.808958e-01
   outer loop
     vertex  8.940156e+00  2.258972e+00  1.345253e+01
     vertex  8.776577e+00  3.190811e+00  1.377644e+01
     vertex -1.898342e-01  4.171746e-01  1.722759e+01
   endloop
 endfacet
 facet normal  1.635790e-01 -9.318388e-01 -3.239111e-01
   outer loop
     vertex -3.111998e+00  1.240174e+00  1.029696e+01
     vertex -1.002125e+01 -2.703354e+00  1.815259e+01
     vertex -1.207841e+01 -1.533462e+00  1.374811e+01
   endloop
 endfacet
 facet normal  1.635790e-01 -9.318388e-01 -3.239111e-01
   outer loop
     vertex -3.111998e+00  1.240174e+00  1.029696e+01
     vertex -1.054836e+00  7.028190e-02  1.470144e+01
     vertex -1.002125e+01 -2.703354e+00  1.815259e+01
   endloop
 endfacet
 facet normal  1.635790e-01 -9.318388e-01 -3.239111e-01
   outer loop
     vertex  1.482082e+01  6.787446e+00  3.394668e+00
     vertex  7.911575e+00  2.843918e+00  1.125029e+01
     vertex  5.854413e+00  4.013810e+00  6.845815e+00
   endloop
 endfacet
 facet normal  1.635790e-01 -9.318388e-01 -3.239111e-01
   outer loop
     vertex  1.482082e+01  6.787446e+00  3.394668e+00
     vertex  1.687799e+01  5.617554e+00  7.799147e+00
     vertex  7.911575e+00  2.843918e+00  1.125029e+01
   endloop
 endfacet
 facet normal  4.114324e-01 -2.339784e-01  8.808958e-01
   outer loop
     vertex -1.054836e+00  7.028190e-02  1.470144e+01
     vertex -1.018483e+01 -1.771515e+00  1.847650e+01
     vertex -1.002125e+01 -2.703354e+00  1.815259e+01
   endloop
 endfacet
 facet normal  4.114324e-01 -2.339784e-01  8.808958e-01
   outer loop
     vertex -1.054836e+00  7.028190e-02  1.470144e+01
     vertex -1.218415e+00  1.002121e+00  1.502535e+01
     vertex -1.018483e+01 -1.771515e+00  1.847650e+01
   endloop
 endfacet
 facet normal -8.966411e-01 -2.773636e-01  3.451147e-01
   outer loop
     vertex -1.224199e+01 -6.016231e-01  1.407202e+01
     vertex -1.002125e+01 -2.703354e+00  1.815259e+01
     vertex -1.018483e+01 -1.771515e+00  1.847650e+01
   endloop
 endfacet
 facet normal -8.966411e-01 -2.773636e-01  3.451147e-01
   outer loop
     vertex -1.224199e+01 -6.016231e-01  1.407202e+01
     vertex -1.207841e+01 -1.533462e+00  1.374811e+01
     vertex -1.002125e+01 -2.703354e+00  1.815259e+01
   endloop
 endfacet
 facet normal -4.114324e-01  2.339784e-01 -8.808958e-01
   outer loop
     vertex -3.111998e+00  1.240174e+00  1.029696e+01
     vertex -1.207841e+01 -1.533462e+00  1.374811e+01
     vertex -1.224199e+01 -6.016231e-01  1.407202e+01
   endloop
 endfacet
 facet normal -4.114324e-01  2.339784e-01 -8.808958e-01
   outer loop
     vertex -3.111998e+00  1.240174e+00  1.029696e+01
     vertex -1.224199e+01 -6.016231e-01  1.407202e+01
     vertex -3.275577e+00  2.172013e+00  1.062087e+01
   endloop
 endfacet
 facet normal  4.114324e-01 -2.339784e-01  8.808958e-01
   outer loop
     vertex  1.687799e+01  5.617554e+00  7.799147e+00
     vertex  7.747996e+00  3.775757e+00  1.157421e+01
     vertex  7.911575e+00  2.843918e+00  1.125029e+01
   endloop
 endfacet
 facet normal  4.114324e-01 -2.339784e-01  8.808958e-01
   outer loop
     vertex  1.687799e+01  5.617554e+00  7.799147e+00
     vertex  1.671441e+01  6.549393e+00  8.123058e+00
     vertex  7.747996e+00  3.775757e+00  1.157421e+01
   endloop
 endfacet
 facet normal -4.114324e-01  2.339784e-01 -8.808958e-01
   outer loop
     vertex  1.482082e+01  6.787446e+00  3.394668e+00
     vertex  5.854413e+00  4.013810e+00  6.845815e+00
     vertex  5.690834e+00  4.945649e+00  7.169726e+00
   endloop
 endfacet
 facet normal -4.114324e-01  2.339784e-01 -8.808958e-01
   outer loop
     vertex  1.482082e+01  6.787446e+00  3.394668e+00
     vertex  5.690834e+00  4.945649e+00  7.169726e+00
     vertex  1.465724e+01  7.719285e+00  3.718579e+00
   endloop
 endfacet
 facet normal  8.966411e-01  2.773636e-01 -3.451147e-01
   outer loop
     vertex  1.465724e+01  7.719285e+00  3.718579e+00
     vertex  1.671441e+01  6.549393e+00  8.123058e+00
     vertex  1.687799e+01  5.617554e+00  7.799147e+00
   endloop
 endfacet
 facet normal  8.966411e-01  2.773636e-01 -3.451147e-01
   outer loop
     vertex  1.465724e+01  7.719285e+00  3.718579e+00
     vertex  1.687799e+01  5.617554e+00  7.799147e+00
     vertex  1.482082e+01  6.787446e+00  3.394668e+00
   endloop
 endfacet
endsolid
