solid 
 facet normal -9.385605e-01  0.000000e+00  3.451147e-01
   outer loop
     vertex -3.251331e+00  7.356937e+00 -1.598226e+00
     vertex -3.046525e+00  6.073261e+00 -1.041241e+00
     vertex -2.927420e+00  7.011822e+00 -7.173300e-01
   endloop
 endfacet
 facet normal -9.385605e-01 -3.053113e-16  3.451147e-01
   outer loop
     vertex -3.251331e+00  7.356937e+00 -1.598226e+00
     vertex -3.370436e+00  6.418376e+00 -1.922137e+00
     vertex -3.046525e+00  6.073261e+00 -1.041241e+00
   endloop
 endfacet
 facet normal -9.385605e-01  8.881784e-16  3.451147e-01
   outer loop
     vertex -3.046525e+00  6.073261e+00 -1.041241e+00
     vertex -4.552361e-01  3.312344e+00  6.005925e+00
     vertex -3.361319e-01  4.250904e+00  6.329836e+00
   endloop
 endfacet
 facet normal -9.385605e-01  1.110223e-16  3.451147e-01
   outer loop
     vertex -2.927420e+00  7.011822e+00 -7.173300e-01
     vertex -3.046525e+00  6.073261e+00 -1.041241e+00
     vertex -3.361319e-01  4.250904e+00  6.329836e+00
   endloop
 endfacet
 facet normal -9.385605e-01 -1.110223e-16  3.451147e-01
   outer loop
     vertex -1.974587e+00  1.452031e+01  1.873958e+00
     vertex -3.251331e+00  7.356937e+00 -1.598226e+00
     vertex -2.927420e+00  7.011822e+00 -7.173300e-01
   endloop
 endfacet
 facet normal -9.385605e-01  3.330669e-16  3.451147e-01
   outer loop
     vertex -1.974587e+00  1.452031e+01  1.873958e+00
     vertex -2.298498e+00  1.486542e+01  9.930626e-01
     vertex -3.251331e+00  7.356937e+00 -1.598226e+00
   endloop
 endfacet
 facet normal -3.239111e-01  3.451147e-01 -8.808958e-01
   outer loop
     vertex  1.322367e+00  6.418376e+00 -3.647711e+00
     vertex -3.370436e+00  6.418376e+00 -1.922137e+00
     vertex -3.251331e+00  7.356937e+00 -1.598226e+00
   endloop
 endfacet
 facet normal -3.239111e-01  3.451147e-01 -8.808958e-01
   outer loop
     vertex  1.322367e+00  6.418376e+00 -3.647711e+00
     vertex -3.251331e+00  7.356937e+00 -1.598226e+00
     vertex  1.441471e+00  7.356937e+00 -3.323800e+00
   endloop
 endfacet
 facet normal -1.191042e-01 -9.385605e-01 -3.239111e-01
   outer loop
     vertex  1.646278e+00  6.073261e+00 -2.766815e+00
     vertex -3.046525e+00  6.073261e+00 -1.041241e+00
     vertex -3.370436e+00  6.418376e+00 -1.922137e+00
   endloop
 endfacet
 facet normal -1.191042e-01 -9.385605e-01 -3.239111e-01
   outer loop
     vertex  1.322367e+00  6.418376e+00 -3.647711e+00
     vertex  1.646278e+00  6.073261e+00 -2.766815e+00
     vertex -3.370436e+00  6.418376e+00 -1.922137e+00
   endloop
 endfacet
 facet normal -9.385605e-01 -1.942890e-16  3.451147e-01
   outer loop
     vertex -3.361319e-01  4.250904e+00  6.329836e+00
     vertex -1.313250e-01  2.967229e+00  6.886821e+00
     vertex -1.222085e-02  3.905789e+00  7.210732e+00
   endloop
 endfacet
 facet normal -9.385605e-01  1.110223e-16  3.451147e-01
   outer loop
     vertex -3.361319e-01  4.250904e+00  6.329836e+00
     vertex -4.552361e-01  3.312344e+00  6.005925e+00
     vertex -1.313250e-01  2.967229e+00  6.886821e+00
   endloop
 endfacet
 facet normal  1.191042e-01  9.385605e-01  3.239111e-01
   outer loop
     vertex  1.765382e+00  7.011822e+00 -2.442904e+00
     vertex -2.927420e+00  7.011822e+00 -7.173300e-01
     vertex -3.361319e-01  4.250904e+00  6.329836e+00
   endloop
 endfacet
 facet normal  1.191042e-01  9.385605e-01  3.239111e-01
   outer loop
     vertex  1.765382e+00  7.011822e+00 -2.442904e+00
     vertex -3.361319e-01  4.250904e+00  6.329836e+00
     vertex  4.356671e+00  4.250904e+00  4.604263e+00
   endloop
 endfacet
 facet normal -1.191042e-01 -9.385605e-01 -3.239111e-01
   outer loop
     vertex  1.646278e+00  6.073261e+00 -2.766815e+00
     vertex -4.552361e-01  3.312344e+00  6.005925e+00
     vertex -3.046525e+00  6.073261e+00 -1.041241e+00
   endloop
 endfacet
 facet normal -1.191042e-01 -9.385605e-01 -3.239111e-01
   outer loop
     vertex  1.646278e+00  6.073261e+00 -2.766815e+00
     vertex  4.237566e+00  3.312344e+00  4.280352e+00
     vertex -4.552361e-01  3.312344e+00  6.005925e+00
   endloop
 endfacet
 facet normal  3.239111e-01 -3.451147e-01  8.808958e-01
   outer loop
     vertex  2.718216e+00  1.452031e+01  1.483848e-01
     vertex -1.974587e+00  1.452031e+01  1.873958e+00
     vertex -2.927420e+00  7.011822e+00 -7.173300e-01
   endloop
 endfacet
 facet normal  3.239111e-01 -3.451147e-01  8.808958e-01
   outer loop
     vertex  2.718216e+00  1.452031e+01  1.483848e-01
     vertex -2.927420e+00  7.011822e+00 -7.173300e-01
     vertex  1.765382e+00  7.011822e+00 -2.442904e+00
   endloop
 endfacet
 facet normal -9.385605e-01  1.665335e-16  3.451147e-01
   outer loop
     vertex -1.855483e+00  1.545887e+01  2.197870e+00
     vertex -2.179394e+00  1.580398e+01  1.316974e+00
     vertex -2.298498e+00  1.486542e+01  9.930626e-01
   endloop
 endfacet
 facet normal -9.385605e-01 -2.914335e-16  3.451147e-01
   outer loop
     vertex -1.974587e+00  1.452031e+01  1.873958e+00
     vertex -1.855483e+00  1.545887e+01  2.197870e+00
     vertex -2.298498e+00  1.486542e+01  9.930626e-01
   endloop
 endfacet
 facet normal -3.239111e-01  3.451147e-01 -8.808958e-01
   outer loop
     vertex  2.394305e+00  1.486542e+01 -7.325111e-01
     vertex -3.251331e+00  7.356937e+00 -1.598226e+00
     vertex -2.298498e+00  1.486542e+01  9.930626e-01
   endloop
 endfacet
 facet normal -3.239111e-01  3.451147e-01 -8.808958e-01
   outer loop
     vertex  2.394305e+00  1.486542e+01 -7.325111e-01
     vertex  1.441471e+00  7.356937e+00 -3.323800e+00
     vertex -3.251331e+00  7.356937e+00 -1.598226e+00
   endloop
 endfacet
 facet normal  9.385605e-01  4.163336e-16 -3.451147e-01
   outer loop
     vertex  1.441471e+00  7.356937e+00 -3.323800e+00
     vertex  1.765382e+00  7.011822e+00 -2.442904e+00
     vertex  1.646278e+00  6.073261e+00 -2.766815e+00
   endloop
 endfacet
 facet normal  9.385605e-01  4.857226e-16 -3.451147e-01
   outer loop
     vertex  1.441471e+00  7.356937e+00 -3.323800e+00
     vertex  1.646278e+00  6.073261e+00 -2.766815e+00
     vertex  1.322367e+00  6.418376e+00 -3.647711e+00
   endloop
 endfacet
 facet normal  3.239111e-01 -3.451147e-01  8.808958e-01
   outer loop
     vertex  4.561477e+00  2.967229e+00  5.161248e+00
     vertex -1.222085e-02  3.905789e+00  7.210732e+00
     vertex -1.313250e-01  2.967229e+00  6.886821e+00
   endloop
 endfacet
 facet normal  3.239111e-01 -3.451147e-01  8.808958e-01
   outer loop
     vertex  4.561477e+00  2.967229e+00  5.161248e+00
     vertex  4.680582e+00  3.905789e+00  5.485159e+00
     vertex -1.222085e-02  3.905789e+00  7.210732e+00
   endloop
 endfacet
 facet normal -9.385605e-01 -2.220446e-16  3.451147e-01
   outer loop
     vertex  9.406126e-01  1.141427e+01  9.802021e+00
     vertex -3.361319e-01  4.250904e+00  6.329836e+00
     vertex -1.222085e-02  3.905789e+00  7.210732e+00
   endloop
 endfacet
 facet normal -9.385605e-01  8.326673e-17  3.451147e-01
   outer loop
     vertex  9.406126e-01  1.141427e+01  9.802021e+00
     vertex  6.167016e-01  1.175939e+01  8.921125e+00
     vertex -3.361319e-01  4.250904e+00  6.329836e+00
   endloop
 endfacet
 facet normal -1.191042e-01 -9.385605e-01 -3.239111e-01
   outer loop
     vertex  4.237566e+00  3.312344e+00  4.280352e+00
     vertex -1.313250e-01  2.967229e+00  6.886821e+00
     vertex -4.552361e-01  3.312344e+00  6.005925e+00
   endloop
 endfacet
 facet normal -1.191042e-01 -9.385605e-01 -3.239111e-01
   outer loop
     vertex  4.237566e+00  3.312344e+00  4.280352e+00
     vertex  4.561477e+00  2.967229e+00  5.161248e+00
     vertex -1.313250e-01  2.967229e+00  6.886821e+00
   endloop
 endfacet
 facet normal  9.385605e-01 -4.440892e-16 -3.451147e-01
   outer loop
     vertex  1.646278e+00  6.073261e+00 -2.766815e+00
     vertex  4.356671e+00  4.250904e+00  4.604263e+00
     vertex  4.237566e+00  3.312344e+00  4.280352e+00
   endloop
 endfacet
 facet normal  9.385605e-01  1.942890e-16 -3.451147e-01
   outer loop
     vertex  1.765382e+00  7.011822e+00 -2.442904e+00
     vertex  4.356671e+00  4.250904e+00  4.604263e+00
     vertex  1.646278e+00  6.073261e+00 -2.766815e+00
   endloop
 endfacet
 facet normal -3.239111e-01  3.451147e-01 -8.808958e-01
   outer loop
     vertex  6.167016e-01  1.175939e+01  8.921125e+00
     vertex  4.356671e+00  4.250904e+00  4.604263e+00
     vertex -3.361319e-01  4.250904e+00  6.329836e+00
   endloop
 endfacet
 facet normal -3.239111e-01  3.451147e-01 -8.808958e-01
   outer loop
     vertex  5.309504e+00  1.175939e+01  7.195551e+00
     vertex  4.356671e+00  4.250904e+00  4.604263e+00
     vertex  6.167016e-01  1.175939e+01  8.921125e+00
   endloop
 endfacet
 facet normal -1.191042e-01 -9.385605e-01 -3.239111e-01
   outer loop
     vertex  5.309504e+00  1.175939e+01  7.195551e+00
     vertex  6.167016e-01  1.175939e+01  8.921125e+00
     vertex -1.974587e+00  1.452031e+01  1.873958e+00
   endloop
 endfacet
 facet normal -1.191042e-01 -9.385605e-01 -3.239111e-01
   outer loop
     vertex  5.309504e+00  1.175939e+01  7.195551e+00
     vertex -1.974587e+00  1.452031e+01  1.873958e+00
     vertex  2.718216e+00  1.452031e+01  1.483848e-01
   endloop
 endfacet
 facet normal  9.385605e-01  2.220446e-16 -3.451147e-01
   outer loop
     vertex  2.718216e+00  1.452031e+01  1.483848e-01
     vertex  1.765382e+00  7.011822e+00 -2.442904e+00
     vertex  1.441471e+00  7.356937e+00 -3.323800e+00
   endloop
 endfacet
 facet normal  9.385605e-01 -7.494005e-16 -3.451147e-01
   outer loop
     vertex  2.718216e+00  1.452031e+01  1.483848e-01
     vertex  1.441471e+00  7.356937e+00 -3.323800e+00
     vertex  2.394305e+00  1.486542e+01 -7.325111e-01
   endloop
 endfacet
 facet normal -9.385605e-01 -4.440892e-16  3.451147e-01
   outer loop
     vertex  6.167016e-01  1.175939e+01  8.921125e+00
     vertex -1.855483e+00  1.545887e+01  2.197870e+00
     vertex -1.974587e+00  1.452031e+01  1.873958e+00
   endloop
 endfacet
 facet normal -9.385605e-01  7.771561e-16  3.451147e-01
   outer loop
     vertex  6.167016e-01  1.175939e+01  8.921125e+00
     vertex  7.358057e-01  1.269795e+01  9.245036e+00
     vertex -1.855483e+00  1.545887e+01  2.197870e+00
   endloop
 endfacet
 facet normal  1.191042e-01  9.385605e-01  3.239111e-01
   outer loop
     vertex  2.837320e+00  1.545887e+01  4.722958e-01
     vertex -2.179394e+00  1.580398e+01  1.316974e+00
     vertex -1.855483e+00  1.545887e+01  2.197870e+00
   endloop
 endfacet
 facet normal  1.191042e-01  9.385605e-01  3.239111e-01
   outer loop
     vertex  2.837320e+00  1.545887e+01  4.722958e-01
     vertex  2.513409e+00  1.580398e+01 -4.086000e-01
     vertex -2.179394e+00  1.580398e+01  1.316974e+00
   endloop
 endfacet
 facet normal -3.239111e-01  3.451147e-01 -8.808958e-01
   outer loop
     vertex  2.513409e+00  1.580398e+01 -4.086000e-01
     vertex -2.298498e+00  1.486542e+01  9.930626e-01
     vertex -2.179394e+00  1.580398e+01  1.316974e+00
   endloop
 endfacet
 facet normal -3.239111e-01  3.451147e-01 -8.808958e-01
   outer loop
     vertex  2.513409e+00  1.580398e+01 -4.086000e-01
     vertex  2.394305e+00  1.486542e+01 -7.325111e-01
     vertex -2.298498e+00  1.486542e+01  9.930626e-01
   endloop
 endfacet
 facet normal  9.385605e-01  5.828671e-16 -3.451147e-01
   outer loop
     vertex  4.356671e+00  4.250904e+00  4.604263e+00
     vertex  4.680582e+00  3.905789e+00  5.485159e+00
     vertex  4.561477e+00  2.967229e+00  5.161248e+00
   endloop
 endfacet
 facet normal  9.385605e-01  6.938894e-17 -3.451147e-01
   outer loop
     vertex  4.356671e+00  4.250904e+00  4.604263e+00
     vertex  4.561477e+00  2.967229e+00  5.161248e+00
     vertex  4.237566e+00  3.312344e+00  4.280352e+00
   endloop
 endfacet
 facet normal  3.239111e-01 -3.451147e-01  8.808958e-01
   outer loop
     vertex  5.633415e+00  1.141427e+01  8.076447e+00
     vertex  9.406126e-01  1.141427e+01  9.802021e+00
     vertex -1.222085e-02  3.905789e+00  7.210732e+00
   endloop
 endfacet
 facet normal  3.239111e-01 -3.451147e-01  8.808958e-01
   outer loop
     vertex  5.633415e+00  1.141427e+01  8.076447e+00
     vertex -1.222085e-02  3.905789e+00  7.210732e+00
     vertex  4.680582e+00  3.905789e+00  5.485159e+00
   endloop
 endfacet
 facet normal -9.385605e-01  7.216450e-16  3.451147e-01
   outer loop
     vertex  1.059717e+00  1.235283e+01  1.012593e+01
     vertex  6.167016e-01  1.175939e+01  8.921125e+00
     vertex  9.406126e-01  1.141427e+01  9.802021e+00
   endloop
 endfacet
 facet normal -9.385605e-01  1.110223e-15  3.451147e-01
   outer loop
     vertex  1.059717e+00  1.235283e+01  1.012593e+01
     vertex  7.358057e-01  1.269795e+01  9.245036e+00
     vertex  6.167016e-01  1.175939e+01  8.921125e+00
   endloop
 endfacet
 facet normal  9.385605e-01  0.000000e+00 -3.451147e-01
   outer loop
     vertex  5.633415e+00  1.141427e+01  8.076447e+00
     vertex  4.680582e+00  3.905789e+00  5.485159e+00
     vertex  4.356671e+00  4.250904e+00  4.604263e+00
   endloop
 endfacet
 facet normal  9.385605e-01 -3.053113e-16 -3.451147e-01
   outer loop
     vertex  5.633415e+00  1.141427e+01  8.076447e+00
     vertex  4.356671e+00  4.250904e+00  4.604263e+00
     vertex  5.309504e+00  1.175939e+01  7.195551e+00
   endloop
 endfacet
 facet normal  9.385605e-01  4.440892e-16 -3.451147e-01
   outer loop
     vertex  5.309504e+00  1.175939e+01  7.195551e+00
     vertex  2.718216e+00  1.452031e+01  1.483848e-01
     vertex  2.837320e+00  1.545887e+01  4.722958e-01
   endloop
 endfacet
 facet normal  9.385605e-01 -6.522560e-16 -3.451147e-01
   outer loop
     vertex  5.309504e+00  1.175939e+01  7.195551e+00
     vertex  2.837320e+00  1.545887e+01  4.722958e-01
     vertex  5.428608e+00  1.269795e+01  7.519462e+00
   endloop
 endfacet
 facet normal  9.385605e-01 -5.551115e-17 -3.451147e-01
   outer loop
     vertex  2.837320e+00  1.545887e+01  4.722958e-01
     vertex  2.394305e+00  1.486542e+01 -7.325111e-01
     vertex  2.513409e+00  1.580398e+01 -4.086000e-01
   endloop
 endfacet
 facet normal  9.385605e-01  1.387779e-16 -3.451147e-01
   outer loop
     vertex  2.718216e+00  1.452031e+01  1.483848e-01
     vertex  2.394305e+00  1.486542e+01 -7.325111e-01
     vertex  2.837320e+00  1.545887e+01  4.722958e-01
   endloop
 endfacet
 facet normal  1.191042e-01  9.385605e-01  3.239111e-01
   outer loop
     vertex  5.428608e+00  1.269795e+01  7.519462e+00
     vertex -1.855483e+00  1.545887e+01  2.197870e+00
     vertex  7.358057e-01  1.269795e+01  9.245036e+00
   endloop
 endfacet
 facet normal  1.191042e-01  9.385605e-01  3.239111e-01
   outer loop
     vertex  5.428608e+00  1.269795e+01  7.519462e+00
     vertex  2.837320e+00  1.545887e+01  4.722958e-01
     vertex -1.855483e+00  1.545887e+01  2.197870e+00
   endloop
 endfacet
 facet normal  3.239111e-01 -3.451147e-01  8.808958e-01
   outer loop
     vertex  5.633415e+00  1.141427e+01  8.076447e+00
     vertex  1.059717e+00  1.235283e+01  1.012593e+01
     vertex  9.406126e-01  1.141427e+01  9.802021e+00
   endloop
 endfacet
 facet normal  3.239111e-01 -3.451147e-01  8.808958e-01
   outer loop
     vertex  5.752519e+00  1.235283e+01  8.400358e+00
     vertex  1.059717e+00  1.235283e+01  1.012593e+01
     vertex  5.633415e+00  1.141427e+01  8.076447e+00
   endloop
 endfacet
 facet normal  1.191042e-01  9.385605e-01  3.239111e-01
   outer loop
     vertex  5.428608e+00  1.269795e+01  7.519462e+00
     vertex  7.358057e-01  1.269795e+01  9.245036e+00
     vertex  1.059717e+00  1.235283e+01  1.012593e+01
   endloop
 endfacet
 facet normal  1.191042e-01  9.385605e-01  3.239111e-01
   outer loop
     vertex  5.428608e+00  1.269795e+01  7.519462e+00
     vertex  1.059717e+00  1.235283e+01  1.012593e+01
     vertex  5.752519e+00  1.235283e+01  8.400358e+00
   endloop
 endfacet
 facet normal  9.385605e-01 -8.049117e-16 -3.451147e-01
   outer loop
     vertex  5.752519e+00  1.235283e+01  8.400358e+00
     vertex  5.633415e+00  1.141427e+01  8.076447e+00
     vertex  5.309504e+00  1.175939e+01  7.195551e+00
   endloop
 endfacet
 facet normal  9.385605e-01 -1.110223e-15 -3.451147e-01
   outer loop
     vertex  5.752519e+00  1.235283e+01  8.400358e+00
     vertex  5.309504e+00  1.175939e+01  7.195551e+00
     vertex  5.428608e+00  1.269795e+01  7.519462e+00
   endloop
 endfacet
endsolid
