solid 
 facet normal -4.114324e-01  2.339784e-01 -8.808958e-01
   outer loop
     vertex -1.642725e-01  9.456317e+00 -8.763623e+00
     vertex -4.483899e+00  7.137660e+00 -7.361960e+00
     vertex -4.647478e+00  8.069499e+00 -7.038049e+00
   endloop
 endfacet
 facet normal -4.114324e-01  2.339784e-01 -8.808958e-01
   outer loop
     vertex -1.642725e-01  9.456317e+00 -8.763623e+00
     vertex -6.934469e-04  8.524478e+00 -9.087534e+00
     vertex -4.483899e+00  7.137660e+00 -7.361960e+00
   endloop
 endfacet
 facet normal -1.635790e-01  9.318388e-01  3.239111e-01
   outer loop
     vertex -7.970336e-01  7.454334e+00 -3.323800e+00
     vertex -4.647478e+00  8.069499e+00 -7.038049e+00
     vertex -2.590316e+00  6.899607e+00 -2.633570e+00
   endloop
 endfacet
 facet normal -1.635790e-01  9.318388e-01  3.239111e-01
   outer loop
     vertex -7.970336e-01  7.454334e+00 -3.323800e+00
     vertex -1.642725e-01  9.456317e+00 -8.763623e+00
     vertex -4.647478e+00  8.069499e+00 -7.038049e+00
   endloop
 endfacet
 facet normal -1.635790e-01  9.318388e-01  3.239111e-01
   outer loop
     vertex  1.892890e+00  8.286425e+00 -4.359144e+00
     vertex -1.642725e-01  9.456317e+00 -8.763623e+00
     vertex -7.970336e-01  7.454334e+00 -3.323800e+00
   endloop
 endfacet
 facet normal  8.966411e-01  2.773636e-01 -3.451147e-01
   outer loop
     vertex  2.056469e+00  7.354586e+00 -4.683055e+00
     vertex -6.934469e-04  8.524478e+00 -9.087534e+00
     vertex -1.642725e-01  9.456317e+00 -8.763623e+00
   endloop
 endfacet
 facet normal  8.966411e-01  2.773636e-01 -3.451147e-01
   outer loop
     vertex  2.056469e+00  7.354586e+00 -4.683055e+00
     vertex -1.642725e-01  9.456317e+00 -8.763623e+00
     vertex  1.892890e+00  8.286425e+00 -4.359144e+00
   endloop
 endfacet
 facet normal  1.635790e-01 -9.318388e-01 -3.239111e-01
   outer loop
     vertex -6.334546e-01  6.522495e+00 -3.647711e+00
     vertex -2.426737e+00  5.967768e+00 -2.957481e+00
     vertex -4.483899e+00  7.137660e+00 -7.361960e+00
   endloop
 endfacet
 facet normal  1.635790e-01 -9.318388e-01 -3.239111e-01
   outer loop
     vertex -6.334546e-01  6.522495e+00 -3.647711e+00
     vertex -4.483899e+00  7.137660e+00 -7.361960e+00
     vertex -6.934469e-04  8.524478e+00 -9.087534e+00
   endloop
 endfacet
 facet normal  1.635790e-01 -9.318388e-01 -3.239111e-01
   outer loop
     vertex  2.056469e+00  7.354586e+00 -4.683055e+00
     vertex -6.334546e-01  6.522495e+00 -3.647711e+00
     vertex -6.934469e-04  8.524478e+00 -9.087534e+00
   endloop
 endfacet
 facet normal -8.966411e-01 -2.773636e-01  3.451147e-01
   outer loop
     vertex -2.426737e+00  5.967768e+00 -2.957481e+00
     vertex -4.647478e+00  8.069499e+00 -7.038049e+00
     vertex -4.483899e+00  7.137660e+00 -7.361960e+00
   endloop
 endfacet
 facet normal -8.966411e-01 -2.773636e-01  3.451147e-01
   outer loop
     vertex -2.426737e+00  5.967768e+00 -2.957481e+00
     vertex -2.590316e+00  6.899607e+00 -2.633570e+00
     vertex -4.647478e+00  8.069499e+00 -7.038049e+00
   endloop
 endfacet
 facet normal -1.635790e-01  9.318388e-01  3.239111e-01
   outer loop
     vertex -1.165915e+00  3.727732e+00  7.210732e+00
     vertex -2.590316e+00  6.899607e+00 -2.633570e+00
     vertex -5.280239e+00  6.067516e+00 -1.598226e+00
   endloop
 endfacet
 facet normal -1.635790e-01  9.318388e-01  3.239111e-01
   outer loop
     vertex  2.420650e+00  4.837186e+00  5.830273e+00
     vertex -7.970336e-01  7.454334e+00 -3.323800e+00
     vertex -2.590316e+00  6.899607e+00 -2.633570e+00
   endloop
 endfacet
 facet normal -1.635790e-01  9.318388e-01  3.239111e-01
   outer loop
     vertex  2.420650e+00  4.837186e+00  5.830273e+00
     vertex -2.590316e+00  6.899607e+00 -2.633570e+00
     vertex -1.165915e+00  3.727732e+00  7.210732e+00
   endloop
 endfacet
 facet normal -1.635790e-01  9.318388e-01  3.239111e-01
   outer loop
     vertex  3.317291e+00  5.114550e+00  5.485159e+00
     vertex -7.970336e-01  7.454334e+00 -3.323800e+00
     vertex  2.420650e+00  4.837186e+00  5.830273e+00
   endloop
 endfacet
 facet normal  4.114324e-01 -2.339784e-01  8.808958e-01
   outer loop
     vertex  2.056469e+00  7.354586e+00 -4.683055e+00
     vertex -7.970336e-01  7.454334e+00 -3.323800e+00
     vertex -6.334546e-01  6.522495e+00 -3.647711e+00
   endloop
 endfacet
 facet normal  4.114324e-01 -2.339784e-01  8.808958e-01
   outer loop
     vertex  1.892890e+00  8.286425e+00 -4.359144e+00
     vertex -7.970336e-01  7.454334e+00 -3.323800e+00
     vertex  2.056469e+00  7.354586e+00 -4.683055e+00
   endloop
 endfacet
 facet normal  1.635790e-01 -9.318388e-01 -3.239111e-01
   outer loop
     vertex -1.002336e+00  2.795893e+00  6.886821e+00
     vertex -5.116660e+00  5.135677e+00 -1.922137e+00
     vertex -2.426737e+00  5.967768e+00 -2.957481e+00
   endloop
 endfacet
 facet normal  1.635790e-01 -9.318388e-01 -3.239111e-01
   outer loop
     vertex  2.584229e+00  3.905347e+00  5.506362e+00
     vertex -2.426737e+00  5.967768e+00 -2.957481e+00
     vertex -6.334546e-01  6.522495e+00 -3.647711e+00
   endloop
 endfacet
 facet normal  1.635790e-01 -9.318388e-01 -3.239111e-01
   outer loop
     vertex  2.584229e+00  3.905347e+00  5.506362e+00
     vertex -1.002336e+00  2.795893e+00  6.886821e+00
     vertex -2.426737e+00  5.967768e+00 -2.957481e+00
   endloop
 endfacet
 facet normal  1.635790e-01 -9.318388e-01 -3.239111e-01
   outer loop
     vertex  3.480870e+00  4.182711e+00  5.161248e+00
     vertex  2.584229e+00  3.905347e+00  5.506362e+00
     vertex -6.334546e-01  6.522495e+00 -3.647711e+00
   endloop
 endfacet
 facet normal -4.114324e-01  2.339784e-01 -8.808958e-01
   outer loop
     vertex -2.590316e+00  6.899607e+00 -2.633570e+00
     vertex -5.116660e+00  5.135677e+00 -1.922137e+00
     vertex -5.280239e+00  6.067516e+00 -1.598226e+00
   endloop
 endfacet
 facet normal -4.114324e-01  2.339784e-01 -8.808958e-01
   outer loop
     vertex -2.590316e+00  6.899607e+00 -2.633570e+00
     vertex -2.426737e+00  5.967768e+00 -2.957481e+00
     vertex -5.116660e+00  5.135677e+00 -1.922137e+00
   endloop
 endfacet
 facet normal -8.966411e-01 -2.773636e-01  3.451147e-01
   outer loop
     vertex -1.002336e+00  2.795893e+00  6.886821e+00
     vertex -5.280239e+00  6.067516e+00 -1.598226e+00
     vertex -5.116660e+00  5.135677e+00 -1.922137e+00
   endloop
 endfacet
 facet normal -8.966411e-01 -2.773636e-01  3.451147e-01
   outer loop
     vertex -1.002336e+00  2.795893e+00  6.886821e+00
     vertex -1.165915e+00  3.727732e+00  7.210732e+00
     vertex -5.280239e+00  6.067516e+00 -1.598226e+00
   endloop
 endfacet
 facet normal -1.635790e-01  9.318388e-01  3.239111e-01
   outer loop
     vertex -1.165915e+00  3.727732e+00  7.210732e+00
     vertex -2.062556e+00  3.450368e+00  7.555847e+00
     vertex  2.051769e+00  1.110584e+00  1.636481e+01
   endloop
 endfacet
 facet normal -1.635790e-01  9.318388e-01  3.239111e-01
   outer loop
     vertex -1.165915e+00  3.727732e+00  7.210732e+00
     vertex  2.051769e+00  1.110584e+00  1.636481e+01
     vertex  6.534974e+00  2.497402e+00  1.463923e+01
   endloop
 endfacet
 facet normal -1.635790e-01  9.318388e-01  3.239111e-01
   outer loop
     vertex  2.420650e+00  4.837186e+00  5.830273e+00
     vertex -1.165915e+00  3.727732e+00  7.210732e+00
     vertex  6.534974e+00  2.497402e+00  1.463923e+01
   endloop
 endfacet
 facet normal  4.114324e-01 -2.339784e-01  8.808958e-01
   outer loop
     vertex  3.317291e+00  5.114550e+00  5.485159e+00
     vertex  2.420650e+00  4.837186e+00  5.830273e+00
     vertex  2.584229e+00  3.905347e+00  5.506362e+00
   endloop
 endfacet
 facet normal  4.114324e-01 -2.339784e-01  8.808958e-01
   outer loop
     vertex  3.317291e+00  5.114550e+00  5.485159e+00
     vertex  2.584229e+00  3.905347e+00  5.506362e+00
     vertex  3.480870e+00  4.182711e+00  5.161248e+00
   endloop
 endfacet
 facet normal  8.966411e-01  2.773636e-01 -3.451147e-01
   outer loop
     vertex  3.480870e+00  4.182711e+00  5.161248e+00
     vertex -6.334546e-01  6.522495e+00 -3.647711e+00
     vertex -7.970336e-01  7.454334e+00 -3.323800e+00
   endloop
 endfacet
 facet normal  8.966411e-01  2.773636e-01 -3.451147e-01
   outer loop
     vertex  3.480870e+00  4.182711e+00  5.161248e+00
     vertex -7.970336e-01  7.454334e+00 -3.323800e+00
     vertex  3.317291e+00  5.114550e+00  5.485159e+00
   endloop
 endfacet
 facet normal  1.635790e-01 -9.318388e-01 -3.239111e-01
   outer loop
     vertex -1.002336e+00  2.795893e+00  6.886821e+00
     vertex  2.215348e+00  1.787448e-01  1.604089e+01
     vertex -1.898977e+00  2.518529e+00  7.231936e+00
   endloop
 endfacet
 facet normal  1.635790e-01 -9.318388e-01 -3.239111e-01
   outer loop
     vertex -1.002336e+00  2.795893e+00  6.886821e+00
     vertex  6.698553e+00  1.565563e+00  1.431532e+01
     vertex  2.215348e+00  1.787448e-01  1.604089e+01
   endloop
 endfacet
 facet normal  1.635790e-01 -9.318388e-01 -3.239111e-01
   outer loop
     vertex  2.584229e+00  3.905347e+00  5.506362e+00
     vertex  6.698553e+00  1.565563e+00  1.431532e+01
     vertex -1.002336e+00  2.795893e+00  6.886821e+00
   endloop
 endfacet
 facet normal -4.114324e-01  2.339784e-01 -8.808958e-01
   outer loop
     vertex -1.002336e+00  2.795893e+00  6.886821e+00
     vertex -1.898977e+00  2.518529e+00  7.231936e+00
     vertex -2.062556e+00  3.450368e+00  7.555847e+00
   endloop
 endfacet
 facet normal -4.114324e-01  2.339784e-01 -8.808958e-01
   outer loop
     vertex -1.002336e+00  2.795893e+00  6.886821e+00
     vertex -2.062556e+00  3.450368e+00  7.555847e+00
     vertex -1.165915e+00  3.727732e+00  7.210732e+00
   endloop
 endfacet
 facet normal -8.966411e-01 -2.773636e-01  3.451147e-01
   outer loop
     vertex -2.062556e+00  3.450368e+00  7.555847e+00
     vertex  2.215348e+00  1.787448e-01  1.604089e+01
     vertex  2.051769e+00  1.110584e+00  1.636481e+01
   endloop
 endfacet
 facet normal -8.966411e-01 -2.773636e-01  3.451147e-01
   outer loop
     vertex -2.062556e+00  3.450368e+00  7.555847e+00
     vertex -1.898977e+00  2.518529e+00  7.231936e+00
     vertex  2.215348e+00  1.787448e-01  1.604089e+01
   endloop
 endfacet
 facet normal  8.966411e-01  2.773636e-01 -3.451147e-01
   outer loop
     vertex  2.420650e+00  4.837186e+00  5.830273e+00
     vertex  6.534974e+00  2.497402e+00  1.463923e+01
     vertex  6.698553e+00  1.565563e+00  1.431532e+01
   endloop
 endfacet
 facet normal  8.966411e-01  2.773636e-01 -3.451147e-01
   outer loop
     vertex  2.420650e+00  4.837186e+00  5.830273e+00
     vertex  6.698553e+00  1.565563e+00  1.431532e+01
     vertex  2.584229e+00  3.905347e+00  5.506362e+00
   endloop
 endfacet
 facet normal  4.114324e-01 -2.339784e-01  8.808958e-01
   outer loop
     vertex  6.698553e+00  1.565563e+00  1.431532e+01
     vertex  2.051769e+00  1.110584e+00  1.636481e+01
     vertex  2.215348e+00  1.787448e-01  1.604089e+01
   endloop
 endfacet
 facet normal  4.114324e-01 -2.339784e-01  8.808958e-01
   outer loop
     vertex  6.698553e+00  1.565563e+00  1.431532e+01
     vertex  6.534974e+00  2.497402e+00  1.463923e+01
     vertex  2.051769e+00  1.110584e+00  1.636481e+01
   endloop
 endfacet
endsolid
