solid 
 facet normal  4.749617e-16  1.000000e+00  0.000000e+00
   outer loop
     vertex  2.032500e+00  2.967500e+00  2.175000e-01
     vertex  2.967500e+00  2.967500e+00 -2.175000e-01
     vertex  2.032500e+00  2.967500e+00 -2.175000e-01
   endloop
 endfacet
 facet normal  4.749617e-16  1.000000e+00  0.000000e+00
   outer loop
     vertex  2.032500e+00  2.967500e+00  2.175000e-01
     vertex  2.967500e+00  2.967500e+00  2.175000e-01
     vertex  2.967500e+00  2.967500e+00 -2.175000e-01
   endloop
 endfacet
 facet normal -4.749617e-16 -1.000000e+00 -0.000000e+00
   outer loop
     vertex  2.032500e+00  1.532500e+00  2.175000e-01
     vertex  2.032500e+00  1.532500e+00 -2.175000e-01
     vertex  2.967500e+00  1.532500e+00 -2.175000e-01
   endloop
 endfacet
 facet normal -4.749617e-16 -1.000000e+00  0.000000e+00
   outer loop
     vertex  2.032500e+00  1.532500e+00  2.175000e-01
     vertex  2.967500e+00  1.532500e+00 -2.175000e-01
     vertex  2.967500e+00  1.532500e+00  2.175000e-01
   endloop
 endfacet
 facet normal -1.000000e+00  6.189397e-16  0.000000e+00
   outer loop
     vertex  2.032500e+00  1.532500e+00  2.175000e-01
     vertex  2.032500e+00  2.967500e+00 -2.175000e-01
     vertex  2.032500e+00  1.532500e+00 -2.175000e-01
   endloop
 endfacet
 facet normal -1.000000e+00  6.189397e-16  0.000000e+00
   outer loop
     vertex  2.032500e+00  1.532500e+00  2.175000e-01
     vertex  2.032500e+00  2.967500e+00  2.175000e-01
     vertex  2.032500e+00  2.967500e+00 -2.175000e-01
   endloop
 endfacet
 facet normal  1.000000e+00 -3.094698e-16  0.000000e+00
   outer loop
     vertex  2.967500e+00  1.532500e+00  2.175000e-01
     vertex  2.967500e+00  1.532500e+00 -2.175000e-01
     vertex  2.967500e+00  2.967500e+00 -2.175000e-01
   endloop
 endfacet
 facet normal  1.000000e+00 -3.094698e-16  0.000000e+00
   outer loop
     vertex  2.967500e+00  1.532500e+00  2.175000e-01
     vertex  2.967500e+00  2.967500e+00 -2.175000e-01
     vertex  2.967500e+00  2.967500e+00  2.175000e-01
   endloop
 endfacet
 facet normal  0.000000e+00  0.000000e+00 -1.000000e+00
   outer loop
     vertex  2.967500e+00  1.532500e+00 -2.175000e-01
     vertex  2.032500e+00  2.967500e+00 -2.175000e-01
     vertex  2.967500e+00  2.967500e+00 -2.175000e-01
   endloop
 endfacet
 facet normal  0.000000e+00  0.000000e+00 -1.000000e+00
   outer loop
     vertex  2.967500e+00  1.532500e+00 -2.175000e-01
     vertex  2.032500e+00  1.532500e+00 -2.175000e-01
     vertex  2.032500e+00  2.967500e+00 -2.175000e-01
   endloop
 endfacet
 facet normal  0.000000e+00 -0.000000e+00  1.000000e+00
   outer loop
     vertex  2.967500e+00  1.532500e+00  2.175000e-01
     vertex  2.967500e+00  2.967500e+00  2.175000e-01
     vertex  2.032500e+00  2.967500e+00  2.175000e-01
   endloop
 endfacet
 facet normal  0.000000e+00  0.000000e+00  1.000000e+00
   outer loop
     vertex  2.967500e+00  1.532500e+00  2.175000e-01
     vertex  2.032500e+00  2.967500e+00  2.175000e-01
     vertex  2.032500e+00  1.532500e+00  2.175000e-01
   endloop
 endfacet
 facet normal  0.000000e+00  1.000000e+00  0.000000e+00
   outer loop
     vertex  1.032500e+00  2.967500e+00  2.175000e-01
     vertex  1.967500e+00  2.967500e+00 -2.175000e-01
     vertex  1.032500e+00  2.967500e+00 -2.175000e-01
   endloop
 endfacet
 facet normal -0.000000e+00  1.000000e+00  0.000000e+00
   outer loop
     vertex  1.032500e+00  2.967500e+00  2.175000e-01
     vertex  1.967500e+00  2.967500e+00  2.175000e-01
     vertex  1.967500e+00  2.967500e+00 -2.175000e-01
   endloop
 endfacet
 facet normal -7.124426e-16 -1.000000e+00 -0.000000e+00
   outer loop
     vertex  1.032500e+00  1.532500e+00  2.175000e-01
     vertex  1.032500e+00  1.532500e+00 -2.175000e-01
     vertex  1.967500e+00  1.532500e+00 -2.175000e-01
   endloop
 endfacet
 facet normal -7.124426e-16 -1.000000e+00  0.000000e+00
   outer loop
     vertex  1.032500e+00  1.532500e+00  2.175000e-01
     vertex  1.967500e+00  1.532500e+00 -2.175000e-01
     vertex  1.967500e+00  1.532500e+00  2.175000e-01
   endloop
 endfacet
 facet normal -1.000000e+00  1.547349e-16  0.000000e+00
   outer loop
     vertex  1.032500e+00  1.532500e+00  2.175000e-01
     vertex  1.032500e+00  2.967500e+00 -2.175000e-01
     vertex  1.032500e+00  1.532500e+00 -2.175000e-01
   endloop
 endfacet
 facet normal -1.000000e+00  1.547349e-16  0.000000e+00
   outer loop
     vertex  1.032500e+00  1.532500e+00  2.175000e-01
     vertex  1.032500e+00  2.967500e+00  2.175000e-01
     vertex  1.032500e+00  2.967500e+00 -2.175000e-01
   endloop
 endfacet
 facet normal  1.000000e+00 -3.094698e-16  0.000000e+00
   outer loop
     vertex  1.967500e+00  1.532500e+00  2.175000e-01
     vertex  1.967500e+00  1.532500e+00 -2.175000e-01
     vertex  1.967500e+00  2.967500e+00 -2.175000e-01
   endloop
 endfacet
 facet normal  1.000000e+00 -3.094698e-16  0.000000e+00
   outer loop
     vertex  1.967500e+00  1.532500e+00  2.175000e-01
     vertex  1.967500e+00  2.967500e+00 -2.175000e-01
     vertex  1.967500e+00  2.967500e+00  2.175000e-01
   endloop
 endfacet
 facet normal  0.000000e+00  0.000000e+00 -1.000000e+00
   outer loop
     vertex  1.967500e+00  1.532500e+00 -2.175000e-01
     vertex  1.032500e+00  2.967500e+00 -2.175000e-01
     vertex  1.967500e+00  2.967500e+00 -2.175000e-01
   endloop
 endfacet
 facet normal  0.000000e+00  0.000000e+00 -1.000000e+00
   outer loop
     vertex  1.967500e+00  1.532500e+00 -2.175000e-01
     vertex  1.032500e+00  1.532500e+00 -2.175000e-01
     vertex  1.032500e+00  2.967500e+00 -2.175000e-01
   endloop
 endfacet
 facet normal  0.000000e+00 -0.000000e+00  1.000000e+00
   outer loop
     vertex  1.967500e+00  1.532500e+00  2.175000e-01
     vertex  1.967500e+00  2.967500e+00  2.175000e-01
     vertex  1.032500e+00  2.967500e+00  2.175000e-01
   endloop
 endfacet
 facet normal  0.000000e+00  0.000000e+00  1.000000e+00
   outer loop
     vertex  1.967500e+00  1.532500e+00  2.175000e-01
     vertex  1.032500e+00  2.967500e+00  2.175000e-01
     vertex  1.032500e+00  1.532500e+00  2.175000e-01
   endloop
 endfacet
endsolid
