solid 
 facet normal  0.000000e+00  1.000000e+00  0.000000e+00
   outer loop
     vertex  4.099999e+00  2.085483e+01  5.000000e+00
     vertex  4.700000e+00  2.085483e+01  0.000000e+00
     vertex  4.099999e+00  2.085483e+01  0.000000e+00
   endloop
 endfacet
 facet normal -0.000000e+00  1.000000e+00  0.000000e+00
   outer loop
     vertex  4.099999e+00  2.085483e+01  5.000000e+00
     vertex  4.700000e+00  2.085483e+01  5.000000e+00
     vertex  4.700000e+00  2.085483e+01  0.000000e+00
   endloop
 endfacet
 facet normal -1.000000e+00  0.000000e+00  0.000000e+00
   outer loop
     vertex  4.099999e+00  2.000000e+01  5.000000e+00
     vertex  4.099999e+00  2.085483e+01  0.000000e+00
     vertex  4.099999e+00  2.000000e+01  0.000000e+00
   endloop
 endfacet
 facet normal -1.000000e+00  0.000000e+00  0.000000e+00
   outer loop
     vertex  4.099999e+00  2.000000e+01  5.000000e+00
     vertex  4.099999e+00  2.085483e+01  5.000000e+00
     vertex  4.099999e+00  2.085483e+01  0.000000e+00
   endloop
 endfacet
 facet normal  0.000000e+00 -0.000000e+00  1.000000e+00
   outer loop
     vertex  4.700000e+00  2.000000e+01  5.000000e+00
     vertex  4.700000e+00  2.085483e+01  5.000000e+00
     vertex  4.099999e+00  2.085483e+01  5.000000e+00
   endloop
 endfacet
 facet normal  0.000000e+00  0.000000e+00  1.000000e+00
   outer loop
     vertex  4.700000e+00  2.000000e+01  5.000000e+00
     vertex  4.099999e+00  2.085483e+01  5.000000e+00
     vertex  4.099999e+00  2.000000e+01  5.000000e+00
   endloop
 endfacet
 facet normal  1.000000e+00  0.000000e+00  0.000000e+00
   outer loop
     vertex  4.700000e+00  2.000000e+01  5.000000e+00
     vertex  4.700000e+00  2.000000e+01  0.000000e+00
     vertex  4.700000e+00  2.085483e+01  0.000000e+00
   endloop
 endfacet
 facet normal  1.000000e+00 -0.000000e+00  0.000000e+00
   outer loop
     vertex  4.700000e+00  2.000000e+01  5.000000e+00
     vertex  4.700000e+00  2.085483e+01  0.000000e+00
     vertex  4.700000e+00  2.085483e+01  5.000000e+00
   endloop
 endfacet
 facet normal  0.000000e+00  0.000000e+00 -1.000000e+00
   outer loop
     vertex  4.700000e+00  2.000000e+01  0.000000e+00
     vertex  4.099999e+00  2.085483e+01  0.000000e+00
     vertex  4.700000e+00  2.085483e+01  0.000000e+00
   endloop
 endfacet
 facet normal  0.000000e+00  0.000000e+00 -1.000000e+00
   outer loop
     vertex  4.700000e+00  2.000000e+01  0.000000e+00
     vertex  4.099999e+00  2.000000e+01  0.000000e+00
     vertex  4.099999e+00  2.085483e+01  0.000000e+00
   endloop
 endfacet
 facet normal  0.000000e+00  1.000000e+00  0.000000e+00
   outer loop
     vertex  4.099999e+00  2.000000e+01  0.000000e+00
     vertex  0.000000e+00  2.000000e+01  0.000000e+00
     vertex  0.000000e+00  2.000000e+01  5.000000e+00
   endloop
 endfacet
 facet normal  0.000000e+00  1.000000e+00 -0.000000e+00
   outer loop
     vertex  4.099999e+00  2.000000e+01  0.000000e+00
     vertex  0.000000e+00  2.000000e+01  5.000000e+00
     vertex  4.099999e+00  2.000000e+01  5.000000e+00
   endloop
 endfacet
 facet normal  0.000000e+00 -0.000000e+00  1.000000e+00
   outer loop
     vertex  4.700000e+00  1.960000e+01  5.000000e+00
     vertex  4.700000e+00  2.000000e+01  5.000000e+00
     vertex  4.099999e+00  2.000000e+01  5.000000e+00
   endloop
 endfacet
 facet normal  0.000000e+00  0.000000e+00  1.000000e+00
   outer loop
     vertex  4.700000e+00  1.960000e+01  5.000000e+00
     vertex  4.099999e+00  2.000000e+01  5.000000e+00
     vertex  4.099999e+00  1.960000e+01  5.000000e+00
   endloop
 endfacet
 facet normal  0.000000e+00  1.000000e+00  0.000000e+00
   outer loop
     vertex  2.000000e+01  2.000000e+01  5.000000e+00
     vertex  4.700000e+00  2.000000e+01  0.000000e+00
     vertex  4.700000e+00  2.000000e+01  5.000000e+00
   endloop
 endfacet
 facet normal  0.000000e+00  1.000000e+00 -0.000000e+00
   outer loop
     vertex  2.000000e+01  2.000000e+01  0.000000e+00
     vertex  4.700000e+00  2.000000e+01  0.000000e+00
     vertex  2.000000e+01  2.000000e+01  5.000000e+00
   endloop
 endfacet
 facet normal  0.000000e+00  0.000000e+00 -1.000000e+00
   outer loop
     vertex  4.700000e+00  1.960000e+01  0.000000e+00
     vertex  4.099999e+00  2.000000e+01  0.000000e+00
     vertex  4.700000e+00  2.000000e+01  0.000000e+00
   endloop
 endfacet
 facet normal  0.000000e+00  0.000000e+00 -1.000000e+00
   outer loop
     vertex  4.700000e+00  1.960000e+01  0.000000e+00
     vertex  4.099999e+00  1.960000e+01  0.000000e+00
     vertex  4.099999e+00  2.000000e+01  0.000000e+00
   endloop
 endfacet
 facet normal  0.000000e+00  0.000000e+00 -1.000000e+00
   outer loop
     vertex  4.000000e-01  1.960000e+01  0.000000e+00
     vertex  4.099999e+00  2.000000e+01  0.000000e+00
     vertex  4.099999e+00  1.960000e+01  0.000000e+00
   endloop
 endfacet
 facet normal  0.000000e+00  0.000000e+00 -1.000000e+00
   outer loop
     vertex  0.000000e+00  2.000000e+01  0.000000e+00
     vertex  4.000000e-01  1.960000e+01  0.000000e+00
     vertex  0.000000e+00  1.960000e+01  0.000000e+00
   endloop
 endfacet
 facet normal  0.000000e+00  0.000000e+00 -1.000000e+00
   outer loop
     vertex  0.000000e+00  2.000000e+01  0.000000e+00
     vertex  4.099999e+00  2.000000e+01  0.000000e+00
     vertex  4.000000e-01  1.960000e+01  0.000000e+00
   endloop
 endfacet
 facet normal -2.400483e-16 -5.330143e-31  1.000000e+00
   outer loop
     vertex  4.000000e-01  1.960000e+01  5.000000e+00
     vertex  4.099999e+00  1.960000e+01  5.000000e+00
     vertex  4.099999e+00  2.000000e+01  5.000000e+00
   endloop
 endfacet
 facet normal  2.220446e-15  0.000000e+00  1.000000e+00
   outer loop
     vertex  0.000000e+00  2.000000e+01  5.000000e+00
     vertex  0.000000e+00  1.960000e+01  5.000000e+00
     vertex  4.000000e-01  1.960000e+01  5.000000e+00
   endloop
 endfacet
 facet normal  0.000000e+00 -2.220446e-15  1.000000e+00
   outer loop
     vertex  0.000000e+00  2.000000e+01  5.000000e+00
     vertex  4.000000e-01  1.960000e+01  5.000000e+00
     vertex  4.099999e+00  2.000000e+01  5.000000e+00
   endloop
 endfacet
 facet normal -1.000000e+00  0.000000e+00  0.000000e+00
   outer loop
     vertex  0.000000e+00  2.000000e+01  0.000000e+00
     vertex  0.000000e+00  1.960000e+01  0.000000e+00
     vertex  0.000000e+00  1.960000e+01  5.000000e+00
   endloop
 endfacet
 facet normal -1.000000e+00  0.000000e+00  0.000000e+00
   outer loop
     vertex  0.000000e+00  2.000000e+01  0.000000e+00
     vertex  0.000000e+00  1.960000e+01  5.000000e+00
     vertex  0.000000e+00  2.000000e+01  5.000000e+00
   endloop
 endfacet
 facet normal -2.220447e-15 -9.917693e-22  1.000000e+00
   outer loop
     vertex  2.000000e+01  2.000000e+01  5.000000e+00
     vertex  1.960000e+01  1.960000e+01  5.000000e+00
     vertex  2.000000e+01  1.960000e+01  5.000000e+00
   endloop
 endfacet
 facet normal  5.960929e-17 -1.323592e-31  1.000000e+00
   outer loop
     vertex  4.700000e+00  2.000000e+01  5.000000e+00
     vertex  4.700000e+00  1.960000e+01  5.000000e+00
     vertex  1.960000e+01  1.960000e+01  5.000000e+00
   endloop
 endfacet
 facet normal  0.000000e+00 -2.220446e-15  1.000000e+00
   outer loop
     vertex  4.700000e+00  2.000000e+01  5.000000e+00
     vertex  1.960000e+01  1.960000e+01  5.000000e+00
     vertex  2.000000e+01  2.000000e+01  5.000000e+00
   endloop
 endfacet
 facet normal  0.000000e+00  0.000000e+00  1.000000e+00
   outer loop
     vertex  4.700000e+00  1.500000e+01  5.000000e+00
     vertex  4.700000e+00  1.960000e+01  5.000000e+00
     vertex  4.099999e+00  1.960000e+01  5.000000e+00
   endloop
 endfacet
 facet normal  0.000000e+00  0.000000e+00  1.000000e+00
   outer loop
     vertex  4.700000e+00  1.500000e+01  5.000000e+00
     vertex  4.099999e+00  1.960000e+01  5.000000e+00
     vertex  4.099999e+00  1.500000e+01  5.000000e+00
   endloop
 endfacet
 facet normal  0.000000e+00 -0.000000e+00 -1.000000e+00
   outer loop
     vertex  2.000000e+01  2.000000e+01  0.000000e+00
     vertex  2.000000e+01  1.960000e+01  0.000000e+00
     vertex  1.960000e+01  1.960000e+01  0.000000e+00
   endloop
 endfacet
 facet normal  0.000000e+00 -0.000000e+00 -1.000000e+00
   outer loop
     vertex  4.700000e+00  2.000000e+01  0.000000e+00
     vertex  1.960000e+01  1.960000e+01  0.000000e+00
     vertex  4.700000e+00  1.960000e+01  0.000000e+00
   endloop
 endfacet
 facet normal  0.000000e+00  0.000000e+00 -1.000000e+00
   outer loop
     vertex  4.700000e+00  2.000000e+01  0.000000e+00
     vertex  2.000000e+01  2.000000e+01  0.000000e+00
     vertex  1.960000e+01  1.960000e+01  0.000000e+00
   endloop
 endfacet
 facet normal  1.000000e+00  4.717428e-07  0.000000e+00
   outer loop
     vertex  2.000000e+01  1.960000e+01  0.000000e+00
     vertex  2.000000e+01  2.000000e+01  0.000000e+00
     vertex  2.000000e+01  2.000000e+01  5.000000e+00
   endloop
 endfacet
 facet normal  1.000000e+00  4.466530e-07  2.007187e-09
   outer loop
     vertex  2.000000e+01  1.960000e+01  0.000000e+00
     vertex  2.000000e+01  2.000000e+01  5.000000e+00
     vertex  2.000000e+01  1.960000e+01  5.000000e+00
   endloop
 endfacet
 facet normal  0.000000e+00  0.000000e+00 -1.000000e+00
   outer loop
     vertex  4.700000e+00  1.500000e+01  0.000000e+00
     vertex  4.099999e+00  1.960000e+01  0.000000e+00
     vertex  4.700000e+00  1.960000e+01  0.000000e+00
   endloop
 endfacet
 facet normal  0.000000e+00  0.000000e+00 -1.000000e+00
   outer loop
     vertex  4.700000e+00  1.500000e+01  0.000000e+00
     vertex  4.099999e+00  1.500000e+01  0.000000e+00
     vertex  4.099999e+00  1.960000e+01  0.000000e+00
   endloop
 endfacet
 facet normal  0.000000e+00  0.000000e+00 -1.000000e+00
   outer loop
     vertex  4.000000e-01  1.960000e+01  0.000000e+00
     vertex  1.880758e-07  1.500000e+01  0.000000e+00
     vertex  0.000000e+00  1.960000e+01  0.000000e+00
   endloop
 endfacet
 facet normal  0.000000e+00 -0.000000e+00 -1.000000e+00
   outer loop
     vertex  4.000000e-01  1.960000e+01  0.000000e+00
     vertex  4.000004e-01  1.500000e+01  0.000000e+00
     vertex  1.880758e-07  1.500000e+01  0.000000e+00
   endloop
 endfacet
 facet normal -8.161937e-09 -1.000000e+00  0.000000e+00
   outer loop
     vertex  4.000000e-01  1.960000e+01  0.000000e+00
     vertex  4.099999e+00  1.960000e+01  0.000000e+00
     vertex  4.099999e+00  1.960000e+01  5.000000e+00
   endloop
 endfacet
 facet normal -8.161937e-09 -1.000000e+00  0.000000e+00
   outer loop
     vertex  4.000000e-01  1.960000e+01  0.000000e+00
     vertex  4.099999e+00  1.960000e+01  5.000000e+00
     vertex  4.000000e-01  1.960000e+01  5.000000e+00
   endloop
 endfacet
 facet normal  0.000000e+00  0.000000e+00  1.000000e+00
   outer loop
     vertex  4.000000e-01  1.960000e+01  5.000000e+00
     vertex  3.472903e-07  1.500000e+01  5.000000e+00
     vertex  4.000004e-01  1.500000e+01  5.000000e+00
   endloop
 endfacet
 facet normal  2.220446e-15 -1.930821e-16  1.000000e+00
   outer loop
     vertex  4.000000e-01  1.960000e+01  5.000000e+00
     vertex  0.000000e+00  1.960000e+01  5.000000e+00
     vertex  3.472903e-07  1.500000e+01  5.000000e+00
   endloop
 endfacet
 facet normal -1.000000e+00 -4.088604e-08  3.184291e-08
   outer loop
     vertex  0.000000e+00  1.960000e+01  0.000000e+00
     vertex  1.880758e-07  1.500000e+01  0.000000e+00
     vertex  3.472903e-07  1.500000e+01  5.000000e+00
   endloop
 endfacet
 facet normal -1.000000e+00 -7.549790e-08  0.000000e+00
   outer loop
     vertex  0.000000e+00  1.960000e+01  0.000000e+00
     vertex  3.472903e-07  1.500000e+01  5.000000e+00
     vertex  0.000000e+00  1.960000e+01  5.000000e+00
   endloop
 endfacet
 facet normal  0.000000e+00 -1.000000e+00  0.000000e+00
   outer loop
     vertex  4.700000e+00  1.960000e+01  0.000000e+00
     vertex  1.960000e+01  1.960000e+01  0.000000e+00
     vertex  1.960000e+01  1.960000e+01  5.000000e+00
   endloop
 endfacet
 facet normal  0.000000e+00 -1.000000e+00  0.000000e+00
   outer loop
     vertex  4.700000e+00  1.960000e+01  0.000000e+00
     vertex  1.960000e+01  1.960000e+01  5.000000e+00
     vertex  4.700000e+00  1.960000e+01  5.000000e+00
   endloop
 endfacet
 facet normal  1.571607e-17 -1.930823e-16  1.000000e+00
   outer loop
     vertex  2.000000e+01  1.960000e+01  5.000000e+00
     vertex  2.000000e+01  1.500000e+01  5.000000e+00
     vertex  2.000000e+01  1.500000e+01  5.000000e+00
   endloop
 endfacet
 facet normal -1.429001e-23 -1.930823e-16  1.000000e+00
   outer loop
     vertex  2.000000e+01  1.960000e+01  5.000000e+00
     vertex  1.960000e+01  1.500000e+01  5.000000e+00
     vertex  2.000000e+01  1.500000e+01  5.000000e+00
   endloop
 endfacet
 facet normal -2.220447e-15 -1.676391e-22  1.000000e+00
   outer loop
     vertex  2.000000e+01  1.960000e+01  5.000000e+00
     vertex  1.960000e+01  1.960000e+01  5.000000e+00
     vertex  1.960000e+01  1.500000e+01  5.000000e+00
   endloop
 endfacet
 facet normal  1.000000e+00  1.930823e-16  0.000000e+00
   outer loop
     vertex  4.700000e+00  1.500000e+01  5.000000e+00
     vertex  4.700000e+00  1.500000e+01  0.000000e+00
     vertex  4.700000e+00  1.960000e+01  0.000000e+00
   endloop
 endfacet
 facet normal  1.000000e+00  1.930823e-16  0.000000e+00
   outer loop
     vertex  4.700000e+00  1.500000e+01  5.000000e+00
     vertex  4.700000e+00  1.960000e+01  0.000000e+00
     vertex  4.700000e+00  1.960000e+01  5.000000e+00
   endloop
 endfacet
 facet normal -7.549790e-08  1.000000e+00  2.235174e-08
   outer loop
     vertex  4.000004e-01  1.500000e+01  5.000000e+00
     vertex  3.472903e-07  1.500000e+01  5.000000e+00
     vertex  0.000000e+00  1.500000e+01  9.000000e+00
   endloop
 endfacet
 facet normal  3.232600e-08  1.000000e+00  3.313414e-08
   outer loop
     vertex  4.099999e+00  1.500000e+01  5.000000e+00
     vertex  4.000004e-01  1.500000e+01  5.000000e+00
     vertex  0.000000e+00  1.500000e+01  9.000000e+00
   endloop
 endfacet
 facet normal  0.000000e+00  1.000000e+00  0.000000e+00
   outer loop
     vertex  4.700000e+00  1.500000e+01  5.000000e+00
     vertex  4.099999e+00  1.500000e+01  5.000000e+00
     vertex  0.000000e+00  1.500000e+01  9.000000e+00
   endloop
 endfacet
 facet normal  3.232600e-08  1.000000e+00  0.000000e+00
   outer loop
     vertex  4.099999e+00  1.500000e+01  0.000000e+00
     vertex  4.000004e-01  1.500000e+01  0.000000e+00
     vertex  4.000004e-01  1.500000e+01  5.000000e+00
   endloop
 endfacet
 facet normal  3.232600e-08  1.000000e+00 -0.000000e+00
   outer loop
     vertex  4.099999e+00  1.500000e+01  0.000000e+00
     vertex  4.000004e-01  1.500000e+01  5.000000e+00
     vertex  4.099999e+00  1.500000e+01  5.000000e+00
   endloop
 endfacet
 facet normal  0.000000e+00  1.000000e+00  0.000000e+00
   outer loop
     vertex  2.000000e+01  1.500000e+01  9.000000e+00
     vertex  4.700000e+00  1.500000e+01  5.000000e+00
     vertex  0.000000e+00  1.500000e+01  9.000000e+00
   endloop
 endfacet
 facet normal -6.000468e-09  1.000000e+00  0.000000e+00
   outer loop
     vertex  1.960000e+01  1.500000e+01  5.000000e+00
     vertex  4.700000e+00  1.500000e+01  0.000000e+00
     vertex  4.700000e+00  1.500000e+01  5.000000e+00
   endloop
 endfacet
 facet normal -6.000468e-09  1.000000e+00  2.295179e-08
   outer loop
     vertex  1.960000e+01  1.500000e+01  5.000000e+00
     vertex  4.700000e+00  1.500000e+01  5.000000e+00
     vertex  2.000000e+01  1.500000e+01  9.000000e+00
   endloop
 endfacet
 facet normal  7.400997e-08  1.000000e+00  1.495076e-08
   outer loop
     vertex  2.000000e+01  1.500000e+01  5.000000e+00
     vertex  1.960000e+01  1.500000e+01  5.000000e+00
     vertex  2.000000e+01  1.500000e+01  9.000000e+00
   endloop
 endfacet
 facet normal -6.000468e-09  1.000000e+00  0.000000e+00
   outer loop
     vertex  1.960000e+01  1.500000e+01  0.000000e+00
     vertex  4.700000e+00  1.500000e+01  0.000000e+00
     vertex  1.960000e+01  1.500000e+01  5.000000e+00
   endloop
 endfacet
 facet normal -1.000000e+00  1.930823e-16  0.000000e+00
   outer loop
     vertex  4.099999e+00  1.500000e+01  5.000000e+00
     vertex  4.099999e+00  1.960000e+01  0.000000e+00
     vertex  4.099999e+00  1.500000e+01  0.000000e+00
   endloop
 endfacet
 facet normal -1.000000e+00  1.930823e-16  0.000000e+00
   outer loop
     vertex  4.099999e+00  1.500000e+01  5.000000e+00
     vertex  4.099999e+00  1.960000e+01  5.000000e+00
     vertex  4.099999e+00  1.960000e+01  0.000000e+00
   endloop
 endfacet
 facet normal  0.000000e+00  0.000000e+00 -1.000000e+00
   outer loop
     vertex  2.000000e+01  1.500000e+01  0.000000e+00
     vertex  2.000000e+01  1.500000e+01  0.000000e+00
     vertex  1.960000e+01  1.500000e+01  0.000000e+00
   endloop
 endfacet
 facet normal  0.000000e+00  0.000000e+00 -1.000000e+00
   outer loop
     vertex  2.000000e+01  1.960000e+01  0.000000e+00
     vertex  1.960000e+01  1.500000e+01  0.000000e+00
     vertex  1.960000e+01  1.960000e+01  0.000000e+00
   endloop
 endfacet
 facet normal  0.000000e+00 -0.000000e+00 -1.000000e+00
   outer loop
     vertex  2.000000e+01  1.960000e+01  0.000000e+00
     vertex  2.000000e+01  1.500000e+01  0.000000e+00
     vertex  1.960000e+01  1.500000e+01  0.000000e+00
   endloop
 endfacet
 facet normal  1.000000e+00  1.187007e-07  2.007187e-09
   outer loop
     vertex  2.000000e+01  1.500000e+01  0.000000e+00
     vertex  2.000000e+01  1.960000e+01  0.000000e+00
     vertex  2.000000e+01  1.960000e+01  5.000000e+00
   endloop
 endfacet
 facet normal  1.000000e+00  1.208825e-07 -0.000000e+00
   outer loop
     vertex  2.000000e+01  1.500000e+01  0.000000e+00
     vertex  2.000000e+01  1.960000e+01  5.000000e+00
     vertex  2.000000e+01  1.500000e+01  5.000000e+00
   endloop
 endfacet
 facet normal  0.000000e+00  0.000000e+00 -1.000000e+00
   outer loop
     vertex  4.700000e+00  1.485483e+01  0.000000e+00
     vertex  4.099999e+00  1.500000e+01  0.000000e+00
     vertex  4.700000e+00  1.500000e+01  0.000000e+00
   endloop
 endfacet
 facet normal  0.000000e+00  0.000000e+00 -1.000000e+00
   outer loop
     vertex  4.700000e+00  1.485483e+01  0.000000e+00
     vertex  4.099999e+00  1.485483e+01  0.000000e+00
     vertex  4.099999e+00  1.500000e+01  0.000000e+00
   endloop
 endfacet
 facet normal  1.000000e+00  7.549790e-08  0.000000e+00
   outer loop
     vertex  4.000004e-01  1.500000e+01  0.000000e+00
     vertex  4.000000e-01  1.960000e+01  0.000000e+00
     vertex  4.000000e-01  1.960000e+01  5.000000e+00
   endloop
 endfacet
 facet normal  1.000000e+00  7.549790e-08 -0.000000e+00
   outer loop
     vertex  4.000004e-01  1.500000e+01  0.000000e+00
     vertex  4.000000e-01  1.960000e+01  5.000000e+00
     vertex  4.000004e-01  1.500000e+01  5.000000e+00
   endloop
 endfacet
 facet normal  0.000000e+00  0.000000e+00 -1.000000e+00
   outer loop
     vertex  1.960000e+01  1.500000e+01  0.000000e+00
     vertex  2.000000e+01  1.500000e+01  0.000000e+00
     vertex  2.000000e+01  1.460000e+01  0.000000e+00
   endloop
 endfacet
 facet normal  0.000000e+00 -0.000000e+00 -1.000000e+00
   outer loop
     vertex  1.960000e+01  1.500000e+01  0.000000e+00
     vertex  2.000000e+01  1.460000e+01  0.000000e+00
     vertex  1.960000e+01  1.460000e+01  0.000000e+00
   endloop
 endfacet
 facet normal  0.000000e+00  0.000000e+00 -1.000000e+00
   outer loop
     vertex  4.700000e+00  1.485483e+01  0.000000e+00
     vertex  1.960000e+01  1.500000e+01  0.000000e+00
     vertex  1.960000e+01  1.460000e+01  0.000000e+00
   endloop
 endfacet
 facet normal  0.000000e+00  0.000000e+00 -1.000000e+00
   outer loop
     vertex  4.700000e+00  1.500000e+01  0.000000e+00
     vertex  1.960000e+01  1.500000e+01  0.000000e+00
     vertex  4.700000e+00  1.485483e+01  0.000000e+00
   endloop
 endfacet
 facet normal  0.000000e+00  0.000000e+00 -1.000000e+00
   outer loop
     vertex  4.000000e-01  1.460000e+01  0.000000e+00
     vertex  4.099999e+00  1.485483e+01  0.000000e+00
     vertex  4.700000e+00  1.485483e+01  0.000000e+00
   endloop
 endfacet
 facet normal  0.000000e+00  0.000000e+00 -1.000000e+00
   outer loop
     vertex  4.000000e-01  1.460000e+01  0.000000e+00
     vertex  4.700000e+00  1.485483e+01  0.000000e+00
     vertex  1.960000e+01  1.460000e+01  0.000000e+00
   endloop
 endfacet
 facet normal  0.000000e+00  0.000000e+00 -1.000000e+00
   outer loop
     vertex  4.000004e-01  1.500000e+01  0.000000e+00
     vertex  4.099999e+00  1.500000e+01  0.000000e+00
     vertex  4.099999e+00  1.485483e+01  0.000000e+00
   endloop
 endfacet
 facet normal  0.000000e+00 -0.000000e+00 -1.000000e+00
   outer loop
     vertex  4.000004e-01  1.500000e+01  0.000000e+00
     vertex  4.099999e+00  1.485483e+01  0.000000e+00
     vertex  4.000000e-01  1.460000e+01  0.000000e+00
   endloop
 endfacet
 facet normal  0.000000e+00 -0.000000e+00 -1.000000e+00
   outer loop
     vertex  1.880758e-07  1.500000e+01  0.000000e+00
     vertex  4.000000e-01  1.460000e+01  0.000000e+00
     vertex  0.000000e+00  1.460000e+01  0.000000e+00
   endloop
 endfacet
 facet normal  0.000000e+00  0.000000e+00 -1.000000e+00
   outer loop
     vertex  1.880758e-07  1.500000e+01  0.000000e+00
     vertex  4.000004e-01  1.500000e+01  0.000000e+00
     vertex  4.000000e-01  1.460000e+01  0.000000e+00
   endloop
 endfacet
 facet normal -1.000000e+00  0.000000e+00 -8.682258e-08
   outer loop
     vertex  3.472903e-07  1.500000e+01  5.000000e+00
     vertex  0.000000e+00  1.460000e+01  9.000000e+00
     vertex  0.000000e+00  1.500000e+01  9.000000e+00
   endloop
 endfacet
 facet normal -1.000000e+00  4.701894e-07  3.184290e-08
   outer loop
     vertex  1.880758e-07  1.500000e+01  0.000000e+00
     vertex  0.000000e+00  1.460000e+01  0.000000e+00
     vertex  3.472903e-07  1.500000e+01  5.000000e+00
   endloop
 endfacet
 facet normal -1.000000e+00  8.682256e-07  0.000000e+00
   outer loop
     vertex  0.000000e+00  1.460000e+01  0.000000e+00
     vertex  0.000000e+00  1.460000e+01  9.000000e+00
     vertex  3.472903e-07  1.500000e+01  5.000000e+00
   endloop
 endfacet
 facet normal -1.000000e+00 -7.549790e-08  0.000000e+00
   outer loop
     vertex  1.960000e+01  1.960000e+01  0.000000e+00
     vertex  1.960000e+01  1.500000e+01  0.000000e+00
     vertex  1.960000e+01  1.500000e+01  5.000000e+00
   endloop
 endfacet
 facet normal -1.000000e+00 -7.549790e-08  0.000000e+00
   outer loop
     vertex  1.960000e+01  1.960000e+01  0.000000e+00
     vertex  1.960000e+01  1.500000e+01  5.000000e+00
     vertex  1.960000e+01  1.960000e+01  5.000000e+00
   endloop
 endfacet
 facet normal  1.606762e-01 -9.870072e-01  0.000000e+00
   outer loop
     vertex  2.000000e+01  1.500000e+01  0.000000e+00
     vertex  2.000000e+01  1.500000e+01  0.000000e+00
     vertex  2.000000e+01  1.500000e+01  5.000000e+00
   endloop
 endfacet
 facet normal  8.112741e-02 -9.967037e-01  1.192118e-08
   outer loop
     vertex  2.000000e+01  1.500000e+01  0.000000e+00
     vertex  2.000000e+01  1.500000e+01  5.000000e+00
     vertex  2.000000e+01  1.500000e+01  5.000000e+00
   endloop
 endfacet
 facet normal  1.000000e+00  4.717428e-07  5.276557e-15
   outer loop
     vertex  2.000000e+01  1.500000e+01  5.000000e+00
     vertex  2.000000e+01  1.500000e+01  9.000000e+00
     vertex  2.000000e+01  1.460000e+01  9.000000e+00
   endloop
 endfacet
 facet normal  1.000000e+00  4.717428e-07 -4.221246e-15
   outer loop
     vertex  2.000000e+01  1.460000e+01  0.000000e+00
     vertex  2.000000e+01  1.500000e+01  0.000000e+00
     vertex  2.000000e+01  1.500000e+01  5.000000e+00
   endloop
 endfacet
 facet normal  1.000000e+00  4.717427e-07  0.000000e+00
   outer loop
     vertex  2.000000e+01  1.460000e+01  9.000000e+00
     vertex  2.000000e+01  1.460000e+01  0.000000e+00
     vertex  2.000000e+01  1.500000e+01  5.000000e+00
   endloop
 endfacet
 facet normal -4.440894e-15 -2.094960e-21  1.000000e+00
   outer loop
     vertex  2.000000e+01  1.500000e+01  9.000000e+00
     vertex  1.960000e+01  1.460000e+01  9.000000e+00
     vertex  2.000000e+01  1.460000e+01  9.000000e+00
   endloop
 endfacet
 facet normal  4.440892e-15  0.000000e+00  1.000000e+00
   outer loop
     vertex  0.000000e+00  1.500000e+01  9.000000e+00
     vertex  0.000000e+00  1.460000e+01  9.000000e+00
     vertex  4.000000e-01  1.460000e+01  9.000000e+00
   endloop
 endfacet
 facet normal  0.000000e+00 -4.440892e-15  1.000000e+00
   outer loop
     vertex  0.000000e+00  1.500000e+01  9.000000e+00
     vertex  1.960000e+01  1.460000e+01  9.000000e+00
     vertex  2.000000e+01  1.500000e+01  9.000000e+00
   endloop
 endfacet
 facet normal -6.984959e-24 -4.440892e-15  1.000000e+00
   outer loop
     vertex  0.000000e+00  1.500000e+01  9.000000e+00
     vertex  4.000000e-01  1.460000e+01  9.000000e+00
     vertex  1.960000e+01  1.460000e+01  9.000000e+00
   endloop
 endfacet
 facet normal  0.000000e+00  0.000000e+00 -1.000000e+00
   outer loop
     vertex  0.000000e+00  1.460000e+01  0.000000e+00
     vertex  4.000001e-01  1.305483e+01  0.000000e+00
     vertex  1.166574e-07  1.305483e+01  0.000000e+00
   endloop
 endfacet
 facet normal  0.000000e+00 -0.000000e+00 -1.000000e+00
   outer loop
     vertex  4.000000e-01  1.460000e+01  0.000000e+00
     vertex  4.000001e-01  1.305483e+01  0.000000e+00
     vertex  0.000000e+00  1.460000e+01  0.000000e+00
   endloop
 endfacet
 facet normal -1.572873e-09 -1.000000e+00  0.000000e+00
   outer loop
     vertex  4.000000e-01  1.460000e+01  0.000000e+00
     vertex  1.960000e+01  1.460000e+01  0.000000e+00
     vertex  1.960000e+01  1.460000e+01  9.000000e+00
   endloop
 endfacet
 facet normal -1.572873e-09 -1.000000e+00  0.000000e+00
   outer loop
     vertex  4.000000e-01  1.460000e+01  0.000000e+00
     vertex  1.960000e+01  1.460000e+01  9.000000e+00
     vertex  4.000000e-01  1.460000e+01  9.000000e+00
   endloop
 endfacet
 facet normal  0.000000e+00 -0.000000e+00 -1.000000e+00
   outer loop
     vertex  2.000000e+01  1.460000e+01  0.000000e+00
     vertex  2.000000e+01  5.400001e+00  0.000000e+00
     vertex  1.960000e+01  5.400001e+00  0.000000e+00
   endloop
 endfacet
 facet normal  0.000000e+00  0.000000e+00 -1.000000e+00
   outer loop
     vertex  2.000000e+01  1.460000e+01  0.000000e+00
     vertex  1.960000e+01  5.400001e+00  0.000000e+00
     vertex  1.960000e+01  1.460000e+01  0.000000e+00
   endloop
 endfacet
 facet normal -1.000000e+00 -7.549790e-08  0.000000e+00
   outer loop
     vertex  6.945807e-07  5.400001e+00  0.000000e+00
     vertex  6.945807e-07  5.400001e+00  9.000000e+00
     vertex  5.696448e-07  7.054827e+00  5.000000e+00
   endloop
 endfacet
 facet normal -1.000000e+00 -7.549790e-08  0.000000e+00
   outer loop
     vertex  0.000000e+00  1.460000e+01  9.000000e+00
     vertex  5.696448e-07  7.054827e+00  5.000000e+00
     vertex  6.945807e-07  5.400001e+00  9.000000e+00
   endloop
 endfacet
 facet normal -1.000000e+00 -7.549790e-08  0.000000e+00
   outer loop
     vertex  5.696448e-07  7.054827e+00  0.000000e+00
     vertex  6.945807e-07  5.400001e+00  0.000000e+00
     vertex  5.696448e-07  7.054827e+00  5.000000e+00
   endloop
 endfacet
 facet normal -1.000000e+00 -7.549790e-08 -2.205815e-23
   outer loop
     vertex  1.166574e-07  1.305483e+01  5.000000e+00
     vertex  5.696448e-07  7.054827e+00  5.000000e+00
     vertex  0.000000e+00  1.460000e+01  9.000000e+00
   endloop
 endfacet
 facet normal -1.000000e+00 -7.549790e-08  0.000000e+00
   outer loop
     vertex  0.000000e+00  1.460000e+01  0.000000e+00
     vertex  1.166574e-07  1.305483e+01  0.000000e+00
     vertex  1.166574e-07  1.305483e+01  5.000000e+00
   endloop
 endfacet
 facet normal -1.000000e+00 -7.549790e-08  0.000000e+00
   outer loop
     vertex  0.000000e+00  1.460000e+01  0.000000e+00
     vertex  1.166574e-07  1.305483e+01  5.000000e+00
     vertex  0.000000e+00  1.460000e+01  9.000000e+00
   endloop
 endfacet
 facet normal  1.000000e+00  9.709932e-08  0.000000e+00
   outer loop
     vertex  2.000000e+01  5.400001e+00  0.000000e+00
     vertex  2.000000e+01  1.460000e+01  0.000000e+00
     vertex  2.000000e+01  1.460000e+01  9.000000e+00
   endloop
 endfacet
 facet normal  1.000000e+00  9.709932e-08 -0.000000e+00
   outer loop
     vertex  2.000000e+01  5.400001e+00  0.000000e+00
     vertex  2.000000e+01  1.460000e+01  9.000000e+00
     vertex  2.000000e+01  5.400001e+00  9.000000e+00
   endloop
 endfacet
 facet normal  1.457731e-23 -1.930823e-16  1.000000e+00
   outer loop
     vertex  2.000000e+01  1.460000e+01  9.000000e+00
     vertex  1.960000e+01  5.400001e+00  9.000000e+00
     vertex  2.000000e+01  5.400001e+00  9.000000e+00
   endloop
 endfacet
 facet normal -4.440894e-15 -3.352782e-22  1.000000e+00
   outer loop
     vertex  2.000000e+01  1.460000e+01  9.000000e+00
     vertex  1.960000e+01  1.460000e+01  9.000000e+00
     vertex  1.960000e+01  5.400001e+00  9.000000e+00
   endloop
 endfacet
 facet normal  0.000000e+00  0.000000e+00  1.000000e+00
   outer loop
     vertex  4.000000e-01  1.460000e+01  9.000000e+00
     vertex  6.945807e-07  5.400001e+00  9.000000e+00
     vertex  4.000007e-01  5.400001e+00  9.000000e+00
   endloop
 endfacet
 facet normal  4.440892e-15 -1.930819e-16  1.000000e+00
   outer loop
     vertex  4.000000e-01  1.460000e+01  9.000000e+00
     vertex  0.000000e+00  1.460000e+01  9.000000e+00
     vertex  6.945807e-07  5.400001e+00  9.000000e+00
   endloop
 endfacet
 facet normal  1.947072e-07 -1.000000e+00  0.000000e+00
   outer loop
     vertex  1.166574e-07  1.305483e+01  0.000000e+00
     vertex  4.000001e-01  1.305483e+01  5.000000e+00
     vertex  1.166574e-07  1.305483e+01  5.000000e+00
   endloop
 endfacet
 facet normal  1.947072e-07 -1.000000e+00  0.000000e+00
   outer loop
     vertex  1.166574e-07  1.305483e+01  0.000000e+00
     vertex  4.000001e-01  1.305483e+01  0.000000e+00
     vertex  4.000001e-01  1.305483e+01  5.000000e+00
   endloop
 endfacet
 facet normal  1.000000e+00  7.549790e-08 -0.000000e+00
   outer loop
     vertex  4.000000e-01  1.460000e+01  0.000000e+00
     vertex  4.000000e-01  1.460000e+01  9.000000e+00
     vertex  4.000001e-01  1.305483e+01  5.000000e+00
   endloop
 endfacet
 facet normal  1.000000e+00  7.549790e-08 -0.000000e+00
   outer loop
     vertex  4.000001e-01  1.305483e+01  0.000000e+00
     vertex  4.000000e-01  1.460000e+01  0.000000e+00
     vertex  4.000001e-01  1.305483e+01  5.000000e+00
   endloop
 endfacet
 facet normal  1.000000e+00  7.549790e-08  1.847283e-18
   outer loop
     vertex  4.000006e-01  7.054827e+00  5.000000e+00
     vertex  4.000000e-01  1.460000e+01  9.000000e+00
     vertex  4.000007e-01  5.400001e+00  9.000000e+00
   endloop
 endfacet
 facet normal  1.000000e+00  7.549790e-08  6.501084e-18
   outer loop
     vertex  4.000006e-01  7.054827e+00  5.000000e+00
     vertex  4.000001e-01  1.305483e+01  5.000000e+00
     vertex  4.000000e-01  1.460000e+01  9.000000e+00
   endloop
 endfacet
 facet normal  1.000000e+00  7.549790e-08  0.000000e+00
   outer loop
     vertex  4.000007e-01  5.400001e+00  0.000000e+00
     vertex  4.000006e-01  7.054827e+00  0.000000e+00
     vertex  4.000006e-01  7.054827e+00  5.000000e+00
   endloop
 endfacet
 facet normal  1.000000e+00  7.549790e-08 -0.000000e+00
   outer loop
     vertex  4.000007e-01  5.400001e+00  0.000000e+00
     vertex  4.000006e-01  7.054827e+00  5.000000e+00
     vertex  4.000007e-01  5.400001e+00  9.000000e+00
   endloop
 endfacet
 facet normal -1.000000e+00 -7.549790e-08  0.000000e+00
   outer loop
     vertex  1.960000e+01  1.460000e+01  0.000000e+00
     vertex  1.960000e+01  5.400001e+00  0.000000e+00
     vertex  1.960000e+01  5.400001e+00  9.000000e+00
   endloop
 endfacet
 facet normal -1.000000e+00 -7.549790e-08  0.000000e+00
   outer loop
     vertex  1.960000e+01  1.460000e+01  0.000000e+00
     vertex  1.960000e+01  5.400001e+00  9.000000e+00
     vertex  1.960000e+01  1.460000e+01  9.000000e+00
   endloop
 endfacet
 facet normal  7.549790e-08 -1.000000e+00  0.000000e+00
   outer loop
     vertex  1.960000e+01  5.400001e+00  0.000000e+00
     vertex  2.000000e+01  5.400001e+00  0.000000e+00
     vertex  2.000000e+01  5.400001e+00  9.000000e+00
   endloop
 endfacet
 facet normal  7.549790e-08 -1.000000e+00  0.000000e+00
   outer loop
     vertex  1.960000e+01  5.400001e+00  0.000000e+00
     vertex  2.000000e+01  5.400001e+00  9.000000e+00
     vertex  1.960000e+01  5.400001e+00  9.000000e+00
   endloop
 endfacet
 facet normal  0.000000e+00  0.000000e+00 -1.000000e+00
   outer loop
     vertex  5.696448e-07  7.054827e+00  0.000000e+00
     vertex  4.000007e-01  5.400001e+00  0.000000e+00
     vertex  6.945807e-07  5.400001e+00  0.000000e+00
   endloop
 endfacet
 facet normal  0.000000e+00 -0.000000e+00 -1.000000e+00
   outer loop
     vertex  4.000006e-01  7.054827e+00  0.000000e+00
     vertex  4.000007e-01  5.400001e+00  0.000000e+00
     vertex  5.696448e-07  7.054827e+00  0.000000e+00
   endloop
 endfacet
 facet normal -1.947072e-07  1.000000e+00  0.000000e+00
   outer loop
     vertex  5.696448e-07  7.054827e+00  5.000000e+00
     vertex  4.000006e-01  7.054827e+00  0.000000e+00
     vertex  5.696448e-07  7.054827e+00  0.000000e+00
   endloop
 endfacet
 facet normal -1.947072e-07  1.000000e+00  0.000000e+00
   outer loop
     vertex  5.696448e-07  7.054827e+00  5.000000e+00
     vertex  4.000006e-01  7.054827e+00  5.000000e+00
     vertex  4.000006e-01  7.054827e+00  0.000000e+00
   endloop
 endfacet
 facet normal  0.000000e+00  0.000000e+00 -1.000000e+00
   outer loop
     vertex  1.166574e-07  1.305483e+01  5.000000e+00
     vertex  4.000006e-01  7.054827e+00  5.000000e+00
     vertex  5.696448e-07  7.054827e+00  5.000000e+00
   endloop
 endfacet
 facet normal  0.000000e+00  0.000000e+00 -1.000000e+00
   outer loop
     vertex  1.166574e-07  1.305483e+01  5.000000e+00
     vertex  4.000001e-01  1.305483e+01  5.000000e+00
     vertex  4.000006e-01  7.054827e+00  5.000000e+00
   endloop
 endfacet
 facet normal  7.549790e-08 -1.000000e+00  0.000000e+00
   outer loop
     vertex  6.945807e-07  5.400001e+00  0.000000e+00
     vertex  4.000007e-01  5.400001e+00  0.000000e+00
     vertex  4.000007e-01  5.400001e+00  9.000000e+00
   endloop
 endfacet
 facet normal  7.549790e-08 -1.000000e+00  0.000000e+00
   outer loop
     vertex  6.945807e-07  5.400001e+00  0.000000e+00
     vertex  4.000007e-01  5.400001e+00  9.000000e+00
     vertex  6.945807e-07  5.400001e+00  9.000000e+00
   endloop
 endfacet
 facet normal -1.000000e+00  1.457168e-15  0.000000e+00
   outer loop
     vertex  5.828671e-16  4.000000e-01  0.000000e+00
     vertex  0.000000e+00  0.000000e+00  0.000000e+00
     vertex  0.000000e+00  0.000000e+00  5.000000e+00
   endloop
 endfacet
 facet normal -1.000000e+00  1.457168e-15  0.000000e+00
   outer loop
     vertex  5.828671e-16  4.000000e-01  0.000000e+00
     vertex  0.000000e+00  0.000000e+00  5.000000e+00
     vertex  5.828671e-16  4.000000e-01  5.000000e+00
   endloop
 endfacet
 facet normal  0.000000e+00 -1.000000e+00  0.000000e+00
   outer loop
     vertex  0.000000e+00  0.000000e+00  0.000000e+00
     vertex  2.000000e+01  0.000000e+00  0.000000e+00
     vertex  2.000000e+01  0.000000e+00  5.000000e+00
   endloop
 endfacet
 facet normal  0.000000e+00 -1.000000e+00  0.000000e+00
   outer loop
     vertex  0.000000e+00  0.000000e+00  0.000000e+00
     vertex  2.000000e+01  0.000000e+00  5.000000e+00
     vertex  0.000000e+00  0.000000e+00  5.000000e+00
   endloop
 endfacet
 facet normal -1.000000e+00  5.697746e-08  0.000000e+00
   outer loop
     vertex  5.828671e-16  4.000000e-01  0.000000e+00
     vertex  5.828671e-16  4.000000e-01  5.000000e+00
     vertex  2.620963e-07  5.000000e+00  2.500000e+00
   endloop
 endfacet
 facet normal  0.000000e+00  0.000000e+00 -1.000000e+00
   outer loop
     vertex  1.960000e+01  4.000000e-01  0.000000e+00
     vertex  2.000000e+01  4.000000e-01  0.000000e+00
     vertex  2.000000e+01  0.000000e+00  0.000000e+00
   endloop
 endfacet
 facet normal  0.000000e+00 -0.000000e+00 -1.000000e+00
   outer loop
     vertex  4.000000e-01  4.000000e-01  0.000000e+00
     vertex  2.000000e+01  0.000000e+00  0.000000e+00
     vertex  0.000000e+00  0.000000e+00  0.000000e+00
   endloop
 endfacet
 facet normal  0.000000e+00  0.000000e+00 -1.000000e+00
   outer loop
     vertex  4.000000e-01  4.000000e-01  0.000000e+00
     vertex  1.960000e+01  4.000000e-01  0.000000e+00
     vertex  2.000000e+01  0.000000e+00  0.000000e+00
   endloop
 endfacet
 facet normal  0.000000e+00 -0.000000e+00 -1.000000e+00
   outer loop
     vertex  5.828671e-16  4.000000e-01  0.000000e+00
     vertex  4.000000e-01  4.000000e-01  0.000000e+00
     vertex  0.000000e+00  0.000000e+00  0.000000e+00
   endloop
 endfacet
 facet normal -0.000000e+00  0.000000e+00  1.000000e+00
   outer loop
     vertex  1.960000e+01  4.000000e-01  5.000000e+00
     vertex  2.000000e+01  0.000000e+00  5.000000e+00
     vertex  2.000000e+01  4.000000e-01  5.000000e+00
   endloop
 endfacet
 facet normal  0.000000e+00  2.220446e-15  1.000000e+00
   outer loop
     vertex  4.000000e-01  4.000000e-01  5.000000e+00
     vertex  0.000000e+00  0.000000e+00  5.000000e+00
     vertex  2.000000e+01  0.000000e+00  5.000000e+00
   endloop
 endfacet
 facet normal -4.625929e-17 -4.625929e-17  1.000000e+00
   outer loop
     vertex  4.000000e-01  4.000000e-01  5.000000e+00
     vertex  2.000000e+01  0.000000e+00  5.000000e+00
     vertex  1.960000e+01  4.000000e-01  5.000000e+00
   endloop
 endfacet
 facet normal  2.220446e-15 -3.235562e-30  1.000000e+00
   outer loop
     vertex  5.828671e-16  4.000000e-01  5.000000e+00
     vertex  0.000000e+00  0.000000e+00  5.000000e+00
     vertex  4.000000e-01  4.000000e-01  5.000000e+00
   endloop
 endfacet
 facet normal  1.000000e+00  0.000000e+00  0.000000e+00
   outer loop
     vertex  2.000000e+01  0.000000e+00  0.000000e+00
     vertex  2.000000e+01  4.000000e-01  0.000000e+00
     vertex  2.000000e+01  4.000000e-01  5.000000e+00
   endloop
 endfacet
 facet normal  1.000000e+00  0.000000e+00  0.000000e+00
   outer loop
     vertex  2.000000e+01  0.000000e+00  0.000000e+00
     vertex  2.000000e+01  4.000000e-01  5.000000e+00
     vertex  2.000000e+01  0.000000e+00  5.000000e+00
   endloop
 endfacet
 facet normal -9.838206e-01  8.554969e-02 -1.574113e-01
   outer loop
     vertex  5.828671e-16  4.000000e-01  0.000000e+00
     vertex  2.620963e-07  5.000000e+00  2.500000e+00
     vertex  4.000004e-01  5.000000e+00  0.000000e+00
   endloop
 endfacet
 facet normal  0.000000e+00  0.000000e+00 -1.000000e+00
   outer loop
     vertex  5.828671e-16  4.000000e-01  0.000000e+00
     vertex  4.000004e-01  5.000000e+00  0.000000e+00
     vertex  4.000000e-01  4.000000e-01  0.000000e+00
   endloop
 endfacet
 facet normal -9.838206e-01  8.554969e-02  1.574113e-01
   outer loop
     vertex  5.828671e-16  4.000000e-01  5.000000e+00
     vertex  4.000004e-01  5.000000e+00  5.000000e+00
     vertex  2.620963e-07  5.000000e+00  2.500000e+00
   endloop
 endfacet
 facet normal  2.220446e-15 -1.676390e-22  1.000000e+00
   outer loop
     vertex  5.828671e-16  4.000000e-01  5.000000e+00
     vertex  4.000000e-01  4.000000e-01  5.000000e+00
     vertex  4.000004e-01  5.000000e+00  5.000000e+00
   endloop
 endfacet
 facet normal  9.106539e-10  1.000000e+00  0.000000e+00
   outer loop
     vertex  1.960000e+01  4.000000e-01  5.000000e+00
     vertex  4.000000e-01  4.000000e-01  0.000000e+00
     vertex  4.000000e-01  4.000000e-01  5.000000e+00
   endloop
 endfacet
 facet normal  9.106539e-10  1.000000e+00 -0.000000e+00
   outer loop
     vertex  1.960000e+01  4.000000e-01  0.000000e+00
     vertex  4.000000e-01  4.000000e-01  0.000000e+00
     vertex  1.960000e+01  4.000000e-01  5.000000e+00
   endloop
 endfacet
 facet normal  0.000000e+00  0.000000e+00 -1.000000e+00
   outer loop
     vertex  1.960000e+01  4.000000e-01  0.000000e+00
     vertex  1.960000e+01  5.000000e+00  0.000000e+00
     vertex  2.000000e+01  5.000000e+00  0.000000e+00
   endloop
 endfacet
 facet normal  0.000000e+00  0.000000e+00 -1.000000e+00
   outer loop
     vertex  1.960000e+01  4.000000e-01  0.000000e+00
     vertex  2.000000e+01  5.000000e+00  0.000000e+00
     vertex  2.000000e+01  4.000000e-01  0.000000e+00
   endloop
 endfacet
 facet normal  0.000000e+00 -0.000000e+00  1.000000e+00
   outer loop
     vertex  1.960000e+01  4.000000e-01  5.000000e+00
     vertex  2.000000e+01  5.000000e+00  5.000000e+00
     vertex  1.960000e+01  5.000000e+00  5.000000e+00
   endloop
 endfacet
 facet normal  0.000000e+00  0.000000e+00  1.000000e+00
   outer loop
     vertex  1.960000e+01  4.000000e-01  5.000000e+00
     vertex  2.000000e+01  4.000000e-01  5.000000e+00
     vertex  2.000000e+01  5.000000e+00  5.000000e+00
   endloop
 endfacet
 facet normal  1.000000e+00  2.185569e-08  2.010724e-08
   outer loop
     vertex  2.000000e+01  4.000000e-01  0.000000e+00
     vertex  2.000000e+01  5.000000e+00  0.000000e+00
     vertex  2.000000e+01  5.000000e+00  5.000000e+00
   endloop
 endfacet
 facet normal  1.000000e+00  4.371139e-08 -0.000000e+00
   outer loop
     vertex  2.000000e+01  4.000000e-01  0.000000e+00
     vertex  2.000000e+01  5.000000e+00  5.000000e+00
     vertex  2.000000e+01  4.000000e-01  5.000000e+00
   endloop
 endfacet
 facet normal  0.000000e+00  0.000000e+00 -1.000000e+00
   outer loop
     vertex  1.960000e+01  5.000000e+00  0.000000e+00
     vertex  2.000000e+01  5.400000e+00  0.000000e+00
     vertex  2.000000e+01  5.000000e+00  0.000000e+00
   endloop
 endfacet
 facet normal -7.026240e-01 -7.026246e-01 -1.124199e-01
   outer loop
     vertex  0.000000e+00  5.400000e+00  0.000000e+00
     vertex  4.000004e-01  5.000000e+00  0.000000e+00
     vertex  2.620963e-07  5.000000e+00  2.500000e+00
   endloop
 endfacet
 facet normal  0.000000e+00  0.000000e+00 -1.000000e+00
   outer loop
     vertex  0.000000e+00  5.400000e+00  0.000000e+00
     vertex  2.000000e+01  5.400000e+00  0.000000e+00
     vertex  1.960000e+01  5.000000e+00  0.000000e+00
   endloop
 endfacet
 facet normal  0.000000e+00  0.000000e+00 -1.000000e+00
   outer loop
     vertex  0.000000e+00  5.400000e+00  0.000000e+00
     vertex  1.960000e+01  5.000000e+00  0.000000e+00
     vertex  4.000004e-01  5.000000e+00  0.000000e+00
   endloop
 endfacet
 facet normal  1.000000e+00 -7.549790e-08  0.000000e+00
   outer loop
     vertex  4.000000e-01  4.000000e-01  0.000000e+00
     vertex  4.000004e-01  5.000000e+00  0.000000e+00
     vertex  4.000004e-01  5.000000e+00  5.000000e+00
   endloop
 endfacet
 facet normal  1.000000e+00 -7.549790e-08  0.000000e+00
   outer loop
     vertex  4.000000e-01  4.000000e-01  0.000000e+00
     vertex  4.000004e-01  5.000000e+00  5.000000e+00
     vertex  4.000000e-01  4.000000e-01  5.000000e+00
   endloop
 endfacet
 facet normal  4.371139e-08 -1.000000e+00  2.235174e-08
   outer loop
     vertex  1.960000e+01  5.000000e+00  5.000000e+00
     vertex  2.000000e+01  5.000000e+00  5.000000e+00
     vertex  2.000000e+01  5.000000e+00  9.000000e+00
   endloop
 endfacet
 facet normal -2.703646e-09  1.000000e+00  1.059157e-08
   outer loop
     vertex  4.000004e-01  5.000000e+00  5.000000e+00
     vertex  2.000000e+01  5.000000e+00  9.000000e+00
     vertex  2.620963e-07  5.000000e+00  2.500000e+00
   endloop
 endfacet
 facet normal -5.013872e-09 -1.000000e+00  2.722427e-08
   outer loop
     vertex  4.000004e-01  5.000000e+00  5.000000e+00
     vertex  1.960000e+01  5.000000e+00  5.000000e+00
     vertex  2.000000e+01  5.000000e+00  9.000000e+00
   endloop
 endfacet
 facet normal -5.013872e-09 -1.000000e+00  0.000000e+00
   outer loop
     vertex  4.000004e-01  5.000000e+00  0.000000e+00
     vertex  1.960000e+01  5.000000e+00  0.000000e+00
     vertex  1.960000e+01  5.000000e+00  5.000000e+00
   endloop
 endfacet
 facet normal -5.013872e-09 -1.000000e+00  0.000000e+00
   outer loop
     vertex  4.000004e-01  5.000000e+00  0.000000e+00
     vertex  1.960000e+01  5.000000e+00  5.000000e+00
     vertex  4.000004e-01  5.000000e+00  5.000000e+00
   endloop
 endfacet
 facet normal -1.000000e+00 -4.371139e-08  0.000000e+00
   outer loop
     vertex  1.960000e+01  5.000000e+00  0.000000e+00
     vertex  1.960000e+01  4.000000e-01  0.000000e+00
     vertex  1.960000e+01  4.000000e-01  5.000000e+00
   endloop
 endfacet
 facet normal -1.000000e+00 -4.371139e-08  0.000000e+00
   outer loop
     vertex  1.960000e+01  5.000000e+00  0.000000e+00
     vertex  1.960000e+01  4.000000e-01  5.000000e+00
     vertex  1.960000e+01  5.000000e+00  5.000000e+00
   endloop
 endfacet
 facet normal  1.000000e+00  0.000000e+00 -5.026810e-08
   outer loop
     vertex  2.000000e+01  5.000000e+00  5.000000e+00
     vertex  2.000000e+01  5.400000e+00  9.000000e+00
     vertex  2.000000e+01  5.000000e+00  9.000000e+00
   endloop
 endfacet
 facet normal  1.000000e+00 -2.513404e-07  2.010724e-08
   outer loop
     vertex  2.000000e+01  5.000000e+00  0.000000e+00
     vertex  2.000000e+01  5.400000e+00  0.000000e+00
     vertex  2.000000e+01  5.000000e+00  5.000000e+00
   endloop
 endfacet
 facet normal  1.000000e+00 -5.026808e-07  0.000000e+00
   outer loop
     vertex  2.000000e+01  5.400000e+00  0.000000e+00
     vertex  2.000000e+01  5.400000e+00  9.000000e+00
     vertex  2.000000e+01  5.000000e+00  5.000000e+00
   endloop
 endfacet
 facet normal -1.000000e+00 -9.072566e-07 -4.032251e-08
   outer loop
     vertex  0.000000e+00  5.400000e+00  0.000000e+00
     vertex  2.620963e-07  5.000000e+00  2.500000e+00
     vertex  0.000000e+00  5.000000e+00  9.000000e+00
   endloop
 endfacet
 facet normal -1.000000e+00  0.000000e+00  0.000000e+00
   outer loop
     vertex  0.000000e+00  5.400000e+00  0.000000e+00
     vertex  0.000000e+00  5.000000e+00  9.000000e+00
     vertex  0.000000e+00  5.400000e+00  9.000000e+00
   endloop
 endfacet
 facet normal  0.000000e+00  1.000000e+00  0.000000e+00
   outer loop
     vertex  2.000000e+01  5.400000e+00  0.000000e+00
     vertex  0.000000e+00  5.400000e+00  0.000000e+00
     vertex  0.000000e+00  5.400000e+00  9.000000e+00
   endloop
 endfacet
 facet normal  0.000000e+00  1.000000e+00 -0.000000e+00
   outer loop
     vertex  2.000000e+01  5.400000e+00  0.000000e+00
     vertex  0.000000e+00  5.400000e+00  9.000000e+00
     vertex  2.000000e+01  5.400000e+00  9.000000e+00
   endloop
 endfacet
 facet normal -0.000000e+00  0.000000e+00  1.000000e+00
   outer loop
     vertex  0.000000e+00  5.400000e+00  9.000000e+00
     vertex  2.000000e+01  5.000000e+00  9.000000e+00
     vertex  2.000000e+01  5.400000e+00  9.000000e+00
   endloop
 endfacet
 facet normal  0.000000e+00  0.000000e+00  1.000000e+00
   outer loop
     vertex  0.000000e+00  5.400000e+00  9.000000e+00
     vertex  0.000000e+00  5.000000e+00  9.000000e+00
     vertex  2.000000e+01  5.000000e+00  9.000000e+00
   endloop
 endfacet
endsolid
