solid 
 facet normal  7.071068e-01  7.071068e-01  0.000000e+00
   outer loop
     vertex  7.919596e+00  7.919595e+00  4.800000e+00
     vertex  7.919596e+00  7.919595e+00  0.000000e+00
     vertex  7.806459e+00  8.032732e+00  0.000000e+00
   endloop
 endfacet
 facet normal  7.071068e-01  7.071068e-01  0.000000e+00
   outer loop
     vertex  7.919596e+00  7.919595e+00  4.800000e+00
     vertex  7.806459e+00  8.032732e+00  0.000000e+00
     vertex  7.806459e+00  8.032732e+00  4.800000e+00
   endloop
 endfacet
 facet normal  0.000000e+00  0.000000e+00 -1.000000e+00
   outer loop
     vertex  4.362133e-07 -3.710008e-07  0.000000e+00
     vertex  7.806459e+00  8.032732e+00  0.000000e+00
     vertex  7.919596e+00  7.919595e+00  0.000000e+00
   endloop
 endfacet
 facet normal  0.000000e+00  0.000000e+00 -1.000000e+00
   outer loop
     vertex  4.362133e-07 -3.710008e-07  0.000000e+00
     vertex -1.131366e-01  1.131367e-01  0.000000e+00
     vertex  7.806459e+00  8.032732e+00  0.000000e+00
   endloop
 endfacet
 facet normal  0.000000e+00  0.000000e+00  1.000000e+00
   outer loop
     vertex  4.362133e-07 -3.710008e-07  4.800000e+00
     vertex  7.919596e+00  7.919595e+00  4.800000e+00
     vertex  7.806459e+00  8.032732e+00  4.800000e+00
   endloop
 endfacet
 facet normal  0.000000e+00 -0.000000e+00  1.000000e+00
   outer loop
     vertex  4.362133e-07 -3.710008e-07  4.800000e+00
     vertex  7.806459e+00  8.032732e+00  4.800000e+00
     vertex -1.131366e-01  1.131367e-01  4.800000e+00
   endloop
 endfacet
 facet normal  7.071068e-01 -7.071068e-01  0.000000e+00
   outer loop
     vertex  6.637921e-01  6.637913e-01  1.000000e+00
     vertex  6.637921e-01  6.637913e-01  4.030000e+00
     vertex  4.362133e-07 -3.710008e-07  4.800000e+00
   endloop
 endfacet
 facet normal  7.071068e-01 -7.071068e-01  0.000000e+00
   outer loop
     vertex  4.362133e-07 -3.710008e-07  0.000000e+00
     vertex  6.637921e-01  6.637913e-01  1.000000e+00
     vertex  4.362133e-07 -3.710008e-07  4.800000e+00
   endloop
 endfacet
 facet normal  7.071068e-01 -7.071068e-01  5.315567e-16
   outer loop
     vertex  3.732636e+00  3.732635e+00  4.030000e+00
     vertex  4.362133e-07 -3.710008e-07  4.800000e+00
     vertex  6.637921e-01  6.637913e-01  4.030000e+00
   endloop
 endfacet
 facet normal  7.071068e-01 -7.071068e-01 -4.092988e-16
   outer loop
     vertex  3.732636e+00  3.732635e+00  1.000000e+00
     vertex  6.637921e-01  6.637913e-01  1.000000e+00
     vertex  4.362133e-07 -3.710008e-07  0.000000e+00
   endloop
 endfacet
 facet normal  7.071068e-01 -7.071068e-01  0.000000e+00
   outer loop
     vertex  4.374193e+00  4.374192e+00  1.000000e+00
     vertex  3.732636e+00  3.732635e+00  4.030000e+00
     vertex  3.732636e+00  3.732635e+00  1.000000e+00
   endloop
 endfacet
 facet normal  7.071068e-01 -7.071068e-01  0.000000e+00
   outer loop
     vertex  4.374193e+00  4.374192e+00  1.000000e+00
     vertex  4.374193e+00  4.374192e+00  4.030000e+00
     vertex  3.732636e+00  3.732635e+00  4.030000e+00
   endloop
 endfacet
 facet normal  7.071068e-01 -7.071068e-01 -1.328892e-16
   outer loop
     vertex  7.443036e+00  7.443035e+00  4.030000e+00
     vertex  7.919596e+00  7.919595e+00  4.800000e+00
     vertex  4.374193e+00  4.374192e+00  4.030000e+00
   endloop
 endfacet
 facet normal  7.071068e-01 -7.071068e-01  0.000000e+00
   outer loop
     vertex  7.443036e+00  7.443035e+00  1.000000e+00
     vertex  7.919596e+00  7.919595e+00  4.800000e+00
     vertex  7.443036e+00  7.443035e+00  4.030000e+00
   endloop
 endfacet
 facet normal  7.071068e-01 -7.071068e-01  1.023247e-16
   outer loop
     vertex  7.919596e+00  7.919595e+00  0.000000e+00
     vertex  7.443036e+00  7.443035e+00  1.000000e+00
     vertex  4.374193e+00  4.374192e+00  1.000000e+00
   endloop
 endfacet
 facet normal  7.071068e-01 -7.071068e-01  0.000000e+00
   outer loop
     vertex  7.919596e+00  7.919595e+00  0.000000e+00
     vertex  7.919596e+00  7.919595e+00  4.800000e+00
     vertex  7.443036e+00  7.443035e+00  1.000000e+00
   endloop
 endfacet
 facet normal  7.071068e-01 -7.071068e-01  8.239130e-16
   outer loop
     vertex  7.919596e+00  7.919595e+00  4.800000e+00
     vertex  4.362133e-07 -3.710008e-07  4.800000e+00
     vertex  3.732636e+00  3.732635e+00  4.030000e+00
   endloop
 endfacet
 facet normal  7.071068e-01 -7.071068e-01  2.542665e-15
   outer loop
     vertex  7.919596e+00  7.919595e+00  4.800000e+00
     vertex  3.732636e+00  3.732635e+00  4.030000e+00
     vertex  4.374193e+00  4.374192e+00  4.030000e+00
   endloop
 endfacet
 facet normal  7.071068e-01 -7.071068e-01 -6.344132e-16
   outer loop
     vertex  4.362133e-07 -3.710008e-07  0.000000e+00
     vertex  7.919596e+00  7.919595e+00  0.000000e+00
     vertex  4.374193e+00  4.374192e+00  1.000000e+00
   endloop
 endfacet
 facet normal  7.071068e-01 -7.071068e-01  0.000000e+00
   outer loop
     vertex  4.362133e-07 -3.710008e-07  0.000000e+00
     vertex  4.374193e+00  4.374192e+00  1.000000e+00
     vertex  3.732636e+00  3.732635e+00  1.000000e+00
   endloop
 endfacet
 facet normal -7.071068e-01  7.071068e-01  0.000000e+00
   outer loop
     vertex  5.506550e-01  7.769284e-01  1.000000e+00
     vertex -1.131366e-01  1.131367e-01  4.800000e+00
     vertex  5.506550e-01  7.769284e-01  4.030000e+00
   endloop
 endfacet
 facet normal -7.071068e-01  7.071068e-01  0.000000e+00
   outer loop
     vertex -1.131366e-01  1.131367e-01  0.000000e+00
     vertex -1.131366e-01  1.131367e-01  4.800000e+00
     vertex  5.506550e-01  7.769284e-01  1.000000e+00
   endloop
 endfacet
 facet normal -7.071068e-01  7.071068e-01  0.000000e+00
   outer loop
     vertex  3.619499e+00  3.845772e+00  4.030000e+00
     vertex  5.506550e-01  7.769284e-01  4.030000e+00
     vertex -1.131366e-01  1.131367e-01  4.800000e+00
   endloop
 endfacet
 facet normal -7.071068e-01  7.071068e-01  0.000000e+00
   outer loop
     vertex  3.619499e+00  3.845772e+00  1.000000e+00
     vertex -1.131366e-01  1.131367e-01  0.000000e+00
     vertex  5.506550e-01  7.769284e-01  1.000000e+00
   endloop
 endfacet
 facet normal -7.071068e-01  7.071068e-01  0.000000e+00
   outer loop
     vertex  4.261056e+00  4.487329e+00  1.000000e+00
     vertex  3.619499e+00  3.845772e+00  1.000000e+00
     vertex  3.619499e+00  3.845772e+00  4.030000e+00
   endloop
 endfacet
 facet normal -7.071068e-01  7.071068e-01  0.000000e+00
   outer loop
     vertex  4.261056e+00  4.487329e+00  1.000000e+00
     vertex  3.619499e+00  3.845772e+00  4.030000e+00
     vertex  4.261056e+00  4.487329e+00  4.030000e+00
   endloop
 endfacet
 facet normal -7.071068e-01  7.071068e-01  1.860449e-15
   outer loop
     vertex  7.329899e+00  7.556172e+00  4.030000e+00
     vertex  4.261056e+00  4.487329e+00  4.030000e+00
     vertex  7.806459e+00  8.032732e+00  4.800000e+00
   endloop
 endfacet
 facet normal -7.071068e-01  7.071068e-01  0.000000e+00
   outer loop
     vertex  7.329899e+00  7.556172e+00  1.000000e+00
     vertex  7.329899e+00  7.556172e+00  4.030000e+00
     vertex  7.806459e+00  8.032732e+00  4.800000e+00
   endloop
 endfacet
 facet normal -7.071068e-01  7.071068e-01 -1.483708e-15
   outer loop
     vertex  7.806459e+00  8.032732e+00  0.000000e+00
     vertex  4.261056e+00  4.487329e+00  1.000000e+00
     vertex  7.329899e+00  7.556172e+00  1.000000e+00
   endloop
 endfacet
 facet normal -7.071068e-01  7.071068e-01  0.000000e+00
   outer loop
     vertex  7.806459e+00  8.032732e+00  0.000000e+00
     vertex  7.329899e+00  7.556172e+00  1.000000e+00
     vertex  7.806459e+00  8.032732e+00  4.800000e+00
   endloop
 endfacet
 facet normal -7.071068e-01  7.071068e-01  1.647826e-15
   outer loop
     vertex  7.806459e+00  8.032732e+00  4.800000e+00
     vertex  3.619499e+00  3.845772e+00  4.030000e+00
     vertex -1.131366e-01  1.131367e-01  4.800000e+00
   endloop
 endfacet
 facet normal -7.071068e-01  7.071068e-01 -2.542665e-15
   outer loop
     vertex  7.806459e+00  8.032732e+00  4.800000e+00
     vertex  4.261056e+00  4.487329e+00  4.030000e+00
     vertex  3.619499e+00  3.845772e+00  4.030000e+00
   endloop
 endfacet
 facet normal -7.071068e-01  7.071068e-01  0.000000e+00
   outer loop
     vertex -1.131366e-01  1.131367e-01  0.000000e+00
     vertex  4.261056e+00  4.487329e+00  1.000000e+00
     vertex  7.806459e+00  8.032732e+00  0.000000e+00
   endloop
 endfacet
 facet normal -7.071068e-01  7.071068e-01 -7.831409e-15
   outer loop
     vertex -1.131366e-01  1.131367e-01  0.000000e+00
     vertex  3.619499e+00  3.845772e+00  1.000000e+00
     vertex  4.261056e+00  4.487329e+00  1.000000e+00
   endloop
 endfacet
 facet normal -7.071068e-01 -7.071068e-01 -0.000000e+00
   outer loop
     vertex  4.362133e-07 -3.710008e-07  4.800000e+00
     vertex -1.131366e-01  1.131367e-01  0.000000e+00
     vertex  4.362133e-07 -3.710008e-07  0.000000e+00
   endloop
 endfacet
 facet normal -7.071068e-01 -7.071068e-01  0.000000e+00
   outer loop
     vertex  4.362133e-07 -3.710008e-07  4.800000e+00
     vertex -1.131366e-01  1.131367e-01  4.800000e+00
     vertex -1.131366e-01  1.131367e-01  0.000000e+00
   endloop
 endfacet
 facet normal  0.000000e+00  0.000000e+00  1.000000e+00
   outer loop
     vertex  3.732636e+00  3.732635e+00  1.000000e+00
     vertex  5.506550e-01  7.769284e-01  1.000000e+00
     vertex  6.637921e-01  6.637913e-01  1.000000e+00
   endloop
 endfacet
 facet normal  0.000000e+00  0.000000e+00  1.000000e+00
   outer loop
     vertex  3.732636e+00  3.732635e+00  1.000000e+00
     vertex  3.619499e+00  3.845772e+00  1.000000e+00
     vertex  5.506550e-01  7.769284e-01  1.000000e+00
   endloop
 endfacet
 facet normal -7.071068e-01 -7.071068e-01 -0.000000e+00
   outer loop
     vertex  3.732636e+00  3.732635e+00  4.030000e+00
     vertex  3.619499e+00  3.845772e+00  1.000000e+00
     vertex  3.732636e+00  3.732635e+00  1.000000e+00
   endloop
 endfacet
 facet normal -7.071068e-01 -7.071068e-01  0.000000e+00
   outer loop
     vertex  3.732636e+00  3.732635e+00  4.030000e+00
     vertex  3.619499e+00  3.845772e+00  4.030000e+00
     vertex  3.619499e+00  3.845772e+00  1.000000e+00
   endloop
 endfacet
 facet normal  0.000000e+00  0.000000e+00 -1.000000e+00
   outer loop
     vertex  6.637921e-01  6.637913e-01  4.030000e+00
     vertex  3.619499e+00  3.845772e+00  4.030000e+00
     vertex  3.732636e+00  3.732635e+00  4.030000e+00
   endloop
 endfacet
 facet normal  0.000000e+00  0.000000e+00 -1.000000e+00
   outer loop
     vertex  6.637921e-01  6.637913e-01  4.030000e+00
     vertex  5.506550e-01  7.769284e-01  4.030000e+00
     vertex  3.619499e+00  3.845772e+00  4.030000e+00
   endloop
 endfacet
 facet normal  7.071068e-01  7.071068e-01 -0.000000e+00
   outer loop
     vertex  6.637921e-01  6.637913e-01  1.000000e+00
     vertex  5.506550e-01  7.769284e-01  4.030000e+00
     vertex  6.637921e-01  6.637913e-01  4.030000e+00
   endloop
 endfacet
 facet normal  7.071068e-01  7.071068e-01  0.000000e+00
   outer loop
     vertex  6.637921e-01  6.637913e-01  1.000000e+00
     vertex  5.506550e-01  7.769284e-01  1.000000e+00
     vertex  5.506550e-01  7.769284e-01  4.030000e+00
   endloop
 endfacet
 facet normal  0.000000e+00  0.000000e+00  1.000000e+00
   outer loop
     vertex  7.443036e+00  7.443035e+00  1.000000e+00
     vertex  4.261056e+00  4.487329e+00  1.000000e+00
     vertex  4.374193e+00  4.374192e+00  1.000000e+00
   endloop
 endfacet
 facet normal  0.000000e+00  0.000000e+00  1.000000e+00
   outer loop
     vertex  7.443036e+00  7.443035e+00  1.000000e+00
     vertex  7.329899e+00  7.556172e+00  1.000000e+00
     vertex  4.261056e+00  4.487329e+00  1.000000e+00
   endloop
 endfacet
 facet normal -7.071068e-01 -7.071068e-01 -0.000000e+00
   outer loop
     vertex  7.443036e+00  7.443035e+00  4.030000e+00
     vertex  7.329899e+00  7.556172e+00  1.000000e+00
     vertex  7.443036e+00  7.443035e+00  1.000000e+00
   endloop
 endfacet
 facet normal -7.071068e-01 -7.071068e-01  0.000000e+00
   outer loop
     vertex  7.443036e+00  7.443035e+00  4.030000e+00
     vertex  7.329899e+00  7.556172e+00  4.030000e+00
     vertex  7.329899e+00  7.556172e+00  1.000000e+00
   endloop
 endfacet
 facet normal  0.000000e+00  0.000000e+00 -1.000000e+00
   outer loop
     vertex  4.261056e+00  4.487329e+00  4.030000e+00
     vertex  7.329899e+00  7.556172e+00  4.030000e+00
     vertex  7.443036e+00  7.443035e+00  4.030000e+00
   endloop
 endfacet
 facet normal  0.000000e+00  0.000000e+00 -1.000000e+00
   outer loop
     vertex  4.374193e+00  4.374192e+00  4.030000e+00
     vertex  4.261056e+00  4.487329e+00  4.030000e+00
     vertex  7.443036e+00  7.443035e+00  4.030000e+00
   endloop
 endfacet
 facet normal  7.071068e-01  7.071068e-01 -0.000000e+00
   outer loop
     vertex  4.374193e+00  4.374192e+00  1.000000e+00
     vertex  4.261056e+00  4.487329e+00  4.030000e+00
     vertex  4.374193e+00  4.374192e+00  4.030000e+00
   endloop
 endfacet
 facet normal  7.071068e-01  7.071068e-01  0.000000e+00
   outer loop
     vertex  4.374193e+00  4.374192e+00  1.000000e+00
     vertex  4.261056e+00  4.487329e+00  1.000000e+00
     vertex  4.261056e+00  4.487329e+00  4.030000e+00
   endloop
 endfacet
 facet normal  4.371139e-08 -1.000000e+00  0.000000e+00
   outer loop
     vertex -1.600000e-01  1.400000e+00  0.000000e+00
     vertex  2.220446e-16  1.400000e+00  0.000000e+00
     vertex  2.220446e-16  1.400000e+00  4.800000e+00
   endloop
 endfacet
 facet normal  4.371139e-08 -1.000000e+00  0.000000e+00
   outer loop
     vertex -1.600000e-01  1.400000e+00  0.000000e+00
     vertex  2.220446e-16  1.400000e+00  4.800000e+00
     vertex -1.600000e-01  1.400000e+00  4.800000e+00
   endloop
 endfacet
 facet normal  1.000000e+00  4.371139e-08  0.000000e+00
   outer loop
     vertex -3.495286e-07  9.396283e+00  1.000000e+00
     vertex -4.895675e-07  1.260000e+01  0.000000e+00
     vertex -4.895675e-07  1.260000e+01  4.800000e+00
   endloop
 endfacet
 facet normal  1.000000e+00  4.371139e-08 -0.000000e+00
   outer loop
     vertex -3.495286e-07  9.396283e+00  1.000000e+00
     vertex -4.895675e-07  1.260000e+01  4.800000e+00
     vertex -3.495286e-07  9.396283e+00  4.030000e+00
   endloop
 endfacet
 facet normal  1.000000e+00  4.371139e-08  4.708828e-17
   outer loop
     vertex -1.598212e-07  5.056283e+00  4.030000e+00
     vertex -3.495286e-07  9.396283e+00  4.030000e+00
     vertex -4.895675e-07  1.260000e+01  4.800000e+00
   endloop
 endfacet
 facet normal  1.000000e+00  4.371139e-08 -9.044739e-17
   outer loop
     vertex  2.220446e-16  1.400000e+00  4.800000e+00
     vertex -1.598212e-07  5.056283e+00  4.030000e+00
     vertex -4.895675e-07  1.260000e+01  4.800000e+00
   endloop
 endfacet
 facet normal  1.000000e+00  4.371139e-08 -0.000000e+00
   outer loop
     vertex -1.598212e-07  5.056283e+00  1.000000e+00
     vertex -1.598212e-07  5.056283e+00  4.030000e+00
     vertex  2.220446e-16  1.400000e+00  4.800000e+00
   endloop
 endfacet
 facet normal  1.000000e+00  4.371139e-08 -0.000000e+00
   outer loop
     vertex  2.220446e-16  1.400000e+00  0.000000e+00
     vertex -1.598212e-07  5.056283e+00  1.000000e+00
     vertex  2.220446e-16  1.400000e+00  4.800000e+00
   endloop
 endfacet
 facet normal  1.000000e+00  4.371139e-08  8.717407e-18
   outer loop
     vertex  2.220446e-16  1.400000e+00  0.000000e+00
     vertex -4.895675e-07  1.260000e+01  0.000000e+00
     vertex -3.495286e-07  9.396283e+00  1.000000e+00
   endloop
 endfacet
 facet normal  1.000000e+00  4.371139e-08  1.209732e-16
   outer loop
     vertex  2.220446e-16  1.400000e+00  0.000000e+00
     vertex -3.495286e-07  9.396283e+00  1.000000e+00
     vertex -1.598212e-07  5.056283e+00  1.000000e+00
   endloop
 endfacet
 facet normal  0.000000e+00  0.000000e+00  1.000000e+00
   outer loop
     vertex  2.220446e-16  1.400000e+00  4.800000e+00
     vertex -4.895675e-07  1.260000e+01  4.800000e+00
     vertex -1.600005e-01  1.260000e+01  4.800000e+00
   endloop
 endfacet
 facet normal  0.000000e+00 -0.000000e+00  1.000000e+00
   outer loop
     vertex -1.600000e-01  1.400000e+00  4.800000e+00
     vertex  2.220446e-16  1.400000e+00  4.800000e+00
     vertex -1.600005e-01  1.260000e+01  4.800000e+00
   endloop
 endfacet
 facet normal -1.000000e+00 -4.371139e-08  0.000000e+00
   outer loop
     vertex -1.600002e-01  5.056283e+00  1.000000e+00
     vertex -1.600000e-01  1.400000e+00  0.000000e+00
     vertex -1.600000e-01  1.400000e+00  4.800000e+00
   endloop
 endfacet
 facet normal -1.000000e+00 -4.371139e-08  0.000000e+00
   outer loop
     vertex -1.600002e-01  5.056283e+00  1.000000e+00
     vertex -1.600000e-01  1.400000e+00  4.800000e+00
     vertex -1.600002e-01  5.056283e+00  4.030000e+00
   endloop
 endfacet
 facet normal -1.000000e+00 -4.371139e-08 -1.940296e-16
   outer loop
     vertex -1.600005e-01  1.260000e+01  4.800000e+00
     vertex -1.600003e-01  9.396283e+00  4.030000e+00
     vertex -1.600002e-01  5.056283e+00  4.030000e+00
   endloop
 endfacet
 facet normal -1.000000e+00 -4.371139e-08 -5.649382e-17
   outer loop
     vertex -1.600005e-01  1.260000e+01  4.800000e+00
     vertex -1.600002e-01  5.056283e+00  4.030000e+00
     vertex -1.600000e-01  1.400000e+00  4.800000e+00
   endloop
 endfacet
 facet normal -1.000000e+00 -4.371139e-08  0.000000e+00
   outer loop
     vertex -1.600003e-01  9.396283e+00  1.000000e+00
     vertex -1.600003e-01  9.396283e+00  4.030000e+00
     vertex -1.600005e-01  1.260000e+01  4.800000e+00
   endloop
 endfacet
 facet normal -1.000000e+00 -4.371139e-08  0.000000e+00
   outer loop
     vertex -1.600005e-01  1.260000e+01  0.000000e+00
     vertex -1.600003e-01  9.396283e+00  1.000000e+00
     vertex -1.600005e-01  1.260000e+01  4.800000e+00
   endloop
 endfacet
 facet normal -1.000000e+00 -4.371139e-08  1.044274e-16
   outer loop
     vertex -1.600005e-01  1.260000e+01  0.000000e+00
     vertex -1.600000e-01  1.400000e+00  0.000000e+00
     vertex -1.600003e-01  9.396283e+00  1.000000e+00
   endloop
 endfacet
 facet normal -1.000000e+00 -4.371139e-08 -7.828516e-18
   outer loop
     vertex -1.600003e-01  9.396283e+00  1.000000e+00
     vertex -1.600000e-01  1.400000e+00  0.000000e+00
     vertex -1.600002e-01  5.056283e+00  1.000000e+00
   endloop
 endfacet
 facet normal  0.000000e+00  0.000000e+00 -1.000000e+00
   outer loop
     vertex  2.220446e-16  1.400000e+00  0.000000e+00
     vertex -1.600005e-01  1.260000e+01  0.000000e+00
     vertex -4.895675e-07  1.260000e+01  0.000000e+00
   endloop
 endfacet
 facet normal  0.000000e+00  0.000000e+00 -1.000000e+00
   outer loop
     vertex -1.600000e-01  1.400000e+00  0.000000e+00
     vertex -1.600005e-01  1.260000e+01  0.000000e+00
     vertex  2.220446e-16  1.400000e+00  0.000000e+00
   endloop
 endfacet
 facet normal -4.371139e-08  1.000000e+00  0.000000e+00
   outer loop
     vertex -4.895675e-07  1.260000e+01  0.000000e+00
     vertex -1.600005e-01  1.260000e+01  0.000000e+00
     vertex -1.600005e-01  1.260000e+01  4.800000e+00
   endloop
 endfacet
 facet normal -4.371139e-08  1.000000e+00  0.000000e+00
   outer loop
     vertex -4.895675e-07  1.260000e+01  0.000000e+00
     vertex -1.600005e-01  1.260000e+01  4.800000e+00
     vertex -4.895675e-07  1.260000e+01  4.800000e+00
   endloop
 endfacet
 facet normal  0.000000e+00  0.000000e+00  1.000000e+00
   outer loop
     vertex -3.495286e-07  9.396283e+00  1.000000e+00
     vertex -1.600002e-01  5.056283e+00  1.000000e+00
     vertex -1.598212e-07  5.056283e+00  1.000000e+00
   endloop
 endfacet
 facet normal  0.000000e+00  0.000000e+00  1.000000e+00
   outer loop
     vertex -3.495286e-07  9.396283e+00  1.000000e+00
     vertex -1.600003e-01  9.396283e+00  1.000000e+00
     vertex -1.600002e-01  5.056283e+00  1.000000e+00
   endloop
 endfacet
 facet normal -1.947072e-07 -1.000000e+00 -0.000000e+00
   outer loop
     vertex -3.495286e-07  9.396283e+00  4.030000e+00
     vertex -1.600003e-01  9.396283e+00  1.000000e+00
     vertex -3.495286e-07  9.396283e+00  1.000000e+00
   endloop
 endfacet
 facet normal -1.947072e-07 -1.000000e+00  0.000000e+00
   outer loop
     vertex -3.495286e-07  9.396283e+00  4.030000e+00
     vertex -1.600003e-01  9.396283e+00  4.030000e+00
     vertex -1.600003e-01  9.396283e+00  1.000000e+00
   endloop
 endfacet
 facet normal  0.000000e+00  0.000000e+00 -1.000000e+00
   outer loop
     vertex -1.600002e-01  5.056283e+00  4.030000e+00
     vertex -1.600003e-01  9.396283e+00  4.030000e+00
     vertex -3.495286e-07  9.396283e+00  4.030000e+00
   endloop
 endfacet
 facet normal  0.000000e+00  0.000000e+00 -1.000000e+00
   outer loop
     vertex -1.598212e-07  5.056283e+00  4.030000e+00
     vertex -1.600002e-01  5.056283e+00  4.030000e+00
     vertex -3.495286e-07  9.396283e+00  4.030000e+00
   endloop
 endfacet
 facet normal  1.947072e-07  1.000000e+00 -0.000000e+00
   outer loop
     vertex -1.600002e-01  5.056283e+00  1.000000e+00
     vertex -1.600002e-01  5.056283e+00  4.030000e+00
     vertex -1.598212e-07  5.056283e+00  4.030000e+00
   endloop
 endfacet
 facet normal  1.947072e-07  1.000000e+00 -0.000000e+00
   outer loop
     vertex -1.598212e-07  5.056283e+00  1.000000e+00
     vertex -1.600002e-01  5.056283e+00  1.000000e+00
     vertex -1.598212e-07  5.056283e+00  4.030000e+00
   endloop
 endfacet
 facet normal  1.000000e+00  0.000000e+00  0.000000e+00
   outer loop
     vertex  1.186000e+01  0.000000e+00  4.800000e+00
     vertex  1.186000e+01  0.000000e+00  0.000000e+00
     vertex  1.186000e+01  1.600000e-01  0.000000e+00
   endloop
 endfacet
 facet normal  1.000000e+00 -0.000000e+00  0.000000e+00
   outer loop
     vertex  1.186000e+01  0.000000e+00  4.800000e+00
     vertex  1.186000e+01  1.600000e-01  0.000000e+00
     vertex  1.186000e+01  1.600000e-01  4.800000e+00
   endloop
 endfacet
 facet normal  0.000000e+00  0.000000e+00 -1.000000e+00
   outer loop
     vertex  6.600005e-01  0.000000e+00  0.000000e+00
     vertex  1.186000e+01  1.600000e-01  0.000000e+00
     vertex  1.186000e+01  0.000000e+00  0.000000e+00
   endloop
 endfacet
 facet normal  0.000000e+00  0.000000e+00 -1.000000e+00
   outer loop
     vertex  6.600005e-01  0.000000e+00  0.000000e+00
     vertex  6.600005e-01  1.600000e-01  0.000000e+00
     vertex  1.186000e+01  1.600000e-01  0.000000e+00
   endloop
 endfacet
 facet normal  0.000000e+00  0.000000e+00  1.000000e+00
   outer loop
     vertex  6.600005e-01  0.000000e+00  4.800000e+00
     vertex  1.186000e+01  0.000000e+00  4.800000e+00
     vertex  1.186000e+01  1.600000e-01  4.800000e+00
   endloop
 endfacet
 facet normal  0.000000e+00  0.000000e+00  1.000000e+00
   outer loop
     vertex  6.600005e-01  0.000000e+00  4.800000e+00
     vertex  1.186000e+01  1.600000e-01  4.800000e+00
     vertex  6.600005e-01  1.600000e-01  4.800000e+00
   endloop
 endfacet
 facet normal -0.000000e+00 -1.000000e+00  0.000000e+00
   outer loop
     vertex  3.384491e+00  0.000000e+00  1.000000e+00
     vertex  6.600005e-01  0.000000e+00  4.800000e+00
     vertex  6.600005e-01  0.000000e+00  0.000000e+00
   endloop
 endfacet
 facet normal  0.000000e+00 -1.000000e+00  0.000000e+00
   outer loop
     vertex  3.384491e+00  0.000000e+00  1.000000e+00
     vertex  3.384491e+00  0.000000e+00  4.030000e+00
     vertex  6.600005e-01  0.000000e+00  4.800000e+00
   endloop
 endfacet
 facet normal -0.000000e+00 -1.000000e+00  0.000000e+00
   outer loop
     vertex  7.724491e+00  0.000000e+00  1.000000e+00
     vertex  3.384491e+00  0.000000e+00  1.000000e+00
     vertex  6.600005e-01  0.000000e+00  0.000000e+00
   endloop
 endfacet
 facet normal  0.000000e+00 -1.000000e+00  0.000000e+00
   outer loop
     vertex  1.186000e+01  0.000000e+00  4.800000e+00
     vertex  7.724491e+00  0.000000e+00  4.030000e+00
     vertex  7.724491e+00  0.000000e+00  1.000000e+00
   endloop
 endfacet
 facet normal  0.000000e+00 -1.000000e+00  0.000000e+00
   outer loop
     vertex  1.186000e+01  0.000000e+00  0.000000e+00
     vertex  1.186000e+01  0.000000e+00  4.800000e+00
     vertex  7.724491e+00  0.000000e+00  1.000000e+00
   endloop
 endfacet
 facet normal -0.000000e+00 -1.000000e+00  0.000000e+00
   outer loop
     vertex  1.186000e+01  0.000000e+00  4.800000e+00
     vertex  6.600005e-01  0.000000e+00  4.800000e+00
     vertex  7.724491e+00  0.000000e+00  4.030000e+00
   endloop
 endfacet
 facet normal  0.000000e+00 -1.000000e+00  0.000000e+00
   outer loop
     vertex  7.724491e+00  0.000000e+00  4.030000e+00
     vertex  6.600005e-01  0.000000e+00  4.800000e+00
     vertex  3.384491e+00  0.000000e+00  4.030000e+00
   endloop
 endfacet
 facet normal  0.000000e+00 -1.000000e+00  0.000000e+00
   outer loop
     vertex  6.600005e-01  0.000000e+00  0.000000e+00
     vertex  1.186000e+01  0.000000e+00  0.000000e+00
     vertex  7.724491e+00  0.000000e+00  1.000000e+00
   endloop
 endfacet
 facet normal  1.018744e-17  1.000000e+00  0.000000e+00
   outer loop
     vertex  3.384491e+00  1.600000e-01  1.000000e+00
     vertex  6.600005e-01  1.600000e-01  0.000000e+00
     vertex  6.600005e-01  1.600000e-01  4.800000e+00
   endloop
 endfacet
 facet normal  1.018744e-17  1.000000e+00 -0.000000e+00
   outer loop
     vertex  3.384491e+00  1.600000e-01  1.000000e+00
     vertex  6.600005e-01  1.600000e-01  4.800000e+00
     vertex  3.384491e+00  1.600000e-01  4.030000e+00
   endloop
 endfacet
 facet normal  0.000000e+00  1.000000e+00  2.775558e-17
   outer loop
     vertex  7.724491e+00  1.600000e-01  1.000000e+00
     vertex  6.600005e-01  1.600000e-01  0.000000e+00
     vertex  3.384491e+00  1.600000e-01  1.000000e+00
   endloop
 endfacet
 facet normal -6.711527e-18  1.000000e+00  0.000000e+00
   outer loop
     vertex  1.186000e+01  1.600000e-01  4.800000e+00
     vertex  7.724491e+00  1.600000e-01  1.000000e+00
     vertex  7.724491e+00  1.600000e-01  4.030000e+00
   endloop
 endfacet
 facet normal -6.711527e-18  1.000000e+00  0.000000e+00
   outer loop
     vertex  1.186000e+01  1.600000e-01  0.000000e+00
     vertex  7.724491e+00  1.600000e-01  1.000000e+00
     vertex  1.186000e+01  1.600000e-01  4.800000e+00
   endloop
 endfacet
 facet normal  0.000000e+00  1.000000e+00 -3.604619e-17
   outer loop
     vertex  1.186000e+01  1.600000e-01  4.800000e+00
     vertex  7.724491e+00  1.600000e-01  4.030000e+00
     vertex  6.600005e-01  1.600000e-01  4.800000e+00
   endloop
 endfacet
 facet normal  0.000000e+00  1.000000e+00 -3.604619e-17
   outer loop
     vertex  7.724491e+00  1.600000e-01  4.030000e+00
     vertex  3.384491e+00  1.600000e-01  4.030000e+00
     vertex  6.600005e-01  1.600000e-01  4.800000e+00
   endloop
 endfacet
 facet normal -0.000000e+00  1.000000e+00  2.775558e-17
   outer loop
     vertex  6.600005e-01  1.600000e-01  0.000000e+00
     vertex  7.724491e+00  1.600000e-01  1.000000e+00
     vertex  1.186000e+01  1.600000e-01  0.000000e+00
   endloop
 endfacet
 facet normal -1.000000e+00  0.000000e+00  0.000000e+00
   outer loop
     vertex  6.600005e-01  0.000000e+00  4.800000e+00
     vertex  6.600005e-01  1.600000e-01  0.000000e+00
     vertex  6.600005e-01  0.000000e+00  0.000000e+00
   endloop
 endfacet
 facet normal -1.000000e+00  0.000000e+00  0.000000e+00
   outer loop
     vertex  6.600005e-01  0.000000e+00  4.800000e+00
     vertex  6.600005e-01  1.600000e-01  4.800000e+00
     vertex  6.600005e-01  1.600000e-01  0.000000e+00
   endloop
 endfacet
 facet normal  0.000000e+00  0.000000e+00  1.000000e+00
   outer loop
     vertex  7.724491e+00  1.600000e-01  1.000000e+00
     vertex  3.384491e+00  1.600000e-01  1.000000e+00
     vertex  3.384491e+00  0.000000e+00  1.000000e+00
   endloop
 endfacet
 facet normal  0.000000e+00 -0.000000e+00  1.000000e+00
   outer loop
     vertex  7.724491e+00  0.000000e+00  1.000000e+00
     vertex  7.724491e+00  1.600000e-01  1.000000e+00
     vertex  3.384491e+00  0.000000e+00  1.000000e+00
   endloop
 endfacet
 facet normal -1.000000e+00  0.000000e+00  0.000000e+00
   outer loop
     vertex  7.724491e+00  0.000000e+00  4.030000e+00
     vertex  7.724491e+00  1.600000e-01  1.000000e+00
     vertex  7.724491e+00  0.000000e+00  1.000000e+00
   endloop
 endfacet
 facet normal -1.000000e+00  0.000000e+00  0.000000e+00
   outer loop
     vertex  7.724491e+00  0.000000e+00  4.030000e+00
     vertex  7.724491e+00  1.600000e-01  4.030000e+00
     vertex  7.724491e+00  1.600000e-01  1.000000e+00
   endloop
 endfacet
 facet normal  0.000000e+00  0.000000e+00 -1.000000e+00
   outer loop
     vertex  3.384491e+00  0.000000e+00  4.030000e+00
     vertex  7.724491e+00  1.600000e-01  4.030000e+00
     vertex  7.724491e+00  0.000000e+00  4.030000e+00
   endloop
 endfacet
 facet normal  0.000000e+00  0.000000e+00 -1.000000e+00
   outer loop
     vertex  3.384491e+00  0.000000e+00  4.030000e+00
     vertex  3.384491e+00  1.600000e-01  4.030000e+00
     vertex  7.724491e+00  1.600000e-01  4.030000e+00
   endloop
 endfacet
 facet normal  1.000000e+00  0.000000e+00  0.000000e+00
   outer loop
     vertex  3.384491e+00  0.000000e+00  1.000000e+00
     vertex  3.384491e+00  1.600000e-01  4.030000e+00
     vertex  3.384491e+00  0.000000e+00  4.030000e+00
   endloop
 endfacet
 facet normal  1.000000e+00  0.000000e+00  0.000000e+00
   outer loop
     vertex  3.384491e+00  0.000000e+00  1.000000e+00
     vertex  3.384491e+00  1.600000e-01  1.000000e+00
     vertex  3.384491e+00  1.600000e-01  4.030000e+00
   endloop
 endfacet
 facet normal  4.371139e-08  1.000000e+00  0.000000e+00
   outer loop
     vertex -9.800000e-01 -1.180000e+00  0.000000e+00
     vertex -1.140000e+00 -1.180000e+00  0.000000e+00
     vertex -1.140000e+00 -1.180000e+00  4.800000e+00
   endloop
 endfacet
 facet normal  4.371139e-08  1.000000e+00 -0.000000e+00
   outer loop
     vertex -9.800000e-01 -1.180000e+00  0.000000e+00
     vertex -1.140000e+00 -1.180000e+00  4.800000e+00
     vertex -9.800000e-01 -1.180000e+00  4.800000e+00
   endloop
 endfacet
 facet normal -1.000000e+00  4.371139e-08  0.000000e+00
   outer loop
     vertex -1.140000e+00 -7.760938e+00  1.000000e+00
     vertex -1.140000e+00 -1.238000e+01  0.000000e+00
     vertex -1.140000e+00 -1.238000e+01  4.800000e+00
   endloop
 endfacet
 facet normal -1.000000e+00  4.371139e-08  0.000000e+00
   outer loop
     vertex -1.140000e+00 -7.760938e+00  1.000000e+00
     vertex -1.140000e+00 -1.238000e+01  4.800000e+00
     vertex -1.140000e+00 -7.760938e+00  4.030000e+00
   endloop
 endfacet
 facet normal -1.000000e+00  4.371139e-08 -3.452433e-16
   outer loop
     vertex -1.140000e+00 -1.180000e+00  4.800000e+00
     vertex -1.140000e+00 -3.420938e+00  4.030000e+00
     vertex -1.140000e+00 -7.760938e+00  4.030000e+00
   endloop
 endfacet
 facet normal -1.000000e+00  4.371139e-08 -2.794943e-17
   outer loop
     vertex -1.140000e+00 -1.180000e+00  4.800000e+00
     vertex -1.140000e+00 -7.760938e+00  4.030000e+00
     vertex -1.140000e+00 -1.238000e+01  4.800000e+00
   endloop
 endfacet
 facet normal -1.000000e+00  4.371139e-08  0.000000e+00
   outer loop
     vertex -1.140000e+00 -3.420938e+00  1.000000e+00
     vertex -1.140000e+00 -3.420938e+00  4.030000e+00
     vertex -1.140000e+00 -1.180000e+00  4.800000e+00
   endloop
 endfacet
 facet normal -1.000000e+00  4.371139e-08  0.000000e+00
   outer loop
     vertex -1.140000e+00 -1.180000e+00  0.000000e+00
     vertex -1.140000e+00 -3.420938e+00  1.000000e+00
     vertex -1.140000e+00 -1.180000e+00  4.800000e+00
   endloop
 endfacet
 facet normal -1.000000e+00  4.371139e-08  2.152107e-17
   outer loop
     vertex -1.140000e+00 -1.180000e+00  0.000000e+00
     vertex -1.140000e+00 -1.238000e+01  0.000000e+00
     vertex -1.140000e+00 -7.760938e+00  1.000000e+00
   endloop
 endfacet
 facet normal -1.000000e+00  4.371139e-08  2.658375e-16
   outer loop
     vertex -1.140000e+00 -1.180000e+00  0.000000e+00
     vertex -1.140000e+00 -7.760938e+00  1.000000e+00
     vertex -1.140000e+00 -3.420938e+00  1.000000e+00
   endloop
 endfacet
 facet normal  0.000000e+00  0.000000e+00  1.000000e+00
   outer loop
     vertex -1.140000e+00 -1.180000e+00  4.800000e+00
     vertex -1.140000e+00 -1.238000e+01  4.800000e+00
     vertex -9.800005e-01 -1.238000e+01  4.800000e+00
   endloop
 endfacet
 facet normal  0.000000e+00  0.000000e+00  1.000000e+00
   outer loop
     vertex -9.800000e-01 -1.180000e+00  4.800000e+00
     vertex -1.140000e+00 -1.180000e+00  4.800000e+00
     vertex -9.800005e-01 -1.238000e+01  4.800000e+00
   endloop
 endfacet
 facet normal  1.000000e+00 -4.371139e-08  0.000000e+00
   outer loop
     vertex -9.800001e-01 -3.420938e+00  1.000000e+00
     vertex -9.800000e-01 -1.180000e+00  0.000000e+00
     vertex -9.800000e-01 -1.180000e+00  4.800000e+00
   endloop
 endfacet
 facet normal  1.000000e+00 -4.371139e-08  0.000000e+00
   outer loop
     vertex -9.800001e-01 -3.420938e+00  1.000000e+00
     vertex -9.800000e-01 -1.180000e+00  4.800000e+00
     vertex -9.800001e-01 -3.420938e+00  4.030000e+00
   endloop
 endfacet
 facet normal  1.000000e+00 -4.371139e-08 -2.131047e-17
   outer loop
     vertex -9.800003e-01 -7.760938e+00  4.030000e+00
     vertex -9.800001e-01 -3.420938e+00  4.030000e+00
     vertex -9.800000e-01 -1.180000e+00  4.800000e+00
   endloop
 endfacet
 facet normal  1.000000e+00 -4.371139e-08  0.000000e+00
   outer loop
     vertex -9.800005e-01 -1.238000e+01  4.800000e+00
     vertex -9.800003e-01 -7.760938e+00  1.000000e+00
     vertex -9.800003e-01 -7.760938e+00  4.030000e+00
   endloop
 endfacet
 facet normal  1.000000e+00 -4.371139e-08  9.866336e-17
   outer loop
     vertex -9.800005e-01 -1.238000e+01  4.800000e+00
     vertex -9.800003e-01 -7.760938e+00  4.030000e+00
     vertex -9.800000e-01 -1.180000e+00  4.800000e+00
   endloop
 endfacet
 facet normal  1.000000e+00 -4.371139e-08  0.000000e+00
   outer loop
     vertex -9.800005e-01 -1.238000e+01  0.000000e+00
     vertex -9.800003e-01 -7.760938e+00  1.000000e+00
     vertex -9.800005e-01 -1.238000e+01  4.800000e+00
   endloop
 endfacet
 facet normal  1.000000e+00 -4.371139e-08 -7.597081e-17
   outer loop
     vertex -9.800005e-01 -1.238000e+01  0.000000e+00
     vertex -9.800000e-01 -1.180000e+00  0.000000e+00
     vertex -9.800003e-01 -7.760938e+00  1.000000e+00
   endloop
 endfacet
 facet normal  1.000000e+00 -4.371139e-08  1.640907e-17
   outer loop
     vertex -9.800003e-01 -7.760938e+00  1.000000e+00
     vertex -9.800000e-01 -1.180000e+00  0.000000e+00
     vertex -9.800001e-01 -3.420938e+00  1.000000e+00
   endloop
 endfacet
 facet normal  0.000000e+00 -0.000000e+00 -1.000000e+00
   outer loop
     vertex -1.140000e+00 -1.180000e+00  0.000000e+00
     vertex -9.800005e-01 -1.238000e+01  0.000000e+00
     vertex -1.140000e+00 -1.238000e+01  0.000000e+00
   endloop
 endfacet
 facet normal -0.000000e+00  0.000000e+00 -1.000000e+00
   outer loop
     vertex -9.800000e-01 -1.180000e+00  0.000000e+00
     vertex -9.800005e-01 -1.238000e+01  0.000000e+00
     vertex -1.140000e+00 -1.180000e+00  0.000000e+00
   endloop
 endfacet
 facet normal -4.371139e-08 -1.000000e+00  0.000000e+00
   outer loop
     vertex -1.140000e+00 -1.238000e+01  0.000000e+00
     vertex -9.800005e-01 -1.238000e+01  0.000000e+00
     vertex -9.800005e-01 -1.238000e+01  4.800000e+00
   endloop
 endfacet
 facet normal -4.371139e-08 -1.000000e+00  0.000000e+00
   outer loop
     vertex -1.140000e+00 -1.238000e+01  0.000000e+00
     vertex -9.800005e-01 -1.238000e+01  4.800000e+00
     vertex -1.140000e+00 -1.238000e+01  4.800000e+00
   endloop
 endfacet
 facet normal  0.000000e+00 -0.000000e+00  1.000000e+00
   outer loop
     vertex -9.800003e-01 -7.760938e+00  1.000000e+00
     vertex -9.800001e-01 -3.420938e+00  1.000000e+00
     vertex -1.140000e+00 -3.420938e+00  1.000000e+00
   endloop
 endfacet
 facet normal  0.000000e+00  0.000000e+00  1.000000e+00
   outer loop
     vertex -1.140000e+00 -7.760938e+00  1.000000e+00
     vertex -9.800003e-01 -7.760938e+00  1.000000e+00
     vertex -1.140000e+00 -3.420938e+00  1.000000e+00
   endloop
 endfacet
 facet normal -7.549792e-08  1.000000e+00  0.000000e+00
   outer loop
     vertex -1.140000e+00 -7.760938e+00  4.030000e+00
     vertex -9.800003e-01 -7.760938e+00  1.000000e+00
     vertex -1.140000e+00 -7.760938e+00  1.000000e+00
   endloop
 endfacet
 facet normal -7.549792e-08  1.000000e+00  0.000000e+00
   outer loop
     vertex -1.140000e+00 -7.760938e+00  4.030000e+00
     vertex -9.800003e-01 -7.760938e+00  4.030000e+00
     vertex -9.800003e-01 -7.760938e+00  1.000000e+00
   endloop
 endfacet
 facet normal  0.000000e+00 -0.000000e+00 -1.000000e+00
   outer loop
     vertex -1.140000e+00 -3.420938e+00  4.030000e+00
     vertex -9.800003e-01 -7.760938e+00  4.030000e+00
     vertex -1.140000e+00 -7.760938e+00  4.030000e+00
   endloop
 endfacet
 facet normal  0.000000e+00  0.000000e+00 -1.000000e+00
   outer loop
     vertex -1.140000e+00 -3.420938e+00  4.030000e+00
     vertex -9.800001e-01 -3.420938e+00  4.030000e+00
     vertex -9.800003e-01 -7.760938e+00  4.030000e+00
   endloop
 endfacet
 facet normal  7.549793e-08 -1.000000e+00  0.000000e+00
   outer loop
     vertex -9.800001e-01 -3.420938e+00  1.000000e+00
     vertex -9.800001e-01 -3.420938e+00  4.030000e+00
     vertex -1.140000e+00 -3.420938e+00  4.030000e+00
   endloop
 endfacet
 facet normal  7.549793e-08 -1.000000e+00  0.000000e+00
   outer loop
     vertex -1.140000e+00 -3.420938e+00  1.000000e+00
     vertex -9.800001e-01 -3.420938e+00  1.000000e+00
     vertex -1.140000e+00 -3.420938e+00  4.030000e+00
   endloop
 endfacet
 facet normal  4.371139e-08 -1.000000e+00  0.000000e+00
   outer loop
     vertex -6.080000e+00 -1.009999e+00  0.000000e+00
     vertex -5.920000e+00 -1.009999e+00  0.000000e+00
     vertex -5.920000e+00 -1.009999e+00  4.800000e+00
   endloop
 endfacet
 facet normal  4.371139e-08 -1.000000e+00  0.000000e+00
   outer loop
     vertex -6.080000e+00 -1.009999e+00  0.000000e+00
     vertex -5.920000e+00 -1.009999e+00  4.800000e+00
     vertex -6.080000e+00 -1.009999e+00  4.800000e+00
   endloop
 endfacet
 facet normal  1.000000e+00  4.371139e-08  0.000000e+00
   outer loop
     vertex -5.920000e+00  6.916437e+00  1.000000e+00
     vertex -5.920001e+00  1.019000e+01  0.000000e+00
     vertex -5.920001e+00  1.019000e+01  4.800000e+00
   endloop
 endfacet
 facet normal  1.000000e+00  4.371139e-08 -0.000000e+00
   outer loop
     vertex -5.920000e+00  6.916437e+00  1.000000e+00
     vertex -5.920001e+00  1.019000e+01  4.800000e+00
     vertex -5.920000e+00  6.916437e+00  4.030000e+00
   endloop
 endfacet
 facet normal  1.000000e+00  4.371139e-08 -1.029771e-15
   outer loop
     vertex -5.920000e+00  2.576437e+00  4.030000e+00
     vertex -5.920000e+00  6.916437e+00  4.030000e+00
     vertex -5.920001e+00  1.019000e+01  4.800000e+00
   endloop
 endfacet
 facet normal  1.000000e+00  4.371139e-08 -1.250776e-15
   outer loop
     vertex -5.920000e+00 -1.009999e+00  4.800000e+00
     vertex -5.920000e+00  2.576437e+00  4.030000e+00
     vertex -5.920001e+00  1.019000e+01  4.800000e+00
   endloop
 endfacet
 facet normal  1.000000e+00  4.371139e-08 -0.000000e+00
   outer loop
     vertex -5.920000e+00  2.576437e+00  1.000000e+00
     vertex -5.920000e+00  2.576437e+00  4.030000e+00
     vertex -5.920000e+00 -1.009999e+00  4.800000e+00
   endloop
 endfacet
 facet normal  1.000000e+00  4.371139e-08 -0.000000e+00
   outer loop
     vertex -5.920000e+00 -1.009999e+00  0.000000e+00
     vertex -5.920000e+00  2.576437e+00  1.000000e+00
     vertex -5.920000e+00 -1.009999e+00  4.800000e+00
   endloop
 endfacet
 facet normal  1.000000e+00  4.371139e-08  8.660929e-16
   outer loop
     vertex -5.920000e+00 -1.009999e+00  0.000000e+00
     vertex -5.920001e+00  1.019000e+01  0.000000e+00
     vertex -5.920000e+00  6.916437e+00  1.000000e+00
   endloop
 endfacet
 facet normal  1.000000e+00  4.371139e-08  1.043260e-15
   outer loop
     vertex -5.920000e+00 -1.009999e+00  0.000000e+00
     vertex -5.920000e+00  6.916437e+00  1.000000e+00
     vertex -5.920000e+00  2.576437e+00  1.000000e+00
   endloop
 endfacet
 facet normal  0.000000e+00  0.000000e+00  1.000000e+00
   outer loop
     vertex -5.920000e+00 -1.009999e+00  4.800000e+00
     vertex -5.920001e+00  1.019000e+01  4.800000e+00
     vertex -6.080001e+00  1.019000e+01  4.800000e+00
   endloop
 endfacet
 facet normal  0.000000e+00 -0.000000e+00  1.000000e+00
   outer loop
     vertex -6.080000e+00 -1.009999e+00  4.800000e+00
     vertex -5.920000e+00 -1.009999e+00  4.800000e+00
     vertex -6.080001e+00  1.019000e+01  4.800000e+00
   endloop
 endfacet
 facet normal -1.000000e+00 -4.371139e-08  0.000000e+00
   outer loop
     vertex -6.080000e+00  2.576437e+00  1.000000e+00
     vertex -6.080000e+00 -1.009999e+00  0.000000e+00
     vertex -6.080000e+00 -1.009999e+00  4.800000e+00
   endloop
 endfacet
 facet normal -1.000000e+00 -4.371139e-08  0.000000e+00
   outer loop
     vertex -6.080000e+00  2.576437e+00  1.000000e+00
     vertex -6.080000e+00 -1.009999e+00  4.800000e+00
     vertex -6.080000e+00  2.576437e+00  4.030000e+00
   endloop
 endfacet
 facet normal -1.000000e+00 -4.371139e-08 -5.299271e-17
   outer loop
     vertex -6.080001e+00  1.019000e+01  4.800000e+00
     vertex -6.080000e+00  6.916437e+00  4.030000e+00
     vertex -6.080000e+00  2.576437e+00  4.030000e+00
   endloop
 endfacet
 facet normal -1.000000e+00 -4.371139e-08  1.680120e-16
   outer loop
     vertex -6.080001e+00  1.019000e+01  4.800000e+00
     vertex -6.080000e+00  2.576437e+00  4.030000e+00
     vertex -6.080000e+00 -1.009999e+00  4.800000e+00
   endloop
 endfacet
 facet normal -1.000000e+00 -4.371139e-08  0.000000e+00
   outer loop
     vertex -6.080000e+00  6.916437e+00  1.000000e+00
     vertex -6.080000e+00  6.916437e+00  4.030000e+00
     vertex -6.080001e+00  1.019000e+01  4.800000e+00
   endloop
 endfacet
 facet normal -1.000000e+00 -4.371139e-08  0.000000e+00
   outer loop
     vertex -6.080001e+00  1.019000e+01  0.000000e+00
     vertex -6.080000e+00  6.916437e+00  1.000000e+00
     vertex -6.080001e+00  1.019000e+01  4.800000e+00
   endloop
 endfacet
 facet normal -1.000000e+00 -4.371139e-08 -3.236422e-17
   outer loop
     vertex -6.080001e+00  1.019000e+01  0.000000e+00
     vertex -6.080000e+00 -1.009999e+00  0.000000e+00
     vertex -6.080000e+00  6.916437e+00  1.000000e+00
   endloop
 endfacet
 facet normal -1.000000e+00 -4.371139e-08 -2.095312e-16
   outer loop
     vertex -6.080000e+00  6.916437e+00  1.000000e+00
     vertex -6.080000e+00 -1.009999e+00  0.000000e+00
     vertex -6.080000e+00  2.576437e+00  1.000000e+00
   endloop
 endfacet
 facet normal  0.000000e+00  0.000000e+00 -1.000000e+00
   outer loop
     vertex -5.920000e+00 -1.009999e+00  0.000000e+00
     vertex -6.080001e+00  1.019000e+01  0.000000e+00
     vertex -5.920001e+00  1.019000e+01  0.000000e+00
   endloop
 endfacet
 facet normal  0.000000e+00  0.000000e+00 -1.000000e+00
   outer loop
     vertex -6.080000e+00 -1.009999e+00  0.000000e+00
     vertex -6.080001e+00  1.019000e+01  0.000000e+00
     vertex -5.920000e+00 -1.009999e+00  0.000000e+00
   endloop
 endfacet
 facet normal -4.371137e-08  1.000000e+00  0.000000e+00
   outer loop
     vertex -5.920001e+00  1.019000e+01  0.000000e+00
     vertex -6.080001e+00  1.019000e+01  0.000000e+00
     vertex -6.080001e+00  1.019000e+01  4.800000e+00
   endloop
 endfacet
 facet normal -4.371137e-08  1.000000e+00  0.000000e+00
   outer loop
     vertex -5.920001e+00  1.019000e+01  0.000000e+00
     vertex -6.080001e+00  1.019000e+01  4.800000e+00
     vertex -5.920001e+00  1.019000e+01  4.800000e+00
   endloop
 endfacet
 facet normal  0.000000e+00  0.000000e+00  1.000000e+00
   outer loop
     vertex -5.920000e+00  6.916437e+00  1.000000e+00
     vertex -6.080000e+00  2.576437e+00  1.000000e+00
     vertex -5.920000e+00  2.576437e+00  1.000000e+00
   endloop
 endfacet
 facet normal  0.000000e+00  0.000000e+00  1.000000e+00
   outer loop
     vertex -5.920000e+00  6.916437e+00  1.000000e+00
     vertex -6.080000e+00  6.916437e+00  1.000000e+00
     vertex -6.080000e+00  2.576437e+00  1.000000e+00
   endloop
 endfacet
 facet normal -7.549793e-08 -1.000000e+00 -0.000000e+00
   outer loop
     vertex -5.920000e+00  6.916437e+00  4.030000e+00
     vertex -6.080000e+00  6.916437e+00  1.000000e+00
     vertex -5.920000e+00  6.916437e+00  1.000000e+00
   endloop
 endfacet
 facet normal -7.549793e-08 -1.000000e+00  0.000000e+00
   outer loop
     vertex -5.920000e+00  6.916437e+00  4.030000e+00
     vertex -6.080000e+00  6.916437e+00  4.030000e+00
     vertex -6.080000e+00  6.916437e+00  1.000000e+00
   endloop
 endfacet
 facet normal  0.000000e+00  0.000000e+00 -1.000000e+00
   outer loop
     vertex -6.080000e+00  2.576437e+00  4.030000e+00
     vertex -6.080000e+00  6.916437e+00  4.030000e+00
     vertex -5.920000e+00  6.916437e+00  4.030000e+00
   endloop
 endfacet
 facet normal  0.000000e+00  0.000000e+00 -1.000000e+00
   outer loop
     vertex -5.920000e+00  2.576437e+00  4.030000e+00
     vertex -6.080000e+00  2.576437e+00  4.030000e+00
     vertex -5.920000e+00  6.916437e+00  4.030000e+00
   endloop
 endfacet
 facet normal  7.549792e-08  1.000000e+00 -0.000000e+00
   outer loop
     vertex -6.080000e+00  2.576437e+00  1.000000e+00
     vertex -6.080000e+00  2.576437e+00  4.030000e+00
     vertex -5.920000e+00  2.576437e+00  4.030000e+00
   endloop
 endfacet
 facet normal  7.549792e-08  1.000000e+00 -0.000000e+00
   outer loop
     vertex -5.920000e+00  2.576437e+00  1.000000e+00
     vertex -6.080000e+00  2.576437e+00  1.000000e+00
     vertex -5.920000e+00  2.576437e+00  4.030000e+00
   endloop
 endfacet
endsolid
