solid 
 facet normal  0.000000e+00 -1.000000e+00 -0.000000e+00
   outer loop
     vertex  1.760000e-01  0.000000e+00  7.680000e-02
     vertex  1.600000e-02  0.000000e+00  0.000000e+00
     vertex  1.760000e-01  0.000000e+00  0.000000e+00
   endloop
 endfacet
 facet normal -0.000000e+00 -1.000000e+00  0.000000e+00
   outer loop
     vertex  1.760000e-01  0.000000e+00  7.680000e-02
     vertex  1.600000e-02  0.000000e+00  7.680000e-02
     vertex  1.600000e-02  0.000000e+00  0.000000e+00
   endloop
 endfacet
 facet normal -0.000000e+00  0.000000e+00 -1.000000e+00
   outer loop
     vertex  1.080000e-01  1.200000e-02  0.000000e+00
     vertex  1.600000e-02  0.000000e+00  0.000000e+00
     vertex  1.600000e-02  1.600000e-02  0.000000e+00
   endloop
 endfacet
 facet normal -0.000000e+00 -0.000000e+00 -1.000000e+00
   outer loop
     vertex  1.080000e-01  1.600000e-02  0.000000e+00
     vertex  1.080000e-01  1.200000e-02  0.000000e+00
     vertex  1.600000e-02  1.600000e-02  0.000000e+00
   endloop
 endfacet
 facet normal  0.000000e+00  0.000000e+00 -1.000000e+00
   outer loop
     vertex  1.760000e-01  0.000000e+00  0.000000e+00
     vertex  1.080000e-01  1.200000e-02  0.000000e+00
     vertex  1.160000e-01  1.200000e-02  0.000000e+00
   endloop
 endfacet
 facet normal  0.000000e+00  0.000000e+00 -1.000000e+00
   outer loop
     vertex  1.760000e-01  0.000000e+00  0.000000e+00
     vertex  1.600000e-02  0.000000e+00  0.000000e+00
     vertex  1.080000e-01  1.200000e-02  0.000000e+00
   endloop
 endfacet
 facet normal -0.000000e+00  0.000000e+00 -1.000000e+00
   outer loop
     vertex  1.760000e-01  1.600000e-02  0.000000e+00
     vertex  1.160000e-01  1.200000e-02  0.000000e+00
     vertex  1.160000e-01  1.600000e-02  0.000000e+00
   endloop
 endfacet
 facet normal  0.000000e+00 -0.000000e+00 -1.000000e+00
   outer loop
     vertex  1.760000e-01  1.600000e-02  0.000000e+00
     vertex  1.760000e-01  0.000000e+00  0.000000e+00
     vertex  1.160000e-01  1.200000e-02  0.000000e+00
   endloop
 endfacet
 facet normal  0.000000e+00 -1.000000e+00  0.000000e+00
   outer loop
     vertex  1.760000e-01  0.000000e+00  7.680000e-02
     vertex  1.760000e-01  0.000000e+00  0.000000e+00
     vertex  1.920000e-01  0.000000e+00  0.000000e+00
   endloop
 endfacet
 facet normal  0.000000e+00 -1.000000e+00  0.000000e+00
   outer loop
     vertex  1.760000e-01  0.000000e+00  7.680000e-02
     vertex  1.920000e-01  0.000000e+00  0.000000e+00
     vertex  1.920000e-01  0.000000e+00  7.680000e-02
   endloop
 endfacet
 facet normal  0.000000e+00  0.000000e+00  1.000000e+00
   outer loop
     vertex  1.080000e-01  1.200000e-02  7.680000e-02
     vertex  1.600000e-02  1.600000e-02  7.680000e-02
     vertex  1.600000e-02  0.000000e+00  7.680000e-02
   endloop
 endfacet
 facet normal  0.000000e+00  0.000000e+00  1.000000e+00
   outer loop
     vertex  1.080000e-01  1.600000e-02  7.680000e-02
     vertex  1.600000e-02  1.600000e-02  7.680000e-02
     vertex  1.080000e-01  1.200000e-02  7.680000e-02
   endloop
 endfacet
 facet normal  0.000000e+00  0.000000e+00  1.000000e+00
   outer loop
     vertex  1.760000e-01  0.000000e+00  7.680000e-02
     vertex  1.160000e-01  1.200000e-02  7.680000e-02
     vertex  1.080000e-01  1.200000e-02  7.680000e-02
   endloop
 endfacet
 facet normal  0.000000e+00  0.000000e+00  1.000000e+00
   outer loop
     vertex  1.760000e-01  0.000000e+00  7.680000e-02
     vertex  1.080000e-01  1.200000e-02  7.680000e-02
     vertex  1.600000e-02  0.000000e+00  7.680000e-02
   endloop
 endfacet
 facet normal  0.000000e+00  0.000000e+00  1.000000e+00
   outer loop
     vertex  1.760000e-01  1.600000e-02  7.680000e-02
     vertex  1.160000e-01  1.600000e-02  7.680000e-02
     vertex  1.160000e-01  1.200000e-02  7.680000e-02
   endloop
 endfacet
 facet normal  0.000000e+00  0.000000e+00  1.000000e+00
   outer loop
     vertex  1.760000e-01  1.600000e-02  7.680000e-02
     vertex  1.160000e-01  1.200000e-02  7.680000e-02
     vertex  1.760000e-01  0.000000e+00  7.680000e-02
   endloop
 endfacet
 facet normal  0.000000e+00 -1.000000e+00 -0.000000e+00
   outer loop
     vertex  1.600000e-02  0.000000e+00  7.680000e-02
     vertex  0.000000e+00  0.000000e+00  0.000000e+00
     vertex  1.600000e-02  0.000000e+00  0.000000e+00
   endloop
 endfacet
 facet normal -0.000000e+00 -1.000000e+00  0.000000e+00
   outer loop
     vertex  1.600000e-02  0.000000e+00  7.680000e-02
     vertex  0.000000e+00  0.000000e+00  7.680000e-02
     vertex  0.000000e+00  0.000000e+00  0.000000e+00
   endloop
 endfacet
 facet normal  0.000000e+00 -0.000000e+00 -1.000000e+00
   outer loop
     vertex  1.600000e-02  1.600000e-02  0.000000e+00
     vertex  1.600000e-02  0.000000e+00  0.000000e+00
     vertex  0.000000e+00  0.000000e+00  0.000000e+00
   endloop
 endfacet
 facet normal  0.000000e+00 -0.000000e+00 -1.000000e+00
   outer loop
     vertex  1.600000e-02  7.600000e-02  0.000000e+00
     vertex  1.600000e-02  1.600000e-02  0.000000e+00
     vertex  0.000000e+00  0.000000e+00  0.000000e+00
   endloop
 endfacet
 facet normal  0.000000e+00  0.000000e+00 -1.000000e+00
   outer loop
     vertex  0.000000e+00  1.440000e-01  0.000000e+00
     vertex  1.600000e-02  1.280000e-01  0.000000e+00
     vertex  1.600000e-02  8.400000e-02  0.000000e+00
   endloop
 endfacet
 facet normal  0.000000e+00  0.000000e+00 -1.000000e+00
   outer loop
     vertex  0.000000e+00  1.440000e-01  0.000000e+00
     vertex  1.600000e-02  1.440000e-01  0.000000e+00
     vertex  1.600000e-02  1.280000e-01  0.000000e+00
   endloop
 endfacet
 facet normal  0.000000e+00  0.000000e+00 -1.000000e+00
   outer loop
     vertex  0.000000e+00  1.440000e-01  0.000000e+00
     vertex  1.600000e-02  7.600000e-02  0.000000e+00
     vertex  0.000000e+00  0.000000e+00  0.000000e+00
   endloop
 endfacet
 facet normal  0.000000e+00  0.000000e+00 -1.000000e+00
   outer loop
     vertex  0.000000e+00  1.440000e-01  0.000000e+00
     vertex  1.600000e-02  8.400000e-02  0.000000e+00
     vertex  1.600000e-02  7.600000e-02  0.000000e+00
   endloop
 endfacet
 facet normal  0.000000e+00  1.000000e+00  0.000000e+00
   outer loop
     vertex  1.080000e-01  1.600000e-02  7.680000e-02
     vertex  1.080000e-01  1.600000e-02  0.000000e+00
     vertex  1.600000e-02  1.600000e-02  0.000000e+00
   endloop
 endfacet
 facet normal  0.000000e+00  1.000000e+00  0.000000e+00
   outer loop
     vertex  1.080000e-01  1.600000e-02  7.680000e-02
     vertex  1.600000e-02  1.600000e-02  0.000000e+00
     vertex  1.600000e-02  1.600000e-02  7.680000e-02
   endloop
 endfacet
 facet normal -0.000000e+00  0.000000e+00 -1.000000e+00
   outer loop
     vertex  1.160000e-01  1.600000e-02  0.000000e+00
     vertex  1.080000e-01  1.200000e-02  0.000000e+00
     vertex  1.080000e-01  1.600000e-02  0.000000e+00
   endloop
 endfacet
 facet normal  0.000000e+00 -0.000000e+00 -1.000000e+00
   outer loop
     vertex  1.160000e-01  1.600000e-02  0.000000e+00
     vertex  1.160000e-01  1.200000e-02  0.000000e+00
     vertex  1.080000e-01  1.200000e-02  0.000000e+00
   endloop
 endfacet
 facet normal  0.000000e+00  1.000000e+00  0.000000e+00
   outer loop
     vertex  1.760000e-01  1.600000e-02  7.680000e-02
     vertex  1.760000e-01  1.600000e-02  0.000000e+00
     vertex  1.160000e-01  1.600000e-02  0.000000e+00
   endloop
 endfacet
 facet normal  0.000000e+00  1.000000e+00  0.000000e+00
   outer loop
     vertex  1.760000e-01  1.600000e-02  7.680000e-02
     vertex  1.160000e-01  1.600000e-02  0.000000e+00
     vertex  1.160000e-01  1.600000e-02  7.680000e-02
   endloop
 endfacet
 facet normal  0.000000e+00  0.000000e+00 -1.000000e+00
   outer loop
     vertex  1.760000e-01  1.280000e-01  0.000000e+00
     vertex  1.760000e-01  1.440000e-01  0.000000e+00
     vertex  1.920000e-01  1.440000e-01  0.000000e+00
   endloop
 endfacet
 facet normal  0.000000e+00  0.000000e+00 -1.000000e+00
   outer loop
     vertex  1.920000e-01  0.000000e+00  0.000000e+00
     vertex  1.760000e-01  0.000000e+00  0.000000e+00
     vertex  1.760000e-01  1.600000e-02  0.000000e+00
   endloop
 endfacet
 facet normal  0.000000e+00  0.000000e+00 -1.000000e+00
   outer loop
     vertex  1.920000e-01  0.000000e+00  0.000000e+00
     vertex  1.760000e-01  1.600000e-02  0.000000e+00
     vertex  1.920000e-01  1.440000e-01  0.000000e+00
   endloop
 endfacet
 facet normal  0.000000e+00  0.000000e+00 -1.000000e+00
   outer loop
     vertex  1.760000e-01  1.600000e-02  0.000000e+00
     vertex  1.760000e-01  1.280000e-01  0.000000e+00
     vertex  1.920000e-01  1.440000e-01  0.000000e+00
   endloop
 endfacet
 facet normal  0.000000e+00  0.000000e+00  1.000000e+00
   outer loop
     vertex  1.760000e-01  1.280000e-01  7.680000e-02
     vertex  1.920000e-01  1.440000e-01  7.680000e-02
     vertex  1.760000e-01  1.440000e-01  7.680000e-02
   endloop
 endfacet
 facet normal  0.000000e+00  0.000000e+00  1.000000e+00
   outer loop
     vertex  1.920000e-01  0.000000e+00  7.680000e-02
     vertex  1.760000e-01  1.600000e-02  7.680000e-02
     vertex  1.760000e-01  0.000000e+00  7.680000e-02
   endloop
 endfacet
 facet normal  0.000000e+00 -0.000000e+00  1.000000e+00
   outer loop
     vertex  1.920000e-01  0.000000e+00  7.680000e-02
     vertex  1.920000e-01  1.440000e-01  7.680000e-02
     vertex  1.760000e-01  1.600000e-02  7.680000e-02
   endloop
 endfacet
 facet normal  0.000000e+00  0.000000e+00  1.000000e+00
   outer loop
     vertex  1.760000e-01  1.600000e-02  7.680000e-02
     vertex  1.920000e-01  1.440000e-01  7.680000e-02
     vertex  1.760000e-01  1.280000e-01  7.680000e-02
   endloop
 endfacet
 facet normal  1.000000e+00 -3.854941e-16  0.000000e+00
   outer loop
     vertex  1.920000e-01  0.000000e+00  7.680000e-02
     vertex  1.920000e-01  0.000000e+00  0.000000e+00
     vertex  1.920000e-01  1.440000e-01  0.000000e+00
   endloop
 endfacet
 facet normal  1.000000e+00 -3.854941e-16  0.000000e+00
   outer loop
     vertex  1.920000e-01  0.000000e+00  7.680000e-02
     vertex  1.920000e-01  1.440000e-01  0.000000e+00
     vertex  1.920000e-01  1.440000e-01  7.680000e-02
   endloop
 endfacet
 facet normal  0.000000e+00  0.000000e+00  1.000000e+00
   outer loop
     vertex  1.600000e-02  1.600000e-02  7.680000e-02
     vertex  0.000000e+00  0.000000e+00  7.680000e-02
     vertex  1.600000e-02  0.000000e+00  7.680000e-02
   endloop
 endfacet
 facet normal  0.000000e+00  0.000000e+00  1.000000e+00
   outer loop
     vertex  1.600000e-02  7.600000e-02  7.680000e-02
     vertex  0.000000e+00  0.000000e+00  7.680000e-02
     vertex  1.600000e-02  1.600000e-02  7.680000e-02
   endloop
 endfacet
 facet normal  0.000000e+00  0.000000e+00  1.000000e+00
   outer loop
     vertex  0.000000e+00  1.440000e-01  7.680000e-02
     vertex  1.600000e-02  8.400000e-02  7.680000e-02
     vertex  1.600000e-02  1.280000e-01  7.680000e-02
   endloop
 endfacet
 facet normal -0.000000e+00  0.000000e+00  1.000000e+00
   outer loop
     vertex  0.000000e+00  1.440000e-01  7.680000e-02
     vertex  1.600000e-02  1.280000e-01  7.680000e-02
     vertex  1.600000e-02  1.440000e-01  7.680000e-02
   endloop
 endfacet
 facet normal  0.000000e+00  0.000000e+00  1.000000e+00
   outer loop
     vertex  0.000000e+00  1.440000e-01  7.680000e-02
     vertex  0.000000e+00  0.000000e+00  7.680000e-02
     vertex  1.600000e-02  7.600000e-02  7.680000e-02
   endloop
 endfacet
 facet normal  0.000000e+00  0.000000e+00  1.000000e+00
   outer loop
     vertex  0.000000e+00  1.440000e-01  7.680000e-02
     vertex  1.600000e-02  7.600000e-02  7.680000e-02
     vertex  1.600000e-02  8.400000e-02  7.680000e-02
   endloop
 endfacet
 facet normal  0.000000e+00  0.000000e+00  1.000000e+00
   outer loop
     vertex  1.160000e-01  1.600000e-02  7.680000e-02
     vertex  1.080000e-01  1.600000e-02  7.680000e-02
     vertex  1.080000e-01  1.200000e-02  7.680000e-02
   endloop
 endfacet
 facet normal  0.000000e+00  0.000000e+00  1.000000e+00
   outer loop
     vertex  1.160000e-01  1.600000e-02  7.680000e-02
     vertex  1.080000e-01  1.200000e-02  7.680000e-02
     vertex  1.160000e-01  1.200000e-02  7.680000e-02
   endloop
 endfacet
 facet normal -1.000000e+00  0.000000e+00 -0.000000e+00
   outer loop
     vertex  0.000000e+00  1.440000e-01  7.680000e-02
     vertex  0.000000e+00  1.440000e-01  0.000000e+00
     vertex  0.000000e+00  0.000000e+00  0.000000e+00
   endloop
 endfacet
 facet normal -1.000000e+00 -0.000000e+00  0.000000e+00
   outer loop
     vertex  0.000000e+00  1.440000e-01  7.680000e-02
     vertex  0.000000e+00  0.000000e+00  0.000000e+00
     vertex  0.000000e+00  0.000000e+00  7.680000e-02
   endloop
 endfacet
 facet normal -1.734723e-15  1.000000e+00  0.000000e+00
   outer loop
     vertex  1.600000e-02  1.440000e-01  7.680000e-02
     vertex  1.600000e-02  1.440000e-01  0.000000e+00
     vertex  0.000000e+00  1.440000e-01  0.000000e+00
   endloop
 endfacet
 facet normal -1.734723e-15  1.000000e+00  0.000000e+00
   outer loop
     vertex  1.600000e-02  1.440000e-01  7.680000e-02
     vertex  0.000000e+00  1.440000e-01  0.000000e+00
     vertex  0.000000e+00  1.440000e-01  7.680000e-02
   endloop
 endfacet
 facet normal  1.000000e+00  0.000000e+00  0.000000e+00
   outer loop
     vertex  1.600000e-02  7.600000e-02  7.680000e-02
     vertex  1.600000e-02  1.600000e-02  0.000000e+00
     vertex  1.600000e-02  7.600000e-02  0.000000e+00
   endloop
 endfacet
 facet normal  1.000000e+00  0.000000e+00  0.000000e+00
   outer loop
     vertex  1.600000e-02  7.600000e-02  7.680000e-02
     vertex  1.600000e-02  1.600000e-02  7.680000e-02
     vertex  1.600000e-02  1.600000e-02  0.000000e+00
   endloop
 endfacet
 facet normal -0.000000e+00  0.000000e+00 -1.000000e+00
   outer loop
     vertex  7.600000e-02  8.000000e-02  0.000000e+00
     vertex  1.600000e-02  7.600000e-02  0.000000e+00
     vertex  1.600000e-02  8.400000e-02  0.000000e+00
   endloop
 endfacet
 facet normal  0.000000e+00 -0.000000e+00 -1.000000e+00
   outer loop
     vertex  7.600000e-02  8.000000e-02  0.000000e+00
     vertex  7.600000e-02  7.600000e-02  0.000000e+00
     vertex  1.600000e-02  7.600000e-02  0.000000e+00
   endloop
 endfacet
 facet normal  0.000000e+00 -0.000000e+00 -1.000000e+00
   outer loop
     vertex  8.000000e-02  8.400000e-02  0.000000e+00
     vertex  8.000000e-02  8.000000e-02  0.000000e+00
     vertex  7.600000e-02  8.000000e-02  0.000000e+00
   endloop
 endfacet
 facet normal -0.000000e+00  0.000000e+00 -1.000000e+00
   outer loop
     vertex  8.000000e-02  8.400000e-02  0.000000e+00
     vertex  7.600000e-02  8.000000e-02  0.000000e+00
     vertex  1.600000e-02  8.400000e-02  0.000000e+00
   endloop
 endfacet
 facet normal  1.000000e+00  0.000000e+00  0.000000e+00
   outer loop
     vertex  1.600000e-02  1.280000e-01  7.680000e-02
     vertex  1.600000e-02  8.400000e-02  0.000000e+00
     vertex  1.600000e-02  1.280000e-01  0.000000e+00
   endloop
 endfacet
 facet normal  1.000000e+00  0.000000e+00  0.000000e+00
   outer loop
     vertex  1.600000e-02  1.280000e-01  7.680000e-02
     vertex  1.600000e-02  8.400000e-02  7.680000e-02
     vertex  1.600000e-02  8.400000e-02  0.000000e+00
   endloop
 endfacet
 facet normal -0.000000e+00  0.000000e+00 -1.000000e+00
   outer loop
     vertex  1.760000e-01  1.440000e-01  0.000000e+00
     vertex  1.600000e-02  1.280000e-01  0.000000e+00
     vertex  1.600000e-02  1.440000e-01  0.000000e+00
   endloop
 endfacet
 facet normal  0.000000e+00  0.000000e+00 -1.000000e+00
   outer loop
     vertex  1.760000e-01  1.440000e-01  0.000000e+00
     vertex  1.760000e-01  1.280000e-01  0.000000e+00
     vertex  1.600000e-02  1.280000e-01  0.000000e+00
   endloop
 endfacet
 facet normal -1.000000e+00  0.000000e+00 -0.000000e+00
   outer loop
     vertex  1.080000e-01  4.400000e-02  7.680000e-02
     vertex  1.080000e-01  4.400000e-02  0.000000e+00
     vertex  1.080000e-01  1.600000e-02  0.000000e+00
   endloop
 endfacet
 facet normal -1.000000e+00 -0.000000e+00  0.000000e+00
   outer loop
     vertex  1.080000e-01  4.400000e-02  7.680000e-02
     vertex  1.080000e-01  1.600000e-02  0.000000e+00
     vertex  1.080000e-01  1.600000e-02  7.680000e-02
   endloop
 endfacet
 facet normal  0.000000e+00  0.000000e+00 -1.000000e+00
   outer loop
     vertex  1.080000e-01  4.400000e-02  0.000000e+00
     vertex  1.160000e-01  1.600000e-02  0.000000e+00
     vertex  1.080000e-01  1.600000e-02  0.000000e+00
   endloop
 endfacet
 facet normal  0.000000e+00 -0.000000e+00 -1.000000e+00
   outer loop
     vertex  1.160000e-01  5.200000e-02  0.000000e+00
     vertex  1.160000e-01  1.600000e-02  0.000000e+00
     vertex  1.080000e-01  4.400000e-02  0.000000e+00
   endloop
 endfacet
 facet normal  0.000000e+00  0.000000e+00 -1.000000e+00
   outer loop
     vertex  1.080000e-01  5.200000e-02  0.000000e+00
     vertex  1.160000e-01  5.200000e-02  0.000000e+00
     vertex  1.080000e-01  4.400000e-02  0.000000e+00
   endloop
 endfacet
 facet normal -1.000000e+00  0.000000e+00  0.000000e+00
   outer loop
     vertex  1.760000e-01  1.600000e-02  7.680000e-02
     vertex  1.760000e-01  1.280000e-01  0.000000e+00
     vertex  1.760000e-01  1.600000e-02  0.000000e+00
   endloop
 endfacet
 facet normal -1.000000e+00  0.000000e+00  0.000000e+00
   outer loop
     vertex  1.760000e-01  1.600000e-02  7.680000e-02
     vertex  1.760000e-01  1.280000e-01  7.680000e-02
     vertex  1.760000e-01  1.280000e-01  0.000000e+00
   endloop
 endfacet
 facet normal  1.000000e+00  0.000000e+00  0.000000e+00
   outer loop
     vertex  1.160000e-01  5.200000e-02  7.680000e-02
     vertex  1.160000e-01  1.600000e-02  0.000000e+00
     vertex  1.160000e-01  5.200000e-02  0.000000e+00
   endloop
 endfacet
 facet normal  1.000000e+00  0.000000e+00  0.000000e+00
   outer loop
     vertex  1.160000e-01  5.200000e-02  7.680000e-02
     vertex  1.160000e-01  1.600000e-02  7.680000e-02
     vertex  1.160000e-01  1.600000e-02  0.000000e+00
   endloop
 endfacet
 facet normal  1.734723e-15  1.000000e+00  0.000000e+00
   outer loop
     vertex  1.760000e-01  1.440000e-01  7.680000e-02
     vertex  1.920000e-01  1.440000e-01  0.000000e+00
     vertex  1.760000e-01  1.440000e-01  0.000000e+00
   endloop
 endfacet
 facet normal  1.734723e-15  1.000000e+00  0.000000e+00
   outer loop
     vertex  1.760000e-01  1.440000e-01  7.680000e-02
     vertex  1.920000e-01  1.440000e-01  7.680000e-02
     vertex  1.920000e-01  1.440000e-01  0.000000e+00
   endloop
 endfacet
 facet normal  0.000000e+00  0.000000e+00  1.000000e+00
   outer loop
     vertex  1.760000e-01  1.440000e-01  7.680000e-02
     vertex  1.600000e-02  1.440000e-01  7.680000e-02
     vertex  1.600000e-02  1.280000e-01  7.680000e-02
   endloop
 endfacet
 facet normal  0.000000e+00  0.000000e+00  1.000000e+00
   outer loop
     vertex  1.760000e-01  1.440000e-01  7.680000e-02
     vertex  1.600000e-02  1.280000e-01  7.680000e-02
     vertex  1.760000e-01  1.280000e-01  7.680000e-02
   endloop
 endfacet
 facet normal  0.000000e+00  0.000000e+00  1.000000e+00
   outer loop
     vertex  7.600000e-02  8.000000e-02  7.680000e-02
     vertex  1.600000e-02  8.400000e-02  7.680000e-02
     vertex  1.600000e-02  7.600000e-02  7.680000e-02
   endloop
 endfacet
 facet normal  0.000000e+00  0.000000e+00  1.000000e+00
   outer loop
     vertex  7.600000e-02  8.000000e-02  7.680000e-02
     vertex  1.600000e-02  7.600000e-02  7.680000e-02
     vertex  7.600000e-02  7.600000e-02  7.680000e-02
   endloop
 endfacet
 facet normal  0.000000e+00  0.000000e+00  1.000000e+00
   outer loop
     vertex  8.000000e-02  8.400000e-02  7.680000e-02
     vertex  7.600000e-02  8.000000e-02  7.680000e-02
     vertex  8.000000e-02  8.000000e-02  7.680000e-02
   endloop
 endfacet
 facet normal  0.000000e+00  0.000000e+00  1.000000e+00
   outer loop
     vertex  8.000000e-02  8.400000e-02  7.680000e-02
     vertex  1.600000e-02  8.400000e-02  7.680000e-02
     vertex  7.600000e-02  8.000000e-02  7.680000e-02
   endloop
 endfacet
 facet normal  0.000000e+00  0.000000e+00  1.000000e+00
   outer loop
     vertex  1.080000e-01  4.400000e-02  7.680000e-02
     vertex  1.080000e-01  1.600000e-02  7.680000e-02
     vertex  1.160000e-01  1.600000e-02  7.680000e-02
   endloop
 endfacet
 facet normal  0.000000e+00  0.000000e+00  1.000000e+00
   outer loop
     vertex  1.160000e-01  5.200000e-02  7.680000e-02
     vertex  1.080000e-01  4.400000e-02  7.680000e-02
     vertex  1.160000e-01  1.600000e-02  7.680000e-02
   endloop
 endfacet
 facet normal -0.000000e+00  0.000000e+00  1.000000e+00
   outer loop
     vertex  1.080000e-01  5.200000e-02  7.680000e-02
     vertex  1.080000e-01  4.400000e-02  7.680000e-02
     vertex  1.160000e-01  5.200000e-02  7.680000e-02
   endloop
 endfacet
 facet normal  0.000000e+00  1.000000e+00  0.000000e+00
   outer loop
     vertex  1.760000e-01  1.440000e-01  7.680000e-02
     vertex  1.760000e-01  1.440000e-01  0.000000e+00
     vertex  1.600000e-02  1.440000e-01  0.000000e+00
   endloop
 endfacet
 facet normal  0.000000e+00  1.000000e+00  0.000000e+00
   outer loop
     vertex  1.760000e-01  1.440000e-01  7.680000e-02
     vertex  1.600000e-02  1.440000e-01  0.000000e+00
     vertex  1.600000e-02  1.440000e-01  7.680000e-02
   endloop
 endfacet
 facet normal  0.000000e+00 -1.000000e+00 -0.000000e+00
   outer loop
     vertex  7.600000e-02  7.600000e-02  7.680000e-02
     vertex  1.600000e-02  7.600000e-02  0.000000e+00
     vertex  7.600000e-02  7.600000e-02  0.000000e+00
   endloop
 endfacet
 facet normal -0.000000e+00 -1.000000e+00  0.000000e+00
   outer loop
     vertex  7.600000e-02  7.600000e-02  7.680000e-02
     vertex  1.600000e-02  7.600000e-02  7.680000e-02
     vertex  1.600000e-02  7.600000e-02  0.000000e+00
   endloop
 endfacet
 facet normal  0.000000e+00  1.000000e+00  0.000000e+00
   outer loop
     vertex  8.000000e-02  8.400000e-02  7.680000e-02
     vertex  8.000000e-02  8.400000e-02  0.000000e+00
     vertex  1.600000e-02  8.400000e-02  0.000000e+00
   endloop
 endfacet
 facet normal  0.000000e+00  1.000000e+00  0.000000e+00
   outer loop
     vertex  8.000000e-02  8.400000e-02  7.680000e-02
     vertex  1.600000e-02  8.400000e-02  0.000000e+00
     vertex  1.600000e-02  8.400000e-02  7.680000e-02
   endloop
 endfacet
 facet normal  1.000000e+00  0.000000e+00  0.000000e+00
   outer loop
     vertex  8.000000e-02  8.000000e-02  7.680000e-02
     vertex  8.000000e-02  8.000000e-02  0.000000e+00
     vertex  8.000000e-02  8.400000e-02  0.000000e+00
   endloop
 endfacet
 facet normal  1.000000e+00 -0.000000e+00  0.000000e+00
   outer loop
     vertex  8.000000e-02  8.000000e-02  7.680000e-02
     vertex  8.000000e-02  8.400000e-02  0.000000e+00
     vertex  8.000000e-02  8.400000e-02  7.680000e-02
   endloop
 endfacet
 facet normal -0.000000e+00  0.000000e+00 -1.000000e+00
   outer loop
     vertex  8.000000e-02  8.000000e-02  0.000000e+00
     vertex  7.600000e-02  7.600000e-02  0.000000e+00
     vertex  7.600000e-02  8.000000e-02  0.000000e+00
   endloop
 endfacet
 facet normal  0.000000e+00 -0.000000e+00 -1.000000e+00
   outer loop
     vertex  8.000000e-02  8.000000e-02  0.000000e+00
     vertex  8.000000e-02  7.600000e-02  0.000000e+00
     vertex  7.600000e-02  7.600000e-02  0.000000e+00
   endloop
 endfacet
 facet normal  0.000000e+00 -1.000000e+00 -0.000000e+00
   outer loop
     vertex  1.760000e-01  1.280000e-01  7.680000e-02
     vertex  1.600000e-02  1.280000e-01  0.000000e+00
     vertex  1.760000e-01  1.280000e-01  0.000000e+00
   endloop
 endfacet
 facet normal -0.000000e+00 -1.000000e+00  0.000000e+00
   outer loop
     vertex  1.760000e-01  1.280000e-01  7.680000e-02
     vertex  1.600000e-02  1.280000e-01  7.680000e-02
     vertex  1.600000e-02  1.280000e-01  0.000000e+00
   endloop
 endfacet
 facet normal  0.000000e+00 -1.000000e+00 -0.000000e+00
   outer loop
     vertex  1.080000e-01  4.400000e-02  7.680000e-02
     vertex  8.400000e-02  4.400000e-02  0.000000e+00
     vertex  1.080000e-01  4.400000e-02  0.000000e+00
   endloop
 endfacet
 facet normal -0.000000e+00 -1.000000e+00  0.000000e+00
   outer loop
     vertex  1.080000e-01  4.400000e-02  7.680000e-02
     vertex  8.400000e-02  4.400000e-02  7.680000e-02
     vertex  8.400000e-02  4.400000e-02  0.000000e+00
   endloop
 endfacet
 facet normal  0.000000e+00  0.000000e+00 -1.000000e+00
   outer loop
     vertex  1.080000e-01  4.400000e-02  0.000000e+00
     vertex  8.400000e-02  4.400000e-02  0.000000e+00
     vertex  8.400000e-02  4.800000e-02  0.000000e+00
   endloop
 endfacet
 facet normal -0.000000e+00  0.000000e+00 -1.000000e+00
   outer loop
     vertex  1.080000e-01  5.200000e-02  0.000000e+00
     vertex  8.400000e-02  4.800000e-02  0.000000e+00
     vertex  8.400000e-02  5.200000e-02  0.000000e+00
   endloop
 endfacet
 facet normal  0.000000e+00 -0.000000e+00 -1.000000e+00
   outer loop
     vertex  1.080000e-01  5.200000e-02  0.000000e+00
     vertex  1.080000e-01  4.400000e-02  0.000000e+00
     vertex  8.400000e-02  4.800000e-02  0.000000e+00
   endloop
 endfacet
 facet normal  0.000000e+00  1.000000e+00  0.000000e+00
   outer loop
     vertex  1.160000e-01  5.200000e-02  7.680000e-02
     vertex  1.160000e-01  5.200000e-02  0.000000e+00
     vertex  1.080000e-01  5.200000e-02  0.000000e+00
   endloop
 endfacet
 facet normal  0.000000e+00  1.000000e+00  0.000000e+00
   outer loop
     vertex  1.160000e-01  5.200000e-02  7.680000e-02
     vertex  1.080000e-01  5.200000e-02  0.000000e+00
     vertex  1.080000e-01  5.200000e-02  7.680000e-02
   endloop
 endfacet
 facet normal  0.000000e+00  0.000000e+00  1.000000e+00
   outer loop
     vertex  8.000000e-02  8.000000e-02  7.680000e-02
     vertex  7.600000e-02  8.000000e-02  7.680000e-02
     vertex  7.600000e-02  7.600000e-02  7.680000e-02
   endloop
 endfacet
 facet normal  0.000000e+00  0.000000e+00  1.000000e+00
   outer loop
     vertex  8.000000e-02  8.000000e-02  7.680000e-02
     vertex  7.600000e-02  7.600000e-02  7.680000e-02
     vertex  8.000000e-02  7.600000e-02  7.680000e-02
   endloop
 endfacet
 facet normal  0.000000e+00  0.000000e+00  1.000000e+00
   outer loop
     vertex  1.080000e-01  4.400000e-02  7.680000e-02
     vertex  8.400000e-02  4.800000e-02  7.680000e-02
     vertex  8.400000e-02  4.400000e-02  7.680000e-02
   endloop
 endfacet
 facet normal  0.000000e+00  0.000000e+00  1.000000e+00
   outer loop
     vertex  1.080000e-01  5.200000e-02  7.680000e-02
     vertex  8.400000e-02  5.200000e-02  7.680000e-02
     vertex  8.400000e-02  4.800000e-02  7.680000e-02
   endloop
 endfacet
 facet normal  0.000000e+00  0.000000e+00  1.000000e+00
   outer loop
     vertex  1.080000e-01  5.200000e-02  7.680000e-02
     vertex  8.400000e-02  4.800000e-02  7.680000e-02
     vertex  1.080000e-01  4.400000e-02  7.680000e-02
   endloop
 endfacet
 facet normal -1.000000e+00  0.000000e+00 -0.000000e+00
   outer loop
     vertex  7.600000e-02  7.600000e-02  7.680000e-02
     vertex  7.600000e-02  7.600000e-02  0.000000e+00
     vertex  7.600000e-02  4.800000e-02  0.000000e+00
   endloop
 endfacet
 facet normal -1.000000e+00 -0.000000e+00  0.000000e+00
   outer loop
     vertex  7.600000e-02  7.600000e-02  7.680000e-02
     vertex  7.600000e-02  4.800000e-02  0.000000e+00
     vertex  7.600000e-02  4.800000e-02  7.680000e-02
   endloop
 endfacet
 facet normal  0.000000e+00  1.000000e+00  0.000000e+00
   outer loop
     vertex  8.400000e-02  8.000000e-02  7.680000e-02
     vertex  8.400000e-02  8.000000e-02  0.000000e+00
     vertex  8.000000e-02  8.000000e-02  0.000000e+00
   endloop
 endfacet
 facet normal  0.000000e+00  1.000000e+00  0.000000e+00
   outer loop
     vertex  8.400000e-02  8.000000e-02  7.680000e-02
     vertex  8.000000e-02  8.000000e-02  0.000000e+00
     vertex  8.000000e-02  8.000000e-02  7.680000e-02
   endloop
 endfacet
 facet normal  0.000000e+00  0.000000e+00 -1.000000e+00
   outer loop
     vertex  7.600000e-02  4.800000e-02  0.000000e+00
     vertex  8.400000e-02  5.200000e-02  0.000000e+00
     vertex  8.400000e-02  4.800000e-02  0.000000e+00
   endloop
 endfacet
 facet normal  0.000000e+00  0.000000e+00 -1.000000e+00
   outer loop
     vertex  8.000000e-02  7.600000e-02  0.000000e+00
     vertex  8.400000e-02  8.000000e-02  0.000000e+00
     vertex  8.400000e-02  5.200000e-02  0.000000e+00
   endloop
 endfacet
 facet normal  0.000000e+00  0.000000e+00 -1.000000e+00
   outer loop
     vertex  7.600000e-02  7.600000e-02  0.000000e+00
     vertex  8.400000e-02  5.200000e-02  0.000000e+00
     vertex  7.600000e-02  4.800000e-02  0.000000e+00
   endloop
 endfacet
 facet normal  0.000000e+00  0.000000e+00 -1.000000e+00
   outer loop
     vertex  7.600000e-02  7.600000e-02  0.000000e+00
     vertex  8.000000e-02  7.600000e-02  0.000000e+00
     vertex  8.400000e-02  5.200000e-02  0.000000e+00
   endloop
 endfacet
 facet normal  0.000000e+00  0.000000e+00 -1.000000e+00
   outer loop
     vertex  8.000000e-02  8.000000e-02  0.000000e+00
     vertex  8.400000e-02  8.000000e-02  0.000000e+00
     vertex  8.000000e-02  7.600000e-02  0.000000e+00
   endloop
 endfacet
 facet normal -1.000000e+00  0.000000e+00  0.000000e+00
   outer loop
     vertex  8.400000e-02  4.400000e-02  7.680000e-02
     vertex  8.400000e-02  4.800000e-02  0.000000e+00
     vertex  8.400000e-02  4.400000e-02  0.000000e+00
   endloop
 endfacet
 facet normal -1.000000e+00  0.000000e+00  0.000000e+00
   outer loop
     vertex  8.400000e-02  4.400000e-02  7.680000e-02
     vertex  8.400000e-02  4.800000e-02  7.680000e-02
     vertex  8.400000e-02  4.800000e-02  0.000000e+00
   endloop
 endfacet
 facet normal  0.000000e+00  1.000000e+00  0.000000e+00
   outer loop
     vertex  1.080000e-01  5.200000e-02  7.680000e-02
     vertex  1.080000e-01  5.200000e-02  0.000000e+00
     vertex  8.400000e-02  5.200000e-02  0.000000e+00
   endloop
 endfacet
 facet normal  0.000000e+00  1.000000e+00  0.000000e+00
   outer loop
     vertex  1.080000e-01  5.200000e-02  7.680000e-02
     vertex  8.400000e-02  5.200000e-02  0.000000e+00
     vertex  8.400000e-02  5.200000e-02  7.680000e-02
   endloop
 endfacet
 facet normal  0.000000e+00  0.000000e+00  1.000000e+00
   outer loop
     vertex  7.600000e-02  4.800000e-02  7.680000e-02
     vertex  8.400000e-02  4.800000e-02  7.680000e-02
     vertex  8.400000e-02  5.200000e-02  7.680000e-02
   endloop
 endfacet
 facet normal -0.000000e+00  0.000000e+00  1.000000e+00
   outer loop
     vertex  8.000000e-02  7.600000e-02  7.680000e-02
     vertex  8.400000e-02  5.200000e-02  7.680000e-02
     vertex  8.400000e-02  8.000000e-02  7.680000e-02
   endloop
 endfacet
 facet normal  0.000000e+00  0.000000e+00  1.000000e+00
   outer loop
     vertex  7.600000e-02  7.600000e-02  7.680000e-02
     vertex  7.600000e-02  4.800000e-02  7.680000e-02
     vertex  8.400000e-02  5.200000e-02  7.680000e-02
   endloop
 endfacet
 facet normal -0.000000e+00  0.000000e+00  1.000000e+00
   outer loop
     vertex  7.600000e-02  7.600000e-02  7.680000e-02
     vertex  8.400000e-02  5.200000e-02  7.680000e-02
     vertex  8.000000e-02  7.600000e-02  7.680000e-02
   endloop
 endfacet
 facet normal -0.000000e+00  0.000000e+00  1.000000e+00
   outer loop
     vertex  8.000000e-02  8.000000e-02  7.680000e-02
     vertex  8.000000e-02  7.600000e-02  7.680000e-02
     vertex  8.400000e-02  8.000000e-02  7.680000e-02
   endloop
 endfacet
 facet normal  0.000000e+00 -1.000000e+00 -0.000000e+00
   outer loop
     vertex  8.400000e-02  4.800000e-02  7.680000e-02
     vertex  7.600000e-02  4.800000e-02  0.000000e+00
     vertex  8.400000e-02  4.800000e-02  0.000000e+00
   endloop
 endfacet
 facet normal -0.000000e+00 -1.000000e+00  0.000000e+00
   outer loop
     vertex  8.400000e-02  4.800000e-02  7.680000e-02
     vertex  7.600000e-02  4.800000e-02  7.680000e-02
     vertex  7.600000e-02  4.800000e-02  0.000000e+00
   endloop
 endfacet
 facet normal  1.000000e+00  0.000000e+00  0.000000e+00
   outer loop
     vertex  8.400000e-02  8.000000e-02  7.680000e-02
     vertex  8.400000e-02  5.200000e-02  0.000000e+00
     vertex  8.400000e-02  8.000000e-02  0.000000e+00
   endloop
 endfacet
 facet normal  1.000000e+00  0.000000e+00  0.000000e+00
   outer loop
     vertex  8.400000e-02  8.000000e-02  7.680000e-02
     vertex  8.400000e-02  5.200000e-02  7.680000e-02
     vertex  8.400000e-02  5.200000e-02  0.000000e+00
   endloop
 endfacet
endsolid
