solid 
 facet normal  0.000000e+00 -1.000000e+00 -0.000000e+00
   outer loop
     vertex  8.000000e-02  0.000000e+00  5.760000e-02
     vertex  4.800000e-02  0.000000e+00  1.920000e-02
     vertex  8.000000e-02  0.000000e+00  1.920000e-02
   endloop
 endfacet
 facet normal -0.000000e+00 -1.000000e+00  0.000000e+00
   outer loop
     vertex  8.000000e-02  0.000000e+00  5.760000e-02
     vertex  4.800000e-02  0.000000e+00  5.760000e-02
     vertex  4.800000e-02  0.000000e+00  1.920000e-02
   endloop
 endfacet
 facet normal -0.000000e+00 -1.000000e+00  0.000000e+00
   outer loop
     vertex  8.000000e-02  0.000000e+00  1.920000e-02
     vertex  4.800000e-02  0.000000e+00  1.920000e-02
     vertex  1.600000e-02  0.000000e+00  0.000000e+00
   endloop
 endfacet
 facet normal -0.000000e+00 -1.000000e+00  0.000000e+00
   outer loop
     vertex  4.800000e-02  0.000000e+00  5.760000e-02
     vertex  1.600000e-02  0.000000e+00  7.680000e-02
     vertex  1.600000e-02  0.000000e+00  0.000000e+00
   endloop
 endfacet
 facet normal  0.000000e+00 -1.000000e+00 -0.000000e+00
   outer loop
     vertex  4.800000e-02  0.000000e+00  5.760000e-02
     vertex  1.600000e-02  0.000000e+00  0.000000e+00
     vertex  4.800000e-02  0.000000e+00  1.920000e-02
   endloop
 endfacet
 facet normal  0.000000e+00 -1.000000e+00  0.000000e+00
   outer loop
     vertex  8.000000e-02  0.000000e+00  5.760000e-02
     vertex  1.600000e-02  0.000000e+00  7.680000e-02
     vertex  4.800000e-02  0.000000e+00  5.760000e-02
   endloop
 endfacet
 facet normal  0.000000e+00 -1.000000e+00  0.000000e+00
   outer loop
     vertex  1.760000e-01  0.000000e+00  0.000000e+00
     vertex  8.000000e-02  0.000000e+00  1.920000e-02
     vertex  1.600000e-02  0.000000e+00  0.000000e+00
   endloop
 endfacet
 facet normal  0.000000e+00 -1.000000e+00  0.000000e+00
   outer loop
     vertex  1.760000e-01  0.000000e+00  7.680000e-02
     vertex  8.000000e-02  0.000000e+00  5.760000e-02
     vertex  8.000000e-02  0.000000e+00  1.920000e-02
   endloop
 endfacet
 facet normal  0.000000e+00 -1.000000e+00 -0.000000e+00
   outer loop
     vertex  1.760000e-01  0.000000e+00  7.680000e-02
     vertex  8.000000e-02  0.000000e+00  1.920000e-02
     vertex  1.760000e-01  0.000000e+00  0.000000e+00
   endloop
 endfacet
 facet normal -0.000000e+00 -1.000000e+00  0.000000e+00
   outer loop
     vertex  1.760000e-01  0.000000e+00  7.680000e-02
     vertex  1.600000e-02  0.000000e+00  7.680000e-02
     vertex  8.000000e-02  0.000000e+00  5.760000e-02
   endloop
 endfacet
 facet normal -0.000000e+00  0.000000e+00 -1.000000e+00
   outer loop
     vertex  1.120000e-01  1.600000e-02  0.000000e+00
     vertex  1.600000e-02  0.000000e+00  0.000000e+00
     vertex  1.600000e-02  1.600000e-02  0.000000e+00
   endloop
 endfacet
 facet normal  0.000000e+00  0.000000e+00 -1.000000e+00
   outer loop
     vertex  1.760000e-01  0.000000e+00  0.000000e+00
     vertex  1.120000e-01  1.600000e-02  0.000000e+00
     vertex  1.200000e-01  1.600000e-02  0.000000e+00
   endloop
 endfacet
 facet normal  0.000000e+00  0.000000e+00 -1.000000e+00
   outer loop
     vertex  1.760000e-01  0.000000e+00  0.000000e+00
     vertex  1.600000e-02  0.000000e+00  0.000000e+00
     vertex  1.120000e-01  1.600000e-02  0.000000e+00
   endloop
 endfacet
 facet normal  0.000000e+00 -0.000000e+00 -1.000000e+00
   outer loop
     vertex  1.760000e-01  1.600000e-02  0.000000e+00
     vertex  1.760000e-01  0.000000e+00  0.000000e+00
     vertex  1.200000e-01  1.600000e-02  0.000000e+00
   endloop
 endfacet
 facet normal  0.000000e+00 -1.000000e+00 -0.000000e+00
   outer loop
     vertex  1.600000e-02  0.000000e+00  7.680000e-02
     vertex  0.000000e+00  0.000000e+00  0.000000e+00
     vertex  1.600000e-02  0.000000e+00  0.000000e+00
   endloop
 endfacet
 facet normal -0.000000e+00 -1.000000e+00  0.000000e+00
   outer loop
     vertex  1.600000e-02  0.000000e+00  7.680000e-02
     vertex  0.000000e+00  0.000000e+00  7.680000e-02
     vertex  0.000000e+00  0.000000e+00  0.000000e+00
   endloop
 endfacet
 facet normal  0.000000e+00 -1.000000e+00  0.000000e+00
   outer loop
     vertex  1.760000e-01  0.000000e+00  7.680000e-02
     vertex  1.760000e-01  0.000000e+00  0.000000e+00
     vertex  1.920000e-01  0.000000e+00  0.000000e+00
   endloop
 endfacet
 facet normal  0.000000e+00 -1.000000e+00  0.000000e+00
   outer loop
     vertex  1.760000e-01  0.000000e+00  7.680000e-02
     vertex  1.920000e-01  0.000000e+00  0.000000e+00
     vertex  1.920000e-01  0.000000e+00  7.680000e-02
   endloop
 endfacet
 facet normal  0.000000e+00  0.000000e+00  1.000000e+00
   outer loop
     vertex  1.120000e-01  1.600000e-02  7.680000e-02
     vertex  1.600000e-02  1.600000e-02  7.680000e-02
     vertex  1.600000e-02  0.000000e+00  7.680000e-02
   endloop
 endfacet
 facet normal  0.000000e+00  0.000000e+00  1.000000e+00
   outer loop
     vertex  1.760000e-01  0.000000e+00  7.680000e-02
     vertex  1.200000e-01  1.600000e-02  7.680000e-02
     vertex  1.120000e-01  1.600000e-02  7.680000e-02
   endloop
 endfacet
 facet normal  0.000000e+00  0.000000e+00  1.000000e+00
   outer loop
     vertex  1.760000e-01  0.000000e+00  7.680000e-02
     vertex  1.120000e-01  1.600000e-02  7.680000e-02
     vertex  1.600000e-02  0.000000e+00  7.680000e-02
   endloop
 endfacet
 facet normal  0.000000e+00  0.000000e+00  1.000000e+00
   outer loop
     vertex  1.760000e-01  1.600000e-02  7.680000e-02
     vertex  1.200000e-01  1.600000e-02  7.680000e-02
     vertex  1.760000e-01  0.000000e+00  7.680000e-02
   endloop
 endfacet
 facet normal  0.000000e+00 -0.000000e+00 -1.000000e+00
   outer loop
     vertex  1.600000e-02  1.600000e-02  0.000000e+00
     vertex  1.600000e-02  0.000000e+00  0.000000e+00
     vertex  0.000000e+00  0.000000e+00  0.000000e+00
   endloop
 endfacet
 facet normal  0.000000e+00 -0.000000e+00 -1.000000e+00
   outer loop
     vertex  1.600000e-02  7.200000e-02  0.000000e+00
     vertex  1.600000e-02  1.600000e-02  0.000000e+00
     vertex  0.000000e+00  0.000000e+00  0.000000e+00
   endloop
 endfacet
 facet normal  0.000000e+00  0.000000e+00 -1.000000e+00
   outer loop
     vertex  0.000000e+00  1.440000e-01  0.000000e+00
     vertex  1.600000e-02  1.280000e-01  0.000000e+00
     vertex  1.600000e-02  8.000000e-02  0.000000e+00
   endloop
 endfacet
 facet normal  0.000000e+00  0.000000e+00 -1.000000e+00
   outer loop
     vertex  0.000000e+00  1.440000e-01  0.000000e+00
     vertex  1.600000e-02  1.440000e-01  0.000000e+00
     vertex  1.600000e-02  1.280000e-01  0.000000e+00
   endloop
 endfacet
 facet normal  0.000000e+00  0.000000e+00 -1.000000e+00
   outer loop
     vertex  0.000000e+00  1.440000e-01  0.000000e+00
     vertex  1.600000e-02  7.200000e-02  0.000000e+00
     vertex  0.000000e+00  0.000000e+00  0.000000e+00
   endloop
 endfacet
 facet normal  0.000000e+00  0.000000e+00 -1.000000e+00
   outer loop
     vertex  0.000000e+00  1.440000e-01  0.000000e+00
     vertex  1.600000e-02  8.000000e-02  0.000000e+00
     vertex  1.600000e-02  7.200000e-02  0.000000e+00
   endloop
 endfacet
 facet normal  0.000000e+00  1.000000e+00  0.000000e+00
   outer loop
     vertex  4.800000e-02  1.600000e-02  5.760000e-02
     vertex  1.600000e-02  1.600000e-02  0.000000e+00
     vertex  1.600000e-02  1.600000e-02  7.680000e-02
   endloop
 endfacet
 facet normal  0.000000e+00  1.000000e+00  0.000000e+00
   outer loop
     vertex  4.800000e-02  1.600000e-02  5.760000e-02
     vertex  4.800000e-02  1.600000e-02  1.920000e-02
     vertex  1.600000e-02  1.600000e-02  0.000000e+00
   endloop
 endfacet
 facet normal  0.000000e+00  1.000000e+00 -1.807004e-16
   outer loop
     vertex  1.120000e-01  1.600000e-02  0.000000e+00
     vertex  4.800000e-02  1.600000e-02  1.920000e-02
     vertex  8.000000e-02  1.600000e-02  1.920000e-02
   endloop
 endfacet
 facet normal  3.614007e-17  1.000000e+00 -6.023345e-17
   outer loop
     vertex  1.120000e-01  1.600000e-02  0.000000e+00
     vertex  1.600000e-02  1.600000e-02  0.000000e+00
     vertex  4.800000e-02  1.600000e-02  1.920000e-02
   endloop
 endfacet
 facet normal  0.000000e+00  1.000000e+00  1.807004e-16
   outer loop
     vertex  1.120000e-01  1.600000e-02  7.680000e-02
     vertex  8.000000e-02  1.600000e-02  5.760000e-02
     vertex  4.800000e-02  1.600000e-02  5.760000e-02
   endloop
 endfacet
 facet normal  1.084202e-16  1.000000e+00  0.000000e+00
   outer loop
     vertex  1.120000e-01  1.600000e-02  7.680000e-02
     vertex  8.000000e-02  1.600000e-02  1.920000e-02
     vertex  8.000000e-02  1.600000e-02  5.760000e-02
   endloop
 endfacet
 facet normal  3.614007e-17  1.000000e+00  6.023345e-17
   outer loop
     vertex  1.120000e-01  1.600000e-02  7.680000e-02
     vertex  4.800000e-02  1.600000e-02  5.760000e-02
     vertex  1.600000e-02  1.600000e-02  7.680000e-02
   endloop
 endfacet
 facet normal  1.084202e-16  1.000000e+00  0.000000e+00
   outer loop
     vertex  1.120000e-01  1.600000e-02  7.680000e-02
     vertex  1.120000e-01  1.600000e-02  0.000000e+00
     vertex  8.000000e-02  1.600000e-02  1.920000e-02
   endloop
 endfacet
 facet normal  0.000000e+00  0.000000e+00 -1.000000e+00
   outer loop
     vertex  1.120000e-01  4.800000e-02  0.000000e+00
     vertex  1.200000e-01  1.600000e-02  0.000000e+00
     vertex  1.120000e-01  1.600000e-02  0.000000e+00
   endloop
 endfacet
 facet normal  0.000000e+00 -0.000000e+00 -1.000000e+00
   outer loop
     vertex  1.200000e-01  5.600000e-02  0.000000e+00
     vertex  1.200000e-01  1.600000e-02  0.000000e+00
     vertex  1.120000e-01  4.800000e-02  0.000000e+00
   endloop
 endfacet
 facet normal  0.000000e+00  0.000000e+00 -1.000000e+00
   outer loop
     vertex  1.120000e-01  5.600000e-02  0.000000e+00
     vertex  1.200000e-01  5.600000e-02  0.000000e+00
     vertex  1.120000e-01  4.800000e-02  0.000000e+00
   endloop
 endfacet
 facet normal -6.195441e-17  1.000000e+00  0.000000e+00
   outer loop
     vertex  1.760000e-01  1.600000e-02  7.680000e-02
     vertex  1.760000e-01  1.600000e-02  0.000000e+00
     vertex  1.200000e-01  1.600000e-02  0.000000e+00
   endloop
 endfacet
 facet normal -6.195441e-17  1.000000e+00  0.000000e+00
   outer loop
     vertex  1.760000e-01  1.600000e-02  7.680000e-02
     vertex  1.200000e-01  1.600000e-02  0.000000e+00
     vertex  1.200000e-01  1.600000e-02  7.680000e-02
   endloop
 endfacet
 facet normal  0.000000e+00  0.000000e+00 -1.000000e+00
   outer loop
     vertex  1.760000e-01  1.280000e-01  0.000000e+00
     vertex  1.760000e-01  1.440000e-01  0.000000e+00
     vertex  1.920000e-01  1.440000e-01  0.000000e+00
   endloop
 endfacet
 facet normal  0.000000e+00  0.000000e+00 -1.000000e+00
   outer loop
     vertex  1.920000e-01  0.000000e+00  0.000000e+00
     vertex  1.760000e-01  0.000000e+00  0.000000e+00
     vertex  1.760000e-01  1.600000e-02  0.000000e+00
   endloop
 endfacet
 facet normal  0.000000e+00  0.000000e+00 -1.000000e+00
   outer loop
     vertex  1.920000e-01  0.000000e+00  0.000000e+00
     vertex  1.760000e-01  1.600000e-02  0.000000e+00
     vertex  1.920000e-01  1.440000e-01  0.000000e+00
   endloop
 endfacet
 facet normal  0.000000e+00  0.000000e+00 -1.000000e+00
   outer loop
     vertex  1.760000e-01  1.600000e-02  0.000000e+00
     vertex  1.760000e-01  1.280000e-01  0.000000e+00
     vertex  1.920000e-01  1.440000e-01  0.000000e+00
   endloop
 endfacet
 facet normal  0.000000e+00  0.000000e+00  1.000000e+00
   outer loop
     vertex  1.600000e-02  1.600000e-02  7.680000e-02
     vertex  0.000000e+00  0.000000e+00  7.680000e-02
     vertex  1.600000e-02  0.000000e+00  7.680000e-02
   endloop
 endfacet
 facet normal  0.000000e+00  0.000000e+00  1.000000e+00
   outer loop
     vertex  1.600000e-02  7.200000e-02  7.680000e-02
     vertex  0.000000e+00  0.000000e+00  7.680000e-02
     vertex  1.600000e-02  1.600000e-02  7.680000e-02
   endloop
 endfacet
 facet normal  0.000000e+00  0.000000e+00  1.000000e+00
   outer loop
     vertex  0.000000e+00  1.440000e-01  7.680000e-02
     vertex  1.600000e-02  8.000000e-02  7.680000e-02
     vertex  1.600000e-02  1.280000e-01  7.680000e-02
   endloop
 endfacet
 facet normal -0.000000e+00  0.000000e+00  1.000000e+00
   outer loop
     vertex  0.000000e+00  1.440000e-01  7.680000e-02
     vertex  1.600000e-02  1.280000e-01  7.680000e-02
     vertex  1.600000e-02  1.440000e-01  7.680000e-02
   endloop
 endfacet
 facet normal  0.000000e+00  0.000000e+00  1.000000e+00
   outer loop
     vertex  0.000000e+00  1.440000e-01  7.680000e-02
     vertex  0.000000e+00  0.000000e+00  7.680000e-02
     vertex  1.600000e-02  7.200000e-02  7.680000e-02
   endloop
 endfacet
 facet normal  0.000000e+00  0.000000e+00  1.000000e+00
   outer loop
     vertex  0.000000e+00  1.440000e-01  7.680000e-02
     vertex  1.600000e-02  7.200000e-02  7.680000e-02
     vertex  1.600000e-02  8.000000e-02  7.680000e-02
   endloop
 endfacet
 facet normal -1.000000e+00  0.000000e+00 -0.000000e+00
   outer loop
     vertex  0.000000e+00  1.440000e-01  7.680000e-02
     vertex  0.000000e+00  1.440000e-01  0.000000e+00
     vertex  0.000000e+00  0.000000e+00  0.000000e+00
   endloop
 endfacet
 facet normal -1.000000e+00 -0.000000e+00  0.000000e+00
   outer loop
     vertex  0.000000e+00  1.440000e-01  7.680000e-02
     vertex  0.000000e+00  0.000000e+00  0.000000e+00
     vertex  0.000000e+00  0.000000e+00  7.680000e-02
   endloop
 endfacet
 facet normal  0.000000e+00  0.000000e+00  1.000000e+00
   outer loop
     vertex  1.760000e-01  1.280000e-01  7.680000e-02
     vertex  1.920000e-01  1.440000e-01  7.680000e-02
     vertex  1.760000e-01  1.440000e-01  7.680000e-02
   endloop
 endfacet
 facet normal  0.000000e+00  0.000000e+00  1.000000e+00
   outer loop
     vertex  1.920000e-01  0.000000e+00  7.680000e-02
     vertex  1.760000e-01  1.600000e-02  7.680000e-02
     vertex  1.760000e-01  0.000000e+00  7.680000e-02
   endloop
 endfacet
 facet normal  0.000000e+00 -0.000000e+00  1.000000e+00
   outer loop
     vertex  1.920000e-01  0.000000e+00  7.680000e-02
     vertex  1.920000e-01  1.440000e-01  7.680000e-02
     vertex  1.760000e-01  1.600000e-02  7.680000e-02
   endloop
 endfacet
 facet normal  0.000000e+00  0.000000e+00  1.000000e+00
   outer loop
     vertex  1.760000e-01  1.600000e-02  7.680000e-02
     vertex  1.920000e-01  1.440000e-01  7.680000e-02
     vertex  1.760000e-01  1.280000e-01  7.680000e-02
   endloop
 endfacet
 facet normal  1.000000e+00 -0.000000e+00  0.000000e+00
   outer loop
     vertex  1.920000e-01  8.000000e-02  5.760000e-02
     vertex  1.920000e-01  1.440000e-01  0.000000e+00
     vertex  1.920000e-01  1.440000e-01  7.680000e-02
   endloop
 endfacet
 facet normal  1.000000e+00  0.000000e+00  0.000000e+00
   outer loop
     vertex  1.920000e-01  8.000000e-02  5.760000e-02
     vertex  1.920000e-01  8.000000e-02  1.920000e-02
     vertex  1.920000e-01  1.440000e-01  0.000000e+00
   endloop
 endfacet
 facet normal  1.000000e+00  0.000000e+00 -1.445603e-15
   outer loop
     vertex  1.920000e-01  0.000000e+00  0.000000e+00
     vertex  1.920000e-01  8.000000e-02  1.920000e-02
     vertex  1.920000e-01  4.800000e-02  1.920000e-02
   endloop
 endfacet
 facet normal  1.000000e+00 -1.927471e-16 -6.424902e-16
   outer loop
     vertex  1.920000e-01  0.000000e+00  0.000000e+00
     vertex  1.920000e-01  1.440000e-01  0.000000e+00
     vertex  1.920000e-01  8.000000e-02  1.920000e-02
   endloop
 endfacet
 facet normal  1.000000e+00  0.000000e+00  1.445603e-15
   outer loop
     vertex  1.920000e-01  0.000000e+00  7.680000e-02
     vertex  1.920000e-01  4.800000e-02  5.760000e-02
     vertex  1.920000e-01  8.000000e-02  5.760000e-02
   endloop
 endfacet
 facet normal  1.000000e+00 -5.782412e-16  0.000000e+00
   outer loop
     vertex  1.920000e-01  0.000000e+00  7.680000e-02
     vertex  1.920000e-01  4.800000e-02  1.920000e-02
     vertex  1.920000e-01  4.800000e-02  5.760000e-02
   endloop
 endfacet
 facet normal  1.000000e+00 -1.927471e-16  6.424902e-16
   outer loop
     vertex  1.920000e-01  0.000000e+00  7.680000e-02
     vertex  1.920000e-01  8.000000e-02  5.760000e-02
     vertex  1.920000e-01  1.440000e-01  7.680000e-02
   endloop
 endfacet
 facet normal  1.000000e+00 -5.782412e-16  0.000000e+00
   outer loop
     vertex  1.920000e-01  0.000000e+00  7.680000e-02
     vertex  1.920000e-01  0.000000e+00  0.000000e+00
     vertex  1.920000e-01  4.800000e-02  1.920000e-02
   endloop
 endfacet
 facet normal  0.000000e+00  0.000000e+00  1.000000e+00
   outer loop
     vertex  1.120000e-01  4.800000e-02  7.680000e-02
     vertex  1.120000e-01  1.600000e-02  7.680000e-02
     vertex  1.200000e-01  1.600000e-02  7.680000e-02
   endloop
 endfacet
 facet normal  0.000000e+00  0.000000e+00  1.000000e+00
   outer loop
     vertex  1.200000e-01  5.600000e-02  7.680000e-02
     vertex  1.120000e-01  4.800000e-02  7.680000e-02
     vertex  1.200000e-01  1.600000e-02  7.680000e-02
   endloop
 endfacet
 facet normal -0.000000e+00  0.000000e+00  1.000000e+00
   outer loop
     vertex  1.120000e-01  5.600000e-02  7.680000e-02
     vertex  1.120000e-01  4.800000e-02  7.680000e-02
     vertex  1.200000e-01  5.600000e-02  7.680000e-02
   endloop
 endfacet
 facet normal -1.734723e-15  1.000000e+00  0.000000e+00
   outer loop
     vertex  1.600000e-02  1.440000e-01  7.680000e-02
     vertex  1.600000e-02  1.440000e-01  0.000000e+00
     vertex  0.000000e+00  1.440000e-01  0.000000e+00
   endloop
 endfacet
 facet normal -1.734723e-15  1.000000e+00  0.000000e+00
   outer loop
     vertex  1.600000e-02  1.440000e-01  7.680000e-02
     vertex  0.000000e+00  1.440000e-01  0.000000e+00
     vertex  0.000000e+00  1.440000e-01  7.680000e-02
   endloop
 endfacet
 facet normal  1.000000e+00  0.000000e+00  0.000000e+00
   outer loop
     vertex  1.600000e-02  7.200000e-02  7.680000e-02
     vertex  1.600000e-02  1.600000e-02  0.000000e+00
     vertex  1.600000e-02  7.200000e-02  0.000000e+00
   endloop
 endfacet
 facet normal  1.000000e+00  0.000000e+00  0.000000e+00
   outer loop
     vertex  1.600000e-02  7.200000e-02  7.680000e-02
     vertex  1.600000e-02  1.600000e-02  7.680000e-02
     vertex  1.600000e-02  1.600000e-02  0.000000e+00
   endloop
 endfacet
 facet normal -0.000000e+00  0.000000e+00 -1.000000e+00
   outer loop
     vertex  3.200000e-02  8.000000e-02  0.000000e+00
     vertex  1.600000e-02  7.200000e-02  0.000000e+00
     vertex  1.600000e-02  8.000000e-02  0.000000e+00
   endloop
 endfacet
 facet normal  0.000000e+00 -0.000000e+00 -1.000000e+00
   outer loop
     vertex  3.200000e-02  8.000000e-02  0.000000e+00
     vertex  3.200000e-02  7.200000e-02  0.000000e+00
     vertex  1.600000e-02  7.200000e-02  0.000000e+00
   endloop
 endfacet
 facet normal  1.000000e+00  0.000000e+00  0.000000e+00
   outer loop
     vertex  1.600000e-02  1.280000e-01  7.680000e-02
     vertex  1.600000e-02  8.000000e-02  0.000000e+00
     vertex  1.600000e-02  1.280000e-01  0.000000e+00
   endloop
 endfacet
 facet normal  1.000000e+00  0.000000e+00  0.000000e+00
   outer loop
     vertex  1.600000e-02  1.280000e-01  7.680000e-02
     vertex  1.600000e-02  8.000000e-02  7.680000e-02
     vertex  1.600000e-02  8.000000e-02  0.000000e+00
   endloop
 endfacet
 facet normal -0.000000e+00  0.000000e+00 -1.000000e+00
   outer loop
     vertex  1.120000e-01  1.440000e-01  0.000000e+00
     vertex  1.600000e-02  1.280000e-01  0.000000e+00
     vertex  1.600000e-02  1.440000e-01  0.000000e+00
   endloop
 endfacet
 facet normal  0.000000e+00 -0.000000e+00 -1.000000e+00
   outer loop
     vertex  1.120000e-01  1.440000e-01  0.000000e+00
     vertex  1.120000e-01  1.280000e-01  0.000000e+00
     vertex  1.600000e-02  1.280000e-01  0.000000e+00
   endloop
 endfacet
 facet normal -1.000000e+00  0.000000e+00 -0.000000e+00
   outer loop
     vertex  1.120000e-01  4.800000e-02  7.680000e-02
     vertex  1.120000e-01  4.800000e-02  0.000000e+00
     vertex  1.120000e-01  1.600000e-02  0.000000e+00
   endloop
 endfacet
 facet normal -1.000000e+00 -0.000000e+00  0.000000e+00
   outer loop
     vertex  1.120000e-01  4.800000e-02  7.680000e-02
     vertex  1.120000e-01  1.600000e-02  0.000000e+00
     vertex  1.120000e-01  1.600000e-02  7.680000e-02
   endloop
 endfacet
 facet normal  0.000000e+00  1.000000e+00  0.000000e+00
   outer loop
     vertex  8.000000e-02  1.600000e-02  5.760000e-02
     vertex  8.000000e-02  1.600000e-02  1.920000e-02
     vertex  4.800000e-02  1.600000e-02  1.920000e-02
   endloop
 endfacet
 facet normal  0.000000e+00  1.000000e+00  0.000000e+00
   outer loop
     vertex  8.000000e-02  1.600000e-02  5.760000e-02
     vertex  4.800000e-02  1.600000e-02  1.920000e-02
     vertex  4.800000e-02  1.600000e-02  5.760000e-02
   endloop
 endfacet
 facet normal -0.000000e+00  0.000000e+00 -1.000000e+00
   outer loop
     vertex  1.120000e-01  5.600000e-02  0.000000e+00
     vertex  8.800000e-02  4.800000e-02  0.000000e+00
     vertex  8.800000e-02  5.600000e-02  0.000000e+00
   endloop
 endfacet
 facet normal  0.000000e+00 -0.000000e+00 -1.000000e+00
   outer loop
     vertex  1.120000e-01  5.600000e-02  0.000000e+00
     vertex  1.120000e-01  4.800000e-02  0.000000e+00
     vertex  8.800000e-02  4.800000e-02  0.000000e+00
   endloop
 endfacet
 facet normal  0.000000e+00  1.000000e+00  0.000000e+00
   outer loop
     vertex  1.200000e-01  5.600000e-02  7.680000e-02
     vertex  1.200000e-01  5.600000e-02  0.000000e+00
     vertex  1.120000e-01  5.600000e-02  0.000000e+00
   endloop
 endfacet
 facet normal  0.000000e+00  1.000000e+00  0.000000e+00
   outer loop
     vertex  1.200000e-01  5.600000e-02  7.680000e-02
     vertex  1.120000e-01  5.600000e-02  0.000000e+00
     vertex  1.120000e-01  5.600000e-02  7.680000e-02
   endloop
 endfacet
 facet normal  1.000000e+00  0.000000e+00  0.000000e+00
   outer loop
     vertex  1.200000e-01  5.600000e-02  7.680000e-02
     vertex  1.200000e-01  1.600000e-02  0.000000e+00
     vertex  1.200000e-01  5.600000e-02  0.000000e+00
   endloop
 endfacet
 facet normal  1.000000e+00  0.000000e+00  0.000000e+00
   outer loop
     vertex  1.200000e-01  5.600000e-02  7.680000e-02
     vertex  1.200000e-01  1.600000e-02  7.680000e-02
     vertex  1.200000e-01  1.600000e-02  0.000000e+00
   endloop
 endfacet
 facet normal -1.000000e+00  0.000000e+00  0.000000e+00
   outer loop
     vertex  1.760000e-01  8.000000e-02  5.760000e-02
     vertex  1.760000e-01  1.280000e-01  7.680000e-02
     vertex  1.760000e-01  1.280000e-01  0.000000e+00
   endloop
 endfacet
 facet normal -1.000000e+00  0.000000e+00  0.000000e+00
   outer loop
     vertex  1.760000e-01  8.000000e-02  5.760000e-02
     vertex  1.760000e-01  1.280000e-01  0.000000e+00
     vertex  1.760000e-01  8.000000e-02  1.920000e-02
   endloop
 endfacet
 facet normal -1.000000e+00  0.000000e+00  0.000000e+00
   outer loop
     vertex  1.760000e-01  1.600000e-02  0.000000e+00
     vertex  1.760000e-01  4.800000e-02  1.920000e-02
     vertex  1.760000e-01  8.000000e-02  1.920000e-02
   endloop
 endfacet
 facet normal -1.000000e+00  0.000000e+00  0.000000e+00
   outer loop
     vertex  1.760000e-01  1.600000e-02  0.000000e+00
     vertex  1.760000e-01  8.000000e-02  1.920000e-02
     vertex  1.760000e-01  1.280000e-01  0.000000e+00
   endloop
 endfacet
 facet normal -1.000000e+00  0.000000e+00  0.000000e+00
   outer loop
     vertex  1.760000e-01  1.600000e-02  7.680000e-02
     vertex  1.760000e-01  8.000000e-02  5.760000e-02
     vertex  1.760000e-01  4.800000e-02  5.760000e-02
   endloop
 endfacet
 facet normal -1.000000e+00  0.000000e+00  0.000000e+00
   outer loop
     vertex  1.760000e-01  1.600000e-02  7.680000e-02
     vertex  1.760000e-01  4.800000e-02  5.760000e-02
     vertex  1.760000e-01  4.800000e-02  1.920000e-02
   endloop
 endfacet
 facet normal -1.000000e+00  0.000000e+00  0.000000e+00
   outer loop
     vertex  1.760000e-01  1.600000e-02  7.680000e-02
     vertex  1.760000e-01  1.280000e-01  7.680000e-02
     vertex  1.760000e-01  8.000000e-02  5.760000e-02
   endloop
 endfacet
 facet normal -1.000000e+00  0.000000e+00  0.000000e+00
   outer loop
     vertex  1.760000e-01  1.600000e-02  7.680000e-02
     vertex  1.760000e-01  4.800000e-02  1.920000e-02
     vertex  1.760000e-01  1.600000e-02  0.000000e+00
   endloop
 endfacet
 facet normal  1.734723e-15  1.000000e+00  0.000000e+00
   outer loop
     vertex  1.760000e-01  1.440000e-01  7.680000e-02
     vertex  1.920000e-01  1.440000e-01  0.000000e+00
     vertex  1.760000e-01  1.440000e-01  0.000000e+00
   endloop
 endfacet
 facet normal  1.734723e-15  1.000000e+00  0.000000e+00
   outer loop
     vertex  1.760000e-01  1.440000e-01  7.680000e-02
     vertex  1.920000e-01  1.440000e-01  7.680000e-02
     vertex  1.920000e-01  1.440000e-01  0.000000e+00
   endloop
 endfacet
 facet normal -0.000000e+00  0.000000e+00 -1.000000e+00
   outer loop
     vertex  1.760000e-01  1.440000e-01  0.000000e+00
     vertex  1.440000e-01  1.280000e-01  0.000000e+00
     vertex  1.440000e-01  1.440000e-01  0.000000e+00
   endloop
 endfacet
 facet normal  0.000000e+00  0.000000e+00 -1.000000e+00
   outer loop
     vertex  1.760000e-01  1.440000e-01  0.000000e+00
     vertex  1.760000e-01  1.280000e-01  0.000000e+00
     vertex  1.440000e-01  1.280000e-01  0.000000e+00
   endloop
 endfacet
 facet normal  0.000000e+00  0.000000e+00  1.000000e+00
   outer loop
     vertex  8.000000e-02  8.000000e-02  7.680000e-02
     vertex  1.600000e-02  8.000000e-02  7.680000e-02
     vertex  1.600000e-02  7.200000e-02  7.680000e-02
   endloop
 endfacet
 facet normal  0.000000e+00  0.000000e+00  1.000000e+00
   outer loop
     vertex  8.000000e-02  8.000000e-02  7.680000e-02
     vertex  1.600000e-02  7.200000e-02  7.680000e-02
     vertex  8.000000e-02  7.200000e-02  7.680000e-02
   endloop
 endfacet
 facet normal  0.000000e+00  0.000000e+00  1.000000e+00
   outer loop
     vertex  1.760000e-01  1.440000e-01  7.680000e-02
     vertex  1.600000e-02  1.440000e-01  7.680000e-02
     vertex  1.600000e-02  1.280000e-01  7.680000e-02
   endloop
 endfacet
 facet normal  0.000000e+00  0.000000e+00  1.000000e+00
   outer loop
     vertex  1.760000e-01  1.440000e-01  7.680000e-02
     vertex  1.600000e-02  1.280000e-01  7.680000e-02
     vertex  1.760000e-01  1.280000e-01  7.680000e-02
   endloop
 endfacet
 facet normal  1.000000e+00  0.000000e+00  0.000000e+00
   outer loop
     vertex  1.920000e-01  4.800000e-02  5.760000e-02
     vertex  1.920000e-01  4.800000e-02  1.920000e-02
     vertex  1.920000e-01  8.000000e-02  1.920000e-02
   endloop
 endfacet
 facet normal  1.000000e+00 -0.000000e+00  0.000000e+00
   outer loop
     vertex  1.920000e-01  4.800000e-02  5.760000e-02
     vertex  1.920000e-01  8.000000e-02  1.920000e-02
     vertex  1.920000e-01  8.000000e-02  5.760000e-02
   endloop
 endfacet
 facet normal  0.000000e+00  0.000000e+00  1.000000e+00
   outer loop
     vertex  1.120000e-01  5.600000e-02  7.680000e-02
     vertex  8.800000e-02  5.600000e-02  7.680000e-02
     vertex  8.800000e-02  4.800000e-02  7.680000e-02
   endloop
 endfacet
 facet normal  0.000000e+00  0.000000e+00  1.000000e+00
   outer loop
     vertex  1.120000e-01  5.600000e-02  7.680000e-02
     vertex  8.800000e-02  4.800000e-02  7.680000e-02
     vertex  1.120000e-01  4.800000e-02  7.680000e-02
   endloop
 endfacet
 facet normal  0.000000e+00  1.000000e+00  0.000000e+00
   outer loop
     vertex  4.800000e-02  1.440000e-01  5.760000e-02
     vertex  1.600000e-02  1.440000e-01  0.000000e+00
     vertex  1.600000e-02  1.440000e-01  7.680000e-02
   endloop
 endfacet
 facet normal  0.000000e+00  1.000000e+00  0.000000e+00
   outer loop
     vertex  4.800000e-02  1.440000e-01  5.760000e-02
     vertex  4.800000e-02  1.440000e-01  1.920000e-02
     vertex  1.600000e-02  1.440000e-01  0.000000e+00
   endloop
 endfacet
 facet normal  0.000000e+00  1.000000e+00  0.000000e+00
   outer loop
     vertex  1.120000e-01  1.440000e-01  0.000000e+00
     vertex  4.800000e-02  1.440000e-01  1.920000e-02
     vertex  8.000000e-02  1.440000e-01  1.920000e-02
   endloop
 endfacet
 facet normal  0.000000e+00  1.000000e+00  0.000000e+00
   outer loop
     vertex  1.120000e-01  1.440000e-01  0.000000e+00
     vertex  1.600000e-02  1.440000e-01  0.000000e+00
     vertex  4.800000e-02  1.440000e-01  1.920000e-02
   endloop
 endfacet
 facet normal  0.000000e+00  1.000000e+00  0.000000e+00
   outer loop
     vertex  8.000000e-02  1.440000e-01  5.760000e-02
     vertex  4.800000e-02  1.440000e-01  5.760000e-02
     vertex  1.600000e-02  1.440000e-01  7.680000e-02
   endloop
 endfacet
 facet normal  0.000000e+00  1.000000e+00  0.000000e+00
   outer loop
     vertex  1.120000e-01  1.440000e-01  5.760000e-02
     vertex  8.000000e-02  1.440000e-01  1.920000e-02
     vertex  8.000000e-02  1.440000e-01  5.760000e-02
   endloop
 endfacet
 facet normal  0.000000e+00  1.000000e+00  0.000000e+00
   outer loop
     vertex  1.120000e-01  1.440000e-01  5.760000e-02
     vertex  1.120000e-01  1.440000e-01  0.000000e+00
     vertex  8.000000e-02  1.440000e-01  1.920000e-02
   endloop
 endfacet
 facet normal  0.000000e+00  1.000000e+00  0.000000e+00
   outer loop
     vertex  1.440000e-01  1.440000e-01  5.760000e-02
     vertex  1.760000e-01  1.440000e-01  0.000000e+00
     vertex  1.440000e-01  1.440000e-01  0.000000e+00
   endloop
 endfacet
 facet normal  0.000000e+00  1.000000e+00  0.000000e+00
   outer loop
     vertex  1.760000e-01  1.440000e-01  7.680000e-02
     vertex  1.440000e-01  1.440000e-01  5.760000e-02
     vertex  1.120000e-01  1.440000e-01  5.760000e-02
   endloop
 endfacet
 facet normal  0.000000e+00  1.000000e+00  0.000000e+00
   outer loop
     vertex  1.760000e-01  1.440000e-01  7.680000e-02
     vertex  8.000000e-02  1.440000e-01  5.760000e-02
     vertex  1.600000e-02  1.440000e-01  7.680000e-02
   endloop
 endfacet
 facet normal  0.000000e+00  1.000000e+00  0.000000e+00
   outer loop
     vertex  1.760000e-01  1.440000e-01  7.680000e-02
     vertex  1.760000e-01  1.440000e-01  0.000000e+00
     vertex  1.440000e-01  1.440000e-01  5.760000e-02
   endloop
 endfacet
 facet normal  0.000000e+00  1.000000e+00  0.000000e+00
   outer loop
     vertex  1.760000e-01  1.440000e-01  7.680000e-02
     vertex  1.120000e-01  1.440000e-01  5.760000e-02
     vertex  8.000000e-02  1.440000e-01  5.760000e-02
   endloop
 endfacet
 facet normal  0.000000e+00 -1.000000e+00 -0.000000e+00
   outer loop
     vertex  3.200000e-02  7.200000e-02  5.760000e-02
     vertex  1.600000e-02  7.200000e-02  0.000000e+00
     vertex  3.200000e-02  7.200000e-02  0.000000e+00
   endloop
 endfacet
 facet normal  0.000000e+00 -1.000000e+00  0.000000e+00
   outer loop
     vertex  1.600000e-02  7.200000e-02  7.680000e-02
     vertex  1.600000e-02  7.200000e-02  0.000000e+00
     vertex  3.200000e-02  7.200000e-02  5.760000e-02
   endloop
 endfacet
 facet normal  0.000000e+00 -1.000000e+00  0.000000e+00
   outer loop
     vertex  6.400000e-02  7.200000e-02  5.760000e-02
     vertex  6.400000e-02  7.200000e-02  0.000000e+00
     vertex  8.000000e-02  7.200000e-02  0.000000e+00
   endloop
 endfacet
 facet normal  0.000000e+00 -1.000000e+00  0.000000e+00
   outer loop
     vertex  8.000000e-02  7.200000e-02  7.680000e-02
     vertex  3.200000e-02  7.200000e-02  5.760000e-02
     vertex  6.400000e-02  7.200000e-02  5.760000e-02
   endloop
 endfacet
 facet normal  0.000000e+00 -1.000000e+00 -0.000000e+00
   outer loop
     vertex  8.000000e-02  7.200000e-02  7.680000e-02
     vertex  6.400000e-02  7.200000e-02  5.760000e-02
     vertex  8.000000e-02  7.200000e-02  0.000000e+00
   endloop
 endfacet
 facet normal -0.000000e+00 -1.000000e+00  0.000000e+00
   outer loop
     vertex  8.000000e-02  7.200000e-02  7.680000e-02
     vertex  1.600000e-02  7.200000e-02  7.680000e-02
     vertex  3.200000e-02  7.200000e-02  5.760000e-02
   endloop
 endfacet
 facet normal  0.000000e+00  1.000000e+00  0.000000e+00
   outer loop
     vertex  3.200000e-02  8.000000e-02  5.760000e-02
     vertex  3.200000e-02  8.000000e-02  0.000000e+00
     vertex  1.600000e-02  8.000000e-02  0.000000e+00
   endloop
 endfacet
 facet normal  0.000000e+00  1.000000e+00  0.000000e+00
   outer loop
     vertex  1.600000e-02  8.000000e-02  7.680000e-02
     vertex  3.200000e-02  8.000000e-02  5.760000e-02
     vertex  1.600000e-02  8.000000e-02  0.000000e+00
   endloop
 endfacet
 facet normal  0.000000e+00  1.000000e+00  0.000000e+00
   outer loop
     vertex  6.400000e-02  8.000000e-02  5.760000e-02
     vertex  8.000000e-02  8.000000e-02  0.000000e+00
     vertex  6.400000e-02  8.000000e-02  0.000000e+00
   endloop
 endfacet
 facet normal  0.000000e+00  1.000000e+00  0.000000e+00
   outer loop
     vertex  8.000000e-02  8.000000e-02  7.680000e-02
     vertex  6.400000e-02  8.000000e-02  5.760000e-02
     vertex  3.200000e-02  8.000000e-02  5.760000e-02
   endloop
 endfacet
 facet normal  0.000000e+00  1.000000e+00  0.000000e+00
   outer loop
     vertex  8.000000e-02  8.000000e-02  7.680000e-02
     vertex  8.000000e-02  8.000000e-02  0.000000e+00
     vertex  6.400000e-02  8.000000e-02  5.760000e-02
   endloop
 endfacet
 facet normal  0.000000e+00  1.000000e+00  0.000000e+00
   outer loop
     vertex  8.000000e-02  8.000000e-02  7.680000e-02
     vertex  3.200000e-02  8.000000e-02  5.760000e-02
     vertex  1.600000e-02  8.000000e-02  7.680000e-02
   endloop
 endfacet
 facet normal -0.000000e+00  0.000000e+00 -1.000000e+00
   outer loop
     vertex  6.400000e-02  8.000000e-02  0.000000e+00
     vertex  3.200000e-02  7.200000e-02  0.000000e+00
     vertex  3.200000e-02  8.000000e-02  0.000000e+00
   endloop
 endfacet
 facet normal  0.000000e+00 -0.000000e+00 -1.000000e+00
   outer loop
     vertex  6.400000e-02  8.000000e-02  0.000000e+00
     vertex  6.400000e-02  7.200000e-02  0.000000e+00
     vertex  3.200000e-02  7.200000e-02  0.000000e+00
   endloop
 endfacet
 facet normal -0.000000e+00 -1.000000e+00  0.000000e+00
   outer loop
     vertex  4.800000e-02  1.280000e-01  5.760000e-02
     vertex  1.600000e-02  1.280000e-01  7.680000e-02
     vertex  1.600000e-02  1.280000e-01  0.000000e+00
   endloop
 endfacet
 facet normal  0.000000e+00 -1.000000e+00 -0.000000e+00
   outer loop
     vertex  4.800000e-02  1.280000e-01  5.760000e-02
     vertex  1.600000e-02  1.280000e-01  0.000000e+00
     vertex  4.800000e-02  1.280000e-01  1.920000e-02
   endloop
 endfacet
 facet normal  0.000000e+00 -1.000000e+00  0.000000e+00
   outer loop
     vertex  1.120000e-01  1.280000e-01  0.000000e+00
     vertex  8.000000e-02  1.280000e-01  1.920000e-02
     vertex  4.800000e-02  1.280000e-01  1.920000e-02
   endloop
 endfacet
 facet normal  0.000000e+00 -1.000000e+00  0.000000e+00
   outer loop
     vertex  1.120000e-01  1.280000e-01  0.000000e+00
     vertex  4.800000e-02  1.280000e-01  1.920000e-02
     vertex  1.600000e-02  1.280000e-01  0.000000e+00
   endloop
 endfacet
 facet normal  0.000000e+00 -1.000000e+00  0.000000e+00
   outer loop
     vertex  8.000000e-02  1.280000e-01  5.760000e-02
     vertex  1.600000e-02  1.280000e-01  7.680000e-02
     vertex  4.800000e-02  1.280000e-01  5.760000e-02
   endloop
 endfacet
 facet normal -0.000000e+00 -1.000000e+00  0.000000e+00
   outer loop
     vertex  1.120000e-01  1.280000e-01  5.760000e-02
     vertex  8.000000e-02  1.280000e-01  5.760000e-02
     vertex  8.000000e-02  1.280000e-01  1.920000e-02
   endloop
 endfacet
 facet normal  0.000000e+00 -1.000000e+00 -0.000000e+00
   outer loop
     vertex  1.120000e-01  1.280000e-01  5.760000e-02
     vertex  8.000000e-02  1.280000e-01  1.920000e-02
     vertex  1.120000e-01  1.280000e-01  0.000000e+00
   endloop
 endfacet
 facet normal  0.000000e+00 -1.000000e+00  0.000000e+00
   outer loop
     vertex  1.440000e-01  1.280000e-01  5.760000e-02
     vertex  1.440000e-01  1.280000e-01  0.000000e+00
     vertex  1.760000e-01  1.280000e-01  0.000000e+00
   endloop
 endfacet
 facet normal  0.000000e+00 -1.000000e+00  0.000000e+00
   outer loop
     vertex  1.760000e-01  1.280000e-01  7.680000e-02
     vertex  1.120000e-01  1.280000e-01  5.760000e-02
     vertex  1.440000e-01  1.280000e-01  5.760000e-02
   endloop
 endfacet
 facet normal -0.000000e+00 -1.000000e+00  0.000000e+00
   outer loop
     vertex  1.760000e-01  1.280000e-01  7.680000e-02
     vertex  1.600000e-02  1.280000e-01  7.680000e-02
     vertex  8.000000e-02  1.280000e-01  5.760000e-02
   endloop
 endfacet
 facet normal  0.000000e+00 -1.000000e+00 -0.000000e+00
   outer loop
     vertex  1.760000e-01  1.280000e-01  7.680000e-02
     vertex  1.440000e-01  1.280000e-01  5.760000e-02
     vertex  1.760000e-01  1.280000e-01  0.000000e+00
   endloop
 endfacet
 facet normal  0.000000e+00 -1.000000e+00  0.000000e+00
   outer loop
     vertex  1.760000e-01  1.280000e-01  7.680000e-02
     vertex  8.000000e-02  1.280000e-01  5.760000e-02
     vertex  1.120000e-01  1.280000e-01  5.760000e-02
   endloop
 endfacet
 facet normal -0.000000e+00  0.000000e+00 -1.000000e+00
   outer loop
     vertex  1.440000e-01  1.440000e-01  0.000000e+00
     vertex  1.120000e-01  1.280000e-01  0.000000e+00
     vertex  1.120000e-01  1.440000e-01  0.000000e+00
   endloop
 endfacet
 facet normal  0.000000e+00 -0.000000e+00 -1.000000e+00
   outer loop
     vertex  1.440000e-01  1.440000e-01  0.000000e+00
     vertex  1.440000e-01  1.280000e-01  0.000000e+00
     vertex  1.120000e-01  1.280000e-01  0.000000e+00
   endloop
 endfacet
 facet normal  0.000000e+00 -1.000000e+00 -0.000000e+00
   outer loop
     vertex  1.120000e-01  4.800000e-02  7.680000e-02
     vertex  8.800000e-02  4.800000e-02  0.000000e+00
     vertex  1.120000e-01  4.800000e-02  0.000000e+00
   endloop
 endfacet
 facet normal -0.000000e+00 -1.000000e+00  0.000000e+00
   outer loop
     vertex  1.120000e-01  4.800000e-02  7.680000e-02
     vertex  8.800000e-02  4.800000e-02  7.680000e-02
     vertex  8.800000e-02  4.800000e-02  0.000000e+00
   endloop
 endfacet
 facet normal  0.000000e+00  0.000000e+00 -1.000000e+00
   outer loop
     vertex  8.000000e-02  4.800000e-02  0.000000e+00
     vertex  8.800000e-02  5.600000e-02  0.000000e+00
     vertex  8.800000e-02  4.800000e-02  0.000000e+00
   endloop
 endfacet
 facet normal  0.000000e+00  0.000000e+00 -1.000000e+00
   outer loop
     vertex  8.000000e-02  7.200000e-02  0.000000e+00
     vertex  8.800000e-02  5.600000e-02  0.000000e+00
     vertex  8.000000e-02  4.800000e-02  0.000000e+00
   endloop
 endfacet
 facet normal  0.000000e+00 -0.000000e+00 -1.000000e+00
   outer loop
     vertex  8.800000e-02  8.000000e-02  0.000000e+00
     vertex  8.800000e-02  5.600000e-02  0.000000e+00
     vertex  8.000000e-02  7.200000e-02  0.000000e+00
   endloop
 endfacet
 facet normal  0.000000e+00  0.000000e+00 -1.000000e+00
   outer loop
     vertex  8.000000e-02  8.000000e-02  0.000000e+00
     vertex  8.800000e-02  8.000000e-02  0.000000e+00
     vertex  8.000000e-02  7.200000e-02  0.000000e+00
   endloop
 endfacet
 facet normal  0.000000e+00  1.000000e+00  0.000000e+00
   outer loop
     vertex  1.120000e-01  5.600000e-02  7.680000e-02
     vertex  1.120000e-01  5.600000e-02  0.000000e+00
     vertex  8.800000e-02  5.600000e-02  0.000000e+00
   endloop
 endfacet
 facet normal  0.000000e+00  1.000000e+00  0.000000e+00
   outer loop
     vertex  1.120000e-01  5.600000e-02  7.680000e-02
     vertex  8.800000e-02  5.600000e-02  0.000000e+00
     vertex  8.800000e-02  5.600000e-02  7.680000e-02
   endloop
 endfacet
 facet normal -1.000000e+00  0.000000e+00  0.000000e+00
   outer loop
     vertex  1.760000e-01  4.800000e-02  5.760000e-02
     vertex  1.760000e-01  8.000000e-02  1.920000e-02
     vertex  1.760000e-01  4.800000e-02  1.920000e-02
   endloop
 endfacet
 facet normal -1.000000e+00  0.000000e+00  0.000000e+00
   outer loop
     vertex  1.760000e-01  4.800000e-02  5.760000e-02
     vertex  1.760000e-01  8.000000e-02  5.760000e-02
     vertex  1.760000e-01  8.000000e-02  1.920000e-02
   endloop
 endfacet
 facet normal  0.000000e+00  0.000000e+00  1.000000e+00
   outer loop
     vertex  8.000000e-02  4.800000e-02  7.680000e-02
     vertex  8.800000e-02  4.800000e-02  7.680000e-02
     vertex  8.800000e-02  5.600000e-02  7.680000e-02
   endloop
 endfacet
 facet normal  0.000000e+00  0.000000e+00  1.000000e+00
   outer loop
     vertex  8.000000e-02  7.200000e-02  7.680000e-02
     vertex  8.000000e-02  4.800000e-02  7.680000e-02
     vertex  8.800000e-02  5.600000e-02  7.680000e-02
   endloop
 endfacet
 facet normal  0.000000e+00  0.000000e+00  1.000000e+00
   outer loop
     vertex  8.800000e-02  8.000000e-02  7.680000e-02
     vertex  8.000000e-02  7.200000e-02  7.680000e-02
     vertex  8.800000e-02  5.600000e-02  7.680000e-02
   endloop
 endfacet
 facet normal -0.000000e+00  0.000000e+00  1.000000e+00
   outer loop
     vertex  8.000000e-02  8.000000e-02  7.680000e-02
     vertex  8.000000e-02  7.200000e-02  7.680000e-02
     vertex  8.800000e-02  8.000000e-02  7.680000e-02
   endloop
 endfacet
 facet normal  0.000000e+00  1.000000e+00  0.000000e+00
   outer loop
     vertex  1.440000e-01  1.440000e-01  5.760000e-02
     vertex  1.440000e-01  1.440000e-01  0.000000e+00
     vertex  1.120000e-01  1.440000e-01  0.000000e+00
   endloop
 endfacet
 facet normal  0.000000e+00  1.000000e+00  0.000000e+00
   outer loop
     vertex  1.440000e-01  1.440000e-01  5.760000e-02
     vertex  1.120000e-01  1.440000e-01  0.000000e+00
     vertex  1.120000e-01  1.440000e-01  5.760000e-02
   endloop
 endfacet
 facet normal  0.000000e+00  1.000000e+00  0.000000e+00
   outer loop
     vertex  8.000000e-02  1.440000e-01  5.760000e-02
     vertex  8.000000e-02  1.440000e-01  1.920000e-02
     vertex  4.800000e-02  1.440000e-01  1.920000e-02
   endloop
 endfacet
 facet normal  0.000000e+00  1.000000e+00  0.000000e+00
   outer loop
     vertex  8.000000e-02  1.440000e-01  5.760000e-02
     vertex  4.800000e-02  1.440000e-01  1.920000e-02
     vertex  4.800000e-02  1.440000e-01  5.760000e-02
   endloop
 endfacet
 facet normal  0.000000e+00 -1.000000e+00 -0.000000e+00
   outer loop
     vertex  6.400000e-02  7.200000e-02  5.760000e-02
     vertex  3.200000e-02  7.200000e-02  0.000000e+00
     vertex  6.400000e-02  7.200000e-02  0.000000e+00
   endloop
 endfacet
 facet normal -0.000000e+00 -1.000000e+00  0.000000e+00
   outer loop
     vertex  6.400000e-02  7.200000e-02  5.760000e-02
     vertex  3.200000e-02  7.200000e-02  5.760000e-02
     vertex  3.200000e-02  7.200000e-02  0.000000e+00
   endloop
 endfacet
 facet normal -0.000000e+00  0.000000e+00 -1.000000e+00
   outer loop
     vertex  8.000000e-02  8.000000e-02  0.000000e+00
     vertex  6.400000e-02  7.200000e-02  0.000000e+00
     vertex  6.400000e-02  8.000000e-02  0.000000e+00
   endloop
 endfacet
 facet normal  0.000000e+00 -0.000000e+00 -1.000000e+00
   outer loop
     vertex  8.000000e-02  8.000000e-02  0.000000e+00
     vertex  8.000000e-02  7.200000e-02  0.000000e+00
     vertex  6.400000e-02  7.200000e-02  0.000000e+00
   endloop
 endfacet
 facet normal -1.000000e+00  0.000000e+00 -0.000000e+00
   outer loop
     vertex  8.000000e-02  7.200000e-02  7.680000e-02
     vertex  8.000000e-02  7.200000e-02  0.000000e+00
     vertex  8.000000e-02  4.800000e-02  0.000000e+00
   endloop
 endfacet
 facet normal -1.000000e+00 -0.000000e+00  0.000000e+00
   outer loop
     vertex  8.000000e-02  7.200000e-02  7.680000e-02
     vertex  8.000000e-02  4.800000e-02  0.000000e+00
     vertex  8.000000e-02  4.800000e-02  7.680000e-02
   endloop
 endfacet
 facet normal  0.000000e+00  1.000000e+00  0.000000e+00
   outer loop
     vertex  6.400000e-02  8.000000e-02  5.760000e-02
     vertex  6.400000e-02  8.000000e-02  0.000000e+00
     vertex  3.200000e-02  8.000000e-02  0.000000e+00
   endloop
 endfacet
 facet normal  0.000000e+00  1.000000e+00  0.000000e+00
   outer loop
     vertex  6.400000e-02  8.000000e-02  5.760000e-02
     vertex  3.200000e-02  8.000000e-02  0.000000e+00
     vertex  3.200000e-02  8.000000e-02  5.760000e-02
   endloop
 endfacet
 facet normal  0.000000e+00  1.000000e+00  0.000000e+00
   outer loop
     vertex  8.800000e-02  8.000000e-02  7.680000e-02
     vertex  8.800000e-02  8.000000e-02  0.000000e+00
     vertex  8.000000e-02  8.000000e-02  0.000000e+00
   endloop
 endfacet
 facet normal  0.000000e+00  1.000000e+00  0.000000e+00
   outer loop
     vertex  8.800000e-02  8.000000e-02  7.680000e-02
     vertex  8.000000e-02  8.000000e-02  0.000000e+00
     vertex  8.000000e-02  8.000000e-02  7.680000e-02
   endloop
 endfacet
 facet normal  0.000000e+00 -1.000000e+00 -0.000000e+00
   outer loop
     vertex  1.440000e-01  1.280000e-01  5.760000e-02
     vertex  1.120000e-01  1.280000e-01  0.000000e+00
     vertex  1.440000e-01  1.280000e-01  0.000000e+00
   endloop
 endfacet
 facet normal -0.000000e+00 -1.000000e+00  0.000000e+00
   outer loop
     vertex  1.440000e-01  1.280000e-01  5.760000e-02
     vertex  1.120000e-01  1.280000e-01  5.760000e-02
     vertex  1.120000e-01  1.280000e-01  0.000000e+00
   endloop
 endfacet
 facet normal  0.000000e+00 -1.000000e+00 -0.000000e+00
   outer loop
     vertex  8.000000e-02  1.280000e-01  5.760000e-02
     vertex  4.800000e-02  1.280000e-01  1.920000e-02
     vertex  8.000000e-02  1.280000e-01  1.920000e-02
   endloop
 endfacet
 facet normal -0.000000e+00 -1.000000e+00  0.000000e+00
   outer loop
     vertex  8.000000e-02  1.280000e-01  5.760000e-02
     vertex  4.800000e-02  1.280000e-01  5.760000e-02
     vertex  4.800000e-02  1.280000e-01  1.920000e-02
   endloop
 endfacet
 facet normal  0.000000e+00 -1.000000e+00 -0.000000e+00
   outer loop
     vertex  8.800000e-02  4.800000e-02  7.680000e-02
     vertex  8.000000e-02  4.800000e-02  0.000000e+00
     vertex  8.800000e-02  4.800000e-02  0.000000e+00
   endloop
 endfacet
 facet normal -0.000000e+00 -1.000000e+00  0.000000e+00
   outer loop
     vertex  8.800000e-02  4.800000e-02  7.680000e-02
     vertex  8.000000e-02  4.800000e-02  7.680000e-02
     vertex  8.000000e-02  4.800000e-02  0.000000e+00
   endloop
 endfacet
 facet normal  1.000000e+00  0.000000e+00  0.000000e+00
   outer loop
     vertex  8.800000e-02  8.000000e-02  7.680000e-02
     vertex  8.800000e-02  5.600000e-02  0.000000e+00
     vertex  8.800000e-02  8.000000e-02  0.000000e+00
   endloop
 endfacet
 facet normal  1.000000e+00  0.000000e+00  0.000000e+00
   outer loop
     vertex  8.800000e-02  8.000000e-02  7.680000e-02
     vertex  8.800000e-02  5.600000e-02  7.680000e-02
     vertex  8.800000e-02  5.600000e-02  0.000000e+00
   endloop
 endfacet
endsolid
