solid 
 facet normal -1.947072e-07 -1.000000e+00  0.000000e+00
   outer loop
     vertex  1.960000e+01  8.000000e+00  9.960000e+00
     vertex  2.000000e+01  8.000000e+00  9.960000e+00
     vertex  2.000000e+01  8.000000e+00  1.044000e+01
   endloop
 endfacet
 facet normal -1.947072e-07 -1.000000e+00  0.000000e+00
   outer loop
     vertex  1.960000e+01  8.000000e+00  9.960000e+00
     vertex  2.000000e+01  8.000000e+00  1.044000e+01
     vertex  1.960000e+01  8.000000e+00  1.044000e+01
   endloop
 endfacet
 facet normal  1.000000e+00 -6.278329e-07  0.000000e+00
   outer loop
     vertex  2.000000e+01  1.100000e+01  1.044000e+01
     vertex  2.000000e+01  1.200000e+01  9.960000e+00
     vertex  2.000000e+01  1.200000e+01  1.044000e+01
   endloop
 endfacet
 facet normal  1.000000e+00 -5.903468e-08  0.000000e+00
   outer loop
     vertex  2.000000e+01  8.000000e+00  9.960000e+00
     vertex  2.000000e+01  9.000000e+00  1.044000e+01
     vertex  2.000000e+01  8.000000e+00  1.044000e+01
   endloop
 endfacet
 facet normal  1.000000e+00 -1.947072e-07  9.023462e-07
   outer loop
     vertex  2.000000e+01  8.000000e+00  9.960000e+00
     vertex  2.000000e+01  1.200000e+01  9.960000e+00
     vertex  2.000000e+01  1.100000e+01  1.044000e+01
   endloop
 endfacet
 facet normal  1.000000e+00 -4.598057e-08 -2.719607e-08
   outer loop
     vertex  2.000000e+01  8.000000e+00  9.960000e+00
     vertex  2.000000e+01  1.100000e+01  1.044000e+01
     vertex  2.000000e+01  9.000000e+00  1.044000e+01
   endloop
 endfacet
 facet normal -1.000000e+00  5.903467e-08  0.000000e+00
   outer loop
     vertex  1.960000e+01  9.000000e+00  1.044000e+01
     vertex  1.960000e+01  8.000000e+00  9.960000e+00
     vertex  1.960000e+01  8.000000e+00  1.044000e+01
   endloop
 endfacet
 facet normal -1.000000e+00  6.278329e-07  0.000000e+00
   outer loop
     vertex  1.960000e+01  1.200000e+01  9.960000e+00
     vertex  1.960000e+01  1.100000e+01  1.044000e+01
     vertex  1.960000e+01  1.200000e+01  1.044000e+01
   endloop
 endfacet
 facet normal -1.000000e+00  1.947072e-07 -2.826512e-07
   outer loop
     vertex  1.960000e+01  1.200000e+01  9.960000e+00
     vertex  1.960000e+01  8.000000e+00  9.960000e+00
     vertex  1.960000e+01  9.000000e+00  1.044000e+01
   endloop
 endfacet
 facet normal -1.000000e+00  4.598040e-08 -1.212194e-06
   outer loop
     vertex  1.960000e+01  1.200000e+01  9.960000e+00
     vertex  1.960000e+01  9.000000e+00  1.044000e+01
     vertex  1.960000e+01  1.100000e+01  1.044000e+01
   endloop
 endfacet
 facet normal  0.000000e+00  0.000000e+00 -1.000000e+00
   outer loop
     vertex  1.960000e+01  8.000000e+00  9.960000e+00
     vertex  1.960000e+01  1.200000e+01  9.960000e+00
     vertex  2.000000e+01  1.200000e+01  9.960000e+00
   endloop
 endfacet
 facet normal  0.000000e+00  0.000000e+00 -1.000000e+00
   outer loop
     vertex  1.960000e+01  8.000000e+00  9.960000e+00
     vertex  2.000000e+01  1.200000e+01  9.960000e+00
     vertex  2.000000e+01  8.000000e+00  9.960000e+00
   endloop
 endfacet
 facet normal  3.425978e-14  1.759554e-07  1.000000e+00
   outer loop
     vertex  1.960000e+01  8.000000e+00  1.044000e+01
     vertex  2.000000e+01  8.000000e+00  1.044000e+01
     vertex  2.000000e+01  9.000000e+00  1.044000e+01
   endloop
 endfacet
 facet normal  1.328426e-14  1.759554e-07  1.000000e+00
   outer loop
     vertex  1.960000e+01  8.000000e+00  1.044000e+01
     vertex  2.000000e+01  9.000000e+00  1.044000e+01
     vertex  1.960000e+01  9.000000e+00  1.044000e+01
   endloop
 endfacet
 facet normal  1.947072e-07  1.000000e+00  0.000000e+00
   outer loop
     vertex  2.000000e+01  1.200000e+01  9.960000e+00
     vertex  1.960000e+01  1.200000e+01  9.960000e+00
     vertex  1.960000e+01  1.200000e+01  1.044000e+01
   endloop
 endfacet
 facet normal  1.947072e-07  1.000000e+00 -0.000000e+00
   outer loop
     vertex  2.000000e+01  1.200000e+01  9.960000e+00
     vertex  1.960000e+01  1.200000e+01  1.044000e+01
     vertex  2.000000e+01  1.200000e+01  1.044000e+01
   endloop
 endfacet
 facet normal -8.704089e-14 -4.470348e-07  1.000000e+00
   outer loop
     vertex  2.000000e+01  1.100000e+01  1.044000e+01
     vertex  2.000000e+01  1.200000e+01  1.044000e+01
     vertex  1.960000e+01  1.200000e+01  1.044000e+01
   endloop
 endfacet
 facet normal -3.375019e-14 -4.470348e-07  1.000000e+00
   outer loop
     vertex  1.960000e+01  1.100000e+01  1.044000e+01
     vertex  2.000000e+01  1.100000e+01  1.044000e+01
     vertex  1.960000e+01  1.200000e+01  1.044000e+01
   endloop
 endfacet
 facet normal  1.000000e+00 -7.549790e-08  0.000000e+00
   outer loop
     vertex  2.000000e+01  9.000000e+00  1.092000e+01
     vertex  2.000000e+01  1.100000e+01  1.044000e+01
     vertex  2.000000e+01  1.100000e+01  1.092000e+01
   endloop
 endfacet
 facet normal  1.000000e+00 -4.598055e-08  1.229890e-07
   outer loop
     vertex  2.000000e+01  9.000000e+00  1.044000e+01
     vertex  2.000000e+01  1.100000e+01  1.044000e+01
     vertex  2.000000e+01  9.000000e+00  1.092000e+01
   endloop
 endfacet
 facet normal -1.000000e+00  7.549790e-08 -1.229890e-07
   outer loop
     vertex  1.960000e+01  1.100000e+01  1.092000e+01
     vertex  1.960000e+01  9.000000e+00  1.044000e+01
     vertex  1.960000e+01  9.000000e+00  1.092000e+01
   endloop
 endfacet
 facet normal -1.000000e+00  4.598056e-08  0.000000e+00
   outer loop
     vertex  1.960000e+01  1.100000e+01  1.044000e+01
     vertex  1.960000e+01  9.000000e+00  1.044000e+01
     vertex  1.960000e+01  1.100000e+01  1.092000e+01
   endloop
 endfacet
 facet normal -7.549790e-08 -1.000000e+00  2.772205e-14
   outer loop
     vertex  1.960000e+01  9.000000e+00  1.044000e+01
     vertex  2.000000e+01  9.000000e+00  1.044000e+01
     vertex  2.000000e+01  9.000000e+00  1.092000e+01
   endloop
 endfacet
 facet normal -7.549790e-08 -1.000000e+00  2.772205e-14
   outer loop
     vertex  1.960000e+01  9.000000e+00  1.044000e+01
     vertex  2.000000e+01  9.000000e+00  1.092000e+01
     vertex  1.960000e+01  9.000000e+00  1.092000e+01
   endloop
 endfacet
 facet normal  7.549790e-08  1.000000e+00  0.000000e+00
   outer loop
     vertex  2.000000e+01  1.100000e+01  1.044000e+01
     vertex  1.960000e+01  1.100000e+01  1.044000e+01
     vertex  1.960000e+01  1.100000e+01  1.092000e+01
   endloop
 endfacet
 facet normal  7.549790e-08  1.000000e+00 -0.000000e+00
   outer loop
     vertex  2.000000e+01  1.100000e+01  1.044000e+01
     vertex  1.960000e+01  1.100000e+01  1.092000e+01
     vertex  2.000000e+01  1.100000e+01  1.092000e+01
   endloop
 endfacet
 facet normal  0.000000e+00  0.000000e+00  1.000000e+00
   outer loop
     vertex  1.960000e+01  9.000000e+00  1.092000e+01
     vertex  2.000000e+01  1.100000e+01  1.092000e+01
     vertex  1.960000e+01  1.100000e+01  1.092000e+01
   endloop
 endfacet
 facet normal -0.000000e+00  0.000000e+00  1.000000e+00
   outer loop
     vertex  1.960000e+01  9.000000e+00  1.092000e+01
     vertex  2.000000e+01  9.000000e+00  1.092000e+01
     vertex  2.000000e+01  1.100000e+01  1.092000e+01
   endloop
 endfacet
 facet normal -7.549790e-08 -1.000000e+00  0.000000e+00
   outer loop
     vertex  4.440892e-15  8.000000e+00  9.960000e+00
     vertex  4.000000e-01  8.000000e+00  9.960000e+00
     vertex  4.000000e-01  8.000000e+00  1.044000e+01
   endloop
 endfacet
 facet normal -7.549790e-08 -1.000000e+00  0.000000e+00
   outer loop
     vertex  4.440892e-15  8.000000e+00  9.960000e+00
     vertex  4.000000e-01  8.000000e+00  1.044000e+01
     vertex  4.440892e-15  8.000000e+00  1.044000e+01
   endloop
 endfacet
 facet normal  1.000000e+00 -1.305332e-07  0.000000e+00
   outer loop
     vertex  4.000002e-01  1.100000e+01  1.044000e+01
     vertex  4.000003e-01  1.200000e+01  9.960000e+00
     vertex  4.000003e-01  1.200000e+01  1.044000e+01
   endloop
 endfacet
 facet normal  1.000000e+00 -2.046264e-08  0.000000e+00
   outer loop
     vertex  4.000000e-01  8.000000e+00  9.960000e+00
     vertex  4.000000e-01  9.000000e+00  1.044000e+01
     vertex  4.000000e-01  8.000000e+00  1.044000e+01
   endloop
 endfacet
 facet normal  1.000000e+00 -7.549790e-08  1.146568e-07
   outer loop
     vertex  4.000000e-01  8.000000e+00  9.960000e+00
     vertex  4.000003e-01  1.200000e+01  9.960000e+00
     vertex  4.000002e-01  1.100000e+01  1.044000e+01
   endloop
 endfacet
 facet normal  1.000000e+00 -7.549790e-08  1.146568e-07
   outer loop
     vertex  4.000000e-01  8.000000e+00  9.960000e+00
     vertex  4.000002e-01  1.100000e+01  1.044000e+01
     vertex  4.000000e-01  9.000000e+00  1.044000e+01
   endloop
 endfacet
 facet normal -1.000000e+00  2.046264e-08  0.000000e+00
   outer loop
     vertex  2.046264e-08  9.000000e+00  1.044000e+01
     vertex  1.165734e-15  8.000000e+00  9.960000e+00
     vertex  1.165734e-15  8.000000e+00  1.044000e+01
   endloop
 endfacet
 facet normal -1.000000e+00  1.305332e-07  0.000000e+00
   outer loop
     vertex  3.019916e-07  1.200000e+01  9.960000e+00
     vertex  1.714584e-07  1.100000e+01  1.044000e+01
     vertex  3.019916e-07  1.200000e+01  1.044000e+01
   endloop
 endfacet
 facet normal -1.000000e+00  7.549790e-08 -1.146568e-07
   outer loop
     vertex  3.019916e-07  1.200000e+01  9.960000e+00
     vertex  1.165734e-15  8.000000e+00  9.960000e+00
     vertex  2.046264e-08  9.000000e+00  1.044000e+01
   endloop
 endfacet
 facet normal -1.000000e+00  7.549790e-08 -1.146568e-07
   outer loop
     vertex  3.019916e-07  1.200000e+01  9.960000e+00
     vertex  2.046264e-08  9.000000e+00  1.044000e+01
     vertex  1.714584e-07  1.100000e+01  1.044000e+01
   endloop
 endfacet
 facet normal  0.000000e+00  0.000000e+00 -1.000000e+00
   outer loop
     vertex  4.000000e-01  8.000000e+00  9.960000e+00
     vertex  3.019916e-07  1.200000e+01  9.960000e+00
     vertex  4.000003e-01  1.200000e+01  9.960000e+00
   endloop
 endfacet
 facet normal  0.000000e+00  0.000000e+00 -1.000000e+00
   outer loop
     vertex  4.440892e-15  8.000000e+00  9.960000e+00
     vertex  3.019916e-07  1.200000e+01  9.960000e+00
     vertex  4.000000e-01  8.000000e+00  9.960000e+00
   endloop
 endfacet
 facet normal  1.545517e-14  2.047099e-07  1.000000e+00
   outer loop
     vertex  1.165734e-15  8.000000e+00  1.044000e+01
     vertex  4.000000e-01  8.000000e+00  1.044000e+01
     vertex  4.000000e-01  9.000000e+00  1.044000e+01
   endloop
 endfacet
 facet normal  1.545517e-14  2.047099e-07  1.000000e+00
   outer loop
     vertex  1.165734e-15  8.000000e+00  1.044000e+01
     vertex  4.000000e-01  9.000000e+00  1.044000e+01
     vertex  2.046264e-08  9.000000e+00  1.044000e+01
   endloop
 endfacet
 facet normal  7.549790e-08  1.000000e+00  0.000000e+00
   outer loop
     vertex  4.000003e-01  1.200000e+01  9.960000e+00
     vertex  3.019916e-07  1.200000e+01  9.960000e+00
     vertex  3.019916e-07  1.200000e+01  1.044000e+01
   endloop
 endfacet
 facet normal  7.549790e-08  1.000000e+00 -0.000000e+00
   outer loop
     vertex  4.000003e-01  1.200000e+01  9.960000e+00
     vertex  3.019916e-07  1.200000e+01  1.044000e+01
     vertex  4.000003e-01  1.200000e+01  1.044000e+01
   endloop
 endfacet
 facet normal -1.545517e-14 -2.047099e-07  1.000000e+00
   outer loop
     vertex  4.000002e-01  1.100000e+01  1.044000e+01
     vertex  4.000003e-01  1.200000e+01  1.044000e+01
     vertex  3.019916e-07  1.200000e+01  1.044000e+01
   endloop
 endfacet
 facet normal -1.545517e-14 -2.047099e-07  1.000000e+00
   outer loop
     vertex  1.714584e-07  1.100000e+01  1.044000e+01
     vertex  4.000002e-01  1.100000e+01  1.044000e+01
     vertex  3.019916e-07  1.200000e+01  1.044000e+01
   endloop
 endfacet
 facet normal  1.000000e+00 -7.549790e-08  4.263053e-08
   outer loop
     vertex  4.000000e-01  9.000000e+00  1.044000e+01
     vertex  4.000002e-01  1.100000e+01  1.044000e+01
     vertex  4.000002e-01  1.100000e+01  1.092000e+01
   endloop
 endfacet
 facet normal  1.000000e+00 -7.549790e-08  4.263053e-08
   outer loop
     vertex  4.000000e-01  9.000000e+00  1.044000e+01
     vertex  4.000002e-01  1.100000e+01  1.092000e+01
     vertex  4.000000e-01  9.000000e+00  1.092000e+01
   endloop
 endfacet
 facet normal -1.000000e+00  7.549790e-08 -4.263053e-08
   outer loop
     vertex  1.714584e-07  1.100000e+01  1.044000e+01
     vertex  2.046264e-08  9.000000e+00  1.044000e+01
     vertex  1.165734e-15  9.000000e+00  1.092000e+01
   endloop
 endfacet
 facet normal -1.000000e+00  7.549790e-08 -4.263053e-08
   outer loop
     vertex  1.714584e-07  1.100000e+01  1.044000e+01
     vertex  1.165734e-15  9.000000e+00  1.092000e+01
     vertex  1.509958e-07  1.100000e+01  1.092000e+01
   endloop
 endfacet
 facet normal -7.549790e-08 -1.000000e+00  4.822302e-16
   outer loop
     vertex  2.046264e-08  9.000000e+00  1.044000e+01
     vertex  4.000000e-01  9.000000e+00  1.044000e+01
     vertex  4.000000e-01  9.000000e+00  1.092000e+01
   endloop
 endfacet
 facet normal -7.549790e-08 -1.000000e+00  4.822302e-16
   outer loop
     vertex  2.046264e-08  9.000000e+00  1.044000e+01
     vertex  4.000000e-01  9.000000e+00  1.092000e+01
     vertex  1.165734e-15  9.000000e+00  1.092000e+01
   endloop
 endfacet
 facet normal  7.549790e-08  1.000000e+00 -4.822302e-16
   outer loop
     vertex  4.000002e-01  1.100000e+01  1.044000e+01
     vertex  1.714584e-07  1.100000e+01  1.044000e+01
     vertex  1.509958e-07  1.100000e+01  1.092000e+01
   endloop
 endfacet
 facet normal  7.549790e-08  1.000000e+00 -4.822302e-16
   outer loop
     vertex  4.000002e-01  1.100000e+01  1.044000e+01
     vertex  1.509958e-07  1.100000e+01  1.092000e+01
     vertex  4.000002e-01  1.100000e+01  1.092000e+01
   endloop
 endfacet
 facet normal  0.000000e+00 -0.000000e+00  1.000000e+00
   outer loop
     vertex  4.000000e-01  9.000000e+00  1.092000e+01
     vertex  4.000002e-01  1.100000e+01  1.092000e+01
     vertex  1.509958e-07  1.100000e+01  1.092000e+01
   endloop
 endfacet
 facet normal -0.000000e+00  0.000000e+00  1.000000e+00
   outer loop
     vertex  0.000000e+00  9.000000e+00  1.092000e+01
     vertex  4.000000e-01  9.000000e+00  1.092000e+01
     vertex  1.509958e-07  1.100000e+01  1.092000e+01
   endloop
 endfacet
 facet normal  0.000000e+00 -1.000000e+00 -0.000000e+00
   outer loop
     vertex  5.000000e+00  5.000000e+00  4.080000e+00
     vertex  2.000000e+00  5.000000e+00  0.000000e+00
     vertex  5.000000e+00  5.000000e+00  0.000000e+00
   endloop
 endfacet
 facet normal -0.000000e+00 -1.000000e+00  0.000000e+00
   outer loop
     vertex  5.000000e+00  5.000000e+00  4.080000e+00
     vertex  2.000000e+00  5.000000e+00  4.080000e+00
     vertex  2.000000e+00  5.000000e+00  0.000000e+00
   endloop
 endfacet
 facet normal -0.000000e+00  0.000000e+00 -1.000000e+00
   outer loop
     vertex  5.000000e+00  5.400000e+00  0.000000e+00
     vertex  2.000000e+00  5.000000e+00  0.000000e+00
     vertex  2.000000e+00  5.400000e+00  0.000000e+00
   endloop
 endfacet
 facet normal  0.000000e+00 -0.000000e+00 -1.000000e+00
   outer loop
     vertex  5.000000e+00  5.400000e+00  0.000000e+00
     vertex  5.000000e+00  5.000000e+00  0.000000e+00
     vertex  2.000000e+00  5.000000e+00  0.000000e+00
   endloop
 endfacet
 facet normal  0.000000e+00 -1.000000e+00  0.000000e+00
   outer loop
     vertex  1.960000e+01  5.000000e+00  0.000000e+00
     vertex  1.960000e+01  5.000000e+00  9.000000e+00
     vertex  1.800000e+01  5.000000e+00  4.080000e+00
   endloop
 endfacet
 facet normal  0.000000e+00 -1.000000e+00  0.000000e+00
   outer loop
     vertex  1.500000e+01  5.000000e+00  4.080000e+00
     vertex  1.800000e+01  5.000000e+00  4.080000e+00
     vertex  1.960000e+01  5.000000e+00  9.000000e+00
   endloop
 endfacet
 facet normal  0.000000e+00 -1.000000e+00  0.000000e+00
   outer loop
     vertex  1.400000e+01  5.000000e+00  4.080000e+00
     vertex  1.500000e+01  5.000000e+00  4.080000e+00
     vertex  1.960000e+01  5.000000e+00  9.000000e+00
   endloop
 endfacet
 facet normal  0.000000e+00 -1.000000e+00  0.000000e+00
   outer loop
     vertex  1.800000e+01  5.000000e+00  0.000000e+00
     vertex  1.960000e+01  5.000000e+00  0.000000e+00
     vertex  1.800000e+01  5.000000e+00  4.080000e+00
   endloop
 endfacet
 facet normal  0.000000e+00 -1.000000e+00  0.000000e+00
   outer loop
     vertex  1.100000e+01  5.000000e+00  4.080000e+00
     vertex  1.400000e+01  5.000000e+00  4.080000e+00
     vertex  1.960000e+01  5.000000e+00  9.000000e+00
   endloop
 endfacet
 facet normal  0.000000e+00 -1.000000e+00  0.000000e+00
   outer loop
     vertex  1.500000e+01  5.000000e+00  0.000000e+00
     vertex  1.500000e+01  5.000000e+00  4.080000e+00
     vertex  1.400000e+01  5.000000e+00  4.080000e+00
   endloop
 endfacet
 facet normal  0.000000e+00 -1.000000e+00  0.000000e+00
   outer loop
     vertex  1.400000e+01  5.000000e+00  0.000000e+00
     vertex  1.500000e+01  5.000000e+00  0.000000e+00
     vertex  1.400000e+01  5.000000e+00  4.080000e+00
   endloop
 endfacet
 facet normal  0.000000e+00 -1.000000e+00  0.000000e+00
   outer loop
     vertex  1.100000e+01  5.000000e+00  0.000000e+00
     vertex  1.100000e+01  5.000000e+00  4.080000e+00
     vertex  9.000000e+00  5.000000e+00  4.080000e+00
   endloop
 endfacet
 facet normal  0.000000e+00 -1.000000e+00  2.552172e-08
   outer loop
     vertex  4.000031e-01  5.000000e+00  9.000000e+00
     vertex  6.000000e+00  5.000000e+00  4.080000e+00
     vertex  9.000000e+00  5.000000e+00  4.080000e+00
   endloop
 endfacet
 facet normal -6.539943e-09 -1.000000e+00  1.143161e-08
   outer loop
     vertex  4.000031e-01  5.000000e+00  9.000000e+00
     vertex  1.100000e+01  5.000000e+00  4.080000e+00
     vertex  1.960000e+01  5.000000e+00  9.000000e+00
   endloop
 endfacet
 facet normal  1.076007e-23 -1.000000e+00  2.552172e-08
   outer loop
     vertex  4.000031e-01  5.000000e+00  9.000000e+00
     vertex  9.000000e+00  5.000000e+00  4.080000e+00
     vertex  1.100000e+01  5.000000e+00  4.080000e+00
   endloop
 endfacet
 facet normal  0.000000e+00 -1.000000e+00  2.552172e-08
   outer loop
     vertex  5.000000e+00  5.000000e+00  4.080000e+00
     vertex  6.000000e+00  5.000000e+00  4.080000e+00
     vertex  4.000031e-01  5.000000e+00  9.000000e+00
   endloop
 endfacet
 facet normal  0.000000e+00 -1.000000e+00  0.000000e+00
   outer loop
     vertex  9.000000e+00  5.000000e+00  0.000000e+00
     vertex  1.100000e+01  5.000000e+00  0.000000e+00
     vertex  9.000000e+00  5.000000e+00  4.080000e+00
   endloop
 endfacet
 facet normal  0.000000e+00 -1.000000e+00  2.552172e-08
   outer loop
     vertex  2.000000e+00  5.000000e+00  4.080000e+00
     vertex  5.000000e+00  5.000000e+00  4.080000e+00
     vertex  4.000031e-01  5.000000e+00  9.000000e+00
   endloop
 endfacet
 facet normal  0.000000e+00 -1.000000e+00  0.000000e+00
   outer loop
     vertex  6.000000e+00  5.000000e+00  0.000000e+00
     vertex  6.000000e+00  5.000000e+00  4.080000e+00
     vertex  5.000000e+00  5.000000e+00  4.080000e+00
   endloop
 endfacet
 facet normal  0.000000e+00 -1.000000e+00  0.000000e+00
   outer loop
     vertex  5.000000e+00  5.000000e+00  0.000000e+00
     vertex  6.000000e+00  5.000000e+00  0.000000e+00
     vertex  5.000000e+00  5.000000e+00  4.080000e+00
   endloop
 endfacet
 facet normal -7.847945e-08 -1.000000e+00 -8.109629e-24
   outer loop
     vertex  4.000031e-01  5.000000e+00  0.000000e+00
     vertex  2.000000e+00  5.000000e+00  0.000000e+00
     vertex  2.000000e+00  5.000000e+00  4.080000e+00
   endloop
 endfacet
 facet normal -7.847945e-08 -1.000000e+00  0.000000e+00
   outer loop
     vertex  4.000031e-01  5.000000e+00  0.000000e+00
     vertex  2.000000e+00  5.000000e+00  4.080000e+00
     vertex  4.000031e-01  5.000000e+00  9.000000e+00
   endloop
 endfacet
 facet normal  0.000000e+00  0.000000e+00 -1.000000e+00
   outer loop
     vertex  4.000031e-01  5.000000e+00  0.000000e+00
     vertex  4.000030e-01  5.400000e+00  0.000000e+00
     vertex  2.000000e+00  5.400000e+00  0.000000e+00
   endloop
 endfacet
 facet normal  0.000000e+00  0.000000e+00 -1.000000e+00
   outer loop
     vertex  4.000031e-01  5.000000e+00  0.000000e+00
     vertex  2.000000e+00  5.400000e+00  0.000000e+00
     vertex  2.000000e+00  5.000000e+00  0.000000e+00
   endloop
 endfacet
 facet normal  0.000000e+00  1.000000e+00  0.000000e+00
   outer loop
     vertex  5.000000e+00  5.400000e+00  4.080000e+00
     vertex  5.000000e+00  5.400000e+00  0.000000e+00
     vertex  2.000000e+00  5.400000e+00  0.000000e+00
   endloop
 endfacet
 facet normal  0.000000e+00  1.000000e+00  0.000000e+00
   outer loop
     vertex  5.000000e+00  5.400000e+00  4.080000e+00
     vertex  2.000000e+00  5.400000e+00  0.000000e+00
     vertex  2.000000e+00  5.400000e+00  4.080000e+00
   endloop
 endfacet
 facet normal  0.000000e+00  0.000000e+00 -1.000000e+00
   outer loop
     vertex  5.000000e+00  5.400000e+00  0.000000e+00
     vertex  6.000000e+00  5.400000e+00  0.000000e+00
     vertex  6.000000e+00  5.000000e+00  0.000000e+00
   endloop
 endfacet
 facet normal  0.000000e+00  0.000000e+00 -1.000000e+00
   outer loop
     vertex  5.000000e+00  5.000000e+00  0.000000e+00
     vertex  5.000000e+00  5.400000e+00  0.000000e+00
     vertex  6.000000e+00  5.000000e+00  0.000000e+00
   endloop
 endfacet
 facet normal  0.000000e+00  0.000000e+00 -1.000000e+00
   outer loop
     vertex  1.800000e+01  5.000000e+00  0.000000e+00
     vertex  1.960000e+01  5.400000e+00  0.000000e+00
     vertex  1.960000e+01  5.000000e+00  0.000000e+00
   endloop
 endfacet
 facet normal  0.000000e+00  0.000000e+00 -1.000000e+00
   outer loop
     vertex  1.800000e+01  5.000000e+00  0.000000e+00
     vertex  1.800000e+01  5.400000e+00  0.000000e+00
     vertex  1.960000e+01  5.400000e+00  0.000000e+00
   endloop
 endfacet
 facet normal  0.000000e+00 -1.000000e+00 -0.000000e+00
   outer loop
     vertex  1.800000e+01  5.000000e+00  4.080000e+00
     vertex  1.500000e+01  5.000000e+00  0.000000e+00
     vertex  1.800000e+01  5.000000e+00  0.000000e+00
   endloop
 endfacet
 facet normal -0.000000e+00 -1.000000e+00  0.000000e+00
   outer loop
     vertex  1.800000e+01  5.000000e+00  4.080000e+00
     vertex  1.500000e+01  5.000000e+00  4.080000e+00
     vertex  1.500000e+01  5.000000e+00  0.000000e+00
   endloop
 endfacet
 facet normal  0.000000e+00  0.000000e+00 -1.000000e+00
   outer loop
     vertex  1.400000e+01  5.400000e+00  0.000000e+00
     vertex  1.500000e+01  5.400000e+00  0.000000e+00
     vertex  1.500000e+01  5.000000e+00  0.000000e+00
   endloop
 endfacet
 facet normal  0.000000e+00  0.000000e+00 -1.000000e+00
   outer loop
     vertex  1.400000e+01  5.000000e+00  0.000000e+00
     vertex  1.400000e+01  5.400000e+00  0.000000e+00
     vertex  1.500000e+01  5.000000e+00  0.000000e+00
   endloop
 endfacet
 facet normal  0.000000e+00 -1.000000e+00 -0.000000e+00
   outer loop
     vertex  1.400000e+01  5.000000e+00  4.080000e+00
     vertex  1.100000e+01  5.000000e+00  0.000000e+00
     vertex  1.400000e+01  5.000000e+00  0.000000e+00
   endloop
 endfacet
 facet normal -0.000000e+00 -1.000000e+00  0.000000e+00
   outer loop
     vertex  1.400000e+01  5.000000e+00  4.080000e+00
     vertex  1.100000e+01  5.000000e+00  4.080000e+00
     vertex  1.100000e+01  5.000000e+00  0.000000e+00
   endloop
 endfacet
 facet normal  0.000000e+00  0.000000e+00 -1.000000e+00
   outer loop
     vertex  9.000000e+00  5.400000e+00  0.000000e+00
     vertex  1.100000e+01  5.400000e+00  0.000000e+00
     vertex  1.100000e+01  5.000000e+00  0.000000e+00
   endloop
 endfacet
 facet normal  0.000000e+00  0.000000e+00 -1.000000e+00
   outer loop
     vertex  9.000000e+00  5.000000e+00  0.000000e+00
     vertex  9.000000e+00  5.400000e+00  0.000000e+00
     vertex  1.100000e+01  5.000000e+00  0.000000e+00
   endloop
 endfacet
 facet normal  0.000000e+00 -1.000000e+00 -0.000000e+00
   outer loop
     vertex  9.000000e+00  5.000000e+00  4.080000e+00
     vertex  6.000000e+00  5.000000e+00  0.000000e+00
     vertex  9.000000e+00  5.000000e+00  0.000000e+00
   endloop
 endfacet
 facet normal -0.000000e+00 -1.000000e+00  0.000000e+00
   outer loop
     vertex  9.000000e+00  5.000000e+00  4.080000e+00
     vertex  6.000000e+00  5.000000e+00  4.080000e+00
     vertex  6.000000e+00  5.000000e+00  0.000000e+00
   endloop
 endfacet
 facet normal  3.996813e-02 -9.992010e-01  0.000000e+00
   outer loop
     vertex  4.000000e-01  5.000000e+00  0.000000e+00
     vertex  4.000031e-01  5.000000e+00  0.000000e+00
     vertex  4.000031e-01  5.000000e+00  9.000000e+00
   endloop
 endfacet
 facet normal  3.996813e-02 -9.992010e-01  0.000000e+00
   outer loop
     vertex  4.000000e-01  5.000000e+00  0.000000e+00
     vertex  4.000031e-01  5.000000e+00  9.000000e+00
     vertex  4.000000e-01  5.000000e+00  9.000000e+00
   endloop
 endfacet
 facet normal  9.251860e-17  0.000000e+00  1.000000e+00
   outer loop
     vertex  4.000031e-01  5.000000e+00  9.000000e+00
     vertex  1.960000e+01  5.000000e+00  9.000000e+00
     vertex  1.960000e+01  5.400000e+00  9.000000e+00
   endloop
 endfacet
 facet normal -2.054326e-31  4.440893e-15  1.000000e+00
   outer loop
     vertex  4.000031e-01  5.000000e+00  9.000000e+00
     vertex  1.960000e+01  5.400000e+00  9.000000e+00
     vertex  4.000030e-01  5.400000e+00  9.000000e+00
   endloop
 endfacet
 facet normal  1.000000e+00  0.000000e+00  0.000000e+00
   outer loop
     vertex  1.960000e+01  5.000000e+00  9.000000e+00
     vertex  1.960000e+01  5.000000e+00  0.000000e+00
     vertex  1.960000e+01  5.400000e+00  0.000000e+00
   endloop
 endfacet
 facet normal  1.000000e+00 -0.000000e+00  0.000000e+00
   outer loop
     vertex  1.960000e+01  5.000000e+00  9.000000e+00
     vertex  1.960000e+01  5.400000e+00  0.000000e+00
     vertex  1.960000e+01  5.400000e+00  9.000000e+00
   endloop
 endfacet
 facet normal  0.000000e+00  0.000000e+00 -1.000000e+00
   outer loop
     vertex  4.000000e-01  5.000000e+00  0.000000e+00
     vertex  4.000030e-01  5.400000e+00  0.000000e+00
     vertex  4.000031e-01  5.000000e+00  0.000000e+00
   endloop
 endfacet
 facet normal  0.000000e+00  0.000000e+00 -1.000000e+00
   outer loop
     vertex  4.000000e-01  5.000000e+00  0.000000e+00
     vertex  4.000000e-01  5.400000e+00  0.000000e+00
     vertex  4.000030e-01  5.400000e+00  0.000000e+00
   endloop
 endfacet
 facet normal -1.862643e-09  1.000000e+00  0.000000e+00
   outer loop
     vertex  1.960000e+01  5.400000e+00  0.000000e+00
     vertex  1.800000e+01  5.400000e+00  4.080000e+00
     vertex  1.960000e+01  5.400000e+00  9.000000e+00
   endloop
 endfacet
 facet normal  0.000000e+00  1.000000e+00 -6.057382e-10
   outer loop
     vertex  1.500000e+01  5.400000e+00  4.080000e+00
     vertex  1.960000e+01  5.400000e+00  9.000000e+00
     vertex  1.800000e+01  5.400000e+00  4.080000e+00
   endloop
 endfacet
 facet normal  8.881802e-16  1.000000e+00 -6.057390e-10
   outer loop
     vertex  1.400000e+01  5.400000e+00  4.080000e+00
     vertex  1.960000e+01  5.400000e+00  9.000000e+00
     vertex  1.500000e+01  5.400000e+00  4.080000e+00
   endloop
 endfacet
 facet normal -1.862643e-09  1.000000e+00  0.000000e+00
   outer loop
     vertex  1.800000e+01  5.400000e+00  0.000000e+00
     vertex  1.800000e+01  5.400000e+00  4.080000e+00
     vertex  1.960000e+01  5.400000e+00  0.000000e+00
   endloop
 endfacet
 facet normal  0.000000e+00  1.000000e+00 -6.057380e-10
   outer loop
     vertex  1.100000e+01  5.400000e+00  4.080000e+00
     vertex  1.960000e+01  5.400000e+00  9.000000e+00
     vertex  1.400000e+01  5.400000e+00  4.080000e+00
   endloop
 endfacet
 facet normal  8.881802e-16  1.000000e+00 -0.000000e+00
   outer loop
     vertex  1.500000e+01  5.400000e+00  0.000000e+00
     vertex  1.400000e+01  5.400000e+00  4.080000e+00
     vertex  1.500000e+01  5.400000e+00  4.080000e+00
   endloop
 endfacet
 facet normal  8.881802e-16  1.000000e+00 -0.000000e+00
   outer loop
     vertex  1.400000e+01  5.400000e+00  0.000000e+00
     vertex  1.400000e+01  5.400000e+00  4.080000e+00
     vertex  1.500000e+01  5.400000e+00  0.000000e+00
   endloop
 endfacet
 facet normal -4.440890e-16  1.000000e+00  0.000000e+00
   outer loop
     vertex  1.100000e+01  5.400000e+00  0.000000e+00
     vertex  9.000000e+00  5.400000e+00  4.080000e+00
     vertex  1.100000e+01  5.400000e+00  4.080000e+00
   endloop
 endfacet
 facet normal  0.000000e+00  1.000000e+00 -6.057380e-10
   outer loop
     vertex  4.000030e-01  5.400000e+00  9.000000e+00
     vertex  9.000000e+00  5.400000e+00  4.080000e+00
     vertex  6.000000e+00  5.400000e+00  4.080000e+00
   endloop
 endfacet
 facet normal -4.625930e-17  1.000000e+00 -6.057380e-10
   outer loop
     vertex  4.000030e-01  5.400000e+00  9.000000e+00
     vertex  1.960000e+01  5.400000e+00  9.000000e+00
     vertex  1.100000e+01  5.400000e+00  4.080000e+00
   endloop
 endfacet
 facet normal -4.440890e-16  1.000000e+00 -6.057388e-10
   outer loop
     vertex  4.000030e-01  5.400000e+00  9.000000e+00
     vertex  1.100000e+01  5.400000e+00  4.080000e+00
     vertex  9.000000e+00  5.400000e+00  4.080000e+00
   endloop
 endfacet
 facet normal  0.000000e+00  1.000000e+00 -6.057380e-10
   outer loop
     vertex  5.000000e+00  5.400000e+00  4.080000e+00
     vertex  4.000030e-01  5.400000e+00  9.000000e+00
     vertex  6.000000e+00  5.400000e+00  4.080000e+00
   endloop
 endfacet
 facet normal -4.440890e-16  1.000000e+00  0.000000e+00
   outer loop
     vertex  9.000000e+00  5.400000e+00  0.000000e+00
     vertex  9.000000e+00  5.400000e+00  4.080000e+00
     vertex  1.100000e+01  5.400000e+00  0.000000e+00
   endloop
 endfacet
 facet normal  0.000000e+00  1.000000e+00 -6.057380e-10
   outer loop
     vertex  2.000000e+00  5.400000e+00  4.080000e+00
     vertex  4.000030e-01  5.400000e+00  9.000000e+00
     vertex  5.000000e+00  5.400000e+00  4.080000e+00
   endloop
 endfacet
 facet normal  0.000000e+00  1.000000e+00 -0.000000e+00
   outer loop
     vertex  6.000000e+00  5.400000e+00  0.000000e+00
     vertex  5.000000e+00  5.400000e+00  4.080000e+00
     vertex  6.000000e+00  5.400000e+00  4.080000e+00
   endloop
 endfacet
 facet normal  0.000000e+00  1.000000e+00  0.000000e+00
   outer loop
     vertex  5.000000e+00  5.400000e+00  0.000000e+00
     vertex  5.000000e+00  5.400000e+00  4.080000e+00
     vertex  6.000000e+00  5.400000e+00  0.000000e+00
   endloop
 endfacet
 facet normal  1.862648e-09  1.000000e+00  2.534259e-25
   outer loop
     vertex  4.000030e-01  5.400000e+00  0.000000e+00
     vertex  2.000000e+00  5.400000e+00  4.080000e+00
     vertex  2.000000e+00  5.400000e+00  0.000000e+00
   endloop
 endfacet
 facet normal  1.862648e-09  1.000000e+00 -0.000000e+00
   outer loop
     vertex  4.000030e-01  5.400000e+00  0.000000e+00
     vertex  4.000030e-01  5.400000e+00  9.000000e+00
     vertex  2.000000e+00  5.400000e+00  4.080000e+00
   endloop
 endfacet
 facet normal -0.000000e+00  0.000000e+00 -1.000000e+00
   outer loop
     vertex  9.000000e+00  5.400000e+00  0.000000e+00
     vertex  6.000000e+00  5.000000e+00  0.000000e+00
     vertex  6.000000e+00  5.400000e+00  0.000000e+00
   endloop
 endfacet
 facet normal  0.000000e+00 -0.000000e+00 -1.000000e+00
   outer loop
     vertex  9.000000e+00  5.400000e+00  0.000000e+00
     vertex  9.000000e+00  5.000000e+00  0.000000e+00
     vertex  6.000000e+00  5.000000e+00  0.000000e+00
   endloop
 endfacet
 facet normal -0.000000e+00  0.000000e+00 -1.000000e+00
   outer loop
     vertex  1.800000e+01  5.400000e+00  0.000000e+00
     vertex  1.500000e+01  5.000000e+00  0.000000e+00
     vertex  1.500000e+01  5.400000e+00  0.000000e+00
   endloop
 endfacet
 facet normal  0.000000e+00 -0.000000e+00 -1.000000e+00
   outer loop
     vertex  1.800000e+01  5.400000e+00  0.000000e+00
     vertex  1.800000e+01  5.000000e+00  0.000000e+00
     vertex  1.500000e+01  5.000000e+00  0.000000e+00
   endloop
 endfacet
 facet normal -0.000000e+00  0.000000e+00 -1.000000e+00
   outer loop
     vertex  1.400000e+01  5.400000e+00  0.000000e+00
     vertex  1.100000e+01  5.000000e+00  0.000000e+00
     vertex  1.100000e+01  5.400000e+00  0.000000e+00
   endloop
 endfacet
 facet normal  0.000000e+00 -0.000000e+00 -1.000000e+00
   outer loop
     vertex  1.400000e+01  5.400000e+00  0.000000e+00
     vertex  1.400000e+01  5.000000e+00  0.000000e+00
     vertex  1.100000e+01  5.000000e+00  0.000000e+00
   endloop
 endfacet
 facet normal -7.238711e-13 -1.000000e+00 -0.000000e+00
   outer loop
     vertex  3.139165e-06  5.000000e+00  9.000000e+00
     vertex  3.139165e-06  5.000000e+00  0.000000e+00
     vertex  4.000000e-01  5.000000e+00  0.000000e+00
   endloop
 endfacet
 facet normal -7.238711e-13 -1.000000e+00  0.000000e+00
   outer loop
     vertex  3.139165e-06  5.000000e+00  9.000000e+00
     vertex  4.000000e-01  5.000000e+00  0.000000e+00
     vertex  4.000000e-01  5.000000e+00  9.000000e+00
   endloop
 endfacet
 facet normal -5.658694e-10  4.263258e-15  1.000000e+00
   outer loop
     vertex  4.000000e-01  5.000000e+00  9.000000e+00
     vertex  4.000031e-01  5.000000e+00  9.000000e+00
     vertex  4.000030e-01  5.400000e+00  9.000000e+00
   endloop
 endfacet
 facet normal  0.000000e+00  0.000000e+00  1.000000e+00
   outer loop
     vertex  4.000000e-01  5.000000e+00  9.000000e+00
     vertex  4.000030e-01  5.400000e+00  9.000000e+00
     vertex  4.000000e-01  5.400000e+00  9.000000e+00
   endloop
 endfacet
 facet normal  0.000000e+00 -0.000000e+00 -1.000000e+00
   outer loop
     vertex  4.000000e-01  5.400000e+00  0.000000e+00
     vertex  4.000000e-01  5.000000e+00  0.000000e+00
     vertex  3.139165e-06  5.000000e+00  0.000000e+00
   endloop
 endfacet
 facet normal  0.000000e+00 -0.000000e+00 -1.000000e+00
   outer loop
     vertex  4.000025e-01  7.000000e+00  0.000000e+00
     vertex  4.000030e-01  5.400000e+00  0.000000e+00
     vertex  4.000000e-01  5.400000e+00  0.000000e+00
   endloop
 endfacet
 facet normal  0.000000e+00  0.000000e+00 -1.000000e+00
   outer loop
     vertex  4.000000e-01  7.000000e+00  0.000000e+00
     vertex  4.000025e-01  7.000000e+00  0.000000e+00
     vertex  4.000000e-01  5.400000e+00  0.000000e+00
   endloop
 endfacet
 facet normal  0.000000e+00  0.000000e+00 -1.000000e+00
   outer loop
     vertex  2.511332e-06  7.000000e+00  0.000000e+00
     vertex  4.000000e-01  5.400000e+00  0.000000e+00
     vertex  3.139165e-06  5.000000e+00  0.000000e+00
   endloop
 endfacet
 facet normal  0.000000e+00  0.000000e+00 -1.000000e+00
   outer loop
     vertex  2.511332e-06  7.000000e+00  0.000000e+00
     vertex  4.000000e-01  7.000000e+00  0.000000e+00
     vertex  4.000000e-01  5.400000e+00  0.000000e+00
   endloop
 endfacet
 facet normal  0.000000e+00  1.000000e+00  0.000000e+00
   outer loop
     vertex  1.800000e+01  5.400000e+00  4.080000e+00
     vertex  1.800000e+01  5.400000e+00  0.000000e+00
     vertex  1.500000e+01  5.400000e+00  0.000000e+00
   endloop
 endfacet
 facet normal  0.000000e+00  1.000000e+00  0.000000e+00
   outer loop
     vertex  1.800000e+01  5.400000e+00  4.080000e+00
     vertex  1.500000e+01  5.400000e+00  0.000000e+00
     vertex  1.500000e+01  5.400000e+00  4.080000e+00
   endloop
 endfacet
 facet normal  0.000000e+00  1.000000e+00  0.000000e+00
   outer loop
     vertex  1.400000e+01  5.400000e+00  4.080000e+00
     vertex  1.400000e+01  5.400000e+00  0.000000e+00
     vertex  1.100000e+01  5.400000e+00  0.000000e+00
   endloop
 endfacet
 facet normal  0.000000e+00  1.000000e+00  0.000000e+00
   outer loop
     vertex  1.400000e+01  5.400000e+00  4.080000e+00
     vertex  1.100000e+01  5.400000e+00  0.000000e+00
     vertex  1.100000e+01  5.400000e+00  4.080000e+00
   endloop
 endfacet
 facet normal  0.000000e+00  1.000000e+00  0.000000e+00
   outer loop
     vertex  9.000000e+00  5.400000e+00  4.080000e+00
     vertex  9.000000e+00  5.400000e+00  0.000000e+00
     vertex  6.000000e+00  5.400000e+00  0.000000e+00
   endloop
 endfacet
 facet normal  0.000000e+00  1.000000e+00  0.000000e+00
   outer loop
     vertex  9.000000e+00  5.400000e+00  4.080000e+00
     vertex  6.000000e+00  5.400000e+00  0.000000e+00
     vertex  6.000000e+00  5.400000e+00  4.080000e+00
   endloop
 endfacet
 facet normal  1.000000e+00  3.139165e-07 -0.000000e+00
   outer loop
     vertex  4.000030e-01  5.400000e+00  0.000000e+00
     vertex  4.000025e-01  7.000000e+00  5.040000e+00
     vertex  4.000030e-01  5.400000e+00  9.000000e+00
   endloop
 endfacet
 facet normal  1.000000e+00  3.139165e-07 -0.000000e+00
   outer loop
     vertex  4.000025e-01  7.000000e+00  0.000000e+00
     vertex  4.000025e-01  7.000000e+00  5.040000e+00
     vertex  4.000030e-01  5.400000e+00  0.000000e+00
   endloop
 endfacet
 facet normal  1.000000e+00  3.275650e-07  2.619415e-08
   outer loop
     vertex  4.000006e-01  1.300000e+01  5.040000e+00
     vertex  4.000000e-01  1.460000e+01  9.000000e+00
     vertex  4.000030e-01  5.400000e+00  9.000000e+00
   endloop
 endfacet
 facet normal  1.000000e+00  3.139165e-07  1.796777e-15
   outer loop
     vertex  4.000006e-01  1.300000e+01  5.040000e+00
     vertex  4.000030e-01  5.400000e+00  9.000000e+00
     vertex  4.000025e-01  7.000000e+00  5.040000e+00
   endloop
 endfacet
 facet normal  1.000000e+00  3.923955e-07  0.000000e+00
   outer loop
     vertex  4.000000e-01  1.460000e+01  0.000000e+00
     vertex  4.000006e-01  1.300000e+01  5.040000e+00
     vertex  4.000006e-01  1.300000e+01  0.000000e+00
   endloop
 endfacet
 facet normal  1.000000e+00  3.923955e-07 -0.000000e+00
   outer loop
     vertex  4.000000e-01  1.460000e+01  0.000000e+00
     vertex  4.000000e-01  1.460000e+01  9.000000e+00
     vertex  4.000006e-01  1.300000e+01  5.040000e+00
   endloop
 endfacet
 facet normal -1.000000e+00 -3.139165e-07 -3.572850e-15
   outer loop
     vertex  2.511332e-06  7.000000e+00  5.040000e+00
     vertex  3.139165e-06  5.000000e+00  9.000000e+00
     vertex  2.825248e-06  6.000000e+00  9.000000e+00
   endloop
 endfacet
 facet normal -1.000000e+00 -3.139165e-07 -1.787410e-15
   outer loop
     vertex  3.139165e-07  1.400000e+01  9.000000e+00
     vertex  2.511332e-06  7.000000e+00  5.040000e+00
     vertex  2.825248e-06  6.000000e+00  9.000000e+00
   endloop
 endfacet
 facet normal -1.000000e+00 -3.139165e-07  0.000000e+00
   outer loop
     vertex  3.139165e-06  5.000000e+00  0.000000e+00
     vertex  3.139165e-06  5.000000e+00  9.000000e+00
     vertex  2.511332e-06  7.000000e+00  5.040000e+00
   endloop
 endfacet
 facet normal -1.000000e+00 -3.139165e-07  0.000000e+00
   outer loop
     vertex  2.511332e-06  7.000000e+00  0.000000e+00
     vertex  3.139165e-06  5.000000e+00  0.000000e+00
     vertex  2.511332e-06  7.000000e+00  5.040000e+00
   endloop
 endfacet
 facet normal -1.000000e+00 -3.139165e-07 -3.588555e-15
   outer loop
     vertex  6.278329e-07  1.300000e+01  5.040000e+00
     vertex  3.139165e-07  1.400000e+01  9.000000e+00
     vertex  0.000000e+00  1.500000e+01  9.000000e+00
   endloop
 endfacet
 facet normal -1.000000e+00 -3.139165e-07 -1.794273e-15
   outer loop
     vertex  6.278329e-07  1.300000e+01  5.040000e+00
     vertex  2.511332e-06  7.000000e+00  5.040000e+00
     vertex  3.139165e-07  1.400000e+01  9.000000e+00
   endloop
 endfacet
 facet normal -1.000000e+00 -3.139165e-07  0.000000e+00
   outer loop
     vertex  0.000000e+00  1.500000e+01  0.000000e+00
     vertex  6.278329e-07  1.300000e+01  0.000000e+00
     vertex  6.278329e-07  1.300000e+01  5.040000e+00
   endloop
 endfacet
 facet normal -1.000000e+00 -3.139165e-07  0.000000e+00
   outer loop
     vertex  0.000000e+00  1.500000e+01  0.000000e+00
     vertex  6.278329e-07  1.300000e+01  5.040000e+00
     vertex  0.000000e+00  1.500000e+01  9.000000e+00
   endloop
 endfacet
 facet normal  4.440927e-15  0.000000e+00  1.000000e+00
   outer loop
     vertex  4.000000e-01  5.400000e+00  9.000000e+00
     vertex  3.139165e-06  5.000000e+00  9.000000e+00
     vertex  4.000000e-01  5.000000e+00  9.000000e+00
   endloop
 endfacet
 facet normal  0.000000e+00  0.000000e+00  1.000000e+00
   outer loop
     vertex  4.000000e-01  6.000000e+00  9.000000e+00
     vertex  4.000000e-01  5.400000e+00  9.000000e+00
     vertex  4.000030e-01  5.400000e+00  9.000000e+00
   endloop
 endfacet
 facet normal -0.000000e+00  0.000000e+00  1.000000e+00
   outer loop
     vertex  2.825248e-06  6.000000e+00  9.000000e+00
     vertex  4.000000e-01  5.400000e+00  9.000000e+00
     vertex  4.000000e-01  6.000000e+00  9.000000e+00
   endloop
 endfacet
 facet normal  2.664555e-15  1.776358e-15  1.000000e+00
   outer loop
     vertex  2.825248e-06  6.000000e+00  9.000000e+00
     vertex  3.139165e-06  5.000000e+00  9.000000e+00
     vertex  4.000000e-01  5.400000e+00  9.000000e+00
   endloop
 endfacet
 facet normal  0.000000e+00  0.000000e+00  1.000000e+00
   outer loop
     vertex  4.000000e-01  1.460000e+01  9.000000e+00
     vertex  3.139165e-07  1.400000e+01  9.000000e+00
     vertex  3.999997e-01  1.400000e+01  9.000000e+00
   endloop
 endfacet
 facet normal  4.440892e-15  1.109336e-28  1.000000e+00
   outer loop
     vertex  0.000000e+00  1.500000e+01  9.000000e+00
     vertex  4.000000e-01  1.460000e+01  9.000000e+00
     vertex  4.000000e-01  1.500000e+01  9.000000e+00
   endloop
 endfacet
 facet normal  2.664538e-15 -1.776356e-15  1.000000e+00
   outer loop
     vertex  0.000000e+00  1.500000e+01  9.000000e+00
     vertex  3.139165e-07  1.400000e+01  9.000000e+00
     vertex  4.000000e-01  1.460000e+01  9.000000e+00
   endloop
 endfacet
 facet normal  0.000000e+00  0.000000e+00  1.000000e+00
   outer loop
     vertex  4.000030e-01  5.400000e+00  9.000000e+00
     vertex  4.000000e-01  1.460000e+01  9.000000e+00
     vertex  3.999997e-01  1.400000e+01  9.000000e+00
   endloop
 endfacet
 facet normal  0.000000e+00  0.000000e+00  1.000000e+00
   outer loop
     vertex  4.000030e-01  5.400000e+00  9.000000e+00
     vertex  3.999997e-01  1.400000e+01  9.000000e+00
     vertex  4.000000e-01  6.000000e+00  9.000000e+00
   endloop
 endfacet
 facet normal  0.000000e+00  0.000000e+00 -1.000000e+00
   outer loop
     vertex  0.000000e+00  7.000000e+00  0.000000e+00
     vertex  0.000000e+00  1.300000e+01  0.000000e+00
     vertex  6.278329e-07  1.300000e+01  0.000000e+00
   endloop
 endfacet
 facet normal  0.000000e+00  0.000000e+00 -1.000000e+00
   outer loop
     vertex  2.511332e-06  7.000000e+00  0.000000e+00
     vertex  6.278329e-07  1.300000e+01  0.000000e+00
     vertex  4.000000e-01  1.300000e+01  0.000000e+00
   endloop
 endfacet
 facet normal -0.000000e+00  0.000000e+00 -1.000000e+00
   outer loop
     vertex  2.511332e-06  7.000000e+00  0.000000e+00
     vertex  0.000000e+00  7.000000e+00  0.000000e+00
     vertex  6.278329e-07  1.300000e+01  0.000000e+00
   endloop
 endfacet
 facet normal  0.000000e+00  0.000000e+00 -1.000000e+00
   outer loop
     vertex  4.000000e-01  7.000000e+00  0.000000e+00
     vertex  2.511332e-06  7.000000e+00  0.000000e+00
     vertex  4.000000e-01  1.300000e+01  0.000000e+00
   endloop
 endfacet
 facet normal -4.981979e-02  9.987582e-01  0.000000e+00
   outer loop
     vertex  4.000000e-01  7.000000e+00  5.040000e+00
     vertex  4.000025e-01  7.000000e+00  0.000000e+00
     vertex  4.000000e-01  7.000000e+00  0.000000e+00
   endloop
 endfacet
 facet normal -4.981979e-02  9.987582e-01  0.000000e+00
   outer loop
     vertex  4.000000e-01  7.000000e+00  5.040000e+00
     vertex  4.000025e-01  7.000000e+00  5.040000e+00
     vertex  4.000025e-01  7.000000e+00  0.000000e+00
   endloop
 endfacet
 facet normal -1.515223e-02 -0.000000e+00 -9.998852e-01
   outer loop
     vertex  4.000000e-01  1.300000e+01  5.040000e+00
     vertex  4.000025e-01  7.000000e+00  5.040000e+00
     vertex  4.000000e-01  7.000000e+00  5.040000e+00
   endloop
 endfacet
 facet normal -6.007961e-02 -1.885998e-08 -9.981936e-01
   outer loop
     vertex  4.000000e-01  1.300000e+01  5.040000e+00
     vertex  4.000006e-01  1.300000e+01  5.040000e+00
     vertex  4.000025e-01  7.000000e+00  5.040000e+00
   endloop
 endfacet
 facet normal  1.943418e-01 -9.809339e-01  0.000000e+00
   outer loop
     vertex  4.000000e-01  1.300000e+01  0.000000e+00
     vertex  4.000006e-01  1.300000e+01  5.040000e+00
     vertex  4.000000e-01  1.300000e+01  5.040000e+00
   endloop
 endfacet
 facet normal  1.943418e-01 -9.809339e-01  0.000000e+00
   outer loop
     vertex  4.000000e-01  1.300000e+01  0.000000e+00
     vertex  4.000006e-01  1.300000e+01  0.000000e+00
     vertex  4.000006e-01  1.300000e+01  5.040000e+00
   endloop
 endfacet
 facet normal  0.000000e+00  0.000000e+00 -1.000000e+00
   outer loop
     vertex  4.000000e-01  1.460000e+01  0.000000e+00
     vertex  4.000000e-01  1.300000e+01  0.000000e+00
     vertex  6.278329e-07  1.300000e+01  0.000000e+00
   endloop
 endfacet
 facet normal  0.000000e+00 -0.000000e+00 -1.000000e+00
   outer loop
     vertex  4.000000e-01  1.460000e+01  0.000000e+00
     vertex  4.000006e-01  1.300000e+01  0.000000e+00
     vertex  4.000000e-01  1.300000e+01  0.000000e+00
   endloop
 endfacet
 facet normal  0.000000e+00  0.000000e+00 -1.000000e+00
   outer loop
     vertex  0.000000e+00  1.500000e+01  0.000000e+00
     vertex  4.000000e-01  1.500000e+01  0.000000e+00
     vertex  4.000000e-01  1.460000e+01  0.000000e+00
   endloop
 endfacet
 facet normal  0.000000e+00  0.000000e+00 -1.000000e+00
   outer loop
     vertex  0.000000e+00  1.500000e+01  0.000000e+00
     vertex  4.000000e-01  1.460000e+01  0.000000e+00
     vertex  6.278329e-07  1.300000e+01  0.000000e+00
   endloop
 endfacet
 facet normal  1.101561e-07 -1.000000e+00  0.000000e+00
   outer loop
     vertex  1.960000e+01  1.460000e+01  0.000000e+00
     vertex  1.960000e+01  1.460000e+01  9.000000e+00
     vertex  1.800000e+01  1.460000e+01  4.080000e+00
   endloop
 endfacet
 facet normal  0.000000e+00 -1.000000e+00  3.582315e-08
   outer loop
     vertex  1.500000e+01  1.460000e+01  4.080000e+00
     vertex  1.800000e+01  1.460000e+01  4.080000e+00
     vertex  1.960000e+01  1.460000e+01  9.000000e+00
   endloop
 endfacet
 facet normal  3.552721e-15 -1.000000e+00  3.582314e-08
   outer loop
     vertex  1.400000e+01  1.460000e+01  4.080000e+00
     vertex  1.500000e+01  1.460000e+01  4.080000e+00
     vertex  1.960000e+01  1.460000e+01  9.000000e+00
   endloop
 endfacet
 facet normal  1.144188e-07 -1.000000e+00  1.671649e-09
   outer loop
     vertex  1.800000e+01  1.460000e+01  0.000000e+00
     vertex  1.960000e+01  1.460000e+01  0.000000e+00
     vertex  1.800000e+01  1.460000e+01  4.080000e+00
   endloop
 endfacet
 facet normal  0.000000e+00 -1.000000e+00  3.582315e-08
   outer loop
     vertex  1.100000e+01  1.460000e+01  4.080000e+00
     vertex  1.400000e+01  1.460000e+01  4.080000e+00
     vertex  1.960000e+01  1.460000e+01  9.000000e+00
   endloop
 endfacet
 facet normal  3.552721e-15 -1.000000e+00  1.671649e-09
   outer loop
     vertex  1.500000e+01  1.460000e+01  0.000000e+00
     vertex  1.500000e+01  1.460000e+01  4.080000e+00
     vertex  1.400000e+01  1.460000e+01  4.080000e+00
   endloop
 endfacet
 facet normal  5.329081e-15 -1.000000e+00  1.671650e-09
   outer loop
     vertex  1.400000e+01  1.460000e+01  0.000000e+00
     vertex  1.500000e+01  1.460000e+01  0.000000e+00
     vertex  1.400000e+01  1.460000e+01  4.080000e+00
   endloop
 endfacet
 facet normal  1.008115e-09 -1.000000e+00  3.406100e-08
   outer loop
     vertex  9.000000e+00  1.460000e+01  4.080000e+00
     vertex  1.100000e+01  1.460000e+01  4.080000e+00
     vertex  1.960000e+01  1.460000e+01  9.000000e+00
   endloop
 endfacet
 facet normal  1.008115e-09 -1.000000e+00  1.671650e-09
   outer loop
     vertex  1.100000e+01  1.460000e+01  0.000000e+00
     vertex  1.100000e+01  1.460000e+01  4.080000e+00
     vertex  9.000000e+00  1.460000e+01  4.080000e+00
   endloop
 endfacet
 facet normal  0.000000e+00 -1.000000e+00  3.623295e-08
   outer loop
     vertex  4.000000e-01  1.460000e+01  9.000000e+00
     vertex  6.000000e+00  1.460000e+01  4.080000e+00
     vertex  9.000000e+00  1.460000e+01  4.080000e+00
   endloop
 endfacet
 facet normal  0.000000e+00 -1.000000e+00  3.623295e-08
   outer loop
     vertex  4.000000e-01  1.460000e+01  9.000000e+00
     vertex  9.000000e+00  1.460000e+01  4.080000e+00
     vertex  1.960000e+01  1.460000e+01  9.000000e+00
   endloop
 endfacet
 facet normal -2.241281e-08 -1.000000e+00  1.072244e-08
   outer loop
     vertex  5.000000e+00  1.460000e+01  4.080000e+00
     vertex  6.000000e+00  1.460000e+01  4.080000e+00
     vertex  4.000000e-01  1.460000e+01  9.000000e+00
   endloop
 endfacet
 facet normal  3.832311e-09 -1.000000e+00  3.056060e-09
   outer loop
     vertex  9.000000e+00  1.460000e+01  0.000000e+00
     vertex  1.100000e+01  1.460000e+01  0.000000e+00
     vertex  9.000000e+00  1.460000e+01  4.080000e+00
   endloop
 endfacet
 facet normal  0.000000e+00 -1.000000e+00  3.167750e-08
   outer loop
     vertex  2.000000e+00  1.460000e+01  4.080000e+00
     vertex  5.000000e+00  1.460000e+01  4.080000e+00
     vertex  4.000000e-01  1.460000e+01  9.000000e+00
   endloop
 endfacet
 facet normal -2.241281e-08 -1.000000e+00  3.056060e-09
   outer loop
     vertex  6.000000e+00  1.460000e+01  0.000000e+00
     vertex  6.000000e+00  1.460000e+01  4.080000e+00
     vertex  5.000000e+00  1.460000e+01  4.080000e+00
   endloop
 endfacet
 facet normal -3.369643e-08 -1.000000e+00  2.904674e-10
   outer loop
     vertex  5.000000e+00  1.460000e+01  0.000000e+00
     vertex  6.000000e+00  1.460000e+01  0.000000e+00
     vertex  5.000000e+00  1.460000e+01  4.080000e+00
   endloop
 endfacet
 facet normal -9.814901e-08 -1.000000e+00  2.904675e-10
   outer loop
     vertex  4.000000e-01  1.460000e+01  0.000000e+00
     vertex  2.000000e+00  1.460000e+01  0.000000e+00
     vertex  2.000000e+00  1.460000e+01  4.080000e+00
   endloop
 endfacet
 facet normal -9.740832e-08 -1.000000e+00  0.000000e+00
   outer loop
     vertex  4.000000e-01  1.460000e+01  0.000000e+00
     vertex  2.000000e+00  1.460000e+01  4.080000e+00
     vertex  4.000000e-01  1.460000e+01  9.000000e+00
   endloop
 endfacet
 facet normal  1.163569e-07 -1.000000e+00  0.000000e+00
   outer loop
     vertex  2.511332e-06  7.000000e+00  5.040000e+00
     vertex  0.000000e+00  7.000000e+00  0.000000e+00
     vertex  2.511332e-06  7.000000e+00  0.000000e+00
   endloop
 endfacet
 facet normal  1.163569e-07 -1.000000e+00  0.000000e+00
   outer loop
     vertex  0.000000e+00  7.000000e+00  5.040000e+00
     vertex  0.000000e+00  7.000000e+00  0.000000e+00
     vertex  2.511332e-06  7.000000e+00  5.040000e+00
   endloop
 endfacet
 facet normal  6.064790e-02 -0.000000e+00  9.981592e-01
   outer loop
     vertex  0.000000e+00  7.000000e+00  5.040000e+00
     vertex  6.278329e-07  1.300000e+01  5.040000e+00
     vertex  0.000000e+00  1.300000e+01  5.040000e+00
   endloop
 endfacet
 facet normal  1.518818e-02  4.767821e-09  9.998847e-01
   outer loop
     vertex  2.511332e-06  7.000000e+00  5.040000e+00
     vertex  6.278329e-07  1.300000e+01  5.040000e+00
     vertex  0.000000e+00  7.000000e+00  5.040000e+00
   endloop
 endfacet
 facet normal  2.829346e-09  1.000000e+00  0.000000e+00
   outer loop
     vertex  6.278329e-07  1.300000e+01  5.040000e+00
     vertex  6.278329e-07  1.300000e+01  0.000000e+00
     vertex  0.000000e+00  1.300000e+01  0.000000e+00
   endloop
 endfacet
 facet normal  2.829346e-09  1.000000e+00  0.000000e+00
   outer loop
     vertex  0.000000e+00  1.300000e+01  5.040000e+00
     vertex  6.278329e-07  1.300000e+01  5.040000e+00
     vertex  0.000000e+00  1.300000e+01  0.000000e+00
   endloop
 endfacet
 facet normal -6.412459e-07  1.000000e+00  0.000000e+00
   outer loop
     vertex  4.000000e-01  1.500000e+01  9.000000e+00
     vertex  4.000000e-01  1.500000e+01  0.000000e+00
     vertex  0.000000e+00  1.500000e+01  0.000000e+00
   endloop
 endfacet
 facet normal -6.412459e-07  1.000000e+00  0.000000e+00
   outer loop
     vertex  0.000000e+00  1.500000e+01  9.000000e+00
     vertex  4.000000e-01  1.500000e+01  9.000000e+00
     vertex  0.000000e+00  1.500000e+01  0.000000e+00
   endloop
 endfacet
 facet normal  0.000000e+00  0.000000e+00 -1.000000e+00
   outer loop
     vertex  3.330669e-16  6.000000e+00  9.000000e+00
     vertex  3.139165e-07  1.400000e+01  9.000000e+00
     vertex  2.825248e-06  6.000000e+00  9.000000e+00
   endloop
 endfacet
 facet normal  4.371139e-08 -1.000000e+00  0.000000e+00
   outer loop
     vertex  2.825248e-06  6.000000e+00  9.000000e+00
     vertex  4.000000e-01  6.000000e+00  9.000000e+00
     vertex  4.000000e-01  6.000000e+00  9.480000e+00
   endloop
 endfacet
 facet normal  4.371139e-08 -1.000000e+00  3.781410e-15
   outer loop
     vertex  2.825248e-06  6.000000e+00  9.000000e+00
     vertex  4.000000e-01  6.000000e+00  9.480000e+00
     vertex  3.330669e-16  6.000000e+00  9.480000e+00
   endloop
 endfacet
 facet normal  4.306894e-08 -1.000000e+00  0.000000e+00
   outer loop
     vertex  3.330669e-16  6.000000e+00  9.000000e+00
     vertex  2.825248e-06  6.000000e+00  9.000000e+00
     vertex  3.330669e-16  6.000000e+00  9.480000e+00
   endloop
 endfacet
 facet normal  1.000000e+00  2.680249e-07  0.000000e+00
   outer loop
     vertex  3.999999e-01  1.300000e+01  9.480000e+00
     vertex  3.999997e-01  1.400000e+01  9.000000e+00
     vertex  3.999997e-01  1.400000e+01  9.480000e+00
   endloop
 endfacet
 facet normal  1.000000e+00  1.146147e-08 -0.000000e+00
   outer loop
     vertex  4.000000e-01  6.000000e+00  9.000000e+00
     vertex  4.000000e-01  7.000000e+00  9.480000e+00
     vertex  4.000000e-01  6.000000e+00  9.480000e+00
   endloop
 endfacet
 facet normal  1.000000e+00  4.371139e-08 -4.673201e-07
   outer loop
     vertex  4.000000e-01  6.000000e+00  9.000000e+00
     vertex  3.999997e-01  1.400000e+01  9.000000e+00
     vertex  3.999999e-01  1.300000e+01  9.480000e+00
   endloop
 endfacet
 facet normal  1.000000e+00  1.170079e-08 -4.985690e-10
   outer loop
     vertex  4.000000e-01  6.000000e+00  9.000000e+00
     vertex  3.999999e-01  1.300000e+01  9.480000e+00
     vertex  4.000000e-01  7.000000e+00  9.480000e+00
   endloop
 endfacet
 facet normal -5.353636e-08  1.000000e+00  0.000000e+00
   outer loop
     vertex  3.139165e-07  1.400000e+01  9.000000e+00
     vertex -3.496911e-07  1.400000e+01  9.000000e+00
     vertex -3.496911e-07  1.400000e+01  9.480000e+00
   endloop
 endfacet
 facet normal -4.371139e-08  1.000000e+00  1.358318e-14
   outer loop
     vertex  3.139165e-07  1.400000e+01  9.000000e+00
     vertex -3.496911e-07  1.400000e+01  9.480000e+00
     vertex  3.999997e-01  1.400000e+01  9.480000e+00
   endloop
 endfacet
 facet normal -4.371137e-08  1.000000e+00  0.000000e+00
   outer loop
     vertex  3.999997e-01  1.400000e+01  9.000000e+00
     vertex  3.139165e-07  1.400000e+01  9.000000e+00
     vertex  3.999997e-01  1.400000e+01  9.480000e+00
   endloop
 endfacet
 facet normal  0.000000e+00 -0.000000e+00  1.000000e+00
   outer loop
     vertex  4.000000e-01  1.460000e+01  9.000000e+00
     vertex  1.960000e+01  1.500000e+01  9.000000e+00
     vertex  4.000000e-01  1.500000e+01  9.000000e+00
   endloop
 endfacet
 facet normal  0.000000e+00  0.000000e+00  1.000000e+00
   outer loop
     vertex  4.000000e-01  1.460000e+01  9.000000e+00
     vertex  1.960000e+01  1.460000e+01  9.000000e+00
     vertex  1.960000e+01  1.500000e+01  9.000000e+00
   endloop
 endfacet
 facet normal  1.000000e+00  0.000000e+00  0.000000e+00
   outer loop
     vertex  4.000000e-01  7.000000e+00  5.040000e+00
     vertex  4.000000e-01  7.000000e+00  0.000000e+00
     vertex  4.000000e-01  1.300000e+01  0.000000e+00
   endloop
 endfacet
 facet normal  1.000000e+00 -0.000000e+00  0.000000e+00
   outer loop
     vertex  4.000000e-01  7.000000e+00  5.040000e+00
     vertex  4.000000e-01  1.300000e+01  0.000000e+00
     vertex  4.000000e-01  1.300000e+01  5.040000e+00
   endloop
 endfacet
 facet normal -1.000000e+00  0.000000e+00  0.000000e+00
   outer loop
     vertex  0.000000e+00  7.000000e+00  5.040000e+00
     vertex  0.000000e+00  1.300000e+01  0.000000e+00
     vertex  0.000000e+00  7.000000e+00  0.000000e+00
   endloop
 endfacet
 facet normal -1.000000e+00  0.000000e+00  0.000000e+00
   outer loop
     vertex  0.000000e+00  7.000000e+00  5.040000e+00
     vertex  0.000000e+00  1.300000e+01  5.040000e+00
     vertex  0.000000e+00  1.300000e+01  0.000000e+00
   endloop
 endfacet
 facet normal  0.000000e+00  0.000000e+00 -1.000000e+00
   outer loop
     vertex  4.000000e-01  1.460000e+01  0.000000e+00
     vertex  4.000000e-01  1.500000e+01  0.000000e+00
     vertex  2.000000e+00  1.500000e+01  0.000000e+00
   endloop
 endfacet
 facet normal  0.000000e+00  0.000000e+00 -1.000000e+00
   outer loop
     vertex  4.000000e-01  1.460000e+01  0.000000e+00
     vertex  2.000000e+00  1.500000e+01  0.000000e+00
     vertex  2.000000e+00  1.460000e+01  0.000000e+00
   endloop
 endfacet
 facet normal  0.000000e+00  0.000000e+00 -1.000000e+00
   outer loop
     vertex  1.800000e+01  1.460000e+01  0.000000e+00
     vertex  1.960000e+01  1.500000e+01  0.000000e+00
     vertex  1.960000e+01  1.460000e+01  0.000000e+00
   endloop
 endfacet
 facet normal  0.000000e+00  0.000000e+00 -1.000000e+00
   outer loop
     vertex  1.800000e+01  1.460000e+01  0.000000e+00
     vertex  1.800000e+01  1.500000e+01  0.000000e+00
     vertex  1.960000e+01  1.500000e+01  0.000000e+00
   endloop
 endfacet
 facet normal  0.000000e+00 -1.000000e+00  1.671649e-09
   outer loop
     vertex  1.800000e+01  1.460000e+01  4.080000e+00
     vertex  1.500000e+01  1.460000e+01  0.000000e+00
     vertex  1.800000e+01  1.460000e+01  0.000000e+00
   endloop
 endfacet
 facet normal  0.000000e+00 -1.000000e+00  1.671649e-09
   outer loop
     vertex  1.800000e+01  1.460000e+01  4.080000e+00
     vertex  1.500000e+01  1.460000e+01  4.080000e+00
     vertex  1.500000e+01  1.460000e+01  0.000000e+00
   endloop
 endfacet
 facet normal  0.000000e+00  0.000000e+00 -1.000000e+00
   outer loop
     vertex  1.400000e+01  1.500000e+01  0.000000e+00
     vertex  1.500000e+01  1.500000e+01  0.000000e+00
     vertex  1.500000e+01  1.460000e+01  0.000000e+00
   endloop
 endfacet
 facet normal  0.000000e+00  0.000000e+00 -1.000000e+00
   outer loop
     vertex  1.400000e+01  1.460000e+01  0.000000e+00
     vertex  1.400000e+01  1.500000e+01  0.000000e+00
     vertex  1.500000e+01  1.460000e+01  0.000000e+00
   endloop
 endfacet
 facet normal  0.000000e+00 -1.000000e+00  1.671650e-09
   outer loop
     vertex  1.400000e+01  1.460000e+01  4.080000e+00
     vertex  1.100000e+01  1.460000e+01  0.000000e+00
     vertex  1.400000e+01  1.460000e+01  0.000000e+00
   endloop
 endfacet
 facet normal  0.000000e+00 -1.000000e+00  1.671650e-09
   outer loop
     vertex  1.400000e+01  1.460000e+01  4.080000e+00
     vertex  1.100000e+01  1.460000e+01  4.080000e+00
     vertex  1.100000e+01  1.460000e+01  0.000000e+00
   endloop
 endfacet
 facet normal  0.000000e+00  0.000000e+00 -1.000000e+00
   outer loop
     vertex  9.000000e+00  1.460000e+01  0.000000e+00
     vertex  1.100000e+01  1.500000e+01  0.000000e+00
     vertex  1.100000e+01  1.460000e+01  0.000000e+00
   endloop
 endfacet
 facet normal  0.000000e+00  0.000000e+00 -1.000000e+00
   outer loop
     vertex  9.000000e+00  1.460000e+01  0.000000e+00
     vertex  9.000000e+00  1.500000e+01  0.000000e+00
     vertex  1.100000e+01  1.500000e+01  0.000000e+00
   endloop
 endfacet
 facet normal  0.000000e+00 -1.000000e+00  3.056060e-09
   outer loop
     vertex  9.000000e+00  1.460000e+01  4.080000e+00
     vertex  6.000000e+00  1.460000e+01  0.000000e+00
     vertex  9.000000e+00  1.460000e+01  0.000000e+00
   endloop
 endfacet
 facet normal  0.000000e+00 -1.000000e+00  3.056060e-09
   outer loop
     vertex  9.000000e+00  1.460000e+01  4.080000e+00
     vertex  6.000000e+00  1.460000e+01  4.080000e+00
     vertex  6.000000e+00  1.460000e+01  0.000000e+00
   endloop
 endfacet
 facet normal  0.000000e+00  0.000000e+00 -1.000000e+00
   outer loop
     vertex  5.000000e+00  1.460000e+01  0.000000e+00
     vertex  6.000000e+00  1.500000e+01  0.000000e+00
     vertex  6.000000e+00  1.460000e+01  0.000000e+00
   endloop
 endfacet
 facet normal  0.000000e+00  0.000000e+00 -1.000000e+00
   outer loop
     vertex  5.000000e+00  1.460000e+01  0.000000e+00
     vertex  5.000000e+00  1.500000e+01  0.000000e+00
     vertex  6.000000e+00  1.500000e+01  0.000000e+00
   endloop
 endfacet
 facet normal  0.000000e+00 -1.000000e+00  2.904674e-10
   outer loop
     vertex  5.000000e+00  1.460000e+01  4.080000e+00
     vertex  2.000000e+00  1.460000e+01  0.000000e+00
     vertex  5.000000e+00  1.460000e+01  0.000000e+00
   endloop
 endfacet
 facet normal  0.000000e+00 -1.000000e+00  2.904674e-10
   outer loop
     vertex  5.000000e+00  1.460000e+01  4.080000e+00
     vertex  2.000000e+00  1.460000e+01  4.080000e+00
     vertex  2.000000e+00  1.460000e+01  0.000000e+00
   endloop
 endfacet
 facet normal -1.000000e+00 -3.139165e-07 -9.566630e-15
   outer loop
     vertex  1.960000e+01  7.000000e+00  5.040000e+00
     vertex  1.960000e+01  5.000000e+00  9.000000e+00
     vertex  1.960000e+01  6.000000e+00  9.000000e+00
   endloop
 endfacet
 facet normal -1.000000e+00 -3.139165e-07  0.000000e+00
   outer loop
     vertex  1.960000e+01  5.000000e+00  0.000000e+00
     vertex  1.960000e+01  5.000000e+00  9.000000e+00
     vertex  1.960000e+01  7.000000e+00  5.040000e+00
   endloop
 endfacet
 facet normal -1.000000e+00 -3.139165e-07  0.000000e+00
   outer loop
     vertex  1.960000e+01  7.000000e+00  0.000000e+00
     vertex  1.960000e+01  5.000000e+00  0.000000e+00
     vertex  1.960000e+01  7.000000e+00  5.040000e+00
   endloop
 endfacet
 facet normal -1.000000e+00 -3.260869e-07 -2.151338e-08
   outer loop
     vertex  1.960000e+01  1.300000e+01  5.040000e+00
     vertex  1.960000e+01  6.000000e+00  9.000000e+00
     vertex  1.960000e+01  1.400000e+01  9.000000e+00
   endloop
 endfacet
 facet normal -1.000000e+00 -3.509874e-07 -1.522537e-08
   outer loop
     vertex  1.960000e+01  1.300000e+01  5.040000e+00
     vertex  1.960000e+01  1.400000e+01  9.000000e+00
     vertex  1.960000e+01  1.460000e+01  9.000000e+00
   endloop
 endfacet
 facet normal -1.000000e+00 -3.139165e-07 -4.783319e-15
   outer loop
     vertex  1.960000e+01  1.300000e+01  5.040000e+00
     vertex  1.960000e+01  7.000000e+00  5.040000e+00
     vertex  1.960000e+01  6.000000e+00  9.000000e+00
   endloop
 endfacet
 facet normal -1.000000e+00 -3.886702e-07  0.000000e+00
   outer loop
     vertex  1.960000e+01  1.460000e+01  0.000000e+00
     vertex  1.960000e+01  1.300000e+01  0.000000e+00
     vertex  1.960000e+01  1.300000e+01  5.040000e+00
   endloop
 endfacet
 facet normal -1.000000e+00 -3.886702e-07  0.000000e+00
   outer loop
     vertex  1.960000e+01  1.460000e+01  0.000000e+00
     vertex  1.960000e+01  1.300000e+01  5.040000e+00
     vertex  1.960000e+01  1.460000e+01  9.000000e+00
   endloop
 endfacet
 facet normal -8.439469e-09  1.000000e+00  0.000000e+00
   outer loop
     vertex  1.960000e+01  1.500000e+01  0.000000e+00
     vertex  1.800000e+01  1.500000e+01  4.080000e+00
     vertex  1.960000e+01  1.500000e+01  9.000000e+00
   endloop
 endfacet
 facet normal  0.000000e+00  1.000000e+00 -2.744545e-09
   outer loop
     vertex  1.500000e+01  1.500000e+01  4.080000e+00
     vertex  1.960000e+01  1.500000e+01  9.000000e+00
     vertex  1.800000e+01  1.500000e+01  4.080000e+00
   endloop
 endfacet
 facet normal  1.776360e-15  1.000000e+00 -2.744547e-09
   outer loop
     vertex  1.400000e+01  1.500000e+01  4.080000e+00
     vertex  1.960000e+01  1.500000e+01  9.000000e+00
     vertex  1.500000e+01  1.500000e+01  4.080000e+00
   endloop
 endfacet
 facet normal -4.170649e-09  1.000000e+00  1.674048e-09
   outer loop
     vertex  1.800000e+01  1.500000e+01  0.000000e+00
     vertex  1.800000e+01  1.500000e+01  4.080000e+00
     vertex  1.960000e+01  1.500000e+01  0.000000e+00
   endloop
 endfacet
 facet normal  0.000000e+00  1.000000e+00 -2.744545e-09
   outer loop
     vertex  1.100000e+01  1.500000e+01  4.080000e+00
     vertex  1.960000e+01  1.500000e+01  9.000000e+00
     vertex  1.400000e+01  1.500000e+01  4.080000e+00
   endloop
 endfacet
 facet normal  1.776360e-15  1.000000e+00  1.674048e-09
   outer loop
     vertex  1.500000e+01  1.500000e+01  0.000000e+00
     vertex  1.400000e+01  1.500000e+01  4.080000e+00
     vertex  1.500000e+01  1.500000e+01  4.080000e+00
   endloop
 endfacet
 facet normal  5.329081e-15  1.000000e+00  1.674049e-09
   outer loop
     vertex  1.400000e+01  1.500000e+01  0.000000e+00
     vertex  1.400000e+01  1.500000e+01  4.080000e+00
     vertex  1.500000e+01  1.500000e+01  0.000000e+00
   endloop
 endfacet
 facet normal  1.010196e-09  1.000000e+00 -4.510334e-09
   outer loop
     vertex  9.000000e+00  1.500000e+01  4.080000e+00
     vertex  1.960000e+01  1.500000e+01  9.000000e+00
     vertex  1.100000e+01  1.500000e+01  4.080000e+00
   endloop
 endfacet
 facet normal  1.010196e-09  1.000000e+00  1.674049e-09
   outer loop
     vertex  1.100000e+01  1.500000e+01  0.000000e+00
     vertex  9.000000e+00  1.500000e+01  4.080000e+00
     vertex  1.100000e+01  1.500000e+01  4.080000e+00
   endloop
 endfacet
 facet normal  0.000000e+00  1.000000e+00 -1.529662e-08
   outer loop
     vertex  4.000000e-01  1.500000e+01  9.000000e+00
     vertex  9.000000e+00  1.500000e+01  4.080000e+00
     vertex  6.000000e+00  1.500000e+01  4.080000e+00
   endloop
 endfacet
 facet normal  3.321697e-09  1.000000e+00 -9.490398e-09
   outer loop
     vertex  4.000000e-01  1.500000e+01  9.000000e+00
     vertex  1.960000e+01  1.500000e+01  9.000000e+00
     vertex  9.000000e+00  1.500000e+01  4.080000e+00
   endloop
 endfacet
 facet normal -2.256688e-08  1.000000e+00 -4.098249e-08
   outer loop
     vertex  5.000000e+00  1.500000e+01  4.080000e+00
     vertex  4.000000e-01  1.500000e+01  9.000000e+00
     vertex  6.000000e+00  1.500000e+01  4.080000e+00
   endloop
 endfacet
 facet normal  3.833163e-09  1.000000e+00  3.057857e-09
   outer loop
     vertex  9.000000e+00  1.500000e+01  0.000000e+00
     vertex  9.000000e+00  1.500000e+01  4.080000e+00
     vertex  1.100000e+01  1.500000e+01  0.000000e+00
   endloop
 endfacet
 facet normal  0.000000e+00  1.000000e+00 -1.988338e-08
   outer loop
     vertex  2.000000e+00  1.500000e+01  4.080000e+00
     vertex  4.000000e-01  1.500000e+01  9.000000e+00
     vertex  5.000000e+00  1.500000e+01  4.080000e+00
   endloop
 endfacet
 facet normal -2.256688e-08  1.000000e+00  3.057857e-09
   outer loop
     vertex  6.000000e+00  1.500000e+01  0.000000e+00
     vertex  5.000000e+00  1.500000e+01  4.080000e+00
     vertex  6.000000e+00  1.500000e+01  4.080000e+00
   endloop
 endfacet
 facet normal -3.384187e-08  1.000000e+00  2.943798e-10
   outer loop
     vertex  5.000000e+00  1.500000e+01  0.000000e+00
     vertex  5.000000e+00  1.500000e+01  4.080000e+00
     vertex  6.000000e+00  1.500000e+01  0.000000e+00
   endloop
 endfacet
 facet normal  6.039072e-08  1.000000e+00  2.943798e-10
   outer loop
     vertex  4.000000e-01  1.500000e+01  0.000000e+00
     vertex  2.000000e+00  1.500000e+01  4.080000e+00
     vertex  2.000000e+00  1.500000e+01  0.000000e+00
   endloop
 endfacet
 facet normal  6.114139e-08  1.000000e+00 -0.000000e+00
   outer loop
     vertex  4.000000e-01  1.500000e+01  0.000000e+00
     vertex  4.000000e-01  1.500000e+01  9.000000e+00
     vertex  2.000000e+00  1.500000e+01  4.080000e+00
   endloop
 endfacet
 facet normal -1.000000e+00 -1.146147e-08  0.000000e+00
   outer loop
     vertex -1.146147e-08  7.000000e+00  9.480000e+00
     vertex  3.330669e-16  6.000000e+00  9.000000e+00
     vertex  3.330669e-16  6.000000e+00  9.480000e+00
   endloop
 endfacet
 facet normal -1.000000e+00 -4.831852e-08  0.000000e+00
   outer loop
     vertex -3.496911e-07  1.400000e+01  9.000000e+00
     vertex -1.146147e-08  7.000000e+00  9.480000e+00
     vertex -3.496911e-07  1.400000e+01  9.480000e+00
   endloop
 endfacet
 facet normal -1.000000e+00 -4.371139e-08  6.718736e-08
   outer loop
     vertex -3.496911e-07  1.400000e+01  9.000000e+00
     vertex  3.330669e-16  6.000000e+00  9.000000e+00
     vertex -1.146147e-08  7.000000e+00  9.480000e+00
   endloop
 endfacet
 facet normal -9.293155e-15  2.126026e-07  1.000000e+00
   outer loop
     vertex  3.330669e-16  6.000000e+00  9.480000e+00
     vertex  4.000000e-01  6.000000e+00  9.480000e+00
     vertex  4.000000e-01  7.000000e+00  9.480000e+00
   endloop
 endfacet
 facet normal  2.049194e-14  2.126026e-07  1.000000e+00
   outer loop
     vertex  3.330669e-16  6.000000e+00  9.480000e+00
     vertex  4.000000e-01  7.000000e+00  9.480000e+00
     vertex -1.146147e-08  7.000000e+00  9.480000e+00
   endloop
 endfacet
 facet normal  1.954051e-14 -4.470349e-07  1.000000e+00
   outer loop
     vertex  4.529874e-07  1.300000e+01  9.480000e+00
     vertex  3.999997e-01  1.400000e+01  9.480000e+00
     vertex -3.496911e-07  1.400000e+01  9.480000e+00
   endloop
 endfacet
 facet normal -3.936421e-07 -2.895783e-07  1.000000e+00
   outer loop
     vertex  4.529874e-07  1.300000e+01  9.480000e+00
     vertex  3.999999e-01  1.300000e+01  9.480000e+00
     vertex  3.999997e-01  1.400000e+01  9.480000e+00
   endloop
 endfacet
 facet normal  4.834904e-01 -3.224403e-09  8.753496e-01
   outer loop
     vertex -1.146147e-08  7.000000e+00  9.480000e+00
     vertex  4.529874e-07  1.300000e+01  9.480000e+00
     vertex -3.496911e-07  1.400000e+01  9.480000e+00
   endloop
 endfacet
 facet normal  1.000000e+00 -7.549790e-08 -1.113862e-06
   outer loop
     vertex  4.000000e-01  7.000000e+00  9.960000e+00
     vertex  3.999999e-01  1.300000e+01  9.480000e+00
     vertex  4.000005e-01  1.300000e+01  9.960000e+00
   endloop
 endfacet
 facet normal  1.000000e+00  1.170079e-08 -2.387808e-08
   outer loop
     vertex  4.000000e-01  7.000000e+00  9.480000e+00
     vertex  3.999999e-01  1.300000e+01  9.480000e+00
     vertex  4.000000e-01  7.000000e+00  9.960000e+00
   endloop
 endfacet
 facet normal  0.000000e+00  0.000000e+00  1.000000e+00
   outer loop
     vertex  1.960000e+01  1.460000e+01  9.000000e+00
     vertex  1.960000e+01  1.400000e+01  9.000000e+00
     vertex  2.000000e+01  1.400000e+01  9.000000e+00
   endloop
 endfacet
 facet normal -2.664536e-15 -1.776357e-15  1.000000e+00
   outer loop
     vertex  1.960000e+01  1.460000e+01  9.000000e+00
     vertex  2.000000e+01  1.400000e+01  9.000000e+00
     vertex  2.000000e+01  1.500000e+01  9.000000e+00
   endloop
 endfacet
 facet normal -4.440892e-15 -3.325685e-23  1.000000e+00
   outer loop
     vertex  1.960000e+01  1.500000e+01  9.000000e+00
     vertex  1.960000e+01  1.460000e+01  9.000000e+00
     vertex  2.000000e+01  1.500000e+01  9.000000e+00
   endloop
 endfacet
 facet normal -0.000000e+00  0.000000e+00 -1.000000e+00
   outer loop
     vertex  5.000000e+00  1.500000e+01  0.000000e+00
     vertex  2.000000e+00  1.460000e+01  0.000000e+00
     vertex  2.000000e+00  1.500000e+01  0.000000e+00
   endloop
 endfacet
 facet normal  0.000000e+00 -0.000000e+00 -1.000000e+00
   outer loop
     vertex  5.000000e+00  1.500000e+01  0.000000e+00
     vertex  5.000000e+00  1.460000e+01  0.000000e+00
     vertex  2.000000e+00  1.460000e+01  0.000000e+00
   endloop
 endfacet
 facet normal  0.000000e+00  0.000000e+00 -1.000000e+00
   outer loop
     vertex  1.960000e+01  1.460000e+01  0.000000e+00
     vertex  2.000000e+01  1.300000e+01  0.000000e+00
     vertex  2.000000e+01  1.300000e+01  0.000000e+00
   endloop
 endfacet
 facet normal  0.000000e+00  0.000000e+00 -1.000000e+00
   outer loop
     vertex  1.960000e+01  1.460000e+01  0.000000e+00
     vertex  2.000000e+01  1.500000e+01  0.000000e+00
     vertex  2.000000e+01  1.300000e+01  0.000000e+00
   endloop
 endfacet
 facet normal  0.000000e+00  0.000000e+00 -1.000000e+00
   outer loop
     vertex  1.960000e+01  1.460000e+01  0.000000e+00
     vertex  2.000000e+01  1.300000e+01  0.000000e+00
     vertex  1.960000e+01  1.300000e+01  0.000000e+00
   endloop
 endfacet
 facet normal  0.000000e+00  0.000000e+00 -1.000000e+00
   outer loop
     vertex  1.960000e+01  1.500000e+01  0.000000e+00
     vertex  2.000000e+01  1.500000e+01  0.000000e+00
     vertex  1.960000e+01  1.460000e+01  0.000000e+00
   endloop
 endfacet
 facet normal -0.000000e+00  0.000000e+00 -1.000000e+00
   outer loop
     vertex  1.800000e+01  1.500000e+01  0.000000e+00
     vertex  1.500000e+01  1.460000e+01  0.000000e+00
     vertex  1.500000e+01  1.500000e+01  0.000000e+00
   endloop
 endfacet
 facet normal  0.000000e+00 -0.000000e+00 -1.000000e+00
   outer loop
     vertex  1.800000e+01  1.500000e+01  0.000000e+00
     vertex  1.800000e+01  1.460000e+01  0.000000e+00
     vertex  1.500000e+01  1.460000e+01  0.000000e+00
   endloop
 endfacet
 facet normal -0.000000e+00  0.000000e+00 -1.000000e+00
   outer loop
     vertex  1.400000e+01  1.500000e+01  0.000000e+00
     vertex  1.100000e+01  1.460000e+01  0.000000e+00
     vertex  1.100000e+01  1.500000e+01  0.000000e+00
   endloop
 endfacet
 facet normal  0.000000e+00  0.000000e+00 -1.000000e+00
   outer loop
     vertex  1.400000e+01  1.500000e+01  0.000000e+00
     vertex  1.400000e+01  1.460000e+01  0.000000e+00
     vertex  1.100000e+01  1.460000e+01  0.000000e+00
   endloop
 endfacet
 facet normal -0.000000e+00  0.000000e+00 -1.000000e+00
   outer loop
     vertex  9.000000e+00  1.500000e+01  0.000000e+00
     vertex  6.000000e+00  1.460000e+01  0.000000e+00
     vertex  6.000000e+00  1.500000e+01  0.000000e+00
   endloop
 endfacet
 facet normal  0.000000e+00 -0.000000e+00 -1.000000e+00
   outer loop
     vertex  9.000000e+00  1.500000e+01  0.000000e+00
     vertex  9.000000e+00  1.460000e+01  0.000000e+00
     vertex  6.000000e+00  1.460000e+01  0.000000e+00
   endloop
 endfacet
 facet normal  0.000000e+00 -0.000000e+00 -1.000000e+00
   outer loop
     vertex  2.000000e+01  7.000000e+00  0.000000e+00
     vertex  2.000000e+01  5.000000e+00  0.000000e+00
     vertex  1.960000e+01  5.000000e+00  0.000000e+00
   endloop
 endfacet
 facet normal  0.000000e+00  0.000000e+00 -1.000000e+00
   outer loop
     vertex  2.000000e+01  7.000000e+00  0.000000e+00
     vertex  2.000000e+01  7.000000e+00  0.000000e+00
     vertex  2.000000e+01  5.000000e+00  0.000000e+00
   endloop
 endfacet
 facet normal  0.000000e+00  0.000000e+00 -1.000000e+00
   outer loop
     vertex  1.960000e+01  7.000000e+00  0.000000e+00
     vertex  2.000000e+01  7.000000e+00  0.000000e+00
     vertex  1.960000e+01  5.000000e+00  0.000000e+00
   endloop
 endfacet
 facet normal  1.264002e-07 -1.000000e+00  0.000000e+00
   outer loop
     vertex  1.960000e+01  7.000000e+00  5.040000e+00
     vertex  1.960000e+01  7.000000e+00  0.000000e+00
     vertex  1.960000e+01  7.000000e+00  0.000000e+00
   endloop
 endfacet
 facet normal  1.264002e-07 -1.000000e+00  0.000000e+00
   outer loop
     vertex  1.960000e+01  7.000000e+00  5.040000e+00
     vertex  1.960000e+01  7.000000e+00  0.000000e+00
     vertex  1.960000e+01  7.000000e+00  5.040000e+00
   endloop
 endfacet
 facet normal  1.898176e-02 -0.000000e+00  9.998198e-01
   outer loop
     vertex  1.960000e+01  7.000000e+00  5.040000e+00
     vertex  1.960000e+01  1.300000e+01  5.040000e+00
     vertex  1.960000e+01  1.300000e+01  5.040000e+00
   endloop
 endfacet
 facet normal  9.798891e-03  3.076033e-09  9.999520e-01
   outer loop
     vertex  1.960000e+01  7.000000e+00  5.040000e+00
     vertex  1.960000e+01  1.300000e+01  5.040000e+00
     vertex  1.960000e+01  7.000000e+00  5.040000e+00
   endloop
 endfacet
 facet normal -9.813136e-08  1.000000e+00  0.000000e+00
   outer loop
     vertex  1.960000e+01  1.300000e+01  5.040000e+00
     vertex  1.960000e+01  1.300000e+01  0.000000e+00
     vertex  1.960000e+01  1.300000e+01  0.000000e+00
   endloop
 endfacet
 facet normal -9.813136e-08  1.000000e+00  0.000000e+00
   outer loop
     vertex  1.960000e+01  1.300000e+01  5.040000e+00
     vertex  1.960000e+01  1.300000e+01  5.040000e+00
     vertex  1.960000e+01  1.300000e+01  0.000000e+00
   endloop
 endfacet
 facet normal  0.000000e+00  0.000000e+00 -1.000000e+00
   outer loop
     vertex  1.960000e+01  6.000000e+00  9.000000e+00
     vertex  1.960000e+01  1.400000e+01  9.000000e+00
     vertex  1.960000e+01  6.000000e+00  9.000000e+00
   endloop
 endfacet
 facet normal -5.576277e-22  1.776357e-15  1.000000e+00
   outer loop
     vertex  2.000000e+01  6.000000e+00  9.000000e+00
     vertex  1.960000e+01  5.000000e+00  9.000000e+00
     vertex  2.000000e+01  5.000000e+00  9.000000e+00
   endloop
 endfacet
 facet normal  1.341112e-22  1.776357e-15  1.000000e+00
   outer loop
     vertex  1.960000e+01  6.000000e+00  9.000000e+00
     vertex  1.960000e+01  5.000000e+00  9.000000e+00
     vertex  2.000000e+01  6.000000e+00  9.000000e+00
   endloop
 endfacet
 facet normal -4.931458e-10  3.723147e-17  1.000000e+00
   outer loop
     vertex  2.000000e+01  5.000000e+00  9.000000e+00
     vertex  2.000000e+01  1.400000e+01  9.000000e+00
     vertex  2.000000e+01  6.000000e+00  9.000000e+00
   endloop
 endfacet
 facet normal  3.139165e-07 -1.000000e+00  0.000000e+00
   outer loop
     vertex  1.960000e+01  5.000000e+00  9.000000e+00
     vertex  1.960000e+01  5.000000e+00  0.000000e+00
     vertex  2.000000e+01  5.000000e+00  0.000000e+00
   endloop
 endfacet
 facet normal  3.139165e-07 -1.000000e+00  0.000000e+00
   outer loop
     vertex  1.960000e+01  5.000000e+00  9.000000e+00
     vertex  2.000000e+01  5.000000e+00  0.000000e+00
     vertex  2.000000e+01  5.000000e+00  9.000000e+00
   endloop
 endfacet
 facet normal  0.000000e+00  1.000000e+00  1.674048e-09
   outer loop
     vertex  1.800000e+01  1.500000e+01  4.080000e+00
     vertex  1.800000e+01  1.500000e+01  0.000000e+00
     vertex  1.500000e+01  1.500000e+01  0.000000e+00
   endloop
 endfacet
 facet normal  0.000000e+00  1.000000e+00  1.674048e-09
   outer loop
     vertex  1.800000e+01  1.500000e+01  4.080000e+00
     vertex  1.500000e+01  1.500000e+01  0.000000e+00
     vertex  1.500000e+01  1.500000e+01  4.080000e+00
   endloop
 endfacet
 facet normal  0.000000e+00  1.000000e+00  1.674049e-09
   outer loop
     vertex  1.400000e+01  1.500000e+01  4.080000e+00
     vertex  1.400000e+01  1.500000e+01  0.000000e+00
     vertex  1.100000e+01  1.500000e+01  0.000000e+00
   endloop
 endfacet
 facet normal  0.000000e+00  1.000000e+00  1.674049e-09
   outer loop
     vertex  1.400000e+01  1.500000e+01  4.080000e+00
     vertex  1.100000e+01  1.500000e+01  0.000000e+00
     vertex  1.100000e+01  1.500000e+01  4.080000e+00
   endloop
 endfacet
 facet normal  0.000000e+00  1.000000e+00  3.057857e-09
   outer loop
     vertex  9.000000e+00  1.500000e+01  4.080000e+00
     vertex  9.000000e+00  1.500000e+01  0.000000e+00
     vertex  6.000000e+00  1.500000e+01  0.000000e+00
   endloop
 endfacet
 facet normal  0.000000e+00  1.000000e+00  3.057857e-09
   outer loop
     vertex  9.000000e+00  1.500000e+01  4.080000e+00
     vertex  6.000000e+00  1.500000e+01  0.000000e+00
     vertex  6.000000e+00  1.500000e+01  4.080000e+00
   endloop
 endfacet
 facet normal  0.000000e+00  1.000000e+00  2.943798e-10
   outer loop
     vertex  5.000000e+00  1.500000e+01  4.080000e+00
     vertex  5.000000e+00  1.500000e+01  0.000000e+00
     vertex  2.000000e+00  1.500000e+01  0.000000e+00
   endloop
 endfacet
 facet normal  0.000000e+00  1.000000e+00  2.943798e-10
   outer loop
     vertex  5.000000e+00  1.500000e+01  4.080000e+00
     vertex  2.000000e+00  1.500000e+01  0.000000e+00
     vertex  2.000000e+00  1.500000e+01  4.080000e+00
   endloop
 endfacet
 facet normal  1.678880e-07  1.000000e+00  0.000000e+00
   outer loop
     vertex  1.960000e+01  1.500000e+01  9.000000e+00
     vertex  2.000000e+01  1.500000e+01  0.000000e+00
     vertex  1.960000e+01  1.500000e+01  0.000000e+00
   endloop
 endfacet
 facet normal  1.678880e-07  1.000000e+00  0.000000e+00
   outer loop
     vertex  1.960000e+01  1.500000e+01  9.000000e+00
     vertex  2.000000e+01  1.500000e+01  9.000000e+00
     vertex  2.000000e+01  1.500000e+01  0.000000e+00
   endloop
 endfacet
 facet normal -7.549790e-08 -1.000000e+00  3.653118e-15
   outer loop
     vertex -1.146147e-08  7.000000e+00  9.480000e+00
     vertex  4.000000e-01  7.000000e+00  9.480000e+00
     vertex  4.000000e-01  7.000000e+00  9.960000e+00
   endloop
 endfacet
 facet normal -7.549790e-08 -1.000000e+00  3.653118e-15
   outer loop
     vertex -1.146147e-08  7.000000e+00  9.480000e+00
     vertex  4.000000e-01  7.000000e+00  9.960000e+00
     vertex  1.165734e-15  7.000000e+00  9.960000e+00
   endloop
 endfacet
 facet normal -1.000000e+00  7.740815e-08  2.387809e-08
   outer loop
     vertex  4.529874e-07  1.300000e+01  9.480000e+00
     vertex -1.146147e-08  7.000000e+00  9.480000e+00
     vertex  1.165734e-15  7.000000e+00  9.960000e+00
   endloop
 endfacet
 facet normal -1.000000e+00  7.549790e-08  0.000000e+00
   outer loop
     vertex  4.529874e-07  1.300000e+01  9.480000e+00
     vertex  1.165734e-15  7.000000e+00  9.960000e+00
     vertex  4.529874e-07  1.300000e+01  9.960000e+00
   endloop
 endfacet
 facet normal  7.549789e-08  1.000000e+00  0.000000e+00
   outer loop
     vertex  3.999999e-01  1.300000e+01  9.480000e+00
     vertex  4.529874e-07  1.300000e+01  9.480000e+00
     vertex  4.529874e-07  1.300000e+01  9.960000e+00
   endloop
 endfacet
 facet normal  7.549790e-08  1.000000e+00  4.723626e-15
   outer loop
     vertex  3.999999e-01  1.300000e+01  9.480000e+00
     vertex  4.529874e-07  1.300000e+01  9.960000e+00
     vertex  4.000005e-01  1.300000e+01  9.960000e+00
   endloop
 endfacet
 facet normal  0.000000e+00 -0.000000e+00  1.000000e+00
   outer loop
     vertex  4.000000e-01  7.000000e+00  9.960000e+00
     vertex  4.000005e-01  1.300000e+01  9.960000e+00
     vertex  4.529874e-07  1.300000e+01  9.960000e+00
   endloop
 endfacet
 facet normal -0.000000e+00  0.000000e+00  1.000000e+00
   outer loop
     vertex  4.440892e-15  7.000000e+00  9.960000e+00
     vertex  4.000000e-01  7.000000e+00  9.960000e+00
     vertex  4.529874e-07  1.300000e+01  9.960000e+00
   endloop
 endfacet
 facet normal  7.549790e-08  1.000000e+00  0.000000e+00
   outer loop
     vertex  2.000000e+01  1.400000e+01  9.000000e+00
     vertex  1.960000e+01  1.400000e+01  9.000000e+00
     vertex  1.960000e+01  1.400000e+01  9.480000e+00
   endloop
 endfacet
 facet normal  7.549790e-08  1.000000e+00 -0.000000e+00
   outer loop
     vertex  2.000000e+01  1.400000e+01  9.000000e+00
     vertex  1.960000e+01  1.400000e+01  9.480000e+00
     vertex  2.000000e+01  1.400000e+01  9.480000e+00
   endloop
 endfacet
 facet normal  1.000000e+00  3.247346e-07  5.463718e-09
   outer loop
     vertex  2.000000e+01  1.400000e+01  9.000000e+00
     vertex  2.000000e+01  5.000000e+00  9.000000e+00
     vertex  2.000000e+01  7.000000e+00  5.040000e+00
   endloop
 endfacet
 facet normal  1.000000e+00  3.139165e-07 -0.000000e+00
   outer loop
     vertex  2.000000e+01  5.000000e+00  0.000000e+00
     vertex  2.000000e+01  7.000000e+00  5.040000e+00
     vertex  2.000000e+01  5.000000e+00  9.000000e+00
   endloop
 endfacet
 facet normal  1.000000e+00  3.139165e-07 -0.000000e+00
   outer loop
     vertex  2.000000e+01  7.000000e+00  0.000000e+00
     vertex  2.000000e+01  7.000000e+00  5.040000e+00
     vertex  2.000000e+01  5.000000e+00  0.000000e+00
   endloop
 endfacet
 facet normal  1.000000e+00  2.165530e-07  4.917345e-08
   outer loop
     vertex  2.000000e+01  1.300000e+01  5.040000e+00
     vertex  2.000000e+01  1.500000e+01  9.000000e+00
     vertex  2.000000e+01  1.400000e+01  9.000000e+00
   endloop
 endfacet
 facet normal  1.000000e+00  3.139165e-07  2.458673e-08
   outer loop
     vertex  2.000000e+01  1.300000e+01  5.040000e+00
     vertex  2.000000e+01  1.400000e+01  9.000000e+00
     vertex  2.000000e+01  7.000000e+00  5.040000e+00
   endloop
 endfacet
 facet normal  1.000000e+00  3.139165e-07  0.000000e+00
   outer loop
     vertex  2.000000e+01  1.500000e+01  0.000000e+00
     vertex  2.000000e+01  1.300000e+01  5.040000e+00
     vertex  2.000000e+01  1.300000e+01  0.000000e+00
   endloop
 endfacet
 facet normal  1.000000e+00  3.139165e-07 -0.000000e+00
   outer loop
     vertex  2.000000e+01  1.500000e+01  0.000000e+00
     vertex  2.000000e+01  1.500000e+01  9.000000e+00
     vertex  2.000000e+01  1.300000e+01  5.040000e+00
   endloop
 endfacet
 facet normal  0.000000e+00  0.000000e+00 -1.000000e+00
   outer loop
     vertex  1.960000e+01  7.000000e+00  0.000000e+00
     vertex  1.960000e+01  1.300000e+01  0.000000e+00
     vertex  1.960000e+01  1.300000e+01  0.000000e+00
   endloop
 endfacet
 facet normal  0.000000e+00  0.000000e+00 -1.000000e+00
   outer loop
     vertex  1.960000e+01  7.000000e+00  0.000000e+00
     vertex  1.960000e+01  1.300000e+01  0.000000e+00
     vertex  2.000000e+01  1.300000e+01  0.000000e+00
   endloop
 endfacet
 facet normal -0.000000e+00  0.000000e+00 -1.000000e+00
   outer loop
     vertex  1.960000e+01  7.000000e+00  0.000000e+00
     vertex  1.960000e+01  7.000000e+00  0.000000e+00
     vertex  1.960000e+01  1.300000e+01  0.000000e+00
   endloop
 endfacet
 facet normal  0.000000e+00  0.000000e+00 -1.000000e+00
   outer loop
     vertex  2.000000e+01  7.000000e+00  0.000000e+00
     vertex  1.960000e+01  7.000000e+00  0.000000e+00
     vertex  2.000000e+01  1.300000e+01  0.000000e+00
   endloop
 endfacet
 facet normal  6.218729e-02 -9.980645e-01  0.000000e+00
   outer loop
     vertex  2.000000e+01  1.300000e+01  0.000000e+00
     vertex  2.000000e+01  1.300000e+01  5.040000e+00
     vertex  2.000000e+01  1.300000e+01  5.040000e+00
   endloop
 endfacet
 facet normal  6.218729e-02 -9.980645e-01  0.000000e+00
   outer loop
     vertex  2.000000e+01  1.300000e+01  0.000000e+00
     vertex  2.000000e+01  1.300000e+01  0.000000e+00
     vertex  2.000000e+01  1.300000e+01  5.040000e+00
   endloop
 endfacet
 facet normal -3.219022e-02  9.994818e-01  0.000000e+00
   outer loop
     vertex  2.000000e+01  7.000000e+00  5.040000e+00
     vertex  2.000000e+01  7.000000e+00  0.000000e+00
     vertex  2.000000e+01  7.000000e+00  0.000000e+00
   endloop
 endfacet
 facet normal -3.219022e-02  9.994818e-01  0.000000e+00
   outer loop
     vertex  2.000000e+01  7.000000e+00  5.040000e+00
     vertex  2.000000e+01  7.000000e+00  5.040000e+00
     vertex  2.000000e+01  7.000000e+00  0.000000e+00
   endloop
 endfacet
 facet normal -1.000000e+00  0.000000e+00  0.000000e+00
   outer loop
     vertex  1.960000e+01  7.000000e+00  5.040000e+00
     vertex  1.960000e+01  1.300000e+01  0.000000e+00
     vertex  1.960000e+01  7.000000e+00  0.000000e+00
   endloop
 endfacet
 facet normal -1.000000e+00  0.000000e+00  0.000000e+00
   outer loop
     vertex  1.960000e+01  7.000000e+00  5.040000e+00
     vertex  1.960000e+01  1.300000e+01  5.040000e+00
     vertex  1.960000e+01  1.300000e+01  0.000000e+00
   endloop
 endfacet
 facet normal -1.000000e+00  2.046265e-08  0.000000e+00
   outer loop
     vertex  1.960000e+01  7.000000e+00  9.480000e+00
     vertex  1.960000e+01  6.000000e+00  9.000000e+00
     vertex  1.960000e+01  6.000000e+00  9.480000e+00
   endloop
 endfacet
 facet normal -1.000000e+00 -5.642599e-07  0.000000e+00
   outer loop
     vertex  1.960000e+01  1.400000e+01  9.000000e+00
     vertex  1.960000e+01  1.300000e+01  9.480000e+00
     vertex  1.960000e+01  1.400000e+01  9.480000e+00
   endloop
 endfacet
 facet normal -5.421005e-01  6.976390e-08 -8.403137e-01
   outer loop
     vertex  1.960000e+01  7.000000e+00  9.480000e+00
     vertex  1.960000e+01  1.400000e+01  9.480000e+00
     vertex  1.960000e+01  1.300000e+01  9.480000e+00
   endloop
 endfacet
 facet normal -1.000000e+00  7.549790e-08  1.332830e-06
   outer loop
     vertex  1.960000e+01  1.400000e+01  9.000000e+00
     vertex  1.960000e+01  6.000000e+00  9.000000e+00
     vertex  1.960000e+01  1.300000e+01  9.480000e+00
   endloop
 endfacet
 facet normal -1.000000e+00  1.912967e-07 -3.559045e-07
   outer loop
     vertex  1.960000e+01  1.300000e+01  9.480000e+00
     vertex  1.960000e+01  6.000000e+00  9.000000e+00
     vertex  1.960000e+01  7.000000e+00  9.480000e+00
   endloop
 endfacet
 facet normal -7.549788e-08 -1.000000e+00  0.000000e+00
   outer loop
     vertex  1.960000e+01  6.000000e+00  9.000000e+00
     vertex  2.000000e+01  6.000000e+00  9.000000e+00
     vertex  2.000000e+01  6.000000e+00  9.480000e+00
   endloop
 endfacet
 facet normal -7.549790e-08 -1.000000e+00  1.649132e-14
   outer loop
     vertex  1.960000e+01  6.000000e+00  9.000000e+00
     vertex  2.000000e+01  6.000000e+00  9.480000e+00
     vertex  1.960000e+01  6.000000e+00  9.480000e+00
   endloop
 endfacet
 facet normal -7.796184e-08 -1.000000e+00  0.000000e+00
   outer loop
     vertex  1.960000e+01  6.000000e+00  9.000000e+00
     vertex  1.960000e+01  6.000000e+00  9.000000e+00
     vertex  1.960000e+01  6.000000e+00  9.480000e+00
   endloop
 endfacet
 facet normal  1.000000e+00  9.167363e-08  0.000000e+00
   outer loop
     vertex  2.000000e+01  1.300000e+01  9.480000e+00
     vertex  2.000000e+01  1.400000e+01  9.000000e+00
     vertex  2.000000e+01  1.400000e+01  9.480000e+00
   endloop
 endfacet
 facet normal  1.000000e+00 -2.046264e-08  0.000000e+00
   outer loop
     vertex  2.000000e+01  6.000000e+00  9.000000e+00
     vertex  2.000000e+01  7.000000e+00  9.480000e+00
     vertex  2.000000e+01  6.000000e+00  9.480000e+00
   endloop
 endfacet
 facet normal  1.000000e+00 -7.549790e-08 -3.482742e-07
   outer loop
     vertex  2.000000e+01  6.000000e+00  9.000000e+00
     vertex  2.000000e+01  1.400000e+01  9.000000e+00
     vertex  2.000000e+01  1.300000e+01  9.480000e+00
   endloop
 endfacet
 facet normal  1.000000e+00 -1.125324e-07  1.918120e-07
   outer loop
     vertex  2.000000e+01  6.000000e+00  9.000000e+00
     vertex  2.000000e+01  1.300000e+01  9.480000e+00
     vertex  2.000000e+01  7.000000e+00  9.480000e+00
   endloop
 endfacet
 facet normal -3.375019e-14 -4.470349e-07  1.000000e+00
   outer loop
     vertex  1.960000e+01  1.300000e+01  9.480000e+00
     vertex  2.000000e+01  1.400000e+01  9.480000e+00
     vertex  1.960000e+01  1.400000e+01  9.480000e+00
   endloop
 endfacet
 facet normal -4.127789e-07 -2.819235e-07  1.000000e+00
   outer loop
     vertex  1.960000e+01  1.300000e+01  9.480000e+00
     vertex  2.000000e+01  1.300000e+01  9.480000e+00
     vertex  2.000000e+01  1.400000e+01  9.480000e+00
   endloop
 endfacet
 facet normal  5.421005e-01 -6.976390e-08  8.403137e-01
   outer loop
     vertex  1.960000e+01  7.000000e+00  9.480000e+00
     vertex  1.960000e+01  1.300000e+01  9.480000e+00
     vertex  1.960000e+01  1.400000e+01  9.480000e+00
   endloop
 endfacet
 facet normal -9.783912e-03 -0.000000e+00 -9.999521e-01
   outer loop
     vertex  2.000000e+01  1.300000e+01  5.040000e+00
     vertex  2.000000e+01  7.000000e+00  5.040000e+00
     vertex  2.000000e+01  7.000000e+00  5.040000e+00
   endloop
 endfacet
 facet normal -1.892564e-02 -5.941069e-09 -9.998209e-01
   outer loop
     vertex  2.000000e+01  1.300000e+01  5.040000e+00
     vertex  2.000000e+01  1.300000e+01  5.040000e+00
     vertex  2.000000e+01  7.000000e+00  5.040000e+00
   endloop
 endfacet
 facet normal  1.000000e+00  0.000000e+00  0.000000e+00
   outer loop
     vertex  2.000000e+01  7.000000e+00  5.040000e+00
     vertex  2.000000e+01  7.000000e+00  0.000000e+00
     vertex  2.000000e+01  1.300000e+01  0.000000e+00
   endloop
 endfacet
 facet normal  1.000000e+00 -0.000000e+00  0.000000e+00
   outer loop
     vertex  2.000000e+01  7.000000e+00  5.040000e+00
     vertex  2.000000e+01  1.300000e+01  0.000000e+00
     vertex  2.000000e+01  1.300000e+01  5.040000e+00
   endloop
 endfacet
 facet normal  1.545517e-14  2.047099e-07  1.000000e+00
   outer loop
     vertex  1.960000e+01  6.000000e+00  9.480000e+00
     vertex  2.000000e+01  6.000000e+00  9.480000e+00
     vertex  2.000000e+01  7.000000e+00  9.480000e+00
   endloop
 endfacet
 facet normal  3.985848e-14  2.047099e-07  1.000000e+00
   outer loop
     vertex  1.960000e+01  6.000000e+00  9.480000e+00
     vertex  2.000000e+01  7.000000e+00  9.480000e+00
     vertex  1.960000e+01  7.000000e+00  9.480000e+00
   endloop
 endfacet
 facet normal  1.000000e+00 -1.947072e-07 -9.845551e-07
   outer loop
     vertex  2.000000e+01  7.000000e+00  9.960000e+00
     vertex  2.000000e+01  1.300000e+01  9.480000e+00
     vertex  2.000000e+01  1.300000e+01  9.960000e+00
   endloop
 endfacet
 facet normal  1.000000e+00 -1.125324e-07  4.263052e-08
   outer loop
     vertex  2.000000e+01  7.000000e+00  9.480000e+00
     vertex  2.000000e+01  1.300000e+01  9.480000e+00
     vertex  2.000000e+01  7.000000e+00  9.960000e+00
   endloop
 endfacet
 facet normal  1.947072e-07  1.000000e+00  0.000000e+00
   outer loop
     vertex  2.000000e+01  1.300000e+01  9.480000e+00
     vertex  1.960000e+01  1.300000e+01  9.480000e+00
     vertex  1.960000e+01  1.300000e+01  9.960000e+00
   endloop
 endfacet
 facet normal  1.947072e-07  1.000000e+00 -6.662704e-15
   outer loop
     vertex  2.000000e+01  1.300000e+01  9.480000e+00
     vertex  1.960000e+01  1.300000e+01  9.960000e+00
     vertex  2.000000e+01  1.300000e+01  9.960000e+00
   endloop
 endfacet
 facet normal -1.947072e-07 -1.000000e+00  4.652140e-15
   outer loop
     vertex  1.960000e+01  7.000000e+00  9.480000e+00
     vertex  2.000000e+01  7.000000e+00  9.480000e+00
     vertex  2.000000e+01  7.000000e+00  9.960000e+00
   endloop
 endfacet
 facet normal -1.947072e-07 -1.000000e+00  4.652140e-15
   outer loop
     vertex  1.960000e+01  7.000000e+00  9.480000e+00
     vertex  2.000000e+01  7.000000e+00  9.960000e+00
     vertex  1.960000e+01  7.000000e+00  9.960000e+00
   endloop
 endfacet
 facet normal  0.000000e+00 -0.000000e+00  1.000000e+00
   outer loop
     vertex  2.000000e+01  7.000000e+00  9.960000e+00
     vertex  2.000000e+01  1.300000e+01  9.960000e+00
     vertex  1.960000e+01  1.300000e+01  9.960000e+00
   endloop
 endfacet
 facet normal -0.000000e+00  0.000000e+00  1.000000e+00
   outer loop
     vertex  1.960000e+01  7.000000e+00  9.960000e+00
     vertex  2.000000e+01  7.000000e+00  9.960000e+00
     vertex  1.960000e+01  1.300000e+01  9.960000e+00
   endloop
 endfacet
 facet normal -1.000000e+00  1.912967e-07 -4.263052e-08
   outer loop
     vertex  1.960000e+01  1.300000e+01  9.480000e+00
     vertex  1.960000e+01  7.000000e+00  9.480000e+00
     vertex  1.960000e+01  7.000000e+00  9.960000e+00
   endloop
 endfacet
 facet normal -1.000000e+00  1.947072e-07  0.000000e+00
   outer loop
     vertex  1.960000e+01  1.300000e+01  9.480000e+00
     vertex  1.960000e+01  7.000000e+00  9.960000e+00
     vertex  1.960000e+01  1.300000e+01  9.960000e+00
   endloop
 endfacet
endsolid
