solid 
 facet normal -5.523351e-07 -1.000000e+00 -0.000000e+00
   outer loop
     vertex  1.601604e+01  7.989200e+01  5.760000e-02
     vertex  1.598404e+01  7.989201e+01  0.000000e+00
     vertex  1.601604e+01  7.989200e+01  0.000000e+00
   endloop
 endfacet
 facet normal -5.523351e-07 -1.000000e+00  0.000000e+00
   outer loop
     vertex  1.601604e+01  7.989200e+01  5.760000e-02
     vertex  1.598404e+01  7.989201e+01  5.760000e-02
     vertex  1.598404e+01  7.989201e+01  0.000000e+00
   endloop
 endfacet
 facet normal  1.000000e+00 -5.523351e-07  0.000000e+00
   outer loop
     vertex  1.601604e+01  8.010800e+01  5.760000e-02
     vertex  1.601604e+01  7.989200e+01  0.000000e+00
     vertex  1.601604e+01  8.010800e+01  0.000000e+00
   endloop
 endfacet
 facet normal  1.000000e+00 -5.523351e-07  0.000000e+00
   outer loop
     vertex  1.601604e+01  8.010800e+01  5.760000e-02
     vertex  1.601604e+01  7.989200e+01  5.760000e-02
     vertex  1.601604e+01  7.989200e+01  0.000000e+00
   endloop
 endfacet
 facet normal  0.000000e+00  0.000000e+00  1.000000e+00
   outer loop
     vertex  1.598404e+01  8.010801e+01  5.760000e-02
     vertex  1.598404e+01  7.989201e+01  5.760000e-02
     vertex  1.601604e+01  7.989200e+01  5.760000e-02
   endloop
 endfacet
 facet normal  0.000000e+00  0.000000e+00  1.000000e+00
   outer loop
     vertex  1.598404e+01  8.010801e+01  5.760000e-02
     vertex  1.601604e+01  7.989200e+01  5.760000e-02
     vertex  1.601604e+01  8.010800e+01  5.760000e-02
   endloop
 endfacet
 facet normal -1.000000e+00  5.523351e-07  0.000000e+00
   outer loop
     vertex  1.598404e+01  8.010801e+01  5.760000e-02
     vertex  1.598404e+01  8.010801e+01  0.000000e+00
     vertex  1.598404e+01  7.989201e+01  0.000000e+00
   endloop
 endfacet
 facet normal -1.000000e+00  5.523351e-07  0.000000e+00
   outer loop
     vertex  1.598404e+01  8.010801e+01  5.760000e-02
     vertex  1.598404e+01  7.989201e+01  0.000000e+00
     vertex  1.598404e+01  7.989201e+01  5.760000e-02
   endloop
 endfacet
 facet normal  0.000000e+00 -0.000000e+00 -1.000000e+00
   outer loop
     vertex  1.598404e+01  8.010801e+01  0.000000e+00
     vertex  1.601604e+01  7.989200e+01  0.000000e+00
     vertex  1.598404e+01  7.989201e+01  0.000000e+00
   endloop
 endfacet
 facet normal  0.000000e+00  0.000000e+00 -1.000000e+00
   outer loop
     vertex  1.598404e+01  8.010801e+01  0.000000e+00
     vertex  1.601604e+01  8.010800e+01  0.000000e+00
     vertex  1.601604e+01  7.989200e+01  0.000000e+00
   endloop
 endfacet
 facet normal  5.523351e-07  1.000000e+00  0.000000e+00
   outer loop
     vertex  1.601604e+01  8.010800e+01  5.760000e-02
     vertex  1.601604e+01  8.010800e+01  0.000000e+00
     vertex  1.598404e+01  8.010801e+01  0.000000e+00
   endloop
 endfacet
 facet normal  5.523351e-07  1.000000e+00  0.000000e+00
   outer loop
     vertex  1.601604e+01  8.010800e+01  5.760000e-02
     vertex  1.598404e+01  8.010801e+01  0.000000e+00
     vertex  1.598404e+01  8.010801e+01  5.760000e-02
   endloop
 endfacet
 facet normal -9.099632e-07 -1.000000e+00 -0.000000e+00
   outer loop
     vertex  1.920161e+02  7.989200e+01  5.760000e-02
     vertex  1.919841e+02  7.989201e+01  0.000000e+00
     vertex  1.920161e+02  7.989200e+01  0.000000e+00
   endloop
 endfacet
 facet normal -9.099632e-07 -1.000000e+00  0.000000e+00
   outer loop
     vertex  1.920161e+02  7.989200e+01  5.760000e-02
     vertex  1.919841e+02  7.989201e+01  5.760000e-02
     vertex  1.919841e+02  7.989201e+01  0.000000e+00
   endloop
 endfacet
 facet normal  1.000000e+00 -9.099627e-07  0.000000e+00
   outer loop
     vertex  1.920161e+02  8.010800e+01  5.760000e-02
     vertex  1.920161e+02  7.989200e+01  0.000000e+00
     vertex  1.920161e+02  8.010800e+01  0.000000e+00
   endloop
 endfacet
 facet normal  1.000000e+00 -9.099627e-07  0.000000e+00
   outer loop
     vertex  1.920161e+02  8.010800e+01  5.760000e-02
     vertex  1.920161e+02  7.989200e+01  5.760000e-02
     vertex  1.920161e+02  7.989200e+01  0.000000e+00
   endloop
 endfacet
 facet normal  0.000000e+00  0.000000e+00  1.000000e+00
   outer loop
     vertex  1.919841e+02  8.010801e+01  5.760000e-02
     vertex  1.919841e+02  7.989201e+01  5.760000e-02
     vertex  1.920161e+02  7.989200e+01  5.760000e-02
   endloop
 endfacet
 facet normal  0.000000e+00  0.000000e+00  1.000000e+00
   outer loop
     vertex  1.919841e+02  8.010801e+01  5.760000e-02
     vertex  1.920161e+02  7.989200e+01  5.760000e-02
     vertex  1.920161e+02  8.010800e+01  5.760000e-02
   endloop
 endfacet
 facet normal -1.000000e+00  9.099627e-07  0.000000e+00
   outer loop
     vertex  1.919841e+02  8.010801e+01  5.760000e-02
     vertex  1.919841e+02  8.010801e+01  0.000000e+00
     vertex  1.919841e+02  7.989201e+01  0.000000e+00
   endloop
 endfacet
 facet normal -1.000000e+00  9.099627e-07  0.000000e+00
   outer loop
     vertex  1.919841e+02  8.010801e+01  5.760000e-02
     vertex  1.919841e+02  7.989201e+01  0.000000e+00
     vertex  1.919841e+02  7.989201e+01  5.760000e-02
   endloop
 endfacet
 facet normal  0.000000e+00 -0.000000e+00 -1.000000e+00
   outer loop
     vertex  1.919841e+02  8.010801e+01  0.000000e+00
     vertex  1.920161e+02  7.989200e+01  0.000000e+00
     vertex  1.919841e+02  7.989201e+01  0.000000e+00
   endloop
 endfacet
 facet normal  0.000000e+00  0.000000e+00 -1.000000e+00
   outer loop
     vertex  1.919841e+02  8.010801e+01  0.000000e+00
     vertex  1.920161e+02  8.010800e+01  0.000000e+00
     vertex  1.920161e+02  7.989200e+01  0.000000e+00
   endloop
 endfacet
 facet normal  9.099632e-07  1.000000e+00  0.000000e+00
   outer loop
     vertex  1.920161e+02  8.010800e+01  5.760000e-02
     vertex  1.920161e+02  8.010800e+01  0.000000e+00
     vertex  1.919841e+02  8.010801e+01  0.000000e+00
   endloop
 endfacet
 facet normal  9.099632e-07  1.000000e+00  0.000000e+00
   outer loop
     vertex  1.920161e+02  8.010800e+01  5.760000e-02
     vertex  1.919841e+02  8.010801e+01  0.000000e+00
     vertex  1.919841e+02  8.010801e+01  5.760000e-02
   endloop
 endfacet
 facet normal -9.099628e-07 -1.000000e+00 -0.000000e+00
   outer loop
     vertex  1.920160e+02  2.389200e+01  1.922880e+01
     vertex  1.919840e+02  2.389200e+01  1.920000e+01
     vertex  1.920160e+02  2.389200e+01  1.920000e+01
   endloop
 endfacet
 facet normal -9.099628e-07 -1.000000e+00  0.000000e+00
   outer loop
     vertex  1.920160e+02  2.389200e+01  1.922880e+01
     vertex  1.919840e+02  2.389200e+01  1.922880e+01
     vertex  1.919840e+02  2.389200e+01  1.920000e+01
   endloop
 endfacet
 facet normal  1.000000e+00 -9.099627e-07  0.000000e+00
   outer loop
     vertex  1.920160e+02  2.410800e+01  1.922880e+01
     vertex  1.920160e+02  2.389200e+01  1.920000e+01
     vertex  1.920160e+02  2.410800e+01  1.920000e+01
   endloop
 endfacet
 facet normal  1.000000e+00 -9.099627e-07  0.000000e+00
   outer loop
     vertex  1.920160e+02  2.410800e+01  1.922880e+01
     vertex  1.920160e+02  2.389200e+01  1.922880e+01
     vertex  1.920160e+02  2.389200e+01  1.920000e+01
   endloop
 endfacet
 facet normal  0.000000e+00  0.000000e+00  1.000000e+00
   outer loop
     vertex  1.919840e+02  2.410800e+01  1.922880e+01
     vertex  1.919840e+02  2.389200e+01  1.922880e+01
     vertex  1.920160e+02  2.389200e+01  1.922880e+01
   endloop
 endfacet
 facet normal  0.000000e+00  0.000000e+00  1.000000e+00
   outer loop
     vertex  1.919840e+02  2.410800e+01  1.922880e+01
     vertex  1.920160e+02  2.389200e+01  1.922880e+01
     vertex  1.920160e+02  2.410800e+01  1.922880e+01
   endloop
 endfacet
 facet normal -1.000000e+00  9.099627e-07  0.000000e+00
   outer loop
     vertex  1.919840e+02  2.410800e+01  1.922880e+01
     vertex  1.919840e+02  2.410800e+01  1.920000e+01
     vertex  1.919840e+02  2.389200e+01  1.920000e+01
   endloop
 endfacet
 facet normal -1.000000e+00  9.099627e-07  0.000000e+00
   outer loop
     vertex  1.919840e+02  2.410800e+01  1.922880e+01
     vertex  1.919840e+02  2.389200e+01  1.920000e+01
     vertex  1.919840e+02  2.389200e+01  1.922880e+01
   endloop
 endfacet
 facet normal  0.000000e+00 -0.000000e+00 -1.000000e+00
   outer loop
     vertex  1.919840e+02  2.410800e+01  1.920000e+01
     vertex  1.920160e+02  2.389200e+01  1.920000e+01
     vertex  1.919840e+02  2.389200e+01  1.920000e+01
   endloop
 endfacet
 facet normal  0.000000e+00  0.000000e+00 -1.000000e+00
   outer loop
     vertex  1.919840e+02  2.410800e+01  1.920000e+01
     vertex  1.920160e+02  2.410800e+01  1.920000e+01
     vertex  1.920160e+02  2.389200e+01  1.920000e+01
   endloop
 endfacet
 facet normal  9.099629e-07  1.000000e+00  0.000000e+00
   outer loop
     vertex  1.920160e+02  2.410800e+01  1.922880e+01
     vertex  1.920160e+02  2.410800e+01  1.920000e+01
     vertex  1.919840e+02  2.410800e+01  1.920000e+01
   endloop
 endfacet
 facet normal  9.099629e-07  1.000000e+00  0.000000e+00
   outer loop
     vertex  1.920160e+02  2.410800e+01  1.922880e+01
     vertex  1.919840e+02  2.410800e+01  1.920000e+01
     vertex  1.919840e+02  2.410800e+01  1.922880e+01
   endloop
 endfacet
 facet normal -1.000000e+00  4.768371e-07  0.000000e+00
   outer loop
     vertex  2.389600e+01  5.598415e+01  5.760000e-02
     vertex  2.389600e+01  5.601615e+01  0.000000e+00
     vertex  2.389600e+01  5.598415e+01  0.000000e+00
   endloop
 endfacet
 facet normal -1.000000e+00  4.768371e-07  0.000000e+00
   outer loop
     vertex  2.389600e+01  5.598415e+01  5.760000e-02
     vertex  2.389600e+01  5.601615e+01  5.760000e-02
     vertex  2.389600e+01  5.601615e+01  0.000000e+00
   endloop
 endfacet
 facet normal -4.768372e-07 -1.000000e+00 -0.000000e+00
   outer loop
     vertex  2.410400e+01  5.598415e+01  5.760000e-02
     vertex  2.389600e+01  5.598415e+01  0.000000e+00
     vertex  2.410400e+01  5.598415e+01  0.000000e+00
   endloop
 endfacet
 facet normal -4.768372e-07 -1.000000e+00  0.000000e+00
   outer loop
     vertex  2.410400e+01  5.598415e+01  5.760000e-02
     vertex  2.389600e+01  5.598415e+01  5.760000e-02
     vertex  2.389600e+01  5.598415e+01  0.000000e+00
   endloop
 endfacet
 facet normal  0.000000e+00  0.000000e+00  1.000000e+00
   outer loop
     vertex  2.410400e+01  5.601615e+01  5.760000e-02
     vertex  2.389600e+01  5.601615e+01  5.760000e-02
     vertex  2.389600e+01  5.598415e+01  5.760000e-02
   endloop
 endfacet
 facet normal  0.000000e+00  0.000000e+00  1.000000e+00
   outer loop
     vertex  2.410400e+01  5.601615e+01  5.760000e-02
     vertex  2.389600e+01  5.598415e+01  5.760000e-02
     vertex  2.410400e+01  5.598415e+01  5.760000e-02
   endloop
 endfacet
 facet normal  4.768372e-07  1.000000e+00  0.000000e+00
   outer loop
     vertex  2.410400e+01  5.601615e+01  5.760000e-02
     vertex  2.410400e+01  5.601615e+01  0.000000e+00
     vertex  2.389600e+01  5.601615e+01  0.000000e+00
   endloop
 endfacet
 facet normal  4.768372e-07  1.000000e+00  0.000000e+00
   outer loop
     vertex  2.410400e+01  5.601615e+01  5.760000e-02
     vertex  2.389600e+01  5.601615e+01  0.000000e+00
     vertex  2.389600e+01  5.601615e+01  5.760000e-02
   endloop
 endfacet
 facet normal -0.000000e+00  0.000000e+00 -1.000000e+00
   outer loop
     vertex  2.410400e+01  5.601615e+01  0.000000e+00
     vertex  2.389600e+01  5.598415e+01  0.000000e+00
     vertex  2.389600e+01  5.601615e+01  0.000000e+00
   endloop
 endfacet
 facet normal  0.000000e+00  0.000000e+00 -1.000000e+00
   outer loop
     vertex  2.410400e+01  5.601615e+01  0.000000e+00
     vertex  2.410400e+01  5.598415e+01  0.000000e+00
     vertex  2.389600e+01  5.598415e+01  0.000000e+00
   endloop
 endfacet
 facet normal  1.000000e+00 -4.768372e-07  0.000000e+00
   outer loop
     vertex  2.410400e+01  5.598415e+01  5.760000e-02
     vertex  2.410400e+01  5.598415e+01  0.000000e+00
     vertex  2.410400e+01  5.601615e+01  0.000000e+00
   endloop
 endfacet
 facet normal  1.000000e+00 -4.768372e-07  0.000000e+00
   outer loop
     vertex  2.410400e+01  5.598415e+01  5.760000e-02
     vertex  2.410400e+01  5.601615e+01  0.000000e+00
     vertex  2.410400e+01  5.601615e+01  5.760000e-02
   endloop
 endfacet
 facet normal -6.715443e-07 -1.000000e+00  0.000000e+00
   outer loop
     vertex  7.599628e-10  1.074471e-08  0.000000e+00
     vertex  1.600000e-02  0.000000e+00  0.000000e+00
     vertex  1.600000e-02  0.000000e+00  7.680000e-02
   endloop
 endfacet
 facet normal -6.715443e-07 -1.000000e+00  0.000000e+00
   outer loop
     vertex  7.599628e-10  1.074471e-08  0.000000e+00
     vertex  1.600000e-02  0.000000e+00  7.680000e-02
     vertex  7.599628e-10  1.074471e-08  7.680000e-02
   endloop
 endfacet
 facet normal  4.549808e-08 -1.000000e+00  0.000000e+00
   outer loop
     vertex  1.600000e-02  0.000000e+00  0.000000e+00
     vertex  1.760000e-01  7.279693e-09  0.000000e+00
     vertex  1.760000e-01  7.279693e-09  7.680000e-02
   endloop
 endfacet
 facet normal  4.549808e-08 -1.000000e+00  0.000000e+00
   outer loop
     vertex  1.600000e-02  0.000000e+00  0.000000e+00
     vertex  1.760000e-01  7.279693e-09  7.680000e-02
     vertex  1.600000e-02  0.000000e+00  7.680000e-02
   endloop
 endfacet
 facet normal -1.133514e-21 -1.734724e-15  1.000000e+00
   outer loop
     vertex  9.209000e-08  1.360000e-01  7.680000e-02
     vertex  1.600000e-02  1.200000e-01  7.680000e-02
     vertex  1.600005e-02  1.360000e-01  7.680000e-02
   endloop
 endfacet
 facet normal  1.734735e-15  1.329871e-21  1.000000e+00
   outer loop
     vertex  1.600004e-02  6.400016e-02  7.680000e-02
     vertex  1.600000e-02  1.200000e-01  7.680000e-02
     vertex  9.209000e-08  1.360000e-01  7.680000e-02
   endloop
 endfacet
 facet normal  5.204192e-16  3.469428e-16  1.000000e+00
   outer loop
     vertex  7.599628e-10  1.074471e-08  7.680000e-02
     vertex  1.600000e-02  1.600000e-02  7.680000e-02
     vertex  1.600004e-02  5.600016e-02  7.680000e-02
   endloop
 endfacet
 facet normal  5.824719e-22  8.673617e-16  1.000000e+00
   outer loop
     vertex  7.599628e-10  1.074471e-08  7.680000e-02
     vertex  1.600000e-02  0.000000e+00  7.680000e-02
     vertex  1.600000e-02  1.600000e-02  7.680000e-02
   endloop
 endfacet
 facet normal  1.734723e-15 -1.164944e-21  1.000000e+00
   outer loop
     vertex  7.599628e-10  1.074471e-08  7.680000e-02
     vertex  1.600004e-02  6.400016e-02  7.680000e-02
     vertex  9.209000e-08  1.360000e-01  7.680000e-02
   endloop
 endfacet
 facet normal  1.734722e-15 -8.271800e-22  1.000000e+00
   outer loop
     vertex  7.599628e-10  1.074471e-08  7.680000e-02
     vertex  1.600004e-02  5.600016e-02  7.680000e-02
     vertex  1.600004e-02  6.400016e-02  7.680000e-02
   endloop
 endfacet
 facet normal -1.000000e+00  6.715443e-07  0.000000e+00
   outer loop
     vertex  5.448351e-08  8.000001e-02  5.759998e-02
     vertex  7.599628e-10  1.074471e-08  0.000000e+00
     vertex  7.599628e-10  1.074471e-08  7.680000e-02
   endloop
 endfacet
 facet normal -1.000000e+00  6.715443e-07 -3.631181e-17
   outer loop
     vertex  9.209000e-08  1.360000e-01  7.680000e-02
     vertex  7.597293e-08  1.120000e-01  5.759998e-02
     vertex  5.448351e-08  8.000001e-02  5.759998e-02
   endloop
 endfacet
 facet normal -1.000000e+00  6.715443e-07 -1.190778e-16
   outer loop
     vertex  9.209000e-08  1.360000e-01  7.680000e-02
     vertex  5.448351e-08  8.000001e-02  5.759998e-02
     vertex  7.599628e-10  1.074471e-08  7.680000e-02
   endloop
 endfacet
 facet normal -1.000000e+00  6.715443e-07  0.000000e+00
   outer loop
     vertex  5.448351e-08  8.000001e-02  0.000000e+00
     vertex  7.599628e-10  1.074471e-08  0.000000e+00
     vertex  5.448351e-08  8.000001e-02  5.759998e-02
   endloop
 endfacet
 facet normal -1.000000e+00  6.715443e-07  0.000000e+00
   outer loop
     vertex  9.209000e-08  1.360000e-01  0.000000e+00
     vertex  7.597293e-08  1.120000e-01  0.000000e+00
     vertex  7.597293e-08  1.120000e-01  5.759998e-02
   endloop
 endfacet
 facet normal -1.000000e+00  6.715443e-07  0.000000e+00
   outer loop
     vertex  9.209000e-08  1.360000e-01  0.000000e+00
     vertex  7.597293e-08  1.120000e-01  5.759998e-02
     vertex  9.209000e-08  1.360000e-01  7.680000e-02
   endloop
 endfacet
 facet normal  0.000000e+00  0.000000e+00 -1.000000e+00
   outer loop
     vertex  5.448351e-08  8.000001e-02  0.000000e+00
     vertex  1.600005e-02  8.000001e-02  0.000000e+00
     vertex  1.600004e-02  6.400016e-02  0.000000e+00
   endloop
 endfacet
 facet normal  0.000000e+00  0.000000e+00 -1.000000e+00
   outer loop
     vertex  1.600004e-02  5.600016e-02  0.000000e+00
     vertex  5.448351e-08  8.000001e-02  0.000000e+00
     vertex  1.600004e-02  6.400016e-02  0.000000e+00
   endloop
 endfacet
 facet normal  0.000000e+00  0.000000e+00 -1.000000e+00
   outer loop
     vertex  7.599628e-10  1.074471e-08  0.000000e+00
     vertex  1.600004e-02  5.600016e-02  0.000000e+00
     vertex  1.600000e-02  1.600000e-02  0.000000e+00
   endloop
 endfacet
 facet normal  0.000000e+00  0.000000e+00 -1.000000e+00
   outer loop
     vertex  7.599628e-10  1.074471e-08  0.000000e+00
     vertex  1.600000e-02  1.600000e-02  0.000000e+00
     vertex  1.600000e-02  0.000000e+00  0.000000e+00
   endloop
 endfacet
 facet normal  0.000000e+00  0.000000e+00 -1.000000e+00
   outer loop
     vertex  7.599628e-10  1.074471e-08  0.000000e+00
     vertex  5.448351e-08  8.000001e-02  0.000000e+00
     vertex  1.600004e-02  5.600016e-02  0.000000e+00
   endloop
 endfacet
 facet normal -4.549821e-07 -1.000000e+00 -0.000000e+00
   outer loop
     vertex  1.920000e-01 -2.129499e-14  7.680000e-02
     vertex  1.760000e-01  7.279693e-09  0.000000e+00
     vertex  1.920000e-01 -2.129499e-14  0.000000e+00
   endloop
 endfacet
 facet normal -4.549821e-07 -1.000000e+00  0.000000e+00
   outer loop
     vertex  1.920000e-01 -2.129499e-14  7.680000e-02
     vertex  1.760000e-01  7.279693e-09  7.680000e-02
     vertex  1.760000e-01  7.279693e-09  0.000000e+00
   endloop
 endfacet
 facet normal  0.000000e+00  0.000000e+00 -1.000000e+00
   outer loop
     vertex  1.040000e-01  1.599998e-02  0.000000e+00
     vertex  1.760000e-01  1.600000e-02  0.000000e+00
     vertex  1.760000e-01  7.279693e-09  0.000000e+00
   endloop
 endfacet
 facet normal  0.000000e+00  0.000000e+00 -1.000000e+00
   outer loop
     vertex  9.600002e-02  1.599998e-02  0.000000e+00
     vertex  1.040000e-01  1.599998e-02  0.000000e+00
     vertex  1.760000e-01  7.279693e-09  0.000000e+00
   endloop
 endfacet
 facet normal  0.000000e+00  0.000000e+00 -1.000000e+00
   outer loop
     vertex  1.600000e-02  0.000000e+00  0.000000e+00
     vertex  9.600002e-02  1.599998e-02  0.000000e+00
     vertex  1.760000e-01  7.279693e-09  0.000000e+00
   endloop
 endfacet
 facet normal  0.000000e+00  0.000000e+00 -1.000000e+00
   outer loop
     vertex  1.600000e-02  1.600000e-02  0.000000e+00
     vertex  9.600002e-02  1.599998e-02  0.000000e+00
     vertex  1.600000e-02  0.000000e+00  0.000000e+00
   endloop
 endfacet
 facet normal -3.854942e-16 -3.529654e-23  1.000000e+00
   outer loop
     vertex  1.040000e-01  1.599998e-02  7.680000e-02
     vertex  1.760000e-01  7.279693e-09  7.680000e-02
     vertex  1.760000e-01  1.600000e-02  7.680000e-02
   endloop
 endfacet
 facet normal  9.581527e-22  1.734731e-15  1.000000e+00
   outer loop
     vertex  9.600002e-02  1.599998e-02  7.680000e-02
     vertex  1.760000e-01  7.279693e-09  7.680000e-02
     vertex  1.040000e-01  1.599998e-02  7.680000e-02
   endloop
 endfacet
 facet normal  8.673608e-17  2.168407e-15  1.000000e+00
   outer loop
     vertex  1.600000e-02  0.000000e+00  7.680000e-02
     vertex  1.760000e-01  7.279693e-09  7.680000e-02
     vertex  9.600002e-02  1.599998e-02  7.680000e-02
   endloop
 endfacet
 facet normal  3.469448e-16  8.673617e-16  1.000000e+00
   outer loop
     vertex  1.600000e-02  1.600000e-02  7.680000e-02
     vertex  1.600000e-02  0.000000e+00  7.680000e-02
     vertex  9.600002e-02  1.599998e-02  7.680000e-02
   endloop
 endfacet
 facet normal  6.534261e-07  1.000000e+00  0.000000e+00
   outer loop
     vertex  1.600005e-02  1.360000e-01  0.000000e+00
     vertex  9.209000e-08  1.360000e-01  0.000000e+00
     vertex  9.209000e-08  1.360000e-01  7.680000e-02
   endloop
 endfacet
 facet normal  6.534261e-07  1.000000e+00 -0.000000e+00
   outer loop
     vertex  1.600005e-02  1.360000e-01  0.000000e+00
     vertex  9.209000e-08  1.360000e-01  7.680000e-02
     vertex  1.600005e-02  1.360000e-01  7.680000e-02
   endloop
 endfacet
 facet normal -6.203830e-22 -8.673583e-16  1.000000e+00
   outer loop
     vertex  1.600000e-02  1.200000e-01  7.680000e-02
     vertex  1.760000e-01  1.199999e-01  7.680000e-02
     vertex  1.760001e-01  1.360000e-01  7.680000e-02
   endloop
 endfacet
 facet normal  8.673562e-17 -1.734724e-15  1.000000e+00
   outer loop
     vertex  1.600005e-02  1.360000e-01  7.680000e-02
     vertex  1.600000e-02  1.200000e-01  7.680000e-02
     vertex  1.760001e-01  1.360000e-01  7.680000e-02
   endloop
 endfacet
 facet normal  1.000000e+00  7.666136e-07  1.200989e-06
   outer loop
     vertex  1.600005e-02  8.000001e-02  5.759998e-02
     vertex  1.600000e-02  1.200000e-01  7.680000e-02
     vertex  1.600004e-02  6.400016e-02  7.680000e-02
   endloop
 endfacet
 facet normal  1.000000e+00 -6.715443e-07  4.197148e-06
   outer loop
     vertex  1.600005e-02  8.000001e-02  5.759998e-02
     vertex  1.600008e-02  1.120000e-01  5.759998e-02
     vertex  1.600000e-02  1.200000e-01  7.680000e-02
   endloop
 endfacet
 facet normal  1.000000e+00  9.401613e-06 -0.000000e+00
   outer loop
     vertex  1.600000e-02  1.200000e-01  0.000000e+00
     vertex  1.600000e-02  1.200000e-01  7.680000e-02
     vertex  1.600008e-02  1.120000e-01  5.759998e-02
   endloop
 endfacet
 facet normal  1.000000e+00  9.401613e-06 -0.000000e+00
   outer loop
     vertex  1.600008e-02  1.120000e-01  0.000000e+00
     vertex  1.600000e-02  1.200000e-01  0.000000e+00
     vertex  1.600008e-02  1.120000e-01  5.759998e-02
   endloop
 endfacet
 facet normal  1.000000e+00 -6.745880e-07  0.000000e+00
   outer loop
     vertex  1.600004e-02  6.400016e-02  0.000000e+00
     vertex  1.600005e-02  8.000001e-02  0.000000e+00
     vertex  1.600005e-02  8.000001e-02  5.759998e-02
   endloop
 endfacet
 facet normal  1.000000e+00 -6.745880e-07  0.000000e+00
   outer loop
     vertex  1.600004e-02  6.400016e-02  0.000000e+00
     vertex  1.600005e-02  8.000001e-02  5.759998e-02
     vertex  1.600004e-02  6.400016e-02  7.680000e-02
   endloop
 endfacet
 facet normal  8.271882e-22  1.734739e-15  1.000000e+00
   outer loop
     vertex  1.600004e-02  5.600016e-02  7.680000e-02
     vertex  6.400004e-02  5.600014e-02  7.680000e-02
     vertex  6.400003e-02  6.400006e-02  7.680000e-02
   endloop
 endfacet
 facet normal  2.891206e-16 -1.378635e-22  1.000000e+00
   outer loop
     vertex  1.600004e-02  5.600016e-02  7.680000e-02
     vertex  6.400003e-02  6.400006e-02  7.680000e-02
     vertex  1.600004e-02  6.400016e-02  7.680000e-02
   endloop
 endfacet
 facet normal  1.000000e+00 -9.778848e-07  0.000000e+00
   outer loop
     vertex  1.600000e-02  1.600000e-02  0.000000e+00
     vertex  1.600004e-02  5.600016e-02  0.000000e+00
     vertex  1.600004e-02  5.600016e-02  7.680000e-02
   endloop
 endfacet
 facet normal  1.000000e+00 -9.778848e-07  0.000000e+00
   outer loop
     vertex  1.600000e-02  1.600000e-02  0.000000e+00
     vertex  1.600004e-02  5.600016e-02  7.680000e-02
     vertex  1.600000e-02  1.600000e-02  7.680000e-02
   endloop
 endfacet
 facet normal  5.523351e-07  1.000000e+00 -0.000000e+00
   outer loop
     vertex  1.600005e-02  8.000001e-02  0.000000e+00
     vertex  5.448351e-08  8.000001e-02  5.759998e-02
     vertex  1.600005e-02  8.000001e-02  5.759998e-02
   endloop
 endfacet
 facet normal  5.523351e-07  1.000000e+00  0.000000e+00
   outer loop
     vertex  1.600005e-02  8.000001e-02  0.000000e+00
     vertex  5.448351e-08  8.000001e-02  0.000000e+00
     vertex  5.448351e-08  8.000001e-02  5.759998e-02
   endloop
 endfacet
 facet normal  0.000000e+00  0.000000e+00 -1.000000e+00
   outer loop
     vertex  7.597293e-08  1.120000e-01  5.759998e-02
     vertex  1.600008e-02  1.120000e-01  5.759998e-02
     vertex  1.600005e-02  8.000001e-02  5.759998e-02
   endloop
 endfacet
 facet normal  0.000000e+00 -0.000000e+00 -1.000000e+00
   outer loop
     vertex  7.597293e-08  1.120000e-01  5.759998e-02
     vertex  1.600005e-02  8.000001e-02  5.759998e-02
     vertex  5.448351e-08  8.000001e-02  5.759998e-02
   endloop
 endfacet
 facet normal -5.523350e-07 -1.000000e+00 -0.000000e+00
   outer loop
     vertex  1.600008e-02  1.120000e-01  5.759998e-02
     vertex  7.597293e-08  1.120000e-01  0.000000e+00
     vertex  1.600008e-02  1.120000e-01  0.000000e+00
   endloop
 endfacet
 facet normal -5.523350e-07 -1.000000e+00  0.000000e+00
   outer loop
     vertex  1.600008e-02  1.120000e-01  5.759998e-02
     vertex  7.597293e-08  1.120000e-01  5.759998e-02
     vertex  7.597293e-08  1.120000e-01  0.000000e+00
   endloop
 endfacet
 facet normal  0.000000e+00  0.000000e+00 -1.000000e+00
   outer loop
     vertex  9.209000e-08  1.360000e-01  0.000000e+00
     vertex  1.600005e-02  1.360000e-01  0.000000e+00
     vertex  1.600000e-02  1.200000e-01  0.000000e+00
   endloop
 endfacet
 facet normal  0.000000e+00  0.000000e+00 -1.000000e+00
   outer loop
     vertex  7.597293e-08  1.120000e-01  0.000000e+00
     vertex  1.600000e-02  1.200000e-01  0.000000e+00
     vertex  1.600008e-02  1.120000e-01  0.000000e+00
   endloop
 endfacet
 facet normal  0.000000e+00  0.000000e+00 -1.000000e+00
   outer loop
     vertex  7.597293e-08  1.120000e-01  0.000000e+00
     vertex  9.209000e-08  1.360000e-01  0.000000e+00
     vertex  1.600000e-02  1.200000e-01  0.000000e+00
   endloop
 endfacet
 facet normal  0.000000e+00  0.000000e+00 -1.000000e+00
   outer loop
     vertex  1.600004e-02  5.600016e-02  0.000000e+00
     vertex  2.400000e-02  6.400015e-02  0.000000e+00
     vertex  2.400000e-02  5.600015e-02  0.000000e+00
   endloop
 endfacet
 facet normal  0.000000e+00  0.000000e+00 -1.000000e+00
   outer loop
     vertex  1.600004e-02  5.600016e-02  0.000000e+00
     vertex  1.600004e-02  6.400016e-02  0.000000e+00
     vertex  2.400000e-02  6.400015e-02  0.000000e+00
   endloop
 endfacet
 facet normal  0.000000e+00  0.000000e+00 -1.000000e+00
   outer loop
     vertex  1.760000e-01  1.600000e-02  0.000000e+00
     vertex  1.760001e-01  8.000002e-02  0.000000e+00
     vertex  1.920001e-01  8.000001e-02  0.000000e+00
   endloop
 endfacet
 facet normal  0.000000e+00  0.000000e+00 -1.000000e+00
   outer loop
     vertex  1.920000e-01 -2.129499e-14  0.000000e+00
     vertex  1.760000e-01  7.279693e-09  0.000000e+00
     vertex  1.760000e-01  1.600000e-02  0.000000e+00
   endloop
 endfacet
 facet normal  0.000000e+00  0.000000e+00 -1.000000e+00
   outer loop
     vertex  1.920000e-01 -2.129499e-14  0.000000e+00
     vertex  1.760000e-01  1.600000e-02  0.000000e+00
     vertex  1.920001e-01  8.000001e-02  0.000000e+00
   endloop
 endfacet
 facet normal  2.691556e-21 -8.673583e-16  1.000000e+00
   outer loop
     vertex  1.760000e-01  1.199999e-01  7.680000e-02
     vertex  1.920001e-01  1.360000e-01  7.680000e-02
     vertex  1.760001e-01  1.360000e-01  7.680000e-02
   endloop
 endfacet
 facet normal  0.000000e+00  0.000000e+00  1.000000e+00
   outer loop
     vertex  1.920000e-01 -2.129499e-14  7.680000e-02
     vertex  1.760000e-01  1.600000e-02  7.680000e-02
     vertex  1.760000e-01  7.279693e-09  7.680000e-02
   endloop
 endfacet
 facet normal -8.673557e-16  7.892615e-22  1.000000e+00
   outer loop
     vertex  1.920000e-01 -2.129499e-14  7.680000e-02
     vertex  1.920001e-01  1.360000e-01  7.680000e-02
     vertex  1.760000e-01  1.199999e-01  7.680000e-02
   endloop
 endfacet
 facet normal  1.334404e-16  1.334404e-16  1.000000e+00
   outer loop
     vertex  1.920000e-01 -2.129499e-14  7.680000e-02
     vertex  1.760000e-01  1.199999e-01  7.680000e-02
     vertex  1.760000e-01  1.600000e-02  7.680000e-02
   endloop
 endfacet
 facet normal  1.000000e+00 -9.099629e-07  1.308664e-15
   outer loop
     vertex  1.920001e-01  8.000001e-02  5.759998e-02
     vertex  1.920001e-01  1.120000e-01  5.759998e-02
     vertex  1.920001e-01  1.360000e-01  7.680000e-02
   endloop
 endfacet
 facet normal  1.000000e+00 -9.099629e-07  0.000000e+00
   outer loop
     vertex  1.920001e-01  1.360000e-01  0.000000e+00
     vertex  1.920001e-01  1.360000e-01  7.680000e-02
     vertex  1.920001e-01  1.120000e-01  5.759998e-02
   endloop
 endfacet
 facet normal  1.000000e+00 -9.099629e-07  0.000000e+00
   outer loop
     vertex  1.920001e-01  1.120000e-01  0.000000e+00
     vertex  1.920001e-01  1.360000e-01  0.000000e+00
     vertex  1.920001e-01  1.120000e-01  5.759998e-02
   endloop
 endfacet
 facet normal  1.000000e+00 -9.099629e-07  7.910952e-16
   outer loop
     vertex  1.920000e-01 -2.129499e-14  7.680000e-02
     vertex  1.920001e-01  8.000001e-02  5.759998e-02
     vertex  1.920001e-01  1.360000e-01  7.680000e-02
   endloop
 endfacet
 facet normal  1.000000e+00 -9.099629e-07 -1.617897e-16
   outer loop
     vertex  1.920000e-01 -2.129499e-14  7.680000e-02
     vertex  1.920001e-01  5.600000e-02  4.800000e-02
     vertex  1.920001e-01  8.000001e-02  5.759998e-02
   endloop
 endfacet
 facet normal  1.000000e+00 -9.099629e-07  0.000000e+00
   outer loop
     vertex  1.920001e-01  5.600000e-02  1.920000e-02
     vertex  1.920001e-01  8.000001e-02  0.000000e+00
     vertex  1.920001e-01  8.000001e-02  5.759998e-02
   endloop
 endfacet
 facet normal  1.000000e+00 -9.099629e-07  0.000000e+00
   outer loop
     vertex  1.920001e-01  5.600000e-02  1.920000e-02
     vertex  1.920001e-01  8.000001e-02  5.759998e-02
     vertex  1.920001e-01  5.600000e-02  4.800000e-02
   endloop
 endfacet
 facet normal  1.000000e+00 -9.099629e-07  1.549222e-16
   outer loop
     vertex  1.920000e-01  2.400000e-02  4.800000e-02
     vertex  1.920001e-01  5.600000e-02  4.800000e-02
     vertex  1.920000e-01 -2.129499e-14  7.680000e-02
   endloop
 endfacet
 facet normal  1.000000e+00 -9.099629e-07 -2.323830e-16
   outer loop
     vertex  1.920000e-01 -2.129499e-14  0.000000e+00
     vertex  1.920001e-01  5.600000e-02  1.920000e-02
     vertex  1.920000e-01  2.400000e-02  1.920000e-02
   endloop
 endfacet
 facet normal  1.000000e+00 -9.099629e-07  0.000000e+00
   outer loop
     vertex  1.920000e-01 -2.129499e-14  0.000000e+00
     vertex  1.920000e-01  2.400000e-02  1.920000e-02
     vertex  1.920000e-01  2.400000e-02  4.800000e-02
   endloop
 endfacet
 facet normal  1.000000e+00 -9.099629e-07  1.294317e-16
   outer loop
     vertex  1.920000e-01 -2.129499e-14  0.000000e+00
     vertex  1.920001e-01  8.000001e-02  0.000000e+00
     vertex  1.920001e-01  5.600000e-02  1.920000e-02
   endloop
 endfacet
 facet normal  1.000000e+00 -9.099629e-07  0.000000e+00
   outer loop
     vertex  1.920000e-01 -2.129499e-14  0.000000e+00
     vertex  1.920000e-01  2.400000e-02  4.800000e-02
     vertex  1.920000e-01 -2.129499e-14  7.680000e-02
   endloop
 endfacet
 facet normal  2.146637e-07  1.000000e+00  0.000000e+00
   outer loop
     vertex  9.600002e-02  1.599998e-02  0.000000e+00
     vertex  1.600000e-02  1.600000e-02  0.000000e+00
     vertex  1.600000e-02  1.600000e-02  7.680000e-02
   endloop
 endfacet
 facet normal  2.146637e-07  1.000000e+00 -0.000000e+00
   outer loop
     vertex  9.600002e-02  1.599998e-02  0.000000e+00
     vertex  1.600000e-02  1.600000e-02  7.680000e-02
     vertex  9.600002e-02  1.599998e-02  7.680000e-02
   endloop
 endfacet
 facet normal  0.000000e+00  0.000000e+00 -1.000000e+00
   outer loop
     vertex  9.600000e-02  4.800004e-02  0.000000e+00
     vertex  9.600004e-02  5.599998e-02  0.000000e+00
     vertex  1.040000e-01  5.599998e-02  0.000000e+00
   endloop
 endfacet
 facet normal  0.000000e+00  0.000000e+00 -1.000000e+00
   outer loop
     vertex  9.600000e-02  4.000004e-02  0.000000e+00
     vertex  9.600000e-02  4.800004e-02  0.000000e+00
     vertex  1.040000e-01  5.599998e-02  0.000000e+00
   endloop
 endfacet
 facet normal  0.000000e+00  0.000000e+00 -1.000000e+00
   outer loop
     vertex  1.040000e-01  1.599998e-02  0.000000e+00
     vertex  9.600000e-02  4.000004e-02  0.000000e+00
     vertex  1.040000e-01  5.599998e-02  0.000000e+00
   endloop
 endfacet
 facet normal  0.000000e+00  0.000000e+00 -1.000000e+00
   outer loop
     vertex  9.600002e-02  1.599998e-02  0.000000e+00
     vertex  9.600000e-02  4.000004e-02  0.000000e+00
     vertex  1.040000e-01  1.599998e-02  0.000000e+00
   endloop
 endfacet
 facet normal -2.998859e-07  1.000000e+00  0.000000e+00
   outer loop
     vertex  1.760000e-01  1.600000e-02  0.000000e+00
     vertex  1.040000e-01  1.599998e-02  0.000000e+00
     vertex  1.040000e-01  1.599998e-02  7.680000e-02
   endloop
 endfacet
 facet normal -2.998859e-07  1.000000e+00  0.000000e+00
   outer loop
     vertex  1.760000e-01  1.600000e-02  0.000000e+00
     vertex  1.040000e-01  1.599998e-02  7.680000e-02
     vertex  1.760000e-01  1.600000e-02  7.680000e-02
   endloop
 endfacet
 facet normal  1.916310e-21  3.469470e-15  1.000000e+00
   outer loop
     vertex  9.600000e-02  4.800004e-02  7.680000e-02
     vertex  1.040000e-01  5.599998e-02  7.680000e-02
     vertex  9.600004e-02  5.599998e-02  7.680000e-02
   endloop
 endfacet
 facet normal  3.469430e-15 -0.000000e+00  1.000000e+00
   outer loop
     vertex  9.600000e-02  4.000004e-02  7.680000e-02
     vertex  1.040000e-01  5.599998e-02  7.680000e-02
     vertex  9.600000e-02  4.800004e-02  7.680000e-02
   endloop
 endfacet
 facet normal  3.469434e-15 -1.916290e-21  1.000000e+00
   outer loop
     vertex  1.040000e-01  1.599998e-02  7.680000e-02
     vertex  1.040000e-01  5.599998e-02  7.680000e-02
     vertex  9.600000e-02  4.000004e-02  7.680000e-02
   endloop
 endfacet
 facet normal -6.387643e-22 -1.156480e-15  1.000000e+00
   outer loop
     vertex  9.600002e-02  1.599998e-02  7.680000e-02
     vertex  1.040000e-01  1.599998e-02  7.680000e-02
     vertex  9.600000e-02  4.000004e-02  7.680000e-02
   endloop
 endfacet
 facet normal  3.121297e-07  1.000000e+00  0.000000e+00
   outer loop
     vertex  1.760001e-01  1.360000e-01  7.680000e-02
     vertex  1.600005e-02  1.360000e-01  0.000000e+00
     vertex  1.600005e-02  1.360000e-01  7.680000e-02
   endloop
 endfacet
 facet normal  3.121297e-07  1.000000e+00 -0.000000e+00
   outer loop
     vertex  1.760001e-01  1.360000e-01  0.000000e+00
     vertex  1.600005e-02  1.360000e-01  0.000000e+00
     vertex  1.760001e-01  1.360000e-01  7.680000e-02
   endloop
 endfacet
 facet normal -7.152557e-07 -1.000000e+00  0.000000e+00
   outer loop
     vertex  1.600000e-02  1.200000e-01  0.000000e+00
     vertex  1.760000e-01  1.199999e-01  0.000000e+00
     vertex  1.760000e-01  1.199999e-01  7.680000e-02
   endloop
 endfacet
 facet normal -7.152557e-07 -1.000000e+00  0.000000e+00
   outer loop
     vertex  1.600000e-02  1.200000e-01  0.000000e+00
     vertex  1.760000e-01  1.199999e-01  7.680000e-02
     vertex  1.600000e-02  1.200000e-01  7.680000e-02
   endloop
 endfacet
 facet normal  1.999414e-06  1.000000e+00  3.172028e-06
   outer loop
     vertex  1.600004e-02  6.400016e-02  7.680000e-02
     vertex  6.400003e-02  6.400006e-02  7.680000e-02
     vertex  5.599999e-02  6.400014e-02  5.759998e-02
   endloop
 endfacet
 facet normal  4.768372e-07  1.000000e+00 -1.379106e-15
   outer loop
     vertex  2.400000e-02  6.400015e-02  5.759998e-02
     vertex  1.600004e-02  6.400016e-02  7.680000e-02
     vertex  5.599999e-02  6.400014e-02  5.759998e-02
   endloop
 endfacet
 facet normal  9.612248e-06  1.000000e+00 -0.000000e+00
   outer loop
     vertex  6.400003e-02  6.400006e-02  0.000000e+00
     vertex  5.599999e-02  6.400014e-02  5.759998e-02
     vertex  6.400003e-02  6.400006e-02  7.680000e-02
   endloop
 endfacet
 facet normal  9.612248e-06  1.000000e+00 -0.000000e+00
   outer loop
     vertex  5.599999e-02  6.400014e-02  0.000000e+00
     vertex  5.599999e-02  6.400014e-02  5.759998e-02
     vertex  6.400003e-02  6.400006e-02  0.000000e+00
   endloop
 endfacet
 facet normal  4.768372e-07  1.000000e+00  0.000000e+00
   outer loop
     vertex  1.600004e-02  6.400016e-02  0.000000e+00
     vertex  2.400000e-02  6.400015e-02  5.759998e-02
     vertex  2.400000e-02  6.400015e-02  0.000000e+00
   endloop
 endfacet
 facet normal  4.768372e-07  1.000000e+00 -0.000000e+00
   outer loop
     vertex  1.600004e-02  6.400016e-02  0.000000e+00
     vertex  1.600004e-02  6.400016e-02  7.680000e-02
     vertex  2.400000e-02  6.400015e-02  5.759998e-02
   endloop
 endfacet
 facet normal  1.680582e-20  1.734739e-15  1.000000e+00
   outer loop
     vertex  6.400004e-02  5.600014e-02  7.680000e-02
     vertex  7.200003e-02  6.399998e-02  7.680000e-02
     vertex  6.400003e-02  6.400006e-02  7.680000e-02
   endloop
 endfacet
 facet normal  2.705424e-20  1.734729e-15  1.000000e+00
   outer loop
     vertex  7.200000e-02  4.800004e-02  7.680000e-02
     vertex  7.200003e-02  6.399998e-02  7.680000e-02
     vertex  6.400004e-02  5.600014e-02  7.680000e-02
   endloop
 endfacet
 facet normal -1.734720e-15 -1.734719e-15  1.000000e+00
   outer loop
     vertex  6.400001e-02  3.999999e-02  7.680000e-02
     vertex  7.200001e-02  4.000001e-02  7.680000e-02
     vertex  7.200000e-02  4.800004e-02  7.680000e-02
   endloop
 endfacet
 facet normal -2.602095e-15 -8.673493e-16  1.000000e+00
   outer loop
     vertex  6.400001e-02  3.999999e-02  7.680000e-02
     vertex  7.200000e-02  4.800004e-02  7.680000e-02
     vertex  6.400004e-02  5.600014e-02  7.680000e-02
   endloop
 endfacet
 facet normal -4.768372e-07 -1.000000e+00  1.249106e-15
   outer loop
     vertex  1.600004e-02  5.600016e-02  7.680000e-02
     vertex  5.599999e-02  5.600014e-02  5.759998e-02
     vertex  6.400004e-02  5.600014e-02  7.680000e-02
   endloop
 endfacet
 facet normal -4.768372e-07 -1.000000e+00  1.469455e-15
   outer loop
     vertex  2.400000e-02  5.600015e-02  5.759998e-02
     vertex  5.599999e-02  5.600014e-02  5.759998e-02
     vertex  1.600004e-02  5.600016e-02  7.680000e-02
   endloop
 endfacet
 facet normal -4.768372e-07 -1.000000e+00  0.000000e+00
   outer loop
     vertex  6.400004e-02  5.600014e-02  0.000000e+00
     vertex  6.400004e-02  5.600014e-02  7.680000e-02
     vertex  5.599999e-02  5.600014e-02  5.759998e-02
   endloop
 endfacet
 facet normal -4.768372e-07 -1.000000e+00  0.000000e+00
   outer loop
     vertex  5.599999e-02  5.600014e-02  0.000000e+00
     vertex  6.400004e-02  5.600014e-02  0.000000e+00
     vertex  5.599999e-02  5.600014e-02  5.759998e-02
   endloop
 endfacet
 facet normal -4.768372e-07 -1.000000e+00  0.000000e+00
   outer loop
     vertex  1.600004e-02  5.600016e-02  0.000000e+00
     vertex  2.400000e-02  5.600015e-02  0.000000e+00
     vertex  2.400000e-02  5.600015e-02  5.759998e-02
   endloop
 endfacet
 facet normal -4.768372e-07 -1.000000e+00  0.000000e+00
   outer loop
     vertex  1.600004e-02  5.600016e-02  0.000000e+00
     vertex  2.400000e-02  5.600015e-02  5.759998e-02
     vertex  1.600004e-02  5.600016e-02  7.680000e-02
   endloop
 endfacet
 facet normal  0.000000e+00  0.000000e+00 -1.000000e+00
   outer loop
     vertex  1.600000e-02  1.200000e-01  0.000000e+00
     vertex  1.760001e-01  1.360000e-01  0.000000e+00
     vertex  1.760000e-01  1.199999e-01  0.000000e+00
   endloop
 endfacet
 facet normal  0.000000e+00 -0.000000e+00 -1.000000e+00
   outer loop
     vertex  1.600005e-02  1.360000e-01  0.000000e+00
     vertex  1.760001e-01  1.360000e-01  0.000000e+00
     vertex  1.600000e-02  1.200000e-01  0.000000e+00
   endloop
 endfacet
 facet normal  1.000000e+00 -4.768372e-07  0.000000e+00
   outer loop
     vertex  2.400000e-02  5.600015e-02  5.759998e-02
     vertex  2.400000e-02  5.600015e-02  0.000000e+00
     vertex  2.400000e-02  6.400015e-02  0.000000e+00
   endloop
 endfacet
 facet normal  1.000000e+00 -4.768372e-07  0.000000e+00
   outer loop
     vertex  2.400000e-02  5.600015e-02  5.759998e-02
     vertex  2.400000e-02  6.400015e-02  0.000000e+00
     vertex  2.400000e-02  6.400015e-02  5.759998e-02
   endloop
 endfacet
 facet normal  9.099629e-07  1.000000e+00  0.000000e+00
   outer loop
     vertex  1.920001e-01  8.000001e-02  5.759998e-02
     vertex  1.920001e-01  8.000001e-02  0.000000e+00
     vertex  1.760001e-01  8.000002e-02  0.000000e+00
   endloop
 endfacet
 facet normal  9.099629e-07  1.000000e+00  0.000000e+00
   outer loop
     vertex  1.920001e-01  8.000001e-02  5.759998e-02
     vertex  1.760001e-01  8.000002e-02  0.000000e+00
     vertex  1.760001e-01  8.000002e-02  5.759998e-02
   endloop
 endfacet
 facet normal -1.000000e+00  9.099629e-07 -5.839859e-06
   outer loop
     vertex  1.760001e-01  8.000002e-02  5.759998e-02
     vertex  1.760000e-01  1.199999e-01  7.680000e-02
     vertex  1.760001e-01  1.120000e-01  5.759998e-02
   endloop
 endfacet
 facet normal -1.000000e+00 -1.310593e-05  0.000000e+00
   outer loop
     vertex  1.760000e-01  1.199999e-01  0.000000e+00
     vertex  1.760001e-01  1.120000e-01  5.759998e-02
     vertex  1.760000e-01  1.199999e-01  7.680000e-02
   endloop
 endfacet
 facet normal -1.000000e+00 -1.310593e-05  0.000000e+00
   outer loop
     vertex  1.760001e-01  1.120000e-01  0.000000e+00
     vertex  1.760001e-01  1.120000e-01  5.759998e-02
     vertex  1.760000e-01  1.199999e-01  0.000000e+00
   endloop
 endfacet
 facet normal -1.000000e+00 -1.894854e-14 -3.944111e-06
   outer loop
     vertex  1.760000e-01  1.600000e-02  7.680000e-02
     vertex  1.760000e-01  1.199999e-01  7.680000e-02
     vertex  1.760001e-01  8.000002e-02  5.759998e-02
   endloop
 endfacet
 facet normal -1.000000e+00  1.066118e-06 -3.903878e-07
   outer loop
     vertex  1.760000e-01  1.600000e-02  7.680000e-02
     vertex  1.760001e-01  8.000002e-02  5.759998e-02
     vertex  1.760001e-01  5.600001e-02  4.800000e-02
   endloop
 endfacet
 facet normal -1.000000e+00  9.099629e-07  0.000000e+00
   outer loop
     vertex  1.760001e-01  5.600001e-02  1.920000e-02
     vertex  1.760001e-01  8.000002e-02  5.759998e-02
     vertex  1.760001e-01  8.000002e-02  0.000000e+00
   endloop
 endfacet
 facet normal -1.000000e+00  9.099629e-07  0.000000e+00
   outer loop
     vertex  1.760001e-01  5.600001e-02  1.920000e-02
     vertex  1.760001e-01  5.600001e-02  4.800000e-02
     vertex  1.760001e-01  8.000002e-02  5.759998e-02
   endloop
 endfacet
 facet normal -1.000000e+00  9.099629e-07 -6.072696e-07
   outer loop
     vertex  1.760000e-01  2.400001e-02  4.800000e-02
     vertex  1.760000e-01  1.600000e-02  7.680000e-02
     vertex  1.760001e-01  5.600001e-02  4.800000e-02
   endloop
 endfacet
 facet normal -1.000000e+00  9.099629e-07  9.109046e-07
   outer loop
     vertex  1.760000e-01  1.600000e-02  0.000000e+00
     vertex  1.760000e-01  2.400001e-02  1.920000e-02
     vertex  1.760001e-01  5.600001e-02  1.920000e-02
   endloop
 endfacet
 facet normal -1.000000e+00  3.096130e-06  0.000000e+00
   outer loop
     vertex  1.760000e-01  1.600000e-02  0.000000e+00
     vertex  1.760000e-01  2.400001e-02  4.800000e-02
     vertex  1.760000e-01  2.400001e-02  1.920000e-02
   endloop
 endfacet
 facet normal -1.000000e+00  1.183234e-06  3.415892e-07
   outer loop
     vertex  1.760000e-01  1.600000e-02  0.000000e+00
     vertex  1.760001e-01  5.600001e-02  1.920000e-02
     vertex  1.760001e-01  8.000002e-02  0.000000e+00
   endloop
 endfacet
 facet normal -1.000000e+00  3.096130e-06  0.000000e+00
   outer loop
     vertex  1.760000e-01  1.600000e-02  0.000000e+00
     vertex  1.760000e-01  1.600000e-02  7.680000e-02
     vertex  1.760000e-01  2.400001e-02  4.800000e-02
   endloop
 endfacet
 facet normal -3.103166e-06  1.000000e+00  0.000000e+00
   outer loop
     vertex  1.920001e-01  1.360000e-01  7.680000e-02
     vertex  1.920001e-01  1.360000e-01  0.000000e+00
     vertex  1.760001e-01  1.360000e-01  0.000000e+00
   endloop
 endfacet
 facet normal -3.103166e-06  1.000000e+00  0.000000e+00
   outer loop
     vertex  1.920001e-01  1.360000e-01  7.680000e-02
     vertex  1.760001e-01  1.360000e-01  0.000000e+00
     vertex  1.760001e-01  1.360000e-01  7.680000e-02
   endloop
 endfacet
 facet normal  0.000000e+00  0.000000e+00 -1.000000e+00
   outer loop
     vertex  1.760000e-01  1.199999e-01  0.000000e+00
     vertex  1.760001e-01  1.360000e-01  0.000000e+00
     vertex  1.920001e-01  1.360000e-01  0.000000e+00
   endloop
 endfacet
 facet normal  0.000000e+00  0.000000e+00 -1.000000e+00
   outer loop
     vertex  1.920001e-01  1.120000e-01  0.000000e+00
     vertex  1.760001e-01  1.120000e-01  0.000000e+00
     vertex  1.760000e-01  1.199999e-01  0.000000e+00
   endloop
 endfacet
 facet normal  0.000000e+00  0.000000e+00 -1.000000e+00
   outer loop
     vertex  1.920001e-01  1.120000e-01  0.000000e+00
     vertex  1.760000e-01  1.199999e-01  0.000000e+00
     vertex  1.920001e-01  1.360000e-01  0.000000e+00
   endloop
 endfacet
 facet normal -9.099629e-07 -1.000000e+00 -0.000000e+00
   outer loop
     vertex  1.920001e-01  1.120000e-01  5.759998e-02
     vertex  1.760001e-01  1.120000e-01  0.000000e+00
     vertex  1.920001e-01  1.120000e-01  0.000000e+00
   endloop
 endfacet
 facet normal -9.099629e-07 -1.000000e+00  0.000000e+00
   outer loop
     vertex  1.920001e-01  1.120000e-01  5.759998e-02
     vertex  1.760001e-01  1.120000e-01  5.759998e-02
     vertex  1.760001e-01  1.120000e-01  0.000000e+00
   endloop
 endfacet
 facet normal  0.000000e+00  0.000000e+00 -1.000000e+00
   outer loop
     vertex  1.920001e-01  1.120000e-01  5.759998e-02
     vertex  1.920001e-01  8.000001e-02  5.759998e-02
     vertex  1.760001e-01  8.000002e-02  5.759998e-02
   endloop
 endfacet
 facet normal -0.000000e+00  0.000000e+00 -1.000000e+00
   outer loop
     vertex  1.920001e-01  1.120000e-01  5.759998e-02
     vertex  1.760001e-01  8.000002e-02  5.759998e-02
     vertex  1.760001e-01  1.120000e-01  5.759998e-02
   endloop
 endfacet
 facet normal  0.000000e+00  0.000000e+00  1.000000e+00
   outer loop
     vertex  1.920001e-01  5.600000e-02  1.920000e-02
     vertex  1.760000e-01  2.400001e-02  1.920000e-02
     vertex  1.920000e-01  2.400000e-02  1.920000e-02
   endloop
 endfacet
 facet normal  0.000000e+00  0.000000e+00  1.000000e+00
   outer loop
     vertex  1.920001e-01  5.600000e-02  1.920000e-02
     vertex  1.760001e-01  5.600001e-02  1.920000e-02
     vertex  1.760000e-01  2.400001e-02  1.920000e-02
   endloop
 endfacet
 facet normal -9.099629e-07 -1.000000e+00 -0.000000e+00
   outer loop
     vertex  1.920001e-01  5.600000e-02  4.800000e-02
     vertex  1.760001e-01  5.600001e-02  1.920000e-02
     vertex  1.920001e-01  5.600000e-02  1.920000e-02
   endloop
 endfacet
 facet normal -9.099629e-07 -1.000000e+00  0.000000e+00
   outer loop
     vertex  1.920001e-01  5.600000e-02  4.800000e-02
     vertex  1.760001e-01  5.600001e-02  4.800000e-02
     vertex  1.760001e-01  5.600001e-02  1.920000e-02
   endloop
 endfacet
 facet normal  0.000000e+00  0.000000e+00 -1.000000e+00
   outer loop
     vertex  1.920001e-01  5.600000e-02  4.800000e-02
     vertex  1.920000e-01  2.400000e-02  4.800000e-02
     vertex  1.760000e-01  2.400001e-02  4.800000e-02
   endloop
 endfacet
 facet normal -0.000000e+00  0.000000e+00 -1.000000e+00
   outer loop
     vertex  1.920001e-01  5.600000e-02  4.800000e-02
     vertex  1.760000e-01  2.400001e-02  4.800000e-02
     vertex  1.760001e-01  5.600001e-02  4.800000e-02
   endloop
 endfacet
 facet normal  9.099629e-07  1.000000e+00  0.000000e+00
   outer loop
     vertex  1.920000e-01  2.400000e-02  4.800000e-02
     vertex  1.920000e-01  2.400000e-02  1.920000e-02
     vertex  1.760000e-01  2.400001e-02  1.920000e-02
   endloop
 endfacet
 facet normal  9.099629e-07  1.000000e+00  0.000000e+00
   outer loop
     vertex  1.920000e-01  2.400000e-02  4.800000e-02
     vertex  1.760000e-01  2.400001e-02  1.920000e-02
     vertex  1.760000e-01  2.400001e-02  4.800000e-02
   endloop
 endfacet
 facet normal -1.000000e+00 -6.628868e-07  0.000000e+00
   outer loop
     vertex  9.600000e-02  4.000004e-02  0.000000e+00
     vertex  9.600002e-02  1.599998e-02  0.000000e+00
     vertex  9.600002e-02  1.599998e-02  7.680000e-02
   endloop
 endfacet
 facet normal -1.000000e+00 -6.628868e-07  0.000000e+00
   outer loop
     vertex  9.600000e-02  4.000004e-02  0.000000e+00
     vertex  9.600002e-02  1.599998e-02  7.680000e-02
     vertex  9.600000e-02  4.000004e-02  7.680000e-02
   endloop
 endfacet
 facet normal  0.000000e+00  0.000000e+00 -1.000000e+00
   outer loop
     vertex  7.200000e-02  4.800004e-02  0.000000e+00
     vertex  9.600000e-02  4.800004e-02  0.000000e+00
     vertex  9.600000e-02  4.000004e-02  0.000000e+00
   endloop
 endfacet
 facet normal  0.000000e+00  0.000000e+00 -1.000000e+00
   outer loop
     vertex  7.200000e-02  4.800004e-02  0.000000e+00
     vertex  9.600000e-02  4.000004e-02  0.000000e+00
     vertex  7.200001e-02  4.000001e-02  0.000000e+00
   endloop
 endfacet
 facet normal -1.000000e+00  4.750372e-06  0.000000e+00
   outer loop
     vertex  9.600004e-02  5.599998e-02  0.000000e+00
     vertex  9.600000e-02  4.800004e-02  0.000000e+00
     vertex  9.600000e-02  4.800004e-02  7.680000e-02
   endloop
 endfacet
 facet normal -1.000000e+00  4.750372e-06  0.000000e+00
   outer loop
     vertex  9.600004e-02  5.599998e-02  0.000000e+00
     vertex  9.600000e-02  4.800004e-02  7.680000e-02
     vertex  9.600004e-02  5.599998e-02  7.680000e-02
   endloop
 endfacet
 facet normal  5.523351e-07  1.000000e+00  0.000000e+00
   outer loop
     vertex  1.040000e-01  5.599998e-02  0.000000e+00
     vertex  9.600004e-02  5.599998e-02  0.000000e+00
     vertex  9.600004e-02  5.599998e-02  7.680000e-02
   endloop
 endfacet
 facet normal  5.523351e-07  1.000000e+00 -0.000000e+00
   outer loop
     vertex  1.040000e-01  5.599998e-02  0.000000e+00
     vertex  9.600004e-02  5.599998e-02  7.680000e-02
     vertex  1.040000e-01  5.599998e-02  7.680000e-02
   endloop
 endfacet
 facet normal  1.000000e+00 -5.523351e-07  0.000000e+00
   outer loop
     vertex  1.040000e-01  1.599998e-02  0.000000e+00
     vertex  1.040000e-01  5.599998e-02  0.000000e+00
     vertex  1.040000e-01  5.599998e-02  7.680000e-02
   endloop
 endfacet
 facet normal  1.000000e+00 -5.523351e-07  0.000000e+00
   outer loop
     vertex  1.040000e-01  1.599998e-02  0.000000e+00
     vertex  1.040000e-01  5.599998e-02  7.680000e-02
     vertex  1.040000e-01  1.599998e-02  7.680000e-02
   endloop
 endfacet
 facet normal -0.000000e+00  0.000000e+00  1.000000e+00
   outer loop
     vertex  7.200000e-02  4.800004e-02  7.680000e-02
     vertex  9.600000e-02  4.000004e-02  7.680000e-02
     vertex  9.600000e-02  4.800004e-02  7.680000e-02
   endloop
 endfacet
 facet normal -5.782396e-16 -1.734718e-15  1.000000e+00
   outer loop
     vertex  7.200000e-02  4.800004e-02  7.680000e-02
     vertex  7.200001e-02  4.000001e-02  7.680000e-02
     vertex  9.600000e-02  4.000004e-02  7.680000e-02
   endloop
 endfacet
 facet normal  0.000000e+00  0.000000e+00 -1.000000e+00
   outer loop
     vertex  5.599999e-02  5.600014e-02  0.000000e+00
     vertex  6.400003e-02  6.400006e-02  0.000000e+00
     vertex  6.400004e-02  5.600014e-02  0.000000e+00
   endloop
 endfacet
 facet normal  0.000000e+00  0.000000e+00 -1.000000e+00
   outer loop
     vertex  5.599999e-02  5.600014e-02  0.000000e+00
     vertex  5.599999e-02  6.400014e-02  0.000000e+00
     vertex  6.400003e-02  6.400006e-02  0.000000e+00
   endloop
 endfacet
 facet normal -1.000000e+00  4.768372e-07  0.000000e+00
   outer loop
     vertex  5.599999e-02  5.600014e-02  5.759998e-02
     vertex  5.599999e-02  6.400014e-02  0.000000e+00
     vertex  5.599999e-02  5.600014e-02  0.000000e+00
   endloop
 endfacet
 facet normal -1.000000e+00  4.768372e-07  0.000000e+00
   outer loop
     vertex  5.599999e-02  5.600014e-02  5.759998e-02
     vertex  5.599999e-02  6.400014e-02  5.759998e-02
     vertex  5.599999e-02  6.400014e-02  0.000000e+00
   endloop
 endfacet
 facet normal  0.000000e+00  0.000000e+00 -1.000000e+00
   outer loop
     vertex  5.599999e-02  5.600014e-02  5.759998e-02
     vertex  2.400000e-02  5.600015e-02  5.759998e-02
     vertex  2.400000e-02  6.400015e-02  5.759998e-02
   endloop
 endfacet
 facet normal  0.000000e+00  0.000000e+00 -1.000000e+00
   outer loop
     vertex  5.599999e-02  5.600014e-02  5.759998e-02
     vertex  2.400000e-02  6.400015e-02  5.759998e-02
     vertex  5.599999e-02  6.400014e-02  5.759998e-02
   endloop
 endfacet
 facet normal  9.687805e-06  1.000000e+00  0.000000e+00
   outer loop
     vertex  7.200003e-02  6.399998e-02  0.000000e+00
     vertex  6.400003e-02  6.400006e-02  0.000000e+00
     vertex  6.400003e-02  6.400006e-02  7.680000e-02
   endloop
 endfacet
 facet normal  9.687805e-06  1.000000e+00 -0.000000e+00
   outer loop
     vertex  7.200003e-02  6.399998e-02  0.000000e+00
     vertex  6.400003e-02  6.400006e-02  7.680000e-02
     vertex  7.200003e-02  6.399998e-02  7.680000e-02
   endloop
 endfacet
 facet normal  2.474464e-06 -1.000000e+00  0.000000e+00
   outer loop
     vertex  6.400001e-02  3.999999e-02  0.000000e+00
     vertex  7.200001e-02  4.000001e-02  0.000000e+00
     vertex  7.200001e-02  4.000001e-02  7.680000e-02
   endloop
 endfacet
 facet normal  2.474464e-06 -1.000000e+00  0.000000e+00
   outer loop
     vertex  6.400001e-02  3.999999e-02  0.000000e+00
     vertex  7.200001e-02  4.000001e-02  7.680000e-02
     vertex  6.400001e-02  3.999999e-02  7.680000e-02
   endloop
 endfacet
 facet normal -1.000000e+00  1.807652e-06  0.000000e+00
   outer loop
     vertex  6.400004e-02  5.600014e-02  0.000000e+00
     vertex  6.400001e-02  3.999999e-02  0.000000e+00
     vertex  6.400001e-02  3.999999e-02  7.680000e-02
   endloop
 endfacet
 facet normal -1.000000e+00  1.807652e-06  0.000000e+00
   outer loop
     vertex  6.400004e-02  5.600014e-02  0.000000e+00
     vertex  6.400001e-02  3.999999e-02  7.680000e-02
     vertex  6.400004e-02  5.600014e-02  7.680000e-02
   endloop
 endfacet
 facet normal  1.000000e+00 -1.294168e-06  0.000000e+00
   outer loop
     vertex  7.200000e-02  4.800004e-02  0.000000e+00
     vertex  7.200003e-02  6.399998e-02  0.000000e+00
     vertex  7.200003e-02  6.399998e-02  7.680000e-02
   endloop
 endfacet
 facet normal  1.000000e+00 -1.294168e-06  0.000000e+00
   outer loop
     vertex  7.200000e-02  4.800004e-02  0.000000e+00
     vertex  7.200003e-02  6.399998e-02  7.680000e-02
     vertex  7.200000e-02  4.800004e-02  7.680000e-02
   endloop
 endfacet
 facet normal  1.008933e-06 -1.000000e+00  0.000000e+00
   outer loop
     vertex  7.200001e-02  4.000001e-02  0.000000e+00
     vertex  9.600000e-02  4.000004e-02  0.000000e+00
     vertex  9.600000e-02  4.000004e-02  7.680000e-02
   endloop
 endfacet
 facet normal  1.008933e-06 -1.000000e+00  0.000000e+00
   outer loop
     vertex  7.200001e-02  4.000001e-02  0.000000e+00
     vertex  9.600000e-02  4.000004e-02  7.680000e-02
     vertex  7.200001e-02  4.000001e-02  7.680000e-02
   endloop
 endfacet
 facet normal  0.000000e+00  0.000000e+00 -1.000000e+00
   outer loop
     vertex  6.400004e-02  5.600014e-02  0.000000e+00
     vertex  6.400003e-02  6.400006e-02  0.000000e+00
     vertex  7.200003e-02  6.399998e-02  0.000000e+00
   endloop
 endfacet
 facet normal  0.000000e+00  0.000000e+00 -1.000000e+00
   outer loop
     vertex  7.200000e-02  4.800004e-02  0.000000e+00
     vertex  6.400004e-02  5.600014e-02  0.000000e+00
     vertex  7.200003e-02  6.399998e-02  0.000000e+00
   endloop
 endfacet
 facet normal  0.000000e+00  0.000000e+00 -1.000000e+00
   outer loop
     vertex  6.400001e-02  3.999999e-02  0.000000e+00
     vertex  7.200000e-02  4.800004e-02  0.000000e+00
     vertex  7.200001e-02  4.000001e-02  0.000000e+00
   endloop
 endfacet
 facet normal  0.000000e+00  0.000000e+00 -1.000000e+00
   outer loop
     vertex  6.400001e-02  3.999999e-02  0.000000e+00
     vertex  6.400004e-02  5.600014e-02  0.000000e+00
     vertex  7.200000e-02  4.800004e-02  0.000000e+00
   endloop
 endfacet
 facet normal  0.000000e+00  1.000000e+00  0.000000e+00
   outer loop
     vertex  9.600000e-02  4.800004e-02  0.000000e+00
     vertex  7.200000e-02  4.800004e-02  0.000000e+00
     vertex  7.200000e-02  4.800004e-02  7.680000e-02
   endloop
 endfacet
 facet normal  0.000000e+00  1.000000e+00 -0.000000e+00
   outer loop
     vertex  9.600000e-02  4.800004e-02  0.000000e+00
     vertex  7.200000e-02  4.800004e-02  7.680000e-02
     vertex  9.600000e-02  4.800004e-02  7.680000e-02
   endloop
 endfacet
endsolid
