solid 
 facet normal  1.000000e+00  0.000000e+00  0.000000e+00
   outer loop
     vertex  0.000000e+00  9.495000e+00  2.000000e+00
     vertex  0.000000e+00  7.495000e+00  8.000000e-01
     vertex  0.000000e+00  9.495000e+00  8.000000e-01
   endloop
 endfacet
 facet normal  1.000000e+00  0.000000e+00  0.000000e+00
   outer loop
     vertex  0.000000e+00  9.495000e+00  2.000000e+00
     vertex  0.000000e+00  7.495000e+00  2.000000e+00
     vertex  0.000000e+00  7.495000e+00  8.000000e-01
   endloop
 endfacet
 facet normal  1.000000e+00  0.000000e+00  0.000000e+00
   outer loop
     vertex  0.000000e+00  2.205000e+00  9.500000e-01
     vertex  0.000000e+00  3.608225e-16  2.700000e+00
     vertex  0.000000e+00  3.608225e-16  0.000000e+00
   endloop
 endfacet
 facet normal  1.000000e+00  0.000000e+00  0.000000e+00
   outer loop
     vertex  0.000000e+00  2.205000e+00  2.150000e+00
     vertex  0.000000e+00  3.608225e-16  2.700000e+00
     vertex  0.000000e+00  2.205000e+00  9.500000e-01
   endloop
 endfacet
 facet normal  1.000000e+00  0.000000e+00  0.000000e+00
   outer loop
     vertex  0.000000e+00  5.000000e+00  2.220446e-16
     vertex  0.000000e+00  2.205000e+00  9.500000e-01
     vertex  0.000000e+00  3.608225e-16  0.000000e+00
   endloop
 endfacet
 facet normal  1.000000e+00  0.000000e+00  0.000000e+00
   outer loop
     vertex  0.000000e+00  4.205000e+00  9.500000e-01
     vertex  0.000000e+00  2.205000e+00  9.500000e-01
     vertex  0.000000e+00  5.000000e+00  2.220446e-16
   endloop
 endfacet
 facet normal  1.000000e+00  0.000000e+00  0.000000e+00
   outer loop
     vertex  0.000000e+00  5.000000e+00  2.010000e+00
     vertex  0.000000e+00  4.205000e+00  2.150000e+00
     vertex  0.000000e+00  4.205000e+00  9.500000e-01
   endloop
 endfacet
 facet normal  1.000000e+00  0.000000e+00  0.000000e+00
   outer loop
     vertex  0.000000e+00  5.000000e+00  2.010000e+00
     vertex  0.000000e+00  4.205000e+00  9.500000e-01
     vertex  0.000000e+00  5.000000e+00  2.220446e-16
   endloop
 endfacet
 facet normal  1.000000e+00  0.000000e+00  0.000000e+00
   outer loop
     vertex  0.000000e+00  6.010000e+00  2.010000e+00
     vertex  0.000000e+00  4.205000e+00  2.150000e+00
     vertex  0.000000e+00  5.000000e+00  2.010000e+00
   endloop
 endfacet
 facet normal  1.000000e+00  0.000000e+00  0.000000e+00
   outer loop
     vertex  0.000000e+00  7.495000e+00  8.000000e-01
     vertex  0.000000e+00  6.010000e+00  2.010000e+00
     vertex  0.000000e+00  6.010000e+00  2.220446e-16
   endloop
 endfacet
 facet normal  1.000000e+00  0.000000e+00  0.000000e+00
   outer loop
     vertex  0.000000e+00  7.495000e+00  2.000000e+00
     vertex  0.000000e+00  6.010000e+00  2.010000e+00
     vertex  0.000000e+00  7.495000e+00  8.000000e-01
   endloop
 endfacet
 facet normal  1.000000e+00  0.000000e+00  0.000000e+00
   outer loop
     vertex  0.000000e+00  1.000000e+01  0.000000e+00
     vertex  0.000000e+00  7.495000e+00  8.000000e-01
     vertex  0.000000e+00  6.010000e+00  2.220446e-16
   endloop
 endfacet
 facet normal  1.000000e+00  0.000000e+00  0.000000e+00
   outer loop
     vertex  0.000000e+00  9.495000e+00  8.000000e-01
     vertex  0.000000e+00  7.495000e+00  8.000000e-01
     vertex  0.000000e+00  1.000000e+01  0.000000e+00
   endloop
 endfacet
 facet normal  1.000000e+00  0.000000e+00  0.000000e+00
   outer loop
     vertex  0.000000e+00  1.000000e+01  2.700000e+00
     vertex  0.000000e+00  7.495000e+00  2.000000e+00
     vertex  0.000000e+00  9.495000e+00  2.000000e+00
   endloop
 endfacet
 facet normal  1.000000e+00  0.000000e+00  0.000000e+00
   outer loop
     vertex  0.000000e+00  1.000000e+01  2.700000e+00
     vertex  0.000000e+00  9.495000e+00  2.000000e+00
     vertex  0.000000e+00  9.495000e+00  8.000000e-01
   endloop
 endfacet
 facet normal  1.000000e+00  0.000000e+00  0.000000e+00
   outer loop
     vertex  0.000000e+00  1.000000e+01  2.700000e+00
     vertex  0.000000e+00  6.010000e+00  2.010000e+00
     vertex  0.000000e+00  7.495000e+00  2.000000e+00
   endloop
 endfacet
 facet normal  1.000000e+00  0.000000e+00  0.000000e+00
   outer loop
     vertex  0.000000e+00  1.000000e+01  2.700000e+00
     vertex  0.000000e+00  9.495000e+00  8.000000e-01
     vertex  0.000000e+00  1.000000e+01  0.000000e+00
   endloop
 endfacet
 facet normal  1.000000e+00  0.000000e+00  0.000000e+00
   outer loop
     vertex  0.000000e+00  3.608225e-16  2.700000e+00
     vertex  0.000000e+00  4.205000e+00  2.150000e+00
     vertex  0.000000e+00  1.000000e+01  2.700000e+00
   endloop
 endfacet
 facet normal  1.000000e+00 -0.000000e+00  0.000000e+00
   outer loop
     vertex  0.000000e+00  4.205000e+00  2.150000e+00
     vertex  0.000000e+00  6.010000e+00  2.010000e+00
     vertex  0.000000e+00  1.000000e+01  2.700000e+00
   endloop
 endfacet
 facet normal  1.000000e+00  0.000000e+00  0.000000e+00
   outer loop
     vertex  0.000000e+00  3.608225e-16  2.700000e+00
     vertex  0.000000e+00  2.205000e+00  2.150000e+00
     vertex  0.000000e+00  4.205000e+00  2.150000e+00
   endloop
 endfacet
 facet normal  0.000000e+00  4.440892e-17 -1.000000e+00
   outer loop
     vertex -3.000000e-01  5.000000e+00  2.220446e-16
     vertex  0.000000e+00  3.608225e-16  0.000000e+00
     vertex -3.000000e-01  0.000000e+00  0.000000e+00
   endloop
 endfacet
 facet normal  0.000000e+00  4.440892e-17 -1.000000e+00
   outer loop
     vertex -3.000000e-01  5.000000e+00  2.220446e-16
     vertex  0.000000e+00  5.000000e+00  2.220446e-16
     vertex  0.000000e+00  3.608225e-16  0.000000e+00
   endloop
 endfacet
 facet normal  1.000000e+00  0.000000e+00  0.000000e+00
   outer loop
     vertex  0.000000e+00  6.010000e+00  2.010000e+00
     vertex  0.000000e+00  5.000000e+00  2.220446e-16
     vertex  0.000000e+00  6.010000e+00  2.220446e-16
   endloop
 endfacet
 facet normal  1.000000e+00  0.000000e+00  0.000000e+00
   outer loop
     vertex  0.000000e+00  6.010000e+00  2.010000e+00
     vertex  0.000000e+00  5.000000e+00  2.010000e+00
     vertex  0.000000e+00  5.000000e+00  2.220446e-16
   endloop
 endfacet
 facet normal  0.000000e+00 -5.565028e-17 -1.000000e+00
   outer loop
     vertex -3.000000e-01  1.000000e+01  0.000000e+00
     vertex  0.000000e+00  6.010000e+00  2.220446e-16
     vertex -3.000000e-01  6.010000e+00  2.220446e-16
   endloop
 endfacet
 facet normal  0.000000e+00 -5.565028e-17 -1.000000e+00
   outer loop
     vertex -3.000000e-01  1.000000e+01  0.000000e+00
     vertex  0.000000e+00  1.000000e+01  0.000000e+00
     vertex  0.000000e+00  6.010000e+00  2.220446e-16
   endloop
 endfacet
 facet normal  0.000000e+00  1.000000e+00  0.000000e+00
   outer loop
     vertex  0.000000e+00  1.000000e+01  2.700000e+00
     vertex  0.000000e+00  1.000000e+01  0.000000e+00
     vertex -3.000000e-01  1.000000e+01  0.000000e+00
   endloop
 endfacet
 facet normal  0.000000e+00  1.000000e+00  0.000000e+00
   outer loop
     vertex  0.000000e+00  1.000000e+01  2.700000e+00
     vertex -3.000000e-01  1.000000e+01  0.000000e+00
     vertex -3.000000e-01  1.000000e+01  2.700000e+00
   endloop
 endfacet
 facet normal -1.480297e-15  0.000000e+00  1.000000e+00
   outer loop
     vertex -3.000000e-01  1.000000e+01  2.700000e+00
     vertex -3.000000e-01  0.000000e+00  2.700000e+00
     vertex  0.000000e+00  3.608225e-16  2.700000e+00
   endloop
 endfacet
 facet normal -0.000000e+00  4.440892e-17  1.000000e+00
   outer loop
     vertex -3.000000e-01  1.000000e+01  2.700000e+00
     vertex  0.000000e+00  3.608225e-16  2.700000e+00
     vertex  0.000000e+00  1.000000e+01  2.700000e+00
   endloop
 endfacet
 facet normal  1.202742e-15 -1.000000e+00  0.000000e+00
   outer loop
     vertex  0.000000e+00  3.608225e-16  2.700000e+00
     vertex -3.000000e-01  0.000000e+00  0.000000e+00
     vertex  0.000000e+00  3.608225e-16  0.000000e+00
   endloop
 endfacet
 facet normal  1.202742e-15 -1.000000e+00  0.000000e+00
   outer loop
     vertex  0.000000e+00  3.608225e-16  2.700000e+00
     vertex -3.000000e-01  0.000000e+00  2.700000e+00
     vertex -3.000000e-01  0.000000e+00  0.000000e+00
   endloop
 endfacet
 facet normal  1.000000e+00  0.000000e+00  0.000000e+00
   outer loop
     vertex  0.000000e+00  4.205000e+00  2.150000e+00
     vertex  0.000000e+00  2.205000e+00  9.500000e-01
     vertex  0.000000e+00  4.205000e+00  9.500000e-01
   endloop
 endfacet
 facet normal  1.000000e+00  0.000000e+00  0.000000e+00
   outer loop
     vertex  0.000000e+00  4.205000e+00  2.150000e+00
     vertex  0.000000e+00  2.205000e+00  2.150000e+00
     vertex  0.000000e+00  2.205000e+00  9.500000e-01
   endloop
 endfacet
 facet normal -1.000000e+00 -0.000000e+00  0.000000e+00
   outer loop
     vertex -3.000000e-01  2.205000e+00  9.500000e-01
     vertex -3.000000e-01  0.000000e+00  0.000000e+00
     vertex -3.000000e-01  0.000000e+00  2.700000e+00
   endloop
 endfacet
 facet normal -1.000000e+00 -0.000000e+00 -0.000000e+00
   outer loop
     vertex -3.000000e-01  2.205000e+00  2.150000e+00
     vertex -3.000000e-01  2.205000e+00  9.500000e-01
     vertex -3.000000e-01  0.000000e+00  2.700000e+00
   endloop
 endfacet
 facet normal -1.000000e+00 -0.000000e+00  0.000000e+00
   outer loop
     vertex -3.000000e-01  5.000000e+00  2.220446e-16
     vertex -3.000000e-01  0.000000e+00  0.000000e+00
     vertex -3.000000e-01  2.205000e+00  9.500000e-01
   endloop
 endfacet
 facet normal -1.000000e+00 -0.000000e+00 -0.000000e+00
   outer loop
     vertex -3.000000e-01  4.205000e+00  9.500000e-01
     vertex -3.000000e-01  5.000000e+00  2.220446e-16
     vertex -3.000000e-01  2.205000e+00  9.500000e-01
   endloop
 endfacet
 facet normal -1.000000e+00 -0.000000e+00  0.000000e+00
   outer loop
     vertex -3.000000e-01  5.000000e+00  2.010000e+00
     vertex -3.000000e-01  4.205000e+00  9.500000e-01
     vertex -3.000000e-01  4.205000e+00  2.150000e+00
   endloop
 endfacet
 facet normal -1.000000e+00  0.000000e+00 -0.000000e+00
   outer loop
     vertex -3.000000e-01  5.000000e+00  2.010000e+00
     vertex -3.000000e-01  5.000000e+00  2.220446e-16
     vertex -3.000000e-01  4.205000e+00  9.500000e-01
   endloop
 endfacet
 facet normal -1.000000e+00  0.000000e+00  0.000000e+00
   outer loop
     vertex -3.000000e-01  6.010000e+00  2.010000e+00
     vertex -3.000000e-01  5.000000e+00  2.010000e+00
     vertex -3.000000e-01  4.205000e+00  2.150000e+00
   endloop
 endfacet
 facet normal -1.000000e+00 -0.000000e+00  0.000000e+00
   outer loop
     vertex -3.000000e-01  7.495000e+00  8.000000e-01
     vertex -3.000000e-01  6.010000e+00  2.220446e-16
     vertex -3.000000e-01  6.010000e+00  2.010000e+00
   endloop
 endfacet
 facet normal -1.000000e+00 -0.000000e+00 -0.000000e+00
   outer loop
     vertex -3.000000e-01  7.495000e+00  2.000000e+00
     vertex -3.000000e-01  7.495000e+00  8.000000e-01
     vertex -3.000000e-01  6.010000e+00  2.010000e+00
   endloop
 endfacet
 facet normal -1.000000e+00  0.000000e+00  0.000000e+00
   outer loop
     vertex -3.000000e-01  1.000000e+01  0.000000e+00
     vertex -3.000000e-01  6.010000e+00  2.220446e-16
     vertex -3.000000e-01  7.495000e+00  8.000000e-01
   endloop
 endfacet
 facet normal -1.000000e+00 -0.000000e+00 -0.000000e+00
   outer loop
     vertex -3.000000e-01  9.495000e+00  8.000000e-01
     vertex -3.000000e-01  1.000000e+01  0.000000e+00
     vertex -3.000000e-01  7.495000e+00  8.000000e-01
   endloop
 endfacet
 facet normal -1.000000e+00  0.000000e+00  0.000000e+00
   outer loop
     vertex -3.000000e-01  1.000000e+01  2.700000e+00
     vertex -3.000000e-01  9.495000e+00  2.000000e+00
     vertex -3.000000e-01  7.495000e+00  2.000000e+00
   endloop
 endfacet
 facet normal -1.000000e+00  0.000000e+00  0.000000e+00
   outer loop
     vertex -3.000000e-01  1.000000e+01  2.700000e+00
     vertex -3.000000e-01  9.495000e+00  8.000000e-01
     vertex -3.000000e-01  9.495000e+00  2.000000e+00
   endloop
 endfacet
 facet normal -1.000000e+00  0.000000e+00  0.000000e+00
   outer loop
     vertex -3.000000e-01  1.000000e+01  2.700000e+00
     vertex -3.000000e-01  7.495000e+00  2.000000e+00
     vertex -3.000000e-01  6.010000e+00  2.010000e+00
   endloop
 endfacet
 facet normal -1.000000e+00  0.000000e+00 -0.000000e+00
   outer loop
     vertex -3.000000e-01  1.000000e+01  2.700000e+00
     vertex -3.000000e-01  1.000000e+01  0.000000e+00
     vertex -3.000000e-01  9.495000e+00  8.000000e-01
   endloop
 endfacet
 facet normal -1.000000e+00  0.000000e+00  0.000000e+00
   outer loop
     vertex -3.000000e-01  0.000000e+00  2.700000e+00
     vertex -3.000000e-01  1.000000e+01  2.700000e+00
     vertex -3.000000e-01  4.205000e+00  2.150000e+00
   endloop
 endfacet
 facet normal -1.000000e+00  0.000000e+00  0.000000e+00
   outer loop
     vertex -3.000000e-01  4.205000e+00  2.150000e+00
     vertex -3.000000e-01  1.000000e+01  2.700000e+00
     vertex -3.000000e-01  6.010000e+00  2.010000e+00
   endloop
 endfacet
 facet normal -1.000000e+00  0.000000e+00  0.000000e+00
   outer loop
     vertex -3.000000e-01  0.000000e+00  2.700000e+00
     vertex -3.000000e-01  4.205000e+00  2.150000e+00
     vertex -3.000000e-01  2.205000e+00  2.150000e+00
   endloop
 endfacet
 facet normal  0.000000e+00  0.000000e+00 -1.000000e+00
   outer loop
     vertex -3.000000e-01  6.010000e+00  2.220446e-16
     vertex  0.000000e+00  5.000000e+00  2.220446e-16
     vertex -3.000000e-01  5.000000e+00  2.220446e-16
   endloop
 endfacet
 facet normal  0.000000e+00  0.000000e+00 -1.000000e+00
   outer loop
     vertex -3.000000e-01  6.010000e+00  2.220446e-16
     vertex  0.000000e+00  6.010000e+00  2.220446e-16
     vertex  0.000000e+00  5.000000e+00  2.220446e-16
   endloop
 endfacet
 facet normal -1.000000e+00  0.000000e+00 -0.000000e+00
   outer loop
     vertex -3.000000e-01  6.010000e+00  2.010000e+00
     vertex -3.000000e-01  6.010000e+00  2.220446e-16
     vertex -3.000000e-01  5.000000e+00  2.220446e-16
   endloop
 endfacet
 facet normal -1.000000e+00 -0.000000e+00  0.000000e+00
   outer loop
     vertex -3.000000e-01  6.010000e+00  2.010000e+00
     vertex -3.000000e-01  5.000000e+00  2.220446e-16
     vertex -3.000000e-01  5.000000e+00  2.010000e+00
   endloop
 endfacet
 facet normal -1.000000e+00  0.000000e+00 -0.000000e+00
   outer loop
     vertex -3.000000e-01  4.205000e+00  2.150000e+00
     vertex -3.000000e-01  4.205000e+00  9.500000e-01
     vertex -3.000000e-01  2.205000e+00  9.500000e-01
   endloop
 endfacet
 facet normal -1.000000e+00 -0.000000e+00  0.000000e+00
   outer loop
     vertex -3.000000e-01  4.205000e+00  2.150000e+00
     vertex -3.000000e-01  2.205000e+00  9.500000e-01
     vertex -3.000000e-01  2.205000e+00  2.150000e+00
   endloop
 endfacet
 facet normal -1.000000e+00  0.000000e+00 -0.000000e+00
   outer loop
     vertex -3.000000e-01  9.495000e+00  2.000000e+00
     vertex -3.000000e-01  9.495000e+00  8.000000e-01
     vertex -3.000000e-01  7.495000e+00  8.000000e-01
   endloop
 endfacet
 facet normal -1.000000e+00 -0.000000e+00  0.000000e+00
   outer loop
     vertex -3.000000e-01  9.495000e+00  2.000000e+00
     vertex -3.000000e-01  7.495000e+00  8.000000e-01
     vertex -3.000000e-01  7.495000e+00  2.000000e+00
   endloop
 endfacet
 facet normal -1.000000e+00  0.000000e+00  0.000000e+00
   outer loop
     vertex  0.000000e+00  1.000000e+01  2.700000e+00
     vertex  0.000000e+00  1.030000e+01  0.000000e+00
     vertex  0.000000e+00  1.000000e+01  0.000000e+00
   endloop
 endfacet
 facet normal -1.000000e+00  0.000000e+00  0.000000e+00
   outer loop
     vertex  0.000000e+00  1.000000e+01  2.700000e+00
     vertex  0.000000e+00  1.030000e+01  2.700000e+00
     vertex  0.000000e+00  1.030000e+01  0.000000e+00
   endloop
 endfacet
 facet normal -0.000000e+00 -1.000000e+00  0.000000e+00
   outer loop
     vertex  2.050000e+00  1.000000e+01  8.000000e-01
     vertex  0.000000e+00  1.000000e+01  2.700000e+00
     vertex  0.000000e+00  1.000000e+01  0.000000e+00
   endloop
 endfacet
 facet normal -0.000000e+00 -1.000000e+00 -0.000000e+00
   outer loop
     vertex  2.050000e+00  1.000000e+01  2.000000e+00
     vertex  0.000000e+00  1.000000e+01  2.700000e+00
     vertex  2.050000e+00  1.000000e+01  8.000000e-01
   endloop
 endfacet
 facet normal -0.000000e+00 -1.000000e+00  0.000000e+00
   outer loop
     vertex  4.050000e+00  1.000000e+01  8.000000e-01
     vertex  2.050000e+00  1.000000e+01  8.000000e-01
     vertex  0.000000e+00  1.000000e+01  0.000000e+00
   endloop
 endfacet
 facet normal  0.000000e+00 -1.000000e+00  0.000000e+00
   outer loop
     vertex  4.050000e+00  1.000000e+01  2.000000e+00
     vertex  0.000000e+00  1.000000e+01  2.700000e+00
     vertex  2.050000e+00  1.000000e+01  2.000000e+00
   endloop
 endfacet
 facet normal -0.000000e+00 -1.000000e+00  0.000000e+00
   outer loop
     vertex  5.660000e+00  1.000000e+01  2.000000e+00
     vertex  4.050000e+00  1.000000e+01  2.000000e+00
     vertex  4.050000e+00  1.000000e+01  8.000000e-01
   endloop
 endfacet
 facet normal  0.000000e+00 -1.000000e+00 -0.000000e+00
   outer loop
     vertex  5.660000e+00  1.000000e+01  2.000000e+00
     vertex  4.050000e+00  1.000000e+01  8.000000e-01
     vertex  5.660000e+00  1.000000e+01  8.000000e-01
   endloop
 endfacet
 facet normal -0.000000e+00 -1.000000e+00  0.000000e+00
   outer loop
     vertex  9.795000e+00  1.000000e+01  2.000000e+00
     vertex  7.660000e+00  1.000000e+01  2.000000e+00
     vertex  7.660000e+00  1.000000e+01  8.000000e-01
   endloop
 endfacet
 facet normal  0.000000e+00 -1.000000e+00 -0.000000e+00
   outer loop
     vertex  9.795000e+00  1.000000e+01  2.000000e+00
     vertex  7.660000e+00  1.000000e+01  8.000000e-01
     vertex  9.795000e+00  1.000000e+01  8.000000e-01
   endloop
 endfacet
 facet normal  0.000000e+00 -1.000000e+00  0.000000e+00
   outer loop
     vertex  1.200000e+01  1.000000e+01  0.000000e+00
     vertex  9.795000e+00  1.000000e+01  8.000000e-01
     vertex  7.660000e+00  1.000000e+01  8.000000e-01
   endloop
 endfacet
 facet normal -0.000000e+00 -1.000000e+00 -0.000000e+00
   outer loop
     vertex  1.179500e+01  1.000000e+01  8.000000e-01
     vertex  9.795000e+00  1.000000e+01  8.000000e-01
     vertex  1.200000e+01  1.000000e+01  0.000000e+00
   endloop
 endfacet
 facet normal  0.000000e+00 -1.000000e+00  0.000000e+00
   outer loop
     vertex  1.200000e+01  1.000000e+01  2.700000e+00
     vertex  9.795000e+00  1.000000e+01  2.000000e+00
     vertex  1.179500e+01  1.000000e+01  2.000000e+00
   endloop
 endfacet
 facet normal  0.000000e+00 -1.000000e+00  0.000000e+00
   outer loop
     vertex  1.200000e+01  1.000000e+01  2.700000e+00
     vertex  1.179500e+01  1.000000e+01  2.000000e+00
     vertex  1.179500e+01  1.000000e+01  8.000000e-01
   endloop
 endfacet
 facet normal  0.000000e+00 -1.000000e+00  0.000000e+00
   outer loop
     vertex  1.200000e+01  1.000000e+01  2.700000e+00
     vertex  7.660000e+00  1.000000e+01  2.000000e+00
     vertex  9.795000e+00  1.000000e+01  2.000000e+00
   endloop
 endfacet
 facet normal  0.000000e+00 -1.000000e+00 -0.000000e+00
   outer loop
     vertex  1.200000e+01  1.000000e+01  2.700000e+00
     vertex  1.179500e+01  1.000000e+01  8.000000e-01
     vertex  1.200000e+01  1.000000e+01  0.000000e+00
   endloop
 endfacet
 facet normal  0.000000e+00 -1.000000e+00  0.000000e+00
   outer loop
     vertex  1.200000e+01  1.000000e+01  0.000000e+00
     vertex  4.050000e+00  1.000000e+01  8.000000e-01
     vertex  0.000000e+00  1.000000e+01  0.000000e+00
   endloop
 endfacet
 facet normal  0.000000e+00 -1.000000e+00  0.000000e+00
   outer loop
     vertex  1.200000e+01  1.000000e+01  0.000000e+00
     vertex  5.660000e+00  1.000000e+01  8.000000e-01
     vertex  4.050000e+00  1.000000e+01  8.000000e-01
   endloop
 endfacet
 facet normal  0.000000e+00 -1.000000e+00  0.000000e+00
   outer loop
     vertex  1.200000e+01  1.000000e+01  0.000000e+00
     vertex  7.660000e+00  1.000000e+01  8.000000e-01
     vertex  5.660000e+00  1.000000e+01  8.000000e-01
   endloop
 endfacet
 facet normal  0.000000e+00 -1.000000e+00  0.000000e+00
   outer loop
     vertex  0.000000e+00  1.000000e+01  2.700000e+00
     vertex  7.660000e+00  1.000000e+01  2.000000e+00
     vertex  1.200000e+01  1.000000e+01  2.700000e+00
   endloop
 endfacet
 facet normal  0.000000e+00 -1.000000e+00  0.000000e+00
   outer loop
     vertex  0.000000e+00  1.000000e+01  2.700000e+00
     vertex  5.660000e+00  1.000000e+01  2.000000e+00
     vertex  7.660000e+00  1.000000e+01  2.000000e+00
   endloop
 endfacet
 facet normal  0.000000e+00 -1.000000e+00  0.000000e+00
   outer loop
     vertex  0.000000e+00  1.000000e+01  2.700000e+00
     vertex  4.050000e+00  1.000000e+01  2.000000e+00
     vertex  5.660000e+00  1.000000e+01  2.000000e+00
   endloop
 endfacet
 facet normal  0.000000e+00  0.000000e+00  1.000000e+00
   outer loop
     vertex  1.200000e+01  1.030000e+01  2.700000e+00
     vertex  0.000000e+00  1.030000e+01  2.700000e+00
     vertex  0.000000e+00  1.000000e+01  2.700000e+00
   endloop
 endfacet
 facet normal  0.000000e+00  0.000000e+00  1.000000e+00
   outer loop
     vertex  1.200000e+01  1.030000e+01  2.700000e+00
     vertex  0.000000e+00  1.000000e+01  2.700000e+00
     vertex  1.200000e+01  1.000000e+01  2.700000e+00
   endloop
 endfacet
 facet normal  0.000000e+00  1.000000e+00  0.000000e+00
   outer loop
     vertex  2.050000e+00  1.030000e+01  8.000000e-01
     vertex  0.000000e+00  1.030000e+01  0.000000e+00
     vertex  0.000000e+00  1.030000e+01  2.700000e+00
   endloop
 endfacet
 facet normal  0.000000e+00  1.000000e+00  0.000000e+00
   outer loop
     vertex  2.050000e+00  1.030000e+01  2.000000e+00
     vertex  2.050000e+00  1.030000e+01  8.000000e-01
     vertex  0.000000e+00  1.030000e+01  2.700000e+00
   endloop
 endfacet
 facet normal  0.000000e+00  1.000000e+00  0.000000e+00
   outer loop
     vertex  4.050000e+00  1.030000e+01  8.000000e-01
     vertex  0.000000e+00  1.030000e+01  0.000000e+00
     vertex  2.050000e+00  1.030000e+01  8.000000e-01
   endloop
 endfacet
 facet normal  0.000000e+00  1.000000e+00  0.000000e+00
   outer loop
     vertex  4.050000e+00  1.030000e+01  2.000000e+00
     vertex  2.050000e+00  1.030000e+01  2.000000e+00
     vertex  0.000000e+00  1.030000e+01  2.700000e+00
   endloop
 endfacet
 facet normal  0.000000e+00  1.000000e+00  0.000000e+00
   outer loop
     vertex  5.660000e+00  1.030000e+01  2.000000e+00
     vertex  4.050000e+00  1.030000e+01  8.000000e-01
     vertex  4.050000e+00  1.030000e+01  2.000000e+00
   endloop
 endfacet
 facet normal  0.000000e+00  1.000000e+00  0.000000e+00
   outer loop
     vertex  5.660000e+00  1.030000e+01  2.000000e+00
     vertex  5.660000e+00  1.030000e+01  8.000000e-01
     vertex  4.050000e+00  1.030000e+01  8.000000e-01
   endloop
 endfacet
 facet normal  0.000000e+00  1.000000e+00  0.000000e+00
   outer loop
     vertex  9.795000e+00  1.030000e+01  2.000000e+00
     vertex  7.660000e+00  1.030000e+01  8.000000e-01
     vertex  7.660000e+00  1.030000e+01  2.000000e+00
   endloop
 endfacet
 facet normal  0.000000e+00  1.000000e+00  0.000000e+00
   outer loop
     vertex  9.795000e+00  1.030000e+01  2.000000e+00
     vertex  9.795000e+00  1.030000e+01  8.000000e-01
     vertex  7.660000e+00  1.030000e+01  8.000000e-01
   endloop
 endfacet
 facet normal  0.000000e+00  1.000000e+00  0.000000e+00
   outer loop
     vertex  1.200000e+01  1.030000e+01  0.000000e+00
     vertex  7.660000e+00  1.030000e+01  8.000000e-01
     vertex  9.795000e+00  1.030000e+01  8.000000e-01
   endloop
 endfacet
 facet normal  0.000000e+00  1.000000e+00  0.000000e+00
   outer loop
     vertex  1.179500e+01  1.030000e+01  8.000000e-01
     vertex  1.200000e+01  1.030000e+01  0.000000e+00
     vertex  9.795000e+00  1.030000e+01  8.000000e-01
   endloop
 endfacet
 facet normal  0.000000e+00  1.000000e+00  0.000000e+00
   outer loop
     vertex  1.200000e+01  1.030000e+01  2.700000e+00
     vertex  1.179500e+01  1.030000e+01  2.000000e+00
     vertex  9.795000e+00  1.030000e+01  2.000000e+00
   endloop
 endfacet
 facet normal  0.000000e+00  1.000000e+00  0.000000e+00
   outer loop
     vertex  1.200000e+01  1.030000e+01  2.700000e+00
     vertex  1.179500e+01  1.030000e+01  8.000000e-01
     vertex  1.179500e+01  1.030000e+01  2.000000e+00
   endloop
 endfacet
 facet normal  0.000000e+00  1.000000e+00  0.000000e+00
   outer loop
     vertex  1.200000e+01  1.030000e+01  2.700000e+00
     vertex  9.795000e+00  1.030000e+01  2.000000e+00
     vertex  7.660000e+00  1.030000e+01  2.000000e+00
   endloop
 endfacet
 facet normal  0.000000e+00  1.000000e+00  0.000000e+00
   outer loop
     vertex  1.200000e+01  1.030000e+01  2.700000e+00
     vertex  1.200000e+01  1.030000e+01  0.000000e+00
     vertex  1.179500e+01  1.030000e+01  8.000000e-01
   endloop
 endfacet
 facet normal  0.000000e+00  1.000000e+00  0.000000e+00
   outer loop
     vertex  1.200000e+01  1.030000e+01  0.000000e+00
     vertex  0.000000e+00  1.030000e+01  0.000000e+00
     vertex  4.050000e+00  1.030000e+01  8.000000e-01
   endloop
 endfacet
 facet normal  0.000000e+00  1.000000e+00  0.000000e+00
   outer loop
     vertex  1.200000e+01  1.030000e+01  0.000000e+00
     vertex  4.050000e+00  1.030000e+01  8.000000e-01
     vertex  5.660000e+00  1.030000e+01  8.000000e-01
   endloop
 endfacet
 facet normal  0.000000e+00  1.000000e+00  0.000000e+00
   outer loop
     vertex  1.200000e+01  1.030000e+01  0.000000e+00
     vertex  5.660000e+00  1.030000e+01  8.000000e-01
     vertex  7.660000e+00  1.030000e+01  8.000000e-01
   endloop
 endfacet
 facet normal -0.000000e+00  1.000000e+00  0.000000e+00
   outer loop
     vertex  0.000000e+00  1.030000e+01  2.700000e+00
     vertex  1.200000e+01  1.030000e+01  2.700000e+00
     vertex  7.660000e+00  1.030000e+01  2.000000e+00
   endloop
 endfacet
 facet normal  0.000000e+00  1.000000e+00  0.000000e+00
   outer loop
     vertex  0.000000e+00  1.030000e+01  2.700000e+00
     vertex  7.660000e+00  1.030000e+01  2.000000e+00
     vertex  5.660000e+00  1.030000e+01  2.000000e+00
   endloop
 endfacet
 facet normal  0.000000e+00  1.000000e+00  0.000000e+00
   outer loop
     vertex  0.000000e+00  1.030000e+01  2.700000e+00
     vertex  5.660000e+00  1.030000e+01  2.000000e+00
     vertex  4.050000e+00  1.030000e+01  2.000000e+00
   endloop
 endfacet
 facet normal -0.000000e+00  0.000000e+00 -1.000000e+00
   outer loop
     vertex  1.200000e+01  1.030000e+01  0.000000e+00
     vertex  0.000000e+00  1.000000e+01  0.000000e+00
     vertex  0.000000e+00  1.030000e+01  0.000000e+00
   endloop
 endfacet
 facet normal  0.000000e+00 -0.000000e+00 -1.000000e+00
   outer loop
     vertex  1.200000e+01  1.030000e+01  0.000000e+00
     vertex  1.200000e+01  1.000000e+01  0.000000e+00
     vertex  0.000000e+00  1.000000e+01  0.000000e+00
   endloop
 endfacet
 facet normal  1.000000e+00  0.000000e+00  0.000000e+00
   outer loop
     vertex  1.200000e+01  1.000000e+01  2.700000e+00
     vertex  1.200000e+01  1.000000e+01  0.000000e+00
     vertex  1.200000e+01  1.030000e+01  0.000000e+00
   endloop
 endfacet
 facet normal  1.000000e+00 -0.000000e+00  0.000000e+00
   outer loop
     vertex  1.200000e+01  1.000000e+01  2.700000e+00
     vertex  1.200000e+01  1.030000e+01  0.000000e+00
     vertex  1.200000e+01  1.030000e+01  2.700000e+00
   endloop
 endfacet
 facet normal  0.000000e+00 -1.000000e+00 -0.000000e+00
   outer loop
     vertex  4.050000e+00  1.000000e+01  2.000000e+00
     vertex  2.050000e+00  1.000000e+01  8.000000e-01
     vertex  4.050000e+00  1.000000e+01  8.000000e-01
   endloop
 endfacet
 facet normal -0.000000e+00 -1.000000e+00  0.000000e+00
   outer loop
     vertex  4.050000e+00  1.000000e+01  2.000000e+00
     vertex  2.050000e+00  1.000000e+01  2.000000e+00
     vertex  2.050000e+00  1.000000e+01  8.000000e-01
   endloop
 endfacet
 facet normal  0.000000e+00 -1.000000e+00 -0.000000e+00
   outer loop
     vertex  7.660000e+00  1.000000e+01  2.000000e+00
     vertex  5.660000e+00  1.000000e+01  8.000000e-01
     vertex  7.660000e+00  1.000000e+01  8.000000e-01
   endloop
 endfacet
 facet normal -0.000000e+00 -1.000000e+00  0.000000e+00
   outer loop
     vertex  7.660000e+00  1.000000e+01  2.000000e+00
     vertex  5.660000e+00  1.000000e+01  2.000000e+00
     vertex  5.660000e+00  1.000000e+01  8.000000e-01
   endloop
 endfacet
 facet normal  0.000000e+00 -1.000000e+00 -0.000000e+00
   outer loop
     vertex  1.179500e+01  1.000000e+01  2.000000e+00
     vertex  9.795000e+00  1.000000e+01  8.000000e-01
     vertex  1.179500e+01  1.000000e+01  8.000000e-01
   endloop
 endfacet
 facet normal -0.000000e+00 -1.000000e+00  0.000000e+00
   outer loop
     vertex  1.179500e+01  1.000000e+01  2.000000e+00
     vertex  9.795000e+00  1.000000e+01  2.000000e+00
     vertex  9.795000e+00  1.000000e+01  8.000000e-01
   endloop
 endfacet
 facet normal  0.000000e+00  1.000000e+00  0.000000e+00
   outer loop
     vertex  4.050000e+00  1.030000e+01  2.000000e+00
     vertex  4.050000e+00  1.030000e+01  8.000000e-01
     vertex  2.050000e+00  1.030000e+01  8.000000e-01
   endloop
 endfacet
 facet normal  0.000000e+00  1.000000e+00  0.000000e+00
   outer loop
     vertex  4.050000e+00  1.030000e+01  2.000000e+00
     vertex  2.050000e+00  1.030000e+01  8.000000e-01
     vertex  2.050000e+00  1.030000e+01  2.000000e+00
   endloop
 endfacet
 facet normal  0.000000e+00  1.000000e+00  0.000000e+00
   outer loop
     vertex  7.660000e+00  1.030000e+01  2.000000e+00
     vertex  7.660000e+00  1.030000e+01  8.000000e-01
     vertex  5.660000e+00  1.030000e+01  8.000000e-01
   endloop
 endfacet
 facet normal  0.000000e+00  1.000000e+00  0.000000e+00
   outer loop
     vertex  7.660000e+00  1.030000e+01  2.000000e+00
     vertex  5.660000e+00  1.030000e+01  8.000000e-01
     vertex  5.660000e+00  1.030000e+01  2.000000e+00
   endloop
 endfacet
 facet normal  0.000000e+00  1.000000e+00  0.000000e+00
   outer loop
     vertex  1.179500e+01  1.030000e+01  2.000000e+00
     vertex  1.179500e+01  1.030000e+01  8.000000e-01
     vertex  9.795000e+00  1.030000e+01  8.000000e-01
   endloop
 endfacet
 facet normal  0.000000e+00  1.000000e+00  0.000000e+00
   outer loop
     vertex  1.179500e+01  1.030000e+01  2.000000e+00
     vertex  9.795000e+00  1.030000e+01  8.000000e-01
     vertex  9.795000e+00  1.030000e+01  2.000000e+00
   endloop
 endfacet
 facet normal  1.492235e-16  1.000000e+00  4.163336e-16
   outer loop
     vertex  9.210000e+00 -2.775558e-16  8.000000e-01
     vertex  1.200000e+01 -6.938894e-16  8.000000e-01
     vertex  1.200000e+01 -3.608225e-16  0.000000e+00
   endloop
 endfacet
 facet normal  1.492235e-16  1.000000e+00 -4.758099e-16
   outer loop
     vertex  9.210000e+00 -2.775558e-16  2.000000e+00
     vertex  1.200000e+01 -3.608225e-16  2.700000e+00
     vertex  1.200000e+01 -6.938894e-16  2.000000e+00
   endloop
 endfacet
 facet normal  1.492235e-16  1.000000e+00  0.000000e+00
   outer loop
     vertex  9.210000e+00 -2.775558e-16  2.000000e+00
     vertex  1.200000e+01 -6.938894e-16  2.000000e+00
     vertex  1.200000e+01 -6.938894e-16  8.000000e-01
   endloop
 endfacet
 facet normal  1.492235e-16  1.000000e+00  0.000000e+00
   outer loop
     vertex  9.210000e+00 -2.775558e-16  2.000000e+00
     vertex  1.200000e+01 -6.938894e-16  8.000000e-01
     vertex  9.210000e+00 -2.775558e-16  8.000000e-01
   endloop
 endfacet
 facet normal  0.000000e+00  1.000000e+00  4.857226e-16
   outer loop
     vertex  6.000000e+00  1.110223e-16  0.000000e+00
     vertex  7.210000e+00 -2.775558e-16  8.000000e-01
     vertex  9.210000e+00 -2.775558e-16  8.000000e-01
   endloop
 endfacet
 facet normal  7.864080e-17  1.000000e+00  1.701764e-16
   outer loop
     vertex  6.000000e+00  1.110223e-16  0.000000e+00
     vertex  9.210000e+00 -2.775558e-16  8.000000e-01
     vertex  1.200000e+01 -3.608225e-16  0.000000e+00
   endloop
 endfacet
 facet normal  0.000000e+00  1.000000e+00 -1.036208e-15
   outer loop
     vertex  6.000000e+00  1.110223e-16  2.375000e+00
     vertex  9.210000e+00 -2.775558e-16  2.000000e+00
     vertex  7.210000e+00 -2.775558e-16  2.000000e+00
   endloop
 endfacet
 facet normal  3.211389e-16  1.000000e+00  0.000000e+00
   outer loop
     vertex  6.000000e+00  1.110223e-16  2.375000e+00
     vertex  7.210000e+00 -2.775558e-16  2.000000e+00
     vertex  7.210000e+00 -2.775558e-16  8.000000e-01
   endloop
 endfacet
 facet normal  9.207612e-17  1.000000e+00 -2.480366e-16
   outer loop
     vertex  6.000000e+00  1.110223e-16  2.375000e+00
     vertex  1.200000e+01 -3.608225e-16  2.700000e+00
     vertex  9.210000e+00 -2.775558e-16  2.000000e+00
   endloop
 endfacet
 facet normal  3.211389e-16  1.000000e+00  0.000000e+00
   outer loop
     vertex  6.000000e+00  1.110223e-16  2.375000e+00
     vertex  7.210000e+00 -2.775558e-16  8.000000e-01
     vertex  6.000000e+00  1.110223e-16  0.000000e+00
   endloop
 endfacet
 facet normal  3.469447e-16  1.000000e+00  0.000000e+00
   outer loop
     vertex  3.990000e+00  1.110223e-16  2.375000e+00
     vertex  3.990000e+00  1.110223e-16  0.000000e+00
     vertex  2.790000e+00  5.273559e-16  9.500000e-01
   endloop
 endfacet
 facet normal  3.469447e-16  1.000000e+00  0.000000e+00
   outer loop
     vertex  2.790000e+00  5.273559e-16  2.150000e+00
     vertex  3.990000e+00  1.110223e-16  2.375000e+00
     vertex  2.790000e+00  5.273559e-16  9.500000e-01
   endloop
 endfacet
 facet normal  6.260656e-17  1.000000e+00 -3.591640e-16
   outer loop
     vertex  0.000000e+00  3.608225e-16  0.000000e+00
     vertex  2.790000e+00  5.273559e-16  9.500000e-01
     vertex  3.990000e+00  1.110223e-16  0.000000e+00
   endloop
 endfacet
 facet normal  0.000000e+00  1.000000e+00 -1.752984e-16
   outer loop
     vertex  7.900000e-01  5.273559e-16  9.500000e-01
     vertex  2.790000e+00  5.273559e-16  9.500000e-01
     vertex  0.000000e+00  3.608225e-16  0.000000e+00
   endloop
 endfacet
 facet normal  0.000000e+00  1.000000e+00  3.027881e-16
   outer loop
     vertex  0.000000e+00  3.608225e-16  2.700000e+00
     vertex  2.790000e+00  5.273559e-16  2.150000e+00
     vertex  7.900000e-01  5.273559e-16  2.150000e+00
   endloop
 endfacet
 facet normal -2.108018e-16  1.000000e+00  0.000000e+00
   outer loop
     vertex  0.000000e+00  3.608225e-16  2.700000e+00
     vertex  7.900000e-01  5.273559e-16  2.150000e+00
     vertex  7.900000e-01  5.273559e-16  9.500000e-01
   endloop
 endfacet
 facet normal  1.487195e-16  1.000000e+00  1.057201e-15
   outer loop
     vertex  0.000000e+00  3.608225e-16  2.700000e+00
     vertex  3.990000e+00  1.110223e-16  2.375000e+00
     vertex  2.790000e+00  5.273559e-16  2.150000e+00
   endloop
 endfacet
 facet normal -2.108018e-16  1.000000e+00  0.000000e+00
   outer loop
     vertex  0.000000e+00  3.608225e-16  2.700000e+00
     vertex  7.900000e-01  5.273559e-16  9.500000e-01
     vertex  0.000000e+00  3.608225e-16  0.000000e+00
   endloop
 endfacet
 facet normal  6.013708e-17  1.000000e+00 -3.031763e-17
   outer loop
     vertex  1.200000e+01 -3.608225e-16  2.700000e+00
     vertex  3.990000e+00  1.110223e-16  2.375000e+00
     vertex  0.000000e+00  3.608225e-16  2.700000e+00
   endloop
 endfacet
 facet normal  0.000000e+00  1.000000e+00  1.451830e-15
   outer loop
     vertex  1.200000e+01 -3.608225e-16  2.700000e+00
     vertex  6.000000e+00  1.110223e-16  2.375000e+00
     vertex  3.990000e+00  1.110223e-16  2.375000e+00
   endloop
 endfacet
 facet normal  0.000000e+00  0.000000e+00 -1.000000e+00
   outer loop
     vertex  0.000000e+00 -3.000000e-01  0.000000e+00
     vertex  3.990000e+00  1.110223e-16  0.000000e+00
     vertex  3.990000e+00 -3.000000e-01  0.000000e+00
   endloop
 endfacet
 facet normal  0.000000e+00  0.000000e+00 -1.000000e+00
   outer loop
     vertex  0.000000e+00 -3.000000e-01  0.000000e+00
     vertex  0.000000e+00  3.608225e-16  0.000000e+00
     vertex  3.990000e+00  1.110223e-16  0.000000e+00
   endloop
 endfacet
 facet normal -1.000000e+00  0.000000e+00 -0.000000e+00
   outer loop
     vertex  0.000000e+00  3.608225e-16  2.700000e+00
     vertex  0.000000e+00  3.608225e-16  0.000000e+00
     vertex  0.000000e+00 -3.000000e-01  0.000000e+00
   endloop
 endfacet
 facet normal -1.000000e+00  0.000000e+00  0.000000e+00
   outer loop
     vertex  0.000000e+00  3.608225e-16  2.700000e+00
     vertex  0.000000e+00 -3.000000e-01  0.000000e+00
     vertex  0.000000e+00 -3.000000e-01  2.700000e+00
   endloop
 endfacet
 facet normal  3.700744e-17  8.051711e-23  1.000000e+00
   outer loop
     vertex  0.000000e+00  3.608225e-16  2.700000e+00
     vertex  1.200000e+01 -2.298110e-01  2.700000e+00
     vertex  1.200000e+01 -3.608225e-16  2.700000e+00
   endloop
 endfacet
 facet normal -0.000000e+00  0.000000e+00  1.000000e+00
   outer loop
     vertex  0.000000e+00 -3.000000e-01  2.700000e+00
     vertex  1.200000e+01 -3.000000e-01  2.700000e+00
     vertex  1.200000e+01 -2.298110e-01  2.700000e+00
   endloop
 endfacet
 facet normal  8.658383e-18 -1.480297e-15  1.000000e+00
   outer loop
     vertex  0.000000e+00 -3.000000e-01  2.700000e+00
     vertex  1.200000e+01 -2.298110e-01  2.700000e+00
     vertex  0.000000e+00  3.608225e-16  2.700000e+00
   endloop
 endfacet
 facet normal -1.000000e+00  7.112238e-16  0.000000e+00
   outer loop
     vertex  1.200000e+01  7.272583e+00  8.000000e-01
     vertex  1.200000e+01  9.770189e+00  2.700000e+00
     vertex  1.200000e+01  9.770189e+00  0.000000e+00
   endloop
 endfacet
 facet normal -1.000000e+00  7.112238e-16  0.000000e+00
   outer loop
     vertex  1.200000e+01  7.272583e+00  2.000000e+00
     vertex  1.200000e+01  9.770189e+00  2.700000e+00
     vertex  1.200000e+01  7.272583e+00  8.000000e-01
   endloop
 endfacet
 facet normal -1.000000e+00  0.000000e+00 -2.220446e-15
   outer loop
     vertex  1.200000e+01  5.272583e+00  8.000000e-01
     vertex  1.200000e+01  7.272583e+00  8.000000e-01
     vertex  1.200000e+01  9.770189e+00  0.000000e+00
   endloop
 endfacet
 facet normal -1.000000e+00  0.000000e+00  0.000000e+00
   outer loop
     vertex  1.200000e+01 -3.608225e-16  0.000000e+00
     vertex  1.200000e+01  1.975189e+00  8.000000e-01
     vertex  1.200000e+01  5.272583e+00  8.000000e-01
   endloop
 endfacet
 facet normal -1.000000e+00  0.000000e+00  0.000000e+00
   outer loop
     vertex  1.200000e+01  1.975189e+00  2.000000e+00
     vertex  1.200000e+01  5.272583e+00  2.000000e+00
     vertex  1.200000e+01  5.272583e+00  8.000000e-01
   endloop
 endfacet
 facet normal -1.000000e+00  0.000000e+00  0.000000e+00
   outer loop
     vertex  1.200000e+01  1.975189e+00  2.000000e+00
     vertex  1.200000e+01  5.272583e+00  8.000000e-01
     vertex  1.200000e+01  1.975189e+00  8.000000e-01
   endloop
 endfacet
 facet normal -1.000000e+00 -1.265702e-07  3.125000e-07
   outer loop
     vertex  1.200000e+01 -6.938894e-16  8.000000e-01
     vertex  1.200000e+01  1.975189e+00  8.000000e-01
     vertex  1.200000e+01 -3.608225e-16  0.000000e+00
   endloop
 endfacet
 facet normal -1.000000e+00 -1.265702e-07 -3.571429e-07
   outer loop
     vertex  1.200000e+01 -3.608225e-16  2.700000e+00
     vertex  1.200000e+01  1.975189e+00  2.000000e+00
     vertex  1.200000e+01 -6.938894e-16  2.000000e+00
   endloop
 endfacet
 facet normal -1.000000e+00  0.000000e+00  0.000000e+00
   outer loop
     vertex  1.200000e+01 -3.608225e-16  2.700000e+00
     vertex  1.200000e+01  5.272583e+00  2.000000e+00
     vertex  1.200000e+01  1.975189e+00  2.000000e+00
   endloop
 endfacet
 facet normal -1.000000e+00  1.818140e-16 -1.198287e-15
   outer loop
     vertex  1.200000e+01 -3.608225e-16  0.000000e+00
     vertex  1.200000e+01  5.272583e+00  8.000000e-01
     vertex  1.200000e+01  9.770189e+00  0.000000e+00
   endloop
 endfacet
 facet normal -1.000000e+00  1.818140e-16  1.369470e-15
   outer loop
     vertex  1.200000e+01  9.770189e+00  2.700000e+00
     vertex  1.200000e+01  5.272583e+00  2.000000e+00
     vertex  1.200000e+01 -3.608225e-16  2.700000e+00
   endloop
 endfacet
 facet normal -1.000000e+00  0.000000e+00  2.537653e-15
   outer loop
     vertex  1.200000e+01  9.770189e+00  2.700000e+00
     vertex  1.200000e+01  7.272583e+00  2.000000e+00
     vertex  1.200000e+01  5.272583e+00  2.000000e+00
   endloop
 endfacet
 facet normal -1.000000e+00 -1.265702e-07 -0.000000e+00
   outer loop
     vertex  1.200000e+01 -6.938894e-16  2.000000e+00
     vertex  1.200000e+01  1.975189e+00  8.000000e-01
     vertex  1.200000e+01 -6.938894e-16  8.000000e-01
   endloop
 endfacet
 facet normal -1.000000e+00 -1.265702e-07  0.000000e+00
   outer loop
     vertex  1.200000e+01 -6.938894e-16  2.000000e+00
     vertex  1.200000e+01  1.975189e+00  2.000000e+00
     vertex  1.200000e+01  1.975189e+00  8.000000e-01
   endloop
 endfacet
 facet normal  0.000000e+00  0.000000e+00 -1.000000e+00
   outer loop
     vertex  6.000000e+00  1.110223e-16  0.000000e+00
     vertex  1.200000e+01 -3.608225e-16  0.000000e+00
     vertex  1.200000e+01 -2.298110e-01  0.000000e+00
   endloop
 endfacet
 facet normal  0.000000e+00  0.000000e+00 -1.000000e+00
   outer loop
     vertex  6.000000e+00 -3.000000e-01  0.000000e+00
     vertex  1.200000e+01 -2.298110e-01  0.000000e+00
     vertex  1.200000e+01 -3.000000e-01  0.000000e+00
   endloop
 endfacet
 facet normal  0.000000e+00  0.000000e+00 -1.000000e+00
   outer loop
     vertex  6.000000e+00 -3.000000e-01  0.000000e+00
     vertex  6.000000e+00  1.110223e-16  0.000000e+00
     vertex  1.200000e+01 -2.298110e-01  0.000000e+00
   endloop
 endfacet
 facet normal  0.000000e+00  1.000000e+00  0.000000e+00
   outer loop
     vertex  3.990000e+00  1.110223e-16  2.375000e+00
     vertex  6.000000e+00  1.110223e-16  0.000000e+00
     vertex  3.990000e+00  1.110223e-16  0.000000e+00
   endloop
 endfacet
 facet normal -0.000000e+00  1.000000e+00  0.000000e+00
   outer loop
     vertex  3.990000e+00  1.110223e-16  2.375000e+00
     vertex  6.000000e+00  1.110223e-16  2.375000e+00
     vertex  6.000000e+00  1.110223e-16  0.000000e+00
   endloop
 endfacet
 facet normal  0.000000e+00  1.000000e+00  0.000000e+00
   outer loop
     vertex  7.210000e+00 -2.775558e-16  2.000000e+00
     vertex  9.210000e+00 -2.775558e-16  8.000000e-01
     vertex  7.210000e+00 -2.775558e-16  8.000000e-01
   endloop
 endfacet
 facet normal -0.000000e+00  1.000000e+00  0.000000e+00
   outer loop
     vertex  7.210000e+00 -2.775558e-16  2.000000e+00
     vertex  9.210000e+00 -2.775558e-16  2.000000e+00
     vertex  9.210000e+00 -2.775558e-16  8.000000e-01
   endloop
 endfacet
 facet normal  0.000000e+00  1.000000e+00  0.000000e+00
   outer loop
     vertex  7.900000e-01  5.273559e-16  2.150000e+00
     vertex  2.790000e+00  5.273559e-16  9.500000e-01
     vertex  7.900000e-01  5.273559e-16  9.500000e-01
   endloop
 endfacet
 facet normal -0.000000e+00  1.000000e+00  0.000000e+00
   outer loop
     vertex  7.900000e-01  5.273559e-16  2.150000e+00
     vertex  2.790000e+00  5.273559e-16  2.150000e+00
     vertex  2.790000e+00  5.273559e-16  9.500000e-01
   endloop
 endfacet
 facet normal  0.000000e+00  0.000000e+00 -1.000000e+00
   outer loop
     vertex  3.990000e+00 -3.000000e-01  0.000000e+00
     vertex  6.000000e+00  1.110223e-16  0.000000e+00
     vertex  6.000000e+00 -3.000000e-01  0.000000e+00
   endloop
 endfacet
 facet normal  0.000000e+00  0.000000e+00 -1.000000e+00
   outer loop
     vertex  3.990000e+00 -3.000000e-01  0.000000e+00
     vertex  3.990000e+00  1.110223e-16  0.000000e+00
     vertex  6.000000e+00  1.110223e-16  0.000000e+00
   endloop
 endfacet
 facet normal -1.591718e-16 -1.000000e+00  0.000000e+00
   outer loop
     vertex  9.210000e+00 -3.000000e-01  8.000000e-01
     vertex  1.200000e+01 -3.000000e-01  0.000000e+00
     vertex  1.200000e+01 -3.000000e-01  2.700000e+00
   endloop
 endfacet
 facet normal -1.591718e-16 -1.000000e+00 -0.000000e+00
   outer loop
     vertex  9.210000e+00 -3.000000e-01  2.000000e+00
     vertex  9.210000e+00 -3.000000e-01  8.000000e-01
     vertex  1.200000e+01 -3.000000e-01  2.700000e+00
   endloop
 endfacet
 facet normal  0.000000e+00 -1.000000e+00 -4.857226e-16
   outer loop
     vertex  6.000000e+00 -3.000000e-01  0.000000e+00
     vertex  9.210000e+00 -3.000000e-01  8.000000e-01
     vertex  7.210000e+00 -3.000000e-01  8.000000e-01
   endloop
 endfacet
 facet normal -1.387779e-16 -1.000000e+00  7.112366e-17
   outer loop
     vertex  6.000000e+00 -3.000000e-01  0.000000e+00
     vertex  1.200000e+01 -3.000000e-01  0.000000e+00
     vertex  9.210000e+00 -3.000000e-01  8.000000e-01
   endloop
 endfacet
 facet normal  0.000000e+00 -1.000000e+00  1.036208e-15
   outer loop
     vertex  6.000000e+00 -3.000000e-01  2.375000e+00
     vertex  7.210000e+00 -3.000000e-01  2.000000e+00
     vertex  9.210000e+00 -3.000000e-01  2.000000e+00
   endloop
 endfacet
 facet normal -3.211389e-16 -1.000000e+00  0.000000e+00
   outer loop
     vertex  6.000000e+00 -3.000000e-01  2.375000e+00
     vertex  7.210000e+00 -3.000000e-01  8.000000e-01
     vertex  7.210000e+00 -3.000000e-01  2.000000e+00
   endloop
 endfacet
 facet normal -1.331627e-16 -1.000000e+00 -1.036646e-16
   outer loop
     vertex  6.000000e+00 -3.000000e-01  2.375000e+00
     vertex  9.210000e+00 -3.000000e-01  2.000000e+00
     vertex  1.200000e+01 -3.000000e-01  2.700000e+00
   endloop
 endfacet
 facet normal -3.211389e-16 -1.000000e+00 -0.000000e+00
   outer loop
     vertex  6.000000e+00 -3.000000e-01  2.375000e+00
     vertex  6.000000e+00 -3.000000e-01  0.000000e+00
     vertex  7.210000e+00 -3.000000e-01  8.000000e-01
   endloop
 endfacet
 facet normal -3.238150e-16 -1.000000e+00 -0.000000e+00
   outer loop
     vertex  3.990000e+00 -3.000000e-01  2.375000e+00
     vertex  2.790000e+00 -3.000000e-01  9.500000e-01
     vertex  3.990000e+00 -3.000000e-01  0.000000e+00
   endloop
 endfacet
 facet normal -3.238150e-16 -1.000000e+00 -0.000000e+00
   outer loop
     vertex  2.790000e+00 -3.000000e-01  2.150000e+00
     vertex  2.790000e+00 -3.000000e-01  9.500000e-01
     vertex  3.990000e+00 -3.000000e-01  2.375000e+00
   endloop
 endfacet
 facet normal -1.530383e-16 -1.000000e+00  2.157180e-16
   outer loop
     vertex  0.000000e+00 -3.000000e-01  0.000000e+00
     vertex  3.990000e+00 -3.000000e-01  0.000000e+00
     vertex  2.790000e+00 -3.000000e-01  9.500000e-01
   endloop
 endfacet
 facet normal  0.000000e+00 -1.000000e+00 -2.337312e-16
   outer loop
     vertex  7.900000e-01 -3.000000e-01  9.500000e-01
     vertex  0.000000e+00 -3.000000e-01  0.000000e+00
     vertex  2.790000e+00 -3.000000e-01  9.500000e-01
   endloop
 endfacet
 facet normal  0.000000e+00 -1.000000e+00  4.037175e-16
   outer loop
     vertex  0.000000e+00 -3.000000e-01  2.700000e+00
     vertex  7.900000e-01 -3.000000e-01  2.150000e+00
     vertex  2.790000e+00 -3.000000e-01  2.150000e+00
   endloop
 endfacet
 facet normal -2.810691e-16 -1.000000e+00  0.000000e+00
   outer loop
     vertex  0.000000e+00 -3.000000e-01  2.700000e+00
     vertex  7.900000e-01 -3.000000e-01  9.500000e-01
     vertex  7.900000e-01 -3.000000e-01  2.150000e+00
   endloop
 endfacet
 facet normal -2.047587e-16 -1.000000e+00 -6.349674e-16
   outer loop
     vertex  0.000000e+00 -3.000000e-01  2.700000e+00
     vertex  2.790000e+00 -3.000000e-01  2.150000e+00
     vertex  3.990000e+00 -3.000000e-01  2.375000e+00
   endloop
 endfacet
 facet normal -2.810691e-16 -1.000000e+00 -0.000000e+00
   outer loop
     vertex  0.000000e+00 -3.000000e-01  2.700000e+00
     vertex  0.000000e+00 -3.000000e-01  0.000000e+00
     vertex  7.900000e-01 -3.000000e-01  9.500000e-01
   endloop
 endfacet
 facet normal -1.202742e-16 -1.000000e+00  4.022423e-16
   outer loop
     vertex  1.200000e+01 -3.000000e-01  2.700000e+00
     vertex  0.000000e+00 -3.000000e-01  2.700000e+00
     vertex  3.990000e+00 -3.000000e-01  2.375000e+00
   endloop
 endfacet
 facet normal  0.000000e+00 -1.000000e+00 -2.562053e-15
   outer loop
     vertex  1.200000e+01 -3.000000e-01  2.700000e+00
     vertex  3.990000e+00 -3.000000e-01  2.375000e+00
     vertex  6.000000e+00 -3.000000e-01  2.375000e+00
   endloop
 endfacet
 facet normal  1.000000e+00  0.000000e+00  0.000000e+00
   outer loop
     vertex  1.200000e+01 -2.298110e-01  2.700000e+00
     vertex  1.200000e+01 -3.000000e-01  0.000000e+00
     vertex  1.200000e+01 -2.298110e-01  0.000000e+00
   endloop
 endfacet
 facet normal  1.000000e+00  0.000000e+00  0.000000e+00
   outer loop
     vertex  1.200000e+01 -2.298110e-01  2.700000e+00
     vertex  1.200000e+01 -3.000000e-01  2.700000e+00
     vertex  1.200000e+01 -3.000000e-01  0.000000e+00
   endloop
 endfacet
 facet normal  0.000000e+00  0.000000e+00  1.000000e+00
   outer loop
     vertex  1.200000e+01 -2.298110e-01  2.700000e+00
     vertex  1.200000e+01 -2.298110e-01  2.700000e+00
     vertex  1.200000e+01 -7.216450e-16  2.700000e+00
   endloop
 endfacet
 facet normal  0.000000e+00  0.000000e+00  1.000000e+00
   outer loop
     vertex  1.200000e+01 -2.298110e-01  2.700000e+00
     vertex  1.200000e+01 -7.216450e-16  2.700000e+00
     vertex  1.200000e+01 -3.608225e-16  2.700000e+00
   endloop
 endfacet
 facet normal  0.000000e+00  0.000000e+00 -1.000000e+00
   outer loop
     vertex  1.200000e+01 -3.608225e-16  0.000000e+00
     vertex  1.200000e+01  9.770189e+00  0.000000e+00
     vertex  1.230000e+01  9.770189e+00  0.000000e+00
   endloop
 endfacet
 facet normal  0.000000e+00  0.000000e+00 -1.000000e+00
   outer loop
     vertex  1.230000e+01 -2.298110e-01  0.000000e+00
     vertex  1.200000e+01 -2.298110e-01  0.000000e+00
     vertex  1.200000e+01 -3.608225e-16  0.000000e+00
   endloop
 endfacet
 facet normal  0.000000e+00  0.000000e+00 -1.000000e+00
   outer loop
     vertex  1.230000e+01 -2.298110e-01  0.000000e+00
     vertex  1.200000e+01 -3.608225e-16  0.000000e+00
     vertex  1.230000e+01  9.770189e+00  0.000000e+00
   endloop
 endfacet
 facet normal  0.000000e+00  0.000000e+00  1.000000e+00
   outer loop
     vertex  1.200000e+01 -3.608225e-16  2.700000e+00
     vertex  1.230000e+01  9.770189e+00  2.700000e+00
     vertex  1.200000e+01  9.770189e+00  2.700000e+00
   endloop
 endfacet
 facet normal  0.000000e+00  0.000000e+00  1.000000e+00
   outer loop
     vertex  1.230000e+01 -2.298110e-01  2.700000e+00
     vertex  1.200000e+01 -3.608225e-16  2.700000e+00
     vertex  1.200000e+01 -2.298110e-01  2.700000e+00
   endloop
 endfacet
 facet normal  0.000000e+00 -0.000000e+00  1.000000e+00
   outer loop
     vertex  1.230000e+01 -2.298110e-01  2.700000e+00
     vertex  1.230000e+01  9.770189e+00  2.700000e+00
     vertex  1.200000e+01 -3.608225e-16  2.700000e+00
   endloop
 endfacet
 facet normal -1.184234e-14  1.000000e+00  0.000000e+00
   outer loop
     vertex  1.200000e+01  9.770189e+00  2.700000e+00
     vertex  1.230000e+01  9.770189e+00  0.000000e+00
     vertex  1.200000e+01  9.770189e+00  0.000000e+00
   endloop
 endfacet
 facet normal -1.184234e-14  1.000000e+00  0.000000e+00
   outer loop
     vertex  1.200000e+01  9.770189e+00  2.700000e+00
     vertex  1.230000e+01  9.770189e+00  2.700000e+00
     vertex  1.230000e+01  9.770189e+00  0.000000e+00
   endloop
 endfacet
 facet normal -1.000000e+00  0.000000e+00  0.000000e+00
   outer loop
     vertex  1.200000e+01  5.272583e+00  2.000000e+00
     vertex  1.200000e+01  7.272583e+00  8.000000e-01
     vertex  1.200000e+01  5.272583e+00  8.000000e-01
   endloop
 endfacet
 facet normal -1.000000e+00  0.000000e+00  0.000000e+00
   outer loop
     vertex  1.200000e+01  5.272583e+00  2.000000e+00
     vertex  1.200000e+01  7.272583e+00  2.000000e+00
     vertex  1.200000e+01  7.272583e+00  8.000000e-01
   endloop
 endfacet
 facet normal  0.000000e+00  0.000000e+00 -1.000000e+00
   outer loop
     vertex  1.200000e+01 -2.298110e-01  0.000000e+00
     vertex  1.200000e+01 -7.216450e-16  0.000000e+00
     vertex  1.200000e+01 -2.298110e-01  0.000000e+00
   endloop
 endfacet
 facet normal  0.000000e+00  0.000000e+00 -1.000000e+00
   outer loop
     vertex  1.200000e+01 -2.298110e-01  0.000000e+00
     vertex  1.200000e+01 -3.608225e-16  0.000000e+00
     vertex  1.200000e+01 -7.216450e-16  0.000000e+00
   endloop
 endfacet
 facet normal  0.000000e+00 -1.000000e+00  0.000000e+00
   outer loop
     vertex  3.990000e+00 -3.000000e-01  2.375000e+00
     vertex  3.990000e+00 -3.000000e-01  0.000000e+00
     vertex  6.000000e+00 -3.000000e-01  0.000000e+00
   endloop
 endfacet
 facet normal  0.000000e+00 -1.000000e+00  0.000000e+00
   outer loop
     vertex  3.990000e+00 -3.000000e-01  2.375000e+00
     vertex  6.000000e+00 -3.000000e-01  0.000000e+00
     vertex  6.000000e+00 -3.000000e-01  2.375000e+00
   endloop
 endfacet
 facet normal  0.000000e+00 -1.000000e+00  0.000000e+00
   outer loop
     vertex  7.210000e+00 -3.000000e-01  2.000000e+00
     vertex  7.210000e+00 -3.000000e-01  8.000000e-01
     vertex  9.210000e+00 -3.000000e-01  8.000000e-01
   endloop
 endfacet
 facet normal  0.000000e+00 -1.000000e+00  0.000000e+00
   outer loop
     vertex  7.210000e+00 -3.000000e-01  2.000000e+00
     vertex  9.210000e+00 -3.000000e-01  8.000000e-01
     vertex  9.210000e+00 -3.000000e-01  2.000000e+00
   endloop
 endfacet
 facet normal  0.000000e+00 -1.000000e+00  0.000000e+00
   outer loop
     vertex  7.900000e-01 -3.000000e-01  2.150000e+00
     vertex  7.900000e-01 -3.000000e-01  9.500000e-01
     vertex  2.790000e+00 -3.000000e-01  9.500000e-01
   endloop
 endfacet
 facet normal  0.000000e+00 -1.000000e+00  0.000000e+00
   outer loop
     vertex  7.900000e-01 -3.000000e-01  2.150000e+00
     vertex  2.790000e+00 -3.000000e-01  9.500000e-01
     vertex  2.790000e+00 -3.000000e-01  2.150000e+00
   endloop
 endfacet
 facet normal  0.000000e+00 -1.000000e+00  0.000000e+00
   outer loop
     vertex  1.200000e+01 -2.298110e-01  2.700000e+00
     vertex  1.200000e+01 -2.298110e-01  0.000000e+00
     vertex  1.230000e+01 -2.298110e-01  0.000000e+00
   endloop
 endfacet
 facet normal  0.000000e+00 -1.000000e+00  0.000000e+00
   outer loop
     vertex  1.200000e+01 -2.298110e-01  2.700000e+00
     vertex  1.230000e+01 -2.298110e-01  0.000000e+00
     vertex  1.230000e+01 -2.298110e-01  2.700000e+00
   endloop
 endfacet
 facet normal  1.000000e+00 -0.000000e+00  0.000000e+00
   outer loop
     vertex  1.230000e+01  7.272583e+00  8.000000e-01
     vertex  1.230000e+01  9.770189e+00  0.000000e+00
     vertex  1.230000e+01  9.770189e+00  2.700000e+00
   endloop
 endfacet
 facet normal  1.000000e+00 -0.000000e+00  0.000000e+00
   outer loop
     vertex  1.230000e+01  7.272583e+00  2.000000e+00
     vertex  1.230000e+01  7.272583e+00  8.000000e-01
     vertex  1.230000e+01  9.770189e+00  2.700000e+00
   endloop
 endfacet
 facet normal  1.000000e+00 -0.000000e+00  0.000000e+00
   outer loop
     vertex  1.230000e+01  5.272583e+00  8.000000e-01
     vertex  1.230000e+01  9.770189e+00  0.000000e+00
     vertex  1.230000e+01  7.272583e+00  8.000000e-01
   endloop
 endfacet
 facet normal  1.000000e+00 -0.000000e+00  0.000000e+00
   outer loop
     vertex  1.230000e+01  1.975189e+00  2.000000e+00
     vertex  1.230000e+01  5.272583e+00  8.000000e-01
     vertex  1.230000e+01  5.272583e+00  2.000000e+00
   endloop
 endfacet
 facet normal  1.000000e+00  0.000000e+00  0.000000e+00
   outer loop
     vertex  1.230000e+01  1.975189e+00  2.000000e+00
     vertex  1.230000e+01  1.975189e+00  8.000000e-01
     vertex  1.230000e+01  5.272583e+00  8.000000e-01
   endloop
 endfacet
 facet normal  1.000000e+00  0.000000e+00 -2.220446e-15
   outer loop
     vertex  1.230000e+01 -2.298110e-01  0.000000e+00
     vertex  1.230000e+01  5.272583e+00  8.000000e-01
     vertex  1.230000e+01  1.975189e+00  8.000000e-01
   endloop
 endfacet
 facet normal  1.000000e+00  0.000000e+00 -2.220446e-15
   outer loop
     vertex  1.230000e+01 -2.481100e-02  8.000000e-01
     vertex  1.230000e+01 -2.298110e-01  0.000000e+00
     vertex  1.230000e+01  1.975189e+00  8.000000e-01
   endloop
 endfacet
 facet normal  1.000000e+00  0.000000e+00  2.537653e-15
   outer loop
     vertex  1.230000e+01 -2.298110e-01  2.700000e+00
     vertex  1.230000e+01 -2.481100e-02  2.000000e+00
     vertex  1.230000e+01  1.975189e+00  2.000000e+00
   endloop
 endfacet
 facet normal  1.000000e+00 -8.665155e-15  0.000000e+00
   outer loop
     vertex  1.230000e+01 -2.298110e-01  2.700000e+00
     vertex  1.230000e+01 -2.481100e-02  8.000000e-01
     vertex  1.230000e+01 -2.481100e-02  2.000000e+00
   endloop
 endfacet
 facet normal  1.000000e+00  0.000000e+00  2.537653e-15
   outer loop
     vertex  1.230000e+01 -2.298110e-01  2.700000e+00
     vertex  1.230000e+01  1.975189e+00  2.000000e+00
     vertex  1.230000e+01  5.272583e+00  2.000000e+00
   endloop
 endfacet
 facet normal  1.000000e+00 -8.665155e-15  0.000000e+00
   outer loop
     vertex  1.230000e+01 -2.298110e-01  2.700000e+00
     vertex  1.230000e+01 -2.298110e-01  0.000000e+00
     vertex  1.230000e+01 -2.481100e-02  8.000000e-01
   endloop
 endfacet
 facet normal  1.000000e+00 -1.776357e-16 -9.986691e-16
   outer loop
     vertex  1.230000e+01 -2.298110e-01  0.000000e+00
     vertex  1.230000e+01  9.770189e+00  0.000000e+00
     vertex  1.230000e+01  5.272583e+00  8.000000e-01
   endloop
 endfacet
 facet normal  1.000000e+00 -1.776357e-16  1.141336e-15
   outer loop
     vertex  1.230000e+01  9.770189e+00  2.700000e+00
     vertex  1.230000e+01 -2.298110e-01  2.700000e+00
     vertex  1.230000e+01  5.272583e+00  2.000000e+00
   endloop
 endfacet
 facet normal  1.000000e+00  0.000000e+00  0.000000e+00
   outer loop
     vertex  1.230000e+01  9.770189e+00  2.700000e+00
     vertex  1.230000e+01  5.272583e+00  2.000000e+00
     vertex  1.230000e+01  7.272583e+00  2.000000e+00
   endloop
 endfacet
 facet normal  1.000000e+00  0.000000e+00  0.000000e+00
   outer loop
     vertex  1.230000e+01  5.272583e+00  2.000000e+00
     vertex  1.230000e+01  5.272583e+00  8.000000e-01
     vertex  1.230000e+01  7.272583e+00  8.000000e-01
   endloop
 endfacet
 facet normal  1.000000e+00 -0.000000e+00  0.000000e+00
   outer loop
     vertex  1.230000e+01  5.272583e+00  2.000000e+00
     vertex  1.230000e+01  7.272583e+00  8.000000e-01
     vertex  1.230000e+01  7.272583e+00  2.000000e+00
   endloop
 endfacet
 facet normal  1.000000e+00  0.000000e+00  0.000000e+00
   outer loop
     vertex  1.230000e+01 -2.481100e-02  2.000000e+00
     vertex  1.230000e+01 -2.481100e-02  8.000000e-01
     vertex  1.230000e+01  1.975189e+00  8.000000e-01
   endloop
 endfacet
 facet normal  1.000000e+00 -0.000000e+00  0.000000e+00
   outer loop
     vertex  1.230000e+01 -2.481100e-02  2.000000e+00
     vertex  1.230000e+01  1.975189e+00  8.000000e-01
     vertex  1.230000e+01  1.975189e+00  2.000000e+00
   endloop
 endfacet
endsolid
