solid 
 facet normal -1.000000e+00  3.576280e-07  7.873778e-14
   outer loop
     vertex  2.385002e+01  1.679920e+02 -2.400001e-03
     vertex  2.385002e+01  1.680240e+02 -6.000000e-02
     vertex  2.385002e+01  1.679920e+02 -6.000000e-02
   endloop
 endfacet
 facet normal -1.000000e+00  3.576279e-07  1.705854e-14
   outer loop
     vertex  2.385002e+01  1.679920e+02 -2.400001e-03
     vertex  2.385002e+01  1.680240e+02 -2.399999e-03
     vertex  2.385002e+01  1.680240e+02 -6.000000e-02
   endloop
 endfacet
 facet normal -3.576280e-07 -1.000000e+00 -4.769913e-08
   outer loop
     vertex  2.406602e+01  1.679920e+02 -2.400001e-03
     vertex  2.385002e+01  1.679920e+02 -6.000000e-02
     vertex  2.406602e+01  1.679920e+02 -6.000000e-02
   endloop
 endfacet
 facet normal -3.576279e-07 -1.000000e+00 -4.769962e-08
   outer loop
     vertex  2.406602e+01  1.679920e+02 -2.400001e-03
     vertex  2.385002e+01  1.679920e+02 -2.400001e-03
     vertex  2.385002e+01  1.679920e+02 -6.000000e-02
   endloop
 endfacet
 facet normal -3.860666e-16 -4.769953e-08  1.000000e+00
   outer loop
     vertex  2.406602e+01  1.680240e+02 -2.399999e-03
     vertex  2.385002e+01  1.680240e+02 -2.399999e-03
     vertex  2.385002e+01  1.679920e+02 -2.400001e-03
   endloop
 endfacet
 facet normal -3.699981e-16 -4.769953e-08  1.000000e+00
   outer loop
     vertex  2.406602e+01  1.680240e+02 -2.399999e-03
     vertex  2.385002e+01  1.679920e+02 -2.400001e-03
     vertex  2.406602e+01  1.679920e+02 -2.400001e-03
   endloop
 endfacet
 facet normal  3.576279e-07  1.000000e+00  4.769962e-08
   outer loop
     vertex  2.406602e+01  1.680240e+02 -2.399999e-03
     vertex  2.406602e+01  1.680240e+02 -6.000000e-02
     vertex  2.385002e+01  1.680240e+02 -6.000000e-02
   endloop
 endfacet
 facet normal  3.576280e-07  1.000000e+00  4.769913e-08
   outer loop
     vertex  2.406602e+01  1.680240e+02 -2.399999e-03
     vertex  2.385002e+01  1.680240e+02 -6.000000e-02
     vertex  2.385002e+01  1.680240e+02 -2.399999e-03
   endloop
 endfacet
 facet normal  3.860603e-16  4.769953e-08 -1.000000e+00
   outer loop
     vertex  2.406602e+01  1.680240e+02 -6.000000e-02
     vertex  2.385002e+01  1.679920e+02 -6.000000e-02
     vertex  2.385002e+01  1.680240e+02 -6.000000e-02
   endloop
 endfacet
 facet normal  3.860666e-16  4.769953e-08 -1.000000e+00
   outer loop
     vertex  2.406602e+01  1.680240e+02 -6.000000e-02
     vertex  2.406602e+01  1.679920e+02 -6.000000e-02
     vertex  2.385002e+01  1.679920e+02 -6.000000e-02
   endloop
 endfacet
 facet normal  1.000000e+00 -3.576279e-07 -1.705854e-14
   outer loop
     vertex  2.406602e+01  1.679920e+02 -2.400001e-03
     vertex  2.406602e+01  1.679920e+02 -6.000000e-02
     vertex  2.406602e+01  1.680240e+02 -6.000000e-02
   endloop
 endfacet
 facet normal  1.000000e+00 -3.576280e-07 -7.873778e-14
   outer loop
     vertex  2.406602e+01  1.679920e+02 -2.400001e-03
     vertex  2.406602e+01  1.680240e+02 -6.000000e-02
     vertex  2.406602e+01  1.680240e+02 -2.399999e-03
   endloop
 endfacet
 facet normal -1.000000e+00  3.576277e-07  1.705871e-14
   outer loop
     vertex  2.078500e+02  1.679921e+02 -2.400001e-03
     vertex  2.078500e+02  1.680241e+02 -6.000000e-02
     vertex  2.078500e+02  1.679921e+02 -6.000000e-02
   endloop
 endfacet
 facet normal -1.000000e+00  3.576277e-07  1.705871e-14
   outer loop
     vertex  2.078500e+02  1.679921e+02 -2.400001e-03
     vertex  2.078500e+02  1.680241e+02 -2.399999e-03
     vertex  2.078500e+02  1.680241e+02 -6.000000e-02
   endloop
 endfacet
 facet normal -3.576279e-07 -1.000000e+00 -4.769962e-08
   outer loop
     vertex  2.080660e+02  1.679921e+02 -2.400001e-03
     vertex  2.078500e+02  1.679921e+02 -6.000000e-02
     vertex  2.080660e+02  1.679921e+02 -6.000000e-02
   endloop
 endfacet
 facet normal -3.576279e-07 -1.000000e+00 -4.769962e-08
   outer loop
     vertex  2.080660e+02  1.679921e+02 -2.400001e-03
     vertex  2.078500e+02  1.679921e+02 -2.400001e-03
     vertex  2.078500e+02  1.679921e+02 -6.000000e-02
   endloop
 endfacet
 facet normal -3.860601e-16 -4.769953e-08  1.000000e+00
   outer loop
     vertex  2.080660e+02  1.680241e+02 -2.399999e-03
     vertex  2.078500e+02  1.680241e+02 -2.399999e-03
     vertex  2.078500e+02  1.679921e+02 -2.400001e-03
   endloop
 endfacet
 facet normal -3.860601e-16 -4.769953e-08  1.000000e+00
   outer loop
     vertex  2.080660e+02  1.680241e+02 -2.399999e-03
     vertex  2.078500e+02  1.679921e+02 -2.400001e-03
     vertex  2.080660e+02  1.679921e+02 -2.400001e-03
   endloop
 endfacet
 facet normal  3.576279e-07  1.000000e+00  4.769962e-08
   outer loop
     vertex  2.080660e+02  1.680241e+02 -2.399999e-03
     vertex  2.080660e+02  1.680241e+02 -6.000000e-02
     vertex  2.078500e+02  1.680241e+02 -6.000000e-02
   endloop
 endfacet
 facet normal  3.576279e-07  1.000000e+00  4.769962e-08
   outer loop
     vertex  2.080660e+02  1.680241e+02 -2.399999e-03
     vertex  2.078500e+02  1.680241e+02 -6.000000e-02
     vertex  2.078500e+02  1.680241e+02 -2.399999e-03
   endloop
 endfacet
 facet normal  4.181845e-16  4.769953e-08 -1.000000e+00
   outer loop
     vertex  2.080660e+02  1.680241e+02 -6.000000e-02
     vertex  2.078500e+02  1.679921e+02 -6.000000e-02
     vertex  2.078500e+02  1.680241e+02 -6.000000e-02
   endloop
 endfacet
 facet normal  3.539357e-16  4.769953e-08 -1.000000e+00
   outer loop
     vertex  2.080660e+02  1.680241e+02 -6.000000e-02
     vertex  2.080660e+02  1.679921e+02 -6.000000e-02
     vertex  2.078500e+02  1.679921e+02 -6.000000e-02
   endloop
 endfacet
 facet normal  1.000000e+00 -3.576277e-07 -1.705871e-14
   outer loop
     vertex  2.080660e+02  1.679921e+02 -2.400001e-03
     vertex  2.080660e+02  1.679921e+02 -6.000000e-02
     vertex  2.080660e+02  1.680241e+02 -6.000000e-02
   endloop
 endfacet
 facet normal  1.000000e+00 -3.576277e-07 -1.705871e-14
   outer loop
     vertex  2.080660e+02  1.679921e+02 -2.400001e-03
     vertex  2.080660e+02  1.680241e+02 -6.000000e-02
     vertex  2.080660e+02  1.680241e+02 -2.399999e-03
   endloop
 endfacet
endsolid
