solid 
 facet normal -1.000000e+00  0.000000e+00  0.000000e+00
   outer loop
     vertex  0.000000e+00  1.000000e+00  0.000000e+00
     vertex  0.000000e+00  0.000000e+00  0.000000e+00
     vertex  0.000000e+00  0.000000e+00  2.000000e+01
   endloop
 endfacet
 facet normal -1.000000e+00  0.000000e+00  0.000000e+00
   outer loop
     vertex  0.000000e+00  1.000000e+00  0.000000e+00
     vertex  0.000000e+00  0.000000e+00  2.000000e+01
     vertex  0.000000e+00  1.000000e+00  2.000000e+01
   endloop
 endfacet
 facet normal  0.000000e+00 -1.000000e+00  0.000000e+00
   outer loop
     vertex  0.000000e+00  0.000000e+00  0.000000e+00
     vertex  4.500001e+00  0.000000e+00  0.000000e+00
     vertex  4.500001e+00  0.000000e+00  2.000000e+01
   endloop
 endfacet
 facet normal  0.000000e+00 -1.000000e+00  0.000000e+00
   outer loop
     vertex  0.000000e+00  0.000000e+00  0.000000e+00
     vertex  4.500001e+00  0.000000e+00  2.000000e+01
     vertex  0.000000e+00  0.000000e+00  2.000000e+01
   endloop
 endfacet
 facet normal  0.000000e+00  1.000000e+00  0.000000e+00
   outer loop
     vertex  0.000000e+00  1.000000e+00  0.000000e+00
     vertex  0.000000e+00  1.000000e+00  2.000000e+01
     vertex  4.500001e+00  1.000000e+00  2.000000e+01
   endloop
 endfacet
 facet normal  0.000000e+00  1.000000e+00 -0.000000e+00
   outer loop
     vertex  4.500001e+00  1.000000e+00  0.000000e+00
     vertex  0.000000e+00  1.000000e+00  0.000000e+00
     vertex  4.500001e+00  1.000000e+00  2.000000e+01
   endloop
 endfacet
 facet normal  0.000000e+00  0.000000e+00 -1.000000e+00
   outer loop
     vertex  0.000000e+00  0.000000e+00  0.000000e+00
     vertex  4.500001e+00  1.000000e+00  0.000000e+00
     vertex  4.500001e+00  0.000000e+00  0.000000e+00
   endloop
 endfacet
 facet normal  0.000000e+00  0.000000e+00 -1.000000e+00
   outer loop
     vertex  0.000000e+00  1.000000e+00  0.000000e+00
     vertex  4.500001e+00  1.000000e+00  0.000000e+00
     vertex  0.000000e+00  0.000000e+00  0.000000e+00
   endloop
 endfacet
 facet normal  0.000000e+00  0.000000e+00  1.000000e+00
   outer loop
     vertex  0.000000e+00  0.000000e+00  2.000000e+01
     vertex  4.500001e+00  0.000000e+00  2.000000e+01
     vertex  4.500001e+00  1.000000e+00  2.000000e+01
   endloop
 endfacet
 facet normal -0.000000e+00  0.000000e+00  1.000000e+00
   outer loop
     vertex  0.000000e+00  1.000000e+00  2.000000e+01
     vertex  0.000000e+00  0.000000e+00  2.000000e+01
     vertex  4.500001e+00  1.000000e+00  2.000000e+01
   endloop
 endfacet
 facet normal -1.000000e+00 -1.947072e-07  0.000000e+00
   outer loop
     vertex  4.500001e+00  0.000000e+00  0.000000e+00
     vertex  4.500002e+00 -5.500000e+00  0.000000e+00
     vertex  4.500002e+00 -5.500000e+00  2.000000e+01
   endloop
 endfacet
 facet normal -1.000000e+00 -1.947072e-07  0.000000e+00
   outer loop
     vertex  4.500001e+00  0.000000e+00  0.000000e+00
     vertex  4.500002e+00 -5.500000e+00  2.000000e+01
     vertex  4.500001e+00  0.000000e+00  2.000000e+01
   endloop
 endfacet
 facet normal -1.000000e+00 -1.947072e-07  0.000000e+00
   outer loop
     vertex  4.500000e+00  4.500000e+00  0.000000e+00
     vertex  4.500001e+00  1.000000e+00  0.000000e+00
     vertex  4.500001e+00  1.000000e+00  2.000000e+01
   endloop
 endfacet
 facet normal -1.000000e+00 -1.947072e-07  0.000000e+00
   outer loop
     vertex  4.500000e+00  4.500000e+00  0.000000e+00
     vertex  4.500001e+00  1.000000e+00  2.000000e+01
     vertex  4.500000e+00  4.500000e+00  2.000000e+01
   endloop
 endfacet
 facet normal  0.000000e+00 -0.000000e+00 -1.000000e+00
   outer loop
     vertex  5.500001e+00  1.000000e+00  0.000000e+00
     vertex  5.500001e+00  4.440892e-16  0.000000e+00
     vertex  4.500001e+00  0.000000e+00  0.000000e+00
   endloop
 endfacet
 facet normal  0.000000e+00  0.000000e+00 -1.000000e+00
   outer loop
     vertex  4.500001e+00  1.000000e+00  0.000000e+00
     vertex  5.500001e+00  1.000000e+00  0.000000e+00
     vertex  4.500001e+00  0.000000e+00  0.000000e+00
   endloop
 endfacet
 facet normal  0.000000e+00  0.000000e+00  1.000000e+00
   outer loop
     vertex  5.500001e+00  1.000000e+00  2.000000e+01
     vertex  4.500001e+00  0.000000e+00  2.000000e+01
     vertex  5.500001e+00  4.440892e-16  2.000000e+01
   endloop
 endfacet
 facet normal -0.000000e+00  0.000000e+00  1.000000e+00
   outer loop
     vertex  4.500001e+00  1.000000e+00  2.000000e+01
     vertex  4.500001e+00  0.000000e+00  2.000000e+01
     vertex  5.500001e+00  1.000000e+00  2.000000e+01
   endloop
 endfacet
 facet normal  0.000000e+00  0.000000e+00 -1.000000e+00
   outer loop
     vertex  5.500001e+00  4.440892e-16  0.000000e+00
     vertex  4.500002e+00 -5.500000e+00  0.000000e+00
     vertex  4.500001e+00  0.000000e+00  0.000000e+00
   endloop
 endfacet
 facet normal  0.000000e+00 -0.000000e+00 -1.000000e+00
   outer loop
     vertex  5.500001e+00  4.440892e-16  0.000000e+00
     vertex  5.500002e+00 -5.500000e+00  0.000000e+00
     vertex  4.500002e+00 -5.500000e+00  0.000000e+00
   endloop
 endfacet
 facet normal  0.000000e+00  0.000000e+00  1.000000e+00
   outer loop
     vertex  5.500001e+00  4.440892e-16  2.000000e+01
     vertex  4.500001e+00  0.000000e+00  2.000000e+01
     vertex  4.500002e+00 -5.500000e+00  2.000000e+01
   endloop
 endfacet
 facet normal  0.000000e+00  0.000000e+00  1.000000e+00
   outer loop
     vertex  5.500001e+00  4.440892e-16  2.000000e+01
     vertex  4.500002e+00 -5.500000e+00  2.000000e+01
     vertex  5.500002e+00 -5.500000e+00  2.000000e+01
   endloop
 endfacet
 facet normal  1.947072e-07 -1.000000e+00  0.000000e+00
   outer loop
     vertex  4.500002e+00 -5.500000e+00  0.000000e+00
     vertex  5.500002e+00 -5.500000e+00  0.000000e+00
     vertex  5.500002e+00 -5.500000e+00  2.000000e+01
   endloop
 endfacet
 facet normal  1.947072e-07 -1.000000e+00  0.000000e+00
   outer loop
     vertex  4.500002e+00 -5.500000e+00  0.000000e+00
     vertex  5.500002e+00 -5.500000e+00  2.000000e+01
     vertex  4.500002e+00 -5.500000e+00  2.000000e+01
   endloop
 endfacet
 facet normal  0.000000e+00  0.000000e+00 -1.000000e+00
   outer loop
     vertex  5.500000e+00  4.500000e+00  0.000000e+00
     vertex  4.500001e+00  1.000000e+00  0.000000e+00
     vertex  4.500000e+00  4.500000e+00  0.000000e+00
   endloop
 endfacet
 facet normal  0.000000e+00 -0.000000e+00 -1.000000e+00
   outer loop
     vertex  5.500000e+00  4.500000e+00  0.000000e+00
     vertex  5.500001e+00  1.000000e+00  0.000000e+00
     vertex  4.500001e+00  1.000000e+00  0.000000e+00
   endloop
 endfacet
 facet normal -1.947072e-07  1.000000e+00  0.000000e+00
   outer loop
     vertex  5.500000e+00  4.500000e+00  0.000000e+00
     vertex  4.500000e+00  4.500000e+00  0.000000e+00
     vertex  4.500000e+00  4.500000e+00  2.000000e+01
   endloop
 endfacet
 facet normal -1.947072e-07  1.000000e+00  0.000000e+00
   outer loop
     vertex  5.500000e+00  4.500000e+00  0.000000e+00
     vertex  4.500000e+00  4.500000e+00  2.000000e+01
     vertex  5.500000e+00  4.500000e+00  2.000000e+01
   endloop
 endfacet
 facet normal  0.000000e+00  0.000000e+00  1.000000e+00
   outer loop
     vertex  5.500000e+00  4.500000e+00  2.000000e+01
     vertex  4.500000e+00  4.500000e+00  2.000000e+01
     vertex  4.500001e+00  1.000000e+00  2.000000e+01
   endloop
 endfacet
 facet normal  0.000000e+00  0.000000e+00  1.000000e+00
   outer loop
     vertex  5.500000e+00  4.500000e+00  2.000000e+01
     vertex  4.500001e+00  1.000000e+00  2.000000e+01
     vertex  5.500001e+00  1.000000e+00  2.000000e+01
   endloop
 endfacet
 facet normal  0.000000e+00  0.000000e+00 -1.000000e+00
   outer loop
     vertex  5.500001e+00  4.440892e-16  0.000000e+00
     vertex  1.000000e+01  1.000000e+00  0.000000e+00
     vertex  1.000000e+01  0.000000e+00  0.000000e+00
   endloop
 endfacet
 facet normal  0.000000e+00  0.000000e+00 -1.000000e+00
   outer loop
     vertex  5.500001e+00  1.000000e+00  0.000000e+00
     vertex  1.000000e+01  1.000000e+00  0.000000e+00
     vertex  5.500001e+00  4.440892e-16  0.000000e+00
   endloop
 endfacet
 facet normal -0.000000e+00  0.000000e+00  1.000000e+00
   outer loop
     vertex  5.500001e+00  4.440892e-16  2.000000e+01
     vertex  1.000000e+01  0.000000e+00  2.000000e+01
     vertex  1.000000e+01  1.000000e+00  2.000000e+01
   endloop
 endfacet
 facet normal -0.000000e+00  0.000000e+00  1.000000e+00
   outer loop
     vertex  5.500001e+00  1.000000e+00  2.000000e+01
     vertex  5.500001e+00  4.440892e-16  2.000000e+01
     vertex  1.000000e+01  1.000000e+00  2.000000e+01
   endloop
 endfacet
 facet normal  1.000000e+00  1.947072e-07 -0.000000e+00
   outer loop
     vertex  5.500001e+00  4.440892e-16  0.000000e+00
     vertex  5.500001e+00  4.440892e-16  2.000000e+01
     vertex  5.500002e+00 -5.500000e+00  2.000000e+01
   endloop
 endfacet
 facet normal  1.000000e+00  1.947072e-07 -0.000000e+00
   outer loop
     vertex  5.500002e+00 -5.500000e+00  0.000000e+00
     vertex  5.500001e+00  4.440892e-16  0.000000e+00
     vertex  5.500002e+00 -5.500000e+00  2.000000e+01
   endloop
 endfacet
 facet normal  1.000000e+00  1.947072e-07  0.000000e+00
   outer loop
     vertex  5.500001e+00  1.000000e+00  0.000000e+00
     vertex  5.500000e+00  4.500000e+00  0.000000e+00
     vertex  5.500000e+00  4.500000e+00  2.000000e+01
   endloop
 endfacet
 facet normal  1.000000e+00  1.947072e-07 -0.000000e+00
   outer loop
     vertex  5.500001e+00  1.000000e+00  0.000000e+00
     vertex  5.500000e+00  4.500000e+00  2.000000e+01
     vertex  5.500001e+00  1.000000e+00  2.000000e+01
   endloop
 endfacet
 facet normal -9.868651e-17 -1.000000e+00  0.000000e+00
   outer loop
     vertex  5.500001e+00  4.440892e-16  0.000000e+00
     vertex  1.000000e+01  0.000000e+00  0.000000e+00
     vertex  1.000000e+01  0.000000e+00  2.000000e+01
   endloop
 endfacet
 facet normal -9.868651e-17 -1.000000e+00  0.000000e+00
   outer loop
     vertex  5.500001e+00  4.440892e-16  0.000000e+00
     vertex  1.000000e+01  0.000000e+00  2.000000e+01
     vertex  5.500001e+00  4.440892e-16  2.000000e+01
   endloop
 endfacet
 facet normal  1.000000e+00  0.000000e+00  0.000000e+00
   outer loop
     vertex  1.000000e+01  0.000000e+00  0.000000e+00
     vertex  1.000000e+01  1.000000e+00  0.000000e+00
     vertex  1.000000e+01  1.000000e+00  2.000000e+01
   endloop
 endfacet
 facet normal  1.000000e+00  0.000000e+00  0.000000e+00
   outer loop
     vertex  1.000000e+01  0.000000e+00  0.000000e+00
     vertex  1.000000e+01  1.000000e+00  2.000000e+01
     vertex  1.000000e+01  0.000000e+00  2.000000e+01
   endloop
 endfacet
 facet normal  0.000000e+00  1.000000e+00  0.000000e+00
   outer loop
     vertex  1.000000e+01  1.000000e+00  0.000000e+00
     vertex  5.500001e+00  1.000000e+00  0.000000e+00
     vertex  5.500001e+00  1.000000e+00  2.000000e+01
   endloop
 endfacet
 facet normal  0.000000e+00  1.000000e+00 -0.000000e+00
   outer loop
     vertex  1.000000e+01  1.000000e+00  0.000000e+00
     vertex  5.500001e+00  1.000000e+00  2.000000e+01
     vertex  1.000000e+01  1.000000e+00  2.000000e+01
   endloop
 endfacet
 facet normal  4.371139e-08 -1.000000e+00  0.000000e+00
   outer loop
     vertex -5.000000e+00  5.000000e+00  0.000000e+00
     vertex -4.000000e+00  5.000000e+00  0.000000e+00
     vertex -4.000000e+00  5.000000e+00  2.000000e+01
   endloop
 endfacet
 facet normal  4.371139e-08 -1.000000e+00  0.000000e+00
   outer loop
     vertex -5.000000e+00  5.000000e+00  0.000000e+00
     vertex -4.000000e+00  5.000000e+00  2.000000e+01
     vertex -5.000000e+00  5.000000e+00  2.000000e+01
   endloop
 endfacet
 facet normal  1.000000e+00  4.371139e-08  0.000000e+00
   outer loop
     vertex -4.000000e+00  5.000000e+00  0.000000e+00
     vertex -4.000000e+00  1.400000e+01  0.000000e+00
     vertex -4.000000e+00  1.400000e+01  2.000000e+01
   endloop
 endfacet
 facet normal  1.000000e+00  4.371139e-08 -0.000000e+00
   outer loop
     vertex -4.000000e+00  5.000000e+00  0.000000e+00
     vertex -4.000000e+00  1.400000e+01  2.000000e+01
     vertex -4.000000e+00  5.000000e+00  2.000000e+01
   endloop
 endfacet
 facet normal -1.000000e+00 -4.371139e-08  0.000000e+00
   outer loop
     vertex -5.000000e+00  1.400000e+01  0.000000e+00
     vertex -5.000000e+00  5.000000e+00  0.000000e+00
     vertex -5.000000e+00  5.000000e+00  2.000000e+01
   endloop
 endfacet
 facet normal -1.000000e+00 -4.371139e-08  0.000000e+00
   outer loop
     vertex -5.000000e+00  1.400000e+01  0.000000e+00
     vertex -5.000000e+00  5.000000e+00  2.000000e+01
     vertex -5.000000e+00  1.400000e+01  2.000000e+01
   endloop
 endfacet
 facet normal  0.000000e+00  0.000000e+00 -1.000000e+00
   outer loop
     vertex -5.000000e+00  5.000000e+00  0.000000e+00
     vertex -5.000000e+00  1.400000e+01  0.000000e+00
     vertex -4.000000e+00  1.400000e+01  0.000000e+00
   endloop
 endfacet
 facet normal  0.000000e+00  0.000000e+00 -1.000000e+00
   outer loop
     vertex -5.000000e+00  5.000000e+00  0.000000e+00
     vertex -4.000000e+00  1.400000e+01  0.000000e+00
     vertex -4.000000e+00  5.000000e+00  0.000000e+00
   endloop
 endfacet
 facet normal  0.000000e+00 -0.000000e+00  1.000000e+00
   outer loop
     vertex -5.000000e+00  5.000000e+00  2.000000e+01
     vertex -4.000000e+00  1.400000e+01  2.000000e+01
     vertex -5.000000e+00  1.400000e+01  2.000000e+01
   endloop
 endfacet
 facet normal  0.000000e+00  0.000000e+00  1.000000e+00
   outer loop
     vertex -5.000000e+00  5.000000e+00  2.000000e+01
     vertex -4.000000e+00  5.000000e+00  2.000000e+01
     vertex -4.000000e+00  1.400000e+01  2.000000e+01
   endloop
 endfacet
 facet normal -4.371139e-08  1.000000e+00  0.000000e+00
   outer loop
     vertex -4.000000e+00  1.400000e+01  0.000000e+00
     vertex -5.000000e+00  1.400000e+01  0.000000e+00
     vertex -5.000000e+00  1.400000e+01  2.000000e+01
   endloop
 endfacet
 facet normal -4.371139e-08  1.000000e+00  0.000000e+00
   outer loop
     vertex -4.000000e+00  1.400000e+01  0.000000e+00
     vertex -5.000000e+00  1.400000e+01  2.000000e+01
     vertex -4.000000e+00  1.400000e+01  2.000000e+01
   endloop
 endfacet
 facet normal -1.000000e+00  0.000000e+00  0.000000e+00
   outer loop
     vertex  1.000000e+00  1.000000e+01  0.000000e+00
     vertex  1.000000e+00  9.000000e+00  0.000000e+00
     vertex  1.000000e+00  9.000000e+00  2.000000e+01
   endloop
 endfacet
 facet normal -1.000000e+00  0.000000e+00  0.000000e+00
   outer loop
     vertex  1.000000e+00  1.000000e+01  0.000000e+00
     vertex  1.000000e+00  9.000000e+00  2.000000e+01
     vertex  1.000000e+00  1.000000e+01  2.000000e+01
   endloop
 endfacet
 facet normal  0.000000e+00 -1.000000e+00  0.000000e+00
   outer loop
     vertex  1.000000e+00  9.000000e+00  0.000000e+00
     vertex  8.990000e+00  9.000000e+00  0.000000e+00
     vertex  8.990000e+00  9.000000e+00  2.000000e+01
   endloop
 endfacet
 facet normal  0.000000e+00 -1.000000e+00  0.000000e+00
   outer loop
     vertex  1.000000e+00  9.000000e+00  0.000000e+00
     vertex  8.990000e+00  9.000000e+00  2.000000e+01
     vertex  1.000000e+00  9.000000e+00  2.000000e+01
   endloop
 endfacet
 facet normal  0.000000e+00  1.000000e+00  0.000000e+00
   outer loop
     vertex  8.990000e+00  1.000000e+01  0.000000e+00
     vertex  1.000000e+00  1.000000e+01  0.000000e+00
     vertex  1.000000e+00  1.000000e+01  2.000000e+01
   endloop
 endfacet
 facet normal  0.000000e+00  1.000000e+00 -0.000000e+00
   outer loop
     vertex  8.990000e+00  1.000000e+01  0.000000e+00
     vertex  1.000000e+00  1.000000e+01  2.000000e+01
     vertex  8.990000e+00  1.000000e+01  2.000000e+01
   endloop
 endfacet
 facet normal  0.000000e+00  0.000000e+00 -1.000000e+00
   outer loop
     vertex  1.000000e+00  1.000000e+01  0.000000e+00
     vertex  8.990000e+00  1.000000e+01  0.000000e+00
     vertex  8.990000e+00  9.000000e+00  0.000000e+00
   endloop
 endfacet
 facet normal  0.000000e+00  0.000000e+00 -1.000000e+00
   outer loop
     vertex  1.000000e+00  1.000000e+01  0.000000e+00
     vertex  8.990000e+00  9.000000e+00  0.000000e+00
     vertex  1.000000e+00  9.000000e+00  0.000000e+00
   endloop
 endfacet
 facet normal -0.000000e+00  0.000000e+00  1.000000e+00
   outer loop
     vertex  1.000000e+00  1.000000e+01  2.000000e+01
     vertex  8.990000e+00  9.000000e+00  2.000000e+01
     vertex  8.990000e+00  1.000000e+01  2.000000e+01
   endloop
 endfacet
 facet normal  0.000000e+00  0.000000e+00  1.000000e+00
   outer loop
     vertex  1.000000e+00  1.000000e+01  2.000000e+01
     vertex  1.000000e+00  9.000000e+00  2.000000e+01
     vertex  8.990000e+00  9.000000e+00  2.000000e+01
   endloop
 endfacet
 facet normal  1.000000e+00  0.000000e+00  0.000000e+00
   outer loop
     vertex  8.990000e+00  9.000000e+00  0.000000e+00
     vertex  8.990000e+00  1.000000e+01  0.000000e+00
     vertex  8.990000e+00  1.000000e+01  2.000000e+01
   endloop
 endfacet
 facet normal  1.000000e+00  0.000000e+00  0.000000e+00
   outer loop
     vertex  8.990000e+00  9.000000e+00  0.000000e+00
     vertex  8.990000e+00  1.000000e+01  2.000000e+01
     vertex  8.990000e+00  9.000000e+00  2.000000e+01
   endloop
 endfacet
endsolid
