solid 
 facet normal  1.000000e+00  0.000000e+00  0.000000e+00
   outer loop
     vertex  1.400000e+00  5.000000e+00  2.400000e-01
     vertex  1.400000e+00  5.000000e+00  0.000000e+00
     vertex  1.400000e+00  5.400000e+00  0.000000e+00
   endloop
 endfacet
 facet normal  1.000000e+00 -0.000000e+00  0.000000e+00
   outer loop
     vertex  1.400000e+00  5.000000e+00  2.400000e-01
     vertex  1.400000e+00  5.400000e+00  0.000000e+00
     vertex  1.400000e+00  5.400000e+00  2.400000e-01
   endloop
 endfacet
 facet normal  0.000000e+00 -1.000000e+00 -0.000000e+00
   outer loop
     vertex  1.400000e+00  5.000000e+00  2.400000e-01
     vertex  4.000000e-01  5.000000e+00  0.000000e+00
     vertex  1.400000e+00  5.000000e+00  0.000000e+00
   endloop
 endfacet
 facet normal -0.000000e+00 -1.000000e+00  0.000000e+00
   outer loop
     vertex  1.400000e+00  5.000000e+00  2.400000e-01
     vertex  4.000000e-01  5.000000e+00  2.400000e-01
     vertex  4.000000e-01  5.000000e+00  0.000000e+00
   endloop
 endfacet
 facet normal  0.000000e+00  0.000000e+00  1.000000e+00
   outer loop
     vertex  1.400000e+00  5.400000e+00  2.400000e-01
     vertex  4.000000e-01  5.400000e+00  2.400000e-01
     vertex  4.000000e-01  5.000000e+00  2.400000e-01
   endloop
 endfacet
 facet normal  0.000000e+00  0.000000e+00  1.000000e+00
   outer loop
     vertex  1.400000e+00  5.400000e+00  2.400000e-01
     vertex  4.000000e-01  5.000000e+00  2.400000e-01
     vertex  1.400000e+00  5.000000e+00  2.400000e-01
   endloop
 endfacet
 facet normal  0.000000e+00  1.000000e+00  0.000000e+00
   outer loop
     vertex  1.400000e+00  5.400000e+00  2.400000e-01
     vertex  1.400000e+00  5.400000e+00  0.000000e+00
     vertex  4.000000e-01  5.400000e+00  0.000000e+00
   endloop
 endfacet
 facet normal  0.000000e+00  1.000000e+00  0.000000e+00
   outer loop
     vertex  1.400000e+00  5.400000e+00  2.400000e-01
     vertex  4.000000e-01  5.400000e+00  0.000000e+00
     vertex  4.000000e-01  5.400000e+00  2.400000e-01
   endloop
 endfacet
 facet normal -0.000000e+00  0.000000e+00 -1.000000e+00
   outer loop
     vertex  1.400000e+00  5.400000e+00  0.000000e+00
     vertex  4.000000e-01  5.000000e+00  0.000000e+00
     vertex  4.000000e-01  5.400000e+00  0.000000e+00
   endloop
 endfacet
 facet normal  0.000000e+00 -0.000000e+00 -1.000000e+00
   outer loop
     vertex  1.400000e+00  5.400000e+00  0.000000e+00
     vertex  1.400000e+00  5.000000e+00  0.000000e+00
     vertex  4.000000e-01  5.000000e+00  0.000000e+00
   endloop
 endfacet
 facet normal  0.000000e+00 -1.000000e+00  0.000000e+00
   outer loop
     vertex -1.110223e-16  5.000000e+00  2.400000e-01
     vertex -1.110223e-16  5.000000e+00  0.000000e+00
     vertex  4.000000e-01  5.000000e+00  0.000000e+00
   endloop
 endfacet
 facet normal  0.000000e+00 -1.000000e+00  0.000000e+00
   outer loop
     vertex -1.110223e-16  5.000000e+00  2.400000e-01
     vertex  4.000000e-01  5.000000e+00  0.000000e+00
     vertex  4.000000e-01  5.000000e+00  2.400000e-01
   endloop
 endfacet
 facet normal  0.000000e+00 -0.000000e+00  1.000000e+00
   outer loop
     vertex  4.000000e-01  5.400000e+00  2.400000e-01
     vertex  4.000000e-01  6.000000e+00  2.400000e-01
     vertex  1.110223e-16  6.000000e+00  2.400000e-01
   endloop
 endfacet
 facet normal  0.000000e+00  0.000000e+00  1.000000e+00
   outer loop
     vertex -1.110223e-16  5.000000e+00  2.400000e-01
     vertex  4.000000e-01  5.400000e+00  2.400000e-01
     vertex  1.110223e-16  6.000000e+00  2.400000e-01
   endloop
 endfacet
 facet normal  0.000000e+00 -0.000000e+00  1.000000e+00
   outer loop
     vertex  4.000000e-01  5.000000e+00  2.400000e-01
     vertex  4.000000e-01  5.400000e+00  2.400000e-01
     vertex -1.110223e-16  5.000000e+00  2.400000e-01
   endloop
 endfacet
 facet normal  1.000000e+00 -1.850372e-16  0.000000e+00
   outer loop
     vertex  4.000000e-01  5.400000e+00  2.400000e-01
     vertex  4.000000e-01  5.400000e+00  0.000000e+00
     vertex  4.000000e-01  6.000000e+00  0.000000e+00
   endloop
 endfacet
 facet normal  1.000000e+00 -1.850372e-16  0.000000e+00
   outer loop
     vertex  4.000000e-01  5.400000e+00  2.400000e-01
     vertex  4.000000e-01  6.000000e+00  0.000000e+00
     vertex  4.000000e-01  6.000000e+00  2.400000e-01
   endloop
 endfacet
 facet normal  0.000000e+00  0.000000e+00 -1.000000e+00
   outer loop
     vertex  4.000000e-01  5.400000e+00  0.000000e+00
     vertex  1.110223e-16  6.000000e+00  0.000000e+00
     vertex  4.000000e-01  6.000000e+00  0.000000e+00
   endloop
 endfacet
 facet normal  0.000000e+00  0.000000e+00 -1.000000e+00
   outer loop
     vertex -1.110223e-16  5.000000e+00  0.000000e+00
     vertex  1.110223e-16  6.000000e+00  0.000000e+00
     vertex  4.000000e-01  5.400000e+00  0.000000e+00
   endloop
 endfacet
 facet normal  0.000000e+00  0.000000e+00 -1.000000e+00
   outer loop
     vertex  4.000000e-01  5.000000e+00  0.000000e+00
     vertex -1.110223e-16  5.000000e+00  0.000000e+00
     vertex  4.000000e-01  5.400000e+00  0.000000e+00
   endloop
 endfacet
 facet normal -1.000000e+00  2.220446e-16  0.000000e+00
   outer loop
     vertex -1.110223e-16  5.000000e+00  2.400000e-01
     vertex  1.110223e-16  6.000000e+00  0.000000e+00
     vertex -1.110223e-16  5.000000e+00  0.000000e+00
   endloop
 endfacet
 facet normal -1.000000e+00  2.220446e-16  0.000000e+00
   outer loop
     vertex -1.110223e-16  5.000000e+00  2.400000e-01
     vertex  1.110223e-16  6.000000e+00  2.400000e-01
     vertex  1.110223e-16  6.000000e+00  0.000000e+00
   endloop
 endfacet
 facet normal  0.000000e+00  1.000000e+00  0.000000e+00
   outer loop
     vertex  1.110223e-16  6.000000e+00  2.400000e-01
     vertex  4.000000e-01  6.000000e+00  0.000000e+00
     vertex  1.110223e-16  6.000000e+00  0.000000e+00
   endloop
 endfacet
 facet normal -0.000000e+00  1.000000e+00  0.000000e+00
   outer loop
     vertex  1.110223e-16  6.000000e+00  2.400000e-01
     vertex  4.000000e-01  6.000000e+00  2.400000e-01
     vertex  4.000000e-01  6.000000e+00  0.000000e+00
   endloop
 endfacet
 facet normal  1.000000e+00  0.000000e+00  0.000000e+00
   outer loop
     vertex  1.200000e+00  1.000000e+00  2.400000e-01
     vertex  1.200000e+00  1.000000e+00  0.000000e+00
     vertex  1.200000e+00  1.200000e+00  0.000000e+00
   endloop
 endfacet
 facet normal  1.000000e+00 -0.000000e+00  0.000000e+00
   outer loop
     vertex  1.200000e+00  1.000000e+00  2.400000e-01
     vertex  1.200000e+00  1.200000e+00  0.000000e+00
     vertex  1.200000e+00  1.200000e+00  2.400000e-01
   endloop
 endfacet
 facet normal  0.000000e+00 -1.000000e+00 -0.000000e+00
   outer loop
     vertex  1.200000e+00  1.000000e+00  2.400000e-01
     vertex  2.000000e-01  1.000000e+00  0.000000e+00
     vertex  1.200000e+00  1.000000e+00  0.000000e+00
   endloop
 endfacet
 facet normal -0.000000e+00 -1.000000e+00  0.000000e+00
   outer loop
     vertex  1.200000e+00  1.000000e+00  2.400000e-01
     vertex  2.000000e-01  1.000000e+00  2.400000e-01
     vertex  2.000000e-01  1.000000e+00  0.000000e+00
   endloop
 endfacet
 facet normal  0.000000e+00  0.000000e+00  1.000000e+00
   outer loop
     vertex  1.200000e+00  1.200000e+00  2.400000e-01
     vertex  2.000000e-01  1.200000e+00  2.400000e-01
     vertex  2.000000e-01  1.000000e+00  2.400000e-01
   endloop
 endfacet
 facet normal  0.000000e+00  0.000000e+00  1.000000e+00
   outer loop
     vertex  1.200000e+00  1.200000e+00  2.400000e-01
     vertex  2.000000e-01  1.000000e+00  2.400000e-01
     vertex  1.200000e+00  1.000000e+00  2.400000e-01
   endloop
 endfacet
 facet normal  0.000000e+00  1.000000e+00  0.000000e+00
   outer loop
     vertex  1.200000e+00  1.200000e+00  2.400000e-01
     vertex  1.200000e+00  1.200000e+00  0.000000e+00
     vertex  2.000000e-01  1.200000e+00  0.000000e+00
   endloop
 endfacet
 facet normal  0.000000e+00  1.000000e+00  0.000000e+00
   outer loop
     vertex  1.200000e+00  1.200000e+00  2.400000e-01
     vertex  2.000000e-01  1.200000e+00  0.000000e+00
     vertex  2.000000e-01  1.200000e+00  2.400000e-01
   endloop
 endfacet
 facet normal -0.000000e+00  0.000000e+00 -1.000000e+00
   outer loop
     vertex  1.200000e+00  1.200000e+00  0.000000e+00
     vertex  2.000000e-01  1.000000e+00  0.000000e+00
     vertex  2.000000e-01  1.200000e+00  0.000000e+00
   endloop
 endfacet
 facet normal  0.000000e+00 -0.000000e+00 -1.000000e+00
   outer loop
     vertex  1.200000e+00  1.200000e+00  0.000000e+00
     vertex  1.200000e+00  1.000000e+00  0.000000e+00
     vertex  2.000000e-01  1.000000e+00  0.000000e+00
   endloop
 endfacet
 facet normal  0.000000e+00 -1.000000e+00  0.000000e+00
   outer loop
     vertex -1.110223e-16  1.000000e+00  2.400000e-01
     vertex -1.110223e-16  1.000000e+00  0.000000e+00
     vertex  2.000000e-01  1.000000e+00  0.000000e+00
   endloop
 endfacet
 facet normal  0.000000e+00 -1.000000e+00  0.000000e+00
   outer loop
     vertex -1.110223e-16  1.000000e+00  2.400000e-01
     vertex  2.000000e-01  1.000000e+00  0.000000e+00
     vertex  2.000000e-01  1.000000e+00  2.400000e-01
   endloop
 endfacet
 facet normal  0.000000e+00 -0.000000e+00  1.000000e+00
   outer loop
     vertex  2.000000e-01  1.200000e+00  2.400000e-01
     vertex  2.000000e-01  2.000000e+00  2.400000e-01
     vertex  1.110223e-16  2.000000e+00  2.400000e-01
   endloop
 endfacet
 facet normal  0.000000e+00  0.000000e+00  1.000000e+00
   outer loop
     vertex -1.110223e-16  1.000000e+00  2.400000e-01
     vertex  2.000000e-01  1.200000e+00  2.400000e-01
     vertex  1.110223e-16  2.000000e+00  2.400000e-01
   endloop
 endfacet
 facet normal  0.000000e+00 -0.000000e+00  1.000000e+00
   outer loop
     vertex  2.000000e-01  1.000000e+00  2.400000e-01
     vertex  2.000000e-01  1.200000e+00  2.400000e-01
     vertex -1.110223e-16  1.000000e+00  2.400000e-01
   endloop
 endfacet
 facet normal  1.000000e+00 -2.081668e-16  0.000000e+00
   outer loop
     vertex  2.000000e-01  1.200000e+00  2.400000e-01
     vertex  2.000000e-01  1.200000e+00  0.000000e+00
     vertex  2.000000e-01  2.000000e+00  0.000000e+00
   endloop
 endfacet
 facet normal  1.000000e+00 -2.081668e-16  0.000000e+00
   outer loop
     vertex  2.000000e-01  1.200000e+00  2.400000e-01
     vertex  2.000000e-01  2.000000e+00  0.000000e+00
     vertex  2.000000e-01  2.000000e+00  2.400000e-01
   endloop
 endfacet
 facet normal  0.000000e+00  0.000000e+00 -1.000000e+00
   outer loop
     vertex  2.000000e-01  1.200000e+00  0.000000e+00
     vertex  1.110223e-16  2.000000e+00  0.000000e+00
     vertex  2.000000e-01  2.000000e+00  0.000000e+00
   endloop
 endfacet
 facet normal  0.000000e+00  0.000000e+00 -1.000000e+00
   outer loop
     vertex -1.110223e-16  1.000000e+00  0.000000e+00
     vertex  1.110223e-16  2.000000e+00  0.000000e+00
     vertex  2.000000e-01  1.200000e+00  0.000000e+00
   endloop
 endfacet
 facet normal  0.000000e+00  0.000000e+00 -1.000000e+00
   outer loop
     vertex  2.000000e-01  1.000000e+00  0.000000e+00
     vertex -1.110223e-16  1.000000e+00  0.000000e+00
     vertex  2.000000e-01  1.200000e+00  0.000000e+00
   endloop
 endfacet
 facet normal -1.000000e+00  2.220446e-16  0.000000e+00
   outer loop
     vertex -1.110223e-16  1.000000e+00  2.400000e-01
     vertex  1.110223e-16  2.000000e+00  0.000000e+00
     vertex -1.110223e-16  1.000000e+00  0.000000e+00
   endloop
 endfacet
 facet normal -1.000000e+00  2.220446e-16  0.000000e+00
   outer loop
     vertex -1.110223e-16  1.000000e+00  2.400000e-01
     vertex  1.110223e-16  2.000000e+00  2.400000e-01
     vertex  1.110223e-16  2.000000e+00  0.000000e+00
   endloop
 endfacet
 facet normal  0.000000e+00  1.000000e+00  0.000000e+00
   outer loop
     vertex  1.110223e-16  2.000000e+00  2.400000e-01
     vertex  2.000000e-01  2.000000e+00  0.000000e+00
     vertex  1.110223e-16  2.000000e+00  0.000000e+00
   endloop
 endfacet
 facet normal -0.000000e+00  1.000000e+00  0.000000e+00
   outer loop
     vertex  1.110223e-16  2.000000e+00  2.400000e-01
     vertex  2.000000e-01  2.000000e+00  2.400000e-01
     vertex  2.000000e-01  2.000000e+00  0.000000e+00
   endloop
 endfacet
endsolid
