solid 
 facet normal  4.114625e-15  4.769952e-08 -1.000000e+00
   outer loop
     vertex  2.400000e-01  1.679999e-01 -4.223471e-15
     vertex  3.000000e-01  1.839999e-01  7.631874e-10
     vertex  3.000000e-01  1.679999e-01 -5.000114e-15
   endloop
 endfacet
 facet normal  4.114625e-15  4.769952e-08 -1.000000e+00
   outer loop
     vertex  2.400000e-01  1.679999e-01 -4.223471e-15
     vertex  2.400000e-01  1.839999e-01  7.631881e-10
     vertex  3.000000e-01  1.839999e-01  7.631874e-10
   endloop
 endfacet
 facet normal  1.000000e+00 -3.576279e-07 -1.659609e-14
   outer loop
     vertex  3.000000e-01  1.679999e-01  1.200000e-01
     vertex  3.000000e-01  1.679999e-01 -5.000114e-15
     vertex  3.000000e-01  1.839999e-01  7.631874e-10
   endloop
 endfacet
 facet normal  1.000000e+00 -3.576279e-07 -1.659609e-14
   outer loop
     vertex  3.000000e-01  1.679999e-01  1.200000e-01
     vertex  3.000000e-01  1.839999e-01  7.631874e-10
     vertex  3.000000e-01  1.839999e-01  1.200000e-01
   endloop
 endfacet
 facet normal -1.000000e+00  3.576279e-07  1.609494e-14
   outer loop
     vertex  2.400000e-01  1.679999e-01 -4.223471e-15
     vertex  2.400000e-01  1.679999e-01  5.759999e-02
     vertex  2.400000e-01  1.839999e-01  5.759999e-02
   endloop
 endfacet
 facet normal -1.000000e+00  3.576279e-07  1.609494e-14
   outer loop
     vertex  2.400000e-01  1.679999e-01 -4.223471e-15
     vertex  2.400000e-01  1.839999e-01  5.759999e-02
     vertex  2.400000e-01  1.839999e-01  7.631881e-10
   endloop
 endfacet
 facet normal -3.576279e-07 -1.000000e+00 -4.769952e-08
   outer loop
     vertex  2.400000e-01  1.679999e-01  5.759999e-02
     vertex  3.000000e-01  1.679999e-01 -5.000114e-15
     vertex  3.000000e-01  1.679999e-01  1.200000e-01
   endloop
 endfacet
 facet normal -3.576279e-07 -1.000000e+00 -4.769952e-08
   outer loop
     vertex  2.080000e-01  1.679999e-01  5.759999e-02
     vertex  2.400000e-01  1.679999e-01  5.759999e-02
     vertex  3.000000e-01  1.679999e-01  1.200000e-01
   endloop
 endfacet
 facet normal -3.576279e-07 -1.000000e+00 -4.769952e-08
   outer loop
     vertex  2.400000e-01  1.679999e-01 -4.223471e-15
     vertex  3.000000e-01  1.679999e-01 -5.000114e-15
     vertex  2.400000e-01  1.679999e-01  5.759999e-02
   endloop
 endfacet
 facet normal -3.576279e-07 -1.000000e+00 -4.769952e-08
   outer loop
     vertex -4.699581e-17  1.680000e-01  1.200000e-01
     vertex  2.080000e-01  1.679999e-01  5.759999e-02
     vertex  3.000000e-01  1.679999e-01  1.200000e-01
   endloop
 endfacet
 facet normal -3.576279e-07 -1.000000e+00 -4.769952e-08
   outer loop
     vertex  5.600001e-02  1.680000e-01  5.759998e-02
     vertex  2.080000e-01  1.679999e-01 -3.690126e-15
     vertex  2.080000e-01  1.679999e-01  5.759999e-02
   endloop
 endfacet
 facet normal -3.576279e-07 -1.000000e+00 -4.769952e-08
   outer loop
     vertex  5.600001e-02  1.680000e-01  5.759998e-02
     vertex  2.080000e-01  1.679999e-01  5.759999e-02
     vertex -4.699581e-17  1.680000e-01  1.200000e-01
   endloop
 endfacet
 facet normal -3.576279e-07 -1.000000e+00 -4.769952e-08
   outer loop
     vertex  2.400002e-02  1.680000e-01  5.759998e-02
     vertex  5.600001e-02  1.680000e-01  5.759998e-02
     vertex -4.699581e-17  1.680000e-01  1.200000e-01
   endloop
 endfacet
 facet normal -3.576279e-07 -1.000000e+00 -4.769952e-08
   outer loop
     vertex  5.600001e-02  1.680000e-01 -8.713229e-16
     vertex  2.080000e-01  1.679999e-01 -3.690126e-15
     vertex  5.600001e-02  1.680000e-01  5.759998e-02
   endloop
 endfacet
 facet normal -3.576279e-07 -1.000000e+00 -4.769952e-08
   outer loop
     vertex  0.000000e+00  1.680000e-01  0.000000e+00
     vertex  2.400002e-02  1.680000e-01 -3.379775e-16
     vertex  2.400002e-02  1.680000e-01  5.759998e-02
   endloop
 endfacet
 facet normal -3.576279e-07 -1.000000e+00 -4.769952e-08
   outer loop
     vertex  0.000000e+00  1.680000e-01  0.000000e+00
     vertex  2.400002e-02  1.680000e-01  5.759998e-02
     vertex -4.699581e-17  1.680000e-01  1.200000e-01
   endloop
 endfacet
 facet normal  3.576279e-07  1.000000e+00  4.769952e-08
   outer loop
     vertex  2.400000e-01  1.839999e-01  5.759999e-02
     vertex  3.000000e-01  1.839999e-01  1.200000e-01
     vertex  3.000000e-01  1.839999e-01  7.631874e-10
   endloop
 endfacet
 facet normal  3.576279e-07  1.000000e+00  4.769952e-08
   outer loop
     vertex  2.080000e-01  1.839999e-01  5.759999e-02
     vertex  3.000000e-01  1.839999e-01  1.200000e-01
     vertex  2.400000e-01  1.839999e-01  5.759999e-02
   endloop
 endfacet
 facet normal  3.576279e-07  1.000000e+00  4.769952e-08
   outer loop
     vertex  2.400000e-01  1.839999e-01  7.631881e-10
     vertex  2.400000e-01  1.839999e-01  5.759999e-02
     vertex  3.000000e-01  1.839999e-01  7.631874e-10
   endloop
 endfacet
 facet normal  3.576279e-07  1.000000e+00  4.769952e-08
   outer loop
     vertex  5.722046e-09  1.840000e-01  1.200000e-01
     vertex  3.000000e-01  1.839999e-01  1.200000e-01
     vertex  2.080000e-01  1.839999e-01  5.759999e-02
   endloop
 endfacet
 facet normal  3.576279e-07  1.000000e+00  4.769952e-08
   outer loop
     vertex  5.600002e-02  1.840000e-01  5.759998e-02
     vertex  2.080000e-01  1.839999e-01  5.759999e-02
     vertex  2.080000e-01  1.839999e-01  7.631887e-10
   endloop
 endfacet
 facet normal  3.576279e-07  1.000000e+00  4.769952e-08
   outer loop
     vertex  5.600002e-02  1.840000e-01  5.759998e-02
     vertex  5.722046e-09  1.840000e-01  1.200000e-01
     vertex  2.080000e-01  1.839999e-01  5.759999e-02
   endloop
 endfacet
 facet normal  3.576279e-07  1.000000e+00  4.769952e-08
   outer loop
     vertex  2.400002e-02  1.840000e-01  5.759998e-02
     vertex  5.722046e-09  1.840000e-01  1.200000e-01
     vertex  5.600002e-02  1.840000e-01  5.759998e-02
   endloop
 endfacet
 facet normal  3.576279e-07  1.000000e+00  4.769952e-08
   outer loop
     vertex  5.600002e-02  1.840000e-01  7.631915e-10
     vertex  5.600002e-02  1.840000e-01  5.759998e-02
     vertex  2.080000e-01  1.839999e-01  7.631887e-10
   endloop
 endfacet
 facet normal  3.576279e-07  1.000000e+00  4.769952e-08
   outer loop
     vertex  5.722046e-09  1.840000e-01  7.631924e-10
     vertex  2.400002e-02  1.840000e-01  5.759998e-02
     vertex  2.400002e-02  1.840000e-01  7.631920e-10
   endloop
 endfacet
 facet normal  3.576279e-07  1.000000e+00  4.769952e-08
   outer loop
     vertex  5.722046e-09  1.840000e-01  7.631924e-10
     vertex  5.722046e-09  1.840000e-01  1.200000e-01
     vertex  2.400002e-02  1.840000e-01  5.759998e-02
   endloop
 endfacet
 facet normal -4.053335e-16 -4.769952e-08  1.000000e+00
   outer loop
     vertex -4.699581e-17  1.680000e-01  1.200000e-01
     vertex  3.000000e-01  1.679999e-01  1.200000e-01
     vertex  3.000000e-01  1.839999e-01  1.200000e-01
   endloop
 endfacet
 facet normal -4.515924e-16 -4.769952e-08  1.000000e+00
   outer loop
     vertex -4.699581e-17  1.680000e-01  1.200000e-01
     vertex  3.000000e-01  1.839999e-01  1.200000e-01
     vertex  5.722046e-09  1.840000e-01  1.200000e-01
   endloop
 endfacet
 facet normal  5.788057e-16  4.769952e-08 -1.000000e+00
   outer loop
     vertex  2.400000e-01  1.679999e-01  5.759999e-02
     vertex  2.080000e-01  1.679999e-01  5.759999e-02
     vertex  2.080000e-01  1.839999e-01  5.759999e-02
   endloop
 endfacet
 facet normal  5.788056e-16  4.769952e-08 -1.000000e+00
   outer loop
     vertex  2.400000e-01  1.679999e-01  5.759999e-02
     vertex  2.080000e-01  1.839999e-01  5.759999e-02
     vertex  2.400000e-01  1.839999e-01  5.759999e-02
   endloop
 endfacet
 facet normal  1.000000e+00 -3.576279e-07 -1.657681e-14
   outer loop
     vertex  2.080000e-01  1.679999e-01  5.759999e-02
     vertex  2.080000e-01  1.679999e-01 -3.690126e-15
     vertex  2.080000e-01  1.839999e-01  7.631887e-10
   endloop
 endfacet
 facet normal  1.000000e+00 -3.576279e-07 -1.657681e-14
   outer loop
     vertex  2.080000e-01  1.679999e-01  5.759999e-02
     vertex  2.080000e-01  1.839999e-01  7.631887e-10
     vertex  2.080000e-01  1.839999e-01  5.759999e-02
   endloop
 endfacet
 facet normal -1.486075e-15  4.769952e-08 -1.000000e+00
   outer loop
     vertex  5.600001e-02  1.680000e-01 -8.713229e-16
     vertex  2.080000e-01  1.839999e-01  7.631887e-10
     vertex  2.080000e-01  1.679999e-01 -3.690126e-15
   endloop
 endfacet
 facet normal -1.486075e-15  4.769952e-08 -1.000000e+00
   outer loop
     vertex  5.600001e-02  1.680000e-01 -8.713229e-16
     vertex  5.600002e-02  1.840000e-01  7.631915e-10
     vertex  2.080000e-01  1.839999e-01  7.631887e-10
   endloop
 endfacet
 facet normal -1.000000e+00  3.576279e-07  1.681774e-14
   outer loop
     vertex  5.600001e-02  1.680000e-01  5.759998e-02
     vertex  5.600002e-02  1.840000e-01  7.631915e-10
     vertex  5.600001e-02  1.680000e-01 -8.713229e-16
   endloop
 endfacet
 facet normal -1.000000e+00  3.576279e-07  1.681774e-14
   outer loop
     vertex  5.600001e-02  1.680000e-01  5.759998e-02
     vertex  5.600002e-02  1.840000e-01  5.759998e-02
     vertex  5.600002e-02  1.840000e-01  7.631915e-10
   endloop
 endfacet
 facet normal  1.451207e-16  4.769952e-08 -1.000000e+00
   outer loop
     vertex  5.600001e-02  1.680000e-01  5.759998e-02
     vertex  2.400002e-02  1.680000e-01  5.759998e-02
     vertex  2.400002e-02  1.840000e-01  5.759998e-02
   endloop
 endfacet
 facet normal  3.619614e-16  4.769952e-08 -1.000000e+00
   outer loop
     vertex  5.600001e-02  1.680000e-01  5.759998e-02
     vertex  2.400002e-02  1.840000e-01  5.759998e-02
     vertex  5.600002e-02  1.840000e-01  5.759998e-02
   endloop
 endfacet
 facet normal  1.000000e+00 -3.576279e-07 -1.657681e-14
   outer loop
     vertex  2.400002e-02  1.680000e-01  5.759998e-02
     vertex  2.400002e-02  1.680000e-01 -3.379775e-16
     vertex  2.400002e-02  1.840000e-01  7.631920e-10
   endloop
 endfacet
 facet normal  1.000000e+00 -3.576279e-07 -1.657681e-14
   outer loop
     vertex  2.400002e-02  1.680000e-01  5.759998e-02
     vertex  2.400002e-02  1.840000e-01  7.631920e-10
     vertex  2.400002e-02  1.840000e-01  5.759998e-02
   endloop
 endfacet
 facet normal  2.976294e-15  4.769952e-08 -1.000000e+00
   outer loop
     vertex  0.000000e+00  1.680000e-01  0.000000e+00
     vertex  2.400002e-02  1.840000e-01  7.631920e-10
     vertex  2.400002e-02  1.680000e-01 -3.379775e-16
   endloop
 endfacet
 facet normal  2.976294e-15  4.769952e-08 -1.000000e+00
   outer loop
     vertex  0.000000e+00  1.680000e-01  0.000000e+00
     vertex  5.722046e-09  1.840000e-01  7.631924e-10
     vertex  2.400002e-02  1.840000e-01  7.631920e-10
   endloop
 endfacet
 facet normal -1.000000e+00  3.576279e-07  1.666705e-14
   outer loop
     vertex -4.699581e-17  1.680000e-01  1.200000e-01
     vertex  5.722046e-09  1.840000e-01  7.631924e-10
     vertex  0.000000e+00  1.680000e-01  0.000000e+00
   endloop
 endfacet
 facet normal -1.000000e+00  3.576279e-07  1.666705e-14
   outer loop
     vertex -4.699581e-17  1.680000e-01  1.200000e-01
     vertex  5.722046e-09  1.840000e-01  1.200000e-01
     vertex  5.722046e-09  1.840000e-01  7.631924e-10
   endloop
 endfacet
 facet normal  6.385127e-01 -7.696113e-01  0.000000e+00
   outer loop
     vertex -1.231378e-02 -3.222162e-01  1.632000e-01
     vertex  0.000000e+00 -3.120000e-01  1.632000e-01
     vertex  0.000000e+00 -3.120000e-01  2.632000e-01
   endloop
 endfacet
 facet normal  6.385127e-01 -7.696113e-01  0.000000e+00
   outer loop
     vertex -1.231378e-02 -3.222162e-01  1.632000e-01
     vertex  0.000000e+00 -3.120000e-01  2.632000e-01
     vertex -1.231378e-02 -3.222162e-01  2.632000e-01
   endloop
 endfacet
 facet normal  7.696113e-01  6.385127e-01  0.000000e+00
   outer loop
     vertex  0.000000e+00 -3.120000e-01  1.632000e-01
     vertex -1.941078e-01 -7.803817e-02  1.632000e-01
     vertex -1.941078e-01 -7.803817e-02  2.632000e-01
   endloop
 endfacet
 facet normal  7.696113e-01  6.385127e-01 -0.000000e+00
   outer loop
     vertex  0.000000e+00 -3.120000e-01  1.632000e-01
     vertex -1.941078e-01 -7.803817e-02  2.632000e-01
     vertex  0.000000e+00 -3.120000e-01  2.632000e-01
   endloop
 endfacet
 facet normal -7.696113e-01 -6.385127e-01  0.000000e+00
   outer loop
     vertex -2.064216e-01 -8.825438e-02  1.632000e-01
     vertex -1.231378e-02 -3.222162e-01  1.632000e-01
     vertex -1.231378e-02 -3.222162e-01  2.632000e-01
   endloop
 endfacet
 facet normal -7.696113e-01 -6.385127e-01  0.000000e+00
   outer loop
     vertex -2.064216e-01 -8.825438e-02  1.632000e-01
     vertex -1.231378e-02 -3.222162e-01  2.632000e-01
     vertex -2.064216e-01 -8.825438e-02  2.632000e-01
   endloop
 endfacet
 facet normal  0.000000e+00  0.000000e+00 -1.000000e+00
   outer loop
     vertex -1.231378e-02 -3.222162e-01  1.632000e-01
     vertex -2.064216e-01 -8.825438e-02  1.632000e-01
     vertex -1.941078e-01 -7.803817e-02  1.632000e-01
   endloop
 endfacet
 facet normal  0.000000e+00  0.000000e+00 -1.000000e+00
   outer loop
     vertex -1.231378e-02 -3.222162e-01  1.632000e-01
     vertex -1.941078e-01 -7.803817e-02  1.632000e-01
     vertex  0.000000e+00 -3.120000e-01  1.632000e-01
   endloop
 endfacet
 facet normal  0.000000e+00  0.000000e+00  1.000000e+00
   outer loop
     vertex -1.231378e-02 -3.222162e-01  2.632000e-01
     vertex -1.941078e-01 -7.803817e-02  2.632000e-01
     vertex -2.064216e-01 -8.825438e-02  2.632000e-01
   endloop
 endfacet
 facet normal  0.000000e+00 -0.000000e+00  1.000000e+00
   outer loop
     vertex -1.231378e-02 -3.222162e-01  2.632000e-01
     vertex  0.000000e+00 -3.120000e-01  2.632000e-01
     vertex -1.941078e-01 -7.803817e-02  2.632000e-01
   endloop
 endfacet
 facet normal -6.385127e-01  7.696113e-01  0.000000e+00
   outer loop
     vertex -1.941078e-01 -7.803817e-02  1.632000e-01
     vertex -2.064216e-01 -8.825438e-02  1.632000e-01
     vertex -2.064216e-01 -8.825438e-02  2.632000e-01
   endloop
 endfacet
 facet normal -6.385127e-01  7.696113e-01  0.000000e+00
   outer loop
     vertex -1.941078e-01 -7.803817e-02  1.632000e-01
     vertex -2.064216e-01 -8.825438e-02  2.632000e-01
     vertex -1.941078e-01 -7.803817e-02  2.632000e-01
   endloop
 endfacet
 facet normal -1.000000e+00  0.000000e+00  0.000000e+00
   outer loop
     vertex  1.906389e-01 -1.200000e-01  0.000000e+00
     vertex  1.906389e-01 -1.360000e-01  0.000000e+00
     vertex  1.906389e-01 -1.360000e-01  2.002100e-01
   endloop
 endfacet
 facet normal -1.000000e+00  0.000000e+00  0.000000e+00
   outer loop
     vertex  1.906389e-01 -1.200000e-01  0.000000e+00
     vertex  1.906389e-01 -1.360000e-01  2.002100e-01
     vertex  1.906389e-01 -1.200000e-01  2.002100e-01
   endloop
 endfacet
 facet normal  0.000000e+00 -1.000000e+00  0.000000e+00
   outer loop
     vertex  1.906389e-01 -1.360000e-01  0.000000e+00
     vertex  5.666388e-01 -1.360000e-01  0.000000e+00
     vertex  5.666388e-01 -1.360000e-01  2.002100e-01
   endloop
 endfacet
 facet normal  0.000000e+00 -1.000000e+00  0.000000e+00
   outer loop
     vertex  1.906389e-01 -1.360000e-01  0.000000e+00
     vertex  5.666388e-01 -1.360000e-01  2.002100e-01
     vertex  1.906389e-01 -1.360000e-01  2.002100e-01
   endloop
 endfacet
 facet normal  0.000000e+00  1.000000e+00  0.000000e+00
   outer loop
     vertex  5.666388e-01 -1.200000e-01  0.000000e+00
     vertex  1.906389e-01 -1.200000e-01  0.000000e+00
     vertex  1.906389e-01 -1.200000e-01  2.002100e-01
   endloop
 endfacet
 facet normal  0.000000e+00  1.000000e+00 -0.000000e+00
   outer loop
     vertex  5.666388e-01 -1.200000e-01  0.000000e+00
     vertex  1.906389e-01 -1.200000e-01  2.002100e-01
     vertex  5.666388e-01 -1.200000e-01  2.002100e-01
   endloop
 endfacet
 facet normal  0.000000e+00  0.000000e+00 -1.000000e+00
   outer loop
     vertex  1.906389e-01 -1.200000e-01  0.000000e+00
     vertex  5.666388e-01 -1.200000e-01  0.000000e+00
     vertex  5.666388e-01 -1.360000e-01  0.000000e+00
   endloop
 endfacet
 facet normal  0.000000e+00  0.000000e+00 -1.000000e+00
   outer loop
     vertex  1.906389e-01 -1.200000e-01  0.000000e+00
     vertex  5.666388e-01 -1.360000e-01  0.000000e+00
     vertex  1.906389e-01 -1.360000e-01  0.000000e+00
   endloop
 endfacet
 facet normal -0.000000e+00  0.000000e+00  1.000000e+00
   outer loop
     vertex  1.906389e-01 -1.200000e-01  2.002100e-01
     vertex  5.666388e-01 -1.360000e-01  2.002100e-01
     vertex  5.666388e-01 -1.200000e-01  2.002100e-01
   endloop
 endfacet
 facet normal  0.000000e+00  0.000000e+00  1.000000e+00
   outer loop
     vertex  1.906389e-01 -1.200000e-01  2.002100e-01
     vertex  1.906389e-01 -1.360000e-01  2.002100e-01
     vertex  5.666388e-01 -1.360000e-01  2.002100e-01
   endloop
 endfacet
 facet normal  1.000000e+00  0.000000e+00  0.000000e+00
   outer loop
     vertex  5.666388e-01 -1.360000e-01  0.000000e+00
     vertex  5.666388e-01 -1.200000e-01  0.000000e+00
     vertex  5.666388e-01 -1.200000e-01  2.002100e-01
   endloop
 endfacet
 facet normal  1.000000e+00  0.000000e+00  0.000000e+00
   outer loop
     vertex  5.666388e-01 -1.360000e-01  0.000000e+00
     vertex  5.666388e-01 -1.200000e-01  2.002100e-01
     vertex  5.666388e-01 -1.360000e-01  2.002100e-01
   endloop
 endfacet
endsolid
