solid 
 facet normal  1.000000e+00  2.914093e-08  0.000000e+00
   outer loop
     vertex -2.330191e-07  9.396283e+00  4.030000e+00
     vertex -1.065474e-07  5.056283e+00  1.000000e+00
     vertex -2.330191e-07  9.396283e+00  1.000000e+00
   endloop
 endfacet
 facet normal  1.000000e+00  2.914093e-08  0.000000e+00
   outer loop
     vertex -2.330191e-07  9.396283e+00  4.030000e+00
     vertex -1.065474e-07  5.056283e+00  4.030000e+00
     vertex -1.065474e-07  5.056283e+00  1.000000e+00
   endloop
 endfacet
 facet normal  1.000000e+00  8.007838e-08  0.000000e+00
   outer loop
     vertex -2.330191e-07  9.396283e+00  1.000000e+00
     vertex -4.895675e-07  1.260000e+01  0.000000e+00
     vertex -4.895675e-07  1.260000e+01  4.800000e+00
   endloop
 endfacet
 facet normal  1.000000e+00  8.007838e-08 -0.000000e+00
   outer loop
     vertex -2.330191e-07  9.396283e+00  1.000000e+00
     vertex -4.895675e-07  1.260000e+01  4.800000e+00
     vertex -2.330191e-07  9.396283e+00  4.030000e+00
   endloop
 endfacet
 facet normal  1.000000e+00  2.914093e-08  2.119339e-07
   outer loop
     vertex -1.065474e-07  5.056283e+00  4.030000e+00
     vertex -2.330191e-07  9.396283e+00  4.030000e+00
     vertex -4.895675e-07  1.260000e+01  4.800000e+00
   endloop
 endfacet
 facet normal  1.000000e+00  4.371139e-08  6.918663e-08
   outer loop
     vertex  0.000000e+00  1.400000e+00  4.800000e+00
     vertex -1.065474e-07  5.056283e+00  4.030000e+00
     vertex -4.895675e-07  1.260000e+01  4.800000e+00
   endloop
 endfacet
 facet normal  1.000000e+00  2.914093e-08 -0.000000e+00
   outer loop
     vertex -1.065474e-07  5.056283e+00  1.000000e+00
     vertex -1.065474e-07  5.056283e+00  4.030000e+00
     vertex  0.000000e+00  1.400000e+00  4.800000e+00
   endloop
 endfacet
 facet normal  1.000000e+00  2.914093e-08 -0.000000e+00
   outer loop
     vertex  0.000000e+00  1.400000e+00  0.000000e+00
     vertex -1.065474e-07  5.056283e+00  1.000000e+00
     vertex  0.000000e+00  1.400000e+00  4.800000e+00
   endloop
 endfacet
 facet normal  1.000000e+00  4.371139e-08 -1.165095e-07
   outer loop
     vertex  0.000000e+00  1.400000e+00  0.000000e+00
     vertex -4.895675e-07  1.260000e+01  0.000000e+00
     vertex -2.330191e-07  9.396283e+00  1.000000e+00
   endloop
 endfacet
 facet normal  1.000000e+00  2.914093e-08 -8.218880e-16
   outer loop
     vertex  0.000000e+00  1.400000e+00  0.000000e+00
     vertex -2.330191e-07  9.396283e+00  1.000000e+00
     vertex -1.065474e-07  5.056283e+00  1.000000e+00
   endloop
 endfacet
 facet normal -4.371139e-08  1.000000e+00  0.000000e+00
   outer loop
     vertex -4.895675e-07  1.260000e+01  0.000000e+00
     vertex -1.600005e-01  1.260000e+01  0.000000e+00
     vertex -1.600005e-01  1.260000e+01  4.800000e+00
   endloop
 endfacet
 facet normal -4.371139e-08  1.000000e+00  0.000000e+00
   outer loop
     vertex -4.895675e-07  1.260000e+01  0.000000e+00
     vertex -1.600005e-01  1.260000e+01  4.800000e+00
     vertex -4.895675e-07  1.260000e+01  4.800000e+00
   endloop
 endfacet
 facet normal  0.000000e+00  0.000000e+00 -1.000000e+00
   outer loop
     vertex  2.220446e-16  1.400000e+00  0.000000e+00
     vertex -1.600005e-01  1.260000e+01  0.000000e+00
     vertex -4.895675e-07  1.260000e+01  0.000000e+00
   endloop
 endfacet
 facet normal  0.000000e+00  0.000000e+00 -1.000000e+00
   outer loop
     vertex -1.600000e-01  1.400000e+00  0.000000e+00
     vertex -1.600005e-01  1.260000e+01  0.000000e+00
     vertex  2.220446e-16  1.400000e+00  0.000000e+00
   endloop
 endfacet
 facet normal  0.000000e+00  0.000000e+00  1.000000e+00
   outer loop
     vertex  2.220446e-16  1.400000e+00  4.800000e+00
     vertex -4.895675e-07  1.260000e+01  4.800000e+00
     vertex -1.600005e-01  1.260000e+01  4.800000e+00
   endloop
 endfacet
 facet normal  0.000000e+00 -0.000000e+00  1.000000e+00
   outer loop
     vertex -1.600000e-01  1.400000e+00  4.800000e+00
     vertex  2.220446e-16  1.400000e+00  4.800000e+00
     vertex -1.600005e-01  1.260000e+01  4.800000e+00
   endloop
 endfacet
 facet normal  4.371139e-08 -1.000000e+00  0.000000e+00
   outer loop
     vertex -1.600000e-01  1.400000e+00  0.000000e+00
     vertex  2.220446e-16  1.400000e+00  0.000000e+00
     vertex  2.220446e-16  1.400000e+00  4.800000e+00
   endloop
 endfacet
 facet normal  4.371139e-08 -1.000000e+00  0.000000e+00
   outer loop
     vertex -1.600000e-01  1.400000e+00  0.000000e+00
     vertex  2.220446e-16  1.400000e+00  4.800000e+00
     vertex -1.600000e-01  1.400000e+00  4.800000e+00
   endloop
 endfacet
 facet normal -1.000000e+00 -2.946697e-08  0.000000e+00
   outer loop
     vertex -1.600001e-01  5.056283e+00  1.000000e+00
     vertex -1.600000e-01  1.400000e+00  0.000000e+00
     vertex -1.600000e-01  1.400000e+00  4.800000e+00
   endloop
 endfacet
 facet normal -1.000000e+00 -2.946697e-08  0.000000e+00
   outer loop
     vertex -1.600001e-01  5.056283e+00  1.000000e+00
     vertex -1.600000e-01  1.400000e+00  4.800000e+00
     vertex -1.600001e-01  5.056283e+00  4.030000e+00
   endloop
 endfacet
 facet normal -1.000000e+00 -2.914093e-08 -2.103857e-07
   outer loop
     vertex -1.600005e-01  1.260000e+01  4.800000e+00
     vertex -1.600002e-01  9.396283e+00  4.030000e+00
     vertex -1.600001e-01  5.056283e+00  4.030000e+00
   endloop
 endfacet
 facet normal -1.000000e+00 -4.371139e-08 -6.763846e-08
   outer loop
     vertex -1.600005e-01  1.260000e+01  4.800000e+00
     vertex -1.600001e-01  5.056283e+00  4.030000e+00
     vertex -1.600000e-01  1.400000e+00  4.800000e+00
   endloop
 endfacet
 facet normal -1.000000e+00 -7.970628e-08  0.000000e+00
   outer loop
     vertex -1.600002e-01  9.396283e+00  1.000000e+00
     vertex -1.600002e-01  9.396283e+00  4.030000e+00
     vertex -1.600005e-01  1.260000e+01  4.800000e+00
   endloop
 endfacet
 facet normal -1.000000e+00 -7.970628e-08  0.000000e+00
   outer loop
     vertex -1.600005e-01  1.260000e+01  0.000000e+00
     vertex -1.600002e-01  9.396283e+00  1.000000e+00
     vertex -1.600005e-01  1.260000e+01  4.800000e+00
   endloop
 endfacet
 facet normal -1.000000e+00 -4.371139e-08  5.208163e-08
   outer loop
     vertex -1.600005e-01  1.260000e+01  0.000000e+00
     vertex -1.600000e-01  1.400000e+00  0.000000e+00
     vertex -1.600001e-01  5.056283e+00  1.000000e+00
   endloop
 endfacet
 facet normal -1.000000e+00 -2.914093e-08  1.619971e-07
   outer loop
     vertex -1.600005e-01  1.260000e+01  0.000000e+00
     vertex -1.600001e-01  5.056283e+00  1.000000e+00
     vertex -1.600002e-01  9.396283e+00  1.000000e+00
   endloop
 endfacet
 facet normal -1.000000e+00 -2.914093e-08 -0.000000e+00
   outer loop
     vertex -1.600002e-01  9.396283e+00  4.030000e+00
     vertex -1.600002e-01  9.396283e+00  1.000000e+00
     vertex -1.600001e-01  5.056283e+00  1.000000e+00
   endloop
 endfacet
 facet normal -1.000000e+00 -2.914093e-08  0.000000e+00
   outer loop
     vertex -1.600002e-01  9.396283e+00  4.030000e+00
     vertex -1.600001e-01  5.056283e+00  1.000000e+00
     vertex -1.600001e-01  5.056283e+00  4.030000e+00
   endloop
 endfacet
 facet normal  0.000000e+00 -1.000000e+00 -0.000000e+00
   outer loop
     vertex  7.724491e+00  0.000000e+00  4.030000e+00
     vertex  3.384491e+00  0.000000e+00  1.000000e+00
     vertex  7.724491e+00  0.000000e+00  1.000000e+00
   endloop
 endfacet
 facet normal  0.000000e+00 -1.000000e+00  0.000000e+00
   outer loop
     vertex  7.724491e+00  0.000000e+00  4.030000e+00
     vertex  3.384491e+00  0.000000e+00  4.030000e+00
     vertex  3.384491e+00  0.000000e+00  1.000000e+00
   endloop
 endfacet
 facet normal -0.000000e+00 -1.000000e+00  0.000000e+00
   outer loop
     vertex  3.384491e+00  0.000000e+00  1.000000e+00
     vertex  6.600005e-01  0.000000e+00  4.800000e+00
     vertex  6.600005e-01  0.000000e+00  0.000000e+00
   endloop
 endfacet
 facet normal  0.000000e+00 -1.000000e+00  0.000000e+00
   outer loop
     vertex  3.384491e+00  0.000000e+00  1.000000e+00
     vertex  3.384491e+00  0.000000e+00  4.030000e+00
     vertex  6.600005e-01  0.000000e+00  4.800000e+00
   endloop
 endfacet
 facet normal -0.000000e+00 -1.000000e+00  0.000000e+00
   outer loop
     vertex  7.724491e+00  0.000000e+00  1.000000e+00
     vertex  3.384491e+00  0.000000e+00  1.000000e+00
     vertex  6.600005e-01  0.000000e+00  0.000000e+00
   endloop
 endfacet
 facet normal  0.000000e+00 -1.000000e+00  0.000000e+00
   outer loop
     vertex  1.186000e+01  0.000000e+00  4.800000e+00
     vertex  7.724491e+00  0.000000e+00  4.030000e+00
     vertex  7.724491e+00  0.000000e+00  1.000000e+00
   endloop
 endfacet
 facet normal  0.000000e+00 -1.000000e+00  0.000000e+00
   outer loop
     vertex  1.186000e+01  0.000000e+00  0.000000e+00
     vertex  1.186000e+01  0.000000e+00  4.800000e+00
     vertex  7.724491e+00  0.000000e+00  1.000000e+00
   endloop
 endfacet
 facet normal -0.000000e+00 -1.000000e+00  0.000000e+00
   outer loop
     vertex  1.186000e+01  0.000000e+00  4.800000e+00
     vertex  6.600005e-01  0.000000e+00  4.800000e+00
     vertex  7.724491e+00  0.000000e+00  4.030000e+00
   endloop
 endfacet
 facet normal -0.000000e+00 -1.000000e+00  0.000000e+00
   outer loop
     vertex  7.724491e+00  0.000000e+00  4.030000e+00
     vertex  6.600005e-01  0.000000e+00  4.800000e+00
     vertex  3.384491e+00  0.000000e+00  4.030000e+00
   endloop
 endfacet
 facet normal  0.000000e+00 -1.000000e+00  0.000000e+00
   outer loop
     vertex  6.600005e-01  0.000000e+00  0.000000e+00
     vertex  1.186000e+01  0.000000e+00  0.000000e+00
     vertex  7.724491e+00  0.000000e+00  1.000000e+00
   endloop
 endfacet
 facet normal  1.000000e+00  0.000000e+00  0.000000e+00
   outer loop
     vertex  1.186000e+01  0.000000e+00  4.800000e+00
     vertex  1.186000e+01  0.000000e+00  0.000000e+00
     vertex  1.186000e+01  1.600000e-01  0.000000e+00
   endloop
 endfacet
 facet normal  1.000000e+00 -0.000000e+00  0.000000e+00
   outer loop
     vertex  1.186000e+01  0.000000e+00  4.800000e+00
     vertex  1.186000e+01  1.600000e-01  0.000000e+00
     vertex  1.186000e+01  1.600000e-01  4.800000e+00
   endloop
 endfacet
 facet normal -1.000000e+00  0.000000e+00  0.000000e+00
   outer loop
     vertex  6.600005e-01  0.000000e+00  4.800000e+00
     vertex  6.600005e-01  1.600000e-01  0.000000e+00
     vertex  6.600005e-01  0.000000e+00  0.000000e+00
   endloop
 endfacet
 facet normal -1.000000e+00  0.000000e+00  0.000000e+00
   outer loop
     vertex  6.600005e-01  0.000000e+00  4.800000e+00
     vertex  6.600005e-01  1.600000e-01  4.800000e+00
     vertex  6.600005e-01  1.600000e-01  0.000000e+00
   endloop
 endfacet
 facet normal  0.000000e+00  0.000000e+00 -1.000000e+00
   outer loop
     vertex  6.600005e-01  0.000000e+00  0.000000e+00
     vertex  1.186000e+01  1.600000e-01  0.000000e+00
     vertex  1.186000e+01  0.000000e+00  0.000000e+00
   endloop
 endfacet
 facet normal  0.000000e+00  0.000000e+00 -1.000000e+00
   outer loop
     vertex  6.600005e-01  0.000000e+00  0.000000e+00
     vertex  6.600005e-01  1.600000e-01  0.000000e+00
     vertex  1.186000e+01  1.600000e-01  0.000000e+00
   endloop
 endfacet
 facet normal  0.000000e+00  0.000000e+00  1.000000e+00
   outer loop
     vertex  6.600005e-01  0.000000e+00  4.800000e+00
     vertex  1.186000e+01  0.000000e+00  4.800000e+00
     vertex  1.186000e+01  1.600000e-01  4.800000e+00
   endloop
 endfacet
 facet normal  0.000000e+00  0.000000e+00  1.000000e+00
   outer loop
     vertex  6.600005e-01  0.000000e+00  4.800000e+00
     vertex  1.186000e+01  1.600000e-01  4.800000e+00
     vertex  6.600005e-01  1.600000e-01  4.800000e+00
   endloop
 endfacet
 facet normal -6.563208e-10  1.000000e+00  0.000000e+00
   outer loop
     vertex  3.384491e+00  1.600000e-01  1.000000e+00
     vertex  6.600005e-01  1.600000e-01  0.000000e+00
     vertex  6.600005e-01  1.600000e-01  4.800000e+00
   endloop
 endfacet
 facet normal -6.563208e-10  1.000000e+00  0.000000e+00
   outer loop
     vertex  3.384491e+00  1.600000e-01  1.000000e+00
     vertex  6.600005e-01  1.600000e-01  4.800000e+00
     vertex  3.384491e+00  1.600000e-01  4.030000e+00
   endloop
 endfacet
 facet normal -1.215304e-12  1.000000e+00 -1.784828e-09
   outer loop
     vertex  7.724491e+00  1.600000e-01  1.000000e+00
     vertex  6.600005e-01  1.600000e-01  0.000000e+00
     vertex  3.384491e+00  1.600000e-01  1.000000e+00
   endloop
 endfacet
 facet normal  4.449262e-10  1.000000e+00 -1.225846e-11
   outer loop
     vertex  1.186000e+01  1.600000e-01  4.800000e+00
     vertex  7.724491e+00  1.600000e-01  1.000000e+00
     vertex  7.724491e+00  1.600000e-01  4.030000e+00
   endloop
 endfacet
 facet normal  4.336622e-10  1.000000e+00 -0.000000e+00
   outer loop
     vertex  1.186000e+01  1.600000e-01  0.000000e+00
     vertex  7.724491e+00  1.600000e-01  1.000000e+00
     vertex  1.186000e+01  1.600000e-01  4.800000e+00
   endloop
 endfacet
 facet normal  0.000000e+00  1.000000e+00  2.377346e-09
   outer loop
     vertex  1.186000e+01  1.600000e-01  4.800000e+00
     vertex  7.724491e+00  1.600000e-01  4.030000e+00
     vertex  6.600005e-01  1.600000e-01  4.800000e+00
   endloop
 endfacet
 facet normal -9.773627e-12  1.000000e+00  2.287676e-09
   outer loop
     vertex  7.724491e+00  1.600000e-01  4.030000e+00
     vertex  3.384491e+00  1.600000e-01  4.030000e+00
     vertex  6.600005e-01  1.600000e-01  4.800000e+00
   endloop
 endfacet
 facet normal  0.000000e+00  1.000000e+00 -1.793414e-09
   outer loop
     vertex  6.600005e-01  1.600000e-01  0.000000e+00
     vertex  7.724491e+00  1.600000e-01  1.000000e+00
     vertex  1.186000e+01  1.600000e-01  0.000000e+00
   endloop
 endfacet
 facet normal -1.215304e-12  1.000000e+00 -1.225846e-11
   outer loop
     vertex  7.724491e+00  1.600000e-01  4.030000e+00
     vertex  7.724491e+00  1.600000e-01  1.000000e+00
     vertex  3.384491e+00  1.600000e-01  1.000000e+00
   endloop
 endfacet
 facet normal -9.773627e-12  1.000000e+00  0.000000e+00
   outer loop
     vertex  7.724491e+00  1.600000e-01  4.030000e+00
     vertex  3.384491e+00  1.600000e-01  1.000000e+00
     vertex  3.384491e+00  1.600000e-01  4.030000e+00
   endloop
 endfacet
 facet normal -1.000000e+00  2.914093e-08  0.000000e+00
   outer loop
     vertex -1.140000e+00 -7.760938e+00  4.030000e+00
     vertex -1.140000e+00 -3.420938e+00  1.000000e+00
     vertex -1.140000e+00 -7.760938e+00  1.000000e+00
   endloop
 endfacet
 facet normal -1.000000e+00  2.914093e-08  0.000000e+00
   outer loop
     vertex -1.140000e+00 -7.760938e+00  4.030000e+00
     vertex -1.140000e+00 -3.420938e+00  4.030000e+00
     vertex -1.140000e+00 -3.420938e+00  1.000000e+00
   endloop
 endfacet
 facet normal -1.000000e+00  6.343811e-08  0.000000e+00
   outer loop
     vertex -1.140000e+00 -7.760938e+00  1.000000e+00
     vertex -1.140000e+00 -1.238000e+01  0.000000e+00
     vertex -1.140000e+00 -1.238000e+01  4.800000e+00
   endloop
 endfacet
 facet normal -1.000000e+00  6.343811e-08  0.000000e+00
   outer loop
     vertex -1.140000e+00 -7.760938e+00  1.000000e+00
     vertex -1.140000e+00 -1.238000e+01  4.800000e+00
     vertex -1.140000e+00 -7.760938e+00  4.030000e+00
   endloop
 endfacet
 facet normal -1.000000e+00  2.914093e-08  6.192680e-09
   outer loop
     vertex -1.140000e+00 -1.180000e+00  4.800000e+00
     vertex -1.140000e+00 -3.420938e+00  4.030000e+00
     vertex -1.140000e+00 -7.760938e+00  4.030000e+00
   endloop
 endfacet
 facet normal -1.000000e+00  4.371139e-08 -1.183363e-07
   outer loop
     vertex -1.140000e+00 -1.180000e+00  4.800000e+00
     vertex -1.140000e+00 -7.760938e+00  4.030000e+00
     vertex -1.140000e+00 -1.238000e+01  4.800000e+00
   endloop
 endfacet
 facet normal -1.000000e+00  3.126877e-08  0.000000e+00
   outer loop
     vertex -1.140000e+00 -3.420938e+00  1.000000e+00
     vertex -1.140000e+00 -3.420938e+00  4.030000e+00
     vertex -1.140000e+00 -1.180000e+00  4.800000e+00
   endloop
 endfacet
 facet normal -1.000000e+00  3.126877e-08  0.000000e+00
   outer loop
     vertex -1.140000e+00 -1.180000e+00  0.000000e+00
     vertex -1.140000e+00 -3.420938e+00  1.000000e+00
     vertex -1.140000e+00 -1.180000e+00  4.800000e+00
   endloop
 endfacet
 facet normal -1.000000e+00  4.371139e-08  9.111894e-08
   outer loop
     vertex -1.140000e+00 -1.180000e+00  0.000000e+00
     vertex -1.140000e+00 -1.238000e+01  0.000000e+00
     vertex -1.140000e+00 -7.760938e+00  1.000000e+00
   endloop
 endfacet
 facet normal -1.000000e+00  2.914093e-08 -4.768365e-09
   outer loop
     vertex -1.140000e+00 -1.180000e+00  0.000000e+00
     vertex -1.140000e+00 -7.760938e+00  1.000000e+00
     vertex -1.140000e+00 -3.420938e+00  1.000000e+00
   endloop
 endfacet
 facet normal -4.371139e-08 -1.000000e+00  0.000000e+00
   outer loop
     vertex -1.140000e+00 -1.238000e+01  0.000000e+00
     vertex -9.800005e-01 -1.238000e+01  0.000000e+00
     vertex -9.800005e-01 -1.238000e+01  4.800000e+00
   endloop
 endfacet
 facet normal -4.371139e-08 -1.000000e+00  0.000000e+00
   outer loop
     vertex -1.140000e+00 -1.238000e+01  0.000000e+00
     vertex -9.800005e-01 -1.238000e+01  4.800000e+00
     vertex -1.140000e+00 -1.238000e+01  4.800000e+00
   endloop
 endfacet
 facet normal  0.000000e+00 -0.000000e+00 -1.000000e+00
   outer loop
     vertex -1.140000e+00 -1.180000e+00  0.000000e+00
     vertex -9.800005e-01 -1.238000e+01  0.000000e+00
     vertex -1.140000e+00 -1.238000e+01  0.000000e+00
   endloop
 endfacet
 facet normal -0.000000e+00  0.000000e+00 -1.000000e+00
   outer loop
     vertex -9.800000e-01 -1.180000e+00  0.000000e+00
     vertex -9.800005e-01 -1.238000e+01  0.000000e+00
     vertex -1.140000e+00 -1.180000e+00  0.000000e+00
   endloop
 endfacet
 facet normal  0.000000e+00  0.000000e+00  1.000000e+00
   outer loop
     vertex -1.140000e+00 -1.180000e+00  4.800000e+00
     vertex -1.140000e+00 -1.238000e+01  4.800000e+00
     vertex -9.800005e-01 -1.238000e+01  4.800000e+00
   endloop
 endfacet
 facet normal  0.000000e+00  0.000000e+00  1.000000e+00
   outer loop
     vertex -9.800000e-01 -1.180000e+00  4.800000e+00
     vertex -1.140000e+00 -1.180000e+00  4.800000e+00
     vertex -9.800005e-01 -1.238000e+01  4.800000e+00
   endloop
 endfacet
 facet normal  4.371139e-08  1.000000e+00  0.000000e+00
   outer loop
     vertex -9.800000e-01 -1.180000e+00  0.000000e+00
     vertex -1.140000e+00 -1.180000e+00  0.000000e+00
     vertex -1.140000e+00 -1.180000e+00  4.800000e+00
   endloop
 endfacet
 facet normal  4.371139e-08  1.000000e+00 -0.000000e+00
   outer loop
     vertex -9.800000e-01 -1.180000e+00  0.000000e+00
     vertex -1.140000e+00 -1.180000e+00  4.800000e+00
     vertex -9.800000e-01 -1.180000e+00  4.800000e+00
   endloop
 endfacet
 facet normal  1.000000e+00 -3.073681e-08  0.000000e+00
   outer loop
     vertex -9.800001e-01 -3.420938e+00  1.000000e+00
     vertex -9.800000e-01 -1.180000e+00  0.000000e+00
     vertex -9.800000e-01 -1.180000e+00  4.800000e+00
   endloop
 endfacet
 facet normal  1.000000e+00 -3.073681e-08  0.000000e+00
   outer loop
     vertex -9.800001e-01 -3.420938e+00  1.000000e+00
     vertex -9.800000e-01 -1.180000e+00  4.800000e+00
     vertex -9.800001e-01 -3.420938e+00  4.030000e+00
   endloop
 endfacet
 facet normal  1.000000e+00 -2.914093e-08 -4.644507e-09
   outer loop
     vertex -9.800002e-01 -7.760938e+00  4.030000e+00
     vertex -9.800001e-01 -3.420938e+00  4.030000e+00
     vertex -9.800000e-01 -1.180000e+00  4.800000e+00
   endloop
 endfacet
 facet normal  1.000000e+00 -6.369619e-08  0.000000e+00
   outer loop
     vertex -9.800005e-01 -1.238000e+01  4.800000e+00
     vertex -9.800002e-01 -7.760938e+00  1.000000e+00
     vertex -9.800002e-01 -7.760938e+00  4.030000e+00
   endloop
 endfacet
 facet normal  1.000000e+00 -4.371139e-08  1.198844e-07
   outer loop
     vertex -9.800005e-01 -1.238000e+01  4.800000e+00
     vertex -9.800002e-01 -7.760938e+00  4.030000e+00
     vertex -9.800000e-01 -1.180000e+00  4.800000e+00
   endloop
 endfacet
 facet normal  1.000000e+00 -6.369619e-08  0.000000e+00
   outer loop
     vertex -9.800005e-01 -1.238000e+01  0.000000e+00
     vertex -9.800002e-01 -7.760938e+00  1.000000e+00
     vertex -9.800005e-01 -1.238000e+01  4.800000e+00
   endloop
 endfacet
 facet normal  1.000000e+00 -4.371139e-08 -2.907523e-08
   outer loop
     vertex -9.800005e-01 -1.238000e+01  0.000000e+00
     vertex -9.800000e-01 -1.180000e+00  0.000000e+00
     vertex -9.800001e-01 -3.420938e+00  1.000000e+00
   endloop
 endfacet
 facet normal  1.000000e+00 -2.914093e-08 -1.596129e-07
   outer loop
     vertex -9.800005e-01 -1.238000e+01  0.000000e+00
     vertex -9.800001e-01 -3.420938e+00  1.000000e+00
     vertex -9.800002e-01 -7.760938e+00  1.000000e+00
   endloop
 endfacet
 facet normal  1.000000e+00 -2.914093e-08  0.000000e+00
   outer loop
     vertex -9.800002e-01 -7.760938e+00  4.030000e+00
     vertex -9.800002e-01 -7.760938e+00  1.000000e+00
     vertex -9.800001e-01 -3.420938e+00  1.000000e+00
   endloop
 endfacet
 facet normal  1.000000e+00 -2.914093e-08  0.000000e+00
   outer loop
     vertex -9.800002e-01 -7.760938e+00  4.030000e+00
     vertex -9.800001e-01 -3.420938e+00  1.000000e+00
     vertex -9.800001e-01 -3.420938e+00  4.030000e+00
   endloop
 endfacet
 facet normal  1.000000e+00  2.630703e-08 -2.137667e-11
   outer loop
     vertex -5.920000e+00  6.916437e+00  4.030000e+00
     vertex -5.920000e+00  2.576437e+00  1.000000e+00
     vertex -5.920000e+00  6.916437e+00  1.000000e+00
   endloop
 endfacet
 facet normal  1.000000e+00  2.629210e-08  0.000000e+00
   outer loop
     vertex -5.920000e+00  6.916437e+00  4.030000e+00
     vertex -5.920000e+00  2.576437e+00  4.030000e+00
     vertex -5.920000e+00  2.576437e+00  1.000000e+00
   endloop
 endfacet
 facet normal  1.000000e+00  9.051736e-08  0.000000e+00
   outer loop
     vertex -5.920000e+00  6.916437e+00  1.000000e+00
     vertex -5.920001e+00  1.019000e+01  0.000000e+00
     vertex -5.920001e+00  1.019000e+01  4.800000e+00
   endloop
 endfacet
 facet normal  1.000000e+00  9.054217e-08 -2.137666e-11
   outer loop
     vertex -5.920000e+00  6.916437e+00  1.000000e+00
     vertex -5.920001e+00  1.019000e+01  4.800000e+00
     vertex -5.920000e+00  6.916437e+00  4.030000e+00
   endloop
 endfacet
 facet normal  1.000000e+00  2.629210e-08  2.731300e-07
   outer loop
     vertex -5.920000e+00  2.576437e+00  4.030000e+00
     vertex -5.920000e+00  6.916437e+00  4.030000e+00
     vertex -5.920001e+00  1.019000e+01  4.800000e+00
   endloop
 endfacet
 facet normal  1.000000e+00  4.371139e-08  1.008926e-07
   outer loop
     vertex -5.920000e+00 -1.009999e+00  4.800000e+00
     vertex -5.920000e+00  2.576437e+00  4.030000e+00
     vertex -5.920001e+00  1.019000e+01  4.800000e+00
   endloop
 endfacet
 facet normal  1.000000e+00  2.204995e-08 -0.000000e+00
   outer loop
     vertex -5.920000e+00  2.576437e+00  1.000000e+00
     vertex -5.920000e+00  2.576437e+00  4.030000e+00
     vertex -5.920000e+00 -1.009999e+00  4.800000e+00
   endloop
 endfacet
 facet normal  1.000000e+00  2.204995e-08 -0.000000e+00
   outer loop
     vertex -5.920000e+00 -1.009999e+00  0.000000e+00
     vertex -5.920000e+00  2.576437e+00  1.000000e+00
     vertex -5.920000e+00 -1.009999e+00  4.800000e+00
   endloop
 endfacet
 facet normal  1.000000e+00  4.371139e-08 -1.532223e-07
   outer loop
     vertex -5.920000e+00 -1.009999e+00  0.000000e+00
     vertex -5.920001e+00  1.019000e+01  0.000000e+00
     vertex -5.920000e+00  6.916437e+00  1.000000e+00
   endloop
 endfacet
 facet normal  1.000000e+00  2.630703e-08 -1.526772e-08
   outer loop
     vertex -5.920000e+00 -1.009999e+00  0.000000e+00
     vertex -5.920000e+00  6.916437e+00  1.000000e+00
     vertex -5.920000e+00  2.576437e+00  1.000000e+00
   endloop
 endfacet
 facet normal -4.371137e-08  1.000000e+00  0.000000e+00
   outer loop
     vertex -5.920001e+00  1.019000e+01  0.000000e+00
     vertex -6.080001e+00  1.019000e+01  0.000000e+00
     vertex -6.080001e+00  1.019000e+01  4.800000e+00
   endloop
 endfacet
 facet normal -4.371137e-08  1.000000e+00  0.000000e+00
   outer loop
     vertex -5.920001e+00  1.019000e+01  0.000000e+00
     vertex -6.080001e+00  1.019000e+01  4.800000e+00
     vertex -5.920001e+00  1.019000e+01  4.800000e+00
   endloop
 endfacet
 facet normal  0.000000e+00  0.000000e+00 -1.000000e+00
   outer loop
     vertex -5.920000e+00 -1.009999e+00  0.000000e+00
     vertex -6.080001e+00  1.019000e+01  0.000000e+00
     vertex -5.920001e+00  1.019000e+01  0.000000e+00
   endloop
 endfacet
 facet normal  0.000000e+00  0.000000e+00 -1.000000e+00
   outer loop
     vertex -6.080000e+00 -1.009999e+00  0.000000e+00
     vertex -6.080001e+00  1.019000e+01  0.000000e+00
     vertex -5.920000e+00 -1.009999e+00  0.000000e+00
   endloop
 endfacet
 facet normal  0.000000e+00  0.000000e+00  1.000000e+00
   outer loop
     vertex -5.920000e+00 -1.009999e+00  4.800000e+00
     vertex -5.920001e+00  1.019000e+01  4.800000e+00
     vertex -6.080001e+00  1.019000e+01  4.800000e+00
   endloop
 endfacet
 facet normal  0.000000e+00 -0.000000e+00  1.000000e+00
   outer loop
     vertex -6.080000e+00 -1.009999e+00  4.800000e+00
     vertex -5.920000e+00 -1.009999e+00  4.800000e+00
     vertex -6.080001e+00  1.019000e+01  4.800000e+00
   endloop
 endfacet
 facet normal  4.371139e-08 -1.000000e+00  0.000000e+00
   outer loop
     vertex -6.080000e+00 -1.009999e+00  0.000000e+00
     vertex -5.920000e+00 -1.009999e+00  0.000000e+00
     vertex -5.920000e+00 -1.009999e+00  4.800000e+00
   endloop
 endfacet
 facet normal  4.371139e-08 -1.000000e+00  0.000000e+00
   outer loop
     vertex -6.080000e+00 -1.009999e+00  0.000000e+00
     vertex -5.920000e+00 -1.009999e+00  4.800000e+00
     vertex -6.080000e+00 -1.009999e+00  4.800000e+00
   endloop
 endfacet
 facet normal -1.000000e+00 -2.238234e-08  0.000000e+00
   outer loop
     vertex -6.080000e+00  2.576437e+00  1.000000e+00
     vertex -6.080000e+00 -1.009999e+00  0.000000e+00
     vertex -6.080000e+00 -1.009999e+00  4.800000e+00
   endloop
 endfacet
 facet normal -1.000000e+00 -2.238234e-08  0.000000e+00
   outer loop
     vertex -6.080000e+00  2.576437e+00  1.000000e+00
     vertex -6.080000e+00 -1.009999e+00  4.800000e+00
     vertex -6.080000e+00  2.576437e+00  4.030000e+00
   endloop
 endfacet
 facet normal -1.000000e+00 -2.618087e-08 -2.726817e-07
   outer loop
     vertex -6.080001e+00  1.019000e+01  4.800000e+00
     vertex -6.080000e+00  6.916437e+00  4.030000e+00
     vertex -6.080000e+00  2.576437e+00  4.030000e+00
   endloop
 endfacet
 facet normal -1.000000e+00 -4.371139e-08 -9.934446e-08
   outer loop
     vertex -6.080001e+00  1.019000e+01  4.800000e+00
     vertex -6.080000e+00  2.576437e+00  4.030000e+00
     vertex -6.080000e+00 -1.009999e+00  4.800000e+00
   endloop
 endfacet
 facet normal -1.000000e+00 -9.032529e-08  2.055297e-11
   outer loop
     vertex -6.080000e+00  6.916437e+00  1.000000e+00
     vertex -6.080000e+00  6.916437e+00  4.030000e+00
     vertex -6.080001e+00  1.019000e+01  4.800000e+00
   endloop
 endfacet
 facet normal -1.000000e+00 -9.030144e-08  0.000000e+00
   outer loop
     vertex -6.080001e+00  1.019000e+01  0.000000e+00
     vertex -6.080000e+00  6.916437e+00  1.000000e+00
     vertex -6.080001e+00  1.019000e+01  4.800000e+00
   endloop
 endfacet
 facet normal -1.000000e+00 -4.371139e-08  7.649526e-08
   outer loop
     vertex -6.080001e+00  1.019000e+01  0.000000e+00
     vertex -6.080000e+00 -1.009999e+00  0.000000e+00
     vertex -6.080000e+00  2.576437e+00  1.000000e+00
   endloop
 endfacet
 facet normal -1.000000e+00 -2.619522e-08  2.098557e-07
   outer loop
     vertex -6.080001e+00  1.019000e+01  0.000000e+00
     vertex -6.080000e+00  2.576437e+00  1.000000e+00
     vertex -6.080000e+00  6.916437e+00  1.000000e+00
   endloop
 endfacet
 facet normal -1.000000e+00 -2.619522e-08  2.055298e-11
   outer loop
     vertex -6.080000e+00  6.916437e+00  4.030000e+00
     vertex -6.080000e+00  6.916437e+00  1.000000e+00
     vertex -6.080000e+00  2.576437e+00  1.000000e+00
   endloop
 endfacet
 facet normal -1.000000e+00 -2.618087e-08  0.000000e+00
   outer loop
     vertex -6.080000e+00  6.916437e+00  4.030000e+00
     vertex -6.080000e+00  2.576437e+00  1.000000e+00
     vertex -6.080000e+00  2.576437e+00  4.030000e+00
   endloop
 endfacet
 facet normal -5.837758e-01 -8.119149e-01 -0.000000e+00
   outer loop
     vertex  5.506550e-01  7.769284e-01  4.030000e+00
     vertex  5.506541e-01  7.769290e-01  1.000000e+00
     vertex  5.506550e-01  7.769284e-01  1.000000e+00
   endloop
 endfacet
 facet normal -5.837758e-01 -8.119149e-01  0.000000e+00
   outer loop
     vertex  5.506550e-01  7.769284e-01  4.030000e+00
     vertex  5.506541e-01  7.769290e-01  4.030000e+00
     vertex  5.506541e-01  7.769290e-01  1.000000e+00
   endloop
 endfacet
 facet normal -7.071068e-01  7.071068e-01  0.000000e+00
   outer loop
     vertex  5.506550e-01  7.769284e-01  1.000000e+00
     vertex -1.131366e-01  1.131367e-01  4.800000e+00
     vertex  5.506550e-01  7.769284e-01  4.030000e+00
   endloop
 endfacet
 facet normal -7.071068e-01  7.071068e-01  0.000000e+00
   outer loop
     vertex -1.131366e-01  1.131367e-01  0.000000e+00
     vertex -1.131366e-01  1.131367e-01  4.800000e+00
     vertex  5.506550e-01  7.769284e-01  1.000000e+00
   endloop
 endfacet
 facet normal -7.071068e-01  7.071068e-01  0.000000e+00
   outer loop
     vertex  3.619498e+00  3.845772e+00  4.030000e+00
     vertex  5.506550e-01  7.769284e-01  4.030000e+00
     vertex -1.131366e-01  1.131367e-01  4.800000e+00
   endloop
 endfacet
 facet normal -7.071068e-01  7.071068e-01  0.000000e+00
   outer loop
     vertex  3.619498e+00  3.845772e+00  1.000000e+00
     vertex -1.131366e-01  1.131367e-01  0.000000e+00
     vertex  5.506550e-01  7.769284e-01  1.000000e+00
   endloop
 endfacet
 facet normal -7.071068e-01  7.071068e-01  2.221160e-16
   outer loop
     vertex  4.261056e+00  4.487329e+00  1.000000e+00
     vertex  3.619498e+00  3.845772e+00  1.000000e+00
     vertex  3.619498e+00  3.845772e+00  4.030000e+00
   endloop
 endfacet
 facet normal -7.071068e-01  7.071068e-01  0.000000e+00
   outer loop
     vertex  4.261056e+00  4.487329e+00  1.000000e+00
     vertex  3.619498e+00  3.845772e+00  4.030000e+00
     vertex  4.261056e+00  4.487329e+00  4.030000e+00
   endloop
 endfacet
 facet normal -7.071068e-01  7.071068e-01  1.727559e-15
   outer loop
     vertex  7.329899e+00  7.556172e+00  4.030000e+00
     vertex  4.261056e+00  4.487329e+00  4.030000e+00
     vertex  7.806459e+00  8.032732e+00  4.800000e+00
   endloop
 endfacet
 facet normal -7.071068e-01  7.071068e-01  0.000000e+00
   outer loop
     vertex  7.329899e+00  7.556172e+00  1.000000e+00
     vertex  7.329899e+00  7.556172e+00  4.030000e+00
     vertex  7.806459e+00  8.032732e+00  4.800000e+00
   endloop
 endfacet
 facet normal -7.071068e-01  7.071068e-01 -1.381383e-15
   outer loop
     vertex  7.806459e+00  8.032732e+00  0.000000e+00
     vertex  4.261056e+00  4.487329e+00  1.000000e+00
     vertex  7.329899e+00  7.556172e+00  1.000000e+00
   endloop
 endfacet
 facet normal -7.071068e-01  7.071068e-01  0.000000e+00
   outer loop
     vertex  7.806459e+00  8.032732e+00  0.000000e+00
     vertex  7.329899e+00  7.556172e+00  1.000000e+00
     vertex  7.806459e+00  8.032732e+00  4.800000e+00
   endloop
 endfacet
 facet normal -7.071068e-01  7.071068e-01 -8.239130e-16
   outer loop
     vertex  7.806459e+00  8.032732e+00  4.800000e+00
     vertex  3.619498e+00  3.845772e+00  4.030000e+00
     vertex -1.131366e-01  1.131367e-01  4.800000e+00
   endloop
 endfacet
 facet normal -7.071068e-01  7.071068e-01  1.017066e-14
   outer loop
     vertex  7.806459e+00  8.032732e+00  4.800000e+00
     vertex  4.261056e+00  4.487329e+00  4.030000e+00
     vertex  3.619498e+00  3.845772e+00  4.030000e+00
   endloop
 endfacet
 facet normal -7.071068e-01  7.071068e-01 -6.344132e-16
   outer loop
     vertex -1.131366e-01  1.131367e-01  0.000000e+00
     vertex  4.261056e+00  4.487329e+00  1.000000e+00
     vertex  7.806459e+00  8.032732e+00  0.000000e+00
   endloop
 endfacet
 facet normal -7.071068e-01  7.071068e-01  0.000000e+00
   outer loop
     vertex -1.131366e-01  1.131367e-01  0.000000e+00
     vertex  3.619498e+00  3.845772e+00  1.000000e+00
     vertex  4.261056e+00  4.487329e+00  1.000000e+00
   endloop
 endfacet
 facet normal  8.901788e-03 -8.901791e-03  9.999208e-01
   outer loop
     vertex  3.619497e+00  3.845773e+00  4.030000e+00
     vertex  5.506550e-01  7.769284e-01  4.030000e+00
     vertex  3.619498e+00  3.845772e+00  4.030000e+00
   endloop
 endfacet
 facet normal  1.799439e-02 -1.799438e-02  9.996761e-01
   outer loop
     vertex  3.619497e+00  3.845773e+00  4.030000e+00
     vertex  5.506541e-01  7.769290e-01  4.030000e+00
     vertex  5.506550e-01  7.769284e-01  4.030000e+00
   endloop
 endfacet
 facet normal -7.071069e-01  7.071067e-01  0.000000e+00
   outer loop
     vertex  3.619497e+00  3.845773e+00  4.030000e+00
     vertex  3.619497e+00  3.845773e+00  1.000000e+00
     vertex  5.506541e-01  7.769290e-01  1.000000e+00
   endloop
 endfacet
 facet normal -7.071069e-01  7.071067e-01  0.000000e+00
   outer loop
     vertex  3.619497e+00  3.845773e+00  4.030000e+00
     vertex  5.506541e-01  7.769290e-01  1.000000e+00
     vertex  5.506541e-01  7.769290e-01  4.030000e+00
   endloop
 endfacet
 facet normal  1.868941e-10 -1.868942e-10 -1.000000e+00
   outer loop
     vertex  3.619497e+00  3.845773e+00  1.000000e+00
     vertex  3.619498e+00  3.845772e+00  1.000000e+00
     vertex  5.506550e-01  7.769284e-01  1.000000e+00
   endloop
 endfacet
 facet normal  4.191003e-10 -4.191001e-10 -1.000000e+00
   outer loop
     vertex  3.619497e+00  3.845773e+00  1.000000e+00
     vertex  5.506550e-01  7.769284e-01  1.000000e+00
     vertex  5.506541e-01  7.769290e-01  1.000000e+00
   endloop
 endfacet
 facet normal  7.071068e-01  7.071068e-01  0.000000e+00
   outer loop
     vertex  7.919596e+00  7.919595e+00  4.800000e+00
     vertex  7.919596e+00  7.919595e+00  0.000000e+00
     vertex  7.806459e+00  8.032732e+00  0.000000e+00
   endloop
 endfacet
 facet normal  7.071068e-01  7.071068e-01  0.000000e+00
   outer loop
     vertex  7.919596e+00  7.919595e+00  4.800000e+00
     vertex  7.806459e+00  8.032732e+00  0.000000e+00
     vertex  7.806459e+00  8.032732e+00  4.800000e+00
   endloop
 endfacet
 facet normal -7.071068e-01 -7.071068e-01 -0.000000e+00
   outer loop
     vertex  4.362133e-07 -3.710008e-07  4.800000e+00
     vertex -1.131366e-01  1.131367e-01  0.000000e+00
     vertex  4.362133e-07 -3.710008e-07  0.000000e+00
   endloop
 endfacet
 facet normal -7.071068e-01 -7.071068e-01  0.000000e+00
   outer loop
     vertex  4.362133e-07 -3.710008e-07  4.800000e+00
     vertex -1.131366e-01  1.131367e-01  4.800000e+00
     vertex -1.131366e-01  1.131367e-01  0.000000e+00
   endloop
 endfacet
 facet normal  0.000000e+00  0.000000e+00 -1.000000e+00
   outer loop
     vertex  4.362133e-07 -3.710008e-07  0.000000e+00
     vertex  7.806459e+00  8.032732e+00  0.000000e+00
     vertex  7.919596e+00  7.919595e+00  0.000000e+00
   endloop
 endfacet
 facet normal  0.000000e+00  0.000000e+00 -1.000000e+00
   outer loop
     vertex  4.362133e-07 -3.710008e-07  0.000000e+00
     vertex -1.131366e-01  1.131367e-01  0.000000e+00
     vertex  7.806459e+00  8.032732e+00  0.000000e+00
   endloop
 endfacet
 facet normal  0.000000e+00  0.000000e+00  1.000000e+00
   outer loop
     vertex  4.362133e-07 -3.710008e-07  4.800000e+00
     vertex  7.919596e+00  7.919595e+00  4.800000e+00
     vertex  7.806459e+00  8.032732e+00  4.800000e+00
   endloop
 endfacet
 facet normal  0.000000e+00 -0.000000e+00  1.000000e+00
   outer loop
     vertex  4.362133e-07 -3.710008e-07  4.800000e+00
     vertex  7.806459e+00  8.032732e+00  4.800000e+00
     vertex -1.131366e-01  1.131367e-01  4.800000e+00
   endloop
 endfacet
 facet normal  2.621933e-10 -2.621933e-10 -1.000000e+00
   outer loop
     vertex  7.329897e+00  7.556174e+00  1.000000e+00
     vertex  4.261056e+00  4.487329e+00  1.000000e+00
     vertex  4.261054e+00  4.487330e+00  1.000000e+00
   endloop
 endfacet
 facet normal  2.002003e-10 -2.002003e-10 -1.000000e+00
   outer loop
     vertex  7.329897e+00  7.556174e+00  1.000000e+00
     vertex  7.329899e+00  7.556172e+00  1.000000e+00
     vertex  4.261056e+00  4.487329e+00  1.000000e+00
   endloop
 endfacet
 facet normal  6.574071e-01  7.535356e-01  0.000000e+00
   outer loop
     vertex  7.329899e+00  7.556172e+00  4.030000e+00
     vertex  7.329899e+00  7.556172e+00  1.000000e+00
     vertex  7.329897e+00  7.556174e+00  1.000000e+00
   endloop
 endfacet
 facet normal  6.574071e-01  7.535356e-01  0.000000e+00
   outer loop
     vertex  7.329899e+00  7.556172e+00  4.030000e+00
     vertex  7.329897e+00  7.556174e+00  1.000000e+00
     vertex  7.329897e+00  7.556174e+00  4.030000e+00
   endloop
 endfacet
 facet normal  1.125969e-02 -1.125969e-02  9.998732e-01
   outer loop
     vertex  7.329897e+00  7.556174e+00  4.030000e+00
     vertex  4.261054e+00  4.487330e+00  4.030000e+00
     vertex  4.261056e+00  4.487329e+00  4.030000e+00
   endloop
 endfacet
 facet normal  8.597900e-03 -8.597900e-03  9.999261e-01
   outer loop
     vertex  7.329897e+00  7.556174e+00  4.030000e+00
     vertex  4.261056e+00  4.487329e+00  4.030000e+00
     vertex  7.329899e+00  7.556172e+00  4.030000e+00
   endloop
 endfacet
 facet normal -7.040660e-01 -7.101345e-01 -0.000000e+00
   outer loop
     vertex  4.261056e+00  4.487329e+00  4.030000e+00
     vertex  4.261054e+00  4.487330e+00  1.000000e+00
     vertex  4.261056e+00  4.487329e+00  1.000000e+00
   endloop
 endfacet
 facet normal -7.040660e-01 -7.101345e-01  0.000000e+00
   outer loop
     vertex  4.261056e+00  4.487329e+00  4.030000e+00
     vertex  4.261054e+00  4.487330e+00  4.030000e+00
     vertex  4.261054e+00  4.487330e+00  1.000000e+00
   endloop
 endfacet
 facet normal  6.331781e-01  7.740062e-01  2.346725e-09
   outer loop
     vertex  3.619498e+00  3.845772e+00  4.030000e+00
     vertex  3.619498e+00  3.845772e+00  1.000000e+00
     vertex  3.619497e+00  3.845773e+00  1.000000e+00
   endloop
 endfacet
 facet normal  6.364331e-01  7.713319e-01  0.000000e+00
   outer loop
     vertex  3.619498e+00  3.845772e+00  4.030000e+00
     vertex  3.619497e+00  3.845773e+00  1.000000e+00
     vertex  3.619497e+00  3.845773e+00  4.030000e+00
   endloop
 endfacet
 facet normal  7.071068e-01 -7.071067e-01  0.000000e+00
   outer loop
     vertex  6.637920e-01  6.637913e-01  1.000000e+00
     vertex  6.637920e-01  6.637913e-01  4.030000e+00
     vertex  4.362133e-07 -3.710008e-07  4.800000e+00
   endloop
 endfacet
 facet normal  7.071068e-01 -7.071067e-01  0.000000e+00
   outer loop
     vertex  4.362133e-07 -3.710008e-07  0.000000e+00
     vertex  6.637920e-01  6.637913e-01  1.000000e+00
     vertex  4.362133e-07 -3.710008e-07  4.800000e+00
   endloop
 endfacet
 facet normal  7.071068e-01 -7.071067e-01  4.032746e-08
   outer loop
     vertex  3.732635e+00  3.732635e+00  4.030000e+00
     vertex  4.362133e-07 -3.710008e-07  4.800000e+00
     vertex  6.637920e-01  6.637913e-01  4.030000e+00
   endloop
 endfacet
 facet normal  7.071068e-01 -7.071068e-01  7.317636e-08
   outer loop
     vertex  3.732636e+00  3.732635e+00  1.000000e+00
     vertex  6.637920e-01  6.637913e-01  1.000000e+00
     vertex  4.362133e-07 -3.710008e-07  0.000000e+00
   endloop
 endfacet
 facet normal  7.071064e-01 -7.071072e-01  1.590328e-07
   outer loop
     vertex  3.732636e+00  3.732635e+00  1.000000e+00
     vertex  4.374193e+00  4.374192e+00  4.030000e+00
     vertex  3.732635e+00  3.732635e+00  4.030000e+00
   endloop
 endfacet
 facet normal  7.071068e-01 -7.071068e-01  0.000000e+00
   outer loop
     vertex  4.374193e+00  4.374192e+00  1.000000e+00
     vertex  4.374193e+00  4.374192e+00  4.030000e+00
     vertex  3.732636e+00  3.732635e+00  1.000000e+00
   endloop
 endfacet
 facet normal  7.071068e-01 -7.071068e-01 -1.727559e-15
   outer loop
     vertex  7.443036e+00  7.443035e+00  4.030000e+00
     vertex  7.919596e+00  7.919595e+00  4.800000e+00
     vertex  4.374193e+00  4.374192e+00  4.030000e+00
   endloop
 endfacet
 facet normal  7.071068e-01 -7.071068e-01  0.000000e+00
   outer loop
     vertex  7.443036e+00  7.443035e+00  1.000000e+00
     vertex  7.919596e+00  7.919595e+00  4.800000e+00
     vertex  7.443036e+00  7.443035e+00  4.030000e+00
   endloop
 endfacet
 facet normal  7.071068e-01 -7.071068e-01  1.381383e-15
   outer loop
     vertex  7.919596e+00  7.919595e+00  0.000000e+00
     vertex  7.443036e+00  7.443035e+00  1.000000e+00
     vertex  4.374193e+00  4.374192e+00  1.000000e+00
   endloop
 endfacet
 facet normal  7.071068e-01 -7.071068e-01  0.000000e+00
   outer loop
     vertex  7.919596e+00  7.919595e+00  0.000000e+00
     vertex  7.919596e+00  7.919595e+00  4.800000e+00
     vertex  7.443036e+00  7.443035e+00  1.000000e+00
   endloop
 endfacet
 facet normal  7.071068e-01 -7.071068e-01 -6.258045e-07
   outer loop
     vertex  7.919596e+00  7.919595e+00  4.800000e+00
     vertex  4.362133e-07 -3.710008e-07  4.800000e+00
     vertex  3.732635e+00  3.732635e+00  4.030000e+00
   endloop
 endfacet
 facet normal  7.071064e-01 -7.071072e-01  3.458350e-06
   outer loop
     vertex  7.919596e+00  7.919595e+00  4.800000e+00
     vertex  3.732635e+00  3.732635e+00  4.030000e+00
     vertex  4.374193e+00  4.374192e+00  4.030000e+00
   endloop
 endfacet
 facet normal  7.071068e-01 -7.071068e-01  6.344132e-16
   outer loop
     vertex  4.362133e-07 -3.710008e-07  0.000000e+00
     vertex  7.919596e+00  7.919595e+00  0.000000e+00
     vertex  4.374193e+00  4.374192e+00  1.000000e+00
   endloop
 endfacet
 facet normal  7.071068e-01 -7.071068e-01  0.000000e+00
   outer loop
     vertex  4.362133e-07 -3.710008e-07  0.000000e+00
     vertex  4.374193e+00  4.374192e+00  1.000000e+00
     vertex  3.732636e+00  3.732635e+00  1.000000e+00
   endloop
 endfacet
 facet normal -7.071069e-01  7.071067e-01  0.000000e+00
   outer loop
     vertex  7.329897e+00  7.556174e+00  4.030000e+00
     vertex  7.329897e+00  7.556174e+00  1.000000e+00
     vertex  4.261054e+00  4.487330e+00  1.000000e+00
   endloop
 endfacet
 facet normal -7.071069e-01  7.071067e-01  0.000000e+00
   outer loop
     vertex  7.329897e+00  7.556174e+00  4.030000e+00
     vertex  4.261054e+00  4.487330e+00  1.000000e+00
     vertex  4.261054e+00  4.487330e+00  4.030000e+00
   endloop
 endfacet
 facet normal -6.961498e-10  6.961497e-10  1.000000e+00
   outer loop
     vertex  3.732636e+00  3.732635e+00  1.000000e+00
     vertex  3.732635e+00  3.732635e+00  1.000000e+00
     vertex  6.637920e-01  6.637913e-01  1.000000e+00
   endloop
 endfacet
 facet normal -1.491576e-09 -1.491577e-09  1.000000e+00
   outer loop
     vertex  3.732636e+00  3.732635e+00  1.000000e+00
     vertex  3.619498e+00  3.845772e+00  1.000000e+00
     vertex  3.732635e+00  3.732635e+00  1.000000e+00
   endloop
 endfacet
 facet normal -7.071060e-01 -7.071075e-01 -7.422382e-08
   outer loop
     vertex  3.732635e+00  3.732635e+00  4.030000e+00
     vertex  3.619498e+00  3.845772e+00  1.000000e+00
     vertex  3.732636e+00  3.732635e+00  1.000000e+00
   endloop
 endfacet
 facet normal -7.071070e-01 -7.071066e-01 -2.358447e-09
   outer loop
     vertex  3.732635e+00  3.732635e+00  4.030000e+00
     vertex  3.619498e+00  3.845772e+00  4.030000e+00
     vertex  3.619498e+00  3.845772e+00  1.000000e+00
   endloop
 endfacet
 facet normal  7.071069e-01 -7.071067e-01 -6.427353e-08
   outer loop
     vertex  3.732635e+00  3.732635e+00  4.030000e+00
     vertex  6.637920e-01  6.637913e-01  1.000000e+00
     vertex  3.732635e+00  3.732635e+00  1.000000e+00
   endloop
 endfacet
 facet normal  7.071068e-01 -7.071067e-01  0.000000e+00
   outer loop
     vertex  3.732635e+00  3.732635e+00  4.030000e+00
     vertex  6.637920e-01  6.637913e-01  4.030000e+00
     vertex  6.637920e-01  6.637913e-01  1.000000e+00
   endloop
 endfacet
 facet normal -5.940465e-10  5.940463e-10  1.000000e+00
   outer loop
     vertex  7.443035e+00  7.443036e+00  1.000000e+00
     vertex  4.374192e+00  4.374192e+00  1.000000e+00
     vertex  4.374193e+00  4.374192e+00  1.000000e+00
   endloop
 endfacet
 facet normal -3.491147e-10  3.491147e-10  1.000000e+00
   outer loop
     vertex  7.443036e+00  7.443035e+00  1.000000e+00
     vertex  7.443035e+00  7.443036e+00  1.000000e+00
     vertex  4.374193e+00  4.374192e+00  1.000000e+00
   endloop
 endfacet
 facet normal -6.304702e-01 -7.762135e-01 -0.000000e+00
   outer loop
     vertex  7.443036e+00  7.443035e+00  4.030000e+00
     vertex  7.443035e+00  7.443036e+00  1.000000e+00
     vertex  7.443036e+00  7.443035e+00  1.000000e+00
   endloop
 endfacet
 facet normal -6.304702e-01 -7.762135e-01  0.000000e+00
   outer loop
     vertex  7.443036e+00  7.443035e+00  4.030000e+00
     vertex  7.443035e+00  7.443036e+00  4.030000e+00
     vertex  7.443035e+00  7.443036e+00  1.000000e+00
   endloop
 endfacet
 facet normal -1.499099e-02  1.499099e-02 -9.997752e-01
   outer loop
     vertex  4.374192e+00  4.374192e+00  4.030000e+00
     vertex  7.443035e+00  7.443036e+00  4.030000e+00
     vertex  7.443036e+00  7.443035e+00  4.030000e+00
   endloop
 endfacet
 facet normal -2.549750e-02  2.549750e-02 -9.993497e-01
   outer loop
     vertex  4.374193e+00  4.374192e+00  4.030000e+00
     vertex  4.374192e+00  4.374192e+00  4.030000e+00
     vertex  7.443036e+00  7.443035e+00  4.030000e+00
   endloop
 endfacet
 facet normal  7.184277e-01  6.956016e-01 -0.000000e+00
   outer loop
     vertex  4.374192e+00  4.374192e+00  1.000000e+00
     vertex  4.374192e+00  4.374192e+00  4.030000e+00
     vertex  4.374193e+00  4.374192e+00  4.030000e+00
   endloop
 endfacet
 facet normal  7.184277e-01  6.956016e-01 -0.000000e+00
   outer loop
     vertex  4.374193e+00  4.374192e+00  1.000000e+00
     vertex  4.374192e+00  4.374192e+00  1.000000e+00
     vertex  4.374193e+00  4.374192e+00  4.030000e+00
   endloop
 endfacet
 facet normal  7.071074e-01  7.071061e-01 -2.999787e-08
   outer loop
     vertex  3.732635e+00  3.732635e+00  4.030000e+00
     vertex  3.732635e+00  3.732635e+00  1.000000e+00
     vertex  3.619498e+00  3.845772e+00  1.000000e+00
   endloop
 endfacet
 facet normal  7.071070e-01  7.071066e-01  2.358447e-09
   outer loop
     vertex  3.732635e+00  3.732635e+00  4.030000e+00
     vertex  3.619498e+00  3.845772e+00  1.000000e+00
     vertex  3.619498e+00  3.845772e+00  4.030000e+00
   endloop
 endfacet
 facet normal  7.071069e-01 -7.071067e-01  0.000000e+00
   outer loop
     vertex  7.443035e+00  7.443036e+00  4.030000e+00
     vertex  4.374192e+00  4.374192e+00  1.000000e+00
     vertex  7.443035e+00  7.443036e+00  1.000000e+00
   endloop
 endfacet
 facet normal  7.071069e-01 -7.071067e-01  0.000000e+00
   outer loop
     vertex  7.443035e+00  7.443036e+00  4.030000e+00
     vertex  4.374192e+00  4.374192e+00  4.030000e+00
     vertex  4.374192e+00  4.374192e+00  1.000000e+00
   endloop
 endfacet
endsolid
