solid 
 facet normal  0.000000e+00 -1.000000e+00 -0.000000e+00
   outer loop
     vertex  1.600000e-02  8.800000e-02  5.760000e-01
     vertex  0.000000e+00  8.800000e-02  0.000000e+00
     vertex  1.600000e-02  8.800000e-02  0.000000e+00
   endloop
 endfacet
 facet normal -0.000000e+00 -1.000000e+00  0.000000e+00
   outer loop
     vertex  1.600000e-02  8.800000e-02  5.760000e-01
     vertex  0.000000e+00  8.800000e-02  5.760000e-01
     vertex  0.000000e+00  8.800000e-02  0.000000e+00
   endloop
 endfacet
 facet normal  1.000000e+00  0.000000e+00  0.000000e+00
   outer loop
     vertex  1.600000e-02  1.200000e-01  5.760000e-01
     vertex  1.600000e-02  8.800000e-02  0.000000e+00
     vertex  1.600000e-02  1.200000e-01  0.000000e+00
   endloop
 endfacet
 facet normal  1.000000e+00  0.000000e+00  0.000000e+00
   outer loop
     vertex  1.600000e-02  1.200000e-01  5.760000e-01
     vertex  1.600000e-02  8.800000e-02  5.760000e-01
     vertex  1.600000e-02  8.800000e-02  0.000000e+00
   endloop
 endfacet
 facet normal  0.000000e+00  0.000000e+00  1.000000e+00
   outer loop
     vertex  0.000000e+00  1.200000e-01  5.760000e-01
     vertex  0.000000e+00  8.800000e-02  5.760000e-01
     vertex  1.600000e-02  8.800000e-02  5.760000e-01
   endloop
 endfacet
 facet normal -0.000000e+00  0.000000e+00  1.000000e+00
   outer loop
     vertex  0.000000e+00  1.200000e-01  5.760000e-01
     vertex  1.600000e-02  8.800000e-02  5.760000e-01
     vertex  1.600000e-02  1.200000e-01  5.760000e-01
   endloop
 endfacet
 facet normal -1.000000e+00  0.000000e+00 -0.000000e+00
   outer loop
     vertex  0.000000e+00  1.200000e-01  5.760000e-01
     vertex  0.000000e+00  1.200000e-01  0.000000e+00
     vertex  0.000000e+00  8.800000e-02  0.000000e+00
   endloop
 endfacet
 facet normal -1.000000e+00 -0.000000e+00  0.000000e+00
   outer loop
     vertex  0.000000e+00  1.200000e-01  5.760000e-01
     vertex  0.000000e+00  8.800000e-02  0.000000e+00
     vertex  0.000000e+00  8.800000e-02  5.760000e-01
   endloop
 endfacet
 facet normal  0.000000e+00  0.000000e+00 -1.000000e+00
   outer loop
     vertex  0.000000e+00  1.200000e-01  0.000000e+00
     vertex  1.600000e-02  8.800000e-02  0.000000e+00
     vertex  0.000000e+00  8.800000e-02  0.000000e+00
   endloop
 endfacet
 facet normal  0.000000e+00  0.000000e+00 -1.000000e+00
   outer loop
     vertex  0.000000e+00  1.200000e-01  0.000000e+00
     vertex  1.600000e-02  1.200000e-01  0.000000e+00
     vertex  1.600000e-02  8.800000e-02  0.000000e+00
   endloop
 endfacet
 facet normal  0.000000e+00  1.000000e+00  0.000000e+00
   outer loop
     vertex  1.600000e-02  1.200000e-01  5.760000e-01
     vertex  1.600000e-02  1.200000e-01  0.000000e+00
     vertex  0.000000e+00  1.200000e-01  0.000000e+00
   endloop
 endfacet
 facet normal  0.000000e+00  1.000000e+00  0.000000e+00
   outer loop
     vertex  1.600000e-02  1.200000e-01  5.760000e-01
     vertex  0.000000e+00  1.200000e-01  0.000000e+00
     vertex  0.000000e+00  1.200000e-01  5.760000e-01
   endloop
 endfacet
endsolid
