solid 
 facet normal  1.000000e+00  0.000000e+00  0.000000e+00
   outer loop
     vertex  1.496750e+01  5.967500e+00  9.675000e-01
     vertex  1.496750e+01  5.032500e+00  5.325000e-01
     vertex  1.496750e+01  5.967500e+00  5.325000e-01
   endloop
 endfacet
 facet normal  1.000000e+00  0.000000e+00  0.000000e+00
   outer loop
     vertex  1.496750e+01  5.967500e+00  9.675000e-01
     vertex  1.496750e+01  5.032500e+00  9.675000e-01
     vertex  1.496750e+01  5.032500e+00  5.325000e-01
   endloop
 endfacet
 facet normal -1.000000e+00  0.000000e+00 -0.000000e+00
   outer loop
     vertex  1.403250e+01  5.967500e+00  9.675000e-01
     vertex  1.403250e+01  5.967500e+00  5.325000e-01
     vertex  1.403250e+01  5.032500e+00  5.325000e-01
   endloop
 endfacet
 facet normal -1.000000e+00 -0.000000e+00  0.000000e+00
   outer loop
     vertex  1.403250e+01  5.967500e+00  9.675000e-01
     vertex  1.403250e+01  5.032500e+00  5.325000e-01
     vertex  1.403250e+01  5.032500e+00  9.675000e-01
   endloop
 endfacet
 facet normal  0.000000e+00  1.000000e+00  0.000000e+00
   outer loop
     vertex  1.403250e+01  5.967500e+00  9.675000e-01
     vertex  1.496750e+01  5.967500e+00  5.325000e-01
     vertex  1.403250e+01  5.967500e+00  5.325000e-01
   endloop
 endfacet
 facet normal -0.000000e+00  1.000000e+00  0.000000e+00
   outer loop
     vertex  1.403250e+01  5.967500e+00  9.675000e-01
     vertex  1.496750e+01  5.967500e+00  9.675000e-01
     vertex  1.496750e+01  5.967500e+00  5.325000e-01
   endloop
 endfacet
 facet normal  0.000000e+00 -1.000000e+00  0.000000e+00
   outer loop
     vertex  1.403250e+01  5.032500e+00  9.675000e-01
     vertex  1.403250e+01  5.032500e+00  5.325000e-01
     vertex  1.496750e+01  5.032500e+00  5.325000e-01
   endloop
 endfacet
 facet normal  0.000000e+00 -1.000000e+00  0.000000e+00
   outer loop
     vertex  1.403250e+01  5.032500e+00  9.675000e-01
     vertex  1.496750e+01  5.032500e+00  5.325000e-01
     vertex  1.496750e+01  5.032500e+00  9.675000e-01
   endloop
 endfacet
 facet normal  0.000000e+00  0.000000e+00 -1.000000e+00
   outer loop
     vertex  1.403250e+01  5.032500e+00  5.325000e-01
     vertex  1.496750e+01  5.967500e+00  5.325000e-01
     vertex  1.496750e+01  5.032500e+00  5.325000e-01
   endloop
 endfacet
 facet normal  0.000000e+00  0.000000e+00 -1.000000e+00
   outer loop
     vertex  1.403250e+01  5.032500e+00  5.325000e-01
     vertex  1.403250e+01  5.967500e+00  5.325000e-01
     vertex  1.496750e+01  5.967500e+00  5.325000e-01
   endloop
 endfacet
 facet normal  0.000000e+00  0.000000e+00  1.000000e+00
   outer loop
     vertex  1.403250e+01  5.032500e+00  9.675000e-01
     vertex  1.496750e+01  5.032500e+00  9.675000e-01
     vertex  1.496750e+01  5.967500e+00  9.675000e-01
   endloop
 endfacet
 facet normal  0.000000e+00  0.000000e+00  1.000000e+00
   outer loop
     vertex  1.403250e+01  5.032500e+00  9.675000e-01
     vertex  1.496750e+01  5.967500e+00  9.675000e-01
     vertex  1.403250e+01  5.967500e+00  9.675000e-01
   endloop
 endfacet
 facet normal  1.000000e+00  0.000000e+00  0.000000e+00
   outer loop
     vertex  7.967500e+00  5.967500e+00  9.675000e-01
     vertex  7.967500e+00  5.032500e+00  5.325000e-01
     vertex  7.967500e+00  5.967500e+00  5.325000e-01
   endloop
 endfacet
 facet normal  1.000000e+00  0.000000e+00  0.000000e+00
   outer loop
     vertex  7.967500e+00  5.967500e+00  9.675000e-01
     vertex  7.967500e+00  5.032500e+00  9.675000e-01
     vertex  7.967500e+00  5.032500e+00  5.325000e-01
   endloop
 endfacet
 facet normal -1.000000e+00  0.000000e+00 -0.000000e+00
   outer loop
     vertex  6.032500e+00  5.967500e+00  9.675000e-01
     vertex  6.032500e+00  5.967500e+00  5.325000e-01
     vertex  6.032500e+00  5.032500e+00  5.325000e-01
   endloop
 endfacet
 facet normal -1.000000e+00 -0.000000e+00  0.000000e+00
   outer loop
     vertex  6.032500e+00  5.967500e+00  9.675000e-01
     vertex  6.032500e+00  5.032500e+00  5.325000e-01
     vertex  6.032500e+00  5.032500e+00  9.675000e-01
   endloop
 endfacet
 facet normal  0.000000e+00  1.000000e+00  0.000000e+00
   outer loop
     vertex  6.032500e+00  5.967500e+00  9.675000e-01
     vertex  7.967500e+00  5.967500e+00  5.325000e-01
     vertex  6.032500e+00  5.967500e+00  5.325000e-01
   endloop
 endfacet
 facet normal -0.000000e+00  1.000000e+00  0.000000e+00
   outer loop
     vertex  6.032500e+00  5.967500e+00  9.675000e-01
     vertex  7.967500e+00  5.967500e+00  9.675000e-01
     vertex  7.967500e+00  5.967500e+00  5.325000e-01
   endloop
 endfacet
 facet normal -4.590069e-16 -1.000000e+00 -0.000000e+00
   outer loop
     vertex  6.032500e+00  5.032500e+00  9.675000e-01
     vertex  6.032500e+00  5.032500e+00  5.325000e-01
     vertex  7.967500e+00  5.032500e+00  5.325000e-01
   endloop
 endfacet
 facet normal -4.590069e-16 -1.000000e+00  0.000000e+00
   outer loop
     vertex  6.032500e+00  5.032500e+00  9.675000e-01
     vertex  7.967500e+00  5.032500e+00  5.325000e-01
     vertex  7.967500e+00  5.032500e+00  9.675000e-01
   endloop
 endfacet
 facet normal  0.000000e+00  0.000000e+00 -1.000000e+00
   outer loop
     vertex  6.032500e+00  5.032500e+00  5.325000e-01
     vertex  7.967500e+00  5.967500e+00  5.325000e-01
     vertex  7.967500e+00  5.032500e+00  5.325000e-01
   endloop
 endfacet
 facet normal  0.000000e+00  0.000000e+00 -1.000000e+00
   outer loop
     vertex  6.032500e+00  5.032500e+00  5.325000e-01
     vertex  6.032500e+00  5.967500e+00  5.325000e-01
     vertex  7.967500e+00  5.967500e+00  5.325000e-01
   endloop
 endfacet
 facet normal -0.000000e+00  0.000000e+00  1.000000e+00
   outer loop
     vertex  6.032500e+00  5.032500e+00  9.675000e-01
     vertex  7.967500e+00  5.032500e+00  9.675000e-01
     vertex  7.967500e+00  5.967500e+00  9.675000e-01
   endloop
 endfacet
 facet normal  0.000000e+00  0.000000e+00  1.000000e+00
   outer loop
     vertex  6.032500e+00  5.032500e+00  9.675000e-01
     vertex  7.967500e+00  5.967500e+00  9.675000e-01
     vertex  6.032500e+00  5.967500e+00  9.675000e-01
   endloop
 endfacet
 facet normal  1.000000e+00  0.000000e+00  0.000000e+00
   outer loop
     vertex  9.967500e+00  5.967500e+00  9.675000e-01
     vertex  9.967500e+00  5.032500e+00  5.325000e-01
     vertex  9.967500e+00  5.967500e+00  5.325000e-01
   endloop
 endfacet
 facet normal  1.000000e+00  0.000000e+00  0.000000e+00
   outer loop
     vertex  9.967500e+00  5.967500e+00  9.675000e-01
     vertex  9.967500e+00  5.032500e+00  9.675000e-01
     vertex  9.967500e+00  5.032500e+00  5.325000e-01
   endloop
 endfacet
 facet normal -1.000000e+00  1.899847e-15  0.000000e+00
   outer loop
     vertex  8.032500e+00  5.967500e+00  9.675000e-01
     vertex  8.032500e+00  5.967500e+00  5.325000e-01
     vertex  8.032500e+00  5.032500e+00  5.325000e-01
   endloop
 endfacet
 facet normal -1.000000e+00  1.899847e-15  0.000000e+00
   outer loop
     vertex  8.032500e+00  5.967500e+00  9.675000e-01
     vertex  8.032500e+00  5.032500e+00  5.325000e-01
     vertex  8.032500e+00  5.032500e+00  9.675000e-01
   endloop
 endfacet
 facet normal  0.000000e+00  1.000000e+00  0.000000e+00
   outer loop
     vertex  8.032500e+00  5.967500e+00  9.675000e-01
     vertex  9.967500e+00  5.967500e+00  5.325000e-01
     vertex  8.032500e+00  5.967500e+00  5.325000e-01
   endloop
 endfacet
 facet normal -0.000000e+00  1.000000e+00  0.000000e+00
   outer loop
     vertex  8.032500e+00  5.967500e+00  9.675000e-01
     vertex  9.967500e+00  5.967500e+00  9.675000e-01
     vertex  9.967500e+00  5.967500e+00  5.325000e-01
   endloop
 endfacet
 facet normal -4.590069e-16 -1.000000e+00 -0.000000e+00
   outer loop
     vertex  8.032500e+00  5.032500e+00  9.675000e-01
     vertex  8.032500e+00  5.032500e+00  5.325000e-01
     vertex  9.967500e+00  5.032500e+00  5.325000e-01
   endloop
 endfacet
 facet normal -4.590069e-16 -1.000000e+00  0.000000e+00
   outer loop
     vertex  8.032500e+00  5.032500e+00  9.675000e-01
     vertex  9.967500e+00  5.032500e+00  5.325000e-01
     vertex  9.967500e+00  5.032500e+00  9.675000e-01
   endloop
 endfacet
 facet normal  0.000000e+00  0.000000e+00 -1.000000e+00
   outer loop
     vertex  8.032500e+00  5.032500e+00  5.325000e-01
     vertex  9.967500e+00  5.967500e+00  5.325000e-01
     vertex  9.967500e+00  5.032500e+00  5.325000e-01
   endloop
 endfacet
 facet normal  0.000000e+00  0.000000e+00 -1.000000e+00
   outer loop
     vertex  8.032500e+00  5.032500e+00  5.325000e-01
     vertex  8.032500e+00  5.967500e+00  5.325000e-01
     vertex  9.967500e+00  5.967500e+00  5.325000e-01
   endloop
 endfacet
 facet normal -0.000000e+00  0.000000e+00  1.000000e+00
   outer loop
     vertex  8.032500e+00  5.032500e+00  9.675000e-01
     vertex  9.967500e+00  5.032500e+00  9.675000e-01
     vertex  9.967500e+00  5.967500e+00  9.675000e-01
   endloop
 endfacet
 facet normal  0.000000e+00  0.000000e+00  1.000000e+00
   outer loop
     vertex  8.032500e+00  5.032500e+00  9.675000e-01
     vertex  9.967500e+00  5.967500e+00  9.675000e-01
     vertex  8.032500e+00  5.967500e+00  9.675000e-01
   endloop
 endfacet
 facet normal  1.000000e+00  0.000000e+00  0.000000e+00
   outer loop
     vertex  1.196750e+01  5.967500e+00  9.675000e-01
     vertex  1.196750e+01  5.032500e+00  5.325000e-01
     vertex  1.196750e+01  5.967500e+00  5.325000e-01
   endloop
 endfacet
 facet normal  1.000000e+00  0.000000e+00  0.000000e+00
   outer loop
     vertex  1.196750e+01  5.967500e+00  9.675000e-01
     vertex  1.196750e+01  5.032500e+00  9.675000e-01
     vertex  1.196750e+01  5.032500e+00  5.325000e-01
   endloop
 endfacet
 facet normal -1.000000e+00  1.899847e-15  0.000000e+00
   outer loop
     vertex  1.003250e+01  5.967500e+00  9.675000e-01
     vertex  1.003250e+01  5.967500e+00  5.325000e-01
     vertex  1.003250e+01  5.032500e+00  5.325000e-01
   endloop
 endfacet
 facet normal -1.000000e+00  1.899847e-15  0.000000e+00
   outer loop
     vertex  1.003250e+01  5.967500e+00  9.675000e-01
     vertex  1.003250e+01  5.032500e+00  5.325000e-01
     vertex  1.003250e+01  5.032500e+00  9.675000e-01
   endloop
 endfacet
 facet normal -4.590069e-16  1.000000e+00  0.000000e+00
   outer loop
     vertex  1.003250e+01  5.967500e+00  9.675000e-01
     vertex  1.196750e+01  5.967500e+00  5.325000e-01
     vertex  1.003250e+01  5.967500e+00  5.325000e-01
   endloop
 endfacet
 facet normal -4.590069e-16  1.000000e+00  0.000000e+00
   outer loop
     vertex  1.003250e+01  5.967500e+00  9.675000e-01
     vertex  1.196750e+01  5.967500e+00  9.675000e-01
     vertex  1.196750e+01  5.967500e+00  5.325000e-01
   endloop
 endfacet
 facet normal  0.000000e+00 -1.000000e+00  0.000000e+00
   outer loop
     vertex  1.003250e+01  5.032500e+00  9.675000e-01
     vertex  1.003250e+01  5.032500e+00  5.325000e-01
     vertex  1.196750e+01  5.032500e+00  5.325000e-01
   endloop
 endfacet
 facet normal  0.000000e+00 -1.000000e+00  0.000000e+00
   outer loop
     vertex  1.003250e+01  5.032500e+00  9.675000e-01
     vertex  1.196750e+01  5.032500e+00  5.325000e-01
     vertex  1.196750e+01  5.032500e+00  9.675000e-01
   endloop
 endfacet
 facet normal  0.000000e+00  0.000000e+00 -1.000000e+00
   outer loop
     vertex  1.003250e+01  5.032500e+00  5.325000e-01
     vertex  1.196750e+01  5.967500e+00  5.325000e-01
     vertex  1.196750e+01  5.032500e+00  5.325000e-01
   endloop
 endfacet
 facet normal  0.000000e+00  0.000000e+00 -1.000000e+00
   outer loop
     vertex  1.003250e+01  5.032500e+00  5.325000e-01
     vertex  1.003250e+01  5.967500e+00  5.325000e-01
     vertex  1.196750e+01  5.967500e+00  5.325000e-01
   endloop
 endfacet
 facet normal  0.000000e+00  0.000000e+00  1.000000e+00
   outer loop
     vertex  1.003250e+01  5.032500e+00  9.675000e-01
     vertex  1.196750e+01  5.032500e+00  9.675000e-01
     vertex  1.196750e+01  5.967500e+00  9.675000e-01
   endloop
 endfacet
 facet normal  0.000000e+00  0.000000e+00  1.000000e+00
   outer loop
     vertex  1.003250e+01  5.032500e+00  9.675000e-01
     vertex  1.196750e+01  5.967500e+00  9.675000e-01
     vertex  1.003250e+01  5.967500e+00  9.675000e-01
   endloop
 endfacet
 facet normal  1.000000e+00  0.000000e+00  0.000000e+00
   outer loop
     vertex  1.396750e+01  5.967500e+00  9.675000e-01
     vertex  1.396750e+01  5.032500e+00  5.325000e-01
     vertex  1.396750e+01  5.967500e+00  5.325000e-01
   endloop
 endfacet
 facet normal  1.000000e+00  0.000000e+00  0.000000e+00
   outer loop
     vertex  1.396750e+01  5.967500e+00  9.675000e-01
     vertex  1.396750e+01  5.032500e+00  9.675000e-01
     vertex  1.396750e+01  5.032500e+00  5.325000e-01
   endloop
 endfacet
 facet normal -1.000000e+00  1.899847e-15  0.000000e+00
   outer loop
     vertex  1.203250e+01  5.967500e+00  9.675000e-01
     vertex  1.203250e+01  5.967500e+00  5.325000e-01
     vertex  1.203250e+01  5.032500e+00  5.325000e-01
   endloop
 endfacet
 facet normal -1.000000e+00  1.899847e-15  0.000000e+00
   outer loop
     vertex  1.203250e+01  5.967500e+00  9.675000e-01
     vertex  1.203250e+01  5.032500e+00  5.325000e-01
     vertex  1.203250e+01  5.032500e+00  9.675000e-01
   endloop
 endfacet
 facet normal  0.000000e+00  1.000000e+00  0.000000e+00
   outer loop
     vertex  1.203250e+01  5.967500e+00  9.675000e-01
     vertex  1.396750e+01  5.967500e+00  5.325000e-01
     vertex  1.203250e+01  5.967500e+00  5.325000e-01
   endloop
 endfacet
 facet normal -0.000000e+00  1.000000e+00  0.000000e+00
   outer loop
     vertex  1.203250e+01  5.967500e+00  9.675000e-01
     vertex  1.396750e+01  5.967500e+00  9.675000e-01
     vertex  1.396750e+01  5.967500e+00  5.325000e-01
   endloop
 endfacet
 facet normal  0.000000e+00 -1.000000e+00  0.000000e+00
   outer loop
     vertex  1.203250e+01  5.032500e+00  9.675000e-01
     vertex  1.203250e+01  5.032500e+00  5.325000e-01
     vertex  1.396750e+01  5.032500e+00  5.325000e-01
   endloop
 endfacet
 facet normal  0.000000e+00 -1.000000e+00  0.000000e+00
   outer loop
     vertex  1.203250e+01  5.032500e+00  9.675000e-01
     vertex  1.396750e+01  5.032500e+00  5.325000e-01
     vertex  1.396750e+01  5.032500e+00  9.675000e-01
   endloop
 endfacet
 facet normal  0.000000e+00  0.000000e+00 -1.000000e+00
   outer loop
     vertex  1.203250e+01  5.032500e+00  5.325000e-01
     vertex  1.396750e+01  5.967500e+00  5.325000e-01
     vertex  1.396750e+01  5.032500e+00  5.325000e-01
   endloop
 endfacet
 facet normal  0.000000e+00  0.000000e+00 -1.000000e+00
   outer loop
     vertex  1.203250e+01  5.032500e+00  5.325000e-01
     vertex  1.203250e+01  5.967500e+00  5.325000e-01
     vertex  1.396750e+01  5.967500e+00  5.325000e-01
   endloop
 endfacet
 facet normal  0.000000e+00  0.000000e+00  1.000000e+00
   outer loop
     vertex  1.203250e+01  5.032500e+00  9.675000e-01
     vertex  1.396750e+01  5.032500e+00  9.675000e-01
     vertex  1.396750e+01  5.967500e+00  9.675000e-01
   endloop
 endfacet
 facet normal  0.000000e+00  0.000000e+00  1.000000e+00
   outer loop
     vertex  1.203250e+01  5.032500e+00  9.675000e-01
     vertex  1.396750e+01  5.967500e+00  9.675000e-01
     vertex  1.203250e+01  5.967500e+00  9.675000e-01
   endloop
 endfacet
 facet normal  1.000000e+00  0.000000e+00  0.000000e+00
   outer loop
     vertex  8.967500e+00  5.967500e+00  4.675000e-01
     vertex  8.967500e+00  5.032500e+00  3.250000e-02
     vertex  8.967500e+00  5.967500e+00  3.250000e-02
   endloop
 endfacet
 facet normal  1.000000e+00  0.000000e+00  0.000000e+00
   outer loop
     vertex  8.967500e+00  5.967500e+00  4.675000e-01
     vertex  8.967500e+00  5.032500e+00  4.675000e-01
     vertex  8.967500e+00  5.032500e+00  3.250000e-02
   endloop
 endfacet
 facet normal -1.000000e+00  0.000000e+00 -0.000000e+00
   outer loop
     vertex  7.032500e+00  5.967500e+00  4.675000e-01
     vertex  7.032500e+00  5.967500e+00  3.250000e-02
     vertex  7.032500e+00  5.032500e+00  3.250000e-02
   endloop
 endfacet
 facet normal -1.000000e+00 -0.000000e+00  0.000000e+00
   outer loop
     vertex  7.032500e+00  5.967500e+00  4.675000e-01
     vertex  7.032500e+00  5.032500e+00  3.250000e-02
     vertex  7.032500e+00  5.032500e+00  4.675000e-01
   endloop
 endfacet
 facet normal  0.000000e+00  1.000000e+00  0.000000e+00
   outer loop
     vertex  7.032500e+00  5.967500e+00  4.675000e-01
     vertex  8.967500e+00  5.967500e+00  3.250000e-02
     vertex  7.032500e+00  5.967500e+00  3.250000e-02
   endloop
 endfacet
 facet normal -0.000000e+00  1.000000e+00  0.000000e+00
   outer loop
     vertex  7.032500e+00  5.967500e+00  4.675000e-01
     vertex  8.967500e+00  5.967500e+00  4.675000e-01
     vertex  8.967500e+00  5.967500e+00  3.250000e-02
   endloop
 endfacet
 facet normal -4.590069e-16 -1.000000e+00 -0.000000e+00
   outer loop
     vertex  7.032500e+00  5.032500e+00  4.675000e-01
     vertex  7.032500e+00  5.032500e+00  3.250000e-02
     vertex  8.967500e+00  5.032500e+00  3.250000e-02
   endloop
 endfacet
 facet normal -4.590069e-16 -1.000000e+00  0.000000e+00
   outer loop
     vertex  7.032500e+00  5.032500e+00  4.675000e-01
     vertex  8.967500e+00  5.032500e+00  3.250000e-02
     vertex  8.967500e+00  5.032500e+00  4.675000e-01
   endloop
 endfacet
 facet normal  0.000000e+00  0.000000e+00 -1.000000e+00
   outer loop
     vertex  7.032500e+00  5.032500e+00  3.250000e-02
     vertex  8.967500e+00  5.967500e+00  3.250000e-02
     vertex  8.967500e+00  5.032500e+00  3.250000e-02
   endloop
 endfacet
 facet normal  0.000000e+00  0.000000e+00 -1.000000e+00
   outer loop
     vertex  7.032500e+00  5.032500e+00  3.250000e-02
     vertex  7.032500e+00  5.967500e+00  3.250000e-02
     vertex  8.967500e+00  5.967500e+00  3.250000e-02
   endloop
 endfacet
 facet normal -0.000000e+00  0.000000e+00  1.000000e+00
   outer loop
     vertex  7.032500e+00  5.032500e+00  4.675000e-01
     vertex  8.967500e+00  5.032500e+00  4.675000e-01
     vertex  8.967500e+00  5.967500e+00  4.675000e-01
   endloop
 endfacet
 facet normal  0.000000e+00  0.000000e+00  1.000000e+00
   outer loop
     vertex  7.032500e+00  5.032500e+00  4.675000e-01
     vertex  8.967500e+00  5.967500e+00  4.675000e-01
     vertex  7.032500e+00  5.967500e+00  4.675000e-01
   endloop
 endfacet
 facet normal  1.000000e+00  0.000000e+00  0.000000e+00
   outer loop
     vertex  1.096750e+01  5.967500e+00  4.675000e-01
     vertex  1.096750e+01  5.032500e+00  3.250000e-02
     vertex  1.096750e+01  5.967500e+00  3.250000e-02
   endloop
 endfacet
 facet normal  1.000000e+00  0.000000e+00  0.000000e+00
   outer loop
     vertex  1.096750e+01  5.967500e+00  4.675000e-01
     vertex  1.096750e+01  5.032500e+00  4.675000e-01
     vertex  1.096750e+01  5.032500e+00  3.250000e-02
   endloop
 endfacet
 facet normal -1.000000e+00  1.899847e-15  0.000000e+00
   outer loop
     vertex  9.032500e+00  5.967500e+00  4.675000e-01
     vertex  9.032500e+00  5.967500e+00  3.250000e-02
     vertex  9.032500e+00  5.032500e+00  3.250000e-02
   endloop
 endfacet
 facet normal -1.000000e+00  1.899847e-15  0.000000e+00
   outer loop
     vertex  9.032500e+00  5.967500e+00  4.675000e-01
     vertex  9.032500e+00  5.032500e+00  3.250000e-02
     vertex  9.032500e+00  5.032500e+00  4.675000e-01
   endloop
 endfacet
 facet normal -4.590069e-16  1.000000e+00  0.000000e+00
   outer loop
     vertex  9.032500e+00  5.967500e+00  4.675000e-01
     vertex  1.096750e+01  5.967500e+00  3.250000e-02
     vertex  9.032500e+00  5.967500e+00  3.250000e-02
   endloop
 endfacet
 facet normal -4.590069e-16  1.000000e+00  0.000000e+00
   outer loop
     vertex  9.032500e+00  5.967500e+00  4.675000e-01
     vertex  1.096750e+01  5.967500e+00  4.675000e-01
     vertex  1.096750e+01  5.967500e+00  3.250000e-02
   endloop
 endfacet
 facet normal  0.000000e+00 -1.000000e+00  0.000000e+00
   outer loop
     vertex  9.032500e+00  5.032500e+00  4.675000e-01
     vertex  9.032500e+00  5.032500e+00  3.250000e-02
     vertex  1.096750e+01  5.032500e+00  3.250000e-02
   endloop
 endfacet
 facet normal  0.000000e+00 -1.000000e+00  0.000000e+00
   outer loop
     vertex  9.032500e+00  5.032500e+00  4.675000e-01
     vertex  1.096750e+01  5.032500e+00  3.250000e-02
     vertex  1.096750e+01  5.032500e+00  4.675000e-01
   endloop
 endfacet
 facet normal  0.000000e+00  0.000000e+00 -1.000000e+00
   outer loop
     vertex  9.032500e+00  5.032500e+00  3.250000e-02
     vertex  1.096750e+01  5.967500e+00  3.250000e-02
     vertex  1.096750e+01  5.032500e+00  3.250000e-02
   endloop
 endfacet
 facet normal  0.000000e+00  0.000000e+00 -1.000000e+00
   outer loop
     vertex  9.032500e+00  5.032500e+00  3.250000e-02
     vertex  9.032500e+00  5.967500e+00  3.250000e-02
     vertex  1.096750e+01  5.967500e+00  3.250000e-02
   endloop
 endfacet
 facet normal  0.000000e+00  0.000000e+00  1.000000e+00
   outer loop
     vertex  9.032500e+00  5.032500e+00  4.675000e-01
     vertex  1.096750e+01  5.032500e+00  4.675000e-01
     vertex  1.096750e+01  5.967500e+00  4.675000e-01
   endloop
 endfacet
 facet normal  0.000000e+00  0.000000e+00  1.000000e+00
   outer loop
     vertex  9.032500e+00  5.032500e+00  4.675000e-01
     vertex  1.096750e+01  5.967500e+00  4.675000e-01
     vertex  9.032500e+00  5.967500e+00  4.675000e-01
   endloop
 endfacet
 facet normal  1.000000e+00  0.000000e+00  0.000000e+00
   outer loop
     vertex  1.296750e+01  5.967500e+00  4.675000e-01
     vertex  1.296750e+01  5.032500e+00  3.250000e-02
     vertex  1.296750e+01  5.967500e+00  3.250000e-02
   endloop
 endfacet
 facet normal  1.000000e+00  0.000000e+00  0.000000e+00
   outer loop
     vertex  1.296750e+01  5.967500e+00  4.675000e-01
     vertex  1.296750e+01  5.032500e+00  4.675000e-01
     vertex  1.296750e+01  5.032500e+00  3.250000e-02
   endloop
 endfacet
 facet normal -1.000000e+00  1.899847e-15  0.000000e+00
   outer loop
     vertex  1.103250e+01  5.967500e+00  4.675000e-01
     vertex  1.103250e+01  5.967500e+00  3.250000e-02
     vertex  1.103250e+01  5.032500e+00  3.250000e-02
   endloop
 endfacet
 facet normal -1.000000e+00  1.899847e-15  0.000000e+00
   outer loop
     vertex  1.103250e+01  5.967500e+00  4.675000e-01
     vertex  1.103250e+01  5.032500e+00  3.250000e-02
     vertex  1.103250e+01  5.032500e+00  4.675000e-01
   endloop
 endfacet
 facet normal  0.000000e+00  1.000000e+00  0.000000e+00
   outer loop
     vertex  1.103250e+01  5.967500e+00  4.675000e-01
     vertex  1.296750e+01  5.967500e+00  3.250000e-02
     vertex  1.103250e+01  5.967500e+00  3.250000e-02
   endloop
 endfacet
 facet normal -0.000000e+00  1.000000e+00  0.000000e+00
   outer loop
     vertex  1.103250e+01  5.967500e+00  4.675000e-01
     vertex  1.296750e+01  5.967500e+00  4.675000e-01
     vertex  1.296750e+01  5.967500e+00  3.250000e-02
   endloop
 endfacet
 facet normal -4.590069e-16 -1.000000e+00 -0.000000e+00
   outer loop
     vertex  1.103250e+01  5.032500e+00  4.675000e-01
     vertex  1.103250e+01  5.032500e+00  3.250000e-02
     vertex  1.296750e+01  5.032500e+00  3.250000e-02
   endloop
 endfacet
 facet normal -4.590069e-16 -1.000000e+00  0.000000e+00
   outer loop
     vertex  1.103250e+01  5.032500e+00  4.675000e-01
     vertex  1.296750e+01  5.032500e+00  3.250000e-02
     vertex  1.296750e+01  5.032500e+00  4.675000e-01
   endloop
 endfacet
 facet normal  0.000000e+00  0.000000e+00 -1.000000e+00
   outer loop
     vertex  1.103250e+01  5.032500e+00  3.250000e-02
     vertex  1.296750e+01  5.967500e+00  3.250000e-02
     vertex  1.296750e+01  5.032500e+00  3.250000e-02
   endloop
 endfacet
 facet normal  0.000000e+00  0.000000e+00 -1.000000e+00
   outer loop
     vertex  1.103250e+01  5.032500e+00  3.250000e-02
     vertex  1.103250e+01  5.967500e+00  3.250000e-02
     vertex  1.296750e+01  5.967500e+00  3.250000e-02
   endloop
 endfacet
 facet normal -0.000000e+00  0.000000e+00  1.000000e+00
   outer loop
     vertex  1.103250e+01  5.032500e+00  4.675000e-01
     vertex  1.296750e+01  5.032500e+00  4.675000e-01
     vertex  1.296750e+01  5.967500e+00  4.675000e-01
   endloop
 endfacet
 facet normal  0.000000e+00  0.000000e+00  1.000000e+00
   outer loop
     vertex  1.103250e+01  5.032500e+00  4.675000e-01
     vertex  1.296750e+01  5.967500e+00  4.675000e-01
     vertex  1.103250e+01  5.967500e+00  4.675000e-01
   endloop
 endfacet
 facet normal  1.000000e+00  0.000000e+00  0.000000e+00
   outer loop
     vertex  1.496750e+01  5.967500e+00  4.675000e-01
     vertex  1.496750e+01  5.032500e+00  3.250000e-02
     vertex  1.496750e+01  5.967500e+00  3.250000e-02
   endloop
 endfacet
 facet normal  1.000000e+00  0.000000e+00  0.000000e+00
   outer loop
     vertex  1.496750e+01  5.967500e+00  4.675000e-01
     vertex  1.496750e+01  5.032500e+00  4.675000e-01
     vertex  1.496750e+01  5.032500e+00  3.250000e-02
   endloop
 endfacet
 facet normal -1.000000e+00  1.899847e-15  0.000000e+00
   outer loop
     vertex  1.303250e+01  5.967500e+00  4.675000e-01
     vertex  1.303250e+01  5.967500e+00  3.250000e-02
     vertex  1.303250e+01  5.032500e+00  3.250000e-02
   endloop
 endfacet
 facet normal -1.000000e+00  1.899847e-15  0.000000e+00
   outer loop
     vertex  1.303250e+01  5.967500e+00  4.675000e-01
     vertex  1.303250e+01  5.032500e+00  3.250000e-02
     vertex  1.303250e+01  5.032500e+00  4.675000e-01
   endloop
 endfacet
 facet normal  0.000000e+00  1.000000e+00  0.000000e+00
   outer loop
     vertex  1.303250e+01  5.967500e+00  4.675000e-01
     vertex  1.496750e+01  5.967500e+00  3.250000e-02
     vertex  1.303250e+01  5.967500e+00  3.250000e-02
   endloop
 endfacet
 facet normal -0.000000e+00  1.000000e+00  0.000000e+00
   outer loop
     vertex  1.303250e+01  5.967500e+00  4.675000e-01
     vertex  1.496750e+01  5.967500e+00  4.675000e-01
     vertex  1.496750e+01  5.967500e+00  3.250000e-02
   endloop
 endfacet
 facet normal  0.000000e+00 -1.000000e+00  0.000000e+00
   outer loop
     vertex  1.303250e+01  5.032500e+00  4.675000e-01
     vertex  1.303250e+01  5.032500e+00  3.250000e-02
     vertex  1.496750e+01  5.032500e+00  3.250000e-02
   endloop
 endfacet
 facet normal  0.000000e+00 -1.000000e+00  0.000000e+00
   outer loop
     vertex  1.303250e+01  5.032500e+00  4.675000e-01
     vertex  1.496750e+01  5.032500e+00  3.250000e-02
     vertex  1.496750e+01  5.032500e+00  4.675000e-01
   endloop
 endfacet
 facet normal  0.000000e+00  0.000000e+00 -1.000000e+00
   outer loop
     vertex  1.303250e+01  5.032500e+00  3.250000e-02
     vertex  1.496750e+01  5.967500e+00  3.250000e-02
     vertex  1.496750e+01  5.032500e+00  3.250000e-02
   endloop
 endfacet
 facet normal  0.000000e+00  0.000000e+00 -1.000000e+00
   outer loop
     vertex  1.303250e+01  5.032500e+00  3.250000e-02
     vertex  1.303250e+01  5.967500e+00  3.250000e-02
     vertex  1.496750e+01  5.967500e+00  3.250000e-02
   endloop
 endfacet
 facet normal  0.000000e+00  0.000000e+00  1.000000e+00
   outer loop
     vertex  1.303250e+01  5.032500e+00  4.675000e-01
     vertex  1.496750e+01  5.032500e+00  4.675000e-01
     vertex  1.496750e+01  5.967500e+00  4.675000e-01
   endloop
 endfacet
 facet normal  0.000000e+00  0.000000e+00  1.000000e+00
   outer loop
     vertex  1.303250e+01  5.032500e+00  4.675000e-01
     vertex  1.496750e+01  5.967500e+00  4.675000e-01
     vertex  1.303250e+01  5.967500e+00  4.675000e-01
   endloop
 endfacet
 facet normal -9.499234e-16 -1.000000e+00 -0.000000e+00
   outer loop
     vertex  5.967500e+00 -4.967500e+00  9.675000e-01
     vertex  5.032500e+00 -4.967500e+00  5.325000e-01
     vertex  5.967500e+00 -4.967500e+00  5.325000e-01
   endloop
 endfacet
 facet normal -9.499234e-16 -1.000000e+00  0.000000e+00
   outer loop
     vertex  5.967500e+00 -4.967500e+00  9.675000e-01
     vertex  5.032500e+00 -4.967500e+00  9.675000e-01
     vertex  5.032500e+00 -4.967500e+00  5.325000e-01
   endloop
 endfacet
 facet normal  0.000000e+00  1.000000e+00  0.000000e+00
   outer loop
     vertex  5.967500e+00 -4.032500e+00  9.675000e-01
     vertex  5.967500e+00 -4.032500e+00  5.325000e-01
     vertex  5.032500e+00 -4.032500e+00  5.325000e-01
   endloop
 endfacet
 facet normal  0.000000e+00  1.000000e+00  0.000000e+00
   outer loop
     vertex  5.967500e+00 -4.032500e+00  9.675000e-01
     vertex  5.032500e+00 -4.032500e+00  5.325000e-01
     vertex  5.032500e+00 -4.032500e+00  9.675000e-01
   endloop
 endfacet
 facet normal  1.000000e+00  0.000000e+00  0.000000e+00
   outer loop
     vertex  5.967500e+00 -4.032500e+00  9.675000e-01
     vertex  5.967500e+00 -4.967500e+00  5.325000e-01
     vertex  5.967500e+00 -4.032500e+00  5.325000e-01
   endloop
 endfacet
 facet normal  1.000000e+00  0.000000e+00  0.000000e+00
   outer loop
     vertex  5.967500e+00 -4.032500e+00  9.675000e-01
     vertex  5.967500e+00 -4.967500e+00  9.675000e-01
     vertex  5.967500e+00 -4.967500e+00  5.325000e-01
   endloop
 endfacet
 facet normal -1.000000e+00  0.000000e+00 -0.000000e+00
   outer loop
     vertex  5.032500e+00 -4.032500e+00  9.675000e-01
     vertex  5.032500e+00 -4.032500e+00  5.325000e-01
     vertex  5.032500e+00 -4.967500e+00  5.325000e-01
   endloop
 endfacet
 facet normal -1.000000e+00 -0.000000e+00  0.000000e+00
   outer loop
     vertex  5.032500e+00 -4.032500e+00  9.675000e-01
     vertex  5.032500e+00 -4.967500e+00  5.325000e-01
     vertex  5.032500e+00 -4.967500e+00  9.675000e-01
   endloop
 endfacet
 facet normal  0.000000e+00  0.000000e+00 -1.000000e+00
   outer loop
     vertex  5.032500e+00 -4.032500e+00  5.325000e-01
     vertex  5.967500e+00 -4.967500e+00  5.325000e-01
     vertex  5.032500e+00 -4.967500e+00  5.325000e-01
   endloop
 endfacet
 facet normal  0.000000e+00  0.000000e+00 -1.000000e+00
   outer loop
     vertex  5.032500e+00 -4.032500e+00  5.325000e-01
     vertex  5.967500e+00 -4.032500e+00  5.325000e-01
     vertex  5.967500e+00 -4.967500e+00  5.325000e-01
   endloop
 endfacet
 facet normal  0.000000e+00  0.000000e+00  1.000000e+00
   outer loop
     vertex  5.032500e+00 -4.032500e+00  9.675000e-01
     vertex  5.032500e+00 -4.967500e+00  9.675000e-01
     vertex  5.967500e+00 -4.967500e+00  9.675000e-01
   endloop
 endfacet
 facet normal -0.000000e+00  0.000000e+00  1.000000e+00
   outer loop
     vertex  5.032500e+00 -4.032500e+00  9.675000e-01
     vertex  5.967500e+00 -4.967500e+00  9.675000e-01
     vertex  5.967500e+00 -4.032500e+00  9.675000e-01
   endloop
 endfacet
 facet normal  0.000000e+00 -1.000000e+00 -0.000000e+00
   outer loop
     vertex  5.967500e+00  2.032500e+00  9.675000e-01
     vertex  5.032500e+00  2.032500e+00  5.325000e-01
     vertex  5.967500e+00  2.032500e+00  5.325000e-01
   endloop
 endfacet
 facet normal -0.000000e+00 -1.000000e+00  0.000000e+00
   outer loop
     vertex  5.967500e+00  2.032500e+00  9.675000e-01
     vertex  5.032500e+00  2.032500e+00  9.675000e-01
     vertex  5.032500e+00  2.032500e+00  5.325000e-01
   endloop
 endfacet
 facet normal  0.000000e+00  1.000000e+00  0.000000e+00
   outer loop
     vertex  5.967500e+00  3.967500e+00  9.675000e-01
     vertex  5.967500e+00  3.967500e+00  5.325000e-01
     vertex  5.032500e+00  3.967500e+00  5.325000e-01
   endloop
 endfacet
 facet normal  0.000000e+00  1.000000e+00  0.000000e+00
   outer loop
     vertex  5.967500e+00  3.967500e+00  9.675000e-01
     vertex  5.032500e+00  3.967500e+00  5.325000e-01
     vertex  5.032500e+00  3.967500e+00  9.675000e-01
   endloop
 endfacet
 facet normal  1.000000e+00  0.000000e+00  0.000000e+00
   outer loop
     vertex  5.967500e+00  3.967500e+00  9.675000e-01
     vertex  5.967500e+00  2.032500e+00  5.325000e-01
     vertex  5.967500e+00  3.967500e+00  5.325000e-01
   endloop
 endfacet
 facet normal  1.000000e+00  0.000000e+00  0.000000e+00
   outer loop
     vertex  5.967500e+00  3.967500e+00  9.675000e-01
     vertex  5.967500e+00  2.032500e+00  9.675000e-01
     vertex  5.967500e+00  2.032500e+00  5.325000e-01
   endloop
 endfacet
 facet normal -1.000000e+00  9.180139e-16  0.000000e+00
   outer loop
     vertex  5.032500e+00  3.967500e+00  9.675000e-01
     vertex  5.032500e+00  3.967500e+00  5.325000e-01
     vertex  5.032500e+00  2.032500e+00  5.325000e-01
   endloop
 endfacet
 facet normal -1.000000e+00  9.180139e-16  0.000000e+00
   outer loop
     vertex  5.032500e+00  3.967500e+00  9.675000e-01
     vertex  5.032500e+00  2.032500e+00  5.325000e-01
     vertex  5.032500e+00  2.032500e+00  9.675000e-01
   endloop
 endfacet
 facet normal  0.000000e+00 -0.000000e+00 -1.000000e+00
   outer loop
     vertex  5.032500e+00  3.967500e+00  5.325000e-01
     vertex  5.967500e+00  2.032500e+00  5.325000e-01
     vertex  5.032500e+00  2.032500e+00  5.325000e-01
   endloop
 endfacet
 facet normal  0.000000e+00  0.000000e+00 -1.000000e+00
   outer loop
     vertex  5.032500e+00  3.967500e+00  5.325000e-01
     vertex  5.967500e+00  3.967500e+00  5.325000e-01
     vertex  5.967500e+00  2.032500e+00  5.325000e-01
   endloop
 endfacet
 facet normal  0.000000e+00  0.000000e+00  1.000000e+00
   outer loop
     vertex  5.032500e+00  3.967500e+00  9.675000e-01
     vertex  5.032500e+00  2.032500e+00  9.675000e-01
     vertex  5.967500e+00  2.032500e+00  9.675000e-01
   endloop
 endfacet
 facet normal -0.000000e+00  0.000000e+00  1.000000e+00
   outer loop
     vertex  5.032500e+00  3.967500e+00  9.675000e-01
     vertex  5.967500e+00  2.032500e+00  9.675000e-01
     vertex  5.967500e+00  3.967500e+00  9.675000e-01
   endloop
 endfacet
 facet normal -2.226383e-16 -1.000000e+00 -0.000000e+00
   outer loop
     vertex  5.967500e+00  3.250000e-02  9.675000e-01
     vertex  5.032500e+00  3.250000e-02  5.325000e-01
     vertex  5.967500e+00  3.250000e-02  5.325000e-01
   endloop
 endfacet
 facet normal -2.226383e-16 -1.000000e+00  0.000000e+00
   outer loop
     vertex  5.967500e+00  3.250000e-02  9.675000e-01
     vertex  5.032500e+00  3.250000e-02  9.675000e-01
     vertex  5.032500e+00  3.250000e-02  5.325000e-01
   endloop
 endfacet
 facet normal  4.749617e-16  1.000000e+00  0.000000e+00
   outer loop
     vertex  5.967500e+00  1.967500e+00  9.675000e-01
     vertex  5.967500e+00  1.967500e+00  5.325000e-01
     vertex  5.032500e+00  1.967500e+00  5.325000e-01
   endloop
 endfacet
 facet normal  4.749617e-16  1.000000e+00  0.000000e+00
   outer loop
     vertex  5.967500e+00  1.967500e+00  9.675000e-01
     vertex  5.032500e+00  1.967500e+00  5.325000e-01
     vertex  5.032500e+00  1.967500e+00  9.675000e-01
   endloop
 endfacet
 facet normal  1.000000e+00  0.000000e+00  0.000000e+00
   outer loop
     vertex  5.967500e+00  1.967500e+00  9.675000e-01
     vertex  5.967500e+00  3.250000e-02  5.325000e-01
     vertex  5.967500e+00  1.967500e+00  5.325000e-01
   endloop
 endfacet
 facet normal  1.000000e+00  0.000000e+00  0.000000e+00
   outer loop
     vertex  5.967500e+00  1.967500e+00  9.675000e-01
     vertex  5.967500e+00  3.250000e-02  9.675000e-01
     vertex  5.967500e+00  3.250000e-02  5.325000e-01
   endloop
 endfacet
 facet normal -1.000000e+00  4.590069e-16  0.000000e+00
   outer loop
     vertex  5.032500e+00  1.967500e+00  9.675000e-01
     vertex  5.032500e+00  1.967500e+00  5.325000e-01
     vertex  5.032500e+00  3.250000e-02  5.325000e-01
   endloop
 endfacet
 facet normal -1.000000e+00  4.590069e-16  0.000000e+00
   outer loop
     vertex  5.032500e+00  1.967500e+00  9.675000e-01
     vertex  5.032500e+00  3.250000e-02  5.325000e-01
     vertex  5.032500e+00  3.250000e-02  9.675000e-01
   endloop
 endfacet
 facet normal  0.000000e+00 -0.000000e+00 -1.000000e+00
   outer loop
     vertex  5.032500e+00  1.967500e+00  5.325000e-01
     vertex  5.967500e+00  3.250000e-02  5.325000e-01
     vertex  5.032500e+00  3.250000e-02  5.325000e-01
   endloop
 endfacet
 facet normal  0.000000e+00  0.000000e+00 -1.000000e+00
   outer loop
     vertex  5.032500e+00  1.967500e+00  5.325000e-01
     vertex  5.967500e+00  1.967500e+00  5.325000e-01
     vertex  5.967500e+00  3.250000e-02  5.325000e-01
   endloop
 endfacet
 facet normal  0.000000e+00  0.000000e+00  1.000000e+00
   outer loop
     vertex  5.032500e+00  1.967500e+00  9.675000e-01
     vertex  5.032500e+00  3.250000e-02  9.675000e-01
     vertex  5.967500e+00  3.250000e-02  9.675000e-01
   endloop
 endfacet
 facet normal  0.000000e+00  0.000000e+00  1.000000e+00
   outer loop
     vertex  5.032500e+00  1.967500e+00  9.675000e-01
     vertex  5.967500e+00  3.250000e-02  9.675000e-01
     vertex  5.967500e+00  1.967500e+00  9.675000e-01
   endloop
 endfacet
 facet normal -2.374809e-16 -1.000000e+00 -0.000000e+00
   outer loop
     vertex  5.967500e+00 -1.967500e+00  9.675000e-01
     vertex  5.032500e+00 -1.967500e+00  5.325000e-01
     vertex  5.967500e+00 -1.967500e+00  5.325000e-01
   endloop
 endfacet
 facet normal -2.374809e-16 -1.000000e+00  0.000000e+00
   outer loop
     vertex  5.967500e+00 -1.967500e+00  9.675000e-01
     vertex  5.032500e+00 -1.967500e+00  9.675000e-01
     vertex  5.032500e+00 -1.967500e+00  5.325000e-01
   endloop
 endfacet
 facet normal  2.374809e-16  1.000000e+00  0.000000e+00
   outer loop
     vertex  5.967500e+00 -3.250000e-02  9.675000e-01
     vertex  5.967500e+00 -3.250000e-02  5.325000e-01
     vertex  5.032500e+00 -3.250000e-02  5.325000e-01
   endloop
 endfacet
 facet normal  2.374809e-16  1.000000e+00  0.000000e+00
   outer loop
     vertex  5.967500e+00 -3.250000e-02  9.675000e-01
     vertex  5.032500e+00 -3.250000e-02  5.325000e-01
     vertex  5.032500e+00 -3.250000e-02  9.675000e-01
   endloop
 endfacet
 facet normal  1.000000e+00  0.000000e+00  0.000000e+00
   outer loop
     vertex  5.967500e+00 -3.250000e-02  9.675000e-01
     vertex  5.967500e+00 -1.967500e+00  5.325000e-01
     vertex  5.967500e+00 -3.250000e-02  5.325000e-01
   endloop
 endfacet
 facet normal  1.000000e+00  0.000000e+00  0.000000e+00
   outer loop
     vertex  5.967500e+00 -3.250000e-02  9.675000e-01
     vertex  5.967500e+00 -1.967500e+00  9.675000e-01
     vertex  5.967500e+00 -1.967500e+00  5.325000e-01
   endloop
 endfacet
 facet normal -1.000000e+00  4.590069e-16  0.000000e+00
   outer loop
     vertex  5.032500e+00 -3.250000e-02  9.675000e-01
     vertex  5.032500e+00 -3.250000e-02  5.325000e-01
     vertex  5.032500e+00 -1.967500e+00  5.325000e-01
   endloop
 endfacet
 facet normal -1.000000e+00  4.590069e-16  0.000000e+00
   outer loop
     vertex  5.032500e+00 -3.250000e-02  9.675000e-01
     vertex  5.032500e+00 -1.967500e+00  5.325000e-01
     vertex  5.032500e+00 -1.967500e+00  9.675000e-01
   endloop
 endfacet
 facet normal  0.000000e+00 -0.000000e+00 -1.000000e+00
   outer loop
     vertex  5.032500e+00 -3.250000e-02  5.325000e-01
     vertex  5.967500e+00 -1.967500e+00  5.325000e-01
     vertex  5.032500e+00 -1.967500e+00  5.325000e-01
   endloop
 endfacet
 facet normal  0.000000e+00  0.000000e+00 -1.000000e+00
   outer loop
     vertex  5.032500e+00 -3.250000e-02  5.325000e-01
     vertex  5.967500e+00 -3.250000e-02  5.325000e-01
     vertex  5.967500e+00 -1.967500e+00  5.325000e-01
   endloop
 endfacet
 facet normal  0.000000e+00  0.000000e+00  1.000000e+00
   outer loop
     vertex  5.032500e+00 -3.250000e-02  9.675000e-01
     vertex  5.032500e+00 -1.967500e+00  9.675000e-01
     vertex  5.967500e+00 -1.967500e+00  9.675000e-01
   endloop
 endfacet
 facet normal  0.000000e+00  0.000000e+00  1.000000e+00
   outer loop
     vertex  5.032500e+00 -3.250000e-02  9.675000e-01
     vertex  5.967500e+00 -1.967500e+00  9.675000e-01
     vertex  5.967500e+00 -3.250000e-02  9.675000e-01
   endloop
 endfacet
 facet normal  0.000000e+00 -1.000000e+00 -0.000000e+00
   outer loop
     vertex  5.967500e+00 -3.967500e+00  9.675000e-01
     vertex  5.032500e+00 -3.967500e+00  5.325000e-01
     vertex  5.967500e+00 -3.967500e+00  5.325000e-01
   endloop
 endfacet
 facet normal -0.000000e+00 -1.000000e+00  0.000000e+00
   outer loop
     vertex  5.967500e+00 -3.967500e+00  9.675000e-01
     vertex  5.032500e+00 -3.967500e+00  9.675000e-01
     vertex  5.032500e+00 -3.967500e+00  5.325000e-01
   endloop
 endfacet
 facet normal  0.000000e+00  1.000000e+00  0.000000e+00
   outer loop
     vertex  5.967500e+00 -2.032500e+00  9.675000e-01
     vertex  5.967500e+00 -2.032500e+00  5.325000e-01
     vertex  5.032500e+00 -2.032500e+00  5.325000e-01
   endloop
 endfacet
 facet normal  0.000000e+00  1.000000e+00  0.000000e+00
   outer loop
     vertex  5.967500e+00 -2.032500e+00  9.675000e-01
     vertex  5.032500e+00 -2.032500e+00  5.325000e-01
     vertex  5.032500e+00 -2.032500e+00  9.675000e-01
   endloop
 endfacet
 facet normal  1.000000e+00  0.000000e+00  0.000000e+00
   outer loop
     vertex  5.967500e+00 -2.032500e+00  9.675000e-01
     vertex  5.967500e+00 -3.967500e+00  5.325000e-01
     vertex  5.967500e+00 -2.032500e+00  5.325000e-01
   endloop
 endfacet
 facet normal  1.000000e+00  0.000000e+00  0.000000e+00
   outer loop
     vertex  5.967500e+00 -2.032500e+00  9.675000e-01
     vertex  5.967500e+00 -3.967500e+00  9.675000e-01
     vertex  5.967500e+00 -3.967500e+00  5.325000e-01
   endloop
 endfacet
 facet normal -1.000000e+00  9.180139e-16  0.000000e+00
   outer loop
     vertex  5.032500e+00 -2.032500e+00  9.675000e-01
     vertex  5.032500e+00 -2.032500e+00  5.325000e-01
     vertex  5.032500e+00 -3.967500e+00  5.325000e-01
   endloop
 endfacet
 facet normal -1.000000e+00  9.180139e-16  0.000000e+00
   outer loop
     vertex  5.032500e+00 -2.032500e+00  9.675000e-01
     vertex  5.032500e+00 -3.967500e+00  5.325000e-01
     vertex  5.032500e+00 -3.967500e+00  9.675000e-01
   endloop
 endfacet
 facet normal  0.000000e+00 -0.000000e+00 -1.000000e+00
   outer loop
     vertex  5.032500e+00 -2.032500e+00  5.325000e-01
     vertex  5.967500e+00 -3.967500e+00  5.325000e-01
     vertex  5.032500e+00 -3.967500e+00  5.325000e-01
   endloop
 endfacet
 facet normal  0.000000e+00  0.000000e+00 -1.000000e+00
   outer loop
     vertex  5.032500e+00 -2.032500e+00  5.325000e-01
     vertex  5.967500e+00 -2.032500e+00  5.325000e-01
     vertex  5.967500e+00 -3.967500e+00  5.325000e-01
   endloop
 endfacet
 facet normal  0.000000e+00  0.000000e+00  1.000000e+00
   outer loop
     vertex  5.032500e+00 -2.032500e+00  9.675000e-01
     vertex  5.032500e+00 -3.967500e+00  9.675000e-01
     vertex  5.967500e+00 -3.967500e+00  9.675000e-01
   endloop
 endfacet
 facet normal -0.000000e+00  0.000000e+00  1.000000e+00
   outer loop
     vertex  5.032500e+00 -2.032500e+00  9.675000e-01
     vertex  5.967500e+00 -3.967500e+00  9.675000e-01
     vertex  5.967500e+00 -2.032500e+00  9.675000e-01
   endloop
 endfacet
 facet normal  0.000000e+00 -1.000000e+00 -0.000000e+00
   outer loop
     vertex  5.967500e+00  3.032500e+00  4.675000e-01
     vertex  5.032500e+00  3.032500e+00  3.250000e-02
     vertex  5.967500e+00  3.032500e+00  3.250000e-02
   endloop
 endfacet
 facet normal -0.000000e+00 -1.000000e+00  0.000000e+00
   outer loop
     vertex  5.967500e+00  3.032500e+00  4.675000e-01
     vertex  5.032500e+00  3.032500e+00  4.675000e-01
     vertex  5.032500e+00  3.032500e+00  3.250000e-02
   endloop
 endfacet
 facet normal  9.499234e-16  1.000000e+00  0.000000e+00
   outer loop
     vertex  5.967500e+00  4.967500e+00  4.675000e-01
     vertex  5.967500e+00  4.967500e+00  3.250000e-02
     vertex  5.032500e+00  4.967500e+00  3.250000e-02
   endloop
 endfacet
 facet normal  9.499234e-16  1.000000e+00  0.000000e+00
   outer loop
     vertex  5.967500e+00  4.967500e+00  4.675000e-01
     vertex  5.032500e+00  4.967500e+00  3.250000e-02
     vertex  5.032500e+00  4.967500e+00  4.675000e-01
   endloop
 endfacet
 facet normal  1.000000e+00  0.000000e+00  0.000000e+00
   outer loop
     vertex  5.967500e+00  4.967500e+00  4.675000e-01
     vertex  5.967500e+00  3.032500e+00  3.250000e-02
     vertex  5.967500e+00  4.967500e+00  3.250000e-02
   endloop
 endfacet
 facet normal  1.000000e+00  0.000000e+00  0.000000e+00
   outer loop
     vertex  5.967500e+00  4.967500e+00  4.675000e-01
     vertex  5.967500e+00  3.032500e+00  4.675000e-01
     vertex  5.967500e+00  3.032500e+00  3.250000e-02
   endloop
 endfacet
 facet normal -1.000000e+00  9.180139e-16  0.000000e+00
   outer loop
     vertex  5.032500e+00  4.967500e+00  4.675000e-01
     vertex  5.032500e+00  4.967500e+00  3.250000e-02
     vertex  5.032500e+00  3.032500e+00  3.250000e-02
   endloop
 endfacet
 facet normal -1.000000e+00  9.180139e-16  0.000000e+00
   outer loop
     vertex  5.032500e+00  4.967500e+00  4.675000e-01
     vertex  5.032500e+00  3.032500e+00  3.250000e-02
     vertex  5.032500e+00  3.032500e+00  4.675000e-01
   endloop
 endfacet
 facet normal  0.000000e+00 -0.000000e+00 -1.000000e+00
   outer loop
     vertex  5.032500e+00  4.967500e+00  3.250000e-02
     vertex  5.967500e+00  3.032500e+00  3.250000e-02
     vertex  5.032500e+00  3.032500e+00  3.250000e-02
   endloop
 endfacet
 facet normal  0.000000e+00  0.000000e+00 -1.000000e+00
   outer loop
     vertex  5.032500e+00  4.967500e+00  3.250000e-02
     vertex  5.967500e+00  4.967500e+00  3.250000e-02
     vertex  5.967500e+00  3.032500e+00  3.250000e-02
   endloop
 endfacet
 facet normal  0.000000e+00  0.000000e+00  1.000000e+00
   outer loop
     vertex  5.032500e+00  4.967500e+00  4.675000e-01
     vertex  5.032500e+00  3.032500e+00  4.675000e-01
     vertex  5.967500e+00  3.032500e+00  4.675000e-01
   endloop
 endfacet
 facet normal  0.000000e+00  0.000000e+00  1.000000e+00
   outer loop
     vertex  5.032500e+00  4.967500e+00  4.675000e-01
     vertex  5.967500e+00  3.032500e+00  4.675000e-01
     vertex  5.967500e+00  4.967500e+00  4.675000e-01
   endloop
 endfacet
 facet normal -2.374809e-16 -1.000000e+00 -0.000000e+00
   outer loop
     vertex  5.967500e+00  1.032500e+00  4.675000e-01
     vertex  5.032500e+00  1.032500e+00  3.250000e-02
     vertex  5.967500e+00  1.032500e+00  3.250000e-02
   endloop
 endfacet
 facet normal -2.374809e-16 -1.000000e+00  0.000000e+00
   outer loop
     vertex  5.967500e+00  1.032500e+00  4.675000e-01
     vertex  5.032500e+00  1.032500e+00  4.675000e-01
     vertex  5.032500e+00  1.032500e+00  3.250000e-02
   endloop
 endfacet
 facet normal  0.000000e+00  1.000000e+00  0.000000e+00
   outer loop
     vertex  5.967500e+00  2.967500e+00  4.675000e-01
     vertex  5.967500e+00  2.967500e+00  3.250000e-02
     vertex  5.032500e+00  2.967500e+00  3.250000e-02
   endloop
 endfacet
 facet normal  0.000000e+00  1.000000e+00  0.000000e+00
   outer loop
     vertex  5.967500e+00  2.967500e+00  4.675000e-01
     vertex  5.032500e+00  2.967500e+00  3.250000e-02
     vertex  5.032500e+00  2.967500e+00  4.675000e-01
   endloop
 endfacet
 facet normal  1.000000e+00  4.590069e-16  0.000000e+00
   outer loop
     vertex  5.967500e+00  2.967500e+00  4.675000e-01
     vertex  5.967500e+00  1.032500e+00  3.250000e-02
     vertex  5.967500e+00  2.967500e+00  3.250000e-02
   endloop
 endfacet
 facet normal  1.000000e+00  4.590069e-16  0.000000e+00
   outer loop
     vertex  5.967500e+00  2.967500e+00  4.675000e-01
     vertex  5.967500e+00  1.032500e+00  4.675000e-01
     vertex  5.967500e+00  1.032500e+00  3.250000e-02
   endloop
 endfacet
 facet normal -1.000000e+00  4.590069e-16  0.000000e+00
   outer loop
     vertex  5.032500e+00  2.967500e+00  4.675000e-01
     vertex  5.032500e+00  2.967500e+00  3.250000e-02
     vertex  5.032500e+00  1.032500e+00  3.250000e-02
   endloop
 endfacet
 facet normal -1.000000e+00  4.590069e-16  0.000000e+00
   outer loop
     vertex  5.032500e+00  2.967500e+00  4.675000e-01
     vertex  5.032500e+00  1.032500e+00  3.250000e-02
     vertex  5.032500e+00  1.032500e+00  4.675000e-01
   endloop
 endfacet
 facet normal  0.000000e+00 -0.000000e+00 -1.000000e+00
   outer loop
     vertex  5.032500e+00  2.967500e+00  3.250000e-02
     vertex  5.967500e+00  1.032500e+00  3.250000e-02
     vertex  5.032500e+00  1.032500e+00  3.250000e-02
   endloop
 endfacet
 facet normal  0.000000e+00  0.000000e+00 -1.000000e+00
   outer loop
     vertex  5.032500e+00  2.967500e+00  3.250000e-02
     vertex  5.967500e+00  2.967500e+00  3.250000e-02
     vertex  5.967500e+00  1.032500e+00  3.250000e-02
   endloop
 endfacet
 facet normal  0.000000e+00  0.000000e+00  1.000000e+00
   outer loop
     vertex  5.032500e+00  2.967500e+00  4.675000e-01
     vertex  5.032500e+00  1.032500e+00  4.675000e-01
     vertex  5.967500e+00  1.032500e+00  4.675000e-01
   endloop
 endfacet
 facet normal -0.000000e+00  0.000000e+00  1.000000e+00
   outer loop
     vertex  5.032500e+00  2.967500e+00  4.675000e-01
     vertex  5.967500e+00  1.032500e+00  4.675000e-01
     vertex  5.967500e+00  2.967500e+00  4.675000e-01
   endloop
 endfacet
 facet normal -2.374809e-16 -1.000000e+00 -0.000000e+00
   outer loop
     vertex  5.967500e+00 -9.675000e-01  4.675000e-01
     vertex  5.032500e+00 -9.675000e-01  3.250000e-02
     vertex  5.967500e+00 -9.675000e-01  3.250000e-02
   endloop
 endfacet
 facet normal -2.374809e-16 -1.000000e+00  0.000000e+00
   outer loop
     vertex  5.967500e+00 -9.675000e-01  4.675000e-01
     vertex  5.032500e+00 -9.675000e-01  4.675000e-01
     vertex  5.032500e+00 -9.675000e-01  3.250000e-02
   endloop
 endfacet
 facet normal  2.374809e-16  1.000000e+00  0.000000e+00
   outer loop
     vertex  5.967500e+00  9.675000e-01  4.675000e-01
     vertex  5.967500e+00  9.675000e-01  3.250000e-02
     vertex  5.032500e+00  9.675000e-01  3.250000e-02
   endloop
 endfacet
 facet normal  2.374809e-16  1.000000e+00  0.000000e+00
   outer loop
     vertex  5.967500e+00  9.675000e-01  4.675000e-01
     vertex  5.032500e+00  9.675000e-01  3.250000e-02
     vertex  5.032500e+00  9.675000e-01  4.675000e-01
   endloop
 endfacet
 facet normal  1.000000e+00  0.000000e+00  0.000000e+00
   outer loop
     vertex  5.967500e+00  9.675000e-01  4.675000e-01
     vertex  5.967500e+00 -9.675000e-01  3.250000e-02
     vertex  5.967500e+00  9.675000e-01  3.250000e-02
   endloop
 endfacet
 facet normal  1.000000e+00  0.000000e+00  0.000000e+00
   outer loop
     vertex  5.967500e+00  9.675000e-01  4.675000e-01
     vertex  5.967500e+00 -9.675000e-01  4.675000e-01
     vertex  5.967500e+00 -9.675000e-01  3.250000e-02
   endloop
 endfacet
 facet normal -1.000000e+00  4.590069e-16  0.000000e+00
   outer loop
     vertex  5.032500e+00  9.675000e-01  4.675000e-01
     vertex  5.032500e+00  9.675000e-01  3.250000e-02
     vertex  5.032500e+00 -9.675000e-01  3.250000e-02
   endloop
 endfacet
 facet normal -1.000000e+00  4.590069e-16  0.000000e+00
   outer loop
     vertex  5.032500e+00  9.675000e-01  4.675000e-01
     vertex  5.032500e+00 -9.675000e-01  3.250000e-02
     vertex  5.032500e+00 -9.675000e-01  4.675000e-01
   endloop
 endfacet
 facet normal  0.000000e+00 -0.000000e+00 -1.000000e+00
   outer loop
     vertex  5.032500e+00  9.675000e-01  3.250000e-02
     vertex  5.967500e+00 -9.675000e-01  3.250000e-02
     vertex  5.032500e+00 -9.675000e-01  3.250000e-02
   endloop
 endfacet
 facet normal  0.000000e+00  0.000000e+00 -1.000000e+00
   outer loop
     vertex  5.032500e+00  9.675000e-01  3.250000e-02
     vertex  5.967500e+00  9.675000e-01  3.250000e-02
     vertex  5.967500e+00 -9.675000e-01  3.250000e-02
   endloop
 endfacet
 facet normal  0.000000e+00  0.000000e+00  1.000000e+00
   outer loop
     vertex  5.032500e+00  9.675000e-01  4.675000e-01
     vertex  5.032500e+00 -9.675000e-01  4.675000e-01
     vertex  5.967500e+00 -9.675000e-01  4.675000e-01
   endloop
 endfacet
 facet normal  0.000000e+00  0.000000e+00  1.000000e+00
   outer loop
     vertex  5.032500e+00  9.675000e-01  4.675000e-01
     vertex  5.967500e+00 -9.675000e-01  4.675000e-01
     vertex  5.967500e+00  9.675000e-01  4.675000e-01
   endloop
 endfacet
 facet normal  0.000000e+00 -1.000000e+00 -0.000000e+00
   outer loop
     vertex  5.967500e+00 -2.967500e+00  4.675000e-01
     vertex  5.032500e+00 -2.967500e+00  3.250000e-02
     vertex  5.967500e+00 -2.967500e+00  3.250000e-02
   endloop
 endfacet
 facet normal -0.000000e+00 -1.000000e+00  0.000000e+00
   outer loop
     vertex  5.967500e+00 -2.967500e+00  4.675000e-01
     vertex  5.032500e+00 -2.967500e+00  4.675000e-01
     vertex  5.032500e+00 -2.967500e+00  3.250000e-02
   endloop
 endfacet
 facet normal  2.374809e-16  1.000000e+00  0.000000e+00
   outer loop
     vertex  5.967500e+00 -1.032500e+00  4.675000e-01
     vertex  5.967500e+00 -1.032500e+00  3.250000e-02
     vertex  5.032500e+00 -1.032500e+00  3.250000e-02
   endloop
 endfacet
 facet normal  2.374809e-16  1.000000e+00  0.000000e+00
   outer loop
     vertex  5.967500e+00 -1.032500e+00  4.675000e-01
     vertex  5.032500e+00 -1.032500e+00  3.250000e-02
     vertex  5.032500e+00 -1.032500e+00  4.675000e-01
   endloop
 endfacet
 facet normal  1.000000e+00  4.590069e-16  0.000000e+00
   outer loop
     vertex  5.967500e+00 -1.032500e+00  4.675000e-01
     vertex  5.967500e+00 -2.967500e+00  3.250000e-02
     vertex  5.967500e+00 -1.032500e+00  3.250000e-02
   endloop
 endfacet
 facet normal  1.000000e+00  4.590069e-16  0.000000e+00
   outer loop
     vertex  5.967500e+00 -1.032500e+00  4.675000e-01
     vertex  5.967500e+00 -2.967500e+00  4.675000e-01
     vertex  5.967500e+00 -2.967500e+00  3.250000e-02
   endloop
 endfacet
 facet normal -1.000000e+00  0.000000e+00 -0.000000e+00
   outer loop
     vertex  5.032500e+00 -1.032500e+00  4.675000e-01
     vertex  5.032500e+00 -1.032500e+00  3.250000e-02
     vertex  5.032500e+00 -2.967500e+00  3.250000e-02
   endloop
 endfacet
 facet normal -1.000000e+00 -0.000000e+00  0.000000e+00
   outer loop
     vertex  5.032500e+00 -1.032500e+00  4.675000e-01
     vertex  5.032500e+00 -2.967500e+00  3.250000e-02
     vertex  5.032500e+00 -2.967500e+00  4.675000e-01
   endloop
 endfacet
 facet normal  0.000000e+00  0.000000e+00 -1.000000e+00
   outer loop
     vertex  5.032500e+00 -1.032500e+00  3.250000e-02
     vertex  5.967500e+00 -2.967500e+00  3.250000e-02
     vertex  5.032500e+00 -2.967500e+00  3.250000e-02
   endloop
 endfacet
 facet normal  0.000000e+00  0.000000e+00 -1.000000e+00
   outer loop
     vertex  5.032500e+00 -1.032500e+00  3.250000e-02
     vertex  5.967500e+00 -1.032500e+00  3.250000e-02
     vertex  5.967500e+00 -2.967500e+00  3.250000e-02
   endloop
 endfacet
 facet normal  0.000000e+00  0.000000e+00  1.000000e+00
   outer loop
     vertex  5.032500e+00 -1.032500e+00  4.675000e-01
     vertex  5.032500e+00 -2.967500e+00  4.675000e-01
     vertex  5.967500e+00 -2.967500e+00  4.675000e-01
   endloop
 endfacet
 facet normal  0.000000e+00  0.000000e+00  1.000000e+00
   outer loop
     vertex  5.032500e+00 -1.032500e+00  4.675000e-01
     vertex  5.967500e+00 -2.967500e+00  4.675000e-01
     vertex  5.967500e+00 -1.032500e+00  4.675000e-01
   endloop
 endfacet
 facet normal -9.499234e-16 -1.000000e+00 -0.000000e+00
   outer loop
     vertex  5.967500e+00 -4.967500e+00  4.675000e-01
     vertex  5.032500e+00 -4.967500e+00  3.250000e-02
     vertex  5.967500e+00 -4.967500e+00  3.250000e-02
   endloop
 endfacet
 facet normal -9.499234e-16 -1.000000e+00  0.000000e+00
   outer loop
     vertex  5.967500e+00 -4.967500e+00  4.675000e-01
     vertex  5.032500e+00 -4.967500e+00  4.675000e-01
     vertex  5.032500e+00 -4.967500e+00  3.250000e-02
   endloop
 endfacet
 facet normal  4.749617e-16  1.000000e+00  0.000000e+00
   outer loop
     vertex  5.967500e+00 -3.032500e+00  4.675000e-01
     vertex  5.967500e+00 -3.032500e+00  3.250000e-02
     vertex  5.032500e+00 -3.032500e+00  3.250000e-02
   endloop
 endfacet
 facet normal  4.749617e-16  1.000000e+00  0.000000e+00
   outer loop
     vertex  5.967500e+00 -3.032500e+00  4.675000e-01
     vertex  5.032500e+00 -3.032500e+00  3.250000e-02
     vertex  5.032500e+00 -3.032500e+00  4.675000e-01
   endloop
 endfacet
 facet normal  1.000000e+00  0.000000e+00  0.000000e+00
   outer loop
     vertex  5.967500e+00 -3.032500e+00  4.675000e-01
     vertex  5.967500e+00 -4.967500e+00  3.250000e-02
     vertex  5.967500e+00 -3.032500e+00  3.250000e-02
   endloop
 endfacet
 facet normal  1.000000e+00  0.000000e+00  0.000000e+00
   outer loop
     vertex  5.967500e+00 -3.032500e+00  4.675000e-01
     vertex  5.967500e+00 -4.967500e+00  4.675000e-01
     vertex  5.967500e+00 -4.967500e+00  3.250000e-02
   endloop
 endfacet
 facet normal -1.000000e+00  9.180139e-16  0.000000e+00
   outer loop
     vertex  5.032500e+00 -3.032500e+00  4.675000e-01
     vertex  5.032500e+00 -3.032500e+00  3.250000e-02
     vertex  5.032500e+00 -4.967500e+00  3.250000e-02
   endloop
 endfacet
 facet normal -1.000000e+00  9.180139e-16  0.000000e+00
   outer loop
     vertex  5.032500e+00 -3.032500e+00  4.675000e-01
     vertex  5.032500e+00 -4.967500e+00  3.250000e-02
     vertex  5.032500e+00 -4.967500e+00  4.675000e-01
   endloop
 endfacet
 facet normal  0.000000e+00 -0.000000e+00 -1.000000e+00
   outer loop
     vertex  5.032500e+00 -3.032500e+00  3.250000e-02
     vertex  5.967500e+00 -4.967500e+00  3.250000e-02
     vertex  5.032500e+00 -4.967500e+00  3.250000e-02
   endloop
 endfacet
 facet normal  0.000000e+00  0.000000e+00 -1.000000e+00
   outer loop
     vertex  5.032500e+00 -3.032500e+00  3.250000e-02
     vertex  5.967500e+00 -3.032500e+00  3.250000e-02
     vertex  5.967500e+00 -4.967500e+00  3.250000e-02
   endloop
 endfacet
 facet normal  0.000000e+00  0.000000e+00  1.000000e+00
   outer loop
     vertex  5.032500e+00 -3.032500e+00  4.675000e-01
     vertex  5.032500e+00 -4.967500e+00  4.675000e-01
     vertex  5.967500e+00 -4.967500e+00  4.675000e-01
   endloop
 endfacet
 facet normal  0.000000e+00  0.000000e+00  1.000000e+00
   outer loop
     vertex  5.032500e+00 -3.032500e+00  4.675000e-01
     vertex  5.967500e+00 -4.967500e+00  4.675000e-01
     vertex  5.967500e+00 -3.032500e+00  4.675000e-01
   endloop
 endfacet
 facet normal -1.000000e+00  9.499234e-16  0.000000e+00
   outer loop
     vertex  5.032500e+00  5.032500e+00  4.675000e-01
     vertex  5.032500e+00  5.967500e+00  3.250000e-02
     vertex  5.032500e+00  5.032500e+00  3.250000e-02
   endloop
 endfacet
 facet normal -1.000000e+00  9.499234e-16  0.000000e+00
   outer loop
     vertex  5.032500e+00  5.032500e+00  4.675000e-01
     vertex  5.032500e+00  5.967500e+00  4.675000e-01
     vertex  5.032500e+00  5.967500e+00  3.250000e-02
   endloop
 endfacet
 facet normal  1.000000e+00  0.000000e+00  0.000000e+00
   outer loop
     vertex  6.967500e+00  5.032500e+00  4.675000e-01
     vertex  6.967500e+00  5.032500e+00  3.250000e-02
     vertex  6.967500e+00  5.967500e+00  3.250000e-02
   endloop
 endfacet
 facet normal  1.000000e+00 -0.000000e+00  0.000000e+00
   outer loop
     vertex  6.967500e+00  5.032500e+00  4.675000e-01
     vertex  6.967500e+00  5.967500e+00  3.250000e-02
     vertex  6.967500e+00  5.967500e+00  4.675000e-01
   endloop
 endfacet
 facet normal -4.590069e-16 -1.000000e+00 -0.000000e+00
   outer loop
     vertex  6.967500e+00  5.032500e+00  4.675000e-01
     vertex  5.032500e+00  5.032500e+00  3.250000e-02
     vertex  6.967500e+00  5.032500e+00  3.250000e-02
   endloop
 endfacet
 facet normal -4.590069e-16 -1.000000e+00  0.000000e+00
   outer loop
     vertex  6.967500e+00  5.032500e+00  4.675000e-01
     vertex  5.032500e+00  5.032500e+00  4.675000e-01
     vertex  5.032500e+00  5.032500e+00  3.250000e-02
   endloop
 endfacet
 facet normal  4.590069e-16  1.000000e+00  0.000000e+00
   outer loop
     vertex  6.967500e+00  5.967500e+00  4.675000e-01
     vertex  6.967500e+00  5.967500e+00  3.250000e-02
     vertex  5.032500e+00  5.967500e+00  3.250000e-02
   endloop
 endfacet
 facet normal  4.590069e-16  1.000000e+00  0.000000e+00
   outer loop
     vertex  6.967500e+00  5.967500e+00  4.675000e-01
     vertex  5.032500e+00  5.967500e+00  3.250000e-02
     vertex  5.032500e+00  5.967500e+00  4.675000e-01
   endloop
 endfacet
 facet normal -0.000000e+00  0.000000e+00 -1.000000e+00
   outer loop
     vertex  6.967500e+00  5.967500e+00  3.250000e-02
     vertex  5.032500e+00  5.032500e+00  3.250000e-02
     vertex  5.032500e+00  5.967500e+00  3.250000e-02
   endloop
 endfacet
 facet normal  0.000000e+00 -0.000000e+00 -1.000000e+00
   outer loop
     vertex  6.967500e+00  5.967500e+00  3.250000e-02
     vertex  6.967500e+00  5.032500e+00  3.250000e-02
     vertex  5.032500e+00  5.032500e+00  3.250000e-02
   endloop
 endfacet
 facet normal  0.000000e+00  0.000000e+00  1.000000e+00
   outer loop
     vertex  6.967500e+00  5.967500e+00  4.675000e-01
     vertex  5.032500e+00  5.967500e+00  4.675000e-01
     vertex  5.032500e+00  5.032500e+00  4.675000e-01
   endloop
 endfacet
 facet normal  0.000000e+00  0.000000e+00  1.000000e+00
   outer loop
     vertex  6.967500e+00  5.967500e+00  4.675000e-01
     vertex  5.032500e+00  5.032500e+00  4.675000e-01
     vertex  6.967500e+00  5.032500e+00  4.675000e-01
   endloop
 endfacet
 facet normal  9.499234e-16  1.000000e+00  0.000000e+00
   outer loop
     vertex  5.032500e+00  5.967500e+00  9.675000e-01
     vertex  5.967500e+00  5.967500e+00  5.325000e-01
     vertex  5.032500e+00  5.967500e+00  5.325000e-01
   endloop
 endfacet
 facet normal  9.499234e-16  1.000000e+00  0.000000e+00
   outer loop
     vertex  5.032500e+00  5.967500e+00  9.675000e-01
     vertex  5.967500e+00  5.967500e+00  9.675000e-01
     vertex  5.967500e+00  5.967500e+00  5.325000e-01
   endloop
 endfacet
 facet normal  0.000000e+00 -1.000000e+00  0.000000e+00
   outer loop
     vertex  5.032500e+00  4.032500e+00  9.675000e-01
     vertex  5.032500e+00  4.032500e+00  5.325000e-01
     vertex  5.967500e+00  4.032500e+00  5.325000e-01
   endloop
 endfacet
 facet normal  0.000000e+00 -1.000000e+00  0.000000e+00
   outer loop
     vertex  5.032500e+00  4.032500e+00  9.675000e-01
     vertex  5.967500e+00  4.032500e+00  5.325000e-01
     vertex  5.967500e+00  4.032500e+00  9.675000e-01
   endloop
 endfacet
 facet normal -1.000000e+00  4.590069e-16  0.000000e+00
   outer loop
     vertex  5.032500e+00  4.032500e+00  9.675000e-01
     vertex  5.032500e+00  5.967500e+00  5.325000e-01
     vertex  5.032500e+00  4.032500e+00  5.325000e-01
   endloop
 endfacet
 facet normal -1.000000e+00  4.590069e-16  0.000000e+00
   outer loop
     vertex  5.032500e+00  4.032500e+00  9.675000e-01
     vertex  5.032500e+00  5.967500e+00  9.675000e-01
     vertex  5.032500e+00  5.967500e+00  5.325000e-01
   endloop
 endfacet
 facet normal  1.000000e+00 -9.180139e-16  0.000000e+00
   outer loop
     vertex  5.967500e+00  4.032500e+00  9.675000e-01
     vertex  5.967500e+00  4.032500e+00  5.325000e-01
     vertex  5.967500e+00  5.967500e+00  5.325000e-01
   endloop
 endfacet
 facet normal  1.000000e+00 -9.180139e-16  0.000000e+00
   outer loop
     vertex  5.967500e+00  4.032500e+00  9.675000e-01
     vertex  5.967500e+00  5.967500e+00  5.325000e-01
     vertex  5.967500e+00  5.967500e+00  9.675000e-01
   endloop
 endfacet
 facet normal  0.000000e+00  0.000000e+00 -1.000000e+00
   outer loop
     vertex  5.967500e+00  4.032500e+00  5.325000e-01
     vertex  5.032500e+00  5.967500e+00  5.325000e-01
     vertex  5.967500e+00  5.967500e+00  5.325000e-01
   endloop
 endfacet
 facet normal  0.000000e+00  0.000000e+00 -1.000000e+00
   outer loop
     vertex  5.967500e+00  4.032500e+00  5.325000e-01
     vertex  5.032500e+00  4.032500e+00  5.325000e-01
     vertex  5.032500e+00  5.967500e+00  5.325000e-01
   endloop
 endfacet
 facet normal  0.000000e+00 -0.000000e+00  1.000000e+00
   outer loop
     vertex  5.967500e+00  4.032500e+00  9.675000e-01
     vertex  5.967500e+00  5.967500e+00  9.675000e-01
     vertex  5.032500e+00  5.967500e+00  9.675000e-01
   endloop
 endfacet
 facet normal  0.000000e+00  0.000000e+00  1.000000e+00
   outer loop
     vertex  5.967500e+00  4.032500e+00  9.675000e-01
     vertex  5.032500e+00  5.967500e+00  9.675000e-01
     vertex  5.032500e+00  4.032500e+00  9.675000e-01
   endloop
 endfacet
endsolid
