solid 
 facet normal -1.000000e+00  0.000000e+00  0.000000e+00
   outer loop
     vertex -1.475000e+00 -4.750000e-01  4.750000e-01
     vertex -1.475000e+00  4.750000e-01 -4.750000e-01
     vertex -1.475000e+00 -4.750000e-01 -4.750000e-01
   endloop
 endfacet
 facet normal -1.000000e+00  0.000000e+00  0.000000e+00
   outer loop
     vertex -1.475000e+00 -4.750000e-01  4.750000e-01
     vertex -1.475000e+00  4.750000e-01  4.750000e-01
     vertex -1.475000e+00  4.750000e-01 -4.750000e-01
   endloop
 endfacet
 facet normal  0.000000e+00 -1.000000e+00 -0.000000e+00
   outer loop
     vertex -5.250000e-01 -4.750000e-01  4.750000e-01
     vertex -1.475000e+00 -4.750000e-01 -4.750000e-01
     vertex -5.250000e-01 -4.750000e-01 -4.750000e-01
   endloop
 endfacet
 facet normal -0.000000e+00 -1.000000e+00  0.000000e+00
   outer loop
     vertex -5.250000e-01 -4.750000e-01  4.750000e-01
     vertex -1.475000e+00 -4.750000e-01  4.750000e-01
     vertex -1.475000e+00 -4.750000e-01 -4.750000e-01
   endloop
 endfacet
 facet normal  0.000000e+00  0.000000e+00  1.000000e+00
   outer loop
     vertex -5.250000e-01  4.750000e-01  4.750000e-01
     vertex -1.475000e+00  4.750000e-01  4.750000e-01
     vertex -1.475000e+00 -4.750000e-01  4.750000e-01
   endloop
 endfacet
 facet normal  0.000000e+00  0.000000e+00  1.000000e+00
   outer loop
     vertex -5.250000e-01  4.750000e-01  4.750000e-01
     vertex -1.475000e+00 -4.750000e-01  4.750000e-01
     vertex -5.250000e-01 -4.750000e-01  4.750000e-01
   endloop
 endfacet
 facet normal  0.000000e+00  1.000000e+00  0.000000e+00
   outer loop
     vertex -5.250000e-01  4.750000e-01  4.750000e-01
     vertex -5.250000e-01  4.750000e-01 -4.750000e-01
     vertex -1.475000e+00  4.750000e-01 -4.750000e-01
   endloop
 endfacet
 facet normal  0.000000e+00  1.000000e+00  0.000000e+00
   outer loop
     vertex -5.250000e-01  4.750000e-01  4.750000e-01
     vertex -1.475000e+00  4.750000e-01 -4.750000e-01
     vertex -1.475000e+00  4.750000e-01  4.750000e-01
   endloop
 endfacet
 facet normal -0.000000e+00  0.000000e+00 -1.000000e+00
   outer loop
     vertex -5.250000e-01  4.750000e-01 -4.750000e-01
     vertex -1.475000e+00 -4.750000e-01 -4.750000e-01
     vertex -1.475000e+00  4.750000e-01 -4.750000e-01
   endloop
 endfacet
 facet normal  0.000000e+00 -0.000000e+00 -1.000000e+00
   outer loop
     vertex -5.250000e-01  4.750000e-01 -4.750000e-01
     vertex -5.250000e-01 -4.750000e-01 -4.750000e-01
     vertex -1.475000e+00 -4.750000e-01 -4.750000e-01
   endloop
 endfacet
 facet normal  1.000000e+00  0.000000e+00  0.000000e+00
   outer loop
     vertex -5.250000e-01 -4.750000e-01  4.750000e-01
     vertex -5.250000e-01 -4.750000e-01 -4.750000e-01
     vertex -5.250000e-01  4.750000e-01 -4.750000e-01
   endloop
 endfacet
 facet normal  1.000000e+00 -0.000000e+00  0.000000e+00
   outer loop
     vertex -5.250000e-01 -4.750000e-01  4.750000e-01
     vertex -5.250000e-01  4.750000e-01 -4.750000e-01
     vertex -5.250000e-01  4.750000e-01  4.750000e-01
   endloop
 endfacet
 facet normal -1.000000e+00  0.000000e+00  0.000000e+00
   outer loop
     vertex -4.750000e-01 -4.750000e-01  4.750000e-01
     vertex -4.750000e-01  4.750000e-01 -4.750000e-01
     vertex -4.750000e-01 -4.750000e-01 -4.750000e-01
   endloop
 endfacet
 facet normal -1.000000e+00  0.000000e+00  0.000000e+00
   outer loop
     vertex -4.750000e-01 -4.750000e-01  4.750000e-01
     vertex -4.750000e-01  4.750000e-01  4.750000e-01
     vertex -4.750000e-01  4.750000e-01 -4.750000e-01
   endloop
 endfacet
 facet normal  0.000000e+00 -1.000000e+00 -0.000000e+00
   outer loop
     vertex  4.750000e-01 -4.750000e-01  4.750000e-01
     vertex -4.750000e-01 -4.750000e-01 -4.750000e-01
     vertex  4.750000e-01 -4.750000e-01 -4.750000e-01
   endloop
 endfacet
 facet normal -0.000000e+00 -1.000000e+00  0.000000e+00
   outer loop
     vertex  4.750000e-01 -4.750000e-01  4.750000e-01
     vertex -4.750000e-01 -4.750000e-01  4.750000e-01
     vertex -4.750000e-01 -4.750000e-01 -4.750000e-01
   endloop
 endfacet
 facet normal  0.000000e+00  0.000000e+00  1.000000e+00
   outer loop
     vertex  4.750000e-01  4.750000e-01  4.750000e-01
     vertex -4.750000e-01  4.750000e-01  4.750000e-01
     vertex -4.750000e-01 -4.750000e-01  4.750000e-01
   endloop
 endfacet
 facet normal  0.000000e+00  0.000000e+00  1.000000e+00
   outer loop
     vertex  4.750000e-01  4.750000e-01  4.750000e-01
     vertex -4.750000e-01 -4.750000e-01  4.750000e-01
     vertex  4.750000e-01 -4.750000e-01  4.750000e-01
   endloop
 endfacet
 facet normal  0.000000e+00  1.000000e+00  0.000000e+00
   outer loop
     vertex  4.750000e-01  4.750000e-01  4.750000e-01
     vertex  4.750000e-01  4.750000e-01 -4.750000e-01
     vertex -4.750000e-01  4.750000e-01 -4.750000e-01
   endloop
 endfacet
 facet normal  0.000000e+00  1.000000e+00  0.000000e+00
   outer loop
     vertex  4.750000e-01  4.750000e-01  4.750000e-01
     vertex -4.750000e-01  4.750000e-01 -4.750000e-01
     vertex -4.750000e-01  4.750000e-01  4.750000e-01
   endloop
 endfacet
 facet normal -0.000000e+00  0.000000e+00 -1.000000e+00
   outer loop
     vertex  4.750000e-01  4.750000e-01 -4.750000e-01
     vertex -4.750000e-01 -4.750000e-01 -4.750000e-01
     vertex -4.750000e-01  4.750000e-01 -4.750000e-01
   endloop
 endfacet
 facet normal  0.000000e+00 -0.000000e+00 -1.000000e+00
   outer loop
     vertex  4.750000e-01  4.750000e-01 -4.750000e-01
     vertex  4.750000e-01 -4.750000e-01 -4.750000e-01
     vertex -4.750000e-01 -4.750000e-01 -4.750000e-01
   endloop
 endfacet
 facet normal  1.000000e+00  0.000000e+00  0.000000e+00
   outer loop
     vertex  4.750000e-01 -4.750000e-01  4.750000e-01
     vertex  4.750000e-01 -4.750000e-01 -4.750000e-01
     vertex  4.750000e-01  4.750000e-01 -4.750000e-01
   endloop
 endfacet
 facet normal  1.000000e+00 -0.000000e+00  0.000000e+00
   outer loop
     vertex  4.750000e-01 -4.750000e-01  4.750000e-01
     vertex  4.750000e-01  4.750000e-01 -4.750000e-01
     vertex  4.750000e-01  4.750000e-01  4.750000e-01
   endloop
 endfacet
 facet normal -1.000000e+00  0.000000e+00  0.000000e+00
   outer loop
     vertex  5.250000e-01 -4.750000e-01  4.750000e-01
     vertex  5.250000e-01  4.750000e-01 -4.750000e-01
     vertex  5.250000e-01 -4.750000e-01 -4.750000e-01
   endloop
 endfacet
 facet normal -1.000000e+00  0.000000e+00  0.000000e+00
   outer loop
     vertex  5.250000e-01 -4.750000e-01  4.750000e-01
     vertex  5.250000e-01  4.750000e-01  4.750000e-01
     vertex  5.250000e-01  4.750000e-01 -4.750000e-01
   endloop
 endfacet
 facet normal  0.000000e+00 -1.000000e+00 -0.000000e+00
   outer loop
     vertex  1.475000e+00 -4.750000e-01  4.750000e-01
     vertex  5.250000e-01 -4.750000e-01 -4.750000e-01
     vertex  1.475000e+00 -4.750000e-01 -4.750000e-01
   endloop
 endfacet
 facet normal -0.000000e+00 -1.000000e+00  0.000000e+00
   outer loop
     vertex  1.475000e+00 -4.750000e-01  4.750000e-01
     vertex  5.250000e-01 -4.750000e-01  4.750000e-01
     vertex  5.250000e-01 -4.750000e-01 -4.750000e-01
   endloop
 endfacet
 facet normal  0.000000e+00  0.000000e+00  1.000000e+00
   outer loop
     vertex  1.475000e+00  4.750000e-01  4.750000e-01
     vertex  5.250000e-01  4.750000e-01  4.750000e-01
     vertex  5.250000e-01 -4.750000e-01  4.750000e-01
   endloop
 endfacet
 facet normal  0.000000e+00  0.000000e+00  1.000000e+00
   outer loop
     vertex  1.475000e+00  4.750000e-01  4.750000e-01
     vertex  5.250000e-01 -4.750000e-01  4.750000e-01
     vertex  1.475000e+00 -4.750000e-01  4.750000e-01
   endloop
 endfacet
 facet normal  0.000000e+00  1.000000e+00  0.000000e+00
   outer loop
     vertex  1.475000e+00  4.750000e-01  4.750000e-01
     vertex  1.475000e+00  4.750000e-01 -4.750000e-01
     vertex  5.250000e-01  4.750000e-01 -4.750000e-01
   endloop
 endfacet
 facet normal  0.000000e+00  1.000000e+00  0.000000e+00
   outer loop
     vertex  1.475000e+00  4.750000e-01  4.750000e-01
     vertex  5.250000e-01  4.750000e-01 -4.750000e-01
     vertex  5.250000e-01  4.750000e-01  4.750000e-01
   endloop
 endfacet
 facet normal -0.000000e+00  0.000000e+00 -1.000000e+00
   outer loop
     vertex  1.475000e+00  4.750000e-01 -4.750000e-01
     vertex  5.250000e-01 -4.750000e-01 -4.750000e-01
     vertex  5.250000e-01  4.750000e-01 -4.750000e-01
   endloop
 endfacet
 facet normal  0.000000e+00 -0.000000e+00 -1.000000e+00
   outer loop
     vertex  1.475000e+00  4.750000e-01 -4.750000e-01
     vertex  1.475000e+00 -4.750000e-01 -4.750000e-01
     vertex  5.250000e-01 -4.750000e-01 -4.750000e-01
   endloop
 endfacet
 facet normal  1.000000e+00  0.000000e+00  0.000000e+00
   outer loop
     vertex  1.475000e+00 -4.750000e-01  4.750000e-01
     vertex  1.475000e+00 -4.750000e-01 -4.750000e-01
     vertex  1.475000e+00  4.750000e-01 -4.750000e-01
   endloop
 endfacet
 facet normal  1.000000e+00 -0.000000e+00  0.000000e+00
   outer loop
     vertex  1.475000e+00 -4.750000e-01  4.750000e-01
     vertex  1.475000e+00  4.750000e-01 -4.750000e-01
     vertex  1.475000e+00  4.750000e-01  4.750000e-01
   endloop
 endfacet
 facet normal -1.000000e+00  0.000000e+00  0.000000e+00
   outer loop
     vertex -9.750000e-01 -4.750000e-01  1.475000e+00
     vertex -9.750000e-01  4.750000e-01  5.250000e-01
     vertex -9.750000e-01 -4.750000e-01  5.250000e-01
   endloop
 endfacet
 facet normal -1.000000e+00  0.000000e+00  0.000000e+00
   outer loop
     vertex -9.750000e-01 -4.750000e-01  1.475000e+00
     vertex -9.750000e-01  4.750000e-01  1.475000e+00
     vertex -9.750000e-01  4.750000e-01  5.250000e-01
   endloop
 endfacet
 facet normal  0.000000e+00 -1.000000e+00 -0.000000e+00
   outer loop
     vertex -2.500000e-02 -4.750000e-01  1.475000e+00
     vertex -9.750000e-01 -4.750000e-01  5.250000e-01
     vertex -2.500000e-02 -4.750000e-01  5.250000e-01
   endloop
 endfacet
 facet normal -0.000000e+00 -1.000000e+00  0.000000e+00
   outer loop
     vertex -2.500000e-02 -4.750000e-01  1.475000e+00
     vertex -9.750000e-01 -4.750000e-01  1.475000e+00
     vertex -9.750000e-01 -4.750000e-01  5.250000e-01
   endloop
 endfacet
 facet normal  0.000000e+00  0.000000e+00  1.000000e+00
   outer loop
     vertex -2.500000e-02  4.750000e-01  1.475000e+00
     vertex -9.750000e-01  4.750000e-01  1.475000e+00
     vertex -9.750000e-01 -4.750000e-01  1.475000e+00
   endloop
 endfacet
 facet normal  0.000000e+00  0.000000e+00  1.000000e+00
   outer loop
     vertex -2.500000e-02  4.750000e-01  1.475000e+00
     vertex -9.750000e-01 -4.750000e-01  1.475000e+00
     vertex -2.500000e-02 -4.750000e-01  1.475000e+00
   endloop
 endfacet
 facet normal  0.000000e+00  1.000000e+00  0.000000e+00
   outer loop
     vertex -2.500000e-02  4.750000e-01  1.475000e+00
     vertex -2.500000e-02  4.750000e-01  5.250000e-01
     vertex -9.750000e-01  4.750000e-01  5.250000e-01
   endloop
 endfacet
 facet normal  0.000000e+00  1.000000e+00  0.000000e+00
   outer loop
     vertex -2.500000e-02  4.750000e-01  1.475000e+00
     vertex -9.750000e-01  4.750000e-01  5.250000e-01
     vertex -9.750000e-01  4.750000e-01  1.475000e+00
   endloop
 endfacet
 facet normal -0.000000e+00  0.000000e+00 -1.000000e+00
   outer loop
     vertex -2.500000e-02  4.750000e-01  5.250000e-01
     vertex -9.750000e-01 -4.750000e-01  5.250000e-01
     vertex -9.750000e-01  4.750000e-01  5.250000e-01
   endloop
 endfacet
 facet normal  0.000000e+00 -0.000000e+00 -1.000000e+00
   outer loop
     vertex -2.500000e-02  4.750000e-01  5.250000e-01
     vertex -2.500000e-02 -4.750000e-01  5.250000e-01
     vertex -9.750000e-01 -4.750000e-01  5.250000e-01
   endloop
 endfacet
 facet normal  1.000000e+00  0.000000e+00  0.000000e+00
   outer loop
     vertex -2.500000e-02 -4.750000e-01  1.475000e+00
     vertex -2.500000e-02 -4.750000e-01  5.250000e-01
     vertex -2.500000e-02  4.750000e-01  5.250000e-01
   endloop
 endfacet
 facet normal  1.000000e+00 -0.000000e+00  0.000000e+00
   outer loop
     vertex -2.500000e-02 -4.750000e-01  1.475000e+00
     vertex -2.500000e-02  4.750000e-01  5.250000e-01
     vertex -2.500000e-02  4.750000e-01  1.475000e+00
   endloop
 endfacet
 facet normal -1.000000e+00  0.000000e+00  0.000000e+00
   outer loop
     vertex  2.500000e-02 -4.750000e-01  1.475000e+00
     vertex  2.500000e-02  4.750000e-01  5.250000e-01
     vertex  2.500000e-02 -4.750000e-01  5.250000e-01
   endloop
 endfacet
 facet normal -1.000000e+00  0.000000e+00  0.000000e+00
   outer loop
     vertex  2.500000e-02 -4.750000e-01  1.475000e+00
     vertex  2.500000e-02  4.750000e-01  1.475000e+00
     vertex  2.500000e-02  4.750000e-01  5.250000e-01
   endloop
 endfacet
 facet normal  0.000000e+00 -1.000000e+00 -0.000000e+00
   outer loop
     vertex  9.750000e-01 -4.750000e-01  1.475000e+00
     vertex  2.500000e-02 -4.750000e-01  5.250000e-01
     vertex  9.750000e-01 -4.750000e-01  5.250000e-01
   endloop
 endfacet
 facet normal -0.000000e+00 -1.000000e+00  0.000000e+00
   outer loop
     vertex  9.750000e-01 -4.750000e-01  1.475000e+00
     vertex  2.500000e-02 -4.750000e-01  1.475000e+00
     vertex  2.500000e-02 -4.750000e-01  5.250000e-01
   endloop
 endfacet
 facet normal  0.000000e+00  0.000000e+00  1.000000e+00
   outer loop
     vertex  9.750000e-01  4.750000e-01  1.475000e+00
     vertex  2.500000e-02  4.750000e-01  1.475000e+00
     vertex  2.500000e-02 -4.750000e-01  1.475000e+00
   endloop
 endfacet
 facet normal  0.000000e+00  0.000000e+00  1.000000e+00
   outer loop
     vertex  9.750000e-01  4.750000e-01  1.475000e+00
     vertex  2.500000e-02 -4.750000e-01  1.475000e+00
     vertex  9.750000e-01 -4.750000e-01  1.475000e+00
   endloop
 endfacet
 facet normal  0.000000e+00  1.000000e+00  0.000000e+00
   outer loop
     vertex  9.750000e-01  4.750000e-01  1.475000e+00
     vertex  9.750000e-01  4.750000e-01  5.250000e-01
     vertex  2.500000e-02  4.750000e-01  5.250000e-01
   endloop
 endfacet
 facet normal  0.000000e+00  1.000000e+00  0.000000e+00
   outer loop
     vertex  9.750000e-01  4.750000e-01  1.475000e+00
     vertex  2.500000e-02  4.750000e-01  5.250000e-01
     vertex  2.500000e-02  4.750000e-01  1.475000e+00
   endloop
 endfacet
 facet normal -0.000000e+00  0.000000e+00 -1.000000e+00
   outer loop
     vertex  9.750000e-01  4.750000e-01  5.250000e-01
     vertex  2.500000e-02 -4.750000e-01  5.250000e-01
     vertex  2.500000e-02  4.750000e-01  5.250000e-01
   endloop
 endfacet
 facet normal  0.000000e+00 -0.000000e+00 -1.000000e+00
   outer loop
     vertex  9.750000e-01  4.750000e-01  5.250000e-01
     vertex  9.750000e-01 -4.750000e-01  5.250000e-01
     vertex  2.500000e-02 -4.750000e-01  5.250000e-01
   endloop
 endfacet
 facet normal  1.000000e+00  0.000000e+00  0.000000e+00
   outer loop
     vertex  9.750000e-01 -4.750000e-01  1.475000e+00
     vertex  9.750000e-01 -4.750000e-01  5.250000e-01
     vertex  9.750000e-01  4.750000e-01  5.250000e-01
   endloop
 endfacet
 facet normal  1.000000e+00 -0.000000e+00  0.000000e+00
   outer loop
     vertex  9.750000e-01 -4.750000e-01  1.475000e+00
     vertex  9.750000e-01  4.750000e-01  5.250000e-01
     vertex  9.750000e-01  4.750000e-01  1.475000e+00
   endloop
 endfacet
 facet normal -1.000000e+00  0.000000e+00  0.000000e+00
   outer loop
     vertex -4.750000e-01 -4.750000e-01  2.475000e+00
     vertex -4.750000e-01  4.750000e-01  1.525000e+00
     vertex -4.750000e-01 -4.750000e-01  1.525000e+00
   endloop
 endfacet
 facet normal -1.000000e+00  0.000000e+00  0.000000e+00
   outer loop
     vertex -4.750000e-01 -4.750000e-01  2.475000e+00
     vertex -4.750000e-01  4.750000e-01  2.475000e+00
     vertex -4.750000e-01  4.750000e-01  1.525000e+00
   endloop
 endfacet
 facet normal  0.000000e+00 -1.000000e+00 -0.000000e+00
   outer loop
     vertex  4.750000e-01 -4.750000e-01  2.475000e+00
     vertex -4.750000e-01 -4.750000e-01  1.525000e+00
     vertex  4.750000e-01 -4.750000e-01  1.525000e+00
   endloop
 endfacet
 facet normal -0.000000e+00 -1.000000e+00  0.000000e+00
   outer loop
     vertex  4.750000e-01 -4.750000e-01  2.475000e+00
     vertex -4.750000e-01 -4.750000e-01  2.475000e+00
     vertex -4.750000e-01 -4.750000e-01  1.525000e+00
   endloop
 endfacet
 facet normal  0.000000e+00  0.000000e+00  1.000000e+00
   outer loop
     vertex  4.750000e-01  4.750000e-01  2.475000e+00
     vertex -4.750000e-01  4.750000e-01  2.475000e+00
     vertex -4.750000e-01 -4.750000e-01  2.475000e+00
   endloop
 endfacet
 facet normal  0.000000e+00  0.000000e+00  1.000000e+00
   outer loop
     vertex  4.750000e-01  4.750000e-01  2.475000e+00
     vertex -4.750000e-01 -4.750000e-01  2.475000e+00
     vertex  4.750000e-01 -4.750000e-01  2.475000e+00
   endloop
 endfacet
 facet normal  0.000000e+00  1.000000e+00  0.000000e+00
   outer loop
     vertex  4.750000e-01  4.750000e-01  2.475000e+00
     vertex  4.750000e-01  4.750000e-01  1.525000e+00
     vertex -4.750000e-01  4.750000e-01  1.525000e+00
   endloop
 endfacet
 facet normal  0.000000e+00  1.000000e+00  0.000000e+00
   outer loop
     vertex  4.750000e-01  4.750000e-01  2.475000e+00
     vertex -4.750000e-01  4.750000e-01  1.525000e+00
     vertex -4.750000e-01  4.750000e-01  2.475000e+00
   endloop
 endfacet
 facet normal -0.000000e+00  0.000000e+00 -1.000000e+00
   outer loop
     vertex  4.750000e-01  4.750000e-01  1.525000e+00
     vertex -4.750000e-01 -4.750000e-01  1.525000e+00
     vertex -4.750000e-01  4.750000e-01  1.525000e+00
   endloop
 endfacet
 facet normal  0.000000e+00 -0.000000e+00 -1.000000e+00
   outer loop
     vertex  4.750000e-01  4.750000e-01  1.525000e+00
     vertex  4.750000e-01 -4.750000e-01  1.525000e+00
     vertex -4.750000e-01 -4.750000e-01  1.525000e+00
   endloop
 endfacet
 facet normal  1.000000e+00  0.000000e+00  0.000000e+00
   outer loop
     vertex  4.750000e-01 -4.750000e-01  2.475000e+00
     vertex  4.750000e-01 -4.750000e-01  1.525000e+00
     vertex  4.750000e-01  4.750000e-01  1.525000e+00
   endloop
 endfacet
 facet normal  1.000000e+00 -0.000000e+00  0.000000e+00
   outer loop
     vertex  4.750000e-01 -4.750000e-01  2.475000e+00
     vertex  4.750000e-01  4.750000e-01  1.525000e+00
     vertex  4.750000e-01  4.750000e-01  2.475000e+00
   endloop
 endfacet
endsolid
