solid 
 facet normal  1.000000e+00  0.000000e+00  0.000000e+00
   outer loop
     vertex  9.675000e-01  4.675000e-01  9.675000e-01
     vertex  9.675000e-01 -4.675000e-01  5.325000e-01
     vertex  9.675000e-01  4.675000e-01  5.325000e-01
   endloop
 endfacet
 facet normal  1.000000e+00  0.000000e+00  0.000000e+00
   outer loop
     vertex  9.675000e-01  4.675000e-01  9.675000e-01
     vertex  9.675000e-01 -4.675000e-01  9.675000e-01
     vertex  9.675000e-01 -4.675000e-01  5.325000e-01
   endloop
 endfacet
 facet normal  0.000000e+00  1.000000e+00  0.000000e+00
   outer loop
     vertex -9.675000e-01  4.675000e-01  9.675000e-01
     vertex  9.675000e-01  4.675000e-01  5.325000e-01
     vertex -9.675000e-01  4.675000e-01  5.325000e-01
   endloop
 endfacet
 facet normal -0.000000e+00  1.000000e+00  0.000000e+00
   outer loop
     vertex -9.675000e-01  4.675000e-01  9.675000e-01
     vertex  9.675000e-01  4.675000e-01  9.675000e-01
     vertex  9.675000e-01  4.675000e-01  5.325000e-01
   endloop
 endfacet
 facet normal  0.000000e+00  0.000000e+00  1.000000e+00
   outer loop
     vertex -9.675000e-01 -4.675000e-01  9.675000e-01
     vertex  9.675000e-01 -4.675000e-01  9.675000e-01
     vertex  9.675000e-01  4.675000e-01  9.675000e-01
   endloop
 endfacet
 facet normal  0.000000e+00  0.000000e+00  1.000000e+00
   outer loop
     vertex -9.675000e-01 -4.675000e-01  9.675000e-01
     vertex  9.675000e-01  4.675000e-01  9.675000e-01
     vertex -9.675000e-01  4.675000e-01  9.675000e-01
   endloop
 endfacet
 facet normal  0.000000e+00 -1.000000e+00  0.000000e+00
   outer loop
     vertex -9.675000e-01 -4.675000e-01  9.675000e-01
     vertex -9.675000e-01 -4.675000e-01  5.325000e-01
     vertex  9.675000e-01 -4.675000e-01  5.325000e-01
   endloop
 endfacet
 facet normal  0.000000e+00 -1.000000e+00  0.000000e+00
   outer loop
     vertex -9.675000e-01 -4.675000e-01  9.675000e-01
     vertex  9.675000e-01 -4.675000e-01  5.325000e-01
     vertex  9.675000e-01 -4.675000e-01  9.675000e-01
   endloop
 endfacet
 facet normal  0.000000e+00  0.000000e+00 -1.000000e+00
   outer loop
     vertex -9.675000e-01 -4.675000e-01  5.325000e-01
     vertex  9.675000e-01  4.675000e-01  5.325000e-01
     vertex  9.675000e-01 -4.675000e-01  5.325000e-01
   endloop
 endfacet
 facet normal  0.000000e+00  0.000000e+00 -1.000000e+00
   outer loop
     vertex -9.675000e-01 -4.675000e-01  5.325000e-01
     vertex -9.675000e-01  4.675000e-01  5.325000e-01
     vertex  9.675000e-01  4.675000e-01  5.325000e-01
   endloop
 endfacet
 facet normal -1.000000e+00  0.000000e+00 -0.000000e+00
   outer loop
     vertex -9.675000e-01  4.675000e-01  9.675000e-01
     vertex -9.675000e-01  4.675000e-01  5.325000e-01
     vertex -9.675000e-01 -4.675000e-01  5.325000e-01
   endloop
 endfacet
 facet normal -1.000000e+00 -0.000000e+00  0.000000e+00
   outer loop
     vertex -9.675000e-01  4.675000e-01  9.675000e-01
     vertex -9.675000e-01 -4.675000e-01  5.325000e-01
     vertex -9.675000e-01 -4.675000e-01  9.675000e-01
   endloop
 endfacet
 facet normal  0.000000e+00 -1.000000e+00 -0.000000e+00
   outer loop
     vertex  9.675000e-01 -4.675000e-01  1.467500e+00
     vertex  3.250000e-02 -4.675000e-01  1.032500e+00
     vertex  9.675000e-01 -4.675000e-01  1.032500e+00
   endloop
 endfacet
 facet normal -0.000000e+00 -1.000000e+00  0.000000e+00
   outer loop
     vertex  9.675000e-01 -4.675000e-01  1.467500e+00
     vertex  3.250000e-02 -4.675000e-01  1.467500e+00
     vertex  3.250000e-02 -4.675000e-01  1.032500e+00
   endloop
 endfacet
 facet normal  0.000000e+00  1.000000e+00  0.000000e+00
   outer loop
     vertex  9.675000e-01  1.467500e+00  1.467500e+00
     vertex  9.675000e-01  1.467500e+00  1.032500e+00
     vertex  3.250000e-02  1.467500e+00  1.032500e+00
   endloop
 endfacet
 facet normal  0.000000e+00  1.000000e+00  0.000000e+00
   outer loop
     vertex  9.675000e-01  1.467500e+00  1.467500e+00
     vertex  3.250000e-02  1.467500e+00  1.032500e+00
     vertex  3.250000e-02  1.467500e+00  1.467500e+00
   endloop
 endfacet
 facet normal  1.000000e+00  0.000000e+00  0.000000e+00
   outer loop
     vertex  9.675000e-01  1.467500e+00  1.467500e+00
     vertex  9.675000e-01 -4.675000e-01  1.032500e+00
     vertex  9.675000e-01  1.467500e+00  1.032500e+00
   endloop
 endfacet
 facet normal  1.000000e+00  0.000000e+00  0.000000e+00
   outer loop
     vertex  9.675000e-01  1.467500e+00  1.467500e+00
     vertex  9.675000e-01 -4.675000e-01  1.467500e+00
     vertex  9.675000e-01 -4.675000e-01  1.032500e+00
   endloop
 endfacet
 facet normal -1.000000e+00  0.000000e+00 -0.000000e+00
   outer loop
     vertex  3.250000e-02  1.467500e+00  1.467500e+00
     vertex  3.250000e-02  1.467500e+00  1.032500e+00
     vertex  3.250000e-02 -4.675000e-01  1.032500e+00
   endloop
 endfacet
 facet normal -1.000000e+00 -0.000000e+00  0.000000e+00
   outer loop
     vertex  3.250000e-02  1.467500e+00  1.467500e+00
     vertex  3.250000e-02 -4.675000e-01  1.032500e+00
     vertex  3.250000e-02 -4.675000e-01  1.467500e+00
   endloop
 endfacet
 facet normal  0.000000e+00  0.000000e+00 -1.000000e+00
   outer loop
     vertex  3.250000e-02  1.467500e+00  1.032500e+00
     vertex  9.675000e-01 -4.675000e-01  1.032500e+00
     vertex  3.250000e-02 -4.675000e-01  1.032500e+00
   endloop
 endfacet
 facet normal  0.000000e+00  0.000000e+00 -1.000000e+00
   outer loop
     vertex  3.250000e-02  1.467500e+00  1.032500e+00
     vertex  9.675000e-01  1.467500e+00  1.032500e+00
     vertex  9.675000e-01 -4.675000e-01  1.032500e+00
   endloop
 endfacet
 facet normal  0.000000e+00  0.000000e+00  1.000000e+00
   outer loop
     vertex  3.250000e-02  1.467500e+00  1.467500e+00
     vertex  3.250000e-02 -4.675000e-01  1.467500e+00
     vertex  9.675000e-01 -4.675000e-01  1.467500e+00
   endloop
 endfacet
 facet normal -0.000000e+00  0.000000e+00  1.000000e+00
   outer loop
     vertex  3.250000e-02  1.467500e+00  1.467500e+00
     vertex  9.675000e-01 -4.675000e-01  1.467500e+00
     vertex  9.675000e-01  1.467500e+00  1.467500e+00
   endloop
 endfacet
endsolid
