solid 
 facet normal  1.000000e+00  0.000000e+00  0.000000e+00
   outer loop
     vertex -3.250000e-02  2.967500e+00  4.675000e-01
     vertex -3.250000e-02  2.032500e+00  3.250000e-02
     vertex -3.250000e-02  2.967500e+00  3.250000e-02
   endloop
 endfacet
 facet normal  1.000000e+00  0.000000e+00  0.000000e+00
   outer loop
     vertex -3.250000e-02  2.967500e+00  4.675000e-01
     vertex -3.250000e-02  2.032500e+00  4.675000e-01
     vertex -3.250000e-02  2.032500e+00  3.250000e-02
   endloop
 endfacet
 facet normal -1.000000e+00  0.000000e+00 -0.000000e+00
   outer loop
     vertex -1.967500e+00  2.967500e+00  4.675000e-01
     vertex -1.967500e+00  2.967500e+00  3.250000e-02
     vertex -1.967500e+00  2.032500e+00  3.250000e-02
   endloop
 endfacet
 facet normal -1.000000e+00 -0.000000e+00  0.000000e+00
   outer loop
     vertex -1.967500e+00  2.967500e+00  4.675000e-01
     vertex -1.967500e+00  2.032500e+00  3.250000e-02
     vertex -1.967500e+00  2.032500e+00  4.675000e-01
   endloop
 endfacet
 facet normal  0.000000e+00  1.000000e+00  0.000000e+00
   outer loop
     vertex -1.967500e+00  2.967500e+00  4.675000e-01
     vertex -3.250000e-02  2.967500e+00  3.250000e-02
     vertex -1.967500e+00  2.967500e+00  3.250000e-02
   endloop
 endfacet
 facet normal -0.000000e+00  1.000000e+00  0.000000e+00
   outer loop
     vertex -1.967500e+00  2.967500e+00  4.675000e-01
     vertex -3.250000e-02  2.967500e+00  4.675000e-01
     vertex -3.250000e-02  2.967500e+00  3.250000e-02
   endloop
 endfacet
 facet normal  0.000000e+00 -1.000000e+00  0.000000e+00
   outer loop
     vertex -1.967500e+00  2.032500e+00  4.675000e-01
     vertex -1.967500e+00  2.032500e+00  3.250000e-02
     vertex -3.250000e-02  2.032500e+00  3.250000e-02
   endloop
 endfacet
 facet normal  0.000000e+00 -1.000000e+00  0.000000e+00
   outer loop
     vertex -1.967500e+00  2.032500e+00  4.675000e-01
     vertex -3.250000e-02  2.032500e+00  3.250000e-02
     vertex -3.250000e-02  2.032500e+00  4.675000e-01
   endloop
 endfacet
 facet normal  0.000000e+00  0.000000e+00 -1.000000e+00
   outer loop
     vertex -1.967500e+00  2.032500e+00  3.250000e-02
     vertex -3.250000e-02  2.967500e+00  3.250000e-02
     vertex -3.250000e-02  2.032500e+00  3.250000e-02
   endloop
 endfacet
 facet normal  0.000000e+00  0.000000e+00 -1.000000e+00
   outer loop
     vertex -1.967500e+00  2.032500e+00  3.250000e-02
     vertex -1.967500e+00  2.967500e+00  3.250000e-02
     vertex -3.250000e-02  2.967500e+00  3.250000e-02
   endloop
 endfacet
 facet normal  0.000000e+00  0.000000e+00  1.000000e+00
   outer loop
     vertex -1.967500e+00  2.032500e+00  4.675000e-01
     vertex -3.250000e-02  2.032500e+00  4.675000e-01
     vertex -3.250000e-02  2.967500e+00  4.675000e-01
   endloop
 endfacet
 facet normal  0.000000e+00  0.000000e+00  1.000000e+00
   outer loop
     vertex -1.967500e+00  2.032500e+00  4.675000e-01
     vertex -3.250000e-02  2.967500e+00  4.675000e-01
     vertex -1.967500e+00  2.967500e+00  4.675000e-01
   endloop
 endfacet
 facet normal  0.000000e+00 -1.000000e+00  0.000000e+00
   outer loop
     vertex  2.467500e+00 -1.696750e+01 -4.675000e-01
     vertex  2.032500e+00 -1.696750e+01  4.675000e-01
     vertex  2.032500e+00 -1.696750e+01 -4.675000e-01
   endloop
 endfacet
 facet normal  0.000000e+00 -1.000000e+00  0.000000e+00
   outer loop
     vertex  2.467500e+00 -1.696750e+01 -4.675000e-01
     vertex  2.467500e+00 -1.696750e+01  4.675000e-01
     vertex  2.032500e+00 -1.696750e+01  4.675000e-01
   endloop
 endfacet
 facet normal -0.000000e+00  0.000000e+00 -1.000000e+00
   outer loop
     vertex  2.467500e+00 -1.503250e+01 -4.675000e-01
     vertex  2.032500e+00 -1.696750e+01 -4.675000e-01
     vertex  2.032500e+00 -1.503250e+01 -4.675000e-01
   endloop
 endfacet
 facet normal  0.000000e+00 -0.000000e+00 -1.000000e+00
   outer loop
     vertex  2.467500e+00 -1.503250e+01 -4.675000e-01
     vertex  2.467500e+00 -1.696750e+01 -4.675000e-01
     vertex  2.032500e+00 -1.696750e+01 -4.675000e-01
   endloop
 endfacet
 facet normal  1.000000e+00  0.000000e+00  0.000000e+00
   outer loop
     vertex  2.467500e+00 -1.503250e+01  4.675000e-01
     vertex  2.467500e+00 -1.696750e+01  4.675000e-01
     vertex  2.467500e+00 -1.696750e+01 -4.675000e-01
   endloop
 endfacet
 facet normal  1.000000e+00  0.000000e+00  0.000000e+00
   outer loop
     vertex  2.467500e+00 -1.503250e+01  4.675000e-01
     vertex  2.467500e+00 -1.696750e+01 -4.675000e-01
     vertex  2.467500e+00 -1.503250e+01 -4.675000e-01
   endloop
 endfacet
 facet normal  0.000000e+00  0.000000e+00  1.000000e+00
   outer loop
     vertex  2.467500e+00 -1.503250e+01  4.675000e-01
     vertex  2.032500e+00 -1.503250e+01  4.675000e-01
     vertex  2.032500e+00 -1.696750e+01  4.675000e-01
   endloop
 endfacet
 facet normal  0.000000e+00  0.000000e+00  1.000000e+00
   outer loop
     vertex  2.467500e+00 -1.503250e+01  4.675000e-01
     vertex  2.032500e+00 -1.696750e+01  4.675000e-01
     vertex  2.467500e+00 -1.696750e+01  4.675000e-01
   endloop
 endfacet
 facet normal -1.000000e+00 -0.000000e+00  0.000000e+00
   outer loop
     vertex  2.032500e+00 -1.503250e+01  4.675000e-01
     vertex  2.032500e+00 -1.696750e+01 -4.675000e-01
     vertex  2.032500e+00 -1.696750e+01  4.675000e-01
   endloop
 endfacet
 facet normal -1.000000e+00  0.000000e+00 -0.000000e+00
   outer loop
     vertex  2.032500e+00 -1.503250e+01  4.675000e-01
     vertex  2.032500e+00 -1.503250e+01 -4.675000e-01
     vertex  2.032500e+00 -1.696750e+01 -4.675000e-01
   endloop
 endfacet
 facet normal  0.000000e+00  1.000000e+00  0.000000e+00
   outer loop
     vertex  2.467500e+00 -1.503250e+01 -4.675000e-01
     vertex  2.032500e+00 -1.503250e+01 -4.675000e-01
     vertex  2.032500e+00 -1.503250e+01  4.675000e-01
   endloop
 endfacet
 facet normal  0.000000e+00  1.000000e+00 -0.000000e+00
   outer loop
     vertex  2.467500e+00 -1.503250e+01 -4.675000e-01
     vertex  2.032500e+00 -1.503250e+01  4.675000e-01
     vertex  2.467500e+00 -1.503250e+01  4.675000e-01
   endloop
 endfacet
 facet normal  0.000000e+00  0.000000e+00  1.000000e+00
   outer loop
     vertex  1.967500e+00 -1.696750e+01  4.675000e-01
     vertex  1.532500e+00 -1.603250e+01  4.675000e-01
     vertex  1.532500e+00 -1.696750e+01  4.675000e-01
   endloop
 endfacet
 facet normal  0.000000e+00 -0.000000e+00  1.000000e+00
   outer loop
     vertex  1.967500e+00 -1.696750e+01  4.675000e-01
     vertex  1.967500e+00 -1.603250e+01  4.675000e-01
     vertex  1.532500e+00 -1.603250e+01  4.675000e-01
   endloop
 endfacet
 facet normal  0.000000e+00 -1.000000e+00  0.000000e+00
   outer loop
     vertex  1.967500e+00 -1.696750e+01 -1.467500e+00
     vertex  1.532500e+00 -1.696750e+01  4.675000e-01
     vertex  1.532500e+00 -1.696750e+01 -1.467500e+00
   endloop
 endfacet
 facet normal  0.000000e+00 -1.000000e+00  0.000000e+00
   outer loop
     vertex  1.967500e+00 -1.696750e+01 -1.467500e+00
     vertex  1.967500e+00 -1.696750e+01  4.675000e-01
     vertex  1.532500e+00 -1.696750e+01  4.675000e-01
   endloop
 endfacet
 facet normal  1.000000e+00  0.000000e+00 -0.000000e+00
   outer loop
     vertex  1.967500e+00 -1.603250e+01 -1.467500e+00
     vertex  1.967500e+00 -1.603250e+01  4.675000e-01
     vertex  1.967500e+00 -1.696750e+01  4.675000e-01
   endloop
 endfacet
 facet normal  1.000000e+00  0.000000e+00  0.000000e+00
   outer loop
     vertex  1.967500e+00 -1.603250e+01 -1.467500e+00
     vertex  1.967500e+00 -1.696750e+01  4.675000e-01
     vertex  1.967500e+00 -1.696750e+01 -1.467500e+00
   endloop
 endfacet
 facet normal  0.000000e+00  1.000000e+00  0.000000e+00
   outer loop
     vertex  1.967500e+00 -1.603250e+01 -1.467500e+00
     vertex  1.532500e+00 -1.603250e+01 -1.467500e+00
     vertex  1.532500e+00 -1.603250e+01  4.675000e-01
   endloop
 endfacet
 facet normal  0.000000e+00  1.000000e+00 -0.000000e+00
   outer loop
     vertex  1.967500e+00 -1.603250e+01 -1.467500e+00
     vertex  1.532500e+00 -1.603250e+01  4.675000e-01
     vertex  1.967500e+00 -1.603250e+01  4.675000e-01
   endloop
 endfacet
 facet normal -1.000000e+00  0.000000e+00  0.000000e+00
   outer loop
     vertex  1.532500e+00 -1.603250e+01 -1.467500e+00
     vertex  1.532500e+00 -1.696750e+01  4.675000e-01
     vertex  1.532500e+00 -1.603250e+01  4.675000e-01
   endloop
 endfacet
 facet normal -1.000000e+00  0.000000e+00  0.000000e+00
   outer loop
     vertex  1.532500e+00 -1.603250e+01 -1.467500e+00
     vertex  1.532500e+00 -1.696750e+01 -1.467500e+00
     vertex  1.532500e+00 -1.696750e+01  4.675000e-01
   endloop
 endfacet
 facet normal  0.000000e+00  0.000000e+00 -1.000000e+00
   outer loop
     vertex  1.967500e+00 -1.696750e+01 -1.467500e+00
     vertex  1.532500e+00 -1.696750e+01 -1.467500e+00
     vertex  1.532500e+00 -1.603250e+01 -1.467500e+00
   endloop
 endfacet
 facet normal  0.000000e+00  0.000000e+00 -1.000000e+00
   outer loop
     vertex  1.967500e+00 -1.696750e+01 -1.467500e+00
     vertex  1.532500e+00 -1.603250e+01 -1.467500e+00
     vertex  1.967500e+00 -1.603250e+01 -1.467500e+00
   endloop
 endfacet
 facet normal  0.000000e+00 -1.000000e+00  0.000000e+00
   outer loop
     vertex  1.467500e+00 -1.696750e+01 -4.675000e-01
     vertex  1.032500e+00 -1.696750e+01  4.675000e-01
     vertex  1.032500e+00 -1.696750e+01 -4.675000e-01
   endloop
 endfacet
 facet normal  0.000000e+00 -1.000000e+00  0.000000e+00
   outer loop
     vertex  1.467500e+00 -1.696750e+01 -4.675000e-01
     vertex  1.467500e+00 -1.696750e+01  4.675000e-01
     vertex  1.032500e+00 -1.696750e+01  4.675000e-01
   endloop
 endfacet
 facet normal -0.000000e+00  0.000000e+00 -1.000000e+00
   outer loop
     vertex  1.467500e+00 -1.503250e+01 -4.675000e-01
     vertex  1.032500e+00 -1.696750e+01 -4.675000e-01
     vertex  1.032500e+00 -1.503250e+01 -4.675000e-01
   endloop
 endfacet
 facet normal  0.000000e+00 -0.000000e+00 -1.000000e+00
   outer loop
     vertex  1.467500e+00 -1.503250e+01 -4.675000e-01
     vertex  1.467500e+00 -1.696750e+01 -4.675000e-01
     vertex  1.032500e+00 -1.696750e+01 -4.675000e-01
   endloop
 endfacet
 facet normal  1.000000e+00  0.000000e+00  0.000000e+00
   outer loop
     vertex  1.467500e+00 -1.503250e+01  4.675000e-01
     vertex  1.467500e+00 -1.696750e+01  4.675000e-01
     vertex  1.467500e+00 -1.696750e+01 -4.675000e-01
   endloop
 endfacet
 facet normal  1.000000e+00  0.000000e+00  0.000000e+00
   outer loop
     vertex  1.467500e+00 -1.503250e+01  4.675000e-01
     vertex  1.467500e+00 -1.696750e+01 -4.675000e-01
     vertex  1.467500e+00 -1.503250e+01 -4.675000e-01
   endloop
 endfacet
 facet normal  0.000000e+00  0.000000e+00  1.000000e+00
   outer loop
     vertex  1.467500e+00 -1.503250e+01  4.675000e-01
     vertex  1.032500e+00 -1.503250e+01  4.675000e-01
     vertex  1.032500e+00 -1.696750e+01  4.675000e-01
   endloop
 endfacet
 facet normal  0.000000e+00  0.000000e+00  1.000000e+00
   outer loop
     vertex  1.467500e+00 -1.503250e+01  4.675000e-01
     vertex  1.032500e+00 -1.696750e+01  4.675000e-01
     vertex  1.467500e+00 -1.696750e+01  4.675000e-01
   endloop
 endfacet
 facet normal -1.000000e+00 -0.000000e+00  0.000000e+00
   outer loop
     vertex  1.032500e+00 -1.503250e+01  4.675000e-01
     vertex  1.032500e+00 -1.696750e+01 -4.675000e-01
     vertex  1.032500e+00 -1.696750e+01  4.675000e-01
   endloop
 endfacet
 facet normal -1.000000e+00  0.000000e+00 -0.000000e+00
   outer loop
     vertex  1.032500e+00 -1.503250e+01  4.675000e-01
     vertex  1.032500e+00 -1.503250e+01 -4.675000e-01
     vertex  1.032500e+00 -1.696750e+01 -4.675000e-01
   endloop
 endfacet
 facet normal  0.000000e+00  1.000000e+00  0.000000e+00
   outer loop
     vertex  1.467500e+00 -1.503250e+01 -4.675000e-01
     vertex  1.032500e+00 -1.503250e+01 -4.675000e-01
     vertex  1.032500e+00 -1.503250e+01  4.675000e-01
   endloop
 endfacet
 facet normal  0.000000e+00  1.000000e+00 -0.000000e+00
   outer loop
     vertex  1.467500e+00 -1.503250e+01 -4.675000e-01
     vertex  1.032500e+00 -1.503250e+01  4.675000e-01
     vertex  1.467500e+00 -1.503250e+01  4.675000e-01
   endloop
 endfacet
 facet normal  0.000000e+00  0.000000e+00  1.000000e+00
   outer loop
     vertex  9.675000e-01 -1.696750e+01  4.675000e-01
     vertex  5.325000e-01 -1.603250e+01  4.675000e-01
     vertex  5.325000e-01 -1.696750e+01  4.675000e-01
   endloop
 endfacet
 facet normal  0.000000e+00 -0.000000e+00  1.000000e+00
   outer loop
     vertex  9.675000e-01 -1.696750e+01  4.675000e-01
     vertex  9.675000e-01 -1.603250e+01  4.675000e-01
     vertex  5.325000e-01 -1.603250e+01  4.675000e-01
   endloop
 endfacet
 facet normal  0.000000e+00 -1.000000e+00  0.000000e+00
   outer loop
     vertex  9.675000e-01 -1.696750e+01 -1.467500e+00
     vertex  5.325000e-01 -1.696750e+01  4.675000e-01
     vertex  5.325000e-01 -1.696750e+01 -1.467500e+00
   endloop
 endfacet
 facet normal  0.000000e+00 -1.000000e+00  0.000000e+00
   outer loop
     vertex  9.675000e-01 -1.696750e+01 -1.467500e+00
     vertex  9.675000e-01 -1.696750e+01  4.675000e-01
     vertex  5.325000e-01 -1.696750e+01  4.675000e-01
   endloop
 endfacet
 facet normal  1.000000e+00  0.000000e+00 -0.000000e+00
   outer loop
     vertex  9.675000e-01 -1.603250e+01 -1.467500e+00
     vertex  9.675000e-01 -1.603250e+01  4.675000e-01
     vertex  9.675000e-01 -1.696750e+01  4.675000e-01
   endloop
 endfacet
 facet normal  1.000000e+00  0.000000e+00  0.000000e+00
   outer loop
     vertex  9.675000e-01 -1.603250e+01 -1.467500e+00
     vertex  9.675000e-01 -1.696750e+01  4.675000e-01
     vertex  9.675000e-01 -1.696750e+01 -1.467500e+00
   endloop
 endfacet
 facet normal  0.000000e+00  1.000000e+00  0.000000e+00
   outer loop
     vertex  9.675000e-01 -1.603250e+01 -1.467500e+00
     vertex  5.325000e-01 -1.603250e+01 -1.467500e+00
     vertex  5.325000e-01 -1.603250e+01  4.675000e-01
   endloop
 endfacet
 facet normal  0.000000e+00  1.000000e+00 -0.000000e+00
   outer loop
     vertex  9.675000e-01 -1.603250e+01 -1.467500e+00
     vertex  5.325000e-01 -1.603250e+01  4.675000e-01
     vertex  9.675000e-01 -1.603250e+01  4.675000e-01
   endloop
 endfacet
 facet normal -1.000000e+00  0.000000e+00  0.000000e+00
   outer loop
     vertex  5.325000e-01 -1.603250e+01 -1.467500e+00
     vertex  5.325000e-01 -1.696750e+01  4.675000e-01
     vertex  5.325000e-01 -1.603250e+01  4.675000e-01
   endloop
 endfacet
 facet normal -1.000000e+00  0.000000e+00  0.000000e+00
   outer loop
     vertex  5.325000e-01 -1.603250e+01 -1.467500e+00
     vertex  5.325000e-01 -1.696750e+01 -1.467500e+00
     vertex  5.325000e-01 -1.696750e+01  4.675000e-01
   endloop
 endfacet
 facet normal  0.000000e+00  0.000000e+00 -1.000000e+00
   outer loop
     vertex  9.675000e-01 -1.696750e+01 -1.467500e+00
     vertex  5.325000e-01 -1.696750e+01 -1.467500e+00
     vertex  5.325000e-01 -1.603250e+01 -1.467500e+00
   endloop
 endfacet
 facet normal  0.000000e+00  0.000000e+00 -1.000000e+00
   outer loop
     vertex  9.675000e-01 -1.696750e+01 -1.467500e+00
     vertex  5.325000e-01 -1.603250e+01 -1.467500e+00
     vertex  9.675000e-01 -1.603250e+01 -1.467500e+00
   endloop
 endfacet
 facet normal  0.000000e+00 -1.000000e+00  0.000000e+00
   outer loop
     vertex  4.675000e-01 -1.696750e+01 -4.675000e-01
     vertex  3.250000e-02 -1.696750e+01  4.675000e-01
     vertex  3.250000e-02 -1.696750e+01 -4.675000e-01
   endloop
 endfacet
 facet normal  0.000000e+00 -1.000000e+00  0.000000e+00
   outer loop
     vertex  4.675000e-01 -1.696750e+01 -4.675000e-01
     vertex  4.675000e-01 -1.696750e+01  4.675000e-01
     vertex  3.250000e-02 -1.696750e+01  4.675000e-01
   endloop
 endfacet
 facet normal -0.000000e+00  0.000000e+00 -1.000000e+00
   outer loop
     vertex  4.675000e-01 -1.503250e+01 -4.675000e-01
     vertex  3.250000e-02 -1.696750e+01 -4.675000e-01
     vertex  3.250000e-02 -1.503250e+01 -4.675000e-01
   endloop
 endfacet
 facet normal  0.000000e+00 -0.000000e+00 -1.000000e+00
   outer loop
     vertex  4.675000e-01 -1.503250e+01 -4.675000e-01
     vertex  4.675000e-01 -1.696750e+01 -4.675000e-01
     vertex  3.250000e-02 -1.696750e+01 -4.675000e-01
   endloop
 endfacet
 facet normal  1.000000e+00  0.000000e+00  0.000000e+00
   outer loop
     vertex  4.675000e-01 -1.503250e+01  4.675000e-01
     vertex  4.675000e-01 -1.696750e+01  4.675000e-01
     vertex  4.675000e-01 -1.696750e+01 -4.675000e-01
   endloop
 endfacet
 facet normal  1.000000e+00  0.000000e+00  0.000000e+00
   outer loop
     vertex  4.675000e-01 -1.503250e+01  4.675000e-01
     vertex  4.675000e-01 -1.696750e+01 -4.675000e-01
     vertex  4.675000e-01 -1.503250e+01 -4.675000e-01
   endloop
 endfacet
 facet normal  0.000000e+00  0.000000e+00  1.000000e+00
   outer loop
     vertex  4.675000e-01 -1.503250e+01  4.675000e-01
     vertex  3.250000e-02 -1.503250e+01  4.675000e-01
     vertex  3.250000e-02 -1.696750e+01  4.675000e-01
   endloop
 endfacet
 facet normal  0.000000e+00  0.000000e+00  1.000000e+00
   outer loop
     vertex  4.675000e-01 -1.503250e+01  4.675000e-01
     vertex  3.250000e-02 -1.696750e+01  4.675000e-01
     vertex  4.675000e-01 -1.696750e+01  4.675000e-01
   endloop
 endfacet
 facet normal -1.000000e+00 -0.000000e+00  0.000000e+00
   outer loop
     vertex  3.250000e-02 -1.503250e+01  4.675000e-01
     vertex  3.250000e-02 -1.696750e+01 -4.675000e-01
     vertex  3.250000e-02 -1.696750e+01  4.675000e-01
   endloop
 endfacet
 facet normal -1.000000e+00  0.000000e+00 -0.000000e+00
   outer loop
     vertex  3.250000e-02 -1.503250e+01  4.675000e-01
     vertex  3.250000e-02 -1.503250e+01 -4.675000e-01
     vertex  3.250000e-02 -1.696750e+01 -4.675000e-01
   endloop
 endfacet
 facet normal  0.000000e+00  1.000000e+00  0.000000e+00
   outer loop
     vertex  4.675000e-01 -1.503250e+01 -4.675000e-01
     vertex  3.250000e-02 -1.503250e+01 -4.675000e-01
     vertex  3.250000e-02 -1.503250e+01  4.675000e-01
   endloop
 endfacet
 facet normal  0.000000e+00  1.000000e+00 -0.000000e+00
   outer loop
     vertex  4.675000e-01 -1.503250e+01 -4.675000e-01
     vertex  3.250000e-02 -1.503250e+01  4.675000e-01
     vertex  4.675000e-01 -1.503250e+01  4.675000e-01
   endloop
 endfacet
 facet normal  0.000000e+00  0.000000e+00  1.000000e+00
   outer loop
     vertex -3.250000e-02 -1.696750e+01  4.675000e-01
     vertex -4.675000e-01 -1.603250e+01  4.675000e-01
     vertex -4.675000e-01 -1.696750e+01  4.675000e-01
   endloop
 endfacet
 facet normal  0.000000e+00 -0.000000e+00  1.000000e+00
   outer loop
     vertex -3.250000e-02 -1.696750e+01  4.675000e-01
     vertex -3.250000e-02 -1.603250e+01  4.675000e-01
     vertex -4.675000e-01 -1.603250e+01  4.675000e-01
   endloop
 endfacet
 facet normal  0.000000e+00 -1.000000e+00  0.000000e+00
   outer loop
     vertex -3.250000e-02 -1.696750e+01 -1.467500e+00
     vertex -4.675000e-01 -1.696750e+01  4.675000e-01
     vertex -4.675000e-01 -1.696750e+01 -1.467500e+00
   endloop
 endfacet
 facet normal  0.000000e+00 -1.000000e+00  0.000000e+00
   outer loop
     vertex -3.250000e-02 -1.696750e+01 -1.467500e+00
     vertex -3.250000e-02 -1.696750e+01  4.675000e-01
     vertex -4.675000e-01 -1.696750e+01  4.675000e-01
   endloop
 endfacet
 facet normal  1.000000e+00  0.000000e+00 -0.000000e+00
   outer loop
     vertex -3.250000e-02 -1.603250e+01 -1.467500e+00
     vertex -3.250000e-02 -1.603250e+01  4.675000e-01
     vertex -3.250000e-02 -1.696750e+01  4.675000e-01
   endloop
 endfacet
 facet normal  1.000000e+00  0.000000e+00  0.000000e+00
   outer loop
     vertex -3.250000e-02 -1.603250e+01 -1.467500e+00
     vertex -3.250000e-02 -1.696750e+01  4.675000e-01
     vertex -3.250000e-02 -1.696750e+01 -1.467500e+00
   endloop
 endfacet
 facet normal  0.000000e+00  1.000000e+00  0.000000e+00
   outer loop
     vertex -3.250000e-02 -1.603250e+01 -1.467500e+00
     vertex -4.675000e-01 -1.603250e+01 -1.467500e+00
     vertex -4.675000e-01 -1.603250e+01  4.675000e-01
   endloop
 endfacet
 facet normal  0.000000e+00  1.000000e+00 -0.000000e+00
   outer loop
     vertex -3.250000e-02 -1.603250e+01 -1.467500e+00
     vertex -4.675000e-01 -1.603250e+01  4.675000e-01
     vertex -3.250000e-02 -1.603250e+01  4.675000e-01
   endloop
 endfacet
 facet normal -1.000000e+00  0.000000e+00  0.000000e+00
   outer loop
     vertex -4.675000e-01 -1.603250e+01 -1.467500e+00
     vertex -4.675000e-01 -1.696750e+01  4.675000e-01
     vertex -4.675000e-01 -1.603250e+01  4.675000e-01
   endloop
 endfacet
 facet normal -1.000000e+00  0.000000e+00  0.000000e+00
   outer loop
     vertex -4.675000e-01 -1.603250e+01 -1.467500e+00
     vertex -4.675000e-01 -1.696750e+01 -1.467500e+00
     vertex -4.675000e-01 -1.696750e+01  4.675000e-01
   endloop
 endfacet
 facet normal  0.000000e+00  0.000000e+00 -1.000000e+00
   outer loop
     vertex -3.250000e-02 -1.696750e+01 -1.467500e+00
     vertex -4.675000e-01 -1.696750e+01 -1.467500e+00
     vertex -4.675000e-01 -1.603250e+01 -1.467500e+00
   endloop
 endfacet
 facet normal  0.000000e+00  0.000000e+00 -1.000000e+00
   outer loop
     vertex -3.250000e-02 -1.696750e+01 -1.467500e+00
     vertex -4.675000e-01 -1.603250e+01 -1.467500e+00
     vertex -3.250000e-02 -1.603250e+01 -1.467500e+00
   endloop
 endfacet
 facet normal  0.000000e+00 -1.000000e+00  0.000000e+00
   outer loop
     vertex -5.325000e-01 -1.696750e+01 -4.675000e-01
     vertex -9.675000e-01 -1.696750e+01  4.675000e-01
     vertex -9.675000e-01 -1.696750e+01 -4.675000e-01
   endloop
 endfacet
 facet normal  0.000000e+00 -1.000000e+00  0.000000e+00
   outer loop
     vertex -5.325000e-01 -1.696750e+01 -4.675000e-01
     vertex -5.325000e-01 -1.696750e+01  4.675000e-01
     vertex -9.675000e-01 -1.696750e+01  4.675000e-01
   endloop
 endfacet
 facet normal -0.000000e+00  0.000000e+00 -1.000000e+00
   outer loop
     vertex -5.325000e-01 -1.503250e+01 -4.675000e-01
     vertex -9.675000e-01 -1.696750e+01 -4.675000e-01
     vertex -9.675000e-01 -1.503250e+01 -4.675000e-01
   endloop
 endfacet
 facet normal  0.000000e+00 -0.000000e+00 -1.000000e+00
   outer loop
     vertex -5.325000e-01 -1.503250e+01 -4.675000e-01
     vertex -5.325000e-01 -1.696750e+01 -4.675000e-01
     vertex -9.675000e-01 -1.696750e+01 -4.675000e-01
   endloop
 endfacet
 facet normal  1.000000e+00  0.000000e+00  0.000000e+00
   outer loop
     vertex -5.325000e-01 -1.503250e+01  4.675000e-01
     vertex -5.325000e-01 -1.696750e+01  4.675000e-01
     vertex -5.325000e-01 -1.696750e+01 -4.675000e-01
   endloop
 endfacet
 facet normal  1.000000e+00  0.000000e+00  0.000000e+00
   outer loop
     vertex -5.325000e-01 -1.503250e+01  4.675000e-01
     vertex -5.325000e-01 -1.696750e+01 -4.675000e-01
     vertex -5.325000e-01 -1.503250e+01 -4.675000e-01
   endloop
 endfacet
 facet normal  0.000000e+00  0.000000e+00  1.000000e+00
   outer loop
     vertex -5.325000e-01 -1.503250e+01  4.675000e-01
     vertex -9.675000e-01 -1.503250e+01  4.675000e-01
     vertex -9.675000e-01 -1.696750e+01  4.675000e-01
   endloop
 endfacet
 facet normal  0.000000e+00  0.000000e+00  1.000000e+00
   outer loop
     vertex -5.325000e-01 -1.503250e+01  4.675000e-01
     vertex -9.675000e-01 -1.696750e+01  4.675000e-01
     vertex -5.325000e-01 -1.696750e+01  4.675000e-01
   endloop
 endfacet
 facet normal -1.000000e+00 -0.000000e+00  0.000000e+00
   outer loop
     vertex -9.675000e-01 -1.503250e+01  4.675000e-01
     vertex -9.675000e-01 -1.696750e+01 -4.675000e-01
     vertex -9.675000e-01 -1.696750e+01  4.675000e-01
   endloop
 endfacet
 facet normal -1.000000e+00  0.000000e+00 -0.000000e+00
   outer loop
     vertex -9.675000e-01 -1.503250e+01  4.675000e-01
     vertex -9.675000e-01 -1.503250e+01 -4.675000e-01
     vertex -9.675000e-01 -1.696750e+01 -4.675000e-01
   endloop
 endfacet
 facet normal  0.000000e+00  1.000000e+00  0.000000e+00
   outer loop
     vertex -5.325000e-01 -1.503250e+01 -4.675000e-01
     vertex -9.675000e-01 -1.503250e+01 -4.675000e-01
     vertex -9.675000e-01 -1.503250e+01  4.675000e-01
   endloop
 endfacet
 facet normal  0.000000e+00  1.000000e+00 -0.000000e+00
   outer loop
     vertex -5.325000e-01 -1.503250e+01 -4.675000e-01
     vertex -9.675000e-01 -1.503250e+01  4.675000e-01
     vertex -5.325000e-01 -1.503250e+01  4.675000e-01
   endloop
 endfacet
 facet normal  0.000000e+00  0.000000e+00  1.000000e+00
   outer loop
     vertex -1.032500e+00 -1.696750e+01  4.675000e-01
     vertex -1.467500e+00 -1.603250e+01  4.675000e-01
     vertex -1.467500e+00 -1.696750e+01  4.675000e-01
   endloop
 endfacet
 facet normal  0.000000e+00 -0.000000e+00  1.000000e+00
   outer loop
     vertex -1.032500e+00 -1.696750e+01  4.675000e-01
     vertex -1.032500e+00 -1.603250e+01  4.675000e-01
     vertex -1.467500e+00 -1.603250e+01  4.675000e-01
   endloop
 endfacet
 facet normal  0.000000e+00 -1.000000e+00  0.000000e+00
   outer loop
     vertex -1.032500e+00 -1.696750e+01 -1.467500e+00
     vertex -1.467500e+00 -1.696750e+01  4.675000e-01
     vertex -1.467500e+00 -1.696750e+01 -1.467500e+00
   endloop
 endfacet
 facet normal  0.000000e+00 -1.000000e+00  0.000000e+00
   outer loop
     vertex -1.032500e+00 -1.696750e+01 -1.467500e+00
     vertex -1.032500e+00 -1.696750e+01  4.675000e-01
     vertex -1.467500e+00 -1.696750e+01  4.675000e-01
   endloop
 endfacet
 facet normal  1.000000e+00  0.000000e+00 -0.000000e+00
   outer loop
     vertex -1.032500e+00 -1.603250e+01 -1.467500e+00
     vertex -1.032500e+00 -1.603250e+01  4.675000e-01
     vertex -1.032500e+00 -1.696750e+01  4.675000e-01
   endloop
 endfacet
 facet normal  1.000000e+00  0.000000e+00  0.000000e+00
   outer loop
     vertex -1.032500e+00 -1.603250e+01 -1.467500e+00
     vertex -1.032500e+00 -1.696750e+01  4.675000e-01
     vertex -1.032500e+00 -1.696750e+01 -1.467500e+00
   endloop
 endfacet
 facet normal  0.000000e+00  1.000000e+00  0.000000e+00
   outer loop
     vertex -1.032500e+00 -1.603250e+01 -1.467500e+00
     vertex -1.467500e+00 -1.603250e+01 -1.467500e+00
     vertex -1.467500e+00 -1.603250e+01  4.675000e-01
   endloop
 endfacet
 facet normal  0.000000e+00  1.000000e+00 -0.000000e+00
   outer loop
     vertex -1.032500e+00 -1.603250e+01 -1.467500e+00
     vertex -1.467500e+00 -1.603250e+01  4.675000e-01
     vertex -1.032500e+00 -1.603250e+01  4.675000e-01
   endloop
 endfacet
 facet normal -1.000000e+00  0.000000e+00  0.000000e+00
   outer loop
     vertex -1.467500e+00 -1.603250e+01 -1.467500e+00
     vertex -1.467500e+00 -1.696750e+01  4.675000e-01
     vertex -1.467500e+00 -1.603250e+01  4.675000e-01
   endloop
 endfacet
 facet normal -1.000000e+00  0.000000e+00  0.000000e+00
   outer loop
     vertex -1.467500e+00 -1.603250e+01 -1.467500e+00
     vertex -1.467500e+00 -1.696750e+01 -1.467500e+00
     vertex -1.467500e+00 -1.696750e+01  4.675000e-01
   endloop
 endfacet
 facet normal  0.000000e+00  0.000000e+00 -1.000000e+00
   outer loop
     vertex -1.032500e+00 -1.696750e+01 -1.467500e+00
     vertex -1.467500e+00 -1.696750e+01 -1.467500e+00
     vertex -1.467500e+00 -1.603250e+01 -1.467500e+00
   endloop
 endfacet
 facet normal  0.000000e+00  0.000000e+00 -1.000000e+00
   outer loop
     vertex -1.032500e+00 -1.696750e+01 -1.467500e+00
     vertex -1.467500e+00 -1.603250e+01 -1.467500e+00
     vertex -1.032500e+00 -1.603250e+01 -1.467500e+00
   endloop
 endfacet
 facet normal  0.000000e+00 -1.000000e+00  0.000000e+00
   outer loop
     vertex -1.532500e+00 -1.696750e+01 -4.675000e-01
     vertex -1.967500e+00 -1.696750e+01  4.675000e-01
     vertex -1.967500e+00 -1.696750e+01 -4.675000e-01
   endloop
 endfacet
 facet normal  0.000000e+00 -1.000000e+00  0.000000e+00
   outer loop
     vertex -1.532500e+00 -1.696750e+01 -4.675000e-01
     vertex -1.532500e+00 -1.696750e+01  4.675000e-01
     vertex -1.967500e+00 -1.696750e+01  4.675000e-01
   endloop
 endfacet
 facet normal -0.000000e+00  0.000000e+00 -1.000000e+00
   outer loop
     vertex -1.532500e+00 -1.503250e+01 -4.675000e-01
     vertex -1.967500e+00 -1.696750e+01 -4.675000e-01
     vertex -1.967500e+00 -1.503250e+01 -4.675000e-01
   endloop
 endfacet
 facet normal  0.000000e+00 -0.000000e+00 -1.000000e+00
   outer loop
     vertex -1.532500e+00 -1.503250e+01 -4.675000e-01
     vertex -1.532500e+00 -1.696750e+01 -4.675000e-01
     vertex -1.967500e+00 -1.696750e+01 -4.675000e-01
   endloop
 endfacet
 facet normal  1.000000e+00  0.000000e+00  0.000000e+00
   outer loop
     vertex -1.532500e+00 -1.503250e+01  4.675000e-01
     vertex -1.532500e+00 -1.696750e+01  4.675000e-01
     vertex -1.532500e+00 -1.696750e+01 -4.675000e-01
   endloop
 endfacet
 facet normal  1.000000e+00  0.000000e+00  0.000000e+00
   outer loop
     vertex -1.532500e+00 -1.503250e+01  4.675000e-01
     vertex -1.532500e+00 -1.696750e+01 -4.675000e-01
     vertex -1.532500e+00 -1.503250e+01 -4.675000e-01
   endloop
 endfacet
 facet normal  0.000000e+00  0.000000e+00  1.000000e+00
   outer loop
     vertex -1.532500e+00 -1.503250e+01  4.675000e-01
     vertex -1.967500e+00 -1.503250e+01  4.675000e-01
     vertex -1.967500e+00 -1.696750e+01  4.675000e-01
   endloop
 endfacet
 facet normal  0.000000e+00  0.000000e+00  1.000000e+00
   outer loop
     vertex -1.532500e+00 -1.503250e+01  4.675000e-01
     vertex -1.967500e+00 -1.696750e+01  4.675000e-01
     vertex -1.532500e+00 -1.696750e+01  4.675000e-01
   endloop
 endfacet
 facet normal -1.000000e+00 -0.000000e+00  0.000000e+00
   outer loop
     vertex -1.967500e+00 -1.503250e+01  4.675000e-01
     vertex -1.967500e+00 -1.696750e+01 -4.675000e-01
     vertex -1.967500e+00 -1.696750e+01  4.675000e-01
   endloop
 endfacet
 facet normal -1.000000e+00  0.000000e+00 -0.000000e+00
   outer loop
     vertex -1.967500e+00 -1.503250e+01  4.675000e-01
     vertex -1.967500e+00 -1.503250e+01 -4.675000e-01
     vertex -1.967500e+00 -1.696750e+01 -4.675000e-01
   endloop
 endfacet
 facet normal  0.000000e+00  1.000000e+00  0.000000e+00
   outer loop
     vertex -1.532500e+00 -1.503250e+01 -4.675000e-01
     vertex -1.967500e+00 -1.503250e+01 -4.675000e-01
     vertex -1.967500e+00 -1.503250e+01  4.675000e-01
   endloop
 endfacet
 facet normal  0.000000e+00  1.000000e+00 -0.000000e+00
   outer loop
     vertex -1.532500e+00 -1.503250e+01 -4.675000e-01
     vertex -1.967500e+00 -1.503250e+01  4.675000e-01
     vertex -1.532500e+00 -1.503250e+01  4.675000e-01
   endloop
 endfacet
 facet normal  0.000000e+00  0.000000e+00  1.000000e+00
   outer loop
     vertex -2.032500e+00 -1.696750e+01  4.675000e-01
     vertex -2.467500e+00 -1.603250e+01  4.675000e-01
     vertex -2.467500e+00 -1.696750e+01  4.675000e-01
   endloop
 endfacet
 facet normal  0.000000e+00 -0.000000e+00  1.000000e+00
   outer loop
     vertex -2.032500e+00 -1.696750e+01  4.675000e-01
     vertex -2.032500e+00 -1.603250e+01  4.675000e-01
     vertex -2.467500e+00 -1.603250e+01  4.675000e-01
   endloop
 endfacet
 facet normal  0.000000e+00 -1.000000e+00  0.000000e+00
   outer loop
     vertex -2.032500e+00 -1.696750e+01 -1.467500e+00
     vertex -2.467500e+00 -1.696750e+01  4.675000e-01
     vertex -2.467500e+00 -1.696750e+01 -1.467500e+00
   endloop
 endfacet
 facet normal  0.000000e+00 -1.000000e+00  0.000000e+00
   outer loop
     vertex -2.032500e+00 -1.696750e+01 -1.467500e+00
     vertex -2.032500e+00 -1.696750e+01  4.675000e-01
     vertex -2.467500e+00 -1.696750e+01  4.675000e-01
   endloop
 endfacet
 facet normal  1.000000e+00  0.000000e+00 -0.000000e+00
   outer loop
     vertex -2.032500e+00 -1.603250e+01 -1.467500e+00
     vertex -2.032500e+00 -1.603250e+01  4.675000e-01
     vertex -2.032500e+00 -1.696750e+01  4.675000e-01
   endloop
 endfacet
 facet normal  1.000000e+00  0.000000e+00  0.000000e+00
   outer loop
     vertex -2.032500e+00 -1.603250e+01 -1.467500e+00
     vertex -2.032500e+00 -1.696750e+01  4.675000e-01
     vertex -2.032500e+00 -1.696750e+01 -1.467500e+00
   endloop
 endfacet
 facet normal  0.000000e+00  1.000000e+00  0.000000e+00
   outer loop
     vertex -2.032500e+00 -1.603250e+01 -1.467500e+00
     vertex -2.467500e+00 -1.603250e+01 -1.467500e+00
     vertex -2.467500e+00 -1.603250e+01  4.675000e-01
   endloop
 endfacet
 facet normal  0.000000e+00  1.000000e+00 -0.000000e+00
   outer loop
     vertex -2.032500e+00 -1.603250e+01 -1.467500e+00
     vertex -2.467500e+00 -1.603250e+01  4.675000e-01
     vertex -2.032500e+00 -1.603250e+01  4.675000e-01
   endloop
 endfacet
 facet normal -1.000000e+00  0.000000e+00  0.000000e+00
   outer loop
     vertex -2.467500e+00 -1.603250e+01 -1.467500e+00
     vertex -2.467500e+00 -1.696750e+01  4.675000e-01
     vertex -2.467500e+00 -1.603250e+01  4.675000e-01
   endloop
 endfacet
 facet normal -1.000000e+00  0.000000e+00  0.000000e+00
   outer loop
     vertex -2.467500e+00 -1.603250e+01 -1.467500e+00
     vertex -2.467500e+00 -1.696750e+01 -1.467500e+00
     vertex -2.467500e+00 -1.696750e+01  4.675000e-01
   endloop
 endfacet
 facet normal  0.000000e+00  0.000000e+00 -1.000000e+00
   outer loop
     vertex -2.032500e+00 -1.696750e+01 -1.467500e+00
     vertex -2.467500e+00 -1.696750e+01 -1.467500e+00
     vertex -2.467500e+00 -1.603250e+01 -1.467500e+00
   endloop
 endfacet
 facet normal  0.000000e+00  0.000000e+00 -1.000000e+00
   outer loop
     vertex -2.032500e+00 -1.696750e+01 -1.467500e+00
     vertex -2.467500e+00 -1.603250e+01 -1.467500e+00
     vertex -2.032500e+00 -1.603250e+01 -1.467500e+00
   endloop
 endfacet
 facet normal  0.000000e+00 -1.000000e+00  0.000000e+00
   outer loop
     vertex  2.467500e+00 -5.967500e+00 -4.675000e-01
     vertex  2.032500e+00 -5.967500e+00  4.675000e-01
     vertex  2.032500e+00 -5.967500e+00 -4.675000e-01
   endloop
 endfacet
 facet normal  0.000000e+00 -1.000000e+00  0.000000e+00
   outer loop
     vertex  2.467500e+00 -5.967500e+00 -4.675000e-01
     vertex  2.467500e+00 -5.967500e+00  4.675000e-01
     vertex  2.032500e+00 -5.967500e+00  4.675000e-01
   endloop
 endfacet
 facet normal -0.000000e+00  0.000000e+00 -1.000000e+00
   outer loop
     vertex  2.467500e+00 -4.032500e+00 -4.675000e-01
     vertex  2.032500e+00 -5.967500e+00 -4.675000e-01
     vertex  2.032500e+00 -4.032500e+00 -4.675000e-01
   endloop
 endfacet
 facet normal  0.000000e+00 -0.000000e+00 -1.000000e+00
   outer loop
     vertex  2.467500e+00 -4.032500e+00 -4.675000e-01
     vertex  2.467500e+00 -5.967500e+00 -4.675000e-01
     vertex  2.032500e+00 -5.967500e+00 -4.675000e-01
   endloop
 endfacet
 facet normal  1.000000e+00  0.000000e+00  0.000000e+00
   outer loop
     vertex  2.467500e+00 -4.032500e+00  4.675000e-01
     vertex  2.467500e+00 -5.967500e+00  4.675000e-01
     vertex  2.467500e+00 -5.967500e+00 -4.675000e-01
   endloop
 endfacet
 facet normal  1.000000e+00  0.000000e+00  0.000000e+00
   outer loop
     vertex  2.467500e+00 -4.032500e+00  4.675000e-01
     vertex  2.467500e+00 -5.967500e+00 -4.675000e-01
     vertex  2.467500e+00 -4.032500e+00 -4.675000e-01
   endloop
 endfacet
 facet normal  0.000000e+00  0.000000e+00  1.000000e+00
   outer loop
     vertex  2.467500e+00 -4.032500e+00  4.675000e-01
     vertex  2.032500e+00 -4.032500e+00  4.675000e-01
     vertex  2.032500e+00 -5.967500e+00  4.675000e-01
   endloop
 endfacet
 facet normal  0.000000e+00  0.000000e+00  1.000000e+00
   outer loop
     vertex  2.467500e+00 -4.032500e+00  4.675000e-01
     vertex  2.032500e+00 -5.967500e+00  4.675000e-01
     vertex  2.467500e+00 -5.967500e+00  4.675000e-01
   endloop
 endfacet
 facet normal -1.000000e+00 -0.000000e+00  0.000000e+00
   outer loop
     vertex  2.032500e+00 -4.032500e+00  4.675000e-01
     vertex  2.032500e+00 -5.967500e+00 -4.675000e-01
     vertex  2.032500e+00 -5.967500e+00  4.675000e-01
   endloop
 endfacet
 facet normal -1.000000e+00  0.000000e+00 -0.000000e+00
   outer loop
     vertex  2.032500e+00 -4.032500e+00  4.675000e-01
     vertex  2.032500e+00 -4.032500e+00 -4.675000e-01
     vertex  2.032500e+00 -5.967500e+00 -4.675000e-01
   endloop
 endfacet
 facet normal  0.000000e+00  1.000000e+00  0.000000e+00
   outer loop
     vertex  2.467500e+00 -4.032500e+00 -4.675000e-01
     vertex  2.032500e+00 -4.032500e+00 -4.675000e-01
     vertex  2.032500e+00 -4.032500e+00  4.675000e-01
   endloop
 endfacet
 facet normal  0.000000e+00  1.000000e+00 -0.000000e+00
   outer loop
     vertex  2.467500e+00 -4.032500e+00 -4.675000e-01
     vertex  2.032500e+00 -4.032500e+00  4.675000e-01
     vertex  2.467500e+00 -4.032500e+00  4.675000e-01
   endloop
 endfacet
 facet normal  0.000000e+00  0.000000e+00  1.000000e+00
   outer loop
     vertex  1.967500e+00 -5.967500e+00  4.675000e-01
     vertex  1.532500e+00 -5.032500e+00  4.675000e-01
     vertex  1.532500e+00 -5.967500e+00  4.675000e-01
   endloop
 endfacet
 facet normal  0.000000e+00 -0.000000e+00  1.000000e+00
   outer loop
     vertex  1.967500e+00 -5.967500e+00  4.675000e-01
     vertex  1.967500e+00 -5.032500e+00  4.675000e-01
     vertex  1.532500e+00 -5.032500e+00  4.675000e-01
   endloop
 endfacet
 facet normal  0.000000e+00 -1.000000e+00  0.000000e+00
   outer loop
     vertex  1.967500e+00 -5.967500e+00 -1.467500e+00
     vertex  1.532500e+00 -5.967500e+00  4.675000e-01
     vertex  1.532500e+00 -5.967500e+00 -1.467500e+00
   endloop
 endfacet
 facet normal  0.000000e+00 -1.000000e+00  0.000000e+00
   outer loop
     vertex  1.967500e+00 -5.967500e+00 -1.467500e+00
     vertex  1.967500e+00 -5.967500e+00  4.675000e-01
     vertex  1.532500e+00 -5.967500e+00  4.675000e-01
   endloop
 endfacet
 facet normal  1.000000e+00  0.000000e+00 -0.000000e+00
   outer loop
     vertex  1.967500e+00 -5.032500e+00 -1.467500e+00
     vertex  1.967500e+00 -5.032500e+00  4.675000e-01
     vertex  1.967500e+00 -5.967500e+00  4.675000e-01
   endloop
 endfacet
 facet normal  1.000000e+00  0.000000e+00  0.000000e+00
   outer loop
     vertex  1.967500e+00 -5.032500e+00 -1.467500e+00
     vertex  1.967500e+00 -5.967500e+00  4.675000e-01
     vertex  1.967500e+00 -5.967500e+00 -1.467500e+00
   endloop
 endfacet
 facet normal  0.000000e+00  1.000000e+00  0.000000e+00
   outer loop
     vertex  1.967500e+00 -5.032500e+00 -1.467500e+00
     vertex  1.532500e+00 -5.032500e+00 -1.467500e+00
     vertex  1.532500e+00 -5.032500e+00  4.675000e-01
   endloop
 endfacet
 facet normal  0.000000e+00  1.000000e+00 -0.000000e+00
   outer loop
     vertex  1.967500e+00 -5.032500e+00 -1.467500e+00
     vertex  1.532500e+00 -5.032500e+00  4.675000e-01
     vertex  1.967500e+00 -5.032500e+00  4.675000e-01
   endloop
 endfacet
 facet normal -1.000000e+00  0.000000e+00  0.000000e+00
   outer loop
     vertex  1.532500e+00 -5.032500e+00 -1.467500e+00
     vertex  1.532500e+00 -5.967500e+00  4.675000e-01
     vertex  1.532500e+00 -5.032500e+00  4.675000e-01
   endloop
 endfacet
 facet normal -1.000000e+00  0.000000e+00  0.000000e+00
   outer loop
     vertex  1.532500e+00 -5.032500e+00 -1.467500e+00
     vertex  1.532500e+00 -5.967500e+00 -1.467500e+00
     vertex  1.532500e+00 -5.967500e+00  4.675000e-01
   endloop
 endfacet
 facet normal  0.000000e+00  0.000000e+00 -1.000000e+00
   outer loop
     vertex  1.967500e+00 -5.967500e+00 -1.467500e+00
     vertex  1.532500e+00 -5.967500e+00 -1.467500e+00
     vertex  1.532500e+00 -5.032500e+00 -1.467500e+00
   endloop
 endfacet
 facet normal  0.000000e+00  0.000000e+00 -1.000000e+00
   outer loop
     vertex  1.967500e+00 -5.967500e+00 -1.467500e+00
     vertex  1.532500e+00 -5.032500e+00 -1.467500e+00
     vertex  1.967500e+00 -5.032500e+00 -1.467500e+00
   endloop
 endfacet
 facet normal  0.000000e+00 -1.000000e+00  0.000000e+00
   outer loop
     vertex  1.467500e+00 -5.967500e+00 -4.675000e-01
     vertex  1.032500e+00 -5.967500e+00  4.675000e-01
     vertex  1.032500e+00 -5.967500e+00 -4.675000e-01
   endloop
 endfacet
 facet normal  0.000000e+00 -1.000000e+00  0.000000e+00
   outer loop
     vertex  1.467500e+00 -5.967500e+00 -4.675000e-01
     vertex  1.467500e+00 -5.967500e+00  4.675000e-01
     vertex  1.032500e+00 -5.967500e+00  4.675000e-01
   endloop
 endfacet
 facet normal -0.000000e+00  0.000000e+00 -1.000000e+00
   outer loop
     vertex  1.467500e+00 -4.032500e+00 -4.675000e-01
     vertex  1.032500e+00 -5.967500e+00 -4.675000e-01
     vertex  1.032500e+00 -4.032500e+00 -4.675000e-01
   endloop
 endfacet
 facet normal  0.000000e+00 -0.000000e+00 -1.000000e+00
   outer loop
     vertex  1.467500e+00 -4.032500e+00 -4.675000e-01
     vertex  1.467500e+00 -5.967500e+00 -4.675000e-01
     vertex  1.032500e+00 -5.967500e+00 -4.675000e-01
   endloop
 endfacet
 facet normal  1.000000e+00  0.000000e+00  0.000000e+00
   outer loop
     vertex  1.467500e+00 -4.032500e+00  4.675000e-01
     vertex  1.467500e+00 -5.967500e+00  4.675000e-01
     vertex  1.467500e+00 -5.967500e+00 -4.675000e-01
   endloop
 endfacet
 facet normal  1.000000e+00  0.000000e+00  0.000000e+00
   outer loop
     vertex  1.467500e+00 -4.032500e+00  4.675000e-01
     vertex  1.467500e+00 -5.967500e+00 -4.675000e-01
     vertex  1.467500e+00 -4.032500e+00 -4.675000e-01
   endloop
 endfacet
 facet normal  0.000000e+00  0.000000e+00  1.000000e+00
   outer loop
     vertex  1.467500e+00 -4.032500e+00  4.675000e-01
     vertex  1.032500e+00 -4.032500e+00  4.675000e-01
     vertex  1.032500e+00 -5.967500e+00  4.675000e-01
   endloop
 endfacet
 facet normal  0.000000e+00  0.000000e+00  1.000000e+00
   outer loop
     vertex  1.467500e+00 -4.032500e+00  4.675000e-01
     vertex  1.032500e+00 -5.967500e+00  4.675000e-01
     vertex  1.467500e+00 -5.967500e+00  4.675000e-01
   endloop
 endfacet
 facet normal -1.000000e+00 -0.000000e+00  0.000000e+00
   outer loop
     vertex  1.032500e+00 -4.032500e+00  4.675000e-01
     vertex  1.032500e+00 -5.967500e+00 -4.675000e-01
     vertex  1.032500e+00 -5.967500e+00  4.675000e-01
   endloop
 endfacet
 facet normal -1.000000e+00  0.000000e+00 -0.000000e+00
   outer loop
     vertex  1.032500e+00 -4.032500e+00  4.675000e-01
     vertex  1.032500e+00 -4.032500e+00 -4.675000e-01
     vertex  1.032500e+00 -5.967500e+00 -4.675000e-01
   endloop
 endfacet
 facet normal  0.000000e+00  1.000000e+00  0.000000e+00
   outer loop
     vertex  1.467500e+00 -4.032500e+00 -4.675000e-01
     vertex  1.032500e+00 -4.032500e+00 -4.675000e-01
     vertex  1.032500e+00 -4.032500e+00  4.675000e-01
   endloop
 endfacet
 facet normal  0.000000e+00  1.000000e+00 -0.000000e+00
   outer loop
     vertex  1.467500e+00 -4.032500e+00 -4.675000e-01
     vertex  1.032500e+00 -4.032500e+00  4.675000e-01
     vertex  1.467500e+00 -4.032500e+00  4.675000e-01
   endloop
 endfacet
 facet normal  0.000000e+00  0.000000e+00  1.000000e+00
   outer loop
     vertex  9.675000e-01 -5.967500e+00  4.675000e-01
     vertex  5.325000e-01 -5.032500e+00  4.675000e-01
     vertex  5.325000e-01 -5.967500e+00  4.675000e-01
   endloop
 endfacet
 facet normal  0.000000e+00 -0.000000e+00  1.000000e+00
   outer loop
     vertex  9.675000e-01 -5.967500e+00  4.675000e-01
     vertex  9.675000e-01 -5.032500e+00  4.675000e-01
     vertex  5.325000e-01 -5.032500e+00  4.675000e-01
   endloop
 endfacet
 facet normal  0.000000e+00 -1.000000e+00  0.000000e+00
   outer loop
     vertex  9.675000e-01 -5.967500e+00 -1.467500e+00
     vertex  5.325000e-01 -5.967500e+00  4.675000e-01
     vertex  5.325000e-01 -5.967500e+00 -1.467500e+00
   endloop
 endfacet
 facet normal  0.000000e+00 -1.000000e+00  0.000000e+00
   outer loop
     vertex  9.675000e-01 -5.967500e+00 -1.467500e+00
     vertex  9.675000e-01 -5.967500e+00  4.675000e-01
     vertex  5.325000e-01 -5.967500e+00  4.675000e-01
   endloop
 endfacet
 facet normal  1.000000e+00  0.000000e+00 -0.000000e+00
   outer loop
     vertex  9.675000e-01 -5.032500e+00 -1.467500e+00
     vertex  9.675000e-01 -5.032500e+00  4.675000e-01
     vertex  9.675000e-01 -5.967500e+00  4.675000e-01
   endloop
 endfacet
 facet normal  1.000000e+00  0.000000e+00  0.000000e+00
   outer loop
     vertex  9.675000e-01 -5.032500e+00 -1.467500e+00
     vertex  9.675000e-01 -5.967500e+00  4.675000e-01
     vertex  9.675000e-01 -5.967500e+00 -1.467500e+00
   endloop
 endfacet
 facet normal  0.000000e+00  1.000000e+00  0.000000e+00
   outer loop
     vertex  9.675000e-01 -5.032500e+00 -1.467500e+00
     vertex  5.325000e-01 -5.032500e+00 -1.467500e+00
     vertex  5.325000e-01 -5.032500e+00  4.675000e-01
   endloop
 endfacet
 facet normal  0.000000e+00  1.000000e+00 -0.000000e+00
   outer loop
     vertex  9.675000e-01 -5.032500e+00 -1.467500e+00
     vertex  5.325000e-01 -5.032500e+00  4.675000e-01
     vertex  9.675000e-01 -5.032500e+00  4.675000e-01
   endloop
 endfacet
 facet normal -1.000000e+00  0.000000e+00  0.000000e+00
   outer loop
     vertex  5.325000e-01 -5.032500e+00 -1.467500e+00
     vertex  5.325000e-01 -5.967500e+00  4.675000e-01
     vertex  5.325000e-01 -5.032500e+00  4.675000e-01
   endloop
 endfacet
 facet normal -1.000000e+00  0.000000e+00  0.000000e+00
   outer loop
     vertex  5.325000e-01 -5.032500e+00 -1.467500e+00
     vertex  5.325000e-01 -5.967500e+00 -1.467500e+00
     vertex  5.325000e-01 -5.967500e+00  4.675000e-01
   endloop
 endfacet
 facet normal  0.000000e+00  0.000000e+00 -1.000000e+00
   outer loop
     vertex  9.675000e-01 -5.967500e+00 -1.467500e+00
     vertex  5.325000e-01 -5.967500e+00 -1.467500e+00
     vertex  5.325000e-01 -5.032500e+00 -1.467500e+00
   endloop
 endfacet
 facet normal  0.000000e+00  0.000000e+00 -1.000000e+00
   outer loop
     vertex  9.675000e-01 -5.967500e+00 -1.467500e+00
     vertex  5.325000e-01 -5.032500e+00 -1.467500e+00
     vertex  9.675000e-01 -5.032500e+00 -1.467500e+00
   endloop
 endfacet
 facet normal  0.000000e+00 -1.000000e+00  0.000000e+00
   outer loop
     vertex  4.675000e-01 -5.967500e+00 -4.675000e-01
     vertex  3.250000e-02 -5.967500e+00  4.675000e-01
     vertex  3.250000e-02 -5.967500e+00 -4.675000e-01
   endloop
 endfacet
 facet normal  0.000000e+00 -1.000000e+00  0.000000e+00
   outer loop
     vertex  4.675000e-01 -5.967500e+00 -4.675000e-01
     vertex  4.675000e-01 -5.967500e+00  4.675000e-01
     vertex  3.250000e-02 -5.967500e+00  4.675000e-01
   endloop
 endfacet
 facet normal -0.000000e+00  0.000000e+00 -1.000000e+00
   outer loop
     vertex  4.675000e-01 -4.032500e+00 -4.675000e-01
     vertex  3.250000e-02 -5.967500e+00 -4.675000e-01
     vertex  3.250000e-02 -4.032500e+00 -4.675000e-01
   endloop
 endfacet
 facet normal  0.000000e+00 -0.000000e+00 -1.000000e+00
   outer loop
     vertex  4.675000e-01 -4.032500e+00 -4.675000e-01
     vertex  4.675000e-01 -5.967500e+00 -4.675000e-01
     vertex  3.250000e-02 -5.967500e+00 -4.675000e-01
   endloop
 endfacet
 facet normal  1.000000e+00  0.000000e+00  0.000000e+00
   outer loop
     vertex  4.675000e-01 -4.032500e+00  4.675000e-01
     vertex  4.675000e-01 -5.967500e+00  4.675000e-01
     vertex  4.675000e-01 -5.967500e+00 -4.675000e-01
   endloop
 endfacet
 facet normal  1.000000e+00  0.000000e+00  0.000000e+00
   outer loop
     vertex  4.675000e-01 -4.032500e+00  4.675000e-01
     vertex  4.675000e-01 -5.967500e+00 -4.675000e-01
     vertex  4.675000e-01 -4.032500e+00 -4.675000e-01
   endloop
 endfacet
 facet normal  0.000000e+00  0.000000e+00  1.000000e+00
   outer loop
     vertex  4.675000e-01 -4.032500e+00  4.675000e-01
     vertex  3.250000e-02 -4.032500e+00  4.675000e-01
     vertex  3.250000e-02 -5.967500e+00  4.675000e-01
   endloop
 endfacet
 facet normal  0.000000e+00  0.000000e+00  1.000000e+00
   outer loop
     vertex  4.675000e-01 -4.032500e+00  4.675000e-01
     vertex  3.250000e-02 -5.967500e+00  4.675000e-01
     vertex  4.675000e-01 -5.967500e+00  4.675000e-01
   endloop
 endfacet
 facet normal -1.000000e+00 -0.000000e+00  0.000000e+00
   outer loop
     vertex  3.250000e-02 -4.032500e+00  4.675000e-01
     vertex  3.250000e-02 -5.967500e+00 -4.675000e-01
     vertex  3.250000e-02 -5.967500e+00  4.675000e-01
   endloop
 endfacet
 facet normal -1.000000e+00  0.000000e+00 -0.000000e+00
   outer loop
     vertex  3.250000e-02 -4.032500e+00  4.675000e-01
     vertex  3.250000e-02 -4.032500e+00 -4.675000e-01
     vertex  3.250000e-02 -5.967500e+00 -4.675000e-01
   endloop
 endfacet
 facet normal  0.000000e+00  1.000000e+00  0.000000e+00
   outer loop
     vertex  4.675000e-01 -4.032500e+00 -4.675000e-01
     vertex  3.250000e-02 -4.032500e+00 -4.675000e-01
     vertex  3.250000e-02 -4.032500e+00  4.675000e-01
   endloop
 endfacet
 facet normal  0.000000e+00  1.000000e+00 -0.000000e+00
   outer loop
     vertex  4.675000e-01 -4.032500e+00 -4.675000e-01
     vertex  3.250000e-02 -4.032500e+00  4.675000e-01
     vertex  4.675000e-01 -4.032500e+00  4.675000e-01
   endloop
 endfacet
 facet normal  0.000000e+00  0.000000e+00  1.000000e+00
   outer loop
     vertex -3.250000e-02 -5.967500e+00  4.675000e-01
     vertex -4.675000e-01 -5.032500e+00  4.675000e-01
     vertex -4.675000e-01 -5.967500e+00  4.675000e-01
   endloop
 endfacet
 facet normal  0.000000e+00 -0.000000e+00  1.000000e+00
   outer loop
     vertex -3.250000e-02 -5.967500e+00  4.675000e-01
     vertex -3.250000e-02 -5.032500e+00  4.675000e-01
     vertex -4.675000e-01 -5.032500e+00  4.675000e-01
   endloop
 endfacet
 facet normal  0.000000e+00 -1.000000e+00  0.000000e+00
   outer loop
     vertex -3.250000e-02 -5.967500e+00 -1.467500e+00
     vertex -4.675000e-01 -5.967500e+00  4.675000e-01
     vertex -4.675000e-01 -5.967500e+00 -1.467500e+00
   endloop
 endfacet
 facet normal  0.000000e+00 -1.000000e+00  0.000000e+00
   outer loop
     vertex -3.250000e-02 -5.967500e+00 -1.467500e+00
     vertex -3.250000e-02 -5.967500e+00  4.675000e-01
     vertex -4.675000e-01 -5.967500e+00  4.675000e-01
   endloop
 endfacet
 facet normal  1.000000e+00  0.000000e+00 -0.000000e+00
   outer loop
     vertex -3.250000e-02 -5.032500e+00 -1.467500e+00
     vertex -3.250000e-02 -5.032500e+00  4.675000e-01
     vertex -3.250000e-02 -5.967500e+00  4.675000e-01
   endloop
 endfacet
 facet normal  1.000000e+00  0.000000e+00  0.000000e+00
   outer loop
     vertex -3.250000e-02 -5.032500e+00 -1.467500e+00
     vertex -3.250000e-02 -5.967500e+00  4.675000e-01
     vertex -3.250000e-02 -5.967500e+00 -1.467500e+00
   endloop
 endfacet
 facet normal  0.000000e+00  1.000000e+00  0.000000e+00
   outer loop
     vertex -3.250000e-02 -5.032500e+00 -1.467500e+00
     vertex -4.675000e-01 -5.032500e+00 -1.467500e+00
     vertex -4.675000e-01 -5.032500e+00  4.675000e-01
   endloop
 endfacet
 facet normal  0.000000e+00  1.000000e+00 -0.000000e+00
   outer loop
     vertex -3.250000e-02 -5.032500e+00 -1.467500e+00
     vertex -4.675000e-01 -5.032500e+00  4.675000e-01
     vertex -3.250000e-02 -5.032500e+00  4.675000e-01
   endloop
 endfacet
 facet normal -1.000000e+00  0.000000e+00  0.000000e+00
   outer loop
     vertex -4.675000e-01 -5.032500e+00 -1.467500e+00
     vertex -4.675000e-01 -5.967500e+00  4.675000e-01
     vertex -4.675000e-01 -5.032500e+00  4.675000e-01
   endloop
 endfacet
 facet normal -1.000000e+00  0.000000e+00  0.000000e+00
   outer loop
     vertex -4.675000e-01 -5.032500e+00 -1.467500e+00
     vertex -4.675000e-01 -5.967500e+00 -1.467500e+00
     vertex -4.675000e-01 -5.967500e+00  4.675000e-01
   endloop
 endfacet
 facet normal  0.000000e+00  0.000000e+00 -1.000000e+00
   outer loop
     vertex -3.250000e-02 -5.967500e+00 -1.467500e+00
     vertex -4.675000e-01 -5.967500e+00 -1.467500e+00
     vertex -4.675000e-01 -5.032500e+00 -1.467500e+00
   endloop
 endfacet
 facet normal  0.000000e+00  0.000000e+00 -1.000000e+00
   outer loop
     vertex -3.250000e-02 -5.967500e+00 -1.467500e+00
     vertex -4.675000e-01 -5.032500e+00 -1.467500e+00
     vertex -3.250000e-02 -5.032500e+00 -1.467500e+00
   endloop
 endfacet
 facet normal  0.000000e+00 -1.000000e+00  0.000000e+00
   outer loop
     vertex -5.325000e-01 -5.967500e+00 -4.675000e-01
     vertex -9.675000e-01 -5.967500e+00  4.675000e-01
     vertex -9.675000e-01 -5.967500e+00 -4.675000e-01
   endloop
 endfacet
 facet normal  0.000000e+00 -1.000000e+00  0.000000e+00
   outer loop
     vertex -5.325000e-01 -5.967500e+00 -4.675000e-01
     vertex -5.325000e-01 -5.967500e+00  4.675000e-01
     vertex -9.675000e-01 -5.967500e+00  4.675000e-01
   endloop
 endfacet
 facet normal -0.000000e+00  0.000000e+00 -1.000000e+00
   outer loop
     vertex -5.325000e-01 -4.032500e+00 -4.675000e-01
     vertex -9.675000e-01 -5.967500e+00 -4.675000e-01
     vertex -9.675000e-01 -4.032500e+00 -4.675000e-01
   endloop
 endfacet
 facet normal  0.000000e+00 -0.000000e+00 -1.000000e+00
   outer loop
     vertex -5.325000e-01 -4.032500e+00 -4.675000e-01
     vertex -5.325000e-01 -5.967500e+00 -4.675000e-01
     vertex -9.675000e-01 -5.967500e+00 -4.675000e-01
   endloop
 endfacet
 facet normal  1.000000e+00  0.000000e+00  0.000000e+00
   outer loop
     vertex -5.325000e-01 -4.032500e+00  4.675000e-01
     vertex -5.325000e-01 -5.967500e+00  4.675000e-01
     vertex -5.325000e-01 -5.967500e+00 -4.675000e-01
   endloop
 endfacet
 facet normal  1.000000e+00  0.000000e+00  0.000000e+00
   outer loop
     vertex -5.325000e-01 -4.032500e+00  4.675000e-01
     vertex -5.325000e-01 -5.967500e+00 -4.675000e-01
     vertex -5.325000e-01 -4.032500e+00 -4.675000e-01
   endloop
 endfacet
 facet normal  0.000000e+00  0.000000e+00  1.000000e+00
   outer loop
     vertex -5.325000e-01 -4.032500e+00  4.675000e-01
     vertex -9.675000e-01 -4.032500e+00  4.675000e-01
     vertex -9.675000e-01 -5.967500e+00  4.675000e-01
   endloop
 endfacet
 facet normal  0.000000e+00  0.000000e+00  1.000000e+00
   outer loop
     vertex -5.325000e-01 -4.032500e+00  4.675000e-01
     vertex -9.675000e-01 -5.967500e+00  4.675000e-01
     vertex -5.325000e-01 -5.967500e+00  4.675000e-01
   endloop
 endfacet
 facet normal -1.000000e+00 -0.000000e+00  0.000000e+00
   outer loop
     vertex -9.675000e-01 -4.032500e+00  4.675000e-01
     vertex -9.675000e-01 -5.967500e+00 -4.675000e-01
     vertex -9.675000e-01 -5.967500e+00  4.675000e-01
   endloop
 endfacet
 facet normal -1.000000e+00  0.000000e+00 -0.000000e+00
   outer loop
     vertex -9.675000e-01 -4.032500e+00  4.675000e-01
     vertex -9.675000e-01 -4.032500e+00 -4.675000e-01
     vertex -9.675000e-01 -5.967500e+00 -4.675000e-01
   endloop
 endfacet
 facet normal  0.000000e+00  1.000000e+00  0.000000e+00
   outer loop
     vertex -5.325000e-01 -4.032500e+00 -4.675000e-01
     vertex -9.675000e-01 -4.032500e+00 -4.675000e-01
     vertex -9.675000e-01 -4.032500e+00  4.675000e-01
   endloop
 endfacet
 facet normal  0.000000e+00  1.000000e+00 -0.000000e+00
   outer loop
     vertex -5.325000e-01 -4.032500e+00 -4.675000e-01
     vertex -9.675000e-01 -4.032500e+00  4.675000e-01
     vertex -5.325000e-01 -4.032500e+00  4.675000e-01
   endloop
 endfacet
 facet normal  0.000000e+00  0.000000e+00  1.000000e+00
   outer loop
     vertex -1.032500e+00 -5.967500e+00  4.675000e-01
     vertex -1.467500e+00 -5.032500e+00  4.675000e-01
     vertex -1.467500e+00 -5.967500e+00  4.675000e-01
   endloop
 endfacet
 facet normal  0.000000e+00 -0.000000e+00  1.000000e+00
   outer loop
     vertex -1.032500e+00 -5.967500e+00  4.675000e-01
     vertex -1.032500e+00 -5.032500e+00  4.675000e-01
     vertex -1.467500e+00 -5.032500e+00  4.675000e-01
   endloop
 endfacet
 facet normal  0.000000e+00 -1.000000e+00  0.000000e+00
   outer loop
     vertex -1.032500e+00 -5.967500e+00 -1.467500e+00
     vertex -1.467500e+00 -5.967500e+00  4.675000e-01
     vertex -1.467500e+00 -5.967500e+00 -1.467500e+00
   endloop
 endfacet
 facet normal  0.000000e+00 -1.000000e+00  0.000000e+00
   outer loop
     vertex -1.032500e+00 -5.967500e+00 -1.467500e+00
     vertex -1.032500e+00 -5.967500e+00  4.675000e-01
     vertex -1.467500e+00 -5.967500e+00  4.675000e-01
   endloop
 endfacet
 facet normal  1.000000e+00  0.000000e+00 -0.000000e+00
   outer loop
     vertex -1.032500e+00 -5.032500e+00 -1.467500e+00
     vertex -1.032500e+00 -5.032500e+00  4.675000e-01
     vertex -1.032500e+00 -5.967500e+00  4.675000e-01
   endloop
 endfacet
 facet normal  1.000000e+00  0.000000e+00  0.000000e+00
   outer loop
     vertex -1.032500e+00 -5.032500e+00 -1.467500e+00
     vertex -1.032500e+00 -5.967500e+00  4.675000e-01
     vertex -1.032500e+00 -5.967500e+00 -1.467500e+00
   endloop
 endfacet
 facet normal  0.000000e+00  1.000000e+00  0.000000e+00
   outer loop
     vertex -1.032500e+00 -5.032500e+00 -1.467500e+00
     vertex -1.467500e+00 -5.032500e+00 -1.467500e+00
     vertex -1.467500e+00 -5.032500e+00  4.675000e-01
   endloop
 endfacet
 facet normal  0.000000e+00  1.000000e+00 -0.000000e+00
   outer loop
     vertex -1.032500e+00 -5.032500e+00 -1.467500e+00
     vertex -1.467500e+00 -5.032500e+00  4.675000e-01
     vertex -1.032500e+00 -5.032500e+00  4.675000e-01
   endloop
 endfacet
 facet normal -1.000000e+00  0.000000e+00  0.000000e+00
   outer loop
     vertex -1.467500e+00 -5.032500e+00 -1.467500e+00
     vertex -1.467500e+00 -5.967500e+00  4.675000e-01
     vertex -1.467500e+00 -5.032500e+00  4.675000e-01
   endloop
 endfacet
 facet normal -1.000000e+00  0.000000e+00  0.000000e+00
   outer loop
     vertex -1.467500e+00 -5.032500e+00 -1.467500e+00
     vertex -1.467500e+00 -5.967500e+00 -1.467500e+00
     vertex -1.467500e+00 -5.967500e+00  4.675000e-01
   endloop
 endfacet
 facet normal  0.000000e+00  0.000000e+00 -1.000000e+00
   outer loop
     vertex -1.032500e+00 -5.967500e+00 -1.467500e+00
     vertex -1.467500e+00 -5.967500e+00 -1.467500e+00
     vertex -1.467500e+00 -5.032500e+00 -1.467500e+00
   endloop
 endfacet
 facet normal  0.000000e+00  0.000000e+00 -1.000000e+00
   outer loop
     vertex -1.032500e+00 -5.967500e+00 -1.467500e+00
     vertex -1.467500e+00 -5.032500e+00 -1.467500e+00
     vertex -1.032500e+00 -5.032500e+00 -1.467500e+00
   endloop
 endfacet
 facet normal  0.000000e+00 -1.000000e+00  0.000000e+00
   outer loop
     vertex -1.532500e+00 -5.967500e+00 -4.675000e-01
     vertex -1.967500e+00 -5.967500e+00  4.675000e-01
     vertex -1.967500e+00 -5.967500e+00 -4.675000e-01
   endloop
 endfacet
 facet normal  0.000000e+00 -1.000000e+00  0.000000e+00
   outer loop
     vertex -1.532500e+00 -5.967500e+00 -4.675000e-01
     vertex -1.532500e+00 -5.967500e+00  4.675000e-01
     vertex -1.967500e+00 -5.967500e+00  4.675000e-01
   endloop
 endfacet
 facet normal -0.000000e+00  0.000000e+00 -1.000000e+00
   outer loop
     vertex -1.532500e+00 -4.032500e+00 -4.675000e-01
     vertex -1.967500e+00 -5.967500e+00 -4.675000e-01
     vertex -1.967500e+00 -4.032500e+00 -4.675000e-01
   endloop
 endfacet
 facet normal  0.000000e+00 -0.000000e+00 -1.000000e+00
   outer loop
     vertex -1.532500e+00 -4.032500e+00 -4.675000e-01
     vertex -1.532500e+00 -5.967500e+00 -4.675000e-01
     vertex -1.967500e+00 -5.967500e+00 -4.675000e-01
   endloop
 endfacet
 facet normal  1.000000e+00  0.000000e+00  0.000000e+00
   outer loop
     vertex -1.532500e+00 -4.032500e+00  4.675000e-01
     vertex -1.532500e+00 -5.967500e+00  4.675000e-01
     vertex -1.532500e+00 -5.967500e+00 -4.675000e-01
   endloop
 endfacet
 facet normal  1.000000e+00  0.000000e+00  0.000000e+00
   outer loop
     vertex -1.532500e+00 -4.032500e+00  4.675000e-01
     vertex -1.532500e+00 -5.967500e+00 -4.675000e-01
     vertex -1.532500e+00 -4.032500e+00 -4.675000e-01
   endloop
 endfacet
 facet normal  0.000000e+00  0.000000e+00  1.000000e+00
   outer loop
     vertex -1.532500e+00 -4.032500e+00  4.675000e-01
     vertex -1.967500e+00 -4.032500e+00  4.675000e-01
     vertex -1.967500e+00 -5.967500e+00  4.675000e-01
   endloop
 endfacet
 facet normal  0.000000e+00  0.000000e+00  1.000000e+00
   outer loop
     vertex -1.532500e+00 -4.032500e+00  4.675000e-01
     vertex -1.967500e+00 -5.967500e+00  4.675000e-01
     vertex -1.532500e+00 -5.967500e+00  4.675000e-01
   endloop
 endfacet
 facet normal -1.000000e+00 -0.000000e+00  0.000000e+00
   outer loop
     vertex -1.967500e+00 -4.032500e+00  4.675000e-01
     vertex -1.967500e+00 -5.967500e+00 -4.675000e-01
     vertex -1.967500e+00 -5.967500e+00  4.675000e-01
   endloop
 endfacet
 facet normal -1.000000e+00  0.000000e+00 -0.000000e+00
   outer loop
     vertex -1.967500e+00 -4.032500e+00  4.675000e-01
     vertex -1.967500e+00 -4.032500e+00 -4.675000e-01
     vertex -1.967500e+00 -5.967500e+00 -4.675000e-01
   endloop
 endfacet
 facet normal  0.000000e+00  1.000000e+00  0.000000e+00
   outer loop
     vertex -1.532500e+00 -4.032500e+00 -4.675000e-01
     vertex -1.967500e+00 -4.032500e+00 -4.675000e-01
     vertex -1.967500e+00 -4.032500e+00  4.675000e-01
   endloop
 endfacet
 facet normal  0.000000e+00  1.000000e+00 -0.000000e+00
   outer loop
     vertex -1.532500e+00 -4.032500e+00 -4.675000e-01
     vertex -1.967500e+00 -4.032500e+00  4.675000e-01
     vertex -1.532500e+00 -4.032500e+00  4.675000e-01
   endloop
 endfacet
 facet normal  0.000000e+00  0.000000e+00  1.000000e+00
   outer loop
     vertex -2.032500e+00 -5.967500e+00  4.675000e-01
     vertex -2.467500e+00 -5.032500e+00  4.675000e-01
     vertex -2.467500e+00 -5.967500e+00  4.675000e-01
   endloop
 endfacet
 facet normal  0.000000e+00 -0.000000e+00  1.000000e+00
   outer loop
     vertex -2.032500e+00 -5.967500e+00  4.675000e-01
     vertex -2.032500e+00 -5.032500e+00  4.675000e-01
     vertex -2.467500e+00 -5.032500e+00  4.675000e-01
   endloop
 endfacet
 facet normal  0.000000e+00 -1.000000e+00  0.000000e+00
   outer loop
     vertex -2.032500e+00 -5.967500e+00 -1.467500e+00
     vertex -2.467500e+00 -5.967500e+00  4.675000e-01
     vertex -2.467500e+00 -5.967500e+00 -1.467500e+00
   endloop
 endfacet
 facet normal  0.000000e+00 -1.000000e+00  0.000000e+00
   outer loop
     vertex -2.032500e+00 -5.967500e+00 -1.467500e+00
     vertex -2.032500e+00 -5.967500e+00  4.675000e-01
     vertex -2.467500e+00 -5.967500e+00  4.675000e-01
   endloop
 endfacet
 facet normal  1.000000e+00  0.000000e+00 -0.000000e+00
   outer loop
     vertex -2.032500e+00 -5.032500e+00 -1.467500e+00
     vertex -2.032500e+00 -5.032500e+00  4.675000e-01
     vertex -2.032500e+00 -5.967500e+00  4.675000e-01
   endloop
 endfacet
 facet normal  1.000000e+00  0.000000e+00  0.000000e+00
   outer loop
     vertex -2.032500e+00 -5.032500e+00 -1.467500e+00
     vertex -2.032500e+00 -5.967500e+00  4.675000e-01
     vertex -2.032500e+00 -5.967500e+00 -1.467500e+00
   endloop
 endfacet
 facet normal  0.000000e+00  1.000000e+00  0.000000e+00
   outer loop
     vertex -2.032500e+00 -5.032500e+00 -1.467500e+00
     vertex -2.467500e+00 -5.032500e+00 -1.467500e+00
     vertex -2.467500e+00 -5.032500e+00  4.675000e-01
   endloop
 endfacet
 facet normal  0.000000e+00  1.000000e+00 -0.000000e+00
   outer loop
     vertex -2.032500e+00 -5.032500e+00 -1.467500e+00
     vertex -2.467500e+00 -5.032500e+00  4.675000e-01
     vertex -2.032500e+00 -5.032500e+00  4.675000e-01
   endloop
 endfacet
 facet normal -1.000000e+00  0.000000e+00  0.000000e+00
   outer loop
     vertex -2.467500e+00 -5.032500e+00 -1.467500e+00
     vertex -2.467500e+00 -5.967500e+00  4.675000e-01
     vertex -2.467500e+00 -5.032500e+00  4.675000e-01
   endloop
 endfacet
 facet normal -1.000000e+00  0.000000e+00  0.000000e+00
   outer loop
     vertex -2.467500e+00 -5.032500e+00 -1.467500e+00
     vertex -2.467500e+00 -5.967500e+00 -1.467500e+00
     vertex -2.467500e+00 -5.967500e+00  4.675000e-01
   endloop
 endfacet
 facet normal  0.000000e+00  0.000000e+00 -1.000000e+00
   outer loop
     vertex -2.032500e+00 -5.967500e+00 -1.467500e+00
     vertex -2.467500e+00 -5.967500e+00 -1.467500e+00
     vertex -2.467500e+00 -5.032500e+00 -1.467500e+00
   endloop
 endfacet
 facet normal  0.000000e+00  0.000000e+00 -1.000000e+00
   outer loop
     vertex -2.032500e+00 -5.967500e+00 -1.467500e+00
     vertex -2.467500e+00 -5.032500e+00 -1.467500e+00
     vertex -2.032500e+00 -5.032500e+00 -1.467500e+00
   endloop
 endfacet
endsolid
