solid 
 facet normal  9.126678e-01  2.955202e-01 -2.823212e-01
   outer loop
     vertex -1.067567e+00 -6.181564e+00  8.195936e-01
     vertex -1.073309e+00 -6.597136e+00  3.660327e-01
     vertex -1.196118e+00 -6.181564e+00  4.040222e-01
   endloop
 endfacet
 facet normal  9.126678e-01  2.955202e-01 -2.823212e-01
   outer loop
     vertex -1.067567e+00 -6.181564e+00  8.195936e-01
     vertex -9.447574e-01 -6.597136e+00  7.816041e-01
     vertex -1.073309e+00 -6.597136e+00  3.660327e-01
   endloop
 endfacet
 facet normal -9.126678e-01 -2.955202e-01  2.823212e-01
   outer loop
     vertex -2.833579e+00 -6.753396e+00  1.365885e+00
     vertex -2.962131e+00 -6.753396e+00  9.503138e-01
     vertex -2.839321e+00 -7.168967e+00  9.123243e-01
   endloop
 endfacet
 facet normal -9.126678e-01 -2.955202e-01  2.823212e-01
   outer loop
     vertex -2.833579e+00 -6.753396e+00  1.365885e+00
     vertex -2.839321e+00 -7.168967e+00  9.123243e-01
     vertex -2.710770e+00 -7.168967e+00  1.327896e+00
   endloop
 endfacet
 facet normal -2.823212e-01  9.553365e-01  8.733219e-02
   outer loop
     vertex -2.833579e+00 -6.753396e+00  1.365885e+00
     vertex -1.196118e+00 -6.181564e+00  4.040222e-01
     vertex -2.962131e+00 -6.753396e+00  9.503138e-01
   endloop
 endfacet
 facet normal -2.823212e-01  9.553365e-01  8.733219e-02
   outer loop
     vertex -2.833579e+00 -6.753396e+00  1.365885e+00
     vertex -1.067567e+00 -6.181564e+00  8.195936e-01
     vertex -1.196118e+00 -6.181564e+00  4.040222e-01
   endloop
 endfacet
 facet normal  2.823212e-01 -9.553365e-01 -8.733219e-02
   outer loop
     vertex -2.710770e+00 -7.168967e+00  1.327896e+00
     vertex -2.839321e+00 -7.168967e+00  9.123243e-01
     vertex -1.073309e+00 -6.597136e+00  3.660327e-01
   endloop
 endfacet
 facet normal  2.823212e-01 -9.553365e-01 -8.733219e-02
   outer loop
     vertex -2.710770e+00 -7.168967e+00  1.327896e+00
     vertex -1.073309e+00 -6.597136e+00  3.660327e-01
     vertex -9.447574e-01 -6.597136e+00  7.816041e-01
   endloop
 endfacet
 facet normal -2.955202e-01 -1.318985e-16 -9.553365e-01
   outer loop
     vertex -2.839321e+00 -7.168967e+00  9.123243e-01
     vertex -1.196118e+00 -6.181564e+00  4.040222e-01
     vertex -1.073309e+00 -6.597136e+00  3.660327e-01
   endloop
 endfacet
 facet normal -2.955202e-01  2.390661e-16 -9.553365e-01
   outer loop
     vertex -2.839321e+00 -7.168967e+00  9.123243e-01
     vertex -2.962131e+00 -6.753396e+00  9.503138e-01
     vertex -1.196118e+00 -6.181564e+00  4.040222e-01
   endloop
 endfacet
 facet normal  2.955202e-01 -5.275942e-16  9.553365e-01
   outer loop
     vertex -2.710770e+00 -7.168967e+00  1.327896e+00
     vertex -9.447574e-01 -6.597136e+00  7.816041e-01
     vertex -1.067567e+00 -6.181564e+00  8.195936e-01
   endloop
 endfacet
 facet normal  2.955202e-01 -9.974827e-16  9.553365e-01
   outer loop
     vertex -2.710770e+00 -7.168967e+00  1.327896e+00
     vertex -1.067567e+00 -6.181564e+00  8.195936e-01
     vertex -2.833579e+00 -6.753396e+00  1.365885e+00
   endloop
 endfacet
 facet normal  9.126678e-01  2.955202e-01 -2.823212e-01
   outer loop
     vertex -1.349888e+00 -5.226228e+00  9.069258e-01
     vertex -1.214469e+00 -6.119467e+00  4.096988e-01
     vertex -1.478440e+00 -5.226228e+00  4.913544e-01
   endloop
 endfacet
 facet normal  9.126678e-01  2.955202e-01 -2.823212e-01
   outer loop
     vertex -1.349888e+00 -5.226228e+00  9.069258e-01
     vertex -1.085918e+00 -6.119467e+00  8.252702e-01
     vertex -1.214469e+00 -6.119467e+00  4.096988e-01
   endloop
 endfacet
 facet normal -9.126678e-01 -2.955202e-01  2.823212e-01
   outer loop
     vertex -3.115901e+00 -5.798059e+00  1.453217e+00
     vertex -3.244452e+00 -5.798059e+00  1.037646e+00
     vertex -2.980482e+00 -6.691299e+00  9.559904e-01
   endloop
 endfacet
 facet normal -9.126678e-01 -2.955202e-01  2.823212e-01
   outer loop
     vertex -3.115901e+00 -5.798059e+00  1.453217e+00
     vertex -2.980482e+00 -6.691299e+00  9.559904e-01
     vertex -2.851930e+00 -6.691299e+00  1.371562e+00
   endloop
 endfacet
 facet normal -2.823212e-01  9.553365e-01  8.733219e-02
   outer loop
     vertex -3.115901e+00 -5.798059e+00  1.453217e+00
     vertex -1.478440e+00 -5.226228e+00  4.913544e-01
     vertex -3.244452e+00 -5.798059e+00  1.037646e+00
   endloop
 endfacet
 facet normal -2.823212e-01  9.553365e-01  8.733219e-02
   outer loop
     vertex -3.115901e+00 -5.798059e+00  1.453217e+00
     vertex -1.349888e+00 -5.226228e+00  9.069258e-01
     vertex -1.478440e+00 -5.226228e+00  4.913544e-01
   endloop
 endfacet
 facet normal  2.823212e-01 -9.553365e-01 -8.733219e-02
   outer loop
     vertex -2.851930e+00 -6.691299e+00  1.371562e+00
     vertex -2.980482e+00 -6.691299e+00  9.559904e-01
     vertex -1.214469e+00 -6.119467e+00  4.096988e-01
   endloop
 endfacet
 facet normal  2.823212e-01 -9.553365e-01 -8.733219e-02
   outer loop
     vertex -2.851930e+00 -6.691299e+00  1.371562e+00
     vertex -1.214469e+00 -6.119467e+00  4.096988e-01
     vertex -1.085918e+00 -6.119467e+00  8.252702e-01
   endloop
 endfacet
 facet normal -2.955202e-01 -6.136456e-17 -9.553365e-01
   outer loop
     vertex -2.980482e+00 -6.691299e+00  9.559904e-01
     vertex -1.478440e+00 -5.226228e+00  4.913544e-01
     vertex -1.214469e+00 -6.119467e+00  4.096988e-01
   endloop
 endfacet
 facet normal -2.955202e-01  2.301171e-16 -9.553365e-01
   outer loop
     vertex -2.980482e+00 -6.691299e+00  9.559904e-01
     vertex -3.244452e+00 -5.798059e+00  1.037646e+00
     vertex -1.478440e+00 -5.226228e+00  4.913544e-01
   endloop
 endfacet
 facet normal  2.955202e-01 -1.227291e-16  9.553365e-01
   outer loop
     vertex -2.851930e+00 -6.691299e+00  1.371562e+00
     vertex -1.085918e+00 -6.119467e+00  8.252702e-01
     vertex -1.349888e+00 -5.226228e+00  9.069258e-01
   endloop
 endfacet
 facet normal  2.955202e-01 -2.377877e-16  9.553365e-01
   outer loop
     vertex -2.851930e+00 -6.691299e+00  1.371562e+00
     vertex -1.349888e+00 -5.226228e+00  9.069258e-01
     vertex -3.115901e+00 -5.798059e+00  1.453217e+00
   endloop
 endfacet
 facet normal  9.126678e-01  2.955202e-01 -2.823212e-01
   outer loop
     vertex  6.233775e+00 -3.817402e+00 -1.438976e+00
     vertex  6.228034e+00 -4.232974e+00 -1.892537e+00
     vertex  6.105224e+00 -3.817402e+00 -1.854548e+00
   endloop
 endfacet
 facet normal  9.126678e-01  2.955202e-01 -2.823212e-01
   outer loop
     vertex  6.233775e+00 -3.817402e+00 -1.438976e+00
     vertex  6.356585e+00 -4.232974e+00 -1.476966e+00
     vertex  6.228034e+00 -4.232974e+00 -1.892537e+00
   endloop
 endfacet
 facet normal -9.126678e-01 -2.955202e-01  2.823212e-01
   outer loop
     vertex  4.467763e+00 -4.389234e+00 -8.926847e-01
     vertex  4.339212e+00 -4.389234e+00 -1.308256e+00
     vertex  4.462022e+00 -4.804805e+00 -1.346246e+00
   endloop
 endfacet
 facet normal -9.126678e-01 -2.955202e-01  2.823212e-01
   outer loop
     vertex  4.467763e+00 -4.389234e+00 -8.926847e-01
     vertex  4.462022e+00 -4.804805e+00 -1.346246e+00
     vertex  4.590573e+00 -4.804805e+00 -9.306742e-01
   endloop
 endfacet
 facet normal -2.823212e-01  9.553365e-01  8.733219e-02
   outer loop
     vertex  4.467763e+00 -4.389234e+00 -8.926847e-01
     vertex  6.105224e+00 -3.817402e+00 -1.854548e+00
     vertex  4.339212e+00 -4.389234e+00 -1.308256e+00
   endloop
 endfacet
 facet normal -2.823212e-01  9.553365e-01  8.733219e-02
   outer loop
     vertex  4.467763e+00 -4.389234e+00 -8.926847e-01
     vertex  6.233775e+00 -3.817402e+00 -1.438976e+00
     vertex  6.105224e+00 -3.817402e+00 -1.854548e+00
   endloop
 endfacet
 facet normal  2.823212e-01 -9.553365e-01 -8.733219e-02
   outer loop
     vertex  4.590573e+00 -4.804805e+00 -9.306742e-01
     vertex  4.462022e+00 -4.804805e+00 -1.346246e+00
     vertex  6.228034e+00 -4.232974e+00 -1.892537e+00
   endloop
 endfacet
 facet normal  2.823212e-01 -9.553365e-01 -8.733219e-02
   outer loop
     vertex  4.590573e+00 -4.804805e+00 -9.306742e-01
     vertex  6.228034e+00 -4.232974e+00 -1.892537e+00
     vertex  6.356585e+00 -4.232974e+00 -1.476966e+00
   endloop
 endfacet
 facet normal -2.955202e-01 -1.318985e-16 -9.553365e-01
   outer loop
     vertex  4.462022e+00 -4.804805e+00 -1.346246e+00
     vertex  6.105224e+00 -3.817402e+00 -1.854548e+00
     vertex  6.228034e+00 -4.232974e+00 -1.892537e+00
   endloop
 endfacet
 facet normal -2.955202e-01 -6.677364e-16 -9.553365e-01
   outer loop
     vertex  4.462022e+00 -4.804805e+00 -1.346246e+00
     vertex  4.339212e+00 -4.389234e+00 -1.308256e+00
     vertex  6.105224e+00 -3.817402e+00 -1.854548e+00
   endloop
 endfacet
 facet normal  2.955202e-01  1.318985e-16  9.553365e-01
   outer loop
     vertex  4.590573e+00 -4.804805e+00 -9.306742e-01
     vertex  6.356585e+00 -4.232974e+00 -1.476966e+00
     vertex  6.233775e+00 -3.817402e+00 -1.438976e+00
   endloop
 endfacet
 facet normal  2.955202e-01 -3.462337e-16  9.553365e-01
   outer loop
     vertex  4.590573e+00 -4.804805e+00 -9.306742e-01
     vertex  6.233775e+00 -3.817402e+00 -1.438976e+00
     vertex  4.467763e+00 -4.389234e+00 -8.926847e-01
   endloop
 endfacet
 facet normal  9.126678e-01  2.955202e-01 -2.823212e-01
   outer loop
     vertex  5.386812e+00 -9.513930e-01 -1.176980e+00
     vertex  5.522231e+00 -1.844633e+00 -1.674207e+00
     vertex  5.258260e+00 -9.513930e-01 -1.592551e+00
   endloop
 endfacet
 facet normal  9.126678e-01  2.955202e-01 -2.823212e-01
   outer loop
     vertex  5.386812e+00 -9.513930e-01 -1.176980e+00
     vertex  5.650782e+00 -1.844633e+00 -1.258635e+00
     vertex  5.522231e+00 -1.844633e+00 -1.674207e+00
   endloop
 endfacet
 facet normal -9.126678e-01 -2.955202e-01  2.823212e-01
   outer loop
     vertex  3.620799e+00 -1.523225e+00 -6.306881e-01
     vertex  3.492248e+00 -1.523225e+00 -1.046259e+00
     vertex  3.756218e+00 -2.416464e+00 -1.127915e+00
   endloop
 endfacet
 facet normal -9.126678e-01 -2.955202e-01  2.823212e-01
   outer loop
     vertex  3.620799e+00 -1.523225e+00 -6.306881e-01
     vertex  3.756218e+00 -2.416464e+00 -1.127915e+00
     vertex  3.884770e+00 -2.416464e+00 -7.123437e-01
   endloop
 endfacet
 facet normal -2.823212e-01  9.553365e-01  8.733219e-02
   outer loop
     vertex  3.620799e+00 -1.523225e+00 -6.306881e-01
     vertex  5.258260e+00 -9.513930e-01 -1.592551e+00
     vertex  3.492248e+00 -1.523225e+00 -1.046259e+00
   endloop
 endfacet
 facet normal -2.823212e-01  9.553365e-01  8.733219e-02
   outer loop
     vertex  3.620799e+00 -1.523225e+00 -6.306881e-01
     vertex  5.386812e+00 -9.513930e-01 -1.176980e+00
     vertex  5.258260e+00 -9.513930e-01 -1.592551e+00
   endloop
 endfacet
 facet normal  2.823212e-01 -9.553365e-01 -8.733219e-02
   outer loop
     vertex  3.884770e+00 -2.416464e+00 -7.123437e-01
     vertex  3.756218e+00 -2.416464e+00 -1.127915e+00
     vertex  5.522231e+00 -1.844633e+00 -1.674207e+00
   endloop
 endfacet
 facet normal  2.823212e-01 -9.553365e-01 -8.733219e-02
   outer loop
     vertex  3.884770e+00 -2.416464e+00 -7.123437e-01
     vertex  5.522231e+00 -1.844633e+00 -1.674207e+00
     vertex  5.650782e+00 -1.844633e+00 -1.258635e+00
   endloop
 endfacet
 facet normal -2.955202e-01  1.227291e-16 -9.553365e-01
   outer loop
     vertex  3.756218e+00 -2.416464e+00 -1.127915e+00
     vertex  5.258260e+00 -9.513930e-01 -1.592551e+00
     vertex  5.522231e+00 -1.844633e+00 -1.674207e+00
   endloop
 endfacet
 facet normal -2.955202e-01 -1.610820e-16 -9.553365e-01
   outer loop
     vertex  3.756218e+00 -2.416464e+00 -1.127915e+00
     vertex  3.492248e+00 -1.523225e+00 -1.046259e+00
     vertex  5.258260e+00 -9.513930e-01 -1.592551e+00
   endloop
 endfacet
 facet normal  2.955202e-01 -3.068228e-16  9.553365e-01
   outer loop
     vertex  3.884770e+00 -2.416464e+00 -7.123437e-01
     vertex  5.650782e+00 -1.844633e+00 -1.258635e+00
     vertex  5.386812e+00 -9.513930e-01 -1.176980e+00
   endloop
 endfacet
 facet normal  2.955202e-01 -4.448931e-16  9.553365e-01
   outer loop
     vertex  3.884770e+00 -2.416464e+00 -7.123437e-01
     vertex  5.386812e+00 -9.513930e-01 -1.176980e+00
     vertex  3.620799e+00 -1.523225e+00 -6.306881e-01
   endloop
 endfacet
 facet normal  9.126678e-01  2.955202e-01 -2.823212e-01
   outer loop
     vertex  5.669133e+00 -1.906730e+00 -1.264312e+00
     vertex  5.804552e+00 -2.799969e+00 -1.761539e+00
     vertex  5.540582e+00 -1.906730e+00 -1.679883e+00
   endloop
 endfacet
 facet normal  9.126678e-01  2.955202e-01 -2.823212e-01
   outer loop
     vertex  5.669133e+00 -1.906730e+00 -1.264312e+00
     vertex  5.933103e+00 -2.799969e+00 -1.345968e+00
     vertex  5.804552e+00 -2.799969e+00 -1.761539e+00
   endloop
 endfacet
 facet normal -9.126678e-01 -2.955202e-01  2.823212e-01
   outer loop
     vertex  3.903121e+00 -2.478561e+00 -7.180203e-01
     vertex  3.774569e+00 -2.478561e+00 -1.133592e+00
     vertex  4.038540e+00 -3.371801e+00 -1.215247e+00
   endloop
 endfacet
 facet normal -9.126678e-01 -2.955202e-01  2.823212e-01
   outer loop
     vertex  3.903121e+00 -2.478561e+00 -7.180203e-01
     vertex  4.038540e+00 -3.371801e+00 -1.215247e+00
     vertex  4.167091e+00 -3.371801e+00 -7.996759e-01
   endloop
 endfacet
 facet normal -2.823212e-01  9.553365e-01  8.733219e-02
   outer loop
     vertex  3.903121e+00 -2.478561e+00 -7.180203e-01
     vertex  5.540582e+00 -1.906730e+00 -1.679883e+00
     vertex  3.774569e+00 -2.478561e+00 -1.133592e+00
   endloop
 endfacet
 facet normal -2.823212e-01  9.553365e-01  8.733219e-02
   outer loop
     vertex  3.903121e+00 -2.478561e+00 -7.180203e-01
     vertex  5.669133e+00 -1.906730e+00 -1.264312e+00
     vertex  5.540582e+00 -1.906730e+00 -1.679883e+00
   endloop
 endfacet
 facet normal  2.823212e-01 -9.553365e-01 -8.733219e-02
   outer loop
     vertex  4.167091e+00 -3.371801e+00 -7.996759e-01
     vertex  4.038540e+00 -3.371801e+00 -1.215247e+00
     vertex  5.804552e+00 -2.799969e+00 -1.761539e+00
   endloop
 endfacet
 facet normal  2.823212e-01 -9.553365e-01 -8.733219e-02
   outer loop
     vertex  4.167091e+00 -3.371801e+00 -7.996759e-01
     vertex  5.804552e+00 -2.799969e+00 -1.761539e+00
     vertex  5.933103e+00 -2.799969e+00 -1.345968e+00
   endloop
 endfacet
 facet normal -2.955202e-01  1.227291e-16 -9.553365e-01
   outer loop
     vertex  4.038540e+00 -3.371801e+00 -1.215247e+00
     vertex  5.540582e+00 -1.906730e+00 -1.679883e+00
     vertex  5.804552e+00 -2.799969e+00 -1.761539e+00
   endloop
 endfacet
 facet normal -2.955202e-01  3.068228e-17 -9.553365e-01
   outer loop
     vertex  4.038540e+00 -3.371801e+00 -1.215247e+00
     vertex  3.774569e+00 -2.478561e+00 -1.133592e+00
     vertex  5.540582e+00 -1.906730e+00 -1.679883e+00
   endloop
 endfacet
 facet normal  2.955202e-01 -2.454583e-16  9.553365e-01
   outer loop
     vertex  4.167091e+00 -3.371801e+00 -7.996759e-01
     vertex  5.933103e+00 -2.799969e+00 -1.345968e+00
     vertex  5.669133e+00 -1.906730e+00 -1.264312e+00
   endloop
 endfacet
 facet normal  2.955202e-01 -4.602342e-16  9.553365e-01
   outer loop
     vertex  4.167091e+00 -3.371801e+00 -7.996759e-01
     vertex  5.669133e+00 -1.906730e+00 -1.264312e+00
     vertex  3.903121e+00 -2.478561e+00 -7.180203e-01
   endloop
 endfacet
 facet normal  9.126678e-01  2.955202e-01 -2.823212e-01
   outer loop
     vertex  5.951454e+00 -2.862066e+00 -1.351644e+00
     vertex  6.086873e+00 -3.755306e+00 -1.848871e+00
     vertex  5.822903e+00 -2.862066e+00 -1.767215e+00
   endloop
 endfacet
 facet normal  9.126678e-01  2.955202e-01 -2.823212e-01
   outer loop
     vertex  5.951454e+00 -2.862066e+00 -1.351644e+00
     vertex  6.215424e+00 -3.755306e+00 -1.433300e+00
     vertex  6.086873e+00 -3.755306e+00 -1.848871e+00
   endloop
 endfacet
 facet normal -9.126678e-01 -2.955202e-01  2.823212e-01
   outer loop
     vertex  4.185442e+00 -3.433898e+00 -8.053525e-01
     vertex  4.056891e+00 -3.433898e+00 -1.220924e+00
     vertex  4.320861e+00 -4.327137e+00 -1.302579e+00
   endloop
 endfacet
 facet normal -9.126678e-01 -2.955202e-01  2.823212e-01
   outer loop
     vertex  4.185442e+00 -3.433898e+00 -8.053525e-01
     vertex  4.320861e+00 -4.327137e+00 -1.302579e+00
     vertex  4.449412e+00 -4.327137e+00 -8.870081e-01
   endloop
 endfacet
 facet normal -2.823212e-01  9.553365e-01  8.733219e-02
   outer loop
     vertex  4.185442e+00 -3.433898e+00 -8.053525e-01
     vertex  5.822903e+00 -2.862066e+00 -1.767215e+00
     vertex  4.056891e+00 -3.433898e+00 -1.220924e+00
   endloop
 endfacet
 facet normal -2.823212e-01  9.553365e-01  8.733219e-02
   outer loop
     vertex  4.185442e+00 -3.433898e+00 -8.053525e-01
     vertex  5.951454e+00 -2.862066e+00 -1.351644e+00
     vertex  5.822903e+00 -2.862066e+00 -1.767215e+00
   endloop
 endfacet
 facet normal  2.823212e-01 -9.553365e-01 -8.733219e-02
   outer loop
     vertex  4.449412e+00 -4.327137e+00 -8.870081e-01
     vertex  4.320861e+00 -4.327137e+00 -1.302579e+00
     vertex  6.086873e+00 -3.755306e+00 -1.848871e+00
   endloop
 endfacet
 facet normal  2.823212e-01 -9.553365e-01 -8.733219e-02
   outer loop
     vertex  4.449412e+00 -4.327137e+00 -8.870081e-01
     vertex  6.086873e+00 -3.755306e+00 -1.848871e+00
     vertex  6.215424e+00 -3.755306e+00 -1.433300e+00
   endloop
 endfacet
 facet normal -2.955202e-01  6.136456e-17 -9.553365e-01
   outer loop
     vertex  4.320861e+00 -4.327137e+00 -1.302579e+00
     vertex  5.822903e+00 -2.862066e+00 -1.767215e+00
     vertex  6.086873e+00 -3.755306e+00 -1.848871e+00
   endloop
 endfacet
 facet normal -2.955202e-01  6.136456e-17 -9.553365e-01
   outer loop
     vertex  4.320861e+00 -4.327137e+00 -1.302579e+00
     vertex  4.056891e+00 -3.433898e+00 -1.220924e+00
     vertex  5.822903e+00 -2.862066e+00 -1.767215e+00
   endloop
 endfacet
 facet normal  2.955202e-01 -4.295519e-16  9.553365e-01
   outer loop
     vertex  4.449412e+00 -4.327137e+00 -8.870081e-01
     vertex  6.215424e+00 -3.755306e+00 -1.433300e+00
     vertex  5.951454e+00 -2.862066e+00 -1.351644e+00
   endloop
 endfacet
 facet normal  2.955202e-01 -2.684700e-16  9.553365e-01
   outer loop
     vertex  4.449412e+00 -4.327137e+00 -8.870081e-01
     vertex  5.951454e+00 -2.862066e+00 -1.351644e+00
     vertex  4.185442e+00 -3.433898e+00 -8.053525e-01
   endloop
 endfacet
 facet normal  9.126678e-01  2.955202e-01 -2.823212e-01
   outer loop
     vertex -4.314261e+00  4.804805e+00  1.823914e+00
     vertex -4.178842e+00  3.911566e+00  1.326687e+00
     vertex -4.442813e+00  4.804805e+00  1.408342e+00
   endloop
 endfacet
 facet normal  9.126678e-01  2.955202e-01 -2.823212e-01
   outer loop
     vertex -4.314261e+00  4.804805e+00  1.823914e+00
     vertex -4.050291e+00  3.911566e+00  1.742258e+00
     vertex -4.178842e+00  3.911566e+00  1.326687e+00
   endloop
 endfacet
 facet normal -9.126678e-01 -2.955202e-01  2.823212e-01
   outer loop
     vertex -6.080274e+00  4.232974e+00  2.370205e+00
     vertex -6.208825e+00  4.232974e+00  1.954634e+00
     vertex -5.944855e+00  3.339734e+00  1.872978e+00
   endloop
 endfacet
 facet normal -9.126678e-01 -2.955202e-01  2.823212e-01
   outer loop
     vertex -6.080274e+00  4.232974e+00  2.370205e+00
     vertex -5.944855e+00  3.339734e+00  1.872978e+00
     vertex -5.816303e+00  3.339734e+00  2.288550e+00
   endloop
 endfacet
 facet normal -2.823212e-01  9.553365e-01  8.733219e-02
   outer loop
     vertex -6.080274e+00  4.232974e+00  2.370205e+00
     vertex -4.442813e+00  4.804805e+00  1.408342e+00
     vertex -6.208825e+00  4.232974e+00  1.954634e+00
   endloop
 endfacet
 facet normal -2.823212e-01  9.553365e-01  8.733219e-02
   outer loop
     vertex -6.080274e+00  4.232974e+00  2.370205e+00
     vertex -4.314261e+00  4.804805e+00  1.823914e+00
     vertex -4.442813e+00  4.804805e+00  1.408342e+00
   endloop
 endfacet
 facet normal  2.823212e-01 -9.553365e-01 -8.733219e-02
   outer loop
     vertex -5.816303e+00  3.339734e+00  2.288550e+00
     vertex -5.944855e+00  3.339734e+00  1.872978e+00
     vertex -4.178842e+00  3.911566e+00  1.326687e+00
   endloop
 endfacet
 facet normal  2.823212e-01 -9.553365e-01 -8.733219e-02
   outer loop
     vertex -5.816303e+00  3.339734e+00  2.288550e+00
     vertex -4.178842e+00  3.911566e+00  1.326687e+00
     vertex -4.050291e+00  3.911566e+00  1.742258e+00
   endloop
 endfacet
 facet normal -2.955202e-01  2.454583e-16 -9.553365e-01
   outer loop
     vertex -5.944855e+00  3.339734e+00  1.872978e+00
     vertex -4.442813e+00  4.804805e+00  1.408342e+00
     vertex -4.178842e+00  3.911566e+00  1.326687e+00
   endloop
 endfacet
 facet normal -2.955202e-01 -1.227291e-16 -9.553365e-01
   outer loop
     vertex -5.944855e+00  3.339734e+00  1.872978e+00
     vertex -6.208825e+00  4.232974e+00  1.954634e+00
     vertex -4.442813e+00  4.804805e+00  1.408342e+00
   endloop
 endfacet
 facet normal  2.955202e-01 -2.454583e-16  9.553365e-01
   outer loop
     vertex -5.816303e+00  3.339734e+00  2.288550e+00
     vertex -4.050291e+00  3.911566e+00  1.742258e+00
     vertex -4.314261e+00  4.804805e+00  1.823914e+00
   endloop
 endfacet
 facet normal  2.955202e-01  3.068228e-17  9.553365e-01
   outer loop
     vertex -5.816303e+00  3.339734e+00  2.288550e+00
     vertex -4.314261e+00  4.804805e+00  1.823914e+00
     vertex -6.080274e+00  4.232974e+00  2.370205e+00
   endloop
 endfacet
 facet normal  9.126678e-01  2.955202e-01 -2.823212e-01
   outer loop
     vertex  2.987081e+00  7.168967e+00 -4.346561e-01
     vertex  3.122500e+00  6.275728e+00 -9.318830e-01
     vertex  2.858530e+00  7.168967e+00 -8.502274e-01
   endloop
 endfacet
 facet normal  9.126678e-01  2.955202e-01 -2.823212e-01
   outer loop
     vertex  2.987081e+00  7.168967e+00 -4.346561e-01
     vertex  3.251051e+00  6.275728e+00 -5.163117e-01
     vertex  3.122500e+00  6.275728e+00 -9.318830e-01
   endloop
 endfacet
 facet normal -9.126678e-01 -2.955202e-01  2.823212e-01
   outer loop
     vertex  1.221069e+00  6.597136e+00  1.116355e-01
     vertex  1.092518e+00  6.597136e+00 -3.039359e-01
     vertex  1.356488e+00  5.703896e+00 -3.855915e-01
   endloop
 endfacet
 facet normal -9.126678e-01 -2.955202e-01  2.823212e-01
   outer loop
     vertex  1.221069e+00  6.597136e+00  1.116355e-01
     vertex  1.356488e+00  5.703896e+00 -3.855915e-01
     vertex  1.485039e+00  5.703896e+00  2.997992e-02
   endloop
 endfacet
 facet normal -2.823212e-01  9.553365e-01  8.733219e-02
   outer loop
     vertex  1.221069e+00  6.597136e+00  1.116355e-01
     vertex  2.858530e+00  7.168967e+00 -8.502274e-01
     vertex  1.092518e+00  6.597136e+00 -3.039359e-01
   endloop
 endfacet
 facet normal -2.823212e-01  9.553365e-01  8.733219e-02
   outer loop
     vertex  1.221069e+00  6.597136e+00  1.116355e-01
     vertex  2.987081e+00  7.168967e+00 -4.346561e-01
     vertex  2.858530e+00  7.168967e+00 -8.502274e-01
   endloop
 endfacet
 facet normal  2.823212e-01 -9.553365e-01 -8.733219e-02
   outer loop
     vertex  1.485039e+00  5.703896e+00  2.997992e-02
     vertex  1.356488e+00  5.703896e+00 -3.855915e-01
     vertex  3.122500e+00  6.275728e+00 -9.318830e-01
   endloop
 endfacet
 facet normal  2.823212e-01 -9.553365e-01 -8.733219e-02
   outer loop
     vertex  1.485039e+00  5.703896e+00  2.997992e-02
     vertex  3.122500e+00  6.275728e+00 -9.318830e-01
     vertex  3.251051e+00  6.275728e+00 -5.163117e-01
   endloop
 endfacet
 facet normal -2.955202e-01  1.840937e-16 -9.553365e-01
   outer loop
     vertex  1.356488e+00  5.703896e+00 -3.855915e-01
     vertex  2.858530e+00  7.168967e+00 -8.502274e-01
     vertex  3.122500e+00  6.275728e+00 -9.318830e-01
   endloop
 endfacet
 facet normal -2.955202e-01  8.437627e-17 -9.553365e-01
   outer loop
     vertex  1.356488e+00  5.703896e+00 -3.855915e-01
     vertex  1.092518e+00  6.597136e+00 -3.039359e-01
     vertex  2.858530e+00  7.168967e+00 -8.502274e-01
   endloop
 endfacet
 facet normal  2.955202e-01  6.136456e-17  9.553365e-01
   outer loop
     vertex  1.485039e+00  5.703896e+00  2.997992e-02
     vertex  3.251051e+00  6.275728e+00 -5.163117e-01
     vertex  2.987081e+00  7.168967e+00 -4.346561e-01
   endloop
 endfacet
 facet normal  2.955202e-01 -9.204685e-17  9.553365e-01
   outer loop
     vertex  1.485039e+00  5.703896e+00  2.997992e-02
     vertex  2.987081e+00  7.168967e+00 -4.346561e-01
     vertex  1.221069e+00  6.597136e+00  1.116355e-01
   endloop
 endfacet
 facet normal  9.126678e-01  2.955202e-01 -2.823212e-01
   outer loop
     vertex  3.269402e+00  6.213631e+00 -5.219883e-01
     vertex  3.404821e+00  5.320391e+00 -1.019215e+00
     vertex  3.140851e+00  6.213631e+00 -9.375596e-01
   endloop
 endfacet
 facet normal  9.126678e-01  2.955202e-01 -2.823212e-01
   outer loop
     vertex  3.269402e+00  6.213631e+00 -5.219883e-01
     vertex  3.533373e+00  5.320391e+00 -6.036439e-01
     vertex  3.404821e+00  5.320391e+00 -1.019215e+00
   endloop
 endfacet
 facet normal -9.126678e-01 -2.955202e-01  2.823212e-01
   outer loop
     vertex  1.503390e+00  5.641799e+00  2.430332e-02
     vertex  1.374839e+00  5.641799e+00 -3.912680e-01
     vertex  1.638809e+00  4.748559e+00 -4.729236e-01
   endloop
 endfacet
 facet normal -9.126678e-01 -2.955202e-01  2.823212e-01
   outer loop
     vertex  1.503390e+00  5.641799e+00  2.430332e-02
     vertex  1.638809e+00  4.748559e+00 -4.729236e-01
     vertex  1.767360e+00  4.748559e+00 -5.735228e-02
   endloop
 endfacet
 facet normal -2.823212e-01  9.553365e-01  8.733219e-02
   outer loop
     vertex  1.503390e+00  5.641799e+00  2.430332e-02
     vertex  3.140851e+00  6.213631e+00 -9.375596e-01
     vertex  1.374839e+00  5.641799e+00 -3.912680e-01
   endloop
 endfacet
 facet normal -2.823212e-01  9.553365e-01  8.733219e-02
   outer loop
     vertex  1.503390e+00  5.641799e+00  2.430332e-02
     vertex  3.269402e+00  6.213631e+00 -5.219883e-01
     vertex  3.140851e+00  6.213631e+00 -9.375596e-01
   endloop
 endfacet
 facet normal  2.823212e-01 -9.553365e-01 -8.733219e-02
   outer loop
     vertex  1.767360e+00  4.748559e+00 -5.735228e-02
     vertex  1.638809e+00  4.748559e+00 -4.729236e-01
     vertex  3.404821e+00  5.320391e+00 -1.019215e+00
   endloop
 endfacet
 facet normal  2.823212e-01 -9.553365e-01 -8.733219e-02
   outer loop
     vertex  1.767360e+00  4.748559e+00 -5.735228e-02
     vertex  3.404821e+00  5.320391e+00 -1.019215e+00
     vertex  3.533373e+00  5.320391e+00 -6.036439e-01
   endloop
 endfacet
 facet normal -2.955202e-01 -1.227291e-16 -9.553365e-01
   outer loop
     vertex  1.638809e+00  4.748559e+00 -4.729236e-01
     vertex  3.140851e+00  6.213631e+00 -9.375596e-01
     vertex  3.404821e+00  5.320391e+00 -1.019215e+00
   endloop
 endfacet
 facet normal -2.955202e-01  4.602342e-17 -9.553365e-01
   outer loop
     vertex  1.638809e+00  4.748559e+00 -4.729236e-01
     vertex  1.374839e+00  5.641799e+00 -3.912680e-01
     vertex  3.140851e+00  6.213631e+00 -9.375596e-01
   endloop
 endfacet
 facet normal  2.955202e-01  6.136456e-17  9.553365e-01
   outer loop
     vertex  1.767360e+00  4.748559e+00 -5.735228e-02
     vertex  3.533373e+00  5.320391e+00 -6.036439e-01
     vertex  3.269402e+00  6.213631e+00 -5.219883e-01
   endloop
 endfacet
 facet normal  2.955202e-01 -2.454583e-16  9.553365e-01
   outer loop
     vertex  1.767360e+00  4.748559e+00 -5.735228e-02
     vertex  3.269402e+00  6.213631e+00 -5.219883e-01
     vertex  1.503390e+00  5.641799e+00  2.430332e-02
   endloop
 endfacet
 facet normal  9.126678e-01  2.955202e-01 -2.823212e-01
   outer loop
     vertex  3.551724e+00  5.258294e+00 -6.093205e-01
     vertex  3.687143e+00  4.365055e+00 -1.106547e+00
     vertex  3.423172e+00  5.258294e+00 -1.024892e+00
   endloop
 endfacet
 facet normal  9.126678e-01  2.955202e-01 -2.823212e-01
   outer loop
     vertex  3.551724e+00  5.258294e+00 -6.093205e-01
     vertex  3.815694e+00  4.365055e+00 -6.909761e-01
     vertex  3.687143e+00  4.365055e+00 -1.106547e+00
   endloop
 endfacet
 facet normal -9.126678e-01 -2.955202e-01  2.823212e-01
   outer loop
     vertex  1.785711e+00  4.686463e+00 -6.302887e-02
     vertex  1.657160e+00  4.686463e+00 -4.786002e-01
     vertex  1.921130e+00  3.793223e+00 -5.602558e-01
   endloop
 endfacet
 facet normal -9.126678e-01 -2.955202e-01  2.823212e-01
   outer loop
     vertex  1.785711e+00  4.686463e+00 -6.302887e-02
     vertex  1.921130e+00  3.793223e+00 -5.602558e-01
     vertex  2.049682e+00  3.793223e+00 -1.446845e-01
   endloop
 endfacet
 facet normal -2.823212e-01  9.553365e-01  8.733219e-02
   outer loop
     vertex  1.785711e+00  4.686463e+00 -6.302887e-02
     vertex  3.423172e+00  5.258294e+00 -1.024892e+00
     vertex  1.657160e+00  4.686463e+00 -4.786002e-01
   endloop
 endfacet
 facet normal -2.823212e-01  9.553365e-01  8.733219e-02
   outer loop
     vertex  1.785711e+00  4.686463e+00 -6.302887e-02
     vertex  3.551724e+00  5.258294e+00 -6.093205e-01
     vertex  3.423172e+00  5.258294e+00 -1.024892e+00
   endloop
 endfacet
 facet normal  2.823212e-01 -9.553365e-01 -8.733219e-02
   outer loop
     vertex  2.049682e+00  3.793223e+00 -1.446845e-01
     vertex  1.921130e+00  3.793223e+00 -5.602558e-01
     vertex  3.687143e+00  4.365055e+00 -1.106547e+00
   endloop
 endfacet
 facet normal  2.823212e-01 -9.553365e-01 -8.733219e-02
   outer loop
     vertex  2.049682e+00  3.793223e+00 -1.446845e-01
     vertex  3.687143e+00  4.365055e+00 -1.106547e+00
     vertex  3.815694e+00  4.365055e+00 -6.909761e-01
   endloop
 endfacet
 facet normal -2.955202e-01  3.068228e-16 -9.553365e-01
   outer loop
     vertex  1.921130e+00  3.793223e+00 -5.602558e-01
     vertex  3.423172e+00  5.258294e+00 -1.024892e+00
     vertex  3.687143e+00  4.365055e+00 -1.106547e+00
   endloop
 endfacet
 facet normal -2.955202e-01  1.303997e-16 -9.553365e-01
   outer loop
     vertex  1.921130e+00  3.793223e+00 -5.602558e-01
     vertex  1.657160e+00  4.686463e+00 -4.786002e-01
     vertex  3.423172e+00  5.258294e+00 -1.024892e+00
   endloop
 endfacet
 facet normal  2.955202e-01 -1.227291e-16  9.553365e-01
   outer loop
     vertex  2.049682e+00  3.793223e+00 -1.446845e-01
     vertex  3.815694e+00  4.365055e+00 -6.909761e-01
     vertex  3.551724e+00  5.258294e+00 -6.093205e-01
   endloop
 endfacet
 facet normal  2.955202e-01 -1.610820e-16  9.553365e-01
   outer loop
     vertex  2.049682e+00  3.793223e+00 -1.446845e-01
     vertex  3.551724e+00  5.258294e+00 -6.093205e-01
     vertex  1.785711e+00  4.686463e+00 -6.302887e-02
   endloop
 endfacet
 facet normal  2.823212e-01 -9.553365e-01 -8.733219e-02
   outer loop
     vertex  1.858950e+00 -2.549045e+00 -8.568427e-02
     vertex  8.770544e-01 -2.825357e+00 -2.372853e-01
     vertex  1.730399e+00 -2.549045e+00 -5.012556e-01
   endloop
 endfacet
 facet normal  2.823212e-01 -9.553365e-01 -8.733219e-02
   outer loop
     vertex  1.858950e+00 -2.549045e+00 -8.568427e-02
     vertex  1.005606e+00 -2.825357e+00  1.782861e-01
     vertex  8.770544e-01 -2.825357e+00 -2.372853e-01
   endloop
 endfacet
 facet normal -2.823212e-01  9.553365e-01  8.733219e-02
   outer loop
     vertex  1.312658e+00 -7.004691e-01  8.330352e-02
     vertex  1.184107e+00 -7.004691e-01 -3.322678e-01
     vertex  3.307628e-01 -9.767805e-01 -6.829749e-02
   endloop
 endfacet
 facet normal -2.823212e-01  9.553365e-01  8.733219e-02
   outer loop
     vertex  1.312658e+00 -7.004691e-01  8.330352e-02
     vertex  3.307628e-01 -9.767805e-01 -6.829749e-02
     vertex  4.593141e-01 -9.767805e-01  3.472739e-01
   endloop
 endfacet
 facet normal  9.126678e-01  2.955202e-01 -2.823212e-01
   outer loop
     vertex  1.312658e+00 -7.004691e-01  8.330352e-02
     vertex  1.730399e+00 -2.549045e+00 -5.012556e-01
     vertex  1.184107e+00 -7.004691e-01 -3.322678e-01
   endloop
 endfacet
 facet normal  9.126678e-01  2.955202e-01 -2.823212e-01
   outer loop
     vertex  1.312658e+00 -7.004691e-01  8.330352e-02
     vertex  1.858950e+00 -2.549045e+00 -8.568427e-02
     vertex  1.730399e+00 -2.549045e+00 -5.012556e-01
   endloop
 endfacet
 facet normal -9.126678e-01 -2.955202e-01  2.823212e-01
   outer loop
     vertex  4.593141e-01 -9.767805e-01  3.472739e-01
     vertex  3.307628e-01 -9.767805e-01 -6.829749e-02
     vertex  8.770544e-01 -2.825357e+00 -2.372853e-01
   endloop
 endfacet
 facet normal -9.126678e-01 -2.955202e-01  2.823212e-01
   outer loop
     vertex  4.593141e-01 -9.767805e-01  3.472739e-01
     vertex  8.770544e-01 -2.825357e+00 -2.372853e-01
     vertex  1.005606e+00 -2.825357e+00  1.782861e-01
   endloop
 endfacet
 facet normal -2.955202e-01 -3.068228e-17 -9.553365e-01
   outer loop
     vertex  3.307628e-01 -9.767805e-01 -6.829749e-02
     vertex  1.730399e+00 -2.549045e+00 -5.012556e-01
     vertex  8.770544e-01 -2.825357e+00 -2.372853e-01
   endloop
 endfacet
 facet normal -2.955202e-01 -9.204685e-17 -9.553365e-01
   outer loop
     vertex  3.307628e-01 -9.767805e-01 -6.829749e-02
     vertex  1.184107e+00 -7.004691e-01 -3.322678e-01
     vertex  1.730399e+00 -2.549045e+00 -5.012556e-01
   endloop
 endfacet
 facet normal  2.955202e-01  3.068228e-17  9.553365e-01
   outer loop
     vertex  4.593141e-01 -9.767805e-01  3.472739e-01
     vertex  1.005606e+00 -2.825357e+00  1.782861e-01
     vertex  1.858950e+00 -2.549045e+00 -8.568427e-02
   endloop
 endfacet
 facet normal  2.955202e-01  1.534114e-16  9.553365e-01
   outer loop
     vertex  4.593141e-01 -9.767805e-01  3.472739e-01
     vertex  1.858950e+00 -2.549045e+00 -8.568427e-02
     vertex  1.312658e+00 -7.004691e-01  8.330352e-02
   endloop
 endfacet
 facet normal  2.823212e-01 -9.553365e-01 -8.733219e-02
   outer loop
     vertex  9.462823e-01 -2.844565e+00  1.966370e-01
     vertex -3.561343e-02 -3.120877e+00  4.503595e-02
     vertex  8.177310e-01 -2.844565e+00 -2.189344e-01
   endloop
 endfacet
 facet normal  2.823212e-01 -9.553365e-01 -8.733219e-02
   outer loop
     vertex  9.462823e-01 -2.844565e+00  1.966370e-01
     vertex  9.293786e-02 -3.120877e+00  4.606073e-01
     vertex -3.561343e-02 -3.120877e+00  4.503595e-02
   endloop
 endfacet
 facet normal -2.823212e-01  9.553365e-01  8.733219e-02
   outer loop
     vertex  3.999907e-01 -9.959893e-01  3.656248e-01
     vertex  2.714394e-01 -9.959893e-01 -4.994661e-02
     vertex -5.819050e-01 -1.272301e+00  2.140237e-01
   endloop
 endfacet
 facet normal -2.823212e-01  9.553365e-01  8.733219e-02
   outer loop
     vertex  3.999907e-01 -9.959893e-01  3.656248e-01
     vertex -5.819050e-01 -1.272301e+00  2.140237e-01
     vertex -4.533537e-01 -1.272301e+00  6.295951e-01
   endloop
 endfacet
 facet normal  9.126678e-01  2.955202e-01 -2.823212e-01
   outer loop
     vertex  3.999907e-01 -9.959893e-01  3.656248e-01
     vertex  8.177310e-01 -2.844565e+00 -2.189344e-01
     vertex  2.714394e-01 -9.959893e-01 -4.994661e-02
   endloop
 endfacet
 facet normal  9.126678e-01  2.955202e-01 -2.823212e-01
   outer loop
     vertex  3.999907e-01 -9.959893e-01  3.656248e-01
     vertex  9.462823e-01 -2.844565e+00  1.966370e-01
     vertex  8.177310e-01 -2.844565e+00 -2.189344e-01
   endloop
 endfacet
 facet normal -9.126678e-01 -2.955202e-01  2.823212e-01
   outer loop
     vertex -4.533537e-01 -1.272301e+00  6.295951e-01
     vertex -5.819050e-01 -1.272301e+00  2.140237e-01
     vertex -3.561343e-02 -3.120877e+00  4.503595e-02
   endloop
 endfacet
 facet normal -9.126678e-01 -2.955202e-01  2.823212e-01
   outer loop
     vertex -4.533537e-01 -1.272301e+00  6.295951e-01
     vertex -3.561343e-02 -3.120877e+00  4.503595e-02
     vertex  9.293786e-02 -3.120877e+00  4.606073e-01
   endloop
 endfacet
 facet normal -2.955202e-01 -6.136456e-17 -9.553365e-01
   outer loop
     vertex -5.819050e-01 -1.272301e+00  2.140237e-01
     vertex  8.177310e-01 -2.844565e+00 -2.189344e-01
     vertex -3.561343e-02 -3.120877e+00  4.503595e-02
   endloop
 endfacet
 facet normal -2.955202e-01 -6.136456e-17 -9.553365e-01
   outer loop
     vertex -5.819050e-01 -1.272301e+00  2.140237e-01
     vertex  2.714394e-01 -9.959893e-01 -4.994661e-02
     vertex  8.177310e-01 -2.844565e+00 -2.189344e-01
   endloop
 endfacet
 facet normal  2.955202e-01  1.534114e-17  9.553365e-01
   outer loop
     vertex -4.533537e-01 -1.272301e+00  6.295951e-01
     vertex  9.293786e-02 -3.120877e+00  4.606073e-01
     vertex  9.462823e-01 -2.844565e+00  1.966370e-01
   endloop
 endfacet
 facet normal  2.955202e-01  1.840937e-16  9.553365e-01
   outer loop
     vertex -4.533537e-01 -1.272301e+00  6.295951e-01
     vertex  9.462823e-01 -2.844565e+00  1.966370e-01
     vertex  3.999907e-01 -9.959893e-01  3.656248e-01
   endloop
 endfacet
 facet normal  2.823212e-01 -9.553365e-01 -8.733219e-02
   outer loop
     vertex  3.011335e+00  2.011101e+00 -4.421586e-01
     vertex  2.029439e+00  1.734790e+00 -5.937596e-01
     vertex  2.882783e+00  2.011101e+00 -8.577300e-01
   endloop
 endfacet
 facet normal  2.823212e-01 -9.553365e-01 -8.733219e-02
   outer loop
     vertex  3.011335e+00  2.011101e+00 -4.421586e-01
     vertex  2.157990e+00  1.734790e+00 -1.781882e-01
     vertex  2.029439e+00  1.734790e+00 -5.937596e-01
   endloop
 endfacet
 facet normal -2.823212e-01  9.553365e-01  8.733219e-02
   outer loop
     vertex  2.465043e+00  3.859677e+00 -2.731708e-01
     vertex  2.336492e+00  3.859677e+00 -6.887422e-01
     vertex  1.483147e+00  3.583366e+00 -4.247718e-01
   endloop
 endfacet
 facet normal -2.823212e-01  9.553365e-01  8.733219e-02
   outer loop
     vertex  2.465043e+00  3.859677e+00 -2.731708e-01
     vertex  1.483147e+00  3.583366e+00 -4.247718e-01
     vertex  1.611699e+00  3.583366e+00 -9.200442e-03
   endloop
 endfacet
 facet normal  9.126678e-01  2.955202e-01 -2.823212e-01
   outer loop
     vertex  2.465043e+00  3.859677e+00 -2.731708e-01
     vertex  2.882783e+00  2.011101e+00 -8.577300e-01
     vertex  2.336492e+00  3.859677e+00 -6.887422e-01
   endloop
 endfacet
 facet normal  9.126678e-01  2.955202e-01 -2.823212e-01
   outer loop
     vertex  2.465043e+00  3.859677e+00 -2.731708e-01
     vertex  3.011335e+00  2.011101e+00 -4.421586e-01
     vertex  2.882783e+00  2.011101e+00 -8.577300e-01
   endloop
 endfacet
 facet normal -9.126678e-01 -2.955202e-01  2.823212e-01
   outer loop
     vertex  1.611699e+00  3.583366e+00 -9.200442e-03
     vertex  1.483147e+00  3.583366e+00 -4.247718e-01
     vertex  2.029439e+00  1.734790e+00 -5.937596e-01
   endloop
 endfacet
 facet normal -9.126678e-01 -2.955202e-01  2.823212e-01
   outer loop
     vertex  1.611699e+00  3.583366e+00 -9.200442e-03
     vertex  2.029439e+00  1.734790e+00 -5.937596e-01
     vertex  2.157990e+00  1.734790e+00 -1.781882e-01
   endloop
 endfacet
 facet normal -2.955202e-01 -1.534114e-17 -9.553365e-01
   outer loop
     vertex  1.483147e+00  3.583366e+00 -4.247718e-01
     vertex  2.882783e+00  2.011101e+00 -8.577300e-01
     vertex  2.029439e+00  1.734790e+00 -5.937596e-01
   endloop
 endfacet
 facet normal -2.955202e-01 -2.454583e-16 -9.553365e-01
   outer loop
     vertex  1.483147e+00  3.583366e+00 -4.247718e-01
     vertex  2.336492e+00  3.859677e+00 -6.887422e-01
     vertex  2.882783e+00  2.011101e+00 -8.577300e-01
   endloop
 endfacet
 facet normal  2.955202e-01 -6.136456e-17  9.553365e-01
   outer loop
     vertex  1.611699e+00  3.583366e+00 -9.200442e-03
     vertex  2.157990e+00  1.734790e+00 -1.781882e-01
     vertex  3.011335e+00  2.011101e+00 -4.421586e-01
   endloop
 endfacet
 facet normal  2.955202e-01  3.068228e-17  9.553365e-01
   outer loop
     vertex  1.611699e+00  3.583366e+00 -9.200442e-03
     vertex  3.011335e+00  2.011101e+00 -4.421586e-01
     vertex  2.465043e+00  3.859677e+00 -2.731708e-01
   endloop
 endfacet
 facet normal  2.823212e-01 -9.553365e-01 -8.733219e-02
   outer loop
     vertex  2.098667e+00  1.715581e+00 -1.598374e-01
     vertex  1.116771e+00  1.439270e+00 -3.114384e-01
     vertex  1.970116e+00  1.715581e+00 -5.754087e-01
   endloop
 endfacet
 facet normal  2.823212e-01 -9.553365e-01 -8.733219e-02
   outer loop
     vertex  2.098667e+00  1.715581e+00 -1.598374e-01
     vertex  1.245322e+00  1.439270e+00  1.041330e-01
     vertex  1.116771e+00  1.439270e+00 -3.114384e-01
   endloop
 endfacet
 facet normal -2.823212e-01  9.553365e-01  8.733219e-02
   outer loop
     vertex  1.552375e+00  3.564157e+00  9.150438e-03
     vertex  1.423824e+00  3.564157e+00 -4.064209e-01
     vertex  5.704796e-01  3.287846e+00 -1.424506e-01
   endloop
 endfacet
 facet normal -2.823212e-01  9.553365e-01  8.733219e-02
   outer loop
     vertex  1.552375e+00  3.564157e+00  9.150438e-03
     vertex  5.704796e-01  3.287846e+00 -1.424506e-01
     vertex  6.990308e-01  3.287846e+00  2.731208e-01
   endloop
 endfacet
 facet normal  9.126678e-01  2.955202e-01 -2.823212e-01
   outer loop
     vertex  1.552375e+00  3.564157e+00  9.150438e-03
     vertex  1.970116e+00  1.715581e+00 -5.754087e-01
     vertex  1.423824e+00  3.564157e+00 -4.064209e-01
   endloop
 endfacet
 facet normal  9.126678e-01  2.955202e-01 -2.823212e-01
   outer loop
     vertex  1.552375e+00  3.564157e+00  9.150438e-03
     vertex  2.098667e+00  1.715581e+00 -1.598374e-01
     vertex  1.970116e+00  1.715581e+00 -5.754087e-01
   endloop
 endfacet
 facet normal -9.126678e-01 -2.955202e-01  2.823212e-01
   outer loop
     vertex  6.990308e-01  3.287846e+00  2.731208e-01
     vertex  5.704796e-01  3.287846e+00 -1.424506e-01
     vertex  1.116771e+00  1.439270e+00 -3.114384e-01
   endloop
 endfacet
 facet normal -9.126678e-01 -2.955202e-01  2.823212e-01
   outer loop
     vertex  6.990308e-01  3.287846e+00  2.731208e-01
     vertex  1.116771e+00  1.439270e+00 -3.114384e-01
     vertex  1.245322e+00  1.439270e+00  1.041330e-01
   endloop
 endfacet
 facet normal -2.955202e-01 -3.068228e-17 -9.553365e-01
   outer loop
     vertex  5.704796e-01  3.287846e+00 -1.424506e-01
     vertex  1.970116e+00  1.715581e+00 -5.754087e-01
     vertex  1.116771e+00  1.439270e+00 -3.114384e-01
   endloop
 endfacet
 facet normal -2.955202e-01 -9.204685e-17 -9.553365e-01
   outer loop
     vertex  5.704796e-01  3.287846e+00 -1.424506e-01
     vertex  1.423824e+00  3.564157e+00 -4.064209e-01
     vertex  1.970116e+00  1.715581e+00 -5.754087e-01
   endloop
 endfacet
 facet normal  2.955202e-01  1.534114e-17  9.553365e-01
   outer loop
     vertex  6.990308e-01  3.287846e+00  2.731208e-01
     vertex  1.245322e+00  1.439270e+00  1.041330e-01
     vertex  2.098667e+00  1.715581e+00 -1.598374e-01
   endloop
 endfacet
 facet normal  2.955202e-01  6.136456e-17  9.553365e-01
   outer loop
     vertex  6.990308e-01  3.287846e+00  2.731208e-01
     vertex  2.098667e+00  1.715581e+00 -1.598374e-01
     vertex  1.552375e+00  3.564157e+00  9.150438e-03
   endloop
 endfacet
 facet normal  2.823212e-01 -9.553365e-01 -8.733219e-02
   outer loop
     vertex  1.185999e+00  1.420061e+00  1.224839e-01
     vertex  2.041033e-01  1.143749e+00 -2.911713e-02
     vertex  1.057448e+00  1.420061e+00 -2.930875e-01
   endloop
 endfacet
 facet normal  2.823212e-01 -9.553365e-01 -8.733219e-02
   outer loop
     vertex  1.185999e+00  1.420061e+00  1.224839e-01
     vertex  3.326546e-01  1.143749e+00  3.864542e-01
     vertex  2.041033e-01  1.143749e+00 -2.911713e-02
   endloop
 endfacet
 facet normal -2.823212e-01  9.553365e-01  8.733219e-02
   outer loop
     vertex  6.397074e-01  3.268637e+00  2.914717e-01
     vertex  5.111561e-01  3.268637e+00 -1.240997e-01
     vertex -3.421883e-01  2.992326e+00  1.398707e-01
   endloop
 endfacet
 facet normal -2.823212e-01  9.553365e-01  8.733219e-02
   outer loop
     vertex  6.397074e-01  3.268637e+00  2.914717e-01
     vertex -3.421883e-01  2.992326e+00  1.398707e-01
     vertex -2.136370e-01  2.992326e+00  5.554420e-01
   endloop
 endfacet
 facet normal  9.126678e-01  2.955202e-01 -2.823212e-01
   outer loop
     vertex  6.397074e-01  3.268637e+00  2.914717e-01
     vertex  1.057448e+00  1.420061e+00 -2.930875e-01
     vertex  5.111561e-01  3.268637e+00 -1.240997e-01
   endloop
 endfacet
 facet normal  9.126678e-01  2.955202e-01 -2.823212e-01
   outer loop
     vertex  6.397074e-01  3.268637e+00  2.914717e-01
     vertex  1.185999e+00  1.420061e+00  1.224839e-01
     vertex  1.057448e+00  1.420061e+00 -2.930875e-01
   endloop
 endfacet
 facet normal -9.126678e-01 -2.955202e-01  2.823212e-01
   outer loop
     vertex -2.136370e-01  2.992326e+00  5.554420e-01
     vertex -3.421883e-01  2.992326e+00  1.398707e-01
     vertex  2.041033e-01  1.143749e+00 -2.911713e-02
   endloop
 endfacet
 facet normal -9.126678e-01 -2.955202e-01  2.823212e-01
   outer loop
     vertex -2.136370e-01  2.992326e+00  5.554420e-01
     vertex  2.041033e-01  1.143749e+00 -2.911713e-02
     vertex  3.326546e-01  1.143749e+00  3.864542e-01
   endloop
 endfacet
 facet normal -2.955202e-01 -3.068228e-17 -9.553365e-01
   outer loop
     vertex -3.421883e-01  2.992326e+00  1.398707e-01
     vertex  1.057448e+00  1.420061e+00 -2.930875e-01
     vertex  2.041033e-01  1.143749e+00 -2.911713e-02
   endloop
 endfacet
 facet normal -2.955202e-01 -9.204685e-17 -9.553365e-01
   outer loop
     vertex -3.421883e-01  2.992326e+00  1.398707e-01
     vertex  5.111561e-01  3.268637e+00 -1.240997e-01
     vertex  1.057448e+00  1.420061e+00 -2.930875e-01
   endloop
 endfacet
 facet normal  2.955202e-01  1.534114e-17  9.553365e-01
   outer loop
     vertex -2.136370e-01  2.992326e+00  5.554420e-01
     vertex  3.326546e-01  1.143749e+00  3.864542e-01
     vertex  1.185999e+00  1.420061e+00  1.224839e-01
   endloop
 endfacet
 facet normal  2.955202e-01  9.204685e-17  9.553365e-01
   outer loop
     vertex -2.136370e-01  2.992326e+00  5.554420e-01
     vertex  1.185999e+00  1.420061e+00  1.224839e-01
     vertex  6.397074e-01  3.268637e+00  2.914717e-01
   endloop
 endfacet
 facet normal  2.823212e-01 -9.553365e-01 -8.733219e-02
   outer loop
     vertex  2.733312e-01  1.124541e+00  4.048051e-01
     vertex -7.085645e-01  8.482292e-01  2.532041e-01
     vertex  1.447799e-01  1.124541e+00 -1.076625e-02
   endloop
 endfacet
 facet normal  2.823212e-01 -9.553365e-01 -8.733219e-02
   outer loop
     vertex  2.733312e-01  1.124541e+00  4.048051e-01
     vertex -5.800132e-01  8.482292e-01  6.687755e-01
     vertex -7.085645e-01  8.482292e-01  2.532041e-01
   endloop
 endfacet
 facet normal -2.823212e-01  9.553365e-01  8.733219e-02
   outer loop
     vertex -2.729604e-01  2.973117e+00  5.737929e-01
     vertex -4.015117e-01  2.973117e+00  1.582215e-01
     vertex -1.254856e+00  2.696805e+00  4.221919e-01
   endloop
 endfacet
 facet normal -2.823212e-01  9.553365e-01  8.733219e-02
   outer loop
     vertex -2.729604e-01  2.973117e+00  5.737929e-01
     vertex -1.254856e+00  2.696805e+00  4.221919e-01
     vertex -1.126305e+00  2.696805e+00  8.377633e-01
   endloop
 endfacet
 facet normal  9.126678e-01  2.955202e-01 -2.823212e-01
   outer loop
     vertex -2.729604e-01  2.973117e+00  5.737929e-01
     vertex  1.447799e-01  1.124541e+00 -1.076625e-02
     vertex -4.015117e-01  2.973117e+00  1.582215e-01
   endloop
 endfacet
 facet normal  9.126678e-01  2.955202e-01 -2.823212e-01
   outer loop
     vertex -2.729604e-01  2.973117e+00  5.737929e-01
     vertex  2.733312e-01  1.124541e+00  4.048051e-01
     vertex  1.447799e-01  1.124541e+00 -1.076625e-02
   endloop
 endfacet
 facet normal -9.126678e-01 -2.955202e-01  2.823212e-01
   outer loop
     vertex -1.126305e+00  2.696805e+00  8.377633e-01
     vertex -1.254856e+00  2.696805e+00  4.221919e-01
     vertex -7.085645e-01  8.482292e-01  2.532041e-01
   endloop
 endfacet
 facet normal -9.126678e-01 -2.955202e-01  2.823212e-01
   outer loop
     vertex -1.126305e+00  2.696805e+00  8.377633e-01
     vertex -7.085645e-01  8.482292e-01  2.532041e-01
     vertex -5.800132e-01  8.482292e-01  6.687755e-01
   endloop
 endfacet
 facet normal -2.955202e-01  3.068228e-17 -9.553365e-01
   outer loop
     vertex -1.254856e+00  2.696805e+00  4.221919e-01
     vertex  1.447799e-01  1.124541e+00 -1.076625e-02
     vertex -7.085645e-01  8.482292e-01  2.532041e-01
   endloop
 endfacet
 facet normal -2.955202e-01 -1.227291e-16 -9.553365e-01
   outer loop
     vertex -1.254856e+00  2.696805e+00  4.221919e-01
     vertex -4.015117e-01  2.973117e+00  1.582215e-01
     vertex  1.447799e-01  1.124541e+00 -1.076625e-02
   endloop
 endfacet
 facet normal  2.955202e-01 -3.068228e-17  9.553365e-01
   outer loop
     vertex -1.126305e+00  2.696805e+00  8.377633e-01
     vertex -5.800132e-01  8.482292e-01  6.687755e-01
     vertex  2.733312e-01  1.124541e+00  4.048051e-01
   endloop
 endfacet
 facet normal  2.955202e-01  3.068228e-17  9.553365e-01
   outer loop
     vertex -1.126305e+00  2.696805e+00  8.377633e-01
     vertex  2.733312e-01  1.124541e+00  4.048051e-01
     vertex -2.729604e-01  2.973117e+00  5.737929e-01
   endloop
 endfacet
 facet normal  2.823212e-01 -9.553365e-01 -8.733219e-02
   outer loop
     vertex -6.393366e-01  8.290204e-01  6.871264e-01
     vertex -1.621232e+00  5.527090e-01  5.355253e-01
     vertex -7.678879e-01  8.290204e-01  2.715550e-01
   endloop
 endfacet
 facet normal  2.823212e-01 -9.553365e-01 -8.733219e-02
   outer loop
     vertex -6.393366e-01  8.290204e-01  6.871264e-01
     vertex -1.492681e+00  5.527090e-01  9.510967e-01
     vertex -1.621232e+00  5.527090e-01  5.355253e-01
   endloop
 endfacet
 facet normal -2.823212e-01  9.553365e-01  8.733219e-02
   outer loop
     vertex -1.185628e+00  2.677597e+00  8.561141e-01
     vertex -1.314179e+00  2.677597e+00  4.405428e-01
     vertex -2.167524e+00  2.401285e+00  7.045131e-01
   endloop
 endfacet
 facet normal -2.823212e-01  9.553365e-01  8.733219e-02
   outer loop
     vertex -1.185628e+00  2.677597e+00  8.561141e-01
     vertex -2.167524e+00  2.401285e+00  7.045131e-01
     vertex -2.038973e+00  2.401285e+00  1.120085e+00
   endloop
 endfacet
 facet normal  9.126678e-01  2.955202e-01 -2.823212e-01
   outer loop
     vertex -1.185628e+00  2.677597e+00  8.561141e-01
     vertex -7.678879e-01  8.290204e-01  2.715550e-01
     vertex -1.314179e+00  2.677597e+00  4.405428e-01
   endloop
 endfacet
 facet normal  9.126678e-01  2.955202e-01 -2.823212e-01
   outer loop
     vertex -1.185628e+00  2.677597e+00  8.561141e-01
     vertex -6.393366e-01  8.290204e-01  6.871264e-01
     vertex -7.678879e-01  8.290204e-01  2.715550e-01
   endloop
 endfacet
 facet normal -9.126678e-01 -2.955202e-01  2.823212e-01
   outer loop
     vertex -2.038973e+00  2.401285e+00  1.120085e+00
     vertex -2.167524e+00  2.401285e+00  7.045131e-01
     vertex -1.621232e+00  5.527090e-01  5.355253e-01
   endloop
 endfacet
 facet normal -9.126678e-01 -2.955202e-01  2.823212e-01
   outer loop
     vertex -2.038973e+00  2.401285e+00  1.120085e+00
     vertex -1.621232e+00  5.527090e-01  5.355253e-01
     vertex -1.492681e+00  5.527090e-01  9.510967e-01
   endloop
 endfacet
 facet normal -2.955202e-01  0.000000e+00 -9.553365e-01
   outer loop
     vertex -2.167524e+00  2.401285e+00  7.045131e-01
     vertex -7.678879e-01  8.290204e-01  2.715550e-01
     vertex -1.621232e+00  5.527090e-01  5.355253e-01
   endloop
 endfacet
 facet normal -2.955202e-01 -3.068228e-17 -9.553365e-01
   outer loop
     vertex -2.167524e+00  2.401285e+00  7.045131e-01
     vertex -1.314179e+00  2.677597e+00  4.405428e-01
     vertex -7.678879e-01  8.290204e-01  2.715550e-01
   endloop
 endfacet
 facet normal  2.955202e-01 -1.534114e-17  9.553365e-01
   outer loop
     vertex -2.038973e+00  2.401285e+00  1.120085e+00
     vertex -1.492681e+00  5.527090e-01  9.510967e-01
     vertex -6.393366e-01  8.290204e-01  6.871264e-01
   endloop
 endfacet
 facet normal  2.955202e-01  6.136456e-17  9.553365e-01
   outer loop
     vertex -2.038973e+00  2.401285e+00  1.120085e+00
     vertex -6.393366e-01  8.290204e-01  6.871264e-01
     vertex -1.185628e+00  2.677597e+00  8.561141e-01
   endloop
 endfacet
 facet normal  2.823212e-01 -9.553365e-01 -8.733219e-02
   outer loop
     vertex -1.552004e+00  5.335002e-01  9.694476e-01
     vertex -2.533900e+00  2.571888e-01  8.178466e-01
     vertex -1.680556e+00  5.335002e-01  5.538762e-01
   endloop
 endfacet
 facet normal  2.823212e-01 -9.553365e-01 -8.733219e-02
   outer loop
     vertex -1.552004e+00  5.335002e-01  9.694476e-01
     vertex -2.405349e+00  2.571888e-01  1.233418e+00
     vertex -2.533900e+00  2.571888e-01  8.178466e-01
   endloop
 endfacet
 facet normal -2.823212e-01  9.553365e-01  8.733219e-02
   outer loop
     vertex -2.098296e+00  2.382076e+00  1.138435e+00
     vertex -2.226847e+00  2.382076e+00  7.228640e-01
     vertex -3.080192e+00  2.105765e+00  9.868344e-01
   endloop
 endfacet
 facet normal -2.823212e-01  9.553365e-01  8.733219e-02
   outer loop
     vertex -2.098296e+00  2.382076e+00  1.138435e+00
     vertex -3.080192e+00  2.105765e+00  9.868344e-01
     vertex -2.951640e+00  2.105765e+00  1.402406e+00
   endloop
 endfacet
 facet normal  9.126678e-01  2.955202e-01 -2.823212e-01
   outer loop
     vertex -2.098296e+00  2.382076e+00  1.138435e+00
     vertex -1.680556e+00  5.335002e-01  5.538762e-01
     vertex -2.226847e+00  2.382076e+00  7.228640e-01
   endloop
 endfacet
 facet normal  9.126678e-01  2.955202e-01 -2.823212e-01
   outer loop
     vertex -2.098296e+00  2.382076e+00  1.138435e+00
     vertex -1.552004e+00  5.335002e-01  9.694476e-01
     vertex -1.680556e+00  5.335002e-01  5.538762e-01
   endloop
 endfacet
 facet normal -9.126678e-01 -2.955202e-01  2.823212e-01
   outer loop
     vertex -2.951640e+00  2.105765e+00  1.402406e+00
     vertex -3.080192e+00  2.105765e+00  9.868344e-01
     vertex -2.533900e+00  2.571888e-01  8.178466e-01
   endloop
 endfacet
 facet normal -9.126678e-01 -2.955202e-01  2.823212e-01
   outer loop
     vertex -2.951640e+00  2.105765e+00  1.402406e+00
     vertex -2.533900e+00  2.571888e-01  8.178466e-01
     vertex -2.405349e+00  2.571888e-01  1.233418e+00
   endloop
 endfacet
 facet normal -2.955202e-01 -4.602342e-17 -9.553365e-01
   outer loop
     vertex -3.080192e+00  2.105765e+00  9.868344e-01
     vertex -1.680556e+00  5.335002e-01  5.538762e-01
     vertex -2.533900e+00  2.571888e-01  8.178466e-01
   endloop
 endfacet
 facet normal -2.955202e-01 -3.068228e-17 -9.553365e-01
   outer loop
     vertex -3.080192e+00  2.105765e+00  9.868344e-01
     vertex -2.226847e+00  2.382076e+00  7.228640e-01
     vertex -1.680556e+00  5.335002e-01  5.538762e-01
   endloop
 endfacet
 facet normal  2.955202e-01 -3.068228e-17  9.553365e-01
   outer loop
     vertex -2.951640e+00  2.105765e+00  1.402406e+00
     vertex -2.405349e+00  2.571888e-01  1.233418e+00
     vertex -1.552004e+00  5.335002e-01  9.694476e-01
   endloop
 endfacet
 facet normal  2.955202e-01  1.840937e-16  9.553365e-01
   outer loop
     vertex -2.951640e+00  2.105765e+00  1.402406e+00
     vertex -1.552004e+00  5.335002e-01  9.694476e-01
     vertex -2.098296e+00  2.382076e+00  1.138435e+00
   endloop
 endfacet
 facet normal  2.823212e-01 -9.553365e-01 -8.733219e-02
   outer loop
     vertex -2.464672e+00  2.379800e-01  1.251769e+00
     vertex -3.446568e+00 -3.833139e-02  1.100168e+00
     vertex -2.593223e+00  2.379800e-01  8.361975e-01
   endloop
 endfacet
 facet normal  2.823212e-01 -9.553365e-01 -8.733219e-02
   outer loop
     vertex -2.464672e+00  2.379800e-01  1.251769e+00
     vertex -3.318017e+00 -3.833139e-02  1.515739e+00
     vertex -3.446568e+00 -3.833139e-02  1.100168e+00
   endloop
 endfacet
 facet normal -2.823212e-01  9.553365e-01  8.733219e-02
   outer loop
     vertex -3.010964e+00  2.086556e+00  1.420757e+00
     vertex -3.139515e+00  2.086556e+00  1.005185e+00
     vertex -3.992859e+00  1.810245e+00  1.269156e+00
   endloop
 endfacet
 facet normal -2.823212e-01  9.553365e-01  8.733219e-02
   outer loop
     vertex -3.010964e+00  2.086556e+00  1.420757e+00
     vertex -3.992859e+00  1.810245e+00  1.269156e+00
     vertex -3.864308e+00  1.810245e+00  1.684727e+00
   endloop
 endfacet
 facet normal  9.126678e-01  2.955202e-01 -2.823212e-01
   outer loop
     vertex -3.010964e+00  2.086556e+00  1.420757e+00
     vertex -2.593223e+00  2.379800e-01  8.361975e-01
     vertex -3.139515e+00  2.086556e+00  1.005185e+00
   endloop
 endfacet
 facet normal  9.126678e-01  2.955202e-01 -2.823212e-01
   outer loop
     vertex -3.010964e+00  2.086556e+00  1.420757e+00
     vertex -2.464672e+00  2.379800e-01  1.251769e+00
     vertex -2.593223e+00  2.379800e-01  8.361975e-01
   endloop
 endfacet
 facet normal -9.126678e-01 -2.955202e-01  2.823212e-01
   outer loop
     vertex -3.864308e+00  1.810245e+00  1.684727e+00
     vertex -3.992859e+00  1.810245e+00  1.269156e+00
     vertex -3.446568e+00 -3.833139e-02  1.100168e+00
   endloop
 endfacet
 facet normal -9.126678e-01 -2.955202e-01  2.823212e-01
   outer loop
     vertex -3.864308e+00  1.810245e+00  1.684727e+00
     vertex -3.446568e+00 -3.833139e-02  1.100168e+00
     vertex -3.318017e+00 -3.833139e-02  1.515739e+00
   endloop
 endfacet
 facet normal -2.955202e-01 -4.602342e-17 -9.553365e-01
   outer loop
     vertex -3.992859e+00  1.810245e+00  1.269156e+00
     vertex -2.593223e+00  2.379800e-01  8.361975e-01
     vertex -3.446568e+00 -3.833139e-02  1.100168e+00
   endloop
 endfacet
 facet normal -2.955202e-01 -2.147760e-16 -9.553365e-01
   outer loop
     vertex -3.992859e+00  1.810245e+00  1.269156e+00
     vertex -3.139515e+00  2.086556e+00  1.005185e+00
     vertex -2.593223e+00  2.379800e-01  8.361975e-01
   endloop
 endfacet
 facet normal  2.955202e-01  1.534114e-17  9.553365e-01
   outer loop
     vertex -3.864308e+00  1.810245e+00  1.684727e+00
     vertex -3.318017e+00 -3.833139e-02  1.515739e+00
     vertex -2.464672e+00  2.379800e-01  1.251769e+00
   endloop
 endfacet
 facet normal  2.955202e-01  9.204685e-17  9.553365e-01
   outer loop
     vertex -3.864308e+00  1.810245e+00  1.684727e+00
     vertex -2.464672e+00  2.379800e-01  1.251769e+00
     vertex -3.010964e+00  2.086556e+00  1.420757e+00
   endloop
 endfacet
 facet normal -2.823212e-01  9.553365e-01  8.733219e-02
   outer loop
     vertex -3.191357e+00 -2.158861e+00  1.476559e+00
     vertex -2.466564e+00 -1.882550e+00  7.970171e-01
     vertex -3.319908e+00 -2.158861e+00  1.060987e+00
   endloop
 endfacet
 facet normal -2.823212e-01  9.553365e-01  8.733219e-02
   outer loop
     vertex -3.191357e+00 -2.158861e+00  1.476559e+00
     vertex -2.338013e+00 -1.882550e+00  1.212588e+00
     vertex -2.466564e+00 -1.882550e+00  7.970171e-01
   endloop
 endfacet
 facet normal  2.823212e-01 -9.553365e-01 -8.733219e-02
   outer loop
     vertex -2.786226e+00 -3.529769e+00  1.351237e+00
     vertex -2.914777e+00 -3.529769e+00  9.356658e-01
     vertex -2.061433e+00 -3.253458e+00  6.716954e-01
   endloop
 endfacet
 facet normal  2.823212e-01 -9.553365e-01 -8.733219e-02
   outer loop
     vertex -2.786226e+00 -3.529769e+00  1.351237e+00
     vertex -2.061433e+00 -3.253458e+00  6.716954e-01
     vertex -1.932882e+00 -3.253458e+00  1.087267e+00
   endloop
 endfacet
 facet normal -9.126678e-01 -2.955202e-01  2.823212e-01
   outer loop
     vertex -2.786226e+00 -3.529769e+00  1.351237e+00
     vertex -3.319908e+00 -2.158861e+00  1.060987e+00
     vertex -2.914777e+00 -3.529769e+00  9.356658e-01
   endloop
 endfacet
 facet normal -9.126678e-01 -2.955202e-01  2.823212e-01
   outer loop
     vertex -2.786226e+00 -3.529769e+00  1.351237e+00
     vertex -3.191357e+00 -2.158861e+00  1.476559e+00
     vertex -3.319908e+00 -2.158861e+00  1.060987e+00
   endloop
 endfacet
 facet normal  9.126678e-01  2.955202e-01 -2.823212e-01
   outer loop
     vertex -1.932882e+00 -3.253458e+00  1.087267e+00
     vertex -2.061433e+00 -3.253458e+00  6.716954e-01
     vertex -2.466564e+00 -1.882550e+00  7.970171e-01
   endloop
 endfacet
 facet normal  9.126678e-01  2.955202e-01 -2.823212e-01
   outer loop
     vertex -1.932882e+00 -3.253458e+00  1.087267e+00
     vertex -2.466564e+00 -1.882550e+00  7.970171e-01
     vertex -2.338013e+00 -1.882550e+00  1.212588e+00
   endloop
 endfacet
 facet normal -2.955202e-01 -8.274594e-17 -9.553365e-01
   outer loop
     vertex -2.061433e+00 -3.253458e+00  6.716954e-01
     vertex -3.319908e+00 -2.158861e+00  1.060987e+00
     vertex -2.466564e+00 -1.882550e+00  7.970171e-01
   endloop
 endfacet
 facet normal -2.955202e-01 -1.241189e-16 -9.553365e-01
   outer loop
     vertex -2.061433e+00 -3.253458e+00  6.716954e-01
     vertex -2.914777e+00 -3.529769e+00  9.356658e-01
     vertex -3.319908e+00 -2.158861e+00  1.060987e+00
   endloop
 endfacet
 facet normal  2.955202e-01  3.723568e-16  9.553365e-01
   outer loop
     vertex -1.932882e+00 -3.253458e+00  1.087267e+00
     vertex -2.338013e+00 -1.882550e+00  1.212588e+00
     vertex -3.191357e+00 -2.158861e+00  1.476559e+00
   endloop
 endfacet
 facet normal  2.955202e-01 -2.068649e-16  9.553365e-01
   outer loop
     vertex -1.932882e+00 -3.253458e+00  1.087267e+00
     vertex -3.191357e+00 -2.158861e+00  1.476559e+00
     vertex -2.786226e+00 -3.529769e+00  1.351237e+00
   endloop
 endfacet
 facet normal -2.823212e-01  9.553365e-01  8.733219e-02
   outer loop
     vertex -4.104025e+00 -2.454382e+00  1.758880e+00
     vertex -3.379232e+00 -2.178070e+00  1.079338e+00
     vertex -4.232576e+00 -2.454382e+00  1.343309e+00
   endloop
 endfacet
 facet normal -2.823212e-01  9.553365e-01  8.733219e-02
   outer loop
     vertex -4.104025e+00 -2.454382e+00  1.758880e+00
     vertex -3.250681e+00 -2.178070e+00  1.494910e+00
     vertex -3.379232e+00 -2.178070e+00  1.079338e+00
   endloop
 endfacet
 facet normal  2.823212e-01 -9.553365e-01 -8.733219e-02
   outer loop
     vertex -3.698894e+00 -3.825289e+00  1.633558e+00
     vertex -3.827445e+00 -3.825289e+00  1.217987e+00
     vertex -2.974101e+00 -3.548978e+00  9.540166e-01
   endloop
 endfacet
 facet normal  2.823212e-01 -9.553365e-01 -8.733219e-02
   outer loop
     vertex -3.698894e+00 -3.825289e+00  1.633558e+00
     vertex -2.974101e+00 -3.548978e+00  9.540166e-01
     vertex -2.845550e+00 -3.548978e+00  1.369588e+00
   endloop
 endfacet
 facet normal -9.126678e-01 -2.955202e-01  2.823212e-01
   outer loop
     vertex -3.698894e+00 -3.825289e+00  1.633558e+00
     vertex -4.232576e+00 -2.454382e+00  1.343309e+00
     vertex -3.827445e+00 -3.825289e+00  1.217987e+00
   endloop
 endfacet
 facet normal -9.126678e-01 -2.955202e-01  2.823212e-01
   outer loop
     vertex -3.698894e+00 -3.825289e+00  1.633558e+00
     vertex -4.104025e+00 -2.454382e+00  1.758880e+00
     vertex -4.232576e+00 -2.454382e+00  1.343309e+00
   endloop
 endfacet
 facet normal  9.126678e-01  2.955202e-01 -2.823212e-01
   outer loop
     vertex -2.845550e+00 -3.548978e+00  1.369588e+00
     vertex -2.974101e+00 -3.548978e+00  9.540166e-01
     vertex -3.379232e+00 -2.178070e+00  1.079338e+00
   endloop
 endfacet
 facet normal  9.126678e-01  2.955202e-01 -2.823212e-01
   outer loop
     vertex -2.845550e+00 -3.548978e+00  1.369588e+00
     vertex -3.379232e+00 -2.178070e+00  1.079338e+00
     vertex -3.250681e+00 -2.178070e+00  1.494910e+00
   endloop
 endfacet
 facet normal -2.955202e-01 -1.241189e-16 -9.553365e-01
   outer loop
     vertex -2.974101e+00 -3.548978e+00  9.540166e-01
     vertex -4.232576e+00 -2.454382e+00  1.343309e+00
     vertex -3.379232e+00 -2.178070e+00  1.079338e+00
   endloop
 endfacet
 facet normal -2.955202e-01 -2.068649e-16 -9.553365e-01
   outer loop
     vertex -2.974101e+00 -3.548978e+00  9.540166e-01
     vertex -3.827445e+00 -3.825289e+00  1.217987e+00
     vertex -4.232576e+00 -2.454382e+00  1.343309e+00
   endloop
 endfacet
 facet normal  2.955202e-01  5.378486e-16  9.553365e-01
   outer loop
     vertex -2.845550e+00 -3.548978e+00  1.369588e+00
     vertex -3.250681e+00 -2.178070e+00  1.494910e+00
     vertex -4.104025e+00 -2.454382e+00  1.758880e+00
   endloop
 endfacet
 facet normal  2.955202e-01  4.137297e-17  9.553365e-01
   outer loop
     vertex -2.845550e+00 -3.548978e+00  1.369588e+00
     vertex -4.104025e+00 -2.454382e+00  1.758880e+00
     vertex -3.698894e+00 -3.825289e+00  1.633558e+00
   endloop
 endfacet
 facet normal -2.823212e-01  9.553365e-01  8.733219e-02
   outer loop
     vertex  3.197317e+00 -9.021990e-02 -4.996898e-01
     vertex  3.922111e+00  1.860915e-01 -1.179232e+00
     vertex  3.068766e+00 -9.021990e-02 -9.152612e-01
   endloop
 endfacet
 facet normal -2.823212e-01  9.553365e-01  8.733219e-02
   outer loop
     vertex  3.197317e+00 -9.021990e-02 -4.996898e-01
     vertex  4.050662e+00  1.860915e-01 -7.636602e-01
     vertex  3.922111e+00  1.860915e-01 -1.179232e+00
   endloop
 endfacet
 facet normal  2.823212e-01 -9.553365e-01 -8.733219e-02
   outer loop
     vertex  3.602448e+00 -1.461128e+00 -6.250115e-01
     vertex  3.473897e+00 -1.461128e+00 -1.040583e+00
     vertex  4.327242e+00 -1.184816e+00 -1.304553e+00
   endloop
 endfacet
 facet normal  2.823212e-01 -9.553365e-01 -8.733219e-02
   outer loop
     vertex  3.602448e+00 -1.461128e+00 -6.250115e-01
     vertex  4.327242e+00 -1.184816e+00 -1.304553e+00
     vertex  4.455793e+00 -1.184816e+00 -8.889819e-01
   endloop
 endfacet
 facet normal -9.126678e-01 -2.955202e-01  2.823212e-01
   outer loop
     vertex  3.602448e+00 -1.461128e+00 -6.250115e-01
     vertex  3.068766e+00 -9.021990e-02 -9.152612e-01
     vertex  3.473897e+00 -1.461128e+00 -1.040583e+00
   endloop
 endfacet
 facet normal -9.126678e-01 -2.955202e-01  2.823212e-01
   outer loop
     vertex  3.602448e+00 -1.461128e+00 -6.250115e-01
     vertex  3.197317e+00 -9.021990e-02 -4.996898e-01
     vertex  3.068766e+00 -9.021990e-02 -9.152612e-01
   endloop
 endfacet
 facet normal  9.126678e-01  2.955202e-01 -2.823212e-01
   outer loop
     vertex  4.455793e+00 -1.184816e+00 -8.889819e-01
     vertex  4.327242e+00 -1.184816e+00 -1.304553e+00
     vertex  3.922111e+00  1.860915e-01 -1.179232e+00
   endloop
 endfacet
 facet normal  9.126678e-01  2.955202e-01 -2.823212e-01
   outer loop
     vertex  4.455793e+00 -1.184816e+00 -8.889819e-01
     vertex  3.922111e+00  1.860915e-01 -1.179232e+00
     vertex  4.050662e+00  1.860915e-01 -7.636602e-01
   endloop
 endfacet
 facet normal -2.955202e-01 -1.241189e-16 -9.553365e-01
   outer loop
     vertex  4.327242e+00 -1.184816e+00 -1.304553e+00
     vertex  3.068766e+00 -9.021990e-02 -9.152612e-01
     vertex  3.922111e+00  1.860915e-01 -1.179232e+00
   endloop
 endfacet
 facet normal -2.955202e-01 -4.137297e-17 -9.553365e-01
   outer loop
     vertex  4.327242e+00 -1.184816e+00 -1.304553e+00
     vertex  3.473897e+00 -1.461128e+00 -1.040583e+00
     vertex  3.068766e+00 -9.021990e-02 -9.152612e-01
   endloop
 endfacet
 facet normal  2.955202e-01  1.448054e-16  9.553365e-01
   outer loop
     vertex  4.455793e+00 -1.184816e+00 -8.889819e-01
     vertex  4.050662e+00  1.860915e-01 -7.636602e-01
     vertex  3.197317e+00 -9.021990e-02 -4.996898e-01
   endloop
 endfacet
 facet normal  2.955202e-01  1.654919e-16  9.553365e-01
   outer loop
     vertex  4.455793e+00 -1.184816e+00 -8.889819e-01
     vertex  3.197317e+00 -9.021990e-02 -4.996898e-01
     vertex  3.602448e+00 -1.461128e+00 -6.250115e-01
   endloop
 endfacet
 facet normal -2.823212e-01  9.553365e-01  8.733219e-02
   outer loop
     vertex  4.109985e+00  2.053003e-01 -7.820111e-01
     vertex  4.834778e+00  4.816117e-01 -1.461553e+00
     vertex  3.981434e+00  2.053003e-01 -1.197582e+00
   endloop
 endfacet
 facet normal -2.823212e-01  9.553365e-01  8.733219e-02
   outer loop
     vertex  4.109985e+00  2.053003e-01 -7.820111e-01
     vertex  4.963330e+00  4.816117e-01 -1.045981e+00
     vertex  4.834778e+00  4.816117e-01 -1.461553e+00
   endloop
 endfacet
 facet normal  2.823212e-01 -9.553365e-01 -8.733219e-02
   outer loop
     vertex  4.515116e+00 -1.165608e+00 -9.073328e-01
     vertex  4.386565e+00 -1.165608e+00 -1.322904e+00
     vertex  5.239909e+00 -8.892962e-01 -1.586874e+00
   endloop
 endfacet
 facet normal  2.823212e-01 -9.553365e-01 -8.733219e-02
   outer loop
     vertex  4.515116e+00 -1.165608e+00 -9.073328e-01
     vertex  5.239909e+00 -8.892962e-01 -1.586874e+00
     vertex  5.368461e+00 -8.892962e-01 -1.171303e+00
   endloop
 endfacet
 facet normal -9.126678e-01 -2.955202e-01  2.823212e-01
   outer loop
     vertex  4.515116e+00 -1.165608e+00 -9.073328e-01
     vertex  3.981434e+00  2.053003e-01 -1.197582e+00
     vertex  4.386565e+00 -1.165608e+00 -1.322904e+00
   endloop
 endfacet
 facet normal -9.126678e-01 -2.955202e-01  2.823212e-01
   outer loop
     vertex  4.515116e+00 -1.165608e+00 -9.073328e-01
     vertex  4.109985e+00  2.053003e-01 -7.820111e-01
     vertex  3.981434e+00  2.053003e-01 -1.197582e+00
   endloop
 endfacet
 facet normal  9.126678e-01  2.955202e-01 -2.823212e-01
   outer loop
     vertex  5.368461e+00 -8.892962e-01 -1.171303e+00
     vertex  5.239909e+00 -8.892962e-01 -1.586874e+00
     vertex  4.834778e+00  4.816117e-01 -1.461553e+00
   endloop
 endfacet
 facet normal  9.126678e-01  2.955202e-01 -2.823212e-01
   outer loop
     vertex  5.368461e+00 -8.892962e-01 -1.171303e+00
     vertex  4.834778e+00  4.816117e-01 -1.461553e+00
     vertex  4.963330e+00  4.816117e-01 -1.045981e+00
   endloop
 endfacet
 facet normal -2.955202e-01  1.448054e-16 -9.553365e-01
   outer loop
     vertex  5.239909e+00 -8.892962e-01 -1.586874e+00
     vertex  3.981434e+00  2.053003e-01 -1.197582e+00
     vertex  4.834778e+00  4.816117e-01 -1.461553e+00
   endloop
 endfacet
 facet normal -2.955202e-01  1.241189e-16 -9.553365e-01
   outer loop
     vertex  5.239909e+00 -8.892962e-01 -1.586874e+00
     vertex  4.386565e+00 -1.165608e+00 -1.322904e+00
     vertex  3.981434e+00  2.053003e-01 -1.197582e+00
   endloop
 endfacet
 facet normal  2.955202e-01  2.275513e-16  9.553365e-01
   outer loop
     vertex  5.368461e+00 -8.892962e-01 -1.171303e+00
     vertex  4.963330e+00  4.816117e-01 -1.045981e+00
     vertex  4.109985e+00  2.053003e-01 -7.820111e-01
   endloop
 endfacet
 facet normal  2.955202e-01  1.654919e-16  9.553365e-01
   outer loop
     vertex  5.368461e+00 -8.892962e-01 -1.171303e+00
     vertex  4.109985e+00  2.053003e-01 -7.820111e-01
     vertex  4.515116e+00 -1.165608e+00 -9.073328e-01
   endloop
 endfacet
 facet normal -9.126678e-01 -2.955202e-01  2.823212e-01
   outer loop
     vertex -4.969340e+00  4.737248e-01  2.026553e+00
     vertex -5.361861e+00  1.366964e+00  1.692637e+00
     vertex -5.097891e+00  4.737248e-01  1.610982e+00
   endloop
 endfacet
 facet normal -9.126678e-01 -2.955202e-01  2.823212e-01
   outer loop
     vertex -4.969340e+00  4.737248e-01  2.026553e+00
     vertex -5.233310e+00  1.366964e+00  2.108209e+00
     vertex -5.361861e+00  1.366964e+00  1.692637e+00
   endloop
 endfacet
 facet normal  9.126678e-01  2.955202e-01 -2.823212e-01
   outer loop
     vertex -3.659661e+00  8.977963e-01  1.621422e+00
     vertex -3.788213e+00  8.977963e-01  1.205851e+00
     vertex -4.052183e+00  1.791036e+00  1.287506e+00
   endloop
 endfacet
 facet normal  9.126678e-01  2.955202e-01 -2.823212e-01
   outer loop
     vertex -3.659661e+00  8.977963e-01  1.621422e+00
     vertex -4.052183e+00  1.791036e+00  1.287506e+00
     vertex -3.923632e+00  1.791036e+00  1.703078e+00
   endloop
 endfacet
 facet normal  2.823212e-01 -9.553365e-01 -8.733219e-02
   outer loop
     vertex -3.659661e+00  8.977963e-01  1.621422e+00
     vertex -5.097891e+00  4.737248e-01  1.610982e+00
     vertex -3.788213e+00  8.977963e-01  1.205851e+00
   endloop
 endfacet
 facet normal  2.823212e-01 -9.553365e-01 -8.733219e-02
   outer loop
     vertex -3.659661e+00  8.977963e-01  1.621422e+00
     vertex -4.969340e+00  4.737248e-01  2.026553e+00
     vertex -5.097891e+00  4.737248e-01  1.610982e+00
   endloop
 endfacet
 facet normal -2.823212e-01  9.553365e-01  8.733219e-02
   outer loop
     vertex -3.923632e+00  1.791036e+00  1.703078e+00
     vertex -4.052183e+00  1.791036e+00  1.287506e+00
     vertex -5.361861e+00  1.366964e+00  1.692637e+00
   endloop
 endfacet
 facet normal -2.823212e-01  9.553365e-01  8.733219e-02
   outer loop
     vertex -3.923632e+00  1.791036e+00  1.703078e+00
     vertex -5.361861e+00  1.366964e+00  1.692637e+00
     vertex -5.233310e+00  1.366964e+00  2.108209e+00
   endloop
 endfacet
 facet normal -2.955202e-01  1.241189e-16 -9.553365e-01
   outer loop
     vertex -4.052183e+00  1.791036e+00  1.287506e+00
     vertex -5.097891e+00  4.737248e-01  1.610982e+00
     vertex -5.361861e+00  1.366964e+00  1.692637e+00
   endloop
 endfacet
 facet normal -2.955202e-01  1.034324e-16 -9.553365e-01
   outer loop
     vertex -4.052183e+00  1.791036e+00  1.287506e+00
     vertex -3.788213e+00  8.977963e-01  1.205851e+00
     vertex -5.097891e+00  4.737248e-01  1.610982e+00
   endloop
 endfacet
 facet normal  2.955202e-01  2.482378e-16  9.553365e-01
   outer loop
     vertex -3.923632e+00  1.791036e+00  1.703078e+00
     vertex -5.233310e+00  1.366964e+00  2.108209e+00
     vertex -4.969340e+00  4.737248e-01  2.026553e+00
   endloop
 endfacet
 facet normal  2.955202e-01  3.102973e-16  9.553365e-01
   outer loop
     vertex -3.923632e+00  1.791036e+00  1.703078e+00
     vertex -4.969340e+00  4.737248e-01  2.026553e+00
     vertex -3.659661e+00  8.977963e-01  1.621422e+00
   endloop
 endfacet
 facet normal -9.126678e-01 -2.955202e-01  2.823212e-01
   outer loop
     vertex -4.687018e+00 -4.816117e-01  1.939221e+00
     vertex -5.079540e+00  4.116279e-01  1.605305e+00
     vertex -4.815570e+00 -4.816117e-01  1.523650e+00
   endloop
 endfacet
 facet normal -9.126678e-01 -2.955202e-01  2.823212e-01
   outer loop
     vertex -4.687018e+00 -4.816117e-01  1.939221e+00
     vertex -4.950989e+00  4.116279e-01  2.020877e+00
     vertex -5.079540e+00  4.116279e-01  1.605305e+00
   endloop
 endfacet
 facet normal  9.126678e-01  2.955202e-01 -2.823212e-01
   outer loop
     vertex -3.377340e+00 -5.754021e-02  1.534090e+00
     vertex -3.505891e+00 -5.754021e-02  1.118519e+00
     vertex -3.769862e+00  8.356994e-01  1.200174e+00
   endloop
 endfacet
 facet normal  9.126678e-01  2.955202e-01 -2.823212e-01
   outer loop
     vertex -3.377340e+00 -5.754021e-02  1.534090e+00
     vertex -3.769862e+00  8.356994e-01  1.200174e+00
     vertex -3.641310e+00  8.356994e-01  1.615746e+00
   endloop
 endfacet
 facet normal  2.823212e-01 -9.553365e-01 -8.733219e-02
   outer loop
     vertex -3.377340e+00 -5.754021e-02  1.534090e+00
     vertex -4.815570e+00 -4.816117e-01  1.523650e+00
     vertex -3.505891e+00 -5.754021e-02  1.118519e+00
   endloop
 endfacet
 facet normal  2.823212e-01 -9.553365e-01 -8.733219e-02
   outer loop
     vertex -3.377340e+00 -5.754021e-02  1.534090e+00
     vertex -4.687018e+00 -4.816117e-01  1.939221e+00
     vertex -4.815570e+00 -4.816117e-01  1.523650e+00
   endloop
 endfacet
 facet normal -2.823212e-01  9.553365e-01  8.733219e-02
   outer loop
     vertex -3.641310e+00  8.356994e-01  1.615746e+00
     vertex -3.769862e+00  8.356994e-01  1.200174e+00
     vertex -5.079540e+00  4.116279e-01  1.605305e+00
   endloop
 endfacet
 facet normal -2.823212e-01  9.553365e-01  8.733219e-02
   outer loop
     vertex -3.641310e+00  8.356994e-01  1.615746e+00
     vertex -5.079540e+00  4.116279e-01  1.605305e+00
     vertex -4.950989e+00  4.116279e-01  2.020877e+00
   endloop
 endfacet
 facet normal -2.955202e-01  2.068649e-16 -9.553365e-01
   outer loop
     vertex -3.769862e+00  8.356994e-01  1.200174e+00
     vertex -4.815570e+00 -4.816117e-01  1.523650e+00
     vertex -5.079540e+00  4.116279e-01  1.605305e+00
   endloop
 endfacet
 facet normal -2.955202e-01 -8.274594e-17 -9.553365e-01
   outer loop
     vertex -3.769862e+00  8.356994e-01  1.200174e+00
     vertex -3.505891e+00 -5.754021e-02  1.118519e+00
     vertex -4.815570e+00 -4.816117e-01  1.523650e+00
   endloop
 endfacet
 facet normal  2.955202e-01  4.137297e-17  9.553365e-01
   outer loop
     vertex -3.641310e+00  8.356994e-01  1.615746e+00
     vertex -4.950989e+00  4.116279e-01  2.020877e+00
     vertex -4.687018e+00 -4.816117e-01  1.939221e+00
   endloop
 endfacet
 facet normal  2.955202e-01  2.172081e-16  9.553365e-01
   outer loop
     vertex -3.641310e+00  8.356994e-01  1.615746e+00
     vertex -4.687018e+00 -4.816117e-01  1.939221e+00
     vertex -3.377340e+00 -5.754021e-02  1.534090e+00
   endloop
 endfacet
 facet normal  9.126678e-01  2.955202e-01 -2.823212e-01
   outer loop
     vertex  4.116366e+00  3.347621e+00 -7.839848e-01
     vertex  4.251785e+00  2.454382e+00 -1.281212e+00
     vertex  3.987815e+00  3.347621e+00 -1.199556e+00
   endloop
 endfacet
 facet normal  9.126678e-01  2.955202e-01 -2.823212e-01
   outer loop
     vertex  4.116366e+00  3.347621e+00 -7.839848e-01
     vertex  4.380336e+00  2.454382e+00 -8.656404e-01
     vertex  4.251785e+00  2.454382e+00 -1.281212e+00
   endloop
 endfacet
 facet normal -9.126678e-01 -2.955202e-01  2.823212e-01
   outer loop
     vertex  2.806688e+00  2.923550e+00 -3.788539e-01
     vertex  2.678136e+00  2.923550e+00 -7.944252e-01
     vertex  2.942107e+00  2.030310e+00 -8.760808e-01
   endloop
 endfacet
 facet normal -9.126678e-01 -2.955202e-01  2.823212e-01
   outer loop
     vertex  2.806688e+00  2.923550e+00 -3.788539e-01
     vertex  2.942107e+00  2.030310e+00 -8.760808e-01
     vertex  3.070658e+00  2.030310e+00 -4.605095e-01
   endloop
 endfacet
 facet normal -2.823212e-01  9.553365e-01  8.733219e-02
   outer loop
     vertex  2.806688e+00  2.923550e+00 -3.788539e-01
     vertex  3.987815e+00  3.347621e+00 -1.199556e+00
     vertex  2.678136e+00  2.923550e+00 -7.944252e-01
   endloop
 endfacet
 facet normal -2.823212e-01  9.553365e-01  8.733219e-02
   outer loop
     vertex  2.806688e+00  2.923550e+00 -3.788539e-01
     vertex  4.116366e+00  3.347621e+00 -7.839848e-01
     vertex  3.987815e+00  3.347621e+00 -1.199556e+00
   endloop
 endfacet
 facet normal  2.823212e-01 -9.553365e-01 -8.733219e-02
   outer loop
     vertex  3.070658e+00  2.030310e+00 -4.605095e-01
     vertex  2.942107e+00  2.030310e+00 -8.760808e-01
     vertex  4.251785e+00  2.454382e+00 -1.281212e+00
   endloop
 endfacet
 facet normal  2.823212e-01 -9.553365e-01 -8.733219e-02
   outer loop
     vertex  3.070658e+00  2.030310e+00 -4.605095e-01
     vertex  4.251785e+00  2.454382e+00 -1.281212e+00
     vertex  4.380336e+00  2.454382e+00 -8.656404e-01
   endloop
 endfacet
 facet normal -2.955202e-01 -4.137297e-17 -9.553365e-01
   outer loop
     vertex  2.942107e+00  2.030310e+00 -8.760808e-01
     vertex  3.987815e+00  3.347621e+00 -1.199556e+00
     vertex  4.251785e+00  2.454382e+00 -1.281212e+00
   endloop
 endfacet
 facet normal -2.955202e-01 -4.137297e-17 -9.553365e-01
   outer loop
     vertex  2.942107e+00  2.030310e+00 -8.760808e-01
     vertex  2.678136e+00  2.923550e+00 -7.944252e-01
     vertex  3.987815e+00  3.347621e+00 -1.199556e+00
   endloop
 endfacet
 facet normal  2.955202e-01 -4.137297e-17  9.553365e-01
   outer loop
     vertex  3.070658e+00  2.030310e+00 -4.605095e-01
     vertex  4.380336e+00  2.454382e+00 -8.656404e-01
     vertex  4.116366e+00  3.347621e+00 -7.839848e-01
   endloop
 endfacet
 facet normal  2.955202e-01 -1.034324e-16  9.553365e-01
   outer loop
     vertex  3.070658e+00  2.030310e+00 -4.605095e-01
     vertex  4.116366e+00  3.347621e+00 -7.839848e-01
     vertex  2.806688e+00  2.923550e+00 -3.788539e-01
   endloop
 endfacet
 facet normal  9.126678e-01  2.955202e-01 -2.823212e-01
   outer loop
     vertex  3.834045e+00  4.302958e+00 -6.966527e-01
     vertex  3.969464e+00  3.409718e+00 -1.193880e+00
     vertex  3.705493e+00  4.302958e+00 -1.112224e+00
   endloop
 endfacet
 facet normal  9.126678e-01  2.955202e-01 -2.823212e-01
   outer loop
     vertex  3.834045e+00  4.302958e+00 -6.966527e-01
     vertex  4.098015e+00  3.409718e+00 -7.783083e-01
     vertex  3.969464e+00  3.409718e+00 -1.193880e+00
   endloop
 endfacet
 facet normal -9.126678e-01 -2.955202e-01  2.823212e-01
   outer loop
     vertex  2.524366e+00  3.878886e+00 -2.915217e-01
     vertex  2.395815e+00  3.878886e+00 -7.070931e-01
     vertex  2.659786e+00  2.985647e+00 -7.887487e-01
   endloop
 endfacet
 facet normal -9.126678e-01 -2.955202e-01  2.823212e-01
   outer loop
     vertex  2.524366e+00  3.878886e+00 -2.915217e-01
     vertex  2.659786e+00  2.985647e+00 -7.887487e-01
     vertex  2.788337e+00  2.985647e+00 -3.731773e-01
   endloop
 endfacet
 facet normal -2.823212e-01  9.553365e-01  8.733219e-02
   outer loop
     vertex  2.524366e+00  3.878886e+00 -2.915217e-01
     vertex  3.705493e+00  4.302958e+00 -1.112224e+00
     vertex  2.395815e+00  3.878886e+00 -7.070931e-01
   endloop
 endfacet
 facet normal -2.823212e-01  9.553365e-01  8.733219e-02
   outer loop
     vertex  2.524366e+00  3.878886e+00 -2.915217e-01
     vertex  3.834045e+00  4.302958e+00 -6.966527e-01
     vertex  3.705493e+00  4.302958e+00 -1.112224e+00
   endloop
 endfacet
 facet normal  2.823212e-01 -9.553365e-01 -8.733219e-02
   outer loop
     vertex  2.788337e+00  2.985647e+00 -3.731773e-01
     vertex  2.659786e+00  2.985647e+00 -7.887487e-01
     vertex  3.969464e+00  3.409718e+00 -1.193880e+00
   endloop
 endfacet
 facet normal  2.823212e-01 -9.553365e-01 -8.733219e-02
   outer loop
     vertex  2.788337e+00  2.985647e+00 -3.731773e-01
     vertex  3.969464e+00  3.409718e+00 -1.193880e+00
     vertex  4.098015e+00  3.409718e+00 -7.783083e-01
   endloop
 endfacet
 facet normal -2.955202e-01  8.274594e-17 -9.553365e-01
   outer loop
     vertex  2.659786e+00  2.985647e+00 -7.887487e-01
     vertex  3.705493e+00  4.302958e+00 -1.112224e+00
     vertex  3.969464e+00  3.409718e+00 -1.193880e+00
   endloop
 endfacet
 facet normal -2.955202e-01 -3.102973e-17 -9.553365e-01
   outer loop
     vertex  2.659786e+00  2.985647e+00 -7.887487e-01
     vertex  2.395815e+00  3.878886e+00 -7.070931e-01
     vertex  3.705493e+00  4.302958e+00 -1.112224e+00
   endloop
 endfacet
 facet normal  2.955202e-01  4.137297e-17  9.553365e-01
   outer loop
     vertex  2.788337e+00  2.985647e+00 -3.731773e-01
     vertex  4.098015e+00  3.409718e+00 -7.783083e-01
     vertex  3.834045e+00  4.302958e+00 -6.966527e-01
   endloop
 endfacet
 facet normal  2.955202e-01  1.758351e-16  9.553365e-01
   outer loop
     vertex  2.788337e+00  2.985647e+00 -3.731773e-01
     vertex  3.834045e+00  4.302958e+00 -6.966527e-01
     vertex  2.524366e+00  3.878886e+00 -2.915217e-01
   endloop
 endfacet
endsolid
