solid 
 facet normal -1.635790e-01  9.318388e-01  3.239111e-01
   outer loop
     vertex  2.473122e+00  4.154715e+00 -4.629275e+00
     vertex  1.698393e+00  4.252831e+00 -5.302788e+00
     vertex  2.083083e+00  4.034061e+00 -4.479150e+00
   endloop
 endfacet
 facet normal -1.635790e-01  9.318388e-01  3.239111e-01
   outer loop
     vertex  2.473122e+00  4.154715e+00 -4.629275e+00
     vertex  2.088432e+00  4.373484e+00 -5.452912e+00
     vertex  1.698393e+00  4.252831e+00 -5.302788e+00
   endloop
 endfacet
 facet normal  1.635790e-01 -9.318388e-01 -3.239111e-01
   outer loop
     vertex  2.789647e+00  2.351606e+00 -5.256043e+00
     vertex  2.399608e+00  2.230953e+00 -5.105918e+00
     vertex  2.014919e+00  2.449723e+00 -5.929555e+00
   endloop
 endfacet
 facet normal  1.635790e-01 -9.318388e-01 -3.239111e-01
   outer loop
     vertex  2.789647e+00  2.351606e+00 -5.256043e+00
     vertex  2.014919e+00  2.449723e+00 -5.929555e+00
     vertex  2.404958e+00  2.570376e+00 -6.079680e+00
   endloop
 endfacet
 facet normal  4.114324e-01 -2.339784e-01  8.808958e-01
   outer loop
     vertex  2.789647e+00  2.351606e+00 -5.256043e+00
     vertex  2.083083e+00  4.034061e+00 -4.479150e+00
     vertex  2.399608e+00  2.230953e+00 -5.105918e+00
   endloop
 endfacet
 facet normal  4.114324e-01 -2.339784e-01  8.808958e-01
   outer loop
     vertex  2.789647e+00  2.351606e+00 -5.256043e+00
     vertex  2.473122e+00  4.154715e+00 -4.629275e+00
     vertex  2.083083e+00  4.034061e+00 -4.479150e+00
   endloop
 endfacet
 facet normal -4.114324e-01  2.339784e-01 -8.808958e-01
   outer loop
     vertex  2.404958e+00  2.570376e+00 -6.079680e+00
     vertex  2.014919e+00  2.449723e+00 -5.929555e+00
     vertex  1.698393e+00  4.252831e+00 -5.302788e+00
   endloop
 endfacet
 facet normal -4.114324e-01  2.339784e-01 -8.808958e-01
   outer loop
     vertex  2.404958e+00  2.570376e+00 -6.079680e+00
     vertex  1.698393e+00  4.252831e+00 -5.302788e+00
     vertex  2.088432e+00  4.373484e+00 -5.452912e+00
   endloop
 endfacet
 facet normal -8.966411e-01 -2.773636e-01  3.451147e-01
   outer loop
     vertex  2.014919e+00  2.449723e+00 -5.929555e+00
     vertex  2.083083e+00  4.034061e+00 -4.479150e+00
     vertex  1.698393e+00  4.252831e+00 -5.302788e+00
   endloop
 endfacet
 facet normal -8.966411e-01 -2.773636e-01  3.451147e-01
   outer loop
     vertex  2.014919e+00  2.449723e+00 -5.929555e+00
     vertex  2.399608e+00  2.230953e+00 -5.105918e+00
     vertex  2.083083e+00  4.034061e+00 -4.479150e+00
   endloop
 endfacet
 facet normal  8.966411e-01  2.773636e-01 -3.451147e-01
   outer loop
     vertex  2.404958e+00  2.570376e+00 -6.079680e+00
     vertex  2.088432e+00  4.373484e+00 -5.452912e+00
     vertex  2.473122e+00  4.154715e+00 -4.629275e+00
   endloop
 endfacet
 facet normal  8.966411e-01  2.773636e-01 -3.451147e-01
   outer loop
     vertex  2.404958e+00  2.570376e+00 -6.079680e+00
     vertex  2.473122e+00  4.154715e+00 -4.629275e+00
     vertex  2.789647e+00  2.351606e+00 -5.256043e+00
   endloop
 endfacet
 facet normal -4.114324e-01  2.339784e-01 -8.808958e-01
   outer loop
     vertex  1.640112e+00  4.234803e+00 -5.280355e+00
     vertex  1.403019e+00  3.242880e+00 -5.433087e+00
     vertex  1.250073e+00  4.114149e+00 -5.130230e+00
   endloop
 endfacet
 facet normal -4.114324e-01  2.339784e-01 -8.808958e-01
   outer loop
     vertex  1.640112e+00  4.234803e+00 -5.280355e+00
     vertex  1.793058e+00  3.363533e+00 -5.583212e+00
     vertex  1.403019e+00  3.242880e+00 -5.433087e+00
   endloop
 endfacet
 facet normal  4.114324e-01 -2.339784e-01  8.808958e-01
   outer loop
     vertex  2.436234e+00  3.782054e+00 -3.575822e+00
     vertex  2.046195e+00  3.661401e+00 -3.425697e+00
     vertex  2.199141e+00  2.790132e+00 -3.728554e+00
   endloop
 endfacet
 facet normal  4.114324e-01 -2.339784e-01  8.808958e-01
   outer loop
     vertex  2.436234e+00  3.782054e+00 -3.575822e+00
     vertex  2.199141e+00  2.790132e+00 -3.728554e+00
     vertex  2.589180e+00  2.910785e+00 -3.878678e+00
   endloop
 endfacet
 facet normal -1.635790e-01  9.318388e-01  3.239111e-01
   outer loop
     vertex  2.436234e+00  3.782054e+00 -3.575822e+00
     vertex  1.250073e+00  4.114149e+00 -5.130230e+00
     vertex  2.046195e+00  3.661401e+00 -3.425697e+00
   endloop
 endfacet
 facet normal -1.635790e-01  9.318388e-01  3.239111e-01
   outer loop
     vertex  2.436234e+00  3.782054e+00 -3.575822e+00
     vertex  1.640112e+00  4.234803e+00 -5.280355e+00
     vertex  1.250073e+00  4.114149e+00 -5.130230e+00
   endloop
 endfacet
 facet normal  1.635790e-01 -9.318388e-01 -3.239111e-01
   outer loop
     vertex  2.589180e+00  2.910785e+00 -3.878678e+00
     vertex  2.199141e+00  2.790132e+00 -3.728554e+00
     vertex  1.403019e+00  3.242880e+00 -5.433087e+00
   endloop
 endfacet
 facet normal  1.635790e-01 -9.318388e-01 -3.239111e-01
   outer loop
     vertex  2.589180e+00  2.910785e+00 -3.878678e+00
     vertex  1.403019e+00  3.242880e+00 -5.433087e+00
     vertex  1.793058e+00  3.363533e+00 -5.583212e+00
   endloop
 endfacet
 facet normal -8.966411e-01 -2.773636e-01  3.451147e-01
   outer loop
     vertex  2.199141e+00  2.790132e+00 -3.728554e+00
     vertex  1.250073e+00  4.114149e+00 -5.130230e+00
     vertex  1.403019e+00  3.242880e+00 -5.433087e+00
   endloop
 endfacet
 facet normal -8.966411e-01 -2.773636e-01  3.451147e-01
   outer loop
     vertex  2.199141e+00  2.790132e+00 -3.728554e+00
     vertex  2.046195e+00  3.661401e+00 -3.425697e+00
     vertex  1.250073e+00  4.114149e+00 -5.130230e+00
   endloop
 endfacet
 facet normal  8.966411e-01  2.773636e-01 -3.451147e-01
   outer loop
     vertex  2.589180e+00  2.910785e+00 -3.878678e+00
     vertex  1.793058e+00  3.363533e+00 -5.583212e+00
     vertex  1.640112e+00  4.234803e+00 -5.280355e+00
   endloop
 endfacet
 facet normal  8.966411e-01  2.773636e-01 -3.451147e-01
   outer loop
     vertex  2.589180e+00  2.910785e+00 -3.878678e+00
     vertex  1.640112e+00  4.234803e+00 -5.280355e+00
     vertex  2.436234e+00  3.782054e+00 -3.575822e+00
   endloop
 endfacet
 facet normal -1.635790e-01  9.318388e-01  3.239111e-01
   outer loop
     vertex  1.576481e+00  3.877351e+00 -4.284160e+00
     vertex  8.017523e-01  3.975468e+00 -4.957673e+00
     vertex  1.186442e+00  3.756698e+00 -4.134035e+00
   endloop
 endfacet
 facet normal -1.635790e-01  9.318388e-01  3.239111e-01
   outer loop
     vertex  1.576481e+00  3.877351e+00 -4.284160e+00
     vertex  1.191791e+00  4.096121e+00 -5.107798e+00
     vertex  8.017523e-01  3.975468e+00 -4.957673e+00
   endloop
 endfacet
 facet normal  1.635790e-01 -9.318388e-01 -3.239111e-01
   outer loop
     vertex  1.893006e+00  2.074243e+00 -4.910928e+00
     vertex  1.502967e+00  1.953590e+00 -4.760803e+00
     vertex  1.118278e+00  2.172360e+00 -5.584441e+00
   endloop
 endfacet
 facet normal  1.635790e-01 -9.318388e-01 -3.239111e-01
   outer loop
     vertex  1.893006e+00  2.074243e+00 -4.910928e+00
     vertex  1.118278e+00  2.172360e+00 -5.584441e+00
     vertex  1.508317e+00  2.293013e+00 -5.734566e+00
   endloop
 endfacet
 facet normal  4.114324e-01 -2.339784e-01  8.808958e-01
   outer loop
     vertex  1.893006e+00  2.074243e+00 -4.910928e+00
     vertex  1.186442e+00  3.756698e+00 -4.134035e+00
     vertex  1.502967e+00  1.953590e+00 -4.760803e+00
   endloop
 endfacet
 facet normal  4.114324e-01 -2.339784e-01  8.808958e-01
   outer loop
     vertex  1.893006e+00  2.074243e+00 -4.910928e+00
     vertex  1.576481e+00  3.877351e+00 -4.284160e+00
     vertex  1.186442e+00  3.756698e+00 -4.134035e+00
   endloop
 endfacet
 facet normal -4.114324e-01  2.339784e-01 -8.808958e-01
   outer loop
     vertex  1.508317e+00  2.293013e+00 -5.734566e+00
     vertex  1.118278e+00  2.172360e+00 -5.584441e+00
     vertex  8.017523e-01  3.975468e+00 -4.957673e+00
   endloop
 endfacet
 facet normal -4.114324e-01  2.339784e-01 -8.808958e-01
   outer loop
     vertex  1.508317e+00  2.293013e+00 -5.734566e+00
     vertex  8.017523e-01  3.975468e+00 -4.957673e+00
     vertex  1.191791e+00  4.096121e+00 -5.107798e+00
   endloop
 endfacet
 facet normal -8.966411e-01 -2.773636e-01  3.451147e-01
   outer loop
     vertex  1.118278e+00  2.172360e+00 -5.584441e+00
     vertex  1.186442e+00  3.756698e+00 -4.134035e+00
     vertex  8.017523e-01  3.975468e+00 -4.957673e+00
   endloop
 endfacet
 facet normal -8.966411e-01 -2.773636e-01  3.451147e-01
   outer loop
     vertex  1.118278e+00  2.172360e+00 -5.584441e+00
     vertex  1.502967e+00  1.953590e+00 -4.760803e+00
     vertex  1.186442e+00  3.756698e+00 -4.134035e+00
   endloop
 endfacet
 facet normal  8.966411e-01  2.773636e-01 -3.451147e-01
   outer loop
     vertex  1.508317e+00  2.293013e+00 -5.734566e+00
     vertex  1.191791e+00  4.096121e+00 -5.107798e+00
     vertex  1.576481e+00  3.877351e+00 -4.284160e+00
   endloop
 endfacet
 facet normal  8.966411e-01  2.773636e-01 -3.451147e-01
   outer loop
     vertex  1.508317e+00  2.293013e+00 -5.734566e+00
     vertex  1.576481e+00  3.877351e+00 -4.284160e+00
     vertex  1.893006e+00  2.074243e+00 -4.910928e+00
   endloop
 endfacet
 facet normal -4.114324e-01  2.339784e-01 -8.808958e-01
   outer loop
     vertex  7.434706e-01  3.957439e+00 -4.935240e+00
     vertex  5.063782e-01  2.965517e+00 -5.087972e+00
     vertex  3.534318e-01  3.836786e+00 -4.785115e+00
   endloop
 endfacet
 facet normal -4.114324e-01  2.339784e-01 -8.808958e-01
   outer loop
     vertex  7.434706e-01  3.957439e+00 -4.935240e+00
     vertex  8.964170e-01  3.086170e+00 -5.238097e+00
     vertex  5.063782e-01  2.965517e+00 -5.087972e+00
   endloop
 endfacet
 facet normal  4.114324e-01 -2.339784e-01  8.808958e-01
   outer loop
     vertex  1.539592e+00  3.504691e+00 -3.230707e+00
     vertex  1.149554e+00  3.384038e+00 -3.080582e+00
     vertex  1.302500e+00  2.512768e+00 -3.383439e+00
   endloop
 endfacet
 facet normal  4.114324e-01 -2.339784e-01  8.808958e-01
   outer loop
     vertex  1.539592e+00  3.504691e+00 -3.230707e+00
     vertex  1.302500e+00  2.512768e+00 -3.383439e+00
     vertex  1.692539e+00  2.633421e+00 -3.533564e+00
   endloop
 endfacet
 facet normal -1.635790e-01  9.318388e-01  3.239111e-01
   outer loop
     vertex  1.539592e+00  3.504691e+00 -3.230707e+00
     vertex  3.534318e-01  3.836786e+00 -4.785115e+00
     vertex  1.149554e+00  3.384038e+00 -3.080582e+00
   endloop
 endfacet
 facet normal -1.635790e-01  9.318388e-01  3.239111e-01
   outer loop
     vertex  1.539592e+00  3.504691e+00 -3.230707e+00
     vertex  7.434706e-01  3.957439e+00 -4.935240e+00
     vertex  3.534318e-01  3.836786e+00 -4.785115e+00
   endloop
 endfacet
 facet normal  1.635790e-01 -9.318388e-01 -3.239111e-01
   outer loop
     vertex  1.692539e+00  2.633421e+00 -3.533564e+00
     vertex  1.302500e+00  2.512768e+00 -3.383439e+00
     vertex  5.063782e-01  2.965517e+00 -5.087972e+00
   endloop
 endfacet
 facet normal  1.635790e-01 -9.318388e-01 -3.239111e-01
   outer loop
     vertex  1.692539e+00  2.633421e+00 -3.533564e+00
     vertex  5.063782e-01  2.965517e+00 -5.087972e+00
     vertex  8.964170e-01  3.086170e+00 -5.238097e+00
   endloop
 endfacet
 facet normal -8.966411e-01 -2.773636e-01  3.451147e-01
   outer loop
     vertex  1.302500e+00  2.512768e+00 -3.383439e+00
     vertex  3.534318e-01  3.836786e+00 -4.785115e+00
     vertex  5.063782e-01  2.965517e+00 -5.087972e+00
   endloop
 endfacet
 facet normal -8.966411e-01 -2.773636e-01  3.451147e-01
   outer loop
     vertex  1.302500e+00  2.512768e+00 -3.383439e+00
     vertex  1.149554e+00  3.384038e+00 -3.080582e+00
     vertex  3.534318e-01  3.836786e+00 -4.785115e+00
   endloop
 endfacet
 facet normal  8.966411e-01  2.773636e-01 -3.451147e-01
   outer loop
     vertex  1.692539e+00  2.633421e+00 -3.533564e+00
     vertex  8.964170e-01  3.086170e+00 -5.238097e+00
     vertex  7.434706e-01  3.957439e+00 -4.935240e+00
   endloop
 endfacet
 facet normal  8.966411e-01  2.773636e-01 -3.451147e-01
   outer loop
     vertex  1.692539e+00  2.633421e+00 -3.533564e+00
     vertex  7.434706e-01  3.957439e+00 -4.935240e+00
     vertex  1.539592e+00  3.504691e+00 -3.230707e+00
   endloop
 endfacet
 facet normal -1.635790e-01  9.318388e-01  3.239111e-01
   outer loop
     vertex  6.798394e-01  3.599987e+00 -3.939045e+00
     vertex -9.488878e-02  3.698104e+00 -4.612558e+00
     vertex  2.898005e-01  3.479334e+00 -3.788920e+00
   endloop
 endfacet
 facet normal -1.635790e-01  9.318388e-01  3.239111e-01
   outer loop
     vertex  6.798394e-01  3.599987e+00 -3.939045e+00
     vertex  2.951501e-01  3.818757e+00 -4.762683e+00
     vertex -9.488878e-02  3.698104e+00 -4.612558e+00
   endloop
 endfacet
 facet normal  1.635790e-01 -9.318388e-01 -3.239111e-01
   outer loop
     vertex  9.963648e-01  1.796879e+00 -4.565813e+00
     vertex  6.063260e-01  1.676226e+00 -4.415688e+00
     vertex  2.216366e-01  1.894996e+00 -5.239326e+00
   endloop
 endfacet
 facet normal  1.635790e-01 -9.318388e-01 -3.239111e-01
   outer loop
     vertex  9.963648e-01  1.796879e+00 -4.565813e+00
     vertex  2.216366e-01  1.894996e+00 -5.239326e+00
     vertex  6.116755e-01  2.015649e+00 -5.389451e+00
   endloop
 endfacet
 facet normal  4.114324e-01 -2.339784e-01  8.808958e-01
   outer loop
     vertex  9.963648e-01  1.796879e+00 -4.565813e+00
     vertex  2.898005e-01  3.479334e+00 -3.788920e+00
     vertex  6.063260e-01  1.676226e+00 -4.415688e+00
   endloop
 endfacet
 facet normal  4.114324e-01 -2.339784e-01  8.808958e-01
   outer loop
     vertex  9.963648e-01  1.796879e+00 -4.565813e+00
     vertex  6.798394e-01  3.599987e+00 -3.939045e+00
     vertex  2.898005e-01  3.479334e+00 -3.788920e+00
   endloop
 endfacet
 facet normal -4.114324e-01  2.339784e-01 -8.808958e-01
   outer loop
     vertex  6.116755e-01  2.015649e+00 -5.389451e+00
     vertex  2.216366e-01  1.894996e+00 -5.239326e+00
     vertex -9.488878e-02  3.698104e+00 -4.612558e+00
   endloop
 endfacet
 facet normal -4.114324e-01  2.339784e-01 -8.808958e-01
   outer loop
     vertex  6.116755e-01  2.015649e+00 -5.389451e+00
     vertex -9.488878e-02  3.698104e+00 -4.612558e+00
     vertex  2.951501e-01  3.818757e+00 -4.762683e+00
   endloop
 endfacet
 facet normal -8.966411e-01 -2.773636e-01  3.451147e-01
   outer loop
     vertex  2.216366e-01  1.894996e+00 -5.239326e+00
     vertex  2.898005e-01  3.479334e+00 -3.788920e+00
     vertex -9.488878e-02  3.698104e+00 -4.612558e+00
   endloop
 endfacet
 facet normal -8.966411e-01 -2.773636e-01  3.451147e-01
   outer loop
     vertex  2.216366e-01  1.894996e+00 -5.239326e+00
     vertex  6.063260e-01  1.676226e+00 -4.415688e+00
     vertex  2.898005e-01  3.479334e+00 -3.788920e+00
   endloop
 endfacet
 facet normal  8.966411e-01  2.773636e-01 -3.451147e-01
   outer loop
     vertex  6.116755e-01  2.015649e+00 -5.389451e+00
     vertex  2.951501e-01  3.818757e+00 -4.762683e+00
     vertex  6.798394e-01  3.599987e+00 -3.939045e+00
   endloop
 endfacet
 facet normal  8.966411e-01  2.773636e-01 -3.451147e-01
   outer loop
     vertex  6.116755e-01  2.015649e+00 -5.389451e+00
     vertex  6.798394e-01  3.599987e+00 -3.939045e+00
     vertex  9.963648e-01  1.796879e+00 -4.565813e+00
   endloop
 endfacet
 facet normal -4.114324e-01  2.339784e-01 -8.808958e-01
   outer loop
     vertex -1.531704e-01  3.680075e+00 -4.590126e+00
     vertex -3.902629e-01  2.688153e+00 -4.742858e+00
     vertex -5.432093e-01  3.559422e+00 -4.440001e+00
   endloop
 endfacet
 facet normal -4.114324e-01  2.339784e-01 -8.808958e-01
   outer loop
     vertex -1.531704e-01  3.680075e+00 -4.590126e+00
     vertex -2.240643e-04  2.808806e+00 -4.892982e+00
     vertex -3.902629e-01  2.688153e+00 -4.742858e+00
   endloop
 endfacet
 facet normal  4.114324e-01 -2.339784e-01  8.808958e-01
   outer loop
     vertex  6.429513e-01  3.227327e+00 -2.885592e+00
     vertex  2.529124e-01  3.106674e+00 -2.735467e+00
     vertex  4.058588e-01  2.235405e+00 -3.038324e+00
   endloop
 endfacet
 facet normal  4.114324e-01 -2.339784e-01  8.808958e-01
   outer loop
     vertex  6.429513e-01  3.227327e+00 -2.885592e+00
     vertex  4.058588e-01  2.235405e+00 -3.038324e+00
     vertex  7.958977e-01  2.356058e+00 -3.188449e+00
   endloop
 endfacet
 facet normal -1.635790e-01  9.318388e-01  3.239111e-01
   outer loop
     vertex  6.429513e-01  3.227327e+00 -2.885592e+00
     vertex -5.432093e-01  3.559422e+00 -4.440001e+00
     vertex  2.529124e-01  3.106674e+00 -2.735467e+00
   endloop
 endfacet
 facet normal -1.635790e-01  9.318388e-01  3.239111e-01
   outer loop
     vertex  6.429513e-01  3.227327e+00 -2.885592e+00
     vertex -1.531704e-01  3.680075e+00 -4.590126e+00
     vertex -5.432093e-01  3.559422e+00 -4.440001e+00
   endloop
 endfacet
 facet normal  1.635790e-01 -9.318388e-01 -3.239111e-01
   outer loop
     vertex  7.958977e-01  2.356058e+00 -3.188449e+00
     vertex  4.058588e-01  2.235405e+00 -3.038324e+00
     vertex -3.902629e-01  2.688153e+00 -4.742858e+00
   endloop
 endfacet
 facet normal  1.635790e-01 -9.318388e-01 -3.239111e-01
   outer loop
     vertex  7.958977e-01  2.356058e+00 -3.188449e+00
     vertex -3.902629e-01  2.688153e+00 -4.742858e+00
     vertex -2.240643e-04  2.808806e+00 -4.892982e+00
   endloop
 endfacet
 facet normal -8.966411e-01 -2.773636e-01  3.451147e-01
   outer loop
     vertex  4.058588e-01  2.235405e+00 -3.038324e+00
     vertex -5.432093e-01  3.559422e+00 -4.440001e+00
     vertex -3.902629e-01  2.688153e+00 -4.742858e+00
   endloop
 endfacet
 facet normal -8.966411e-01 -2.773636e-01  3.451147e-01
   outer loop
     vertex  4.058588e-01  2.235405e+00 -3.038324e+00
     vertex  2.529124e-01  3.106674e+00 -2.735467e+00
     vertex -5.432093e-01  3.559422e+00 -4.440001e+00
   endloop
 endfacet
 facet normal  8.966411e-01  2.773636e-01 -3.451147e-01
   outer loop
     vertex  7.958977e-01  2.356058e+00 -3.188449e+00
     vertex -2.240643e-04  2.808806e+00 -4.892982e+00
     vertex -1.531704e-01  3.680075e+00 -4.590126e+00
   endloop
 endfacet
 facet normal  8.966411e-01  2.773636e-01 -3.451147e-01
   outer loop
     vertex  7.958977e-01  2.356058e+00 -3.188449e+00
     vertex -1.531704e-01  3.680075e+00 -4.590126e+00
     vertex  6.429513e-01  3.227327e+00 -2.885592e+00
   endloop
 endfacet
 facet normal -1.635790e-01  9.318388e-01  3.239111e-01
   outer loop
     vertex -2.168017e-01  3.322624e+00 -3.593931e+00
     vertex -9.915299e-01  3.420740e+00 -4.267443e+00
     vertex -6.068405e-01  3.201971e+00 -3.443806e+00
   endloop
 endfacet
 facet normal -1.635790e-01  9.318388e-01  3.239111e-01
   outer loop
     vertex -2.168017e-01  3.322624e+00 -3.593931e+00
     vertex -6.014910e-01  3.541394e+00 -4.417568e+00
     vertex -9.915299e-01  3.420740e+00 -4.267443e+00
   endloop
 endfacet
 facet normal  1.635790e-01 -9.318388e-01 -3.239111e-01
   outer loop
     vertex  9.972374e-02  1.519516e+00 -4.220699e+00
     vertex -2.903151e-01  1.398863e+00 -4.070574e+00
     vertex -6.750045e-01  1.617632e+00 -4.894211e+00
   endloop
 endfacet
 facet normal  1.635790e-01 -9.318388e-01 -3.239111e-01
   outer loop
     vertex  9.972374e-02  1.519516e+00 -4.220699e+00
     vertex -6.750045e-01  1.617632e+00 -4.894211e+00
     vertex -2.849656e-01  1.738286e+00 -5.044336e+00
   endloop
 endfacet
 facet normal  4.114324e-01 -2.339784e-01  8.808958e-01
   outer loop
     vertex  9.972374e-02  1.519516e+00 -4.220699e+00
     vertex -6.068405e-01  3.201971e+00 -3.443806e+00
     vertex -2.903151e-01  1.398863e+00 -4.070574e+00
   endloop
 endfacet
 facet normal  4.114324e-01 -2.339784e-01  8.808958e-01
   outer loop
     vertex  9.972374e-02  1.519516e+00 -4.220699e+00
     vertex -2.168017e-01  3.322624e+00 -3.593931e+00
     vertex -6.068405e-01  3.201971e+00 -3.443806e+00
   endloop
 endfacet
 facet normal -4.114324e-01  2.339784e-01 -8.808958e-01
   outer loop
     vertex -2.849656e-01  1.738286e+00 -5.044336e+00
     vertex -6.750045e-01  1.617632e+00 -4.894211e+00
     vertex -9.915299e-01  3.420740e+00 -4.267443e+00
   endloop
 endfacet
 facet normal -4.114324e-01  2.339784e-01 -8.808958e-01
   outer loop
     vertex -2.849656e-01  1.738286e+00 -5.044336e+00
     vertex -9.915299e-01  3.420740e+00 -4.267443e+00
     vertex -6.014910e-01  3.541394e+00 -4.417568e+00
   endloop
 endfacet
 facet normal -8.966411e-01 -2.773636e-01  3.451147e-01
   outer loop
     vertex -6.750045e-01  1.617632e+00 -4.894211e+00
     vertex -6.068405e-01  3.201971e+00 -3.443806e+00
     vertex -9.915299e-01  3.420740e+00 -4.267443e+00
   endloop
 endfacet
 facet normal -8.966411e-01 -2.773636e-01  3.451147e-01
   outer loop
     vertex -6.750045e-01  1.617632e+00 -4.894211e+00
     vertex -2.903151e-01  1.398863e+00 -4.070574e+00
     vertex -6.068405e-01  3.201971e+00 -3.443806e+00
   endloop
 endfacet
 facet normal  8.966411e-01  2.773636e-01 -3.451147e-01
   outer loop
     vertex -2.849656e-01  1.738286e+00 -5.044336e+00
     vertex -6.014910e-01  3.541394e+00 -4.417568e+00
     vertex -2.168017e-01  3.322624e+00 -3.593931e+00
   endloop
 endfacet
 facet normal  8.966411e-01  2.773636e-01 -3.451147e-01
   outer loop
     vertex -2.849656e-01  1.738286e+00 -5.044336e+00
     vertex -2.168017e-01  3.322624e+00 -3.593931e+00
     vertex  9.972374e-02  1.519516e+00 -4.220699e+00
   endloop
 endfacet
 facet normal -4.114324e-01  2.339784e-01 -8.808958e-01
   outer loop
     vertex -1.049812e+00  3.402712e+00 -4.245011e+00
     vertex -1.286904e+00  2.410789e+00 -4.397743e+00
     vertex -1.439850e+00  3.282059e+00 -4.094886e+00
   endloop
 endfacet
 facet normal -4.114324e-01  2.339784e-01 -8.808958e-01
   outer loop
     vertex -1.049812e+00  3.402712e+00 -4.245011e+00
     vertex -8.968652e-01  2.531443e+00 -4.547868e+00
     vertex -1.286904e+00  2.410789e+00 -4.397743e+00
   endloop
 endfacet
 facet normal  4.114324e-01 -2.339784e-01  8.808958e-01
   outer loop
     vertex -2.536898e-01  2.949964e+00 -2.540477e+00
     vertex -6.437287e-01  2.829310e+00 -2.390353e+00
     vertex -4.907823e-01  1.958041e+00 -2.693209e+00
   endloop
 endfacet
 facet normal  4.114324e-01 -2.339784e-01  8.808958e-01
   outer loop
     vertex -2.536898e-01  2.949964e+00 -2.540477e+00
     vertex -4.907823e-01  1.958041e+00 -2.693209e+00
     vertex -1.007434e-01  2.078694e+00 -2.843334e+00
   endloop
 endfacet
 facet normal -1.635790e-01  9.318388e-01  3.239111e-01
   outer loop
     vertex -2.536898e-01  2.949964e+00 -2.540477e+00
     vertex -1.439850e+00  3.282059e+00 -4.094886e+00
     vertex -6.437287e-01  2.829310e+00 -2.390353e+00
   endloop
 endfacet
 facet normal -1.635790e-01  9.318388e-01  3.239111e-01
   outer loop
     vertex -2.536898e-01  2.949964e+00 -2.540477e+00
     vertex -1.049812e+00  3.402712e+00 -4.245011e+00
     vertex -1.439850e+00  3.282059e+00 -4.094886e+00
   endloop
 endfacet
 facet normal  1.635790e-01 -9.318388e-01 -3.239111e-01
   outer loop
     vertex -1.007434e-01  2.078694e+00 -2.843334e+00
     vertex -4.907823e-01  1.958041e+00 -2.693209e+00
     vertex -1.286904e+00  2.410789e+00 -4.397743e+00
   endloop
 endfacet
 facet normal  1.635790e-01 -9.318388e-01 -3.239111e-01
   outer loop
     vertex -1.007434e-01  2.078694e+00 -2.843334e+00
     vertex -1.286904e+00  2.410789e+00 -4.397743e+00
     vertex -8.968652e-01  2.531443e+00 -4.547868e+00
   endloop
 endfacet
 facet normal -8.966411e-01 -2.773636e-01  3.451147e-01
   outer loop
     vertex -4.907823e-01  1.958041e+00 -2.693209e+00
     vertex -1.439850e+00  3.282059e+00 -4.094886e+00
     vertex -1.286904e+00  2.410789e+00 -4.397743e+00
   endloop
 endfacet
 facet normal -8.966411e-01 -2.773636e-01  3.451147e-01
   outer loop
     vertex -4.907823e-01  1.958041e+00 -2.693209e+00
     vertex -6.437287e-01  2.829310e+00 -2.390353e+00
     vertex -1.439850e+00  3.282059e+00 -4.094886e+00
   endloop
 endfacet
 facet normal  8.966411e-01  2.773636e-01 -3.451147e-01
   outer loop
     vertex -1.007434e-01  2.078694e+00 -2.843334e+00
     vertex -8.968652e-01  2.531443e+00 -4.547868e+00
     vertex -1.049812e+00  3.402712e+00 -4.245011e+00
   endloop
 endfacet
 facet normal  8.966411e-01  2.773636e-01 -3.451147e-01
   outer loop
     vertex -1.007434e-01  2.078694e+00 -2.843334e+00
     vertex -1.049812e+00  3.402712e+00 -4.245011e+00
     vertex -2.536898e-01  2.949964e+00 -2.540477e+00
   endloop
 endfacet
 facet normal -4.114324e-01  2.339784e-01 -8.808958e-01
   outer loop
     vertex -1.249720e+00 -3.536205e+00 -5.994716e+00
     vertex -1.486813e+00 -4.528128e+00 -6.147448e+00
     vertex -1.639759e+00 -3.656858e+00 -5.844591e+00
   endloop
 endfacet
 facet normal -4.114324e-01  2.339784e-01 -8.808958e-01
   outer loop
     vertex -1.249720e+00 -3.536205e+00 -5.994716e+00
     vertex -1.096774e+00 -4.407474e+00 -6.297573e+00
     vertex -1.486813e+00 -4.528128e+00 -6.147448e+00
   endloop
 endfacet
 facet normal  4.114324e-01 -2.339784e-01  8.808958e-01
   outer loop
     vertex -4.535983e-01 -3.988953e+00 -4.290183e+00
     vertex -8.436371e-01 -4.109607e+00 -4.140058e+00
     vertex -6.906908e-01 -4.980876e+00 -4.442915e+00
   endloop
 endfacet
 facet normal  4.114324e-01 -2.339784e-01  8.808958e-01
   outer loop
     vertex -4.535983e-01 -3.988953e+00 -4.290183e+00
     vertex -6.906908e-01 -4.980876e+00 -4.442915e+00
     vertex -3.006519e-01 -4.860223e+00 -4.593040e+00
   endloop
 endfacet
 facet normal -1.635790e-01  9.318388e-01  3.239111e-01
   outer loop
     vertex -4.535983e-01 -3.988953e+00 -4.290183e+00
     vertex -1.639759e+00 -3.656858e+00 -5.844591e+00
     vertex -8.436371e-01 -4.109607e+00 -4.140058e+00
   endloop
 endfacet
 facet normal -1.635790e-01  9.318388e-01  3.239111e-01
   outer loop
     vertex -4.535983e-01 -3.988953e+00 -4.290183e+00
     vertex -1.249720e+00 -3.536205e+00 -5.994716e+00
     vertex -1.639759e+00 -3.656858e+00 -5.844591e+00
   endloop
 endfacet
 facet normal  1.635790e-01 -9.318388e-01 -3.239111e-01
   outer loop
     vertex -3.006519e-01 -4.860223e+00 -4.593040e+00
     vertex -6.906908e-01 -4.980876e+00 -4.442915e+00
     vertex -1.486813e+00 -4.528128e+00 -6.147448e+00
   endloop
 endfacet
 facet normal  1.635790e-01 -9.318388e-01 -3.239111e-01
   outer loop
     vertex -3.006519e-01 -4.860223e+00 -4.593040e+00
     vertex -1.486813e+00 -4.528128e+00 -6.147448e+00
     vertex -1.096774e+00 -4.407474e+00 -6.297573e+00
   endloop
 endfacet
 facet normal -8.966411e-01 -2.773636e-01  3.451147e-01
   outer loop
     vertex -6.906908e-01 -4.980876e+00 -4.442915e+00
     vertex -1.639759e+00 -3.656858e+00 -5.844591e+00
     vertex -1.486813e+00 -4.528128e+00 -6.147448e+00
   endloop
 endfacet
 facet normal -8.966411e-01 -2.773636e-01  3.451147e-01
   outer loop
     vertex -6.906908e-01 -4.980876e+00 -4.442915e+00
     vertex -8.436371e-01 -4.109607e+00 -4.140058e+00
     vertex -1.639759e+00 -3.656858e+00 -5.844591e+00
   endloop
 endfacet
 facet normal  8.966411e-01  2.773636e-01 -3.451147e-01
   outer loop
     vertex -3.006519e-01 -4.860223e+00 -4.593040e+00
     vertex -1.096774e+00 -4.407474e+00 -6.297573e+00
     vertex -1.249720e+00 -3.536205e+00 -5.994716e+00
   endloop
 endfacet
 facet normal  8.966411e-01  2.773636e-01 -3.451147e-01
   outer loop
     vertex -3.006519e-01 -4.860223e+00 -4.593040e+00
     vertex -1.249720e+00 -3.536205e+00 -5.994716e+00
     vertex -4.535983e-01 -3.988953e+00 -4.290183e+00
   endloop
 endfacet
 facet normal  1.635790e-01 -9.318388e-01 -3.239111e-01
   outer loop
     vertex -1.545094e+00 -4.546156e+00 -6.125016e+00
     vertex -1.550444e+00 -4.885579e+00 -5.151253e+00
     vertex -1.935133e+00 -4.666809e+00 -5.974891e+00
   endloop
 endfacet
 facet normal  1.635790e-01 -9.318388e-01 -3.239111e-01
   outer loop
     vertex -1.545094e+00 -4.546156e+00 -6.125016e+00
     vertex -1.160405e+00 -4.764926e+00 -5.301378e+00
     vertex -1.550444e+00 -4.885579e+00 -5.151253e+00
   endloop
 endfacet
 facet normal -1.635790e-01  9.318388e-01  3.239111e-01
   outer loop
     vertex -1.861620e+00 -2.743048e+00 -5.498248e+00
     vertex -2.251658e+00 -2.863701e+00 -5.348123e+00
     vertex -1.866969e+00 -3.082471e+00 -4.524485e+00
   endloop
 endfacet
 facet normal -1.635790e-01  9.318388e-01  3.239111e-01
   outer loop
     vertex -1.861620e+00 -2.743048e+00 -5.498248e+00
     vertex -1.866969e+00 -3.082471e+00 -4.524485e+00
     vertex -1.476930e+00 -2.961818e+00 -4.674610e+00
   endloop
 endfacet
 facet normal -4.114324e-01  2.339784e-01 -8.808958e-01
   outer loop
     vertex -1.861620e+00 -2.743048e+00 -5.498248e+00
     vertex -1.935133e+00 -4.666809e+00 -5.974891e+00
     vertex -2.251658e+00 -2.863701e+00 -5.348123e+00
   endloop
 endfacet
 facet normal -4.114324e-01  2.339784e-01 -8.808958e-01
   outer loop
     vertex -1.861620e+00 -2.743048e+00 -5.498248e+00
     vertex -1.545094e+00 -4.546156e+00 -6.125016e+00
     vertex -1.935133e+00 -4.666809e+00 -5.974891e+00
   endloop
 endfacet
 facet normal  4.114324e-01 -2.339784e-01  8.808958e-01
   outer loop
     vertex -1.476930e+00 -2.961818e+00 -4.674610e+00
     vertex -1.866969e+00 -3.082471e+00 -4.524485e+00
     vertex -1.550444e+00 -4.885579e+00 -5.151253e+00
   endloop
 endfacet
 facet normal  4.114324e-01 -2.339784e-01  8.808958e-01
   outer loop
     vertex -1.476930e+00 -2.961818e+00 -4.674610e+00
     vertex -1.550444e+00 -4.885579e+00 -5.151253e+00
     vertex -1.160405e+00 -4.764926e+00 -5.301378e+00
   endloop
 endfacet
 facet normal -8.966411e-01 -2.773636e-01  3.451147e-01
   outer loop
     vertex -1.866969e+00 -3.082471e+00 -4.524485e+00
     vertex -1.935133e+00 -4.666809e+00 -5.974891e+00
     vertex -1.550444e+00 -4.885579e+00 -5.151253e+00
   endloop
 endfacet
 facet normal -8.966411e-01 -2.773636e-01  3.451147e-01
   outer loop
     vertex -1.866969e+00 -3.082471e+00 -4.524485e+00
     vertex -2.251658e+00 -2.863701e+00 -5.348123e+00
     vertex -1.935133e+00 -4.666809e+00 -5.974891e+00
   endloop
 endfacet
 facet normal  8.966411e-01  2.773636e-01 -3.451147e-01
   outer loop
     vertex -1.476930e+00 -2.961818e+00 -4.674610e+00
     vertex -1.160405e+00 -4.764926e+00 -5.301378e+00
     vertex -1.545094e+00 -4.546156e+00 -6.125016e+00
   endloop
 endfacet
 facet normal  8.966411e-01  2.773636e-01 -3.451147e-01
   outer loop
     vertex -1.476930e+00 -2.961818e+00 -4.674610e+00
     vertex -1.545094e+00 -4.546156e+00 -6.125016e+00
     vertex -1.861620e+00 -2.743048e+00 -5.498248e+00
   endloop
 endfacet
 facet normal -4.114324e-01  2.339784e-01 -8.808958e-01
   outer loop
     vertex -2.146361e+00 -3.813569e+00 -5.649601e+00
     vertex -2.383454e+00 -4.805491e+00 -5.802333e+00
     vertex -2.536400e+00 -3.934222e+00 -5.499477e+00
   endloop
 endfacet
 facet normal -4.114324e-01  2.339784e-01 -8.808958e-01
   outer loop
     vertex -2.146361e+00 -3.813569e+00 -5.649601e+00
     vertex -1.993415e+00 -4.684838e+00 -5.952458e+00
     vertex -2.383454e+00 -4.805491e+00 -5.802333e+00
   endloop
 endfacet
 facet normal  4.114324e-01 -2.339784e-01  8.808958e-01
   outer loop
     vertex -1.350239e+00 -4.266317e+00 -3.945068e+00
     vertex -1.740278e+00 -4.386970e+00 -3.794943e+00
     vertex -1.587332e+00 -5.258239e+00 -4.097800e+00
   endloop
 endfacet
 facet normal  4.114324e-01 -2.339784e-01  8.808958e-01
   outer loop
     vertex -1.350239e+00 -4.266317e+00 -3.945068e+00
     vertex -1.587332e+00 -5.258239e+00 -4.097800e+00
     vertex -1.197293e+00 -5.137586e+00 -4.247925e+00
   endloop
 endfacet
 facet normal -1.635790e-01  9.318388e-01  3.239111e-01
   outer loop
     vertex -1.350239e+00 -4.266317e+00 -3.945068e+00
     vertex -2.536400e+00 -3.934222e+00 -5.499477e+00
     vertex -1.740278e+00 -4.386970e+00 -3.794943e+00
   endloop
 endfacet
 facet normal -1.635790e-01  9.318388e-01  3.239111e-01
   outer loop
     vertex -1.350239e+00 -4.266317e+00 -3.945068e+00
     vertex -2.146361e+00 -3.813569e+00 -5.649601e+00
     vertex -2.536400e+00 -3.934222e+00 -5.499477e+00
   endloop
 endfacet
 facet normal  1.635790e-01 -9.318388e-01 -3.239111e-01
   outer loop
     vertex -1.197293e+00 -5.137586e+00 -4.247925e+00
     vertex -1.587332e+00 -5.258239e+00 -4.097800e+00
     vertex -2.383454e+00 -4.805491e+00 -5.802333e+00
   endloop
 endfacet
 facet normal  1.635790e-01 -9.318388e-01 -3.239111e-01
   outer loop
     vertex -1.197293e+00 -5.137586e+00 -4.247925e+00
     vertex -2.383454e+00 -4.805491e+00 -5.802333e+00
     vertex -1.993415e+00 -4.684838e+00 -5.952458e+00
   endloop
 endfacet
 facet normal -8.966411e-01 -2.773636e-01  3.451147e-01
   outer loop
     vertex -1.587332e+00 -5.258239e+00 -4.097800e+00
     vertex -2.536400e+00 -3.934222e+00 -5.499477e+00
     vertex -2.383454e+00 -4.805491e+00 -5.802333e+00
   endloop
 endfacet
 facet normal -8.966411e-01 -2.773636e-01  3.451147e-01
   outer loop
     vertex -1.587332e+00 -5.258239e+00 -4.097800e+00
     vertex -1.740278e+00 -4.386970e+00 -3.794943e+00
     vertex -2.536400e+00 -3.934222e+00 -5.499477e+00
   endloop
 endfacet
 facet normal  8.966411e-01  2.773636e-01 -3.451147e-01
   outer loop
     vertex -1.197293e+00 -5.137586e+00 -4.247925e+00
     vertex -1.993415e+00 -4.684838e+00 -5.952458e+00
     vertex -2.146361e+00 -3.813569e+00 -5.649601e+00
   endloop
 endfacet
 facet normal  8.966411e-01  2.773636e-01 -3.451147e-01
   outer loop
     vertex -1.197293e+00 -5.137586e+00 -4.247925e+00
     vertex -2.146361e+00 -3.813569e+00 -5.649601e+00
     vertex -1.350239e+00 -4.266317e+00 -3.945068e+00
   endloop
 endfacet
 facet normal  1.635790e-01 -9.318388e-01 -3.239111e-01
   outer loop
     vertex -2.441735e+00 -4.823520e+00 -5.779901e+00
     vertex -2.447085e+00 -5.162943e+00 -4.806138e+00
     vertex -2.831774e+00 -4.944173e+00 -5.629776e+00
   endloop
 endfacet
 facet normal  1.635790e-01 -9.318388e-01 -3.239111e-01
   outer loop
     vertex -2.441735e+00 -4.823520e+00 -5.779901e+00
     vertex -2.057046e+00 -5.042290e+00 -4.956263e+00
     vertex -2.447085e+00 -5.162943e+00 -4.806138e+00
   endloop
 endfacet
 facet normal -1.635790e-01  9.318388e-01  3.239111e-01
   outer loop
     vertex -2.758261e+00 -3.020412e+00 -5.153133e+00
     vertex -3.148300e+00 -3.141065e+00 -5.003008e+00
     vertex -2.763610e+00 -3.359835e+00 -4.179370e+00
   endloop
 endfacet
 facet normal -1.635790e-01  9.318388e-01  3.239111e-01
   outer loop
     vertex -2.758261e+00 -3.020412e+00 -5.153133e+00
     vertex -2.763610e+00 -3.359835e+00 -4.179370e+00
     vertex -2.373571e+00 -3.239182e+00 -4.329495e+00
   endloop
 endfacet
 facet normal -4.114324e-01  2.339784e-01 -8.808958e-01
   outer loop
     vertex -2.758261e+00 -3.020412e+00 -5.153133e+00
     vertex -2.831774e+00 -4.944173e+00 -5.629776e+00
     vertex -3.148300e+00 -3.141065e+00 -5.003008e+00
   endloop
 endfacet
 facet normal -4.114324e-01  2.339784e-01 -8.808958e-01
   outer loop
     vertex -2.758261e+00 -3.020412e+00 -5.153133e+00
     vertex -2.441735e+00 -4.823520e+00 -5.779901e+00
     vertex -2.831774e+00 -4.944173e+00 -5.629776e+00
   endloop
 endfacet
 facet normal  4.114324e-01 -2.339784e-01  8.808958e-01
   outer loop
     vertex -2.373571e+00 -3.239182e+00 -4.329495e+00
     vertex -2.763610e+00 -3.359835e+00 -4.179370e+00
     vertex -2.447085e+00 -5.162943e+00 -4.806138e+00
   endloop
 endfacet
 facet normal  4.114324e-01 -2.339784e-01  8.808958e-01
   outer loop
     vertex -2.373571e+00 -3.239182e+00 -4.329495e+00
     vertex -2.447085e+00 -5.162943e+00 -4.806138e+00
     vertex -2.057046e+00 -5.042290e+00 -4.956263e+00
   endloop
 endfacet
 facet normal -8.966411e-01 -2.773636e-01  3.451147e-01
   outer loop
     vertex -2.763610e+00 -3.359835e+00 -4.179370e+00
     vertex -2.831774e+00 -4.944173e+00 -5.629776e+00
     vertex -2.447085e+00 -5.162943e+00 -4.806138e+00
   endloop
 endfacet
 facet normal -8.966411e-01 -2.773636e-01  3.451147e-01
   outer loop
     vertex -2.763610e+00 -3.359835e+00 -4.179370e+00
     vertex -3.148300e+00 -3.141065e+00 -5.003008e+00
     vertex -2.831774e+00 -4.944173e+00 -5.629776e+00
   endloop
 endfacet
 facet normal  8.966411e-01  2.773636e-01 -3.451147e-01
   outer loop
     vertex -2.373571e+00 -3.239182e+00 -4.329495e+00
     vertex -2.057046e+00 -5.042290e+00 -4.956263e+00
     vertex -2.441735e+00 -4.823520e+00 -5.779901e+00
   endloop
 endfacet
 facet normal  8.966411e-01  2.773636e-01 -3.451147e-01
   outer loop
     vertex -2.373571e+00 -3.239182e+00 -4.329495e+00
     vertex -2.441735e+00 -4.823520e+00 -5.779901e+00
     vertex -2.758261e+00 -3.020412e+00 -5.153133e+00
   endloop
 endfacet
 facet normal -4.114324e-01  2.339784e-01 -8.808958e-01
   outer loop
     vertex -3.043002e+00 -4.090932e+00 -5.304487e+00
     vertex -3.280095e+00 -5.082855e+00 -5.457219e+00
     vertex -3.433041e+00 -4.211585e+00 -5.154362e+00
   endloop
 endfacet
 facet normal -4.114324e-01  2.339784e-01 -8.808958e-01
   outer loop
     vertex -3.043002e+00 -4.090932e+00 -5.304487e+00
     vertex -2.890056e+00 -4.962202e+00 -5.607344e+00
     vertex -3.280095e+00 -5.082855e+00 -5.457219e+00
   endloop
 endfacet
 facet normal  4.114324e-01 -2.339784e-01  8.808958e-01
   outer loop
     vertex -2.246880e+00 -4.543681e+00 -3.599953e+00
     vertex -2.636919e+00 -4.664334e+00 -3.449828e+00
     vertex -2.483973e+00 -5.535603e+00 -3.752685e+00
   endloop
 endfacet
 facet normal  4.114324e-01 -2.339784e-01  8.808958e-01
   outer loop
     vertex -2.246880e+00 -4.543681e+00 -3.599953e+00
     vertex -2.483973e+00 -5.535603e+00 -3.752685e+00
     vertex -2.093934e+00 -5.414950e+00 -3.902810e+00
   endloop
 endfacet
 facet normal -1.635790e-01  9.318388e-01  3.239111e-01
   outer loop
     vertex -2.246880e+00 -4.543681e+00 -3.599953e+00
     vertex -3.433041e+00 -4.211585e+00 -5.154362e+00
     vertex -2.636919e+00 -4.664334e+00 -3.449828e+00
   endloop
 endfacet
 facet normal -1.635790e-01  9.318388e-01  3.239111e-01
   outer loop
     vertex -2.246880e+00 -4.543681e+00 -3.599953e+00
     vertex -3.043002e+00 -4.090932e+00 -5.304487e+00
     vertex -3.433041e+00 -4.211585e+00 -5.154362e+00
   endloop
 endfacet
 facet normal  1.635790e-01 -9.318388e-01 -3.239111e-01
   outer loop
     vertex -2.093934e+00 -5.414950e+00 -3.902810e+00
     vertex -2.483973e+00 -5.535603e+00 -3.752685e+00
     vertex -3.280095e+00 -5.082855e+00 -5.457219e+00
   endloop
 endfacet
 facet normal  1.635790e-01 -9.318388e-01 -3.239111e-01
   outer loop
     vertex -2.093934e+00 -5.414950e+00 -3.902810e+00
     vertex -3.280095e+00 -5.082855e+00 -5.457219e+00
     vertex -2.890056e+00 -4.962202e+00 -5.607344e+00
   endloop
 endfacet
 facet normal -8.966411e-01 -2.773636e-01  3.451147e-01
   outer loop
     vertex -2.483973e+00 -5.535603e+00 -3.752685e+00
     vertex -3.433041e+00 -4.211585e+00 -5.154362e+00
     vertex -3.280095e+00 -5.082855e+00 -5.457219e+00
   endloop
 endfacet
 facet normal -8.966411e-01 -2.773636e-01  3.451147e-01
   outer loop
     vertex -2.483973e+00 -5.535603e+00 -3.752685e+00
     vertex -2.636919e+00 -4.664334e+00 -3.449828e+00
     vertex -3.433041e+00 -4.211585e+00 -5.154362e+00
   endloop
 endfacet
 facet normal  8.966411e-01  2.773636e-01 -3.451147e-01
   outer loop
     vertex -2.093934e+00 -5.414950e+00 -3.902810e+00
     vertex -2.890056e+00 -4.962202e+00 -5.607344e+00
     vertex -3.043002e+00 -4.090932e+00 -5.304487e+00
   endloop
 endfacet
 facet normal  8.966411e-01  2.773636e-01 -3.451147e-01
   outer loop
     vertex -2.093934e+00 -5.414950e+00 -3.902810e+00
     vertex -3.043002e+00 -4.090932e+00 -5.304487e+00
     vertex -2.246880e+00 -4.543681e+00 -3.599953e+00
   endloop
 endfacet
 facet normal  1.635790e-01 -9.318388e-01 -3.239111e-01
   outer loop
     vertex -3.338376e+00 -5.100883e+00 -5.434786e+00
     vertex -3.343726e+00 -5.440306e+00 -4.461024e+00
     vertex -3.728415e+00 -5.221537e+00 -5.284661e+00
   endloop
 endfacet
 facet normal  1.635790e-01 -9.318388e-01 -3.239111e-01
   outer loop
     vertex -3.338376e+00 -5.100883e+00 -5.434786e+00
     vertex -2.953687e+00 -5.319653e+00 -4.611149e+00
     vertex -3.343726e+00 -5.440306e+00 -4.461024e+00
   endloop
 endfacet
 facet normal -1.635790e-01  9.318388e-01  3.239111e-01
   outer loop
     vertex -3.654902e+00 -3.297775e+00 -4.808018e+00
     vertex -4.044941e+00 -3.418428e+00 -4.657893e+00
     vertex -3.660251e+00 -3.637198e+00 -3.834256e+00
   endloop
 endfacet
 facet normal -1.635790e-01  9.318388e-01  3.239111e-01
   outer loop
     vertex -3.654902e+00 -3.297775e+00 -4.808018e+00
     vertex -3.660251e+00 -3.637198e+00 -3.834256e+00
     vertex -3.270212e+00 -3.516545e+00 -3.984381e+00
   endloop
 endfacet
 facet normal -4.114324e-01  2.339784e-01 -8.808958e-01
   outer loop
     vertex -3.654902e+00 -3.297775e+00 -4.808018e+00
     vertex -3.728415e+00 -5.221537e+00 -5.284661e+00
     vertex -4.044941e+00 -3.418428e+00 -4.657893e+00
   endloop
 endfacet
 facet normal -4.114324e-01  2.339784e-01 -8.808958e-01
   outer loop
     vertex -3.654902e+00 -3.297775e+00 -4.808018e+00
     vertex -3.338376e+00 -5.100883e+00 -5.434786e+00
     vertex -3.728415e+00 -5.221537e+00 -5.284661e+00
   endloop
 endfacet
 facet normal  4.114324e-01 -2.339784e-01  8.808958e-01
   outer loop
     vertex -3.270212e+00 -3.516545e+00 -3.984381e+00
     vertex -3.660251e+00 -3.637198e+00 -3.834256e+00
     vertex -3.343726e+00 -5.440306e+00 -4.461024e+00
   endloop
 endfacet
 facet normal  4.114324e-01 -2.339784e-01  8.808958e-01
   outer loop
     vertex -3.270212e+00 -3.516545e+00 -3.984381e+00
     vertex -3.343726e+00 -5.440306e+00 -4.461024e+00
     vertex -2.953687e+00 -5.319653e+00 -4.611149e+00
   endloop
 endfacet
 facet normal -8.966411e-01 -2.773636e-01  3.451147e-01
   outer loop
     vertex -3.660251e+00 -3.637198e+00 -3.834256e+00
     vertex -3.728415e+00 -5.221537e+00 -5.284661e+00
     vertex -3.343726e+00 -5.440306e+00 -4.461024e+00
   endloop
 endfacet
 facet normal -8.966411e-01 -2.773636e-01  3.451147e-01
   outer loop
     vertex -3.660251e+00 -3.637198e+00 -3.834256e+00
     vertex -4.044941e+00 -3.418428e+00 -4.657893e+00
     vertex -3.728415e+00 -5.221537e+00 -5.284661e+00
   endloop
 endfacet
 facet normal  8.966411e-01  2.773636e-01 -3.451147e-01
   outer loop
     vertex -3.270212e+00 -3.516545e+00 -3.984381e+00
     vertex -2.953687e+00 -5.319653e+00 -4.611149e+00
     vertex -3.338376e+00 -5.100883e+00 -5.434786e+00
   endloop
 endfacet
 facet normal  8.966411e-01  2.773636e-01 -3.451147e-01
   outer loop
     vertex -3.270212e+00 -3.516545e+00 -3.984381e+00
     vertex -3.338376e+00 -5.100883e+00 -5.434786e+00
     vertex -3.654902e+00 -3.297775e+00 -4.808018e+00
   endloop
 endfacet
 facet normal -1.635790e-01  9.318388e-01  3.239111e-01
   outer loop
     vertex -2.664400e+00  6.495252e+00 -1.608057e+00
     vertex -3.439128e+00  6.593368e+00 -2.281570e+00
     vertex -3.054439e+00  6.374599e+00 -1.457932e+00
   endloop
 endfacet
 facet normal -1.635790e-01  9.318388e-01  3.239111e-01
   outer loop
     vertex -2.664400e+00  6.495252e+00 -1.608057e+00
     vertex -3.049089e+00  6.714022e+00 -2.431694e+00
     vertex -3.439128e+00  6.593368e+00 -2.281570e+00
   endloop
 endfacet
 facet normal  1.635790e-01 -9.318388e-01 -3.239111e-01
   outer loop
     vertex -2.347875e+00  4.692144e+00 -2.234825e+00
     vertex -2.737913e+00  4.571490e+00 -2.084700e+00
     vertex -3.122603e+00  4.790260e+00 -2.908337e+00
   endloop
 endfacet
 facet normal  1.635790e-01 -9.318388e-01 -3.239111e-01
   outer loop
     vertex -2.347875e+00  4.692144e+00 -2.234825e+00
     vertex -3.122603e+00  4.790260e+00 -2.908337e+00
     vertex -2.732564e+00  4.910913e+00 -3.058462e+00
   endloop
 endfacet
 facet normal  4.114324e-01 -2.339784e-01  8.808958e-01
   outer loop
     vertex -2.347875e+00  4.692144e+00 -2.234825e+00
     vertex -3.054439e+00  6.374599e+00 -1.457932e+00
     vertex -2.737913e+00  4.571490e+00 -2.084700e+00
   endloop
 endfacet
 facet normal  4.114324e-01 -2.339784e-01  8.808958e-01
   outer loop
     vertex -2.347875e+00  4.692144e+00 -2.234825e+00
     vertex -2.664400e+00  6.495252e+00 -1.608057e+00
     vertex -3.054439e+00  6.374599e+00 -1.457932e+00
   endloop
 endfacet
 facet normal -4.114324e-01  2.339784e-01 -8.808958e-01
   outer loop
     vertex -2.732564e+00  4.910913e+00 -3.058462e+00
     vertex -3.122603e+00  4.790260e+00 -2.908337e+00
     vertex -3.439128e+00  6.593368e+00 -2.281570e+00
   endloop
 endfacet
 facet normal -4.114324e-01  2.339784e-01 -8.808958e-01
   outer loop
     vertex -2.732564e+00  4.910913e+00 -3.058462e+00
     vertex -3.439128e+00  6.593368e+00 -2.281570e+00
     vertex -3.049089e+00  6.714022e+00 -2.431694e+00
   endloop
 endfacet
 facet normal -8.966411e-01 -2.773636e-01  3.451147e-01
   outer loop
     vertex -3.122603e+00  4.790260e+00 -2.908337e+00
     vertex -3.054439e+00  6.374599e+00 -1.457932e+00
     vertex -3.439128e+00  6.593368e+00 -2.281570e+00
   endloop
 endfacet
 facet normal -8.966411e-01 -2.773636e-01  3.451147e-01
   outer loop
     vertex -3.122603e+00  4.790260e+00 -2.908337e+00
     vertex -2.737913e+00  4.571490e+00 -2.084700e+00
     vertex -3.054439e+00  6.374599e+00 -1.457932e+00
   endloop
 endfacet
 facet normal  8.966411e-01  2.773636e-01 -3.451147e-01
   outer loop
     vertex -2.732564e+00  4.910913e+00 -3.058462e+00
     vertex -3.049089e+00  6.714022e+00 -2.431694e+00
     vertex -2.664400e+00  6.495252e+00 -1.608057e+00
   endloop
 endfacet
 facet normal  8.966411e-01  2.773636e-01 -3.451147e-01
   outer loop
     vertex -2.732564e+00  4.910913e+00 -3.058462e+00
     vertex -2.664400e+00  6.495252e+00 -1.608057e+00
     vertex -2.347875e+00  4.692144e+00 -2.234825e+00
   endloop
 endfacet
 facet normal -4.114324e-01  2.339784e-01 -8.808958e-01
   outer loop
     vertex -3.497410e+00  6.575340e+00 -2.259137e+00
     vertex -3.734502e+00  5.583417e+00 -2.411869e+00
     vertex -3.887449e+00  6.454687e+00 -2.109012e+00
   endloop
 endfacet
 facet normal -4.114324e-01  2.339784e-01 -8.808958e-01
   outer loop
     vertex -3.497410e+00  6.575340e+00 -2.259137e+00
     vertex -3.344463e+00  5.704070e+00 -2.561994e+00
     vertex -3.734502e+00  5.583417e+00 -2.411869e+00
   endloop
 endfacet
 facet normal  4.114324e-01 -2.339784e-01  8.808958e-01
   outer loop
     vertex -2.701288e+00  6.122591e+00 -5.546037e-01
     vertex -3.091327e+00  6.001938e+00 -4.044788e-01
     vertex -2.938381e+00  5.130669e+00 -7.073356e-01
   endloop
 endfacet
 facet normal  4.114324e-01 -2.339784e-01  8.808958e-01
   outer loop
     vertex -2.701288e+00  6.122591e+00 -5.546037e-01
     vertex -2.938381e+00  5.130669e+00 -7.073356e-01
     vertex -2.548342e+00  5.251322e+00 -8.574605e-01
   endloop
 endfacet
 facet normal -1.635790e-01  9.318388e-01  3.239111e-01
   outer loop
     vertex -2.701288e+00  6.122591e+00 -5.546037e-01
     vertex -3.887449e+00  6.454687e+00 -2.109012e+00
     vertex -3.091327e+00  6.001938e+00 -4.044788e-01
   endloop
 endfacet
 facet normal -1.635790e-01  9.318388e-01  3.239111e-01
   outer loop
     vertex -2.701288e+00  6.122591e+00 -5.546037e-01
     vertex -3.497410e+00  6.575340e+00 -2.259137e+00
     vertex -3.887449e+00  6.454687e+00 -2.109012e+00
   endloop
 endfacet
 facet normal  1.635790e-01 -9.318388e-01 -3.239111e-01
   outer loop
     vertex -2.548342e+00  5.251322e+00 -8.574605e-01
     vertex -2.938381e+00  5.130669e+00 -7.073356e-01
     vertex -3.734502e+00  5.583417e+00 -2.411869e+00
   endloop
 endfacet
 facet normal  1.635790e-01 -9.318388e-01 -3.239111e-01
   outer loop
     vertex -2.548342e+00  5.251322e+00 -8.574605e-01
     vertex -3.734502e+00  5.583417e+00 -2.411869e+00
     vertex -3.344463e+00  5.704070e+00 -2.561994e+00
   endloop
 endfacet
 facet normal -8.966411e-01 -2.773636e-01  3.451147e-01
   outer loop
     vertex -2.938381e+00  5.130669e+00 -7.073356e-01
     vertex -3.887449e+00  6.454687e+00 -2.109012e+00
     vertex -3.734502e+00  5.583417e+00 -2.411869e+00
   endloop
 endfacet
 facet normal -8.966411e-01 -2.773636e-01  3.451147e-01
   outer loop
     vertex -2.938381e+00  5.130669e+00 -7.073356e-01
     vertex -3.091327e+00  6.001938e+00 -4.044788e-01
     vertex -3.887449e+00  6.454687e+00 -2.109012e+00
   endloop
 endfacet
 facet normal  8.966411e-01  2.773636e-01 -3.451147e-01
   outer loop
     vertex -2.548342e+00  5.251322e+00 -8.574605e-01
     vertex -3.344463e+00  5.704070e+00 -2.561994e+00
     vertex -3.497410e+00  6.575340e+00 -2.259137e+00
   endloop
 endfacet
 facet normal  8.966411e-01  2.773636e-01 -3.451147e-01
   outer loop
     vertex -2.548342e+00  5.251322e+00 -8.574605e-01
     vertex -3.497410e+00  6.575340e+00 -2.259137e+00
     vertex -2.701288e+00  6.122591e+00 -5.546037e-01
   endloop
 endfacet
 facet normal -1.635790e-01  9.318388e-01  3.239111e-01
   outer loop
     vertex -3.561041e+00  6.217888e+00 -1.262942e+00
     vertex -4.335769e+00  6.316005e+00 -1.936455e+00
     vertex -3.951080e+00  6.097235e+00 -1.112817e+00
   endloop
 endfacet
 facet normal -1.635790e-01  9.318388e-01  3.239111e-01
   outer loop
     vertex -3.561041e+00  6.217888e+00 -1.262942e+00
     vertex -3.945730e+00  6.436658e+00 -2.086580e+00
     vertex -4.335769e+00  6.316005e+00 -1.936455e+00
   endloop
 endfacet
 facet normal  1.635790e-01 -9.318388e-01 -3.239111e-01
   outer loop
     vertex -3.244516e+00  4.414780e+00 -1.889710e+00
     vertex -3.634555e+00  4.294127e+00 -1.739585e+00
     vertex -4.019244e+00  4.512897e+00 -2.563223e+00
   endloop
 endfacet
 facet normal  1.635790e-01 -9.318388e-01 -3.239111e-01
   outer loop
     vertex -3.244516e+00  4.414780e+00 -1.889710e+00
     vertex -4.019244e+00  4.512897e+00 -2.563223e+00
     vertex -3.629205e+00  4.633550e+00 -2.713348e+00
   endloop
 endfacet
 facet normal  4.114324e-01 -2.339784e-01  8.808958e-01
   outer loop
     vertex -3.244516e+00  4.414780e+00 -1.889710e+00
     vertex -3.951080e+00  6.097235e+00 -1.112817e+00
     vertex -3.634555e+00  4.294127e+00 -1.739585e+00
   endloop
 endfacet
 facet normal  4.114324e-01 -2.339784e-01  8.808958e-01
   outer loop
     vertex -3.244516e+00  4.414780e+00 -1.889710e+00
     vertex -3.561041e+00  6.217888e+00 -1.262942e+00
     vertex -3.951080e+00  6.097235e+00 -1.112817e+00
   endloop
 endfacet
 facet normal -4.114324e-01  2.339784e-01 -8.808958e-01
   outer loop
     vertex -3.629205e+00  4.633550e+00 -2.713348e+00
     vertex -4.019244e+00  4.512897e+00 -2.563223e+00
     vertex -4.335769e+00  6.316005e+00 -1.936455e+00
   endloop
 endfacet
 facet normal -4.114324e-01  2.339784e-01 -8.808958e-01
   outer loop
     vertex -3.629205e+00  4.633550e+00 -2.713348e+00
     vertex -4.335769e+00  6.316005e+00 -1.936455e+00
     vertex -3.945730e+00  6.436658e+00 -2.086580e+00
   endloop
 endfacet
 facet normal -8.966411e-01 -2.773636e-01  3.451147e-01
   outer loop
     vertex -4.019244e+00  4.512897e+00 -2.563223e+00
     vertex -3.951080e+00  6.097235e+00 -1.112817e+00
     vertex -4.335769e+00  6.316005e+00 -1.936455e+00
   endloop
 endfacet
 facet normal -8.966411e-01 -2.773636e-01  3.451147e-01
   outer loop
     vertex -4.019244e+00  4.512897e+00 -2.563223e+00
     vertex -3.634555e+00  4.294127e+00 -1.739585e+00
     vertex -3.951080e+00  6.097235e+00 -1.112817e+00
   endloop
 endfacet
 facet normal  8.966411e-01  2.773636e-01 -3.451147e-01
   outer loop
     vertex -3.629205e+00  4.633550e+00 -2.713348e+00
     vertex -3.945730e+00  6.436658e+00 -2.086580e+00
     vertex -3.561041e+00  6.217888e+00 -1.262942e+00
   endloop
 endfacet
 facet normal  8.966411e-01  2.773636e-01 -3.451147e-01
   outer loop
     vertex -3.629205e+00  4.633550e+00 -2.713348e+00
     vertex -3.561041e+00  6.217888e+00 -1.262942e+00
     vertex -3.244516e+00  4.414780e+00 -1.889710e+00
   endloop
 endfacet
 facet normal -4.114324e-01  2.339784e-01 -8.808958e-01
   outer loop
     vertex -4.394051e+00  6.297976e+00 -1.914022e+00
     vertex -4.631143e+00  5.306054e+00 -2.066754e+00
     vertex -4.784090e+00  6.177323e+00 -1.763897e+00
   endloop
 endfacet
 facet normal -4.114324e-01  2.339784e-01 -8.808958e-01
   outer loop
     vertex -4.394051e+00  6.297976e+00 -1.914022e+00
     vertex -4.241105e+00  5.426707e+00 -2.216879e+00
     vertex -4.631143e+00  5.306054e+00 -2.066754e+00
   endloop
 endfacet
 facet normal  4.114324e-01 -2.339784e-01  8.808958e-01
   outer loop
     vertex -3.597929e+00  5.845228e+00 -2.094890e-01
     vertex -3.987968e+00  5.724575e+00 -5.936405e-02
     vertex -3.835022e+00  4.853305e+00 -3.622209e-01
   endloop
 endfacet
 facet normal  4.114324e-01 -2.339784e-01  8.808958e-01
   outer loop
     vertex -3.597929e+00  5.845228e+00 -2.094890e-01
     vertex -3.835022e+00  4.853305e+00 -3.622209e-01
     vertex -3.444983e+00  4.973959e+00 -5.123458e-01
   endloop
 endfacet
 facet normal -1.635790e-01  9.318388e-01  3.239111e-01
   outer loop
     vertex -3.597929e+00  5.845228e+00 -2.094890e-01
     vertex -4.784090e+00  6.177323e+00 -1.763897e+00
     vertex -3.987968e+00  5.724575e+00 -5.936405e-02
   endloop
 endfacet
 facet normal -1.635790e-01  9.318388e-01  3.239111e-01
   outer loop
     vertex -3.597929e+00  5.845228e+00 -2.094890e-01
     vertex -4.394051e+00  6.297976e+00 -1.914022e+00
     vertex -4.784090e+00  6.177323e+00 -1.763897e+00
   endloop
 endfacet
 facet normal  1.635790e-01 -9.318388e-01 -3.239111e-01
   outer loop
     vertex -3.444983e+00  4.973959e+00 -5.123458e-01
     vertex -3.835022e+00  4.853305e+00 -3.622209e-01
     vertex -4.631143e+00  5.306054e+00 -2.066754e+00
   endloop
 endfacet
 facet normal  1.635790e-01 -9.318388e-01 -3.239111e-01
   outer loop
     vertex -3.444983e+00  4.973959e+00 -5.123458e-01
     vertex -4.631143e+00  5.306054e+00 -2.066754e+00
     vertex -4.241105e+00  5.426707e+00 -2.216879e+00
   endloop
 endfacet
 facet normal -8.966411e-01 -2.773636e-01  3.451147e-01
   outer loop
     vertex -3.835022e+00  4.853305e+00 -3.622209e-01
     vertex -4.784090e+00  6.177323e+00 -1.763897e+00
     vertex -4.631143e+00  5.306054e+00 -2.066754e+00
   endloop
 endfacet
 facet normal -8.966411e-01 -2.773636e-01  3.451147e-01
   outer loop
     vertex -3.835022e+00  4.853305e+00 -3.622209e-01
     vertex -3.987968e+00  5.724575e+00 -5.936405e-02
     vertex -4.784090e+00  6.177323e+00 -1.763897e+00
   endloop
 endfacet
 facet normal  8.966411e-01  2.773636e-01 -3.451147e-01
   outer loop
     vertex -3.444983e+00  4.973959e+00 -5.123458e-01
     vertex -4.241105e+00  5.426707e+00 -2.216879e+00
     vertex -4.394051e+00  6.297976e+00 -1.914022e+00
   endloop
 endfacet
 facet normal  8.966411e-01  2.773636e-01 -3.451147e-01
   outer loop
     vertex -3.444983e+00  4.973959e+00 -5.123458e-01
     vertex -4.394051e+00  6.297976e+00 -1.914022e+00
     vertex -3.597929e+00  5.845228e+00 -2.094890e-01
   endloop
 endfacet
 facet normal  1.635790e-01 -9.318388e-01 -3.239111e-01
   outer loop
     vertex  3.496672e+00  4.569037e+00  4.158167e+00
     vertex  3.491323e+00  4.229614e+00  5.131929e+00
     vertex  3.106633e+00  4.448384e+00  4.308292e+00
   endloop
 endfacet
 facet normal  1.635790e-01 -9.318388e-01 -3.239111e-01
   outer loop
     vertex  3.496672e+00  4.569037e+00  4.158167e+00
     vertex  3.881362e+00  4.350267e+00  4.981804e+00
     vertex  3.491323e+00  4.229614e+00  5.131929e+00
   endloop
 endfacet
 facet normal -1.635790e-01  9.318388e-01  3.239111e-01
   outer loop
     vertex  3.180147e+00  6.372145e+00  4.784935e+00
     vertex  2.790108e+00  6.251492e+00  4.935060e+00
     vertex  3.174797e+00  6.032722e+00  5.758697e+00
   endloop
 endfacet
 facet normal -1.635790e-01  9.318388e-01  3.239111e-01
   outer loop
     vertex  3.180147e+00  6.372145e+00  4.784935e+00
     vertex  3.174797e+00  6.032722e+00  5.758697e+00
     vertex  3.564836e+00  6.153375e+00  5.608572e+00
   endloop
 endfacet
 facet normal -4.114324e-01  2.339784e-01 -8.808958e-01
   outer loop
     vertex  3.180147e+00  6.372145e+00  4.784935e+00
     vertex  3.106633e+00  4.448384e+00  4.308292e+00
     vertex  2.790108e+00  6.251492e+00  4.935060e+00
   endloop
 endfacet
 facet normal -4.114324e-01  2.339784e-01 -8.808958e-01
   outer loop
     vertex  3.180147e+00  6.372145e+00  4.784935e+00
     vertex  3.496672e+00  4.569037e+00  4.158167e+00
     vertex  3.106633e+00  4.448384e+00  4.308292e+00
   endloop
 endfacet
 facet normal  4.114324e-01 -2.339784e-01  8.808958e-01
   outer loop
     vertex  3.564836e+00  6.153375e+00  5.608572e+00
     vertex  3.174797e+00  6.032722e+00  5.758697e+00
     vertex  3.491323e+00  4.229614e+00  5.131929e+00
   endloop
 endfacet
 facet normal  4.114324e-01 -2.339784e-01  8.808958e-01
   outer loop
     vertex  3.564836e+00  6.153375e+00  5.608572e+00
     vertex  3.491323e+00  4.229614e+00  5.131929e+00
     vertex  3.881362e+00  4.350267e+00  4.981804e+00
   endloop
 endfacet
 facet normal -8.966411e-01 -2.773636e-01  3.451147e-01
   outer loop
     vertex  3.174797e+00  6.032722e+00  5.758697e+00
     vertex  3.106633e+00  4.448384e+00  4.308292e+00
     vertex  3.491323e+00  4.229614e+00  5.131929e+00
   endloop
 endfacet
 facet normal -8.966411e-01 -2.773636e-01  3.451147e-01
   outer loop
     vertex  3.174797e+00  6.032722e+00  5.758697e+00
     vertex  2.790108e+00  6.251492e+00  4.935060e+00
     vertex  3.106633e+00  4.448384e+00  4.308292e+00
   endloop
 endfacet
 facet normal  8.966411e-01  2.773636e-01 -3.451147e-01
   outer loop
     vertex  3.564836e+00  6.153375e+00  5.608572e+00
     vertex  3.881362e+00  4.350267e+00  4.981804e+00
     vertex  3.496672e+00  4.569037e+00  4.158167e+00
   endloop
 endfacet
 facet normal  8.966411e-01  2.773636e-01 -3.451147e-01
   outer loop
     vertex  3.564836e+00  6.153375e+00  5.608572e+00
     vertex  3.496672e+00  4.569037e+00  4.158167e+00
     vertex  3.180147e+00  6.372145e+00  4.784935e+00
   endloop
 endfacet
 facet normal  4.114324e-01 -2.339784e-01  8.808958e-01
   outer loop
     vertex  3.433041e+00  4.211585e+00  5.154362e+00
     vertex  2.890056e+00  4.962202e+00  5.607344e+00
     vertex  3.043002e+00  4.090932e+00  5.304487e+00
   endloop
 endfacet
 facet normal  4.114324e-01 -2.339784e-01  8.808958e-01
   outer loop
     vertex  3.433041e+00  4.211585e+00  5.154362e+00
     vertex  3.280095e+00  5.082855e+00  5.457219e+00
     vertex  2.890056e+00  4.962202e+00  5.607344e+00
   endloop
 endfacet
 facet normal -4.114324e-01  2.339784e-01 -8.808958e-01
   outer loop
     vertex  2.636919e+00  4.664334e+00  3.449828e+00
     vertex  2.246880e+00  4.543681e+00  3.599953e+00
     vertex  2.093934e+00  5.414950e+00  3.902810e+00
   endloop
 endfacet
 facet normal -4.114324e-01  2.339784e-01 -8.808958e-01
   outer loop
     vertex  2.636919e+00  4.664334e+00  3.449828e+00
     vertex  2.093934e+00  5.414950e+00  3.902810e+00
     vertex  2.483973e+00  5.535603e+00  3.752685e+00
   endloop
 endfacet
 facet normal  1.635790e-01 -9.318388e-01 -3.239111e-01
   outer loop
     vertex  2.636919e+00  4.664334e+00  3.449828e+00
     vertex  3.043002e+00  4.090932e+00  5.304487e+00
     vertex  2.246880e+00  4.543681e+00  3.599953e+00
   endloop
 endfacet
 facet normal  1.635790e-01 -9.318388e-01 -3.239111e-01
   outer loop
     vertex  2.636919e+00  4.664334e+00  3.449828e+00
     vertex  3.433041e+00  4.211585e+00  5.154362e+00
     vertex  3.043002e+00  4.090932e+00  5.304487e+00
   endloop
 endfacet
 facet normal -1.635790e-01  9.318388e-01  3.239111e-01
   outer loop
     vertex  2.483973e+00  5.535603e+00  3.752685e+00
     vertex  2.093934e+00  5.414950e+00  3.902810e+00
     vertex  2.890056e+00  4.962202e+00  5.607344e+00
   endloop
 endfacet
 facet normal -1.635790e-01  9.318388e-01  3.239111e-01
   outer loop
     vertex  2.483973e+00  5.535603e+00  3.752685e+00
     vertex  2.890056e+00  4.962202e+00  5.607344e+00
     vertex  3.280095e+00  5.082855e+00  5.457219e+00
   endloop
 endfacet
 facet normal -8.966411e-01 -2.773636e-01  3.451147e-01
   outer loop
     vertex  2.093934e+00  5.414950e+00  3.902810e+00
     vertex  3.043002e+00  4.090932e+00  5.304487e+00
     vertex  2.890056e+00  4.962202e+00  5.607344e+00
   endloop
 endfacet
 facet normal -8.966411e-01 -2.773636e-01  3.451147e-01
   outer loop
     vertex  2.093934e+00  5.414950e+00  3.902810e+00
     vertex  2.246880e+00  4.543681e+00  3.599953e+00
     vertex  3.043002e+00  4.090932e+00  5.304487e+00
   endloop
 endfacet
 facet normal  8.966411e-01  2.773636e-01 -3.451147e-01
   outer loop
     vertex  2.483973e+00  5.535603e+00  3.752685e+00
     vertex  3.280095e+00  5.082855e+00  5.457219e+00
     vertex  3.433041e+00  4.211585e+00  5.154362e+00
   endloop
 endfacet
 facet normal  8.966411e-01  2.773636e-01 -3.451147e-01
   outer loop
     vertex  2.483973e+00  5.535603e+00  3.752685e+00
     vertex  3.433041e+00  4.211585e+00  5.154362e+00
     vertex  2.636919e+00  4.664334e+00  3.449828e+00
   endloop
 endfacet
 facet normal  1.635790e-01 -9.318388e-01 -3.239111e-01
   outer loop
     vertex  2.600031e+00  4.291674e+00  4.503282e+00
     vertex  2.594682e+00  3.952251e+00  5.477044e+00
     vertex  2.209992e+00  4.171020e+00  4.653406e+00
   endloop
 endfacet
 facet normal  1.635790e-01 -9.318388e-01 -3.239111e-01
   outer loop
     vertex  2.600031e+00  4.291674e+00  4.503282e+00
     vertex  2.984721e+00  4.072904e+00  5.326919e+00
     vertex  2.594682e+00  3.952251e+00  5.477044e+00
   endloop
 endfacet
 facet normal -1.635790e-01  9.318388e-01  3.239111e-01
   outer loop
     vertex  2.283506e+00  6.094782e+00  5.130049e+00
     vertex  1.893467e+00  5.974128e+00  5.280174e+00
     vertex  2.278156e+00  5.755359e+00  6.103812e+00
   endloop
 endfacet
 facet normal -1.635790e-01  9.318388e-01  3.239111e-01
   outer loop
     vertex  2.283506e+00  6.094782e+00  5.130049e+00
     vertex  2.278156e+00  5.755359e+00  6.103812e+00
     vertex  2.668195e+00  5.876012e+00  5.953687e+00
   endloop
 endfacet
 facet normal -4.114324e-01  2.339784e-01 -8.808958e-01
   outer loop
     vertex  2.283506e+00  6.094782e+00  5.130049e+00
     vertex  2.209992e+00  4.171020e+00  4.653406e+00
     vertex  1.893467e+00  5.974128e+00  5.280174e+00
   endloop
 endfacet
 facet normal -4.114324e-01  2.339784e-01 -8.808958e-01
   outer loop
     vertex  2.283506e+00  6.094782e+00  5.130049e+00
     vertex  2.600031e+00  4.291674e+00  4.503282e+00
     vertex  2.209992e+00  4.171020e+00  4.653406e+00
   endloop
 endfacet
 facet normal  4.114324e-01 -2.339784e-01  8.808958e-01
   outer loop
     vertex  2.668195e+00  5.876012e+00  5.953687e+00
     vertex  2.278156e+00  5.755359e+00  6.103812e+00
     vertex  2.594682e+00  3.952251e+00  5.477044e+00
   endloop
 endfacet
 facet normal  4.114324e-01 -2.339784e-01  8.808958e-01
   outer loop
     vertex  2.668195e+00  5.876012e+00  5.953687e+00
     vertex  2.594682e+00  3.952251e+00  5.477044e+00
     vertex  2.984721e+00  4.072904e+00  5.326919e+00
   endloop
 endfacet
 facet normal -8.966411e-01 -2.773636e-01  3.451147e-01
   outer loop
     vertex  2.278156e+00  5.755359e+00  6.103812e+00
     vertex  2.209992e+00  4.171020e+00  4.653406e+00
     vertex  2.594682e+00  3.952251e+00  5.477044e+00
   endloop
 endfacet
 facet normal -8.966411e-01 -2.773636e-01  3.451147e-01
   outer loop
     vertex  2.278156e+00  5.755359e+00  6.103812e+00
     vertex  1.893467e+00  5.974128e+00  5.280174e+00
     vertex  2.209992e+00  4.171020e+00  4.653406e+00
   endloop
 endfacet
 facet normal  8.966411e-01  2.773636e-01 -3.451147e-01
   outer loop
     vertex  2.668195e+00  5.876012e+00  5.953687e+00
     vertex  2.984721e+00  4.072904e+00  5.326919e+00
     vertex  2.600031e+00  4.291674e+00  4.503282e+00
   endloop
 endfacet
 facet normal  8.966411e-01  2.773636e-01 -3.451147e-01
   outer loop
     vertex  2.668195e+00  5.876012e+00  5.953687e+00
     vertex  2.600031e+00  4.291674e+00  4.503282e+00
     vertex  2.283506e+00  6.094782e+00  5.130049e+00
   endloop
 endfacet
 facet normal  4.114324e-01 -2.339784e-01  8.808958e-01
   outer loop
     vertex  2.536400e+00  3.934222e+00  5.499477e+00
     vertex  1.993415e+00  4.684838e+00  5.952458e+00
     vertex  2.146361e+00  3.813569e+00  5.649601e+00
   endloop
 endfacet
 facet normal  4.114324e-01 -2.339784e-01  8.808958e-01
   outer loop
     vertex  2.536400e+00  3.934222e+00  5.499477e+00
     vertex  2.383454e+00  4.805491e+00  5.802333e+00
     vertex  1.993415e+00  4.684838e+00  5.952458e+00
   endloop
 endfacet
 facet normal -4.114324e-01  2.339784e-01 -8.808958e-01
   outer loop
     vertex  1.740278e+00  4.386970e+00  3.794943e+00
     vertex  1.350239e+00  4.266317e+00  3.945068e+00
     vertex  1.197293e+00  5.137586e+00  4.247925e+00
   endloop
 endfacet
 facet normal -4.114324e-01  2.339784e-01 -8.808958e-01
   outer loop
     vertex  1.740278e+00  4.386970e+00  3.794943e+00
     vertex  1.197293e+00  5.137586e+00  4.247925e+00
     vertex  1.587332e+00  5.258239e+00  4.097800e+00
   endloop
 endfacet
 facet normal  1.635790e-01 -9.318388e-01 -3.239111e-01
   outer loop
     vertex  1.740278e+00  4.386970e+00  3.794943e+00
     vertex  2.146361e+00  3.813569e+00  5.649601e+00
     vertex  1.350239e+00  4.266317e+00  3.945068e+00
   endloop
 endfacet
 facet normal  1.635790e-01 -9.318388e-01 -3.239111e-01
   outer loop
     vertex  1.740278e+00  4.386970e+00  3.794943e+00
     vertex  2.536400e+00  3.934222e+00  5.499477e+00
     vertex  2.146361e+00  3.813569e+00  5.649601e+00
   endloop
 endfacet
 facet normal -1.635790e-01  9.318388e-01  3.239111e-01
   outer loop
     vertex  1.587332e+00  5.258239e+00  4.097800e+00
     vertex  1.197293e+00  5.137586e+00  4.247925e+00
     vertex  1.993415e+00  4.684838e+00  5.952458e+00
   endloop
 endfacet
 facet normal -1.635790e-01  9.318388e-01  3.239111e-01
   outer loop
     vertex  1.587332e+00  5.258239e+00  4.097800e+00
     vertex  1.993415e+00  4.684838e+00  5.952458e+00
     vertex  2.383454e+00  4.805491e+00  5.802333e+00
   endloop
 endfacet
 facet normal -8.966411e-01 -2.773636e-01  3.451147e-01
   outer loop
     vertex  1.197293e+00  5.137586e+00  4.247925e+00
     vertex  2.146361e+00  3.813569e+00  5.649601e+00
     vertex  1.993415e+00  4.684838e+00  5.952458e+00
   endloop
 endfacet
 facet normal -8.966411e-01 -2.773636e-01  3.451147e-01
   outer loop
     vertex  1.197293e+00  5.137586e+00  4.247925e+00
     vertex  1.350239e+00  4.266317e+00  3.945068e+00
     vertex  2.146361e+00  3.813569e+00  5.649601e+00
   endloop
 endfacet
 facet normal  8.966411e-01  2.773636e-01 -3.451147e-01
   outer loop
     vertex  1.587332e+00  5.258239e+00  4.097800e+00
     vertex  2.383454e+00  4.805491e+00  5.802333e+00
     vertex  2.536400e+00  3.934222e+00  5.499477e+00
   endloop
 endfacet
 facet normal  8.966411e-01  2.773636e-01 -3.451147e-01
   outer loop
     vertex  1.587332e+00  5.258239e+00  4.097800e+00
     vertex  2.536400e+00  3.934222e+00  5.499477e+00
     vertex  1.740278e+00  4.386970e+00  3.794943e+00
   endloop
 endfacet
 facet normal  1.635790e-01 -9.318388e-01 -3.239111e-01
   outer loop
     vertex  1.703390e+00  4.014310e+00  4.848396e+00
     vertex  1.698041e+00  3.674887e+00  5.822159e+00
     vertex  1.313351e+00  3.893657e+00  4.998521e+00
   endloop
 endfacet
 facet normal  1.635790e-01 -9.318388e-01 -3.239111e-01
   outer loop
     vertex  1.703390e+00  4.014310e+00  4.848396e+00
     vertex  2.088079e+00  3.795540e+00  5.672034e+00
     vertex  1.698041e+00  3.674887e+00  5.822159e+00
   endloop
 endfacet
 facet normal -1.635790e-01  9.318388e-01  3.239111e-01
   outer loop
     vertex  1.386865e+00  5.817418e+00  5.475164e+00
     vertex  9.968258e-01  5.696765e+00  5.625289e+00
     vertex  1.381515e+00  5.477995e+00  6.448927e+00
   endloop
 endfacet
 facet normal -1.635790e-01  9.318388e-01  3.239111e-01
   outer loop
     vertex  1.386865e+00  5.817418e+00  5.475164e+00
     vertex  1.381515e+00  5.477995e+00  6.448927e+00
     vertex  1.771554e+00  5.598648e+00  6.298802e+00
   endloop
 endfacet
 facet normal -4.114324e-01  2.339784e-01 -8.808958e-01
   outer loop
     vertex  1.386865e+00  5.817418e+00  5.475164e+00
     vertex  1.313351e+00  3.893657e+00  4.998521e+00
     vertex  9.968258e-01  5.696765e+00  5.625289e+00
   endloop
 endfacet
 facet normal -4.114324e-01  2.339784e-01 -8.808958e-01
   outer loop
     vertex  1.386865e+00  5.817418e+00  5.475164e+00
     vertex  1.703390e+00  4.014310e+00  4.848396e+00
     vertex  1.313351e+00  3.893657e+00  4.998521e+00
   endloop
 endfacet
 facet normal  4.114324e-01 -2.339784e-01  8.808958e-01
   outer loop
     vertex  1.771554e+00  5.598648e+00  6.298802e+00
     vertex  1.381515e+00  5.477995e+00  6.448927e+00
     vertex  1.698041e+00  3.674887e+00  5.822159e+00
   endloop
 endfacet
 facet normal  4.114324e-01 -2.339784e-01  8.808958e-01
   outer loop
     vertex  1.771554e+00  5.598648e+00  6.298802e+00
     vertex  1.698041e+00  3.674887e+00  5.822159e+00
     vertex  2.088079e+00  3.795540e+00  5.672034e+00
   endloop
 endfacet
 facet normal -8.966411e-01 -2.773636e-01  3.451147e-01
   outer loop
     vertex  1.381515e+00  5.477995e+00  6.448927e+00
     vertex  1.313351e+00  3.893657e+00  4.998521e+00
     vertex  1.698041e+00  3.674887e+00  5.822159e+00
   endloop
 endfacet
 facet normal -8.966411e-01 -2.773636e-01  3.451147e-01
   outer loop
     vertex  1.381515e+00  5.477995e+00  6.448927e+00
     vertex  9.968258e-01  5.696765e+00  5.625289e+00
     vertex  1.313351e+00  3.893657e+00  4.998521e+00
   endloop
 endfacet
 facet normal  8.966411e-01  2.773636e-01 -3.451147e-01
   outer loop
     vertex  1.771554e+00  5.598648e+00  6.298802e+00
     vertex  2.088079e+00  3.795540e+00  5.672034e+00
     vertex  1.703390e+00  4.014310e+00  4.848396e+00
   endloop
 endfacet
 facet normal  8.966411e-01  2.773636e-01 -3.451147e-01
   outer loop
     vertex  1.771554e+00  5.598648e+00  6.298802e+00
     vertex  1.703390e+00  4.014310e+00  4.848396e+00
     vertex  1.386865e+00  5.817418e+00  5.475164e+00
   endloop
 endfacet
 facet normal  4.114324e-01 -2.339784e-01  8.808958e-01
   outer loop
     vertex  1.639759e+00  3.656858e+00  5.844591e+00
     vertex  1.096774e+00  4.407474e+00  6.297573e+00
     vertex  1.249720e+00  3.536205e+00  5.994716e+00
   endloop
 endfacet
 facet normal  4.114324e-01 -2.339784e-01  8.808958e-01
   outer loop
     vertex  1.639759e+00  3.656858e+00  5.844591e+00
     vertex  1.486813e+00  4.528128e+00  6.147448e+00
     vertex  1.096774e+00  4.407474e+00  6.297573e+00
   endloop
 endfacet
 facet normal -4.114324e-01  2.339784e-01 -8.808958e-01
   outer loop
     vertex  8.436371e-01  4.109607e+00  4.140058e+00
     vertex  4.535983e-01  3.988953e+00  4.290183e+00
     vertex  3.006519e-01  4.860223e+00  4.593040e+00
   endloop
 endfacet
 facet normal -4.114324e-01  2.339784e-01 -8.808958e-01
   outer loop
     vertex  8.436371e-01  4.109607e+00  4.140058e+00
     vertex  3.006519e-01  4.860223e+00  4.593040e+00
     vertex  6.906908e-01  4.980876e+00  4.442915e+00
   endloop
 endfacet
 facet normal  1.635790e-01 -9.318388e-01 -3.239111e-01
   outer loop
     vertex  8.436371e-01  4.109607e+00  4.140058e+00
     vertex  1.249720e+00  3.536205e+00  5.994716e+00
     vertex  4.535983e-01  3.988953e+00  4.290183e+00
   endloop
 endfacet
 facet normal  1.635790e-01 -9.318388e-01 -3.239111e-01
   outer loop
     vertex  8.436371e-01  4.109607e+00  4.140058e+00
     vertex  1.639759e+00  3.656858e+00  5.844591e+00
     vertex  1.249720e+00  3.536205e+00  5.994716e+00
   endloop
 endfacet
 facet normal -1.635790e-01  9.318388e-01  3.239111e-01
   outer loop
     vertex  6.906908e-01  4.980876e+00  4.442915e+00
     vertex  3.006519e-01  4.860223e+00  4.593040e+00
     vertex  1.096774e+00  4.407474e+00  6.297573e+00
   endloop
 endfacet
 facet normal -1.635790e-01  9.318388e-01  3.239111e-01
   outer loop
     vertex  6.906908e-01  4.980876e+00  4.442915e+00
     vertex  1.096774e+00  4.407474e+00  6.297573e+00
     vertex  1.486813e+00  4.528128e+00  6.147448e+00
   endloop
 endfacet
 facet normal -8.966411e-01 -2.773636e-01  3.451147e-01
   outer loop
     vertex  3.006519e-01  4.860223e+00  4.593040e+00
     vertex  1.249720e+00  3.536205e+00  5.994716e+00
     vertex  1.096774e+00  4.407474e+00  6.297573e+00
   endloop
 endfacet
 facet normal -8.966411e-01 -2.773636e-01  3.451147e-01
   outer loop
     vertex  3.006519e-01  4.860223e+00  4.593040e+00
     vertex  4.535983e-01  3.988953e+00  4.290183e+00
     vertex  1.249720e+00  3.536205e+00  5.994716e+00
   endloop
 endfacet
 facet normal  8.966411e-01  2.773636e-01 -3.451147e-01
   outer loop
     vertex  6.906908e-01  4.980876e+00  4.442915e+00
     vertex  1.486813e+00  4.528128e+00  6.147448e+00
     vertex  1.639759e+00  3.656858e+00  5.844591e+00
   endloop
 endfacet
 facet normal  8.966411e-01  2.773636e-01 -3.451147e-01
   outer loop
     vertex  6.906908e-01  4.980876e+00  4.442915e+00
     vertex  1.639759e+00  3.656858e+00  5.844591e+00
     vertex  8.436371e-01  4.109607e+00  4.140058e+00
   endloop
 endfacet
 facet normal  4.114324e-01 -2.339784e-01  8.808958e-01
   outer loop
     vertex  7.431178e-01  3.379495e+00  6.189706e+00
     vertex  2.001326e-01  4.130111e+00  6.642688e+00
     vertex  3.530789e-01  3.258842e+00  6.339831e+00
   endloop
 endfacet
 facet normal  4.114324e-01 -2.339784e-01  8.808958e-01
   outer loop
     vertex  7.431178e-01  3.379495e+00  6.189706e+00
     vertex  5.901714e-01  4.250764e+00  6.492563e+00
     vertex  2.001326e-01  4.130111e+00  6.642688e+00
   endloop
 endfacet
 facet normal -4.114324e-01  2.339784e-01 -8.808958e-01
   outer loop
     vertex -5.300395e-02  3.832243e+00  4.485173e+00
     vertex -4.430428e-01  3.711590e+00  4.635297e+00
     vertex -5.959892e-01  4.582859e+00  4.938154e+00
   endloop
 endfacet
 facet normal -4.114324e-01  2.339784e-01 -8.808958e-01
   outer loop
     vertex -5.300395e-02  3.832243e+00  4.485173e+00
     vertex -5.959892e-01  4.582859e+00  4.938154e+00
     vertex -2.059503e-01  4.703512e+00  4.788029e+00
   endloop
 endfacet
 facet normal  1.635790e-01 -9.318388e-01 -3.239111e-01
   outer loop
     vertex -5.300395e-02  3.832243e+00  4.485173e+00
     vertex  3.530789e-01  3.258842e+00  6.339831e+00
     vertex -4.430428e-01  3.711590e+00  4.635297e+00
   endloop
 endfacet
 facet normal  1.635790e-01 -9.318388e-01 -3.239111e-01
   outer loop
     vertex -5.300395e-02  3.832243e+00  4.485173e+00
     vertex  7.431178e-01  3.379495e+00  6.189706e+00
     vertex  3.530789e-01  3.258842e+00  6.339831e+00
   endloop
 endfacet
 facet normal -1.635790e-01  9.318388e-01  3.239111e-01
   outer loop
     vertex -2.059503e-01  4.703512e+00  4.788029e+00
     vertex -5.959892e-01  4.582859e+00  4.938154e+00
     vertex  2.001326e-01  4.130111e+00  6.642688e+00
   endloop
 endfacet
 facet normal -1.635790e-01  9.318388e-01  3.239111e-01
   outer loop
     vertex -2.059503e-01  4.703512e+00  4.788029e+00
     vertex  2.001326e-01  4.130111e+00  6.642688e+00
     vertex  5.901714e-01  4.250764e+00  6.492563e+00
   endloop
 endfacet
 facet normal -8.966411e-01 -2.773636e-01  3.451147e-01
   outer loop
     vertex -5.959892e-01  4.582859e+00  4.938154e+00
     vertex  3.530789e-01  3.258842e+00  6.339831e+00
     vertex  2.001326e-01  4.130111e+00  6.642688e+00
   endloop
 endfacet
 facet normal -8.966411e-01 -2.773636e-01  3.451147e-01
   outer loop
     vertex -5.959892e-01  4.582859e+00  4.938154e+00
     vertex -4.430428e-01  3.711590e+00  4.635297e+00
     vertex  3.530789e-01  3.258842e+00  6.339831e+00
   endloop
 endfacet
 facet normal  8.966411e-01  2.773636e-01 -3.451147e-01
   outer loop
     vertex -2.059503e-01  4.703512e+00  4.788029e+00
     vertex  5.901714e-01  4.250764e+00  6.492563e+00
     vertex  7.431178e-01  3.379495e+00  6.189706e+00
   endloop
 endfacet
 facet normal  8.966411e-01  2.773636e-01 -3.451147e-01
   outer loop
     vertex -2.059503e-01  4.703512e+00  4.788029e+00
     vertex  7.431178e-01  3.379495e+00  6.189706e+00
     vertex -5.300395e-02  3.832243e+00  4.485173e+00
   endloop
 endfacet
 facet normal  1.635790e-01 -9.318388e-01 -3.239111e-01
   outer loop
     vertex  8.067490e-01  3.736946e+00  5.193511e+00
     vertex  8.013995e-01  3.397523e+00  6.167274e+00
     vertex  4.167102e-01  3.616293e+00  5.343636e+00
   endloop
 endfacet
 facet normal  1.635790e-01 -9.318388e-01 -3.239111e-01
   outer loop
     vertex  8.067490e-01  3.736946e+00  5.193511e+00
     vertex  1.191438e+00  3.518176e+00  6.017149e+00
     vertex  8.013995e-01  3.397523e+00  6.167274e+00
   endloop
 endfacet
 facet normal -1.635790e-01  9.318388e-01  3.239111e-01
   outer loop
     vertex  4.902236e-01  5.540054e+00  5.820279e+00
     vertex  1.001848e-01  5.419401e+00  5.970404e+00
     vertex  4.848741e-01  5.200631e+00  6.794041e+00
   endloop
 endfacet
 facet normal -1.635790e-01  9.318388e-01  3.239111e-01
   outer loop
     vertex  4.902236e-01  5.540054e+00  5.820279e+00
     vertex  4.848741e-01  5.200631e+00  6.794041e+00
     vertex  8.749130e-01  5.321285e+00  6.643917e+00
   endloop
 endfacet
 facet normal -4.114324e-01  2.339784e-01 -8.808958e-01
   outer loop
     vertex  4.902236e-01  5.540054e+00  5.820279e+00
     vertex  4.167102e-01  3.616293e+00  5.343636e+00
     vertex  1.001848e-01  5.419401e+00  5.970404e+00
   endloop
 endfacet
 facet normal -4.114324e-01  2.339784e-01 -8.808958e-01
   outer loop
     vertex  4.902236e-01  5.540054e+00  5.820279e+00
     vertex  8.067490e-01  3.736946e+00  5.193511e+00
     vertex  4.167102e-01  3.616293e+00  5.343636e+00
   endloop
 endfacet
 facet normal  4.114324e-01 -2.339784e-01  8.808958e-01
   outer loop
     vertex  8.749130e-01  5.321285e+00  6.643917e+00
     vertex  4.848741e-01  5.200631e+00  6.794041e+00
     vertex  8.013995e-01  3.397523e+00  6.167274e+00
   endloop
 endfacet
 facet normal  4.114324e-01 -2.339784e-01  8.808958e-01
   outer loop
     vertex  8.749130e-01  5.321285e+00  6.643917e+00
     vertex  8.013995e-01  3.397523e+00  6.167274e+00
     vertex  1.191438e+00  3.518176e+00  6.017149e+00
   endloop
 endfacet
 facet normal -8.966411e-01 -2.773636e-01  3.451147e-01
   outer loop
     vertex  4.848741e-01  5.200631e+00  6.794041e+00
     vertex  4.167102e-01  3.616293e+00  5.343636e+00
     vertex  8.013995e-01  3.397523e+00  6.167274e+00
   endloop
 endfacet
 facet normal -8.966411e-01 -2.773636e-01  3.451147e-01
   outer loop
     vertex  4.848741e-01  5.200631e+00  6.794041e+00
     vertex  1.001848e-01  5.419401e+00  5.970404e+00
     vertex  4.167102e-01  3.616293e+00  5.343636e+00
   endloop
 endfacet
 facet normal  8.966411e-01  2.773636e-01 -3.451147e-01
   outer loop
     vertex  8.749130e-01  5.321285e+00  6.643917e+00
     vertex  1.191438e+00  3.518176e+00  6.017149e+00
     vertex  8.067490e-01  3.736946e+00  5.193511e+00
   endloop
 endfacet
 facet normal  8.966411e-01  2.773636e-01 -3.451147e-01
   outer loop
     vertex  8.749130e-01  5.321285e+00  6.643917e+00
     vertex  8.067490e-01  3.736946e+00  5.193511e+00
     vertex  4.902236e-01  5.540054e+00  5.820279e+00
   endloop
 endfacet
endsolid
