solid 
 facet normal -1.000000e+00  2.220446e-16  6.026346e-17
   outer loop
     vertex -5.000000e-01 -6.000000e+00 -6.577178e-01
     vertex -5.000000e-01 -5.000000e+00 -2.500000e+00
     vertex -5.000000e-01 -6.000000e+00 -2.500000e+00
   endloop
 endfacet
 facet normal -1.000000e+00  1.110223e-16  0.000000e+00
   outer loop
     vertex -5.000000e-01 -6.000000e+00  3.801022e-01
     vertex -5.000000e-01 -5.000000e+00 -2.500000e+00
     vertex -5.000000e-01 -6.000000e+00 -6.577178e-01
   endloop
 endfacet
 facet normal -1.000000e+00  1.110223e-16  0.000000e+00
   outer loop
     vertex -5.000000e-01 -5.000000e+00  2.500000e+00
     vertex -5.000000e-01 -5.000000e+00 -2.500000e+00
     vertex -5.000000e-01 -6.000000e+00  3.801022e-01
   endloop
 endfacet
 facet normal -1.000000e+00  2.220446e-16 -5.237154e-17
   outer loop
     vertex -5.000000e-01 -6.000000e+00  2.500000e+00
     vertex -5.000000e-01 -5.000000e+00  2.500000e+00
     vertex -5.000000e-01 -6.000000e+00  3.801022e-01
   endloop
 endfacet
 facet normal -8.515013e-16 -1.000000e+00  9.642154e-16
   outer loop
     vertex  2.542645e+00 -6.000000e+00  1.869680e-01
     vertex -5.000000e-01 -6.000000e+00 -6.577178e-01
     vertex -5.000000e-01 -6.000000e+00 -2.500000e+00
   endloop
 endfacet
 facet normal -4.074684e-16 -1.000000e+00 -8.379446e-16
   outer loop
     vertex  2.275146e+00 -6.000000e+00  1.150526e+00
     vertex -5.000000e-01 -6.000000e+00  2.500000e+00
     vertex -5.000000e-01 -6.000000e+00  3.801022e-01
   endloop
 endfacet
 facet normal -2.664535e-16 -1.000000e+00  3.017243e-16
   outer loop
     vertex  9.500000e+00 -6.000000e+00 -2.500000e+00
     vertex  2.542645e+00 -6.000000e+00  1.869680e-01
     vertex -5.000000e-01 -6.000000e+00 -2.500000e+00
   endloop
 endfacet
 facet normal -3.506203e-16 -1.000000e+00 -9.733769e-17
   outer loop
     vertex  9.500000e+00 -6.000000e+00  2.500000e+00
     vertex  2.275146e+00 -6.000000e+00  1.150526e+00
     vertex  2.542645e+00 -6.000000e+00  1.869680e-01
   endloop
 endfacet
 facet normal -3.829811e-16 -1.000000e+00 -0.000000e+00
   outer loop
     vertex  9.500000e+00 -6.000000e+00  2.500000e+00
     vertex  2.542645e+00 -6.000000e+00  1.869680e-01
     vertex  9.500000e+00 -6.000000e+00 -2.500000e+00
   endloop
 endfacet
 facet normal -2.664535e-16 -1.000000e+00 -5.479524e-16
   outer loop
     vertex  9.500000e+00 -6.000000e+00  2.500000e+00
     vertex -5.000000e-01 -6.000000e+00  2.500000e+00
     vertex  2.275146e+00 -6.000000e+00  1.150526e+00
   endloop
 endfacet
 facet normal -9.290776e-16  1.000000e+00 -2.579265e-16
   outer loop
     vertex -5.000000e-01 -6.000000e+00 -6.577178e-01
     vertex -2.275146e+00 -6.000000e+00 -1.150526e+00
     vertex -2.542645e+00 -6.000000e+00 -1.869680e-01
   endloop
 endfacet
 facet normal -8.696357e-16  1.000000e+00  0.000000e+00
   outer loop
     vertex -5.000000e-01 -6.000000e+00 -6.577178e-01
     vertex -2.542645e+00 -6.000000e+00 -1.869680e-01
     vertex -5.000000e-01 -6.000000e+00  3.801022e-01
   endloop
 endfacet
 facet normal  0.000000e+00  0.000000e+00  1.000000e+00
   outer loop
     vertex  9.500000e+00 -5.000000e+00  2.500000e+00
     vertex -5.000000e-01 -5.000000e+00  2.500000e+00
     vertex -5.000000e-01 -6.000000e+00  2.500000e+00
   endloop
 endfacet
 facet normal  0.000000e+00  0.000000e+00  1.000000e+00
   outer loop
     vertex  9.500000e+00 -5.000000e+00  2.500000e+00
     vertex -5.000000e-01 -6.000000e+00  2.500000e+00
     vertex  9.500000e+00 -6.000000e+00  2.500000e+00
   endloop
 endfacet
 facet normal  2.664535e-16  1.000000e+00  0.000000e+00
   outer loop
     vertex  9.500000e+00 -5.000000e+00  2.500000e+00
     vertex  9.500000e+00 -5.000000e+00 -2.500000e+00
     vertex -5.000000e-01 -5.000000e+00 -2.500000e+00
   endloop
 endfacet
 facet normal  2.664535e-16  1.000000e+00  0.000000e+00
   outer loop
     vertex  9.500000e+00 -5.000000e+00  2.500000e+00
     vertex -5.000000e-01 -5.000000e+00 -2.500000e+00
     vertex -5.000000e-01 -5.000000e+00  2.500000e+00
   endloop
 endfacet
 facet normal -0.000000e+00  0.000000e+00 -1.000000e+00
   outer loop
     vertex  9.500000e+00 -5.000000e+00 -2.500000e+00
     vertex -5.000000e-01 -6.000000e+00 -2.500000e+00
     vertex -5.000000e-01 -5.000000e+00 -2.500000e+00
   endloop
 endfacet
 facet normal  0.000000e+00 -0.000000e+00 -1.000000e+00
   outer loop
     vertex  9.500000e+00 -5.000000e+00 -2.500000e+00
     vertex  9.500000e+00 -6.000000e+00 -2.500000e+00
     vertex -5.000000e-01 -6.000000e+00 -2.500000e+00
   endloop
 endfacet
 facet normal  1.000000e+00  0.000000e+00  0.000000e+00
   outer loop
     vertex  9.500000e+00 -6.000000e+00  2.500000e+00
     vertex  9.500000e+00 -6.000000e+00 -2.500000e+00
     vertex  9.500000e+00 -5.000000e+00 -2.500000e+00
   endloop
 endfacet
 facet normal  1.000000e+00 -0.000000e+00  0.000000e+00
   outer loop
     vertex  9.500000e+00 -6.000000e+00  2.500000e+00
     vertex  9.500000e+00 -5.000000e+00 -2.500000e+00
     vertex  9.500000e+00 -5.000000e+00  2.500000e+00
   endloop
 endfacet
 facet normal -2.674988e-01 -9.426876e-17  9.635582e-01
   outer loop
     vertex -5.000000e-01 -6.000000e+00  3.801022e-01
     vertex -2.542645e+00 -6.000000e+00 -1.869680e-01
     vertex -2.542645e+00 -1.600000e+01 -1.869680e-01
   endloop
 endfacet
 facet normal -2.674988e-01  1.554312e-16  9.635582e-01
   outer loop
     vertex -5.000000e-01 -6.000000e+00  3.801022e-01
     vertex -2.542645e+00 -1.600000e+01 -1.869680e-01
     vertex  2.275146e+00 -1.600000e+01  1.150526e+00
   endloop
 endfacet
 facet normal -2.674988e-01 -1.069764e-16  9.635582e-01
   outer loop
     vertex  2.275146e+00 -6.000000e+00  1.150526e+00
     vertex -5.000000e-01 -6.000000e+00  3.801022e-01
     vertex  2.275146e+00 -1.600000e+01  1.150526e+00
   endloop
 endfacet
 facet normal  9.635582e-01 -3.241841e-18  2.674988e-01
   outer loop
     vertex  2.542645e+00 -6.000000e+00  1.869680e-01
     vertex  2.275146e+00 -1.600000e+01  1.150526e+00
     vertex  2.542645e+00 -1.600000e+01  1.869680e-01
   endloop
 endfacet
 facet normal  9.635582e-01 -9.030792e-17  2.674988e-01
   outer loop
     vertex  2.275146e+00 -6.000000e+00  1.150526e+00
     vertex  2.275146e+00 -1.600000e+01  1.150526e+00
     vertex  2.542645e+00 -6.000000e+00  1.869680e-01
   endloop
 endfacet
 facet normal  2.674988e-01  1.325796e-16 -9.635582e-01
   outer loop
     vertex -5.000000e-01 -6.000000e+00 -6.577178e-01
     vertex -2.275146e+00 -1.600000e+01 -1.150526e+00
     vertex -2.275146e+00 -6.000000e+00 -1.150526e+00
   endloop
 endfacet
 facet normal  2.674988e-01 -1.199041e-16 -9.635582e-01
   outer loop
     vertex -5.000000e-01 -6.000000e+00 -6.577178e-01
     vertex  2.542645e+00 -1.600000e+01  1.869680e-01
     vertex -2.275146e+00 -1.600000e+01 -1.150526e+00
   endloop
 endfacet
 facet normal  2.674988e-01  1.135070e-16 -9.635582e-01
   outer loop
     vertex  2.542645e+00 -6.000000e+00  1.869680e-01
     vertex  2.542645e+00 -1.600000e+01  1.869680e-01
     vertex -5.000000e-01 -6.000000e+00 -6.577178e-01
   endloop
 endfacet
 facet normal -9.635582e-01 -7.152576e-18 -2.674988e-01
   outer loop
     vertex -2.275146e+00 -6.000000e+00 -1.150526e+00
     vertex -2.275146e+00 -1.600000e+01 -1.150526e+00
     vertex -2.542645e+00 -1.600000e+01 -1.869680e-01
   endloop
 endfacet
 facet normal -9.635582e-01  8.585317e-17 -2.674988e-01
   outer loop
     vertex -2.542645e+00 -6.000000e+00 -1.869680e-01
     vertex -2.275146e+00 -6.000000e+00 -1.150526e+00
     vertex -2.542645e+00 -1.600000e+01 -1.869680e-01
   endloop
 endfacet
 facet normal -2.674988e-01 -1.776357e-16  9.635582e-01
   outer loop
     vertex  2.275146e+00 -1.600000e+01  1.150526e+00
     vertex -2.542645e+00 -1.600000e+01 -1.869680e-01
     vertex -2.542645e+00 -2.600000e+01 -1.869680e-01
   endloop
 endfacet
 facet normal -2.674988e-01 -1.711623e-16  9.635582e-01
   outer loop
     vertex  2.275146e+00 -1.600000e+01  1.150526e+00
     vertex -2.542645e+00 -2.600000e+01 -1.869680e-01
     vertex  2.275146e+00 -2.600000e+01  1.150526e+00
   endloop
 endfacet
 facet normal  9.635582e-01 -4.751734e-17  2.674988e-01
   outer loop
     vertex  2.275146e+00 -1.600000e+01  1.150526e+00
     vertex  2.275146e+00 -2.600000e+01  1.150526e+00
     vertex  2.542645e+00 -2.600000e+01  1.869680e-01
   endloop
 endfacet
 facet normal  9.635582e-01 -4.996004e-17  2.674988e-01
   outer loop
     vertex  2.275146e+00 -1.600000e+01  1.150526e+00
     vertex  2.542645e+00 -2.600000e+01  1.869680e-01
     vertex  2.542645e+00 -1.600000e+01  1.869680e-01
   endloop
 endfacet
 facet normal  2.674988e-01  1.776357e-16 -9.635582e-01
   outer loop
     vertex  2.542645e+00 -1.600000e+01  1.869680e-01
     vertex -2.275146e+00 -2.600000e+01 -1.150526e+00
     vertex -2.275146e+00 -1.600000e+01 -1.150526e+00
   endloop
 endfacet
 facet normal  2.674988e-01  1.765111e-16 -9.635582e-01
   outer loop
     vertex  2.542645e+00 -1.600000e+01  1.869680e-01
     vertex  2.542645e+00 -2.600000e+01  1.869680e-01
     vertex -2.275146e+00 -2.600000e+01 -1.150526e+00
   endloop
 endfacet
 facet normal -9.635582e-01 -1.212909e-18 -2.674988e-01
   outer loop
     vertex -2.542645e+00 -1.600000e+01 -1.869680e-01
     vertex -2.275146e+00 -2.600000e+01 -1.150526e+00
     vertex -2.542645e+00 -2.600000e+01 -1.869680e-01
   endloop
 endfacet
 facet normal -9.635582e-01  4.996004e-17 -2.674988e-01
   outer loop
     vertex -2.542645e+00 -1.600000e+01 -1.869680e-01
     vertex -2.275146e+00 -1.600000e+01 -1.150526e+00
     vertex -2.275146e+00 -2.600000e+01 -1.150526e+00
   endloop
 endfacet
 facet normal  0.000000e+00 -1.000000e+00  0.000000e+00
   outer loop
     vertex  2.542645e+00 -2.600000e+01  1.869680e-01
     vertex -2.542645e+00 -2.600000e+01 -1.869680e-01
     vertex -2.275146e+00 -2.600000e+01 -1.150526e+00
   endloop
 endfacet
 facet normal -0.000000e+00 -1.000000e+00  0.000000e+00
   outer loop
     vertex  2.542645e+00 -2.600000e+01  1.869680e-01
     vertex  2.275146e+00 -2.600000e+01  1.150526e+00
     vertex -2.542645e+00 -2.600000e+01 -1.869680e-01
   endloop
 endfacet
 facet normal  0.000000e+00 -1.000000e+00  0.000000e+00
   outer loop
     vertex  1.205151e+00 -2.600000e+01  5.004759e+00
     vertex -3.880139e+00 -2.600000e+01  4.630823e+00
     vertex -3.612640e+00 -2.600000e+01  3.667265e+00
   endloop
 endfacet
 facet normal -0.000000e+00 -1.000000e+00  0.000000e+00
   outer loop
     vertex  1.205151e+00 -2.600000e+01  5.004759e+00
     vertex  9.376519e-01 -2.600000e+01  5.968317e+00
     vertex -3.880139e+00 -2.600000e+01  4.630823e+00
   endloop
 endfacet
 facet normal  2.674988e-01  1.687539e-16 -9.635582e-01
   outer loop
     vertex  1.205151e+00 -6.000000e+00  5.004759e+00
     vertex -3.612640e+00 -2.600000e+01  3.667265e+00
     vertex -3.612640e+00 -6.000000e+00  3.667265e+00
   endloop
 endfacet
 facet normal  2.674988e-01  1.652227e-16 -9.635582e-01
   outer loop
     vertex  1.205151e+00 -6.000000e+00  5.004759e+00
     vertex  1.205151e+00 -2.600000e+01  5.004759e+00
     vertex -3.612640e+00 -2.600000e+01  3.667265e+00
   endloop
 endfacet
 facet normal  9.635582e-01 -7.961027e-17  2.674988e-01
   outer loop
     vertex  9.376519e-01 -6.000000e+00  5.968317e+00
     vertex  9.376519e-01 -2.600000e+01  5.968317e+00
     vertex  1.205151e+00 -2.600000e+01  5.004759e+00
   endloop
 endfacet
 facet normal  9.635582e-01 -6.938894e-17  2.674988e-01
   outer loop
     vertex  9.376519e-01 -6.000000e+00  5.968317e+00
     vertex  1.205151e+00 -2.600000e+01  5.004759e+00
     vertex  1.205151e+00 -6.000000e+00  5.004759e+00
   endloop
 endfacet
 facet normal -2.674988e-01 -1.509903e-16  9.635582e-01
   outer loop
     vertex  9.376519e-01 -6.000000e+00  5.968317e+00
     vertex -3.880139e+00 -6.000000e+00  4.630823e+00
     vertex -3.880139e+00 -2.600000e+01  4.630823e+00
   endloop
 endfacet
 facet normal -2.674988e-01 -1.622528e-16  9.635582e-01
   outer loop
     vertex  9.376519e-01 -6.000000e+00  5.968317e+00
     vertex -3.880139e+00 -2.600000e+01  4.630823e+00
     vertex  9.376519e-01 -2.600000e+01  5.968317e+00
   endloop
 endfacet
 facet normal -9.635582e-01  9.030792e-17 -2.674988e-01
   outer loop
     vertex -3.880139e+00 -6.000000e+00  4.630823e+00
     vertex -3.612640e+00 -2.600000e+01  3.667265e+00
     vertex -3.880139e+00 -2.600000e+01  4.630823e+00
   endloop
 endfacet
 facet normal -9.635582e-01  9.436896e-17 -2.674988e-01
   outer loop
     vertex -3.880139e+00 -6.000000e+00  4.630823e+00
     vertex -3.612640e+00 -6.000000e+00  3.667265e+00
     vertex -3.612640e+00 -2.600000e+01  3.667265e+00
   endloop
 endfacet
 facet normal  0.000000e+00  1.000000e+00  0.000000e+00
   outer loop
     vertex  1.205151e+00 -6.000000e+00  5.004759e+00
     vertex -3.612640e+00 -6.000000e+00  3.667265e+00
     vertex -3.880139e+00 -6.000000e+00  4.630823e+00
   endloop
 endfacet
 facet normal  0.000000e+00  1.000000e+00  0.000000e+00
   outer loop
     vertex  1.205151e+00 -6.000000e+00  5.004759e+00
     vertex -3.880139e+00 -6.000000e+00  4.630823e+00
     vertex  9.376519e-01 -6.000000e+00  5.968317e+00
   endloop
 endfacet
endsolid
