solid 
 facet normal -1.000000e+00  0.000000e+00  0.000000e+00
   outer loop
     vertex -4.225000e+00 -4.750000e-01  4.750000e-01
     vertex -4.225000e+00  4.750000e-01  2.500000e-02
     vertex -4.225000e+00 -4.750000e-01  2.500000e-02
   endloop
 endfacet
 facet normal -1.000000e+00  0.000000e+00  0.000000e+00
   outer loop
     vertex -4.225000e+00 -4.750000e-01  4.750000e-01
     vertex -4.225000e+00  4.750000e-01  4.750000e-01
     vertex -4.225000e+00  4.750000e-01  2.500000e-02
   endloop
 endfacet
 facet normal  0.000000e+00 -1.000000e+00 -0.000000e+00
   outer loop
     vertex -2.275000e+00 -4.750000e-01  4.750000e-01
     vertex -4.225000e+00 -4.750000e-01  2.500000e-02
     vertex -2.275000e+00 -4.750000e-01  2.500000e-02
   endloop
 endfacet
 facet normal -0.000000e+00 -1.000000e+00  0.000000e+00
   outer loop
     vertex -2.275000e+00 -4.750000e-01  4.750000e-01
     vertex -4.225000e+00 -4.750000e-01  4.750000e-01
     vertex -4.225000e+00 -4.750000e-01  2.500000e-02
   endloop
 endfacet
 facet normal  0.000000e+00  0.000000e+00  1.000000e+00
   outer loop
     vertex -2.275000e+00  4.750000e-01  4.750000e-01
     vertex -4.225000e+00  4.750000e-01  4.750000e-01
     vertex -4.225000e+00 -4.750000e-01  4.750000e-01
   endloop
 endfacet
 facet normal  0.000000e+00  0.000000e+00  1.000000e+00
   outer loop
     vertex -2.275000e+00  4.750000e-01  4.750000e-01
     vertex -4.225000e+00 -4.750000e-01  4.750000e-01
     vertex -2.275000e+00 -4.750000e-01  4.750000e-01
   endloop
 endfacet
 facet normal  0.000000e+00  1.000000e+00  0.000000e+00
   outer loop
     vertex -2.275000e+00  4.750000e-01  4.750000e-01
     vertex -2.275000e+00  4.750000e-01  2.500000e-02
     vertex -4.225000e+00  4.750000e-01  2.500000e-02
   endloop
 endfacet
 facet normal  0.000000e+00  1.000000e+00  0.000000e+00
   outer loop
     vertex -2.275000e+00  4.750000e-01  4.750000e-01
     vertex -4.225000e+00  4.750000e-01  2.500000e-02
     vertex -4.225000e+00  4.750000e-01  4.750000e-01
   endloop
 endfacet
 facet normal -0.000000e+00  0.000000e+00 -1.000000e+00
   outer loop
     vertex -2.275000e+00  4.750000e-01  2.500000e-02
     vertex -4.225000e+00 -4.750000e-01  2.500000e-02
     vertex -4.225000e+00  4.750000e-01  2.500000e-02
   endloop
 endfacet
 facet normal  0.000000e+00 -0.000000e+00 -1.000000e+00
   outer loop
     vertex -2.275000e+00  4.750000e-01  2.500000e-02
     vertex -2.275000e+00 -4.750000e-01  2.500000e-02
     vertex -4.225000e+00 -4.750000e-01  2.500000e-02
   endloop
 endfacet
 facet normal  1.000000e+00  0.000000e+00  0.000000e+00
   outer loop
     vertex -2.275000e+00 -4.750000e-01  4.750000e-01
     vertex -2.275000e+00 -4.750000e-01  2.500000e-02
     vertex -2.275000e+00  4.750000e-01  2.500000e-02
   endloop
 endfacet
 facet normal  1.000000e+00 -0.000000e+00  0.000000e+00
   outer loop
     vertex -2.275000e+00 -4.750000e-01  4.750000e-01
     vertex -2.275000e+00  4.750000e-01  2.500000e-02
     vertex -2.275000e+00  4.750000e-01  4.750000e-01
   endloop
 endfacet
 facet normal -1.000000e+00  0.000000e+00  0.000000e+00
   outer loop
     vertex -2.225000e+00 -4.750000e-01  4.750000e-01
     vertex -2.225000e+00  4.750000e-01  2.500000e-02
     vertex -2.225000e+00 -4.750000e-01  2.500000e-02
   endloop
 endfacet
 facet normal -1.000000e+00  0.000000e+00  0.000000e+00
   outer loop
     vertex -2.225000e+00 -4.750000e-01  4.750000e-01
     vertex -2.225000e+00  4.750000e-01  4.750000e-01
     vertex -2.225000e+00  4.750000e-01  2.500000e-02
   endloop
 endfacet
 facet normal  0.000000e+00 -1.000000e+00 -0.000000e+00
   outer loop
     vertex -2.750000e-01 -4.750000e-01  4.750000e-01
     vertex -2.225000e+00 -4.750000e-01  2.500000e-02
     vertex -2.750000e-01 -4.750000e-01  2.500000e-02
   endloop
 endfacet
 facet normal -0.000000e+00 -1.000000e+00  0.000000e+00
   outer loop
     vertex -2.750000e-01 -4.750000e-01  4.750000e-01
     vertex -2.225000e+00 -4.750000e-01  4.750000e-01
     vertex -2.225000e+00 -4.750000e-01  2.500000e-02
   endloop
 endfacet
 facet normal  0.000000e+00  0.000000e+00  1.000000e+00
   outer loop
     vertex -2.750000e-01  4.750000e-01  4.750000e-01
     vertex -2.225000e+00  4.750000e-01  4.750000e-01
     vertex -2.225000e+00 -4.750000e-01  4.750000e-01
   endloop
 endfacet
 facet normal  0.000000e+00  0.000000e+00  1.000000e+00
   outer loop
     vertex -2.750000e-01  4.750000e-01  4.750000e-01
     vertex -2.225000e+00 -4.750000e-01  4.750000e-01
     vertex -2.750000e-01 -4.750000e-01  4.750000e-01
   endloop
 endfacet
 facet normal  0.000000e+00  1.000000e+00  0.000000e+00
   outer loop
     vertex -2.750000e-01  4.750000e-01  4.750000e-01
     vertex -2.750000e-01  4.750000e-01  2.500000e-02
     vertex -2.225000e+00  4.750000e-01  2.500000e-02
   endloop
 endfacet
 facet normal  0.000000e+00  1.000000e+00  0.000000e+00
   outer loop
     vertex -2.750000e-01  4.750000e-01  4.750000e-01
     vertex -2.225000e+00  4.750000e-01  2.500000e-02
     vertex -2.225000e+00  4.750000e-01  4.750000e-01
   endloop
 endfacet
 facet normal -0.000000e+00  0.000000e+00 -1.000000e+00
   outer loop
     vertex -2.750000e-01  4.750000e-01  2.500000e-02
     vertex -2.225000e+00 -4.750000e-01  2.500000e-02
     vertex -2.225000e+00  4.750000e-01  2.500000e-02
   endloop
 endfacet
 facet normal  0.000000e+00 -0.000000e+00 -1.000000e+00
   outer loop
     vertex -2.750000e-01  4.750000e-01  2.500000e-02
     vertex -2.750000e-01 -4.750000e-01  2.500000e-02
     vertex -2.225000e+00 -4.750000e-01  2.500000e-02
   endloop
 endfacet
 facet normal  1.000000e+00  0.000000e+00  0.000000e+00
   outer loop
     vertex -2.750000e-01 -4.750000e-01  4.750000e-01
     vertex -2.750000e-01 -4.750000e-01  2.500000e-02
     vertex -2.750000e-01  4.750000e-01  2.500000e-02
   endloop
 endfacet
 facet normal  1.000000e+00 -0.000000e+00  0.000000e+00
   outer loop
     vertex -2.750000e-01 -4.750000e-01  4.750000e-01
     vertex -2.750000e-01  4.750000e-01  2.500000e-02
     vertex -2.750000e-01  4.750000e-01  4.750000e-01
   endloop
 endfacet
 facet normal -1.000000e+00  0.000000e+00  0.000000e+00
   outer loop
     vertex -2.250000e-01 -4.750000e-01  4.750000e-01
     vertex -2.250000e-01  4.750000e-01  2.500000e-02
     vertex -2.250000e-01 -4.750000e-01  2.500000e-02
   endloop
 endfacet
 facet normal -1.000000e+00  0.000000e+00  0.000000e+00
   outer loop
     vertex -2.250000e-01 -4.750000e-01  4.750000e-01
     vertex -2.250000e-01  4.750000e-01  4.750000e-01
     vertex -2.250000e-01  4.750000e-01  2.500000e-02
   endloop
 endfacet
 facet normal  0.000000e+00 -1.000000e+00 -0.000000e+00
   outer loop
     vertex  1.725000e+00 -4.750000e-01  4.750000e-01
     vertex -2.250000e-01 -4.750000e-01  2.500000e-02
     vertex  1.725000e+00 -4.750000e-01  2.500000e-02
   endloop
 endfacet
 facet normal -0.000000e+00 -1.000000e+00  0.000000e+00
   outer loop
     vertex  1.725000e+00 -4.750000e-01  4.750000e-01
     vertex -2.250000e-01 -4.750000e-01  4.750000e-01
     vertex -2.250000e-01 -4.750000e-01  2.500000e-02
   endloop
 endfacet
 facet normal  0.000000e+00  0.000000e+00  1.000000e+00
   outer loop
     vertex  1.725000e+00  4.750000e-01  4.750000e-01
     vertex -2.250000e-01  4.750000e-01  4.750000e-01
     vertex -2.250000e-01 -4.750000e-01  4.750000e-01
   endloop
 endfacet
 facet normal  0.000000e+00  0.000000e+00  1.000000e+00
   outer loop
     vertex  1.725000e+00  4.750000e-01  4.750000e-01
     vertex -2.250000e-01 -4.750000e-01  4.750000e-01
     vertex  1.725000e+00 -4.750000e-01  4.750000e-01
   endloop
 endfacet
 facet normal  0.000000e+00  1.000000e+00  0.000000e+00
   outer loop
     vertex  1.725000e+00  4.750000e-01  4.750000e-01
     vertex  1.725000e+00  4.750000e-01  2.500000e-02
     vertex -2.250000e-01  4.750000e-01  2.500000e-02
   endloop
 endfacet
 facet normal  0.000000e+00  1.000000e+00  0.000000e+00
   outer loop
     vertex  1.725000e+00  4.750000e-01  4.750000e-01
     vertex -2.250000e-01  4.750000e-01  2.500000e-02
     vertex -2.250000e-01  4.750000e-01  4.750000e-01
   endloop
 endfacet
 facet normal -0.000000e+00  0.000000e+00 -1.000000e+00
   outer loop
     vertex  1.725000e+00  4.750000e-01  2.500000e-02
     vertex -2.250000e-01 -4.750000e-01  2.500000e-02
     vertex -2.250000e-01  4.750000e-01  2.500000e-02
   endloop
 endfacet
 facet normal  0.000000e+00 -0.000000e+00 -1.000000e+00
   outer loop
     vertex  1.725000e+00  4.750000e-01  2.500000e-02
     vertex  1.725000e+00 -4.750000e-01  2.500000e-02
     vertex -2.250000e-01 -4.750000e-01  2.500000e-02
   endloop
 endfacet
 facet normal  1.000000e+00  0.000000e+00  0.000000e+00
   outer loop
     vertex  1.725000e+00 -4.750000e-01  4.750000e-01
     vertex  1.725000e+00 -4.750000e-01  2.500000e-02
     vertex  1.725000e+00  4.750000e-01  2.500000e-02
   endloop
 endfacet
 facet normal  1.000000e+00 -0.000000e+00  0.000000e+00
   outer loop
     vertex  1.725000e+00 -4.750000e-01  4.750000e-01
     vertex  1.725000e+00  4.750000e-01  2.500000e-02
     vertex  1.725000e+00  4.750000e-01  4.750000e-01
   endloop
 endfacet
 facet normal -1.000000e+00  0.000000e+00  0.000000e+00
   outer loop
     vertex  1.775000e+00 -4.750000e-01  4.750000e-01
     vertex  1.775000e+00  4.750000e-01  2.500000e-02
     vertex  1.775000e+00 -4.750000e-01  2.500000e-02
   endloop
 endfacet
 facet normal -1.000000e+00  0.000000e+00  0.000000e+00
   outer loop
     vertex  1.775000e+00 -4.750000e-01  4.750000e-01
     vertex  1.775000e+00  4.750000e-01  4.750000e-01
     vertex  1.775000e+00  4.750000e-01  2.500000e-02
   endloop
 endfacet
 facet normal  0.000000e+00 -1.000000e+00 -0.000000e+00
   outer loop
     vertex  3.725000e+00 -4.750000e-01  4.750000e-01
     vertex  1.775000e+00 -4.750000e-01  2.500000e-02
     vertex  3.725000e+00 -4.750000e-01  2.500000e-02
   endloop
 endfacet
 facet normal -0.000000e+00 -1.000000e+00  0.000000e+00
   outer loop
     vertex  3.725000e+00 -4.750000e-01  4.750000e-01
     vertex  1.775000e+00 -4.750000e-01  4.750000e-01
     vertex  1.775000e+00 -4.750000e-01  2.500000e-02
   endloop
 endfacet
 facet normal  0.000000e+00  0.000000e+00  1.000000e+00
   outer loop
     vertex  3.725000e+00  4.750000e-01  4.750000e-01
     vertex  1.775000e+00  4.750000e-01  4.750000e-01
     vertex  1.775000e+00 -4.750000e-01  4.750000e-01
   endloop
 endfacet
 facet normal  0.000000e+00  0.000000e+00  1.000000e+00
   outer loop
     vertex  3.725000e+00  4.750000e-01  4.750000e-01
     vertex  1.775000e+00 -4.750000e-01  4.750000e-01
     vertex  3.725000e+00 -4.750000e-01  4.750000e-01
   endloop
 endfacet
 facet normal  0.000000e+00  1.000000e+00  0.000000e+00
   outer loop
     vertex  3.725000e+00  4.750000e-01  4.750000e-01
     vertex  3.725000e+00  4.750000e-01  2.500000e-02
     vertex  1.775000e+00  4.750000e-01  2.500000e-02
   endloop
 endfacet
 facet normal  0.000000e+00  1.000000e+00  0.000000e+00
   outer loop
     vertex  3.725000e+00  4.750000e-01  4.750000e-01
     vertex  1.775000e+00  4.750000e-01  2.500000e-02
     vertex  1.775000e+00  4.750000e-01  4.750000e-01
   endloop
 endfacet
 facet normal -0.000000e+00  0.000000e+00 -1.000000e+00
   outer loop
     vertex  3.725000e+00  4.750000e-01  2.500000e-02
     vertex  1.775000e+00 -4.750000e-01  2.500000e-02
     vertex  1.775000e+00  4.750000e-01  2.500000e-02
   endloop
 endfacet
 facet normal  0.000000e+00 -0.000000e+00 -1.000000e+00
   outer loop
     vertex  3.725000e+00  4.750000e-01  2.500000e-02
     vertex  3.725000e+00 -4.750000e-01  2.500000e-02
     vertex  1.775000e+00 -4.750000e-01  2.500000e-02
   endloop
 endfacet
 facet normal  1.000000e+00  0.000000e+00  0.000000e+00
   outer loop
     vertex  3.725000e+00 -4.750000e-01  4.750000e-01
     vertex  3.725000e+00 -4.750000e-01  2.500000e-02
     vertex  3.725000e+00  4.750000e-01  2.500000e-02
   endloop
 endfacet
 facet normal  1.000000e+00 -0.000000e+00  0.000000e+00
   outer loop
     vertex  3.725000e+00 -4.750000e-01  4.750000e-01
     vertex  3.725000e+00  4.750000e-01  2.500000e-02
     vertex  3.725000e+00  4.750000e-01  4.750000e-01
   endloop
 endfacet
 facet normal -1.000000e+00  0.000000e+00  0.000000e+00
   outer loop
     vertex -3.725000e+00 -4.750000e-01  9.750000e-01
     vertex -3.725000e+00  4.750000e-01  5.250000e-01
     vertex -3.725000e+00 -4.750000e-01  5.250000e-01
   endloop
 endfacet
 facet normal -1.000000e+00  0.000000e+00  0.000000e+00
   outer loop
     vertex -3.725000e+00 -4.750000e-01  9.750000e-01
     vertex -3.725000e+00  4.750000e-01  9.750000e-01
     vertex -3.725000e+00  4.750000e-01  5.250000e-01
   endloop
 endfacet
 facet normal  0.000000e+00 -1.000000e+00 -0.000000e+00
   outer loop
     vertex -1.775000e+00 -4.750000e-01  9.750000e-01
     vertex -3.725000e+00 -4.750000e-01  5.250000e-01
     vertex -1.775000e+00 -4.750000e-01  5.250000e-01
   endloop
 endfacet
 facet normal -0.000000e+00 -1.000000e+00  0.000000e+00
   outer loop
     vertex -1.775000e+00 -4.750000e-01  9.750000e-01
     vertex -3.725000e+00 -4.750000e-01  9.750000e-01
     vertex -3.725000e+00 -4.750000e-01  5.250000e-01
   endloop
 endfacet
 facet normal  0.000000e+00  0.000000e+00  1.000000e+00
   outer loop
     vertex -1.775000e+00  4.750000e-01  9.750000e-01
     vertex -3.725000e+00  4.750000e-01  9.750000e-01
     vertex -3.725000e+00 -4.750000e-01  9.750000e-01
   endloop
 endfacet
 facet normal  0.000000e+00  0.000000e+00  1.000000e+00
   outer loop
     vertex -1.775000e+00  4.750000e-01  9.750000e-01
     vertex -3.725000e+00 -4.750000e-01  9.750000e-01
     vertex -1.775000e+00 -4.750000e-01  9.750000e-01
   endloop
 endfacet
 facet normal  0.000000e+00  1.000000e+00  0.000000e+00
   outer loop
     vertex -1.775000e+00  4.750000e-01  9.750000e-01
     vertex -1.775000e+00  4.750000e-01  5.250000e-01
     vertex -3.725000e+00  4.750000e-01  5.250000e-01
   endloop
 endfacet
 facet normal  0.000000e+00  1.000000e+00  0.000000e+00
   outer loop
     vertex -1.775000e+00  4.750000e-01  9.750000e-01
     vertex -3.725000e+00  4.750000e-01  5.250000e-01
     vertex -3.725000e+00  4.750000e-01  9.750000e-01
   endloop
 endfacet
 facet normal -0.000000e+00  0.000000e+00 -1.000000e+00
   outer loop
     vertex -1.775000e+00  4.750000e-01  5.250000e-01
     vertex -3.725000e+00 -4.750000e-01  5.250000e-01
     vertex -3.725000e+00  4.750000e-01  5.250000e-01
   endloop
 endfacet
 facet normal  0.000000e+00 -0.000000e+00 -1.000000e+00
   outer loop
     vertex -1.775000e+00  4.750000e-01  5.250000e-01
     vertex -1.775000e+00 -4.750000e-01  5.250000e-01
     vertex -3.725000e+00 -4.750000e-01  5.250000e-01
   endloop
 endfacet
 facet normal  1.000000e+00  0.000000e+00  0.000000e+00
   outer loop
     vertex -1.775000e+00 -4.750000e-01  9.750000e-01
     vertex -1.775000e+00 -4.750000e-01  5.250000e-01
     vertex -1.775000e+00  4.750000e-01  5.250000e-01
   endloop
 endfacet
 facet normal  1.000000e+00 -0.000000e+00  0.000000e+00
   outer loop
     vertex -1.775000e+00 -4.750000e-01  9.750000e-01
     vertex -1.775000e+00  4.750000e-01  5.250000e-01
     vertex -1.775000e+00  4.750000e-01  9.750000e-01
   endloop
 endfacet
 facet normal -1.000000e+00  0.000000e+00  0.000000e+00
   outer loop
     vertex -1.725000e+00 -4.750000e-01  9.750000e-01
     vertex -1.725000e+00  4.750000e-01  5.250000e-01
     vertex -1.725000e+00 -4.750000e-01  5.250000e-01
   endloop
 endfacet
 facet normal -1.000000e+00  0.000000e+00  0.000000e+00
   outer loop
     vertex -1.725000e+00 -4.750000e-01  9.750000e-01
     vertex -1.725000e+00  4.750000e-01  9.750000e-01
     vertex -1.725000e+00  4.750000e-01  5.250000e-01
   endloop
 endfacet
 facet normal  0.000000e+00 -1.000000e+00 -0.000000e+00
   outer loop
     vertex  2.250000e-01 -4.750000e-01  9.750000e-01
     vertex -1.725000e+00 -4.750000e-01  5.250000e-01
     vertex  2.250000e-01 -4.750000e-01  5.250000e-01
   endloop
 endfacet
 facet normal -0.000000e+00 -1.000000e+00  0.000000e+00
   outer loop
     vertex  2.250000e-01 -4.750000e-01  9.750000e-01
     vertex -1.725000e+00 -4.750000e-01  9.750000e-01
     vertex -1.725000e+00 -4.750000e-01  5.250000e-01
   endloop
 endfacet
 facet normal  0.000000e+00  0.000000e+00  1.000000e+00
   outer loop
     vertex  2.250000e-01  4.750000e-01  9.750000e-01
     vertex -1.725000e+00  4.750000e-01  9.750000e-01
     vertex -1.725000e+00 -4.750000e-01  9.750000e-01
   endloop
 endfacet
 facet normal  0.000000e+00  0.000000e+00  1.000000e+00
   outer loop
     vertex  2.250000e-01  4.750000e-01  9.750000e-01
     vertex -1.725000e+00 -4.750000e-01  9.750000e-01
     vertex  2.250000e-01 -4.750000e-01  9.750000e-01
   endloop
 endfacet
 facet normal  0.000000e+00  1.000000e+00  0.000000e+00
   outer loop
     vertex  2.250000e-01  4.750000e-01  9.750000e-01
     vertex  2.250000e-01  4.750000e-01  5.250000e-01
     vertex -1.725000e+00  4.750000e-01  5.250000e-01
   endloop
 endfacet
 facet normal  0.000000e+00  1.000000e+00  0.000000e+00
   outer loop
     vertex  2.250000e-01  4.750000e-01  9.750000e-01
     vertex -1.725000e+00  4.750000e-01  5.250000e-01
     vertex -1.725000e+00  4.750000e-01  9.750000e-01
   endloop
 endfacet
 facet normal -0.000000e+00  0.000000e+00 -1.000000e+00
   outer loop
     vertex  2.250000e-01  4.750000e-01  5.250000e-01
     vertex -1.725000e+00 -4.750000e-01  5.250000e-01
     vertex -1.725000e+00  4.750000e-01  5.250000e-01
   endloop
 endfacet
 facet normal  0.000000e+00 -0.000000e+00 -1.000000e+00
   outer loop
     vertex  2.250000e-01  4.750000e-01  5.250000e-01
     vertex  2.250000e-01 -4.750000e-01  5.250000e-01
     vertex -1.725000e+00 -4.750000e-01  5.250000e-01
   endloop
 endfacet
 facet normal  1.000000e+00  0.000000e+00  0.000000e+00
   outer loop
     vertex  2.250000e-01 -4.750000e-01  9.750000e-01
     vertex  2.250000e-01 -4.750000e-01  5.250000e-01
     vertex  2.250000e-01  4.750000e-01  5.250000e-01
   endloop
 endfacet
 facet normal  1.000000e+00 -0.000000e+00  0.000000e+00
   outer loop
     vertex  2.250000e-01 -4.750000e-01  9.750000e-01
     vertex  2.250000e-01  4.750000e-01  5.250000e-01
     vertex  2.250000e-01  4.750000e-01  9.750000e-01
   endloop
 endfacet
 facet normal -1.000000e+00  0.000000e+00  0.000000e+00
   outer loop
     vertex  2.750000e-01 -4.750000e-01  9.750000e-01
     vertex  2.750000e-01  4.750000e-01  5.250000e-01
     vertex  2.750000e-01 -4.750000e-01  5.250000e-01
   endloop
 endfacet
 facet normal -1.000000e+00  0.000000e+00  0.000000e+00
   outer loop
     vertex  2.750000e-01 -4.750000e-01  9.750000e-01
     vertex  2.750000e-01  4.750000e-01  9.750000e-01
     vertex  2.750000e-01  4.750000e-01  5.250000e-01
   endloop
 endfacet
 facet normal  0.000000e+00 -1.000000e+00 -0.000000e+00
   outer loop
     vertex  2.225000e+00 -4.750000e-01  9.750000e-01
     vertex  2.750000e-01 -4.750000e-01  5.250000e-01
     vertex  2.225000e+00 -4.750000e-01  5.250000e-01
   endloop
 endfacet
 facet normal -0.000000e+00 -1.000000e+00  0.000000e+00
   outer loop
     vertex  2.225000e+00 -4.750000e-01  9.750000e-01
     vertex  2.750000e-01 -4.750000e-01  9.750000e-01
     vertex  2.750000e-01 -4.750000e-01  5.250000e-01
   endloop
 endfacet
 facet normal  0.000000e+00  0.000000e+00  1.000000e+00
   outer loop
     vertex  2.225000e+00  4.750000e-01  9.750000e-01
     vertex  2.750000e-01  4.750000e-01  9.750000e-01
     vertex  2.750000e-01 -4.750000e-01  9.750000e-01
   endloop
 endfacet
 facet normal  0.000000e+00  0.000000e+00  1.000000e+00
   outer loop
     vertex  2.225000e+00  4.750000e-01  9.750000e-01
     vertex  2.750000e-01 -4.750000e-01  9.750000e-01
     vertex  2.225000e+00 -4.750000e-01  9.750000e-01
   endloop
 endfacet
 facet normal  0.000000e+00  1.000000e+00  0.000000e+00
   outer loop
     vertex  2.225000e+00  4.750000e-01  9.750000e-01
     vertex  2.225000e+00  4.750000e-01  5.250000e-01
     vertex  2.750000e-01  4.750000e-01  5.250000e-01
   endloop
 endfacet
 facet normal  0.000000e+00  1.000000e+00  0.000000e+00
   outer loop
     vertex  2.225000e+00  4.750000e-01  9.750000e-01
     vertex  2.750000e-01  4.750000e-01  5.250000e-01
     vertex  2.750000e-01  4.750000e-01  9.750000e-01
   endloop
 endfacet
 facet normal -0.000000e+00  0.000000e+00 -1.000000e+00
   outer loop
     vertex  2.225000e+00  4.750000e-01  5.250000e-01
     vertex  2.750000e-01 -4.750000e-01  5.250000e-01
     vertex  2.750000e-01  4.750000e-01  5.250000e-01
   endloop
 endfacet
 facet normal  0.000000e+00 -0.000000e+00 -1.000000e+00
   outer loop
     vertex  2.225000e+00  4.750000e-01  5.250000e-01
     vertex  2.225000e+00 -4.750000e-01  5.250000e-01
     vertex  2.750000e-01 -4.750000e-01  5.250000e-01
   endloop
 endfacet
 facet normal  1.000000e+00  0.000000e+00  0.000000e+00
   outer loop
     vertex  2.225000e+00 -4.750000e-01  9.750000e-01
     vertex  2.225000e+00 -4.750000e-01  5.250000e-01
     vertex  2.225000e+00  4.750000e-01  5.250000e-01
   endloop
 endfacet
 facet normal  1.000000e+00 -0.000000e+00  0.000000e+00
   outer loop
     vertex  2.225000e+00 -4.750000e-01  9.750000e-01
     vertex  2.225000e+00  4.750000e-01  5.250000e-01
     vertex  2.225000e+00  4.750000e-01  9.750000e-01
   endloop
 endfacet
 facet normal -1.000000e+00  0.000000e+00  0.000000e+00
   outer loop
     vertex  2.275000e+00 -4.750000e-01  9.750000e-01
     vertex  2.275000e+00  4.750000e-01  5.250000e-01
     vertex  2.275000e+00 -4.750000e-01  5.250000e-01
   endloop
 endfacet
 facet normal -1.000000e+00  0.000000e+00  0.000000e+00
   outer loop
     vertex  2.275000e+00 -4.750000e-01  9.750000e-01
     vertex  2.275000e+00  4.750000e-01  9.750000e-01
     vertex  2.275000e+00  4.750000e-01  5.250000e-01
   endloop
 endfacet
 facet normal  0.000000e+00 -1.000000e+00 -0.000000e+00
   outer loop
     vertex  4.225000e+00 -4.750000e-01  9.750000e-01
     vertex  2.275000e+00 -4.750000e-01  5.250000e-01
     vertex  4.225000e+00 -4.750000e-01  5.250000e-01
   endloop
 endfacet
 facet normal -0.000000e+00 -1.000000e+00  0.000000e+00
   outer loop
     vertex  4.225000e+00 -4.750000e-01  9.750000e-01
     vertex  2.275000e+00 -4.750000e-01  9.750000e-01
     vertex  2.275000e+00 -4.750000e-01  5.250000e-01
   endloop
 endfacet
 facet normal  0.000000e+00  0.000000e+00  1.000000e+00
   outer loop
     vertex  4.225000e+00  4.750000e-01  9.750000e-01
     vertex  2.275000e+00  4.750000e-01  9.750000e-01
     vertex  2.275000e+00 -4.750000e-01  9.750000e-01
   endloop
 endfacet
 facet normal  0.000000e+00  0.000000e+00  1.000000e+00
   outer loop
     vertex  4.225000e+00  4.750000e-01  9.750000e-01
     vertex  2.275000e+00 -4.750000e-01  9.750000e-01
     vertex  4.225000e+00 -4.750000e-01  9.750000e-01
   endloop
 endfacet
 facet normal  0.000000e+00  1.000000e+00  0.000000e+00
   outer loop
     vertex  4.225000e+00  4.750000e-01  9.750000e-01
     vertex  4.225000e+00  4.750000e-01  5.250000e-01
     vertex  2.275000e+00  4.750000e-01  5.250000e-01
   endloop
 endfacet
 facet normal  0.000000e+00  1.000000e+00  0.000000e+00
   outer loop
     vertex  4.225000e+00  4.750000e-01  9.750000e-01
     vertex  2.275000e+00  4.750000e-01  5.250000e-01
     vertex  2.275000e+00  4.750000e-01  9.750000e-01
   endloop
 endfacet
 facet normal -0.000000e+00  0.000000e+00 -1.000000e+00
   outer loop
     vertex  4.225000e+00  4.750000e-01  5.250000e-01
     vertex  2.275000e+00 -4.750000e-01  5.250000e-01
     vertex  2.275000e+00  4.750000e-01  5.250000e-01
   endloop
 endfacet
 facet normal  0.000000e+00 -0.000000e+00 -1.000000e+00
   outer loop
     vertex  4.225000e+00  4.750000e-01  5.250000e-01
     vertex  4.225000e+00 -4.750000e-01  5.250000e-01
     vertex  2.275000e+00 -4.750000e-01  5.250000e-01
   endloop
 endfacet
 facet normal  1.000000e+00  0.000000e+00  0.000000e+00
   outer loop
     vertex  4.225000e+00 -4.750000e-01  9.750000e-01
     vertex  4.225000e+00 -4.750000e-01  5.250000e-01
     vertex  4.225000e+00  4.750000e-01  5.250000e-01
   endloop
 endfacet
 facet normal  1.000000e+00 -0.000000e+00  0.000000e+00
   outer loop
     vertex  4.225000e+00 -4.750000e-01  9.750000e-01
     vertex  4.225000e+00  4.750000e-01  5.250000e-01
     vertex  4.225000e+00  4.750000e-01  9.750000e-01
   endloop
 endfacet
 facet normal -1.000000e+00  0.000000e+00  0.000000e+00
   outer loop
     vertex -4.225000e+00 -4.750000e-01  1.475000e+00
     vertex -4.225000e+00  4.750000e-01  1.025000e+00
     vertex -4.225000e+00 -4.750000e-01  1.025000e+00
   endloop
 endfacet
 facet normal -1.000000e+00  0.000000e+00  0.000000e+00
   outer loop
     vertex -4.225000e+00 -4.750000e-01  1.475000e+00
     vertex -4.225000e+00  4.750000e-01  1.475000e+00
     vertex -4.225000e+00  4.750000e-01  1.025000e+00
   endloop
 endfacet
 facet normal  0.000000e+00 -1.000000e+00 -0.000000e+00
   outer loop
     vertex -2.275000e+00 -4.750000e-01  1.475000e+00
     vertex -4.225000e+00 -4.750000e-01  1.025000e+00
     vertex -2.275000e+00 -4.750000e-01  1.025000e+00
   endloop
 endfacet
 facet normal -0.000000e+00 -1.000000e+00  0.000000e+00
   outer loop
     vertex -2.275000e+00 -4.750000e-01  1.475000e+00
     vertex -4.225000e+00 -4.750000e-01  1.475000e+00
     vertex -4.225000e+00 -4.750000e-01  1.025000e+00
   endloop
 endfacet
 facet normal  0.000000e+00  0.000000e+00  1.000000e+00
   outer loop
     vertex -2.275000e+00  4.750000e-01  1.475000e+00
     vertex -4.225000e+00  4.750000e-01  1.475000e+00
     vertex -4.225000e+00 -4.750000e-01  1.475000e+00
   endloop
 endfacet
 facet normal  0.000000e+00  0.000000e+00  1.000000e+00
   outer loop
     vertex -2.275000e+00  4.750000e-01  1.475000e+00
     vertex -4.225000e+00 -4.750000e-01  1.475000e+00
     vertex -2.275000e+00 -4.750000e-01  1.475000e+00
   endloop
 endfacet
 facet normal  0.000000e+00  1.000000e+00  0.000000e+00
   outer loop
     vertex -2.275000e+00  4.750000e-01  1.475000e+00
     vertex -2.275000e+00  4.750000e-01  1.025000e+00
     vertex -4.225000e+00  4.750000e-01  1.025000e+00
   endloop
 endfacet
 facet normal  0.000000e+00  1.000000e+00  0.000000e+00
   outer loop
     vertex -2.275000e+00  4.750000e-01  1.475000e+00
     vertex -4.225000e+00  4.750000e-01  1.025000e+00
     vertex -4.225000e+00  4.750000e-01  1.475000e+00
   endloop
 endfacet
 facet normal -0.000000e+00  0.000000e+00 -1.000000e+00
   outer loop
     vertex -2.275000e+00  4.750000e-01  1.025000e+00
     vertex -4.225000e+00 -4.750000e-01  1.025000e+00
     vertex -4.225000e+00  4.750000e-01  1.025000e+00
   endloop
 endfacet
 facet normal  0.000000e+00 -0.000000e+00 -1.000000e+00
   outer loop
     vertex -2.275000e+00  4.750000e-01  1.025000e+00
     vertex -2.275000e+00 -4.750000e-01  1.025000e+00
     vertex -4.225000e+00 -4.750000e-01  1.025000e+00
   endloop
 endfacet
 facet normal  1.000000e+00  0.000000e+00  0.000000e+00
   outer loop
     vertex -2.275000e+00 -4.750000e-01  1.475000e+00
     vertex -2.275000e+00 -4.750000e-01  1.025000e+00
     vertex -2.275000e+00  4.750000e-01  1.025000e+00
   endloop
 endfacet
 facet normal  1.000000e+00 -0.000000e+00  0.000000e+00
   outer loop
     vertex -2.275000e+00 -4.750000e-01  1.475000e+00
     vertex -2.275000e+00  4.750000e-01  1.025000e+00
     vertex -2.275000e+00  4.750000e-01  1.475000e+00
   endloop
 endfacet
 facet normal -1.000000e+00  0.000000e+00  0.000000e+00
   outer loop
     vertex -2.225000e+00 -4.750000e-01  1.475000e+00
     vertex -2.225000e+00  4.750000e-01  1.025000e+00
     vertex -2.225000e+00 -4.750000e-01  1.025000e+00
   endloop
 endfacet
 facet normal -1.000000e+00  0.000000e+00  0.000000e+00
   outer loop
     vertex -2.225000e+00 -4.750000e-01  1.475000e+00
     vertex -2.225000e+00  4.750000e-01  1.475000e+00
     vertex -2.225000e+00  4.750000e-01  1.025000e+00
   endloop
 endfacet
 facet normal  0.000000e+00 -1.000000e+00 -0.000000e+00
   outer loop
     vertex -2.750000e-01 -4.750000e-01  1.475000e+00
     vertex -2.225000e+00 -4.750000e-01  1.025000e+00
     vertex -2.750000e-01 -4.750000e-01  1.025000e+00
   endloop
 endfacet
 facet normal -0.000000e+00 -1.000000e+00  0.000000e+00
   outer loop
     vertex -2.750000e-01 -4.750000e-01  1.475000e+00
     vertex -2.225000e+00 -4.750000e-01  1.475000e+00
     vertex -2.225000e+00 -4.750000e-01  1.025000e+00
   endloop
 endfacet
 facet normal  0.000000e+00  0.000000e+00  1.000000e+00
   outer loop
     vertex -2.750000e-01  4.750000e-01  1.475000e+00
     vertex -2.225000e+00  4.750000e-01  1.475000e+00
     vertex -2.225000e+00 -4.750000e-01  1.475000e+00
   endloop
 endfacet
 facet normal  0.000000e+00  0.000000e+00  1.000000e+00
   outer loop
     vertex -2.750000e-01  4.750000e-01  1.475000e+00
     vertex -2.225000e+00 -4.750000e-01  1.475000e+00
     vertex -2.750000e-01 -4.750000e-01  1.475000e+00
   endloop
 endfacet
 facet normal  0.000000e+00  1.000000e+00  0.000000e+00
   outer loop
     vertex -2.750000e-01  4.750000e-01  1.475000e+00
     vertex -2.750000e-01  4.750000e-01  1.025000e+00
     vertex -2.225000e+00  4.750000e-01  1.025000e+00
   endloop
 endfacet
 facet normal  0.000000e+00  1.000000e+00  0.000000e+00
   outer loop
     vertex -2.750000e-01  4.750000e-01  1.475000e+00
     vertex -2.225000e+00  4.750000e-01  1.025000e+00
     vertex -2.225000e+00  4.750000e-01  1.475000e+00
   endloop
 endfacet
 facet normal -0.000000e+00  0.000000e+00 -1.000000e+00
   outer loop
     vertex -2.750000e-01  4.750000e-01  1.025000e+00
     vertex -2.225000e+00 -4.750000e-01  1.025000e+00
     vertex -2.225000e+00  4.750000e-01  1.025000e+00
   endloop
 endfacet
 facet normal  0.000000e+00 -0.000000e+00 -1.000000e+00
   outer loop
     vertex -2.750000e-01  4.750000e-01  1.025000e+00
     vertex -2.750000e-01 -4.750000e-01  1.025000e+00
     vertex -2.225000e+00 -4.750000e-01  1.025000e+00
   endloop
 endfacet
 facet normal  1.000000e+00  0.000000e+00  0.000000e+00
   outer loop
     vertex -2.750000e-01 -4.750000e-01  1.475000e+00
     vertex -2.750000e-01 -4.750000e-01  1.025000e+00
     vertex -2.750000e-01  4.750000e-01  1.025000e+00
   endloop
 endfacet
 facet normal  1.000000e+00 -0.000000e+00  0.000000e+00
   outer loop
     vertex -2.750000e-01 -4.750000e-01  1.475000e+00
     vertex -2.750000e-01  4.750000e-01  1.025000e+00
     vertex -2.750000e-01  4.750000e-01  1.475000e+00
   endloop
 endfacet
 facet normal -1.000000e+00  0.000000e+00  0.000000e+00
   outer loop
     vertex -2.250000e-01 -4.750000e-01  1.475000e+00
     vertex -2.250000e-01  4.750000e-01  1.025000e+00
     vertex -2.250000e-01 -4.750000e-01  1.025000e+00
   endloop
 endfacet
 facet normal -1.000000e+00  0.000000e+00  0.000000e+00
   outer loop
     vertex -2.250000e-01 -4.750000e-01  1.475000e+00
     vertex -2.250000e-01  4.750000e-01  1.475000e+00
     vertex -2.250000e-01  4.750000e-01  1.025000e+00
   endloop
 endfacet
 facet normal  0.000000e+00 -1.000000e+00 -0.000000e+00
   outer loop
     vertex  1.725000e+00 -4.750000e-01  1.475000e+00
     vertex -2.250000e-01 -4.750000e-01  1.025000e+00
     vertex  1.725000e+00 -4.750000e-01  1.025000e+00
   endloop
 endfacet
 facet normal -0.000000e+00 -1.000000e+00  0.000000e+00
   outer loop
     vertex  1.725000e+00 -4.750000e-01  1.475000e+00
     vertex -2.250000e-01 -4.750000e-01  1.475000e+00
     vertex -2.250000e-01 -4.750000e-01  1.025000e+00
   endloop
 endfacet
 facet normal  0.000000e+00  0.000000e+00  1.000000e+00
   outer loop
     vertex  1.725000e+00  4.750000e-01  1.475000e+00
     vertex -2.250000e-01  4.750000e-01  1.475000e+00
     vertex -2.250000e-01 -4.750000e-01  1.475000e+00
   endloop
 endfacet
 facet normal  0.000000e+00  0.000000e+00  1.000000e+00
   outer loop
     vertex  1.725000e+00  4.750000e-01  1.475000e+00
     vertex -2.250000e-01 -4.750000e-01  1.475000e+00
     vertex  1.725000e+00 -4.750000e-01  1.475000e+00
   endloop
 endfacet
 facet normal  0.000000e+00  1.000000e+00  0.000000e+00
   outer loop
     vertex  1.725000e+00  4.750000e-01  1.475000e+00
     vertex  1.725000e+00  4.750000e-01  1.025000e+00
     vertex -2.250000e-01  4.750000e-01  1.025000e+00
   endloop
 endfacet
 facet normal  0.000000e+00  1.000000e+00  0.000000e+00
   outer loop
     vertex  1.725000e+00  4.750000e-01  1.475000e+00
     vertex -2.250000e-01  4.750000e-01  1.025000e+00
     vertex -2.250000e-01  4.750000e-01  1.475000e+00
   endloop
 endfacet
 facet normal -0.000000e+00  0.000000e+00 -1.000000e+00
   outer loop
     vertex  1.725000e+00  4.750000e-01  1.025000e+00
     vertex -2.250000e-01 -4.750000e-01  1.025000e+00
     vertex -2.250000e-01  4.750000e-01  1.025000e+00
   endloop
 endfacet
 facet normal  0.000000e+00 -0.000000e+00 -1.000000e+00
   outer loop
     vertex  1.725000e+00  4.750000e-01  1.025000e+00
     vertex  1.725000e+00 -4.750000e-01  1.025000e+00
     vertex -2.250000e-01 -4.750000e-01  1.025000e+00
   endloop
 endfacet
 facet normal  1.000000e+00  0.000000e+00  0.000000e+00
   outer loop
     vertex  1.725000e+00 -4.750000e-01  1.475000e+00
     vertex  1.725000e+00 -4.750000e-01  1.025000e+00
     vertex  1.725000e+00  4.750000e-01  1.025000e+00
   endloop
 endfacet
 facet normal  1.000000e+00 -0.000000e+00  0.000000e+00
   outer loop
     vertex  1.725000e+00 -4.750000e-01  1.475000e+00
     vertex  1.725000e+00  4.750000e-01  1.025000e+00
     vertex  1.725000e+00  4.750000e-01  1.475000e+00
   endloop
 endfacet
 facet normal -1.000000e+00  0.000000e+00  0.000000e+00
   outer loop
     vertex  1.775000e+00 -4.750000e-01  1.475000e+00
     vertex  1.775000e+00  4.750000e-01  1.025000e+00
     vertex  1.775000e+00 -4.750000e-01  1.025000e+00
   endloop
 endfacet
 facet normal -1.000000e+00  0.000000e+00  0.000000e+00
   outer loop
     vertex  1.775000e+00 -4.750000e-01  1.475000e+00
     vertex  1.775000e+00  4.750000e-01  1.475000e+00
     vertex  1.775000e+00  4.750000e-01  1.025000e+00
   endloop
 endfacet
 facet normal  0.000000e+00 -1.000000e+00 -0.000000e+00
   outer loop
     vertex  3.725000e+00 -4.750000e-01  1.475000e+00
     vertex  1.775000e+00 -4.750000e-01  1.025000e+00
     vertex  3.725000e+00 -4.750000e-01  1.025000e+00
   endloop
 endfacet
 facet normal -0.000000e+00 -1.000000e+00  0.000000e+00
   outer loop
     vertex  3.725000e+00 -4.750000e-01  1.475000e+00
     vertex  1.775000e+00 -4.750000e-01  1.475000e+00
     vertex  1.775000e+00 -4.750000e-01  1.025000e+00
   endloop
 endfacet
 facet normal  0.000000e+00  0.000000e+00  1.000000e+00
   outer loop
     vertex  3.725000e+00  4.750000e-01  1.475000e+00
     vertex  1.775000e+00  4.750000e-01  1.475000e+00
     vertex  1.775000e+00 -4.750000e-01  1.475000e+00
   endloop
 endfacet
 facet normal  0.000000e+00  0.000000e+00  1.000000e+00
   outer loop
     vertex  3.725000e+00  4.750000e-01  1.475000e+00
     vertex  1.775000e+00 -4.750000e-01  1.475000e+00
     vertex  3.725000e+00 -4.750000e-01  1.475000e+00
   endloop
 endfacet
 facet normal  0.000000e+00  1.000000e+00  0.000000e+00
   outer loop
     vertex  3.725000e+00  4.750000e-01  1.475000e+00
     vertex  3.725000e+00  4.750000e-01  1.025000e+00
     vertex  1.775000e+00  4.750000e-01  1.025000e+00
   endloop
 endfacet
 facet normal  0.000000e+00  1.000000e+00  0.000000e+00
   outer loop
     vertex  3.725000e+00  4.750000e-01  1.475000e+00
     vertex  1.775000e+00  4.750000e-01  1.025000e+00
     vertex  1.775000e+00  4.750000e-01  1.475000e+00
   endloop
 endfacet
 facet normal -0.000000e+00  0.000000e+00 -1.000000e+00
   outer loop
     vertex  3.725000e+00  4.750000e-01  1.025000e+00
     vertex  1.775000e+00 -4.750000e-01  1.025000e+00
     vertex  1.775000e+00  4.750000e-01  1.025000e+00
   endloop
 endfacet
 facet normal  0.000000e+00 -0.000000e+00 -1.000000e+00
   outer loop
     vertex  3.725000e+00  4.750000e-01  1.025000e+00
     vertex  3.725000e+00 -4.750000e-01  1.025000e+00
     vertex  1.775000e+00 -4.750000e-01  1.025000e+00
   endloop
 endfacet
 facet normal  1.000000e+00  0.000000e+00  0.000000e+00
   outer loop
     vertex  3.725000e+00 -4.750000e-01  1.475000e+00
     vertex  3.725000e+00 -4.750000e-01  1.025000e+00
     vertex  3.725000e+00  4.750000e-01  1.025000e+00
   endloop
 endfacet
 facet normal  1.000000e+00 -0.000000e+00  0.000000e+00
   outer loop
     vertex  3.725000e+00 -4.750000e-01  1.475000e+00
     vertex  3.725000e+00  4.750000e-01  1.025000e+00
     vertex  3.725000e+00  4.750000e-01  1.475000e+00
   endloop
 endfacet
 facet normal -1.000000e+00  0.000000e+00  0.000000e+00
   outer loop
     vertex -3.725000e+00 -4.750000e-01  1.975000e+00
     vertex -3.725000e+00  4.750000e-01  1.525000e+00
     vertex -3.725000e+00 -4.750000e-01  1.525000e+00
   endloop
 endfacet
 facet normal -1.000000e+00  0.000000e+00  0.000000e+00
   outer loop
     vertex -3.725000e+00 -4.750000e-01  1.975000e+00
     vertex -3.725000e+00  4.750000e-01  1.975000e+00
     vertex -3.725000e+00  4.750000e-01  1.525000e+00
   endloop
 endfacet
 facet normal  0.000000e+00 -1.000000e+00 -0.000000e+00
   outer loop
     vertex -1.775000e+00 -4.750000e-01  1.975000e+00
     vertex -3.725000e+00 -4.750000e-01  1.525000e+00
     vertex -1.775000e+00 -4.750000e-01  1.525000e+00
   endloop
 endfacet
 facet normal -0.000000e+00 -1.000000e+00  0.000000e+00
   outer loop
     vertex -1.775000e+00 -4.750000e-01  1.975000e+00
     vertex -3.725000e+00 -4.750000e-01  1.975000e+00
     vertex -3.725000e+00 -4.750000e-01  1.525000e+00
   endloop
 endfacet
 facet normal  0.000000e+00  0.000000e+00  1.000000e+00
   outer loop
     vertex -1.775000e+00  4.750000e-01  1.975000e+00
     vertex -3.725000e+00  4.750000e-01  1.975000e+00
     vertex -3.725000e+00 -4.750000e-01  1.975000e+00
   endloop
 endfacet
 facet normal  0.000000e+00  0.000000e+00  1.000000e+00
   outer loop
     vertex -1.775000e+00  4.750000e-01  1.975000e+00
     vertex -3.725000e+00 -4.750000e-01  1.975000e+00
     vertex -1.775000e+00 -4.750000e-01  1.975000e+00
   endloop
 endfacet
 facet normal  0.000000e+00  1.000000e+00  0.000000e+00
   outer loop
     vertex -1.775000e+00  4.750000e-01  1.975000e+00
     vertex -1.775000e+00  4.750000e-01  1.525000e+00
     vertex -3.725000e+00  4.750000e-01  1.525000e+00
   endloop
 endfacet
 facet normal  0.000000e+00  1.000000e+00  0.000000e+00
   outer loop
     vertex -1.775000e+00  4.750000e-01  1.975000e+00
     vertex -3.725000e+00  4.750000e-01  1.525000e+00
     vertex -3.725000e+00  4.750000e-01  1.975000e+00
   endloop
 endfacet
 facet normal -0.000000e+00  0.000000e+00 -1.000000e+00
   outer loop
     vertex -1.775000e+00  4.750000e-01  1.525000e+00
     vertex -3.725000e+00 -4.750000e-01  1.525000e+00
     vertex -3.725000e+00  4.750000e-01  1.525000e+00
   endloop
 endfacet
 facet normal  0.000000e+00 -0.000000e+00 -1.000000e+00
   outer loop
     vertex -1.775000e+00  4.750000e-01  1.525000e+00
     vertex -1.775000e+00 -4.750000e-01  1.525000e+00
     vertex -3.725000e+00 -4.750000e-01  1.525000e+00
   endloop
 endfacet
 facet normal  1.000000e+00  0.000000e+00  0.000000e+00
   outer loop
     vertex -1.775000e+00 -4.750000e-01  1.975000e+00
     vertex -1.775000e+00 -4.750000e-01  1.525000e+00
     vertex -1.775000e+00  4.750000e-01  1.525000e+00
   endloop
 endfacet
 facet normal  1.000000e+00 -0.000000e+00  0.000000e+00
   outer loop
     vertex -1.775000e+00 -4.750000e-01  1.975000e+00
     vertex -1.775000e+00  4.750000e-01  1.525000e+00
     vertex -1.775000e+00  4.750000e-01  1.975000e+00
   endloop
 endfacet
 facet normal -1.000000e+00  0.000000e+00  0.000000e+00
   outer loop
     vertex -1.725000e+00 -4.750000e-01  1.975000e+00
     vertex -1.725000e+00  4.750000e-01  1.525000e+00
     vertex -1.725000e+00 -4.750000e-01  1.525000e+00
   endloop
 endfacet
 facet normal -1.000000e+00  0.000000e+00  0.000000e+00
   outer loop
     vertex -1.725000e+00 -4.750000e-01  1.975000e+00
     vertex -1.725000e+00  4.750000e-01  1.975000e+00
     vertex -1.725000e+00  4.750000e-01  1.525000e+00
   endloop
 endfacet
 facet normal  0.000000e+00 -1.000000e+00 -0.000000e+00
   outer loop
     vertex  2.250000e-01 -4.750000e-01  1.975000e+00
     vertex -1.725000e+00 -4.750000e-01  1.525000e+00
     vertex  2.250000e-01 -4.750000e-01  1.525000e+00
   endloop
 endfacet
 facet normal -0.000000e+00 -1.000000e+00  0.000000e+00
   outer loop
     vertex  2.250000e-01 -4.750000e-01  1.975000e+00
     vertex -1.725000e+00 -4.750000e-01  1.975000e+00
     vertex -1.725000e+00 -4.750000e-01  1.525000e+00
   endloop
 endfacet
 facet normal  0.000000e+00  0.000000e+00  1.000000e+00
   outer loop
     vertex  2.250000e-01  4.750000e-01  1.975000e+00
     vertex -1.725000e+00  4.750000e-01  1.975000e+00
     vertex -1.725000e+00 -4.750000e-01  1.975000e+00
   endloop
 endfacet
 facet normal  0.000000e+00  0.000000e+00  1.000000e+00
   outer loop
     vertex  2.250000e-01  4.750000e-01  1.975000e+00
     vertex -1.725000e+00 -4.750000e-01  1.975000e+00
     vertex  2.250000e-01 -4.750000e-01  1.975000e+00
   endloop
 endfacet
 facet normal  0.000000e+00  1.000000e+00  0.000000e+00
   outer loop
     vertex  2.250000e-01  4.750000e-01  1.975000e+00
     vertex  2.250000e-01  4.750000e-01  1.525000e+00
     vertex -1.725000e+00  4.750000e-01  1.525000e+00
   endloop
 endfacet
 facet normal  0.000000e+00  1.000000e+00  0.000000e+00
   outer loop
     vertex  2.250000e-01  4.750000e-01  1.975000e+00
     vertex -1.725000e+00  4.750000e-01  1.525000e+00
     vertex -1.725000e+00  4.750000e-01  1.975000e+00
   endloop
 endfacet
 facet normal -0.000000e+00  0.000000e+00 -1.000000e+00
   outer loop
     vertex  2.250000e-01  4.750000e-01  1.525000e+00
     vertex -1.725000e+00 -4.750000e-01  1.525000e+00
     vertex -1.725000e+00  4.750000e-01  1.525000e+00
   endloop
 endfacet
 facet normal  0.000000e+00 -0.000000e+00 -1.000000e+00
   outer loop
     vertex  2.250000e-01  4.750000e-01  1.525000e+00
     vertex  2.250000e-01 -4.750000e-01  1.525000e+00
     vertex -1.725000e+00 -4.750000e-01  1.525000e+00
   endloop
 endfacet
 facet normal  1.000000e+00  0.000000e+00  0.000000e+00
   outer loop
     vertex  2.250000e-01 -4.750000e-01  1.975000e+00
     vertex  2.250000e-01 -4.750000e-01  1.525000e+00
     vertex  2.250000e-01  4.750000e-01  1.525000e+00
   endloop
 endfacet
 facet normal  1.000000e+00 -0.000000e+00  0.000000e+00
   outer loop
     vertex  2.250000e-01 -4.750000e-01  1.975000e+00
     vertex  2.250000e-01  4.750000e-01  1.525000e+00
     vertex  2.250000e-01  4.750000e-01  1.975000e+00
   endloop
 endfacet
 facet normal -1.000000e+00  0.000000e+00  0.000000e+00
   outer loop
     vertex  2.750000e-01 -4.750000e-01  1.975000e+00
     vertex  2.750000e-01  4.750000e-01  1.525000e+00
     vertex  2.750000e-01 -4.750000e-01  1.525000e+00
   endloop
 endfacet
 facet normal -1.000000e+00  0.000000e+00  0.000000e+00
   outer loop
     vertex  2.750000e-01 -4.750000e-01  1.975000e+00
     vertex  2.750000e-01  4.750000e-01  1.975000e+00
     vertex  2.750000e-01  4.750000e-01  1.525000e+00
   endloop
 endfacet
 facet normal  0.000000e+00 -1.000000e+00 -0.000000e+00
   outer loop
     vertex  2.225000e+00 -4.750000e-01  1.975000e+00
     vertex  2.750000e-01 -4.750000e-01  1.525000e+00
     vertex  2.225000e+00 -4.750000e-01  1.525000e+00
   endloop
 endfacet
 facet normal -0.000000e+00 -1.000000e+00  0.000000e+00
   outer loop
     vertex  2.225000e+00 -4.750000e-01  1.975000e+00
     vertex  2.750000e-01 -4.750000e-01  1.975000e+00
     vertex  2.750000e-01 -4.750000e-01  1.525000e+00
   endloop
 endfacet
 facet normal  0.000000e+00  0.000000e+00  1.000000e+00
   outer loop
     vertex  2.225000e+00  4.750000e-01  1.975000e+00
     vertex  2.750000e-01  4.750000e-01  1.975000e+00
     vertex  2.750000e-01 -4.750000e-01  1.975000e+00
   endloop
 endfacet
 facet normal  0.000000e+00  0.000000e+00  1.000000e+00
   outer loop
     vertex  2.225000e+00  4.750000e-01  1.975000e+00
     vertex  2.750000e-01 -4.750000e-01  1.975000e+00
     vertex  2.225000e+00 -4.750000e-01  1.975000e+00
   endloop
 endfacet
 facet normal  0.000000e+00  1.000000e+00  0.000000e+00
   outer loop
     vertex  2.225000e+00  4.750000e-01  1.975000e+00
     vertex  2.225000e+00  4.750000e-01  1.525000e+00
     vertex  2.750000e-01  4.750000e-01  1.525000e+00
   endloop
 endfacet
 facet normal  0.000000e+00  1.000000e+00  0.000000e+00
   outer loop
     vertex  2.225000e+00  4.750000e-01  1.975000e+00
     vertex  2.750000e-01  4.750000e-01  1.525000e+00
     vertex  2.750000e-01  4.750000e-01  1.975000e+00
   endloop
 endfacet
 facet normal -0.000000e+00  0.000000e+00 -1.000000e+00
   outer loop
     vertex  2.225000e+00  4.750000e-01  1.525000e+00
     vertex  2.750000e-01 -4.750000e-01  1.525000e+00
     vertex  2.750000e-01  4.750000e-01  1.525000e+00
   endloop
 endfacet
 facet normal  0.000000e+00 -0.000000e+00 -1.000000e+00
   outer loop
     vertex  2.225000e+00  4.750000e-01  1.525000e+00
     vertex  2.225000e+00 -4.750000e-01  1.525000e+00
     vertex  2.750000e-01 -4.750000e-01  1.525000e+00
   endloop
 endfacet
 facet normal  1.000000e+00  0.000000e+00  0.000000e+00
   outer loop
     vertex  2.225000e+00 -4.750000e-01  1.975000e+00
     vertex  2.225000e+00 -4.750000e-01  1.525000e+00
     vertex  2.225000e+00  4.750000e-01  1.525000e+00
   endloop
 endfacet
 facet normal  1.000000e+00 -0.000000e+00  0.000000e+00
   outer loop
     vertex  2.225000e+00 -4.750000e-01  1.975000e+00
     vertex  2.225000e+00  4.750000e-01  1.525000e+00
     vertex  2.225000e+00  4.750000e-01  1.975000e+00
   endloop
 endfacet
 facet normal -1.000000e+00  0.000000e+00  0.000000e+00
   outer loop
     vertex  2.275000e+00 -4.750000e-01  1.975000e+00
     vertex  2.275000e+00  4.750000e-01  1.525000e+00
     vertex  2.275000e+00 -4.750000e-01  1.525000e+00
   endloop
 endfacet
 facet normal -1.000000e+00  0.000000e+00  0.000000e+00
   outer loop
     vertex  2.275000e+00 -4.750000e-01  1.975000e+00
     vertex  2.275000e+00  4.750000e-01  1.975000e+00
     vertex  2.275000e+00  4.750000e-01  1.525000e+00
   endloop
 endfacet
 facet normal  0.000000e+00 -1.000000e+00 -0.000000e+00
   outer loop
     vertex  4.225000e+00 -4.750000e-01  1.975000e+00
     vertex  2.275000e+00 -4.750000e-01  1.525000e+00
     vertex  4.225000e+00 -4.750000e-01  1.525000e+00
   endloop
 endfacet
 facet normal -0.000000e+00 -1.000000e+00  0.000000e+00
   outer loop
     vertex  4.225000e+00 -4.750000e-01  1.975000e+00
     vertex  2.275000e+00 -4.750000e-01  1.975000e+00
     vertex  2.275000e+00 -4.750000e-01  1.525000e+00
   endloop
 endfacet
 facet normal  0.000000e+00  0.000000e+00  1.000000e+00
   outer loop
     vertex  4.225000e+00  4.750000e-01  1.975000e+00
     vertex  2.275000e+00  4.750000e-01  1.975000e+00
     vertex  2.275000e+00 -4.750000e-01  1.975000e+00
   endloop
 endfacet
 facet normal  0.000000e+00  0.000000e+00  1.000000e+00
   outer loop
     vertex  4.225000e+00  4.750000e-01  1.975000e+00
     vertex  2.275000e+00 -4.750000e-01  1.975000e+00
     vertex  4.225000e+00 -4.750000e-01  1.975000e+00
   endloop
 endfacet
 facet normal  0.000000e+00  1.000000e+00  0.000000e+00
   outer loop
     vertex  4.225000e+00  4.750000e-01  1.975000e+00
     vertex  4.225000e+00  4.750000e-01  1.525000e+00
     vertex  2.275000e+00  4.750000e-01  1.525000e+00
   endloop
 endfacet
 facet normal  0.000000e+00  1.000000e+00  0.000000e+00
   outer loop
     vertex  4.225000e+00  4.750000e-01  1.975000e+00
     vertex  2.275000e+00  4.750000e-01  1.525000e+00
     vertex  2.275000e+00  4.750000e-01  1.975000e+00
   endloop
 endfacet
 facet normal -0.000000e+00  0.000000e+00 -1.000000e+00
   outer loop
     vertex  4.225000e+00  4.750000e-01  1.525000e+00
     vertex  2.275000e+00 -4.750000e-01  1.525000e+00
     vertex  2.275000e+00  4.750000e-01  1.525000e+00
   endloop
 endfacet
 facet normal  0.000000e+00 -0.000000e+00 -1.000000e+00
   outer loop
     vertex  4.225000e+00  4.750000e-01  1.525000e+00
     vertex  4.225000e+00 -4.750000e-01  1.525000e+00
     vertex  2.275000e+00 -4.750000e-01  1.525000e+00
   endloop
 endfacet
 facet normal  1.000000e+00  0.000000e+00  0.000000e+00
   outer loop
     vertex  4.225000e+00 -4.750000e-01  1.975000e+00
     vertex  4.225000e+00 -4.750000e-01  1.525000e+00
     vertex  4.225000e+00  4.750000e-01  1.525000e+00
   endloop
 endfacet
 facet normal  1.000000e+00 -0.000000e+00  0.000000e+00
   outer loop
     vertex  4.225000e+00 -4.750000e-01  1.975000e+00
     vertex  4.225000e+00  4.750000e-01  1.525000e+00
     vertex  4.225000e+00  4.750000e-01  1.975000e+00
   endloop
 endfacet
 facet normal -1.000000e+00  0.000000e+00  0.000000e+00
   outer loop
     vertex -4.225000e+00 -4.750000e-01  2.475000e+00
     vertex -4.225000e+00  4.750000e-01  2.025000e+00
     vertex -4.225000e+00 -4.750000e-01  2.025000e+00
   endloop
 endfacet
 facet normal -1.000000e+00  0.000000e+00  0.000000e+00
   outer loop
     vertex -4.225000e+00 -4.750000e-01  2.475000e+00
     vertex -4.225000e+00  4.750000e-01  2.475000e+00
     vertex -4.225000e+00  4.750000e-01  2.025000e+00
   endloop
 endfacet
 facet normal  0.000000e+00 -1.000000e+00 -0.000000e+00
   outer loop
     vertex -2.275000e+00 -4.750000e-01  2.475000e+00
     vertex -4.225000e+00 -4.750000e-01  2.025000e+00
     vertex -2.275000e+00 -4.750000e-01  2.025000e+00
   endloop
 endfacet
 facet normal -0.000000e+00 -1.000000e+00  0.000000e+00
   outer loop
     vertex -2.275000e+00 -4.750000e-01  2.475000e+00
     vertex -4.225000e+00 -4.750000e-01  2.475000e+00
     vertex -4.225000e+00 -4.750000e-01  2.025000e+00
   endloop
 endfacet
 facet normal  0.000000e+00  0.000000e+00  1.000000e+00
   outer loop
     vertex -2.275000e+00  4.750000e-01  2.475000e+00
     vertex -4.225000e+00  4.750000e-01  2.475000e+00
     vertex -4.225000e+00 -4.750000e-01  2.475000e+00
   endloop
 endfacet
 facet normal  0.000000e+00  0.000000e+00  1.000000e+00
   outer loop
     vertex -2.275000e+00  4.750000e-01  2.475000e+00
     vertex -4.225000e+00 -4.750000e-01  2.475000e+00
     vertex -2.275000e+00 -4.750000e-01  2.475000e+00
   endloop
 endfacet
 facet normal  0.000000e+00  1.000000e+00  0.000000e+00
   outer loop
     vertex -2.275000e+00  4.750000e-01  2.475000e+00
     vertex -2.275000e+00  4.750000e-01  2.025000e+00
     vertex -4.225000e+00  4.750000e-01  2.025000e+00
   endloop
 endfacet
 facet normal  0.000000e+00  1.000000e+00  0.000000e+00
   outer loop
     vertex -2.275000e+00  4.750000e-01  2.475000e+00
     vertex -4.225000e+00  4.750000e-01  2.025000e+00
     vertex -4.225000e+00  4.750000e-01  2.475000e+00
   endloop
 endfacet
 facet normal -0.000000e+00  0.000000e+00 -1.000000e+00
   outer loop
     vertex -2.275000e+00  4.750000e-01  2.025000e+00
     vertex -4.225000e+00 -4.750000e-01  2.025000e+00
     vertex -4.225000e+00  4.750000e-01  2.025000e+00
   endloop
 endfacet
 facet normal  0.000000e+00 -0.000000e+00 -1.000000e+00
   outer loop
     vertex -2.275000e+00  4.750000e-01  2.025000e+00
     vertex -2.275000e+00 -4.750000e-01  2.025000e+00
     vertex -4.225000e+00 -4.750000e-01  2.025000e+00
   endloop
 endfacet
 facet normal  1.000000e+00  0.000000e+00  0.000000e+00
   outer loop
     vertex -2.275000e+00 -4.750000e-01  2.475000e+00
     vertex -2.275000e+00 -4.750000e-01  2.025000e+00
     vertex -2.275000e+00  4.750000e-01  2.025000e+00
   endloop
 endfacet
 facet normal  1.000000e+00 -0.000000e+00  0.000000e+00
   outer loop
     vertex -2.275000e+00 -4.750000e-01  2.475000e+00
     vertex -2.275000e+00  4.750000e-01  2.025000e+00
     vertex -2.275000e+00  4.750000e-01  2.475000e+00
   endloop
 endfacet
 facet normal -1.000000e+00  0.000000e+00  0.000000e+00
   outer loop
     vertex -2.225000e+00 -4.750000e-01  2.475000e+00
     vertex -2.225000e+00  4.750000e-01  2.025000e+00
     vertex -2.225000e+00 -4.750000e-01  2.025000e+00
   endloop
 endfacet
 facet normal -1.000000e+00  0.000000e+00  0.000000e+00
   outer loop
     vertex -2.225000e+00 -4.750000e-01  2.475000e+00
     vertex -2.225000e+00  4.750000e-01  2.475000e+00
     vertex -2.225000e+00  4.750000e-01  2.025000e+00
   endloop
 endfacet
 facet normal  0.000000e+00 -1.000000e+00 -0.000000e+00
   outer loop
     vertex -2.750000e-01 -4.750000e-01  2.475000e+00
     vertex -2.225000e+00 -4.750000e-01  2.025000e+00
     vertex -2.750000e-01 -4.750000e-01  2.025000e+00
   endloop
 endfacet
 facet normal -0.000000e+00 -1.000000e+00  0.000000e+00
   outer loop
     vertex -2.750000e-01 -4.750000e-01  2.475000e+00
     vertex -2.225000e+00 -4.750000e-01  2.475000e+00
     vertex -2.225000e+00 -4.750000e-01  2.025000e+00
   endloop
 endfacet
 facet normal  0.000000e+00  0.000000e+00  1.000000e+00
   outer loop
     vertex -2.750000e-01  4.750000e-01  2.475000e+00
     vertex -2.225000e+00  4.750000e-01  2.475000e+00
     vertex -2.225000e+00 -4.750000e-01  2.475000e+00
   endloop
 endfacet
 facet normal  0.000000e+00  0.000000e+00  1.000000e+00
   outer loop
     vertex -2.750000e-01  4.750000e-01  2.475000e+00
     vertex -2.225000e+00 -4.750000e-01  2.475000e+00
     vertex -2.750000e-01 -4.750000e-01  2.475000e+00
   endloop
 endfacet
 facet normal  0.000000e+00  1.000000e+00  0.000000e+00
   outer loop
     vertex -2.750000e-01  4.750000e-01  2.475000e+00
     vertex -2.750000e-01  4.750000e-01  2.025000e+00
     vertex -2.225000e+00  4.750000e-01  2.025000e+00
   endloop
 endfacet
 facet normal  0.000000e+00  1.000000e+00  0.000000e+00
   outer loop
     vertex -2.750000e-01  4.750000e-01  2.475000e+00
     vertex -2.225000e+00  4.750000e-01  2.025000e+00
     vertex -2.225000e+00  4.750000e-01  2.475000e+00
   endloop
 endfacet
 facet normal -0.000000e+00  0.000000e+00 -1.000000e+00
   outer loop
     vertex -2.750000e-01  4.750000e-01  2.025000e+00
     vertex -2.225000e+00 -4.750000e-01  2.025000e+00
     vertex -2.225000e+00  4.750000e-01  2.025000e+00
   endloop
 endfacet
 facet normal  0.000000e+00 -0.000000e+00 -1.000000e+00
   outer loop
     vertex -2.750000e-01  4.750000e-01  2.025000e+00
     vertex -2.750000e-01 -4.750000e-01  2.025000e+00
     vertex -2.225000e+00 -4.750000e-01  2.025000e+00
   endloop
 endfacet
 facet normal  1.000000e+00  0.000000e+00  0.000000e+00
   outer loop
     vertex -2.750000e-01 -4.750000e-01  2.475000e+00
     vertex -2.750000e-01 -4.750000e-01  2.025000e+00
     vertex -2.750000e-01  4.750000e-01  2.025000e+00
   endloop
 endfacet
 facet normal  1.000000e+00 -0.000000e+00  0.000000e+00
   outer loop
     vertex -2.750000e-01 -4.750000e-01  2.475000e+00
     vertex -2.750000e-01  4.750000e-01  2.025000e+00
     vertex -2.750000e-01  4.750000e-01  2.475000e+00
   endloop
 endfacet
 facet normal -1.000000e+00  0.000000e+00  0.000000e+00
   outer loop
     vertex -2.250000e-01 -4.750000e-01  2.475000e+00
     vertex -2.250000e-01  4.750000e-01  2.025000e+00
     vertex -2.250000e-01 -4.750000e-01  2.025000e+00
   endloop
 endfacet
 facet normal -1.000000e+00  0.000000e+00  0.000000e+00
   outer loop
     vertex -2.250000e-01 -4.750000e-01  2.475000e+00
     vertex -2.250000e-01  4.750000e-01  2.475000e+00
     vertex -2.250000e-01  4.750000e-01  2.025000e+00
   endloop
 endfacet
 facet normal  0.000000e+00 -1.000000e+00 -0.000000e+00
   outer loop
     vertex  1.725000e+00 -4.750000e-01  2.475000e+00
     vertex -2.250000e-01 -4.750000e-01  2.025000e+00
     vertex  1.725000e+00 -4.750000e-01  2.025000e+00
   endloop
 endfacet
 facet normal -0.000000e+00 -1.000000e+00  0.000000e+00
   outer loop
     vertex  1.725000e+00 -4.750000e-01  2.475000e+00
     vertex -2.250000e-01 -4.750000e-01  2.475000e+00
     vertex -2.250000e-01 -4.750000e-01  2.025000e+00
   endloop
 endfacet
 facet normal  0.000000e+00  0.000000e+00  1.000000e+00
   outer loop
     vertex  1.725000e+00  4.750000e-01  2.475000e+00
     vertex -2.250000e-01  4.750000e-01  2.475000e+00
     vertex -2.250000e-01 -4.750000e-01  2.475000e+00
   endloop
 endfacet
 facet normal  0.000000e+00  0.000000e+00  1.000000e+00
   outer loop
     vertex  1.725000e+00  4.750000e-01  2.475000e+00
     vertex -2.250000e-01 -4.750000e-01  2.475000e+00
     vertex  1.725000e+00 -4.750000e-01  2.475000e+00
   endloop
 endfacet
 facet normal  0.000000e+00  1.000000e+00  0.000000e+00
   outer loop
     vertex  1.725000e+00  4.750000e-01  2.475000e+00
     vertex  1.725000e+00  4.750000e-01  2.025000e+00
     vertex -2.250000e-01  4.750000e-01  2.025000e+00
   endloop
 endfacet
 facet normal  0.000000e+00  1.000000e+00  0.000000e+00
   outer loop
     vertex  1.725000e+00  4.750000e-01  2.475000e+00
     vertex -2.250000e-01  4.750000e-01  2.025000e+00
     vertex -2.250000e-01  4.750000e-01  2.475000e+00
   endloop
 endfacet
 facet normal -0.000000e+00  0.000000e+00 -1.000000e+00
   outer loop
     vertex  1.725000e+00  4.750000e-01  2.025000e+00
     vertex -2.250000e-01 -4.750000e-01  2.025000e+00
     vertex -2.250000e-01  4.750000e-01  2.025000e+00
   endloop
 endfacet
 facet normal  0.000000e+00 -0.000000e+00 -1.000000e+00
   outer loop
     vertex  1.725000e+00  4.750000e-01  2.025000e+00
     vertex  1.725000e+00 -4.750000e-01  2.025000e+00
     vertex -2.250000e-01 -4.750000e-01  2.025000e+00
   endloop
 endfacet
 facet normal  1.000000e+00  0.000000e+00  0.000000e+00
   outer loop
     vertex  1.725000e+00 -4.750000e-01  2.475000e+00
     vertex  1.725000e+00 -4.750000e-01  2.025000e+00
     vertex  1.725000e+00  4.750000e-01  2.025000e+00
   endloop
 endfacet
 facet normal  1.000000e+00 -0.000000e+00  0.000000e+00
   outer loop
     vertex  1.725000e+00 -4.750000e-01  2.475000e+00
     vertex  1.725000e+00  4.750000e-01  2.025000e+00
     vertex  1.725000e+00  4.750000e-01  2.475000e+00
   endloop
 endfacet
 facet normal -1.000000e+00  0.000000e+00  0.000000e+00
   outer loop
     vertex  1.775000e+00 -4.750000e-01  2.475000e+00
     vertex  1.775000e+00  4.750000e-01  2.025000e+00
     vertex  1.775000e+00 -4.750000e-01  2.025000e+00
   endloop
 endfacet
 facet normal -1.000000e+00  0.000000e+00  0.000000e+00
   outer loop
     vertex  1.775000e+00 -4.750000e-01  2.475000e+00
     vertex  1.775000e+00  4.750000e-01  2.475000e+00
     vertex  1.775000e+00  4.750000e-01  2.025000e+00
   endloop
 endfacet
 facet normal  0.000000e+00 -1.000000e+00 -0.000000e+00
   outer loop
     vertex  3.725000e+00 -4.750000e-01  2.475000e+00
     vertex  1.775000e+00 -4.750000e-01  2.025000e+00
     vertex  3.725000e+00 -4.750000e-01  2.025000e+00
   endloop
 endfacet
 facet normal -0.000000e+00 -1.000000e+00  0.000000e+00
   outer loop
     vertex  3.725000e+00 -4.750000e-01  2.475000e+00
     vertex  1.775000e+00 -4.750000e-01  2.475000e+00
     vertex  1.775000e+00 -4.750000e-01  2.025000e+00
   endloop
 endfacet
 facet normal  0.000000e+00  0.000000e+00  1.000000e+00
   outer loop
     vertex  3.725000e+00  4.750000e-01  2.475000e+00
     vertex  1.775000e+00  4.750000e-01  2.475000e+00
     vertex  1.775000e+00 -4.750000e-01  2.475000e+00
   endloop
 endfacet
 facet normal  0.000000e+00  0.000000e+00  1.000000e+00
   outer loop
     vertex  3.725000e+00  4.750000e-01  2.475000e+00
     vertex  1.775000e+00 -4.750000e-01  2.475000e+00
     vertex  3.725000e+00 -4.750000e-01  2.475000e+00
   endloop
 endfacet
 facet normal  0.000000e+00  1.000000e+00  0.000000e+00
   outer loop
     vertex  3.725000e+00  4.750000e-01  2.475000e+00
     vertex  3.725000e+00  4.750000e-01  2.025000e+00
     vertex  1.775000e+00  4.750000e-01  2.025000e+00
   endloop
 endfacet
 facet normal  0.000000e+00  1.000000e+00  0.000000e+00
   outer loop
     vertex  3.725000e+00  4.750000e-01  2.475000e+00
     vertex  1.775000e+00  4.750000e-01  2.025000e+00
     vertex  1.775000e+00  4.750000e-01  2.475000e+00
   endloop
 endfacet
 facet normal -0.000000e+00  0.000000e+00 -1.000000e+00
   outer loop
     vertex  3.725000e+00  4.750000e-01  2.025000e+00
     vertex  1.775000e+00 -4.750000e-01  2.025000e+00
     vertex  1.775000e+00  4.750000e-01  2.025000e+00
   endloop
 endfacet
 facet normal  0.000000e+00 -0.000000e+00 -1.000000e+00
   outer loop
     vertex  3.725000e+00  4.750000e-01  2.025000e+00
     vertex  3.725000e+00 -4.750000e-01  2.025000e+00
     vertex  1.775000e+00 -4.750000e-01  2.025000e+00
   endloop
 endfacet
 facet normal  1.000000e+00  0.000000e+00  0.000000e+00
   outer loop
     vertex  3.725000e+00 -4.750000e-01  2.475000e+00
     vertex  3.725000e+00 -4.750000e-01  2.025000e+00
     vertex  3.725000e+00  4.750000e-01  2.025000e+00
   endloop
 endfacet
 facet normal  1.000000e+00 -0.000000e+00  0.000000e+00
   outer loop
     vertex  3.725000e+00 -4.750000e-01  2.475000e+00
     vertex  3.725000e+00  4.750000e-01  2.025000e+00
     vertex  3.725000e+00  4.750000e-01  2.475000e+00
   endloop
 endfacet
 facet normal -1.000000e+00  0.000000e+00  0.000000e+00
   outer loop
     vertex -3.725000e+00 -4.750000e-01  2.975000e+00
     vertex -3.725000e+00  4.750000e-01  2.525000e+00
     vertex -3.725000e+00 -4.750000e-01  2.525000e+00
   endloop
 endfacet
 facet normal -1.000000e+00  0.000000e+00  0.000000e+00
   outer loop
     vertex -3.725000e+00 -4.750000e-01  2.975000e+00
     vertex -3.725000e+00  4.750000e-01  2.975000e+00
     vertex -3.725000e+00  4.750000e-01  2.525000e+00
   endloop
 endfacet
 facet normal  0.000000e+00 -1.000000e+00 -0.000000e+00
   outer loop
     vertex -1.775000e+00 -4.750000e-01  2.975000e+00
     vertex -3.725000e+00 -4.750000e-01  2.525000e+00
     vertex -1.775000e+00 -4.750000e-01  2.525000e+00
   endloop
 endfacet
 facet normal -0.000000e+00 -1.000000e+00  0.000000e+00
   outer loop
     vertex -1.775000e+00 -4.750000e-01  2.975000e+00
     vertex -3.725000e+00 -4.750000e-01  2.975000e+00
     vertex -3.725000e+00 -4.750000e-01  2.525000e+00
   endloop
 endfacet
 facet normal  0.000000e+00  0.000000e+00  1.000000e+00
   outer loop
     vertex -1.775000e+00  4.750000e-01  2.975000e+00
     vertex -3.725000e+00  4.750000e-01  2.975000e+00
     vertex -3.725000e+00 -4.750000e-01  2.975000e+00
   endloop
 endfacet
 facet normal  0.000000e+00  0.000000e+00  1.000000e+00
   outer loop
     vertex -1.775000e+00  4.750000e-01  2.975000e+00
     vertex -3.725000e+00 -4.750000e-01  2.975000e+00
     vertex -1.775000e+00 -4.750000e-01  2.975000e+00
   endloop
 endfacet
 facet normal  0.000000e+00  1.000000e+00  0.000000e+00
   outer loop
     vertex -1.775000e+00  4.750000e-01  2.975000e+00
     vertex -1.775000e+00  4.750000e-01  2.525000e+00
     vertex -3.725000e+00  4.750000e-01  2.525000e+00
   endloop
 endfacet
 facet normal  0.000000e+00  1.000000e+00  0.000000e+00
   outer loop
     vertex -1.775000e+00  4.750000e-01  2.975000e+00
     vertex -3.725000e+00  4.750000e-01  2.525000e+00
     vertex -3.725000e+00  4.750000e-01  2.975000e+00
   endloop
 endfacet
 facet normal -0.000000e+00  0.000000e+00 -1.000000e+00
   outer loop
     vertex -1.775000e+00  4.750000e-01  2.525000e+00
     vertex -3.725000e+00 -4.750000e-01  2.525000e+00
     vertex -3.725000e+00  4.750000e-01  2.525000e+00
   endloop
 endfacet
 facet normal  0.000000e+00 -0.000000e+00 -1.000000e+00
   outer loop
     vertex -1.775000e+00  4.750000e-01  2.525000e+00
     vertex -1.775000e+00 -4.750000e-01  2.525000e+00
     vertex -3.725000e+00 -4.750000e-01  2.525000e+00
   endloop
 endfacet
 facet normal  1.000000e+00  0.000000e+00  0.000000e+00
   outer loop
     vertex -1.775000e+00 -4.750000e-01  2.975000e+00
     vertex -1.775000e+00 -4.750000e-01  2.525000e+00
     vertex -1.775000e+00  4.750000e-01  2.525000e+00
   endloop
 endfacet
 facet normal  1.000000e+00 -0.000000e+00  0.000000e+00
   outer loop
     vertex -1.775000e+00 -4.750000e-01  2.975000e+00
     vertex -1.775000e+00  4.750000e-01  2.525000e+00
     vertex -1.775000e+00  4.750000e-01  2.975000e+00
   endloop
 endfacet
 facet normal -1.000000e+00  0.000000e+00  0.000000e+00
   outer loop
     vertex -1.725000e+00 -4.750000e-01  2.975000e+00
     vertex -1.725000e+00  4.750000e-01  2.525000e+00
     vertex -1.725000e+00 -4.750000e-01  2.525000e+00
   endloop
 endfacet
 facet normal -1.000000e+00  0.000000e+00  0.000000e+00
   outer loop
     vertex -1.725000e+00 -4.750000e-01  2.975000e+00
     vertex -1.725000e+00  4.750000e-01  2.975000e+00
     vertex -1.725000e+00  4.750000e-01  2.525000e+00
   endloop
 endfacet
 facet normal  0.000000e+00 -1.000000e+00 -0.000000e+00
   outer loop
     vertex  2.250000e-01 -4.750000e-01  2.975000e+00
     vertex -1.725000e+00 -4.750000e-01  2.525000e+00
     vertex  2.250000e-01 -4.750000e-01  2.525000e+00
   endloop
 endfacet
 facet normal -0.000000e+00 -1.000000e+00  0.000000e+00
   outer loop
     vertex  2.250000e-01 -4.750000e-01  2.975000e+00
     vertex -1.725000e+00 -4.750000e-01  2.975000e+00
     vertex -1.725000e+00 -4.750000e-01  2.525000e+00
   endloop
 endfacet
 facet normal  0.000000e+00  0.000000e+00  1.000000e+00
   outer loop
     vertex  2.250000e-01  4.750000e-01  2.975000e+00
     vertex -1.725000e+00  4.750000e-01  2.975000e+00
     vertex -1.725000e+00 -4.750000e-01  2.975000e+00
   endloop
 endfacet
 facet normal  0.000000e+00  0.000000e+00  1.000000e+00
   outer loop
     vertex  2.250000e-01  4.750000e-01  2.975000e+00
     vertex -1.725000e+00 -4.750000e-01  2.975000e+00
     vertex  2.250000e-01 -4.750000e-01  2.975000e+00
   endloop
 endfacet
 facet normal  0.000000e+00  1.000000e+00  0.000000e+00
   outer loop
     vertex  2.250000e-01  4.750000e-01  2.975000e+00
     vertex  2.250000e-01  4.750000e-01  2.525000e+00
     vertex -1.725000e+00  4.750000e-01  2.525000e+00
   endloop
 endfacet
 facet normal  0.000000e+00  1.000000e+00  0.000000e+00
   outer loop
     vertex  2.250000e-01  4.750000e-01  2.975000e+00
     vertex -1.725000e+00  4.750000e-01  2.525000e+00
     vertex -1.725000e+00  4.750000e-01  2.975000e+00
   endloop
 endfacet
 facet normal -0.000000e+00  0.000000e+00 -1.000000e+00
   outer loop
     vertex  2.250000e-01  4.750000e-01  2.525000e+00
     vertex -1.725000e+00 -4.750000e-01  2.525000e+00
     vertex -1.725000e+00  4.750000e-01  2.525000e+00
   endloop
 endfacet
 facet normal  0.000000e+00 -0.000000e+00 -1.000000e+00
   outer loop
     vertex  2.250000e-01  4.750000e-01  2.525000e+00
     vertex  2.250000e-01 -4.750000e-01  2.525000e+00
     vertex -1.725000e+00 -4.750000e-01  2.525000e+00
   endloop
 endfacet
 facet normal  1.000000e+00  0.000000e+00  0.000000e+00
   outer loop
     vertex  2.250000e-01 -4.750000e-01  2.975000e+00
     vertex  2.250000e-01 -4.750000e-01  2.525000e+00
     vertex  2.250000e-01  4.750000e-01  2.525000e+00
   endloop
 endfacet
 facet normal  1.000000e+00 -0.000000e+00  0.000000e+00
   outer loop
     vertex  2.250000e-01 -4.750000e-01  2.975000e+00
     vertex  2.250000e-01  4.750000e-01  2.525000e+00
     vertex  2.250000e-01  4.750000e-01  2.975000e+00
   endloop
 endfacet
 facet normal -1.000000e+00  0.000000e+00  0.000000e+00
   outer loop
     vertex  2.750000e-01 -4.750000e-01  2.975000e+00
     vertex  2.750000e-01  4.750000e-01  2.525000e+00
     vertex  2.750000e-01 -4.750000e-01  2.525000e+00
   endloop
 endfacet
 facet normal -1.000000e+00  0.000000e+00  0.000000e+00
   outer loop
     vertex  2.750000e-01 -4.750000e-01  2.975000e+00
     vertex  2.750000e-01  4.750000e-01  2.975000e+00
     vertex  2.750000e-01  4.750000e-01  2.525000e+00
   endloop
 endfacet
 facet normal  0.000000e+00 -1.000000e+00 -0.000000e+00
   outer loop
     vertex  2.225000e+00 -4.750000e-01  2.975000e+00
     vertex  2.750000e-01 -4.750000e-01  2.525000e+00
     vertex  2.225000e+00 -4.750000e-01  2.525000e+00
   endloop
 endfacet
 facet normal -0.000000e+00 -1.000000e+00  0.000000e+00
   outer loop
     vertex  2.225000e+00 -4.750000e-01  2.975000e+00
     vertex  2.750000e-01 -4.750000e-01  2.975000e+00
     vertex  2.750000e-01 -4.750000e-01  2.525000e+00
   endloop
 endfacet
 facet normal  0.000000e+00  0.000000e+00  1.000000e+00
   outer loop
     vertex  2.225000e+00  4.750000e-01  2.975000e+00
     vertex  2.750000e-01  4.750000e-01  2.975000e+00
     vertex  2.750000e-01 -4.750000e-01  2.975000e+00
   endloop
 endfacet
 facet normal  0.000000e+00  0.000000e+00  1.000000e+00
   outer loop
     vertex  2.225000e+00  4.750000e-01  2.975000e+00
     vertex  2.750000e-01 -4.750000e-01  2.975000e+00
     vertex  2.225000e+00 -4.750000e-01  2.975000e+00
   endloop
 endfacet
 facet normal  0.000000e+00  1.000000e+00  0.000000e+00
   outer loop
     vertex  2.225000e+00  4.750000e-01  2.975000e+00
     vertex  2.225000e+00  4.750000e-01  2.525000e+00
     vertex  2.750000e-01  4.750000e-01  2.525000e+00
   endloop
 endfacet
 facet normal  0.000000e+00  1.000000e+00  0.000000e+00
   outer loop
     vertex  2.225000e+00  4.750000e-01  2.975000e+00
     vertex  2.750000e-01  4.750000e-01  2.525000e+00
     vertex  2.750000e-01  4.750000e-01  2.975000e+00
   endloop
 endfacet
 facet normal -0.000000e+00  0.000000e+00 -1.000000e+00
   outer loop
     vertex  2.225000e+00  4.750000e-01  2.525000e+00
     vertex  2.750000e-01 -4.750000e-01  2.525000e+00
     vertex  2.750000e-01  4.750000e-01  2.525000e+00
   endloop
 endfacet
 facet normal  0.000000e+00 -0.000000e+00 -1.000000e+00
   outer loop
     vertex  2.225000e+00  4.750000e-01  2.525000e+00
     vertex  2.225000e+00 -4.750000e-01  2.525000e+00
     vertex  2.750000e-01 -4.750000e-01  2.525000e+00
   endloop
 endfacet
 facet normal  1.000000e+00  0.000000e+00  0.000000e+00
   outer loop
     vertex  2.225000e+00 -4.750000e-01  2.975000e+00
     vertex  2.225000e+00 -4.750000e-01  2.525000e+00
     vertex  2.225000e+00  4.750000e-01  2.525000e+00
   endloop
 endfacet
 facet normal  1.000000e+00 -0.000000e+00  0.000000e+00
   outer loop
     vertex  2.225000e+00 -4.750000e-01  2.975000e+00
     vertex  2.225000e+00  4.750000e-01  2.525000e+00
     vertex  2.225000e+00  4.750000e-01  2.975000e+00
   endloop
 endfacet
 facet normal -1.000000e+00  0.000000e+00  0.000000e+00
   outer loop
     vertex  2.275000e+00 -4.750000e-01  2.975000e+00
     vertex  2.275000e+00  4.750000e-01  2.525000e+00
     vertex  2.275000e+00 -4.750000e-01  2.525000e+00
   endloop
 endfacet
 facet normal -1.000000e+00  0.000000e+00  0.000000e+00
   outer loop
     vertex  2.275000e+00 -4.750000e-01  2.975000e+00
     vertex  2.275000e+00  4.750000e-01  2.975000e+00
     vertex  2.275000e+00  4.750000e-01  2.525000e+00
   endloop
 endfacet
 facet normal  0.000000e+00 -1.000000e+00 -0.000000e+00
   outer loop
     vertex  4.225000e+00 -4.750000e-01  2.975000e+00
     vertex  2.275000e+00 -4.750000e-01  2.525000e+00
     vertex  4.225000e+00 -4.750000e-01  2.525000e+00
   endloop
 endfacet
 facet normal -0.000000e+00 -1.000000e+00  0.000000e+00
   outer loop
     vertex  4.225000e+00 -4.750000e-01  2.975000e+00
     vertex  2.275000e+00 -4.750000e-01  2.975000e+00
     vertex  2.275000e+00 -4.750000e-01  2.525000e+00
   endloop
 endfacet
 facet normal  0.000000e+00  0.000000e+00  1.000000e+00
   outer loop
     vertex  4.225000e+00  4.750000e-01  2.975000e+00
     vertex  2.275000e+00  4.750000e-01  2.975000e+00
     vertex  2.275000e+00 -4.750000e-01  2.975000e+00
   endloop
 endfacet
 facet normal  0.000000e+00  0.000000e+00  1.000000e+00
   outer loop
     vertex  4.225000e+00  4.750000e-01  2.975000e+00
     vertex  2.275000e+00 -4.750000e-01  2.975000e+00
     vertex  4.225000e+00 -4.750000e-01  2.975000e+00
   endloop
 endfacet
 facet normal  0.000000e+00  1.000000e+00  0.000000e+00
   outer loop
     vertex  4.225000e+00  4.750000e-01  2.975000e+00
     vertex  4.225000e+00  4.750000e-01  2.525000e+00
     vertex  2.275000e+00  4.750000e-01  2.525000e+00
   endloop
 endfacet
 facet normal  0.000000e+00  1.000000e+00  0.000000e+00
   outer loop
     vertex  4.225000e+00  4.750000e-01  2.975000e+00
     vertex  2.275000e+00  4.750000e-01  2.525000e+00
     vertex  2.275000e+00  4.750000e-01  2.975000e+00
   endloop
 endfacet
 facet normal -0.000000e+00  0.000000e+00 -1.000000e+00
   outer loop
     vertex  4.225000e+00  4.750000e-01  2.525000e+00
     vertex  2.275000e+00 -4.750000e-01  2.525000e+00
     vertex  2.275000e+00  4.750000e-01  2.525000e+00
   endloop
 endfacet
 facet normal  0.000000e+00 -0.000000e+00 -1.000000e+00
   outer loop
     vertex  4.225000e+00  4.750000e-01  2.525000e+00
     vertex  4.225000e+00 -4.750000e-01  2.525000e+00
     vertex  2.275000e+00 -4.750000e-01  2.525000e+00
   endloop
 endfacet
 facet normal  1.000000e+00  0.000000e+00  0.000000e+00
   outer loop
     vertex  4.225000e+00 -4.750000e-01  2.975000e+00
     vertex  4.225000e+00 -4.750000e-01  2.525000e+00
     vertex  4.225000e+00  4.750000e-01  2.525000e+00
   endloop
 endfacet
 facet normal  1.000000e+00 -0.000000e+00  0.000000e+00
   outer loop
     vertex  4.225000e+00 -4.750000e-01  2.975000e+00
     vertex  4.225000e+00  4.750000e-01  2.525000e+00
     vertex  4.225000e+00  4.750000e-01  2.975000e+00
   endloop
 endfacet
 facet normal -1.000000e+00  0.000000e+00  0.000000e+00
   outer loop
     vertex -4.225000e+00 -4.750000e-01  3.475000e+00
     vertex -4.225000e+00  4.750000e-01  3.025000e+00
     vertex -4.225000e+00 -4.750000e-01  3.025000e+00
   endloop
 endfacet
 facet normal -1.000000e+00  0.000000e+00  0.000000e+00
   outer loop
     vertex -4.225000e+00 -4.750000e-01  3.475000e+00
     vertex -4.225000e+00  4.750000e-01  3.475000e+00
     vertex -4.225000e+00  4.750000e-01  3.025000e+00
   endloop
 endfacet
 facet normal  0.000000e+00 -1.000000e+00 -0.000000e+00
   outer loop
     vertex -2.275000e+00 -4.750000e-01  3.475000e+00
     vertex -4.225000e+00 -4.750000e-01  3.025000e+00
     vertex -2.275000e+00 -4.750000e-01  3.025000e+00
   endloop
 endfacet
 facet normal -0.000000e+00 -1.000000e+00  0.000000e+00
   outer loop
     vertex -2.275000e+00 -4.750000e-01  3.475000e+00
     vertex -4.225000e+00 -4.750000e-01  3.475000e+00
     vertex -4.225000e+00 -4.750000e-01  3.025000e+00
   endloop
 endfacet
 facet normal  0.000000e+00  0.000000e+00  1.000000e+00
   outer loop
     vertex -2.275000e+00  4.750000e-01  3.475000e+00
     vertex -4.225000e+00  4.750000e-01  3.475000e+00
     vertex -4.225000e+00 -4.750000e-01  3.475000e+00
   endloop
 endfacet
 facet normal  0.000000e+00  0.000000e+00  1.000000e+00
   outer loop
     vertex -2.275000e+00  4.750000e-01  3.475000e+00
     vertex -4.225000e+00 -4.750000e-01  3.475000e+00
     vertex -2.275000e+00 -4.750000e-01  3.475000e+00
   endloop
 endfacet
 facet normal  0.000000e+00  1.000000e+00  0.000000e+00
   outer loop
     vertex -2.275000e+00  4.750000e-01  3.475000e+00
     vertex -2.275000e+00  4.750000e-01  3.025000e+00
     vertex -4.225000e+00  4.750000e-01  3.025000e+00
   endloop
 endfacet
 facet normal  0.000000e+00  1.000000e+00  0.000000e+00
   outer loop
     vertex -2.275000e+00  4.750000e-01  3.475000e+00
     vertex -4.225000e+00  4.750000e-01  3.025000e+00
     vertex -4.225000e+00  4.750000e-01  3.475000e+00
   endloop
 endfacet
 facet normal -0.000000e+00  0.000000e+00 -1.000000e+00
   outer loop
     vertex -2.275000e+00  4.750000e-01  3.025000e+00
     vertex -4.225000e+00 -4.750000e-01  3.025000e+00
     vertex -4.225000e+00  4.750000e-01  3.025000e+00
   endloop
 endfacet
 facet normal  0.000000e+00 -0.000000e+00 -1.000000e+00
   outer loop
     vertex -2.275000e+00  4.750000e-01  3.025000e+00
     vertex -2.275000e+00 -4.750000e-01  3.025000e+00
     vertex -4.225000e+00 -4.750000e-01  3.025000e+00
   endloop
 endfacet
 facet normal  1.000000e+00  0.000000e+00  0.000000e+00
   outer loop
     vertex -2.275000e+00 -4.750000e-01  3.475000e+00
     vertex -2.275000e+00 -4.750000e-01  3.025000e+00
     vertex -2.275000e+00  4.750000e-01  3.025000e+00
   endloop
 endfacet
 facet normal  1.000000e+00 -0.000000e+00  0.000000e+00
   outer loop
     vertex -2.275000e+00 -4.750000e-01  3.475000e+00
     vertex -2.275000e+00  4.750000e-01  3.025000e+00
     vertex -2.275000e+00  4.750000e-01  3.475000e+00
   endloop
 endfacet
 facet normal -1.000000e+00  0.000000e+00  0.000000e+00
   outer loop
     vertex -2.225000e+00 -4.750000e-01  3.475000e+00
     vertex -2.225000e+00  4.750000e-01  3.025000e+00
     vertex -2.225000e+00 -4.750000e-01  3.025000e+00
   endloop
 endfacet
 facet normal -1.000000e+00  0.000000e+00  0.000000e+00
   outer loop
     vertex -2.225000e+00 -4.750000e-01  3.475000e+00
     vertex -2.225000e+00  4.750000e-01  3.475000e+00
     vertex -2.225000e+00  4.750000e-01  3.025000e+00
   endloop
 endfacet
 facet normal  0.000000e+00 -1.000000e+00 -0.000000e+00
   outer loop
     vertex -2.750000e-01 -4.750000e-01  3.475000e+00
     vertex -2.225000e+00 -4.750000e-01  3.025000e+00
     vertex -2.750000e-01 -4.750000e-01  3.025000e+00
   endloop
 endfacet
 facet normal -0.000000e+00 -1.000000e+00  0.000000e+00
   outer loop
     vertex -2.750000e-01 -4.750000e-01  3.475000e+00
     vertex -2.225000e+00 -4.750000e-01  3.475000e+00
     vertex -2.225000e+00 -4.750000e-01  3.025000e+00
   endloop
 endfacet
 facet normal  0.000000e+00  0.000000e+00  1.000000e+00
   outer loop
     vertex -2.750000e-01  4.750000e-01  3.475000e+00
     vertex -2.225000e+00  4.750000e-01  3.475000e+00
     vertex -2.225000e+00 -4.750000e-01  3.475000e+00
   endloop
 endfacet
 facet normal  0.000000e+00  0.000000e+00  1.000000e+00
   outer loop
     vertex -2.750000e-01  4.750000e-01  3.475000e+00
     vertex -2.225000e+00 -4.750000e-01  3.475000e+00
     vertex -2.750000e-01 -4.750000e-01  3.475000e+00
   endloop
 endfacet
 facet normal  0.000000e+00  1.000000e+00  0.000000e+00
   outer loop
     vertex -2.750000e-01  4.750000e-01  3.475000e+00
     vertex -2.750000e-01  4.750000e-01  3.025000e+00
     vertex -2.225000e+00  4.750000e-01  3.025000e+00
   endloop
 endfacet
 facet normal  0.000000e+00  1.000000e+00  0.000000e+00
   outer loop
     vertex -2.750000e-01  4.750000e-01  3.475000e+00
     vertex -2.225000e+00  4.750000e-01  3.025000e+00
     vertex -2.225000e+00  4.750000e-01  3.475000e+00
   endloop
 endfacet
 facet normal -0.000000e+00  0.000000e+00 -1.000000e+00
   outer loop
     vertex -2.750000e-01  4.750000e-01  3.025000e+00
     vertex -2.225000e+00 -4.750000e-01  3.025000e+00
     vertex -2.225000e+00  4.750000e-01  3.025000e+00
   endloop
 endfacet
 facet normal  0.000000e+00 -0.000000e+00 -1.000000e+00
   outer loop
     vertex -2.750000e-01  4.750000e-01  3.025000e+00
     vertex -2.750000e-01 -4.750000e-01  3.025000e+00
     vertex -2.225000e+00 -4.750000e-01  3.025000e+00
   endloop
 endfacet
 facet normal  1.000000e+00  0.000000e+00  0.000000e+00
   outer loop
     vertex -2.750000e-01 -4.750000e-01  3.475000e+00
     vertex -2.750000e-01 -4.750000e-01  3.025000e+00
     vertex -2.750000e-01  4.750000e-01  3.025000e+00
   endloop
 endfacet
 facet normal  1.000000e+00 -0.000000e+00  0.000000e+00
   outer loop
     vertex -2.750000e-01 -4.750000e-01  3.475000e+00
     vertex -2.750000e-01  4.750000e-01  3.025000e+00
     vertex -2.750000e-01  4.750000e-01  3.475000e+00
   endloop
 endfacet
 facet normal -1.000000e+00  0.000000e+00  0.000000e+00
   outer loop
     vertex -2.250000e-01 -4.750000e-01  3.475000e+00
     vertex -2.250000e-01  4.750000e-01  3.025000e+00
     vertex -2.250000e-01 -4.750000e-01  3.025000e+00
   endloop
 endfacet
 facet normal -1.000000e+00  0.000000e+00  0.000000e+00
   outer loop
     vertex -2.250000e-01 -4.750000e-01  3.475000e+00
     vertex -2.250000e-01  4.750000e-01  3.475000e+00
     vertex -2.250000e-01  4.750000e-01  3.025000e+00
   endloop
 endfacet
 facet normal  0.000000e+00 -1.000000e+00 -0.000000e+00
   outer loop
     vertex  1.725000e+00 -4.750000e-01  3.475000e+00
     vertex -2.250000e-01 -4.750000e-01  3.025000e+00
     vertex  1.725000e+00 -4.750000e-01  3.025000e+00
   endloop
 endfacet
 facet normal -0.000000e+00 -1.000000e+00  0.000000e+00
   outer loop
     vertex  1.725000e+00 -4.750000e-01  3.475000e+00
     vertex -2.250000e-01 -4.750000e-01  3.475000e+00
     vertex -2.250000e-01 -4.750000e-01  3.025000e+00
   endloop
 endfacet
 facet normal  0.000000e+00  0.000000e+00  1.000000e+00
   outer loop
     vertex  1.725000e+00  4.750000e-01  3.475000e+00
     vertex -2.250000e-01  4.750000e-01  3.475000e+00
     vertex -2.250000e-01 -4.750000e-01  3.475000e+00
   endloop
 endfacet
 facet normal  0.000000e+00  0.000000e+00  1.000000e+00
   outer loop
     vertex  1.725000e+00  4.750000e-01  3.475000e+00
     vertex -2.250000e-01 -4.750000e-01  3.475000e+00
     vertex  1.725000e+00 -4.750000e-01  3.475000e+00
   endloop
 endfacet
 facet normal  0.000000e+00  1.000000e+00  0.000000e+00
   outer loop
     vertex  1.725000e+00  4.750000e-01  3.475000e+00
     vertex  1.725000e+00  4.750000e-01  3.025000e+00
     vertex -2.250000e-01  4.750000e-01  3.025000e+00
   endloop
 endfacet
 facet normal  0.000000e+00  1.000000e+00  0.000000e+00
   outer loop
     vertex  1.725000e+00  4.750000e-01  3.475000e+00
     vertex -2.250000e-01  4.750000e-01  3.025000e+00
     vertex -2.250000e-01  4.750000e-01  3.475000e+00
   endloop
 endfacet
 facet normal -0.000000e+00  0.000000e+00 -1.000000e+00
   outer loop
     vertex  1.725000e+00  4.750000e-01  3.025000e+00
     vertex -2.250000e-01 -4.750000e-01  3.025000e+00
     vertex -2.250000e-01  4.750000e-01  3.025000e+00
   endloop
 endfacet
 facet normal  0.000000e+00 -0.000000e+00 -1.000000e+00
   outer loop
     vertex  1.725000e+00  4.750000e-01  3.025000e+00
     vertex  1.725000e+00 -4.750000e-01  3.025000e+00
     vertex -2.250000e-01 -4.750000e-01  3.025000e+00
   endloop
 endfacet
 facet normal  1.000000e+00  0.000000e+00  0.000000e+00
   outer loop
     vertex  1.725000e+00 -4.750000e-01  3.475000e+00
     vertex  1.725000e+00 -4.750000e-01  3.025000e+00
     vertex  1.725000e+00  4.750000e-01  3.025000e+00
   endloop
 endfacet
 facet normal  1.000000e+00 -0.000000e+00  0.000000e+00
   outer loop
     vertex  1.725000e+00 -4.750000e-01  3.475000e+00
     vertex  1.725000e+00  4.750000e-01  3.025000e+00
     vertex  1.725000e+00  4.750000e-01  3.475000e+00
   endloop
 endfacet
 facet normal -1.000000e+00  0.000000e+00  0.000000e+00
   outer loop
     vertex  1.775000e+00 -4.750000e-01  3.475000e+00
     vertex  1.775000e+00  4.750000e-01  3.025000e+00
     vertex  1.775000e+00 -4.750000e-01  3.025000e+00
   endloop
 endfacet
 facet normal -1.000000e+00  0.000000e+00  0.000000e+00
   outer loop
     vertex  1.775000e+00 -4.750000e-01  3.475000e+00
     vertex  1.775000e+00  4.750000e-01  3.475000e+00
     vertex  1.775000e+00  4.750000e-01  3.025000e+00
   endloop
 endfacet
 facet normal  0.000000e+00 -1.000000e+00 -0.000000e+00
   outer loop
     vertex  3.725000e+00 -4.750000e-01  3.475000e+00
     vertex  1.775000e+00 -4.750000e-01  3.025000e+00
     vertex  3.725000e+00 -4.750000e-01  3.025000e+00
   endloop
 endfacet
 facet normal -0.000000e+00 -1.000000e+00  0.000000e+00
   outer loop
     vertex  3.725000e+00 -4.750000e-01  3.475000e+00
     vertex  1.775000e+00 -4.750000e-01  3.475000e+00
     vertex  1.775000e+00 -4.750000e-01  3.025000e+00
   endloop
 endfacet
 facet normal  0.000000e+00  0.000000e+00  1.000000e+00
   outer loop
     vertex  3.725000e+00  4.750000e-01  3.475000e+00
     vertex  1.775000e+00  4.750000e-01  3.475000e+00
     vertex  1.775000e+00 -4.750000e-01  3.475000e+00
   endloop
 endfacet
 facet normal  0.000000e+00  0.000000e+00  1.000000e+00
   outer loop
     vertex  3.725000e+00  4.750000e-01  3.475000e+00
     vertex  1.775000e+00 -4.750000e-01  3.475000e+00
     vertex  3.725000e+00 -4.750000e-01  3.475000e+00
   endloop
 endfacet
 facet normal  0.000000e+00  1.000000e+00  0.000000e+00
   outer loop
     vertex  3.725000e+00  4.750000e-01  3.475000e+00
     vertex  3.725000e+00  4.750000e-01  3.025000e+00
     vertex  1.775000e+00  4.750000e-01  3.025000e+00
   endloop
 endfacet
 facet normal  0.000000e+00  1.000000e+00  0.000000e+00
   outer loop
     vertex  3.725000e+00  4.750000e-01  3.475000e+00
     vertex  1.775000e+00  4.750000e-01  3.025000e+00
     vertex  1.775000e+00  4.750000e-01  3.475000e+00
   endloop
 endfacet
 facet normal -0.000000e+00  0.000000e+00 -1.000000e+00
   outer loop
     vertex  3.725000e+00  4.750000e-01  3.025000e+00
     vertex  1.775000e+00 -4.750000e-01  3.025000e+00
     vertex  1.775000e+00  4.750000e-01  3.025000e+00
   endloop
 endfacet
 facet normal  0.000000e+00 -0.000000e+00 -1.000000e+00
   outer loop
     vertex  3.725000e+00  4.750000e-01  3.025000e+00
     vertex  3.725000e+00 -4.750000e-01  3.025000e+00
     vertex  1.775000e+00 -4.750000e-01  3.025000e+00
   endloop
 endfacet
 facet normal  1.000000e+00  0.000000e+00  0.000000e+00
   outer loop
     vertex  3.725000e+00 -4.750000e-01  3.475000e+00
     vertex  3.725000e+00 -4.750000e-01  3.025000e+00
     vertex  3.725000e+00  4.750000e-01  3.025000e+00
   endloop
 endfacet
 facet normal  1.000000e+00 -0.000000e+00  0.000000e+00
   outer loop
     vertex  3.725000e+00 -4.750000e-01  3.475000e+00
     vertex  3.725000e+00  4.750000e-01  3.025000e+00
     vertex  3.725000e+00  4.750000e-01  3.475000e+00
   endloop
 endfacet
 facet normal -1.000000e+00  0.000000e+00  0.000000e+00
   outer loop
     vertex -3.725000e+00 -4.750000e-01  3.975000e+00
     vertex -3.725000e+00  4.750000e-01  3.525000e+00
     vertex -3.725000e+00 -4.750000e-01  3.525000e+00
   endloop
 endfacet
 facet normal -1.000000e+00  0.000000e+00  0.000000e+00
   outer loop
     vertex -3.725000e+00 -4.750000e-01  3.975000e+00
     vertex -3.725000e+00  4.750000e-01  3.975000e+00
     vertex -3.725000e+00  4.750000e-01  3.525000e+00
   endloop
 endfacet
 facet normal  0.000000e+00 -1.000000e+00 -0.000000e+00
   outer loop
     vertex -1.775000e+00 -4.750000e-01  3.975000e+00
     vertex -3.725000e+00 -4.750000e-01  3.525000e+00
     vertex -1.775000e+00 -4.750000e-01  3.525000e+00
   endloop
 endfacet
 facet normal -0.000000e+00 -1.000000e+00  0.000000e+00
   outer loop
     vertex -1.775000e+00 -4.750000e-01  3.975000e+00
     vertex -3.725000e+00 -4.750000e-01  3.975000e+00
     vertex -3.725000e+00 -4.750000e-01  3.525000e+00
   endloop
 endfacet
 facet normal  0.000000e+00  0.000000e+00  1.000000e+00
   outer loop
     vertex -1.775000e+00  4.750000e-01  3.975000e+00
     vertex -3.725000e+00  4.750000e-01  3.975000e+00
     vertex -3.725000e+00 -4.750000e-01  3.975000e+00
   endloop
 endfacet
 facet normal  0.000000e+00  0.000000e+00  1.000000e+00
   outer loop
     vertex -1.775000e+00  4.750000e-01  3.975000e+00
     vertex -3.725000e+00 -4.750000e-01  3.975000e+00
     vertex -1.775000e+00 -4.750000e-01  3.975000e+00
   endloop
 endfacet
 facet normal  0.000000e+00  1.000000e+00  0.000000e+00
   outer loop
     vertex -1.775000e+00  4.750000e-01  3.975000e+00
     vertex -1.775000e+00  4.750000e-01  3.525000e+00
     vertex -3.725000e+00  4.750000e-01  3.525000e+00
   endloop
 endfacet
 facet normal  0.000000e+00  1.000000e+00  0.000000e+00
   outer loop
     vertex -1.775000e+00  4.750000e-01  3.975000e+00
     vertex -3.725000e+00  4.750000e-01  3.525000e+00
     vertex -3.725000e+00  4.750000e-01  3.975000e+00
   endloop
 endfacet
 facet normal -0.000000e+00  0.000000e+00 -1.000000e+00
   outer loop
     vertex -1.775000e+00  4.750000e-01  3.525000e+00
     vertex -3.725000e+00 -4.750000e-01  3.525000e+00
     vertex -3.725000e+00  4.750000e-01  3.525000e+00
   endloop
 endfacet
 facet normal  0.000000e+00 -0.000000e+00 -1.000000e+00
   outer loop
     vertex -1.775000e+00  4.750000e-01  3.525000e+00
     vertex -1.775000e+00 -4.750000e-01  3.525000e+00
     vertex -3.725000e+00 -4.750000e-01  3.525000e+00
   endloop
 endfacet
 facet normal  1.000000e+00  0.000000e+00  0.000000e+00
   outer loop
     vertex -1.775000e+00 -4.750000e-01  3.975000e+00
     vertex -1.775000e+00 -4.750000e-01  3.525000e+00
     vertex -1.775000e+00  4.750000e-01  3.525000e+00
   endloop
 endfacet
 facet normal  1.000000e+00 -0.000000e+00  0.000000e+00
   outer loop
     vertex -1.775000e+00 -4.750000e-01  3.975000e+00
     vertex -1.775000e+00  4.750000e-01  3.525000e+00
     vertex -1.775000e+00  4.750000e-01  3.975000e+00
   endloop
 endfacet
 facet normal -1.000000e+00  0.000000e+00  0.000000e+00
   outer loop
     vertex -1.725000e+00 -4.750000e-01  3.975000e+00
     vertex -1.725000e+00  4.750000e-01  3.525000e+00
     vertex -1.725000e+00 -4.750000e-01  3.525000e+00
   endloop
 endfacet
 facet normal -1.000000e+00  0.000000e+00  0.000000e+00
   outer loop
     vertex -1.725000e+00 -4.750000e-01  3.975000e+00
     vertex -1.725000e+00  4.750000e-01  3.975000e+00
     vertex -1.725000e+00  4.750000e-01  3.525000e+00
   endloop
 endfacet
 facet normal  0.000000e+00 -1.000000e+00 -0.000000e+00
   outer loop
     vertex  2.250000e-01 -4.750000e-01  3.975000e+00
     vertex -1.725000e+00 -4.750000e-01  3.525000e+00
     vertex  2.250000e-01 -4.750000e-01  3.525000e+00
   endloop
 endfacet
 facet normal -0.000000e+00 -1.000000e+00  0.000000e+00
   outer loop
     vertex  2.250000e-01 -4.750000e-01  3.975000e+00
     vertex -1.725000e+00 -4.750000e-01  3.975000e+00
     vertex -1.725000e+00 -4.750000e-01  3.525000e+00
   endloop
 endfacet
 facet normal  0.000000e+00  0.000000e+00  1.000000e+00
   outer loop
     vertex  2.250000e-01  4.750000e-01  3.975000e+00
     vertex -1.725000e+00  4.750000e-01  3.975000e+00
     vertex -1.725000e+00 -4.750000e-01  3.975000e+00
   endloop
 endfacet
 facet normal  0.000000e+00  0.000000e+00  1.000000e+00
   outer loop
     vertex  2.250000e-01  4.750000e-01  3.975000e+00
     vertex -1.725000e+00 -4.750000e-01  3.975000e+00
     vertex  2.250000e-01 -4.750000e-01  3.975000e+00
   endloop
 endfacet
 facet normal  0.000000e+00  1.000000e+00  0.000000e+00
   outer loop
     vertex  2.250000e-01  4.750000e-01  3.975000e+00
     vertex  2.250000e-01  4.750000e-01  3.525000e+00
     vertex -1.725000e+00  4.750000e-01  3.525000e+00
   endloop
 endfacet
 facet normal  0.000000e+00  1.000000e+00  0.000000e+00
   outer loop
     vertex  2.250000e-01  4.750000e-01  3.975000e+00
     vertex -1.725000e+00  4.750000e-01  3.525000e+00
     vertex -1.725000e+00  4.750000e-01  3.975000e+00
   endloop
 endfacet
 facet normal -0.000000e+00  0.000000e+00 -1.000000e+00
   outer loop
     vertex  2.250000e-01  4.750000e-01  3.525000e+00
     vertex -1.725000e+00 -4.750000e-01  3.525000e+00
     vertex -1.725000e+00  4.750000e-01  3.525000e+00
   endloop
 endfacet
 facet normal  0.000000e+00 -0.000000e+00 -1.000000e+00
   outer loop
     vertex  2.250000e-01  4.750000e-01  3.525000e+00
     vertex  2.250000e-01 -4.750000e-01  3.525000e+00
     vertex -1.725000e+00 -4.750000e-01  3.525000e+00
   endloop
 endfacet
 facet normal  1.000000e+00  0.000000e+00  0.000000e+00
   outer loop
     vertex  2.250000e-01 -4.750000e-01  3.975000e+00
     vertex  2.250000e-01 -4.750000e-01  3.525000e+00
     vertex  2.250000e-01  4.750000e-01  3.525000e+00
   endloop
 endfacet
 facet normal  1.000000e+00 -0.000000e+00  0.000000e+00
   outer loop
     vertex  2.250000e-01 -4.750000e-01  3.975000e+00
     vertex  2.250000e-01  4.750000e-01  3.525000e+00
     vertex  2.250000e-01  4.750000e-01  3.975000e+00
   endloop
 endfacet
 facet normal -1.000000e+00  0.000000e+00  0.000000e+00
   outer loop
     vertex  2.750000e-01 -4.750000e-01  3.975000e+00
     vertex  2.750000e-01  4.750000e-01  3.525000e+00
     vertex  2.750000e-01 -4.750000e-01  3.525000e+00
   endloop
 endfacet
 facet normal -1.000000e+00  0.000000e+00  0.000000e+00
   outer loop
     vertex  2.750000e-01 -4.750000e-01  3.975000e+00
     vertex  2.750000e-01  4.750000e-01  3.975000e+00
     vertex  2.750000e-01  4.750000e-01  3.525000e+00
   endloop
 endfacet
 facet normal  0.000000e+00 -1.000000e+00 -0.000000e+00
   outer loop
     vertex  2.225000e+00 -4.750000e-01  3.975000e+00
     vertex  2.750000e-01 -4.750000e-01  3.525000e+00
     vertex  2.225000e+00 -4.750000e-01  3.525000e+00
   endloop
 endfacet
 facet normal -0.000000e+00 -1.000000e+00  0.000000e+00
   outer loop
     vertex  2.225000e+00 -4.750000e-01  3.975000e+00
     vertex  2.750000e-01 -4.750000e-01  3.975000e+00
     vertex  2.750000e-01 -4.750000e-01  3.525000e+00
   endloop
 endfacet
 facet normal  0.000000e+00  0.000000e+00  1.000000e+00
   outer loop
     vertex  2.225000e+00  4.750000e-01  3.975000e+00
     vertex  2.750000e-01  4.750000e-01  3.975000e+00
     vertex  2.750000e-01 -4.750000e-01  3.975000e+00
   endloop
 endfacet
 facet normal  0.000000e+00  0.000000e+00  1.000000e+00
   outer loop
     vertex  2.225000e+00  4.750000e-01  3.975000e+00
     vertex  2.750000e-01 -4.750000e-01  3.975000e+00
     vertex  2.225000e+00 -4.750000e-01  3.975000e+00
   endloop
 endfacet
 facet normal  0.000000e+00  1.000000e+00  0.000000e+00
   outer loop
     vertex  2.225000e+00  4.750000e-01  3.975000e+00
     vertex  2.225000e+00  4.750000e-01  3.525000e+00
     vertex  2.750000e-01  4.750000e-01  3.525000e+00
   endloop
 endfacet
 facet normal  0.000000e+00  1.000000e+00  0.000000e+00
   outer loop
     vertex  2.225000e+00  4.750000e-01  3.975000e+00
     vertex  2.750000e-01  4.750000e-01  3.525000e+00
     vertex  2.750000e-01  4.750000e-01  3.975000e+00
   endloop
 endfacet
 facet normal -0.000000e+00  0.000000e+00 -1.000000e+00
   outer loop
     vertex  2.225000e+00  4.750000e-01  3.525000e+00
     vertex  2.750000e-01 -4.750000e-01  3.525000e+00
     vertex  2.750000e-01  4.750000e-01  3.525000e+00
   endloop
 endfacet
 facet normal  0.000000e+00 -0.000000e+00 -1.000000e+00
   outer loop
     vertex  2.225000e+00  4.750000e-01  3.525000e+00
     vertex  2.225000e+00 -4.750000e-01  3.525000e+00
     vertex  2.750000e-01 -4.750000e-01  3.525000e+00
   endloop
 endfacet
 facet normal  1.000000e+00  0.000000e+00  0.000000e+00
   outer loop
     vertex  2.225000e+00 -4.750000e-01  3.975000e+00
     vertex  2.225000e+00 -4.750000e-01  3.525000e+00
     vertex  2.225000e+00  4.750000e-01  3.525000e+00
   endloop
 endfacet
 facet normal  1.000000e+00 -0.000000e+00  0.000000e+00
   outer loop
     vertex  2.225000e+00 -4.750000e-01  3.975000e+00
     vertex  2.225000e+00  4.750000e-01  3.525000e+00
     vertex  2.225000e+00  4.750000e-01  3.975000e+00
   endloop
 endfacet
 facet normal -1.000000e+00  0.000000e+00  0.000000e+00
   outer loop
     vertex  2.275000e+00 -4.750000e-01  3.975000e+00
     vertex  2.275000e+00  4.750000e-01  3.525000e+00
     vertex  2.275000e+00 -4.750000e-01  3.525000e+00
   endloop
 endfacet
 facet normal -1.000000e+00  0.000000e+00  0.000000e+00
   outer loop
     vertex  2.275000e+00 -4.750000e-01  3.975000e+00
     vertex  2.275000e+00  4.750000e-01  3.975000e+00
     vertex  2.275000e+00  4.750000e-01  3.525000e+00
   endloop
 endfacet
 facet normal  0.000000e+00 -1.000000e+00 -0.000000e+00
   outer loop
     vertex  4.225000e+00 -4.750000e-01  3.975000e+00
     vertex  2.275000e+00 -4.750000e-01  3.525000e+00
     vertex  4.225000e+00 -4.750000e-01  3.525000e+00
   endloop
 endfacet
 facet normal -0.000000e+00 -1.000000e+00  0.000000e+00
   outer loop
     vertex  4.225000e+00 -4.750000e-01  3.975000e+00
     vertex  2.275000e+00 -4.750000e-01  3.975000e+00
     vertex  2.275000e+00 -4.750000e-01  3.525000e+00
   endloop
 endfacet
 facet normal  0.000000e+00  0.000000e+00  1.000000e+00
   outer loop
     vertex  4.225000e+00  4.750000e-01  3.975000e+00
     vertex  2.275000e+00  4.750000e-01  3.975000e+00
     vertex  2.275000e+00 -4.750000e-01  3.975000e+00
   endloop
 endfacet
 facet normal  0.000000e+00  0.000000e+00  1.000000e+00
   outer loop
     vertex  4.225000e+00  4.750000e-01  3.975000e+00
     vertex  2.275000e+00 -4.750000e-01  3.975000e+00
     vertex  4.225000e+00 -4.750000e-01  3.975000e+00
   endloop
 endfacet
 facet normal  0.000000e+00  1.000000e+00  0.000000e+00
   outer loop
     vertex  4.225000e+00  4.750000e-01  3.975000e+00
     vertex  4.225000e+00  4.750000e-01  3.525000e+00
     vertex  2.275000e+00  4.750000e-01  3.525000e+00
   endloop
 endfacet
 facet normal  0.000000e+00  1.000000e+00  0.000000e+00
   outer loop
     vertex  4.225000e+00  4.750000e-01  3.975000e+00
     vertex  2.275000e+00  4.750000e-01  3.525000e+00
     vertex  2.275000e+00  4.750000e-01  3.975000e+00
   endloop
 endfacet
 facet normal -0.000000e+00  0.000000e+00 -1.000000e+00
   outer loop
     vertex  4.225000e+00  4.750000e-01  3.525000e+00
     vertex  2.275000e+00 -4.750000e-01  3.525000e+00
     vertex  2.275000e+00  4.750000e-01  3.525000e+00
   endloop
 endfacet
 facet normal  0.000000e+00 -0.000000e+00 -1.000000e+00
   outer loop
     vertex  4.225000e+00  4.750000e-01  3.525000e+00
     vertex  4.225000e+00 -4.750000e-01  3.525000e+00
     vertex  2.275000e+00 -4.750000e-01  3.525000e+00
   endloop
 endfacet
 facet normal  1.000000e+00  0.000000e+00  0.000000e+00
   outer loop
     vertex  4.225000e+00 -4.750000e-01  3.975000e+00
     vertex  4.225000e+00 -4.750000e-01  3.525000e+00
     vertex  4.225000e+00  4.750000e-01  3.525000e+00
   endloop
 endfacet
 facet normal  1.000000e+00 -0.000000e+00  0.000000e+00
   outer loop
     vertex  4.225000e+00 -4.750000e-01  3.975000e+00
     vertex  4.225000e+00  4.750000e-01  3.525000e+00
     vertex  4.225000e+00  4.750000e-01  3.975000e+00
   endloop
 endfacet
endsolid
