solid 
 facet normal  8.660254e-01 -5.000000e-01  0.000000e+00
   outer loop
     vertex  1.937655e+00 -5.078883e+00  2.467500e+00
     vertex  1.470155e+00 -5.888617e+00  2.032500e+00
     vertex  1.937655e+00 -5.078883e+00  2.032500e+00
   endloop
 endfacet
 facet normal  8.660254e-01 -5.000000e-01  0.000000e+00
   outer loop
     vertex  1.937655e+00 -5.078883e+00  2.467500e+00
     vertex  1.470155e+00 -5.888617e+00  2.467500e+00
     vertex  1.470155e+00 -5.888617e+00  2.032500e+00
   endloop
 endfacet
 facet normal -8.660254e-01  5.000000e-01  0.000000e+00
   outer loop
     vertex  2.618959e-01 -4.111383e+00  2.467500e+00
     vertex  2.618959e-01 -4.111383e+00  2.032500e+00
     vertex -2.056041e-01 -4.921117e+00  2.032500e+00
   endloop
 endfacet
 facet normal -8.660254e-01  5.000000e-01  0.000000e+00
   outer loop
     vertex  2.618959e-01 -4.111383e+00  2.467500e+00
     vertex -2.056041e-01 -4.921117e+00  2.032500e+00
     vertex -2.056041e-01 -4.921117e+00  2.467500e+00
   endloop
 endfacet
 facet normal  5.000000e-01  8.660254e-01  0.000000e+00
   outer loop
     vertex  2.618959e-01 -4.111383e+00  2.467500e+00
     vertex  1.937655e+00 -5.078883e+00  2.032500e+00
     vertex  2.618959e-01 -4.111383e+00  2.032500e+00
   endloop
 endfacet
 facet normal  5.000000e-01  8.660254e-01  0.000000e+00
   outer loop
     vertex  2.618959e-01 -4.111383e+00  2.467500e+00
     vertex  1.937655e+00 -5.078883e+00  2.467500e+00
     vertex  1.937655e+00 -5.078883e+00  2.032500e+00
   endloop
 endfacet
 facet normal -5.000000e-01 -8.660254e-01 -0.000000e+00
   outer loop
     vertex -2.056041e-01 -4.921117e+00  2.467500e+00
     vertex -2.056041e-01 -4.921117e+00  2.032500e+00
     vertex  1.470155e+00 -5.888617e+00  2.032500e+00
   endloop
 endfacet
 facet normal -5.000000e-01 -8.660254e-01  0.000000e+00
   outer loop
     vertex -2.056041e-01 -4.921117e+00  2.467500e+00
     vertex  1.470155e+00 -5.888617e+00  2.032500e+00
     vertex  1.470155e+00 -5.888617e+00  2.467500e+00
   endloop
 endfacet
 facet normal  0.000000e+00  0.000000e+00 -1.000000e+00
   outer loop
     vertex -2.056041e-01 -4.921117e+00  2.032500e+00
     vertex  1.937655e+00 -5.078883e+00  2.032500e+00
     vertex  1.470155e+00 -5.888617e+00  2.032500e+00
   endloop
 endfacet
 facet normal  0.000000e+00  0.000000e+00 -1.000000e+00
   outer loop
     vertex -2.056041e-01 -4.921117e+00  2.032500e+00
     vertex  2.618959e-01 -4.111383e+00  2.032500e+00
     vertex  1.937655e+00 -5.078883e+00  2.032500e+00
   endloop
 endfacet
 facet normal  0.000000e+00  0.000000e+00  1.000000e+00
   outer loop
     vertex -2.056041e-01 -4.921117e+00  2.467500e+00
     vertex  1.470155e+00 -5.888617e+00  2.467500e+00
     vertex  1.937655e+00 -5.078883e+00  2.467500e+00
   endloop
 endfacet
 facet normal -0.000000e+00  0.000000e+00  1.000000e+00
   outer loop
     vertex -2.056041e-01 -4.921117e+00  2.467500e+00
     vertex  1.937655e+00 -5.078883e+00  2.467500e+00
     vertex  2.618959e-01 -4.111383e+00  2.467500e+00
   endloop
 endfacet
 facet normal -5.000000e-01 -8.660254e-01 -0.000000e+00
   outer loop
     vertex  6.041299e-01 -5.888617e+00  1.967500e+00
     vertex -2.056039e-01 -5.421117e+00  1.532500e+00
     vertex  6.041299e-01 -5.888617e+00  1.532500e+00
   endloop
 endfacet
 facet normal -5.000000e-01 -8.660254e-01  0.000000e+00
   outer loop
     vertex  6.041299e-01 -5.888617e+00  1.967500e+00
     vertex -2.056039e-01 -5.421117e+00  1.967500e+00
     vertex -2.056039e-01 -5.421117e+00  1.532500e+00
   endloop
 endfacet
 facet normal  5.000000e-01  8.660254e-01  0.000000e+00
   outer loop
     vertex  1.571630e+00 -4.212858e+00  1.967500e+00
     vertex  1.571630e+00 -4.212858e+00  1.532500e+00
     vertex  7.618961e-01 -3.745358e+00  1.532500e+00
   endloop
 endfacet
 facet normal  5.000000e-01  8.660254e-01  0.000000e+00
   outer loop
     vertex  1.571630e+00 -4.212858e+00  1.967500e+00
     vertex  7.618961e-01 -3.745358e+00  1.532500e+00
     vertex  7.618961e-01 -3.745358e+00  1.967500e+00
   endloop
 endfacet
 facet normal  8.660254e-01 -5.000000e-01  0.000000e+00
   outer loop
     vertex  1.571630e+00 -4.212858e+00  1.967500e+00
     vertex  6.041299e-01 -5.888617e+00  1.532500e+00
     vertex  1.571630e+00 -4.212858e+00  1.532500e+00
   endloop
 endfacet
 facet normal  8.660254e-01 -5.000000e-01  0.000000e+00
   outer loop
     vertex  1.571630e+00 -4.212858e+00  1.967500e+00
     vertex  6.041299e-01 -5.888617e+00  1.967500e+00
     vertex  6.041299e-01 -5.888617e+00  1.532500e+00
   endloop
 endfacet
 facet normal -8.660254e-01  5.000000e-01  0.000000e+00
   outer loop
     vertex  7.618961e-01 -3.745358e+00  1.967500e+00
     vertex  7.618961e-01 -3.745358e+00  1.532500e+00
     vertex -2.056039e-01 -5.421117e+00  1.532500e+00
   endloop
 endfacet
 facet normal -8.660254e-01  5.000000e-01  0.000000e+00
   outer loop
     vertex  7.618961e-01 -3.745358e+00  1.967500e+00
     vertex -2.056039e-01 -5.421117e+00  1.532500e+00
     vertex -2.056039e-01 -5.421117e+00  1.967500e+00
   endloop
 endfacet
 facet normal  0.000000e+00  0.000000e+00 -1.000000e+00
   outer loop
     vertex  7.618961e-01 -3.745358e+00  1.532500e+00
     vertex  6.041299e-01 -5.888617e+00  1.532500e+00
     vertex -2.056039e-01 -5.421117e+00  1.532500e+00
   endloop
 endfacet
 facet normal  0.000000e+00 -0.000000e+00 -1.000000e+00
   outer loop
     vertex  7.618961e-01 -3.745358e+00  1.532500e+00
     vertex  1.571630e+00 -4.212858e+00  1.532500e+00
     vertex  6.041299e-01 -5.888617e+00  1.532500e+00
   endloop
 endfacet
 facet normal  0.000000e+00  0.000000e+00  1.000000e+00
   outer loop
     vertex  7.618961e-01 -3.745358e+00  1.967500e+00
     vertex -2.056039e-01 -5.421117e+00  1.967500e+00
     vertex  6.041299e-01 -5.888617e+00  1.967500e+00
   endloop
 endfacet
 facet normal  0.000000e+00  0.000000e+00  1.000000e+00
   outer loop
     vertex  7.618961e-01 -3.745358e+00  1.967500e+00
     vertex  6.041299e-01 -5.888617e+00  1.967500e+00
     vertex  1.571630e+00 -4.212858e+00  1.967500e+00
   endloop
 endfacet
 facet normal  8.660254e-01 -5.000000e-01  0.000000e+00
   outer loop
     vertex  1.937655e+00 -5.078883e+00  1.467500e+00
     vertex  1.470155e+00 -5.888617e+00  1.032500e+00
     vertex  1.937655e+00 -5.078883e+00  1.032500e+00
   endloop
 endfacet
 facet normal  8.660254e-01 -5.000000e-01  0.000000e+00
   outer loop
     vertex  1.937655e+00 -5.078883e+00  1.467500e+00
     vertex  1.470155e+00 -5.888617e+00  1.467500e+00
     vertex  1.470155e+00 -5.888617e+00  1.032500e+00
   endloop
 endfacet
 facet normal -8.660254e-01  5.000000e-01  0.000000e+00
   outer loop
     vertex  2.618959e-01 -4.111383e+00  1.467500e+00
     vertex  2.618959e-01 -4.111383e+00  1.032500e+00
     vertex -2.056041e-01 -4.921117e+00  1.032500e+00
   endloop
 endfacet
 facet normal -8.660254e-01  5.000000e-01  0.000000e+00
   outer loop
     vertex  2.618959e-01 -4.111383e+00  1.467500e+00
     vertex -2.056041e-01 -4.921117e+00  1.032500e+00
     vertex -2.056041e-01 -4.921117e+00  1.467500e+00
   endloop
 endfacet
 facet normal  5.000000e-01  8.660254e-01  0.000000e+00
   outer loop
     vertex  2.618959e-01 -4.111383e+00  1.467500e+00
     vertex  1.937655e+00 -5.078883e+00  1.032500e+00
     vertex  2.618959e-01 -4.111383e+00  1.032500e+00
   endloop
 endfacet
 facet normal  5.000000e-01  8.660254e-01  0.000000e+00
   outer loop
     vertex  2.618959e-01 -4.111383e+00  1.467500e+00
     vertex  1.937655e+00 -5.078883e+00  1.467500e+00
     vertex  1.937655e+00 -5.078883e+00  1.032500e+00
   endloop
 endfacet
 facet normal -5.000000e-01 -8.660254e-01 -0.000000e+00
   outer loop
     vertex -2.056041e-01 -4.921117e+00  1.467500e+00
     vertex -2.056041e-01 -4.921117e+00  1.032500e+00
     vertex  1.470155e+00 -5.888617e+00  1.032500e+00
   endloop
 endfacet
 facet normal -5.000000e-01 -8.660254e-01  0.000000e+00
   outer loop
     vertex -2.056041e-01 -4.921117e+00  1.467500e+00
     vertex  1.470155e+00 -5.888617e+00  1.032500e+00
     vertex  1.470155e+00 -5.888617e+00  1.467500e+00
   endloop
 endfacet
 facet normal  0.000000e+00  0.000000e+00 -1.000000e+00
   outer loop
     vertex -2.056041e-01 -4.921117e+00  1.032500e+00
     vertex  1.937655e+00 -5.078883e+00  1.032500e+00
     vertex  1.470155e+00 -5.888617e+00  1.032500e+00
   endloop
 endfacet
 facet normal  0.000000e+00  0.000000e+00 -1.000000e+00
   outer loop
     vertex -2.056041e-01 -4.921117e+00  1.032500e+00
     vertex  2.618959e-01 -4.111383e+00  1.032500e+00
     vertex  1.937655e+00 -5.078883e+00  1.032500e+00
   endloop
 endfacet
 facet normal  0.000000e+00  0.000000e+00  1.000000e+00
   outer loop
     vertex -2.056041e-01 -4.921117e+00  1.467500e+00
     vertex  1.470155e+00 -5.888617e+00  1.467500e+00
     vertex  1.937655e+00 -5.078883e+00  1.467500e+00
   endloop
 endfacet
 facet normal -0.000000e+00  0.000000e+00  1.000000e+00
   outer loop
     vertex -2.056041e-01 -4.921117e+00  1.467500e+00
     vertex  1.937655e+00 -5.078883e+00  1.467500e+00
     vertex  2.618959e-01 -4.111383e+00  1.467500e+00
   endloop
 endfacet
 facet normal -5.000000e-01 -8.660254e-01 -0.000000e+00
   outer loop
     vertex  6.041299e-01 -5.888617e+00  9.675000e-01
     vertex -2.056039e-01 -5.421117e+00  5.325000e-01
     vertex  6.041299e-01 -5.888617e+00  5.325000e-01
   endloop
 endfacet
 facet normal -5.000000e-01 -8.660254e-01  0.000000e+00
   outer loop
     vertex  6.041299e-01 -5.888617e+00  9.675000e-01
     vertex -2.056039e-01 -5.421117e+00  9.675000e-01
     vertex -2.056039e-01 -5.421117e+00  5.325000e-01
   endloop
 endfacet
 facet normal  5.000000e-01  8.660254e-01  0.000000e+00
   outer loop
     vertex  1.571630e+00 -4.212858e+00  9.675000e-01
     vertex  1.571630e+00 -4.212858e+00  5.325000e-01
     vertex  7.618961e-01 -3.745358e+00  5.325000e-01
   endloop
 endfacet
 facet normal  5.000000e-01  8.660254e-01  0.000000e+00
   outer loop
     vertex  1.571630e+00 -4.212858e+00  9.675000e-01
     vertex  7.618961e-01 -3.745358e+00  5.325000e-01
     vertex  7.618961e-01 -3.745358e+00  9.675000e-01
   endloop
 endfacet
 facet normal  8.660254e-01 -5.000000e-01  0.000000e+00
   outer loop
     vertex  1.571630e+00 -4.212858e+00  9.675000e-01
     vertex  6.041299e-01 -5.888617e+00  5.325000e-01
     vertex  1.571630e+00 -4.212858e+00  5.325000e-01
   endloop
 endfacet
 facet normal  8.660254e-01 -5.000000e-01  0.000000e+00
   outer loop
     vertex  1.571630e+00 -4.212858e+00  9.675000e-01
     vertex  6.041299e-01 -5.888617e+00  9.675000e-01
     vertex  6.041299e-01 -5.888617e+00  5.325000e-01
   endloop
 endfacet
 facet normal -8.660254e-01  5.000000e-01  0.000000e+00
   outer loop
     vertex  7.618961e-01 -3.745358e+00  9.675000e-01
     vertex  7.618961e-01 -3.745358e+00  5.325000e-01
     vertex -2.056039e-01 -5.421117e+00  5.325000e-01
   endloop
 endfacet
 facet normal -8.660254e-01  5.000000e-01  0.000000e+00
   outer loop
     vertex  7.618961e-01 -3.745358e+00  9.675000e-01
     vertex -2.056039e-01 -5.421117e+00  5.325000e-01
     vertex -2.056039e-01 -5.421117e+00  9.675000e-01
   endloop
 endfacet
 facet normal  0.000000e+00  0.000000e+00 -1.000000e+00
   outer loop
     vertex  7.618961e-01 -3.745358e+00  5.325000e-01
     vertex  6.041299e-01 -5.888617e+00  5.325000e-01
     vertex -2.056039e-01 -5.421117e+00  5.325000e-01
   endloop
 endfacet
 facet normal  0.000000e+00 -0.000000e+00 -1.000000e+00
   outer loop
     vertex  7.618961e-01 -3.745358e+00  5.325000e-01
     vertex  1.571630e+00 -4.212858e+00  5.325000e-01
     vertex  6.041299e-01 -5.888617e+00  5.325000e-01
   endloop
 endfacet
 facet normal  0.000000e+00  0.000000e+00  1.000000e+00
   outer loop
     vertex  7.618961e-01 -3.745358e+00  9.675000e-01
     vertex -2.056039e-01 -5.421117e+00  9.675000e-01
     vertex  6.041299e-01 -5.888617e+00  9.675000e-01
   endloop
 endfacet
 facet normal  0.000000e+00  0.000000e+00  1.000000e+00
   outer loop
     vertex  7.618961e-01 -3.745358e+00  9.675000e-01
     vertex  6.041299e-01 -5.888617e+00  9.675000e-01
     vertex  1.571630e+00 -4.212858e+00  9.675000e-01
   endloop
 endfacet
 facet normal  8.660254e-01 -5.000000e-01  0.000000e+00
   outer loop
     vertex  1.937655e+00 -5.078883e+00  4.675000e-01
     vertex  1.470155e+00 -5.888617e+00  3.250000e-02
     vertex  1.937655e+00 -5.078883e+00  3.250000e-02
   endloop
 endfacet
 facet normal  8.660254e-01 -5.000000e-01  0.000000e+00
   outer loop
     vertex  1.937655e+00 -5.078883e+00  4.675000e-01
     vertex  1.470155e+00 -5.888617e+00  4.675000e-01
     vertex  1.470155e+00 -5.888617e+00  3.250000e-02
   endloop
 endfacet
 facet normal -8.660254e-01  5.000000e-01  0.000000e+00
   outer loop
     vertex  2.618959e-01 -4.111383e+00  4.675000e-01
     vertex  2.618959e-01 -4.111383e+00  3.250000e-02
     vertex -2.056041e-01 -4.921117e+00  3.250000e-02
   endloop
 endfacet
 facet normal -8.660254e-01  5.000000e-01  0.000000e+00
   outer loop
     vertex  2.618959e-01 -4.111383e+00  4.675000e-01
     vertex -2.056041e-01 -4.921117e+00  3.250000e-02
     vertex -2.056041e-01 -4.921117e+00  4.675000e-01
   endloop
 endfacet
 facet normal  5.000000e-01  8.660254e-01  0.000000e+00
   outer loop
     vertex  2.618959e-01 -4.111383e+00  4.675000e-01
     vertex  1.937655e+00 -5.078883e+00  3.250000e-02
     vertex  2.618959e-01 -4.111383e+00  3.250000e-02
   endloop
 endfacet
 facet normal  5.000000e-01  8.660254e-01  0.000000e+00
   outer loop
     vertex  2.618959e-01 -4.111383e+00  4.675000e-01
     vertex  1.937655e+00 -5.078883e+00  4.675000e-01
     vertex  1.937655e+00 -5.078883e+00  3.250000e-02
   endloop
 endfacet
 facet normal -5.000000e-01 -8.660254e-01 -0.000000e+00
   outer loop
     vertex -2.056041e-01 -4.921117e+00  4.675000e-01
     vertex -2.056041e-01 -4.921117e+00  3.250000e-02
     vertex  1.470155e+00 -5.888617e+00  3.250000e-02
   endloop
 endfacet
 facet normal -5.000000e-01 -8.660254e-01  0.000000e+00
   outer loop
     vertex -2.056041e-01 -4.921117e+00  4.675000e-01
     vertex  1.470155e+00 -5.888617e+00  3.250000e-02
     vertex  1.470155e+00 -5.888617e+00  4.675000e-01
   endloop
 endfacet
 facet normal  0.000000e+00  0.000000e+00 -1.000000e+00
   outer loop
     vertex -2.056041e-01 -4.921117e+00  3.250000e-02
     vertex  1.937655e+00 -5.078883e+00  3.250000e-02
     vertex  1.470155e+00 -5.888617e+00  3.250000e-02
   endloop
 endfacet
 facet normal  0.000000e+00  0.000000e+00 -1.000000e+00
   outer loop
     vertex -2.056041e-01 -4.921117e+00  3.250000e-02
     vertex  2.618959e-01 -4.111383e+00  3.250000e-02
     vertex  1.937655e+00 -5.078883e+00  3.250000e-02
   endloop
 endfacet
 facet normal  0.000000e+00  0.000000e+00  1.000000e+00
   outer loop
     vertex -2.056041e-01 -4.921117e+00  4.675000e-01
     vertex  1.470155e+00 -5.888617e+00  4.675000e-01
     vertex  1.937655e+00 -5.078883e+00  4.675000e-01
   endloop
 endfacet
 facet normal -0.000000e+00  0.000000e+00  1.000000e+00
   outer loop
     vertex -2.056041e-01 -4.921117e+00  4.675000e-01
     vertex  1.937655e+00 -5.078883e+00  4.675000e-01
     vertex  2.618959e-01 -4.111383e+00  4.675000e-01
   endloop
 endfacet
 facet normal -5.000000e-01 -8.660254e-01 -0.000000e+00
   outer loop
     vertex  6.041299e-01 -5.888617e+00 -3.250000e-02
     vertex -2.056039e-01 -5.421117e+00 -4.675000e-01
     vertex  6.041299e-01 -5.888617e+00 -4.675000e-01
   endloop
 endfacet
 facet normal -5.000000e-01 -8.660254e-01  0.000000e+00
   outer loop
     vertex  6.041299e-01 -5.888617e+00 -3.250000e-02
     vertex -2.056039e-01 -5.421117e+00 -3.250000e-02
     vertex -2.056039e-01 -5.421117e+00 -4.675000e-01
   endloop
 endfacet
 facet normal  5.000000e-01  8.660254e-01  0.000000e+00
   outer loop
     vertex  1.571630e+00 -4.212858e+00 -3.250000e-02
     vertex  1.571630e+00 -4.212858e+00 -4.675000e-01
     vertex  7.618961e-01 -3.745358e+00 -4.675000e-01
   endloop
 endfacet
 facet normal  5.000000e-01  8.660254e-01  0.000000e+00
   outer loop
     vertex  1.571630e+00 -4.212858e+00 -3.250000e-02
     vertex  7.618961e-01 -3.745358e+00 -4.675000e-01
     vertex  7.618961e-01 -3.745358e+00 -3.250000e-02
   endloop
 endfacet
 facet normal  8.660254e-01 -5.000000e-01  0.000000e+00
   outer loop
     vertex  1.571630e+00 -4.212858e+00 -3.250000e-02
     vertex  6.041299e-01 -5.888617e+00 -4.675000e-01
     vertex  1.571630e+00 -4.212858e+00 -4.675000e-01
   endloop
 endfacet
 facet normal  8.660254e-01 -5.000000e-01  0.000000e+00
   outer loop
     vertex  1.571630e+00 -4.212858e+00 -3.250000e-02
     vertex  6.041299e-01 -5.888617e+00 -3.250000e-02
     vertex  6.041299e-01 -5.888617e+00 -4.675000e-01
   endloop
 endfacet
 facet normal -8.660254e-01  5.000000e-01  0.000000e+00
   outer loop
     vertex  7.618961e-01 -3.745358e+00 -3.250000e-02
     vertex  7.618961e-01 -3.745358e+00 -4.675000e-01
     vertex -2.056039e-01 -5.421117e+00 -4.675000e-01
   endloop
 endfacet
 facet normal -8.660254e-01  5.000000e-01  0.000000e+00
   outer loop
     vertex  7.618961e-01 -3.745358e+00 -3.250000e-02
     vertex -2.056039e-01 -5.421117e+00 -4.675000e-01
     vertex -2.056039e-01 -5.421117e+00 -3.250000e-02
   endloop
 endfacet
 facet normal  0.000000e+00  0.000000e+00 -1.000000e+00
   outer loop
     vertex  7.618961e-01 -3.745358e+00 -4.675000e-01
     vertex  6.041299e-01 -5.888617e+00 -4.675000e-01
     vertex -2.056039e-01 -5.421117e+00 -4.675000e-01
   endloop
 endfacet
 facet normal  0.000000e+00 -0.000000e+00 -1.000000e+00
   outer loop
     vertex  7.618961e-01 -3.745358e+00 -4.675000e-01
     vertex  1.571630e+00 -4.212858e+00 -4.675000e-01
     vertex  6.041299e-01 -5.888617e+00 -4.675000e-01
   endloop
 endfacet
 facet normal  0.000000e+00  0.000000e+00  1.000000e+00
   outer loop
     vertex  7.618961e-01 -3.745358e+00 -3.250000e-02
     vertex -2.056039e-01 -5.421117e+00 -3.250000e-02
     vertex  6.041299e-01 -5.888617e+00 -3.250000e-02
   endloop
 endfacet
 facet normal  0.000000e+00  0.000000e+00  1.000000e+00
   outer loop
     vertex  7.618961e-01 -3.745358e+00 -3.250000e-02
     vertex  6.041299e-01 -5.888617e+00 -3.250000e-02
     vertex  1.571630e+00 -4.212858e+00 -3.250000e-02
   endloop
 endfacet
 facet normal  8.660254e-01 -5.000000e-01  0.000000e+00
   outer loop
     vertex  1.937655e+00 -5.078883e+00 -5.325000e-01
     vertex  1.470155e+00 -5.888617e+00 -9.675000e-01
     vertex  1.937655e+00 -5.078883e+00 -9.675000e-01
   endloop
 endfacet
 facet normal  8.660254e-01 -5.000000e-01  0.000000e+00
   outer loop
     vertex  1.937655e+00 -5.078883e+00 -5.325000e-01
     vertex  1.470155e+00 -5.888617e+00 -5.325000e-01
     vertex  1.470155e+00 -5.888617e+00 -9.675000e-01
   endloop
 endfacet
 facet normal -8.660254e-01  5.000000e-01  0.000000e+00
   outer loop
     vertex  2.618959e-01 -4.111383e+00 -5.325000e-01
     vertex  2.618959e-01 -4.111383e+00 -9.675000e-01
     vertex -2.056041e-01 -4.921117e+00 -9.675000e-01
   endloop
 endfacet
 facet normal -8.660254e-01  5.000000e-01  0.000000e+00
   outer loop
     vertex  2.618959e-01 -4.111383e+00 -5.325000e-01
     vertex -2.056041e-01 -4.921117e+00 -9.675000e-01
     vertex -2.056041e-01 -4.921117e+00 -5.325000e-01
   endloop
 endfacet
 facet normal  5.000000e-01  8.660254e-01  0.000000e+00
   outer loop
     vertex  2.618959e-01 -4.111383e+00 -5.325000e-01
     vertex  1.937655e+00 -5.078883e+00 -9.675000e-01
     vertex  2.618959e-01 -4.111383e+00 -9.675000e-01
   endloop
 endfacet
 facet normal  5.000000e-01  8.660254e-01  0.000000e+00
   outer loop
     vertex  2.618959e-01 -4.111383e+00 -5.325000e-01
     vertex  1.937655e+00 -5.078883e+00 -5.325000e-01
     vertex  1.937655e+00 -5.078883e+00 -9.675000e-01
   endloop
 endfacet
 facet normal -5.000000e-01 -8.660254e-01 -0.000000e+00
   outer loop
     vertex -2.056041e-01 -4.921117e+00 -5.325000e-01
     vertex -2.056041e-01 -4.921117e+00 -9.675000e-01
     vertex  1.470155e+00 -5.888617e+00 -9.675000e-01
   endloop
 endfacet
 facet normal -5.000000e-01 -8.660254e-01  0.000000e+00
   outer loop
     vertex -2.056041e-01 -4.921117e+00 -5.325000e-01
     vertex  1.470155e+00 -5.888617e+00 -9.675000e-01
     vertex  1.470155e+00 -5.888617e+00 -5.325000e-01
   endloop
 endfacet
 facet normal  0.000000e+00  0.000000e+00 -1.000000e+00
   outer loop
     vertex -2.056041e-01 -4.921117e+00 -9.675000e-01
     vertex  1.937655e+00 -5.078883e+00 -9.675000e-01
     vertex  1.470155e+00 -5.888617e+00 -9.675000e-01
   endloop
 endfacet
 facet normal  0.000000e+00  0.000000e+00 -1.000000e+00
   outer loop
     vertex -2.056041e-01 -4.921117e+00 -9.675000e-01
     vertex  2.618959e-01 -4.111383e+00 -9.675000e-01
     vertex  1.937655e+00 -5.078883e+00 -9.675000e-01
   endloop
 endfacet
 facet normal  0.000000e+00  0.000000e+00  1.000000e+00
   outer loop
     vertex -2.056041e-01 -4.921117e+00 -5.325000e-01
     vertex  1.470155e+00 -5.888617e+00 -5.325000e-01
     vertex  1.937655e+00 -5.078883e+00 -5.325000e-01
   endloop
 endfacet
 facet normal -0.000000e+00  0.000000e+00  1.000000e+00
   outer loop
     vertex -2.056041e-01 -4.921117e+00 -5.325000e-01
     vertex  1.937655e+00 -5.078883e+00 -5.325000e-01
     vertex  2.618959e-01 -4.111383e+00 -5.325000e-01
   endloop
 endfacet
 facet normal -5.000000e-01 -8.660254e-01 -0.000000e+00
   outer loop
     vertex  6.041299e-01 -5.888617e+00 -1.032500e+00
     vertex -2.056039e-01 -5.421117e+00 -1.467500e+00
     vertex  6.041299e-01 -5.888617e+00 -1.467500e+00
   endloop
 endfacet
 facet normal -5.000000e-01 -8.660254e-01  0.000000e+00
   outer loop
     vertex  6.041299e-01 -5.888617e+00 -1.032500e+00
     vertex -2.056039e-01 -5.421117e+00 -1.032500e+00
     vertex -2.056039e-01 -5.421117e+00 -1.467500e+00
   endloop
 endfacet
 facet normal  5.000000e-01  8.660254e-01  0.000000e+00
   outer loop
     vertex  1.571630e+00 -4.212858e+00 -1.032500e+00
     vertex  1.571630e+00 -4.212858e+00 -1.467500e+00
     vertex  7.618961e-01 -3.745358e+00 -1.467500e+00
   endloop
 endfacet
 facet normal  5.000000e-01  8.660254e-01  0.000000e+00
   outer loop
     vertex  1.571630e+00 -4.212858e+00 -1.032500e+00
     vertex  7.618961e-01 -3.745358e+00 -1.467500e+00
     vertex  7.618961e-01 -3.745358e+00 -1.032500e+00
   endloop
 endfacet
 facet normal  8.660254e-01 -5.000000e-01  0.000000e+00
   outer loop
     vertex  1.571630e+00 -4.212858e+00 -1.032500e+00
     vertex  6.041299e-01 -5.888617e+00 -1.467500e+00
     vertex  1.571630e+00 -4.212858e+00 -1.467500e+00
   endloop
 endfacet
 facet normal  8.660254e-01 -5.000000e-01  0.000000e+00
   outer loop
     vertex  1.571630e+00 -4.212858e+00 -1.032500e+00
     vertex  6.041299e-01 -5.888617e+00 -1.032500e+00
     vertex  6.041299e-01 -5.888617e+00 -1.467500e+00
   endloop
 endfacet
 facet normal -8.660254e-01  5.000000e-01  0.000000e+00
   outer loop
     vertex  7.618961e-01 -3.745358e+00 -1.032500e+00
     vertex  7.618961e-01 -3.745358e+00 -1.467500e+00
     vertex -2.056039e-01 -5.421117e+00 -1.467500e+00
   endloop
 endfacet
 facet normal -8.660254e-01  5.000000e-01  0.000000e+00
   outer loop
     vertex  7.618961e-01 -3.745358e+00 -1.032500e+00
     vertex -2.056039e-01 -5.421117e+00 -1.467500e+00
     vertex -2.056039e-01 -5.421117e+00 -1.032500e+00
   endloop
 endfacet
 facet normal  0.000000e+00  0.000000e+00 -1.000000e+00
   outer loop
     vertex  7.618961e-01 -3.745358e+00 -1.467500e+00
     vertex  6.041299e-01 -5.888617e+00 -1.467500e+00
     vertex -2.056039e-01 -5.421117e+00 -1.467500e+00
   endloop
 endfacet
 facet normal  0.000000e+00 -0.000000e+00 -1.000000e+00
   outer loop
     vertex  7.618961e-01 -3.745358e+00 -1.467500e+00
     vertex  1.571630e+00 -4.212858e+00 -1.467500e+00
     vertex  6.041299e-01 -5.888617e+00 -1.467500e+00
   endloop
 endfacet
 facet normal  0.000000e+00  0.000000e+00  1.000000e+00
   outer loop
     vertex  7.618961e-01 -3.745358e+00 -1.032500e+00
     vertex -2.056039e-01 -5.421117e+00 -1.032500e+00
     vertex  6.041299e-01 -5.888617e+00 -1.032500e+00
   endloop
 endfacet
 facet normal  0.000000e+00  0.000000e+00  1.000000e+00
   outer loop
     vertex  7.618961e-01 -3.745358e+00 -1.032500e+00
     vertex  6.041299e-01 -5.888617e+00 -1.032500e+00
     vertex  1.571630e+00 -4.212858e+00 -1.032500e+00
   endloop
 endfacet
 facet normal -5.000000e-01 -8.660254e-01 -0.000000e+00
   outer loop
     vertex  6.041299e-01 -5.888617e+00 -2.032500e+00
     vertex -2.056039e-01 -5.421117e+00 -2.467500e+00
     vertex  6.041299e-01 -5.888617e+00 -2.467500e+00
   endloop
 endfacet
 facet normal -5.000000e-01 -8.660254e-01  0.000000e+00
   outer loop
     vertex  6.041299e-01 -5.888617e+00 -2.032500e+00
     vertex -2.056039e-01 -5.421117e+00 -2.032500e+00
     vertex -2.056039e-01 -5.421117e+00 -2.467500e+00
   endloop
 endfacet
 facet normal  5.000000e-01  8.660254e-01  0.000000e+00
   outer loop
     vertex  1.571630e+00 -4.212858e+00 -2.032500e+00
     vertex  1.571630e+00 -4.212858e+00 -2.467500e+00
     vertex  7.618961e-01 -3.745358e+00 -2.467500e+00
   endloop
 endfacet
 facet normal  5.000000e-01  8.660254e-01  0.000000e+00
   outer loop
     vertex  1.571630e+00 -4.212858e+00 -2.032500e+00
     vertex  7.618961e-01 -3.745358e+00 -2.467500e+00
     vertex  7.618961e-01 -3.745358e+00 -2.032500e+00
   endloop
 endfacet
 facet normal  8.660254e-01 -5.000000e-01  0.000000e+00
   outer loop
     vertex  1.571630e+00 -4.212858e+00 -2.032500e+00
     vertex  6.041299e-01 -5.888617e+00 -2.467500e+00
     vertex  1.571630e+00 -4.212858e+00 -2.467500e+00
   endloop
 endfacet
 facet normal  8.660254e-01 -5.000000e-01  0.000000e+00
   outer loop
     vertex  1.571630e+00 -4.212858e+00 -2.032500e+00
     vertex  6.041299e-01 -5.888617e+00 -2.032500e+00
     vertex  6.041299e-01 -5.888617e+00 -2.467500e+00
   endloop
 endfacet
 facet normal -8.660254e-01  5.000000e-01  0.000000e+00
   outer loop
     vertex  7.618961e-01 -3.745358e+00 -2.032500e+00
     vertex  7.618961e-01 -3.745358e+00 -2.467500e+00
     vertex -2.056039e-01 -5.421117e+00 -2.467500e+00
   endloop
 endfacet
 facet normal -8.660254e-01  5.000000e-01  0.000000e+00
   outer loop
     vertex  7.618961e-01 -3.745358e+00 -2.032500e+00
     vertex -2.056039e-01 -5.421117e+00 -2.467500e+00
     vertex -2.056039e-01 -5.421117e+00 -2.032500e+00
   endloop
 endfacet
 facet normal  0.000000e+00  0.000000e+00 -1.000000e+00
   outer loop
     vertex  7.618961e-01 -3.745358e+00 -2.467500e+00
     vertex  6.041299e-01 -5.888617e+00 -2.467500e+00
     vertex -2.056039e-01 -5.421117e+00 -2.467500e+00
   endloop
 endfacet
 facet normal  0.000000e+00 -0.000000e+00 -1.000000e+00
   outer loop
     vertex  7.618961e-01 -3.745358e+00 -2.467500e+00
     vertex  1.571630e+00 -4.212858e+00 -2.467500e+00
     vertex  6.041299e-01 -5.888617e+00 -2.467500e+00
   endloop
 endfacet
 facet normal  0.000000e+00  0.000000e+00  1.000000e+00
   outer loop
     vertex  7.618961e-01 -3.745358e+00 -2.032500e+00
     vertex -2.056039e-01 -5.421117e+00 -2.032500e+00
     vertex  6.041299e-01 -5.888617e+00 -2.032500e+00
   endloop
 endfacet
 facet normal  0.000000e+00  0.000000e+00  1.000000e+00
   outer loop
     vertex  7.618961e-01 -3.745358e+00 -2.032500e+00
     vertex  6.041299e-01 -5.888617e+00 -2.032500e+00
     vertex  1.571630e+00 -4.212858e+00 -2.032500e+00
   endloop
 endfacet
 facet normal  8.660254e-01 -5.000000e-01  0.000000e+00
   outer loop
     vertex  1.937655e+00 -5.078883e+00 -1.532500e+00
     vertex  1.470155e+00 -5.888617e+00 -1.967500e+00
     vertex  1.937655e+00 -5.078883e+00 -1.967500e+00
   endloop
 endfacet
 facet normal  8.660254e-01 -5.000000e-01  0.000000e+00
   outer loop
     vertex  1.937655e+00 -5.078883e+00 -1.532500e+00
     vertex  1.470155e+00 -5.888617e+00 -1.532500e+00
     vertex  1.470155e+00 -5.888617e+00 -1.967500e+00
   endloop
 endfacet
 facet normal -8.660254e-01  5.000000e-01  0.000000e+00
   outer loop
     vertex  2.618959e-01 -4.111383e+00 -1.532500e+00
     vertex  2.618959e-01 -4.111383e+00 -1.967500e+00
     vertex -2.056041e-01 -4.921117e+00 -1.967500e+00
   endloop
 endfacet
 facet normal -8.660254e-01  5.000000e-01  0.000000e+00
   outer loop
     vertex  2.618959e-01 -4.111383e+00 -1.532500e+00
     vertex -2.056041e-01 -4.921117e+00 -1.967500e+00
     vertex -2.056041e-01 -4.921117e+00 -1.532500e+00
   endloop
 endfacet
 facet normal  5.000000e-01  8.660254e-01  0.000000e+00
   outer loop
     vertex  2.618959e-01 -4.111383e+00 -1.532500e+00
     vertex  1.937655e+00 -5.078883e+00 -1.967500e+00
     vertex  2.618959e-01 -4.111383e+00 -1.967500e+00
   endloop
 endfacet
 facet normal  5.000000e-01  8.660254e-01  0.000000e+00
   outer loop
     vertex  2.618959e-01 -4.111383e+00 -1.532500e+00
     vertex  1.937655e+00 -5.078883e+00 -1.532500e+00
     vertex  1.937655e+00 -5.078883e+00 -1.967500e+00
   endloop
 endfacet
 facet normal -5.000000e-01 -8.660254e-01 -0.000000e+00
   outer loop
     vertex -2.056041e-01 -4.921117e+00 -1.532500e+00
     vertex -2.056041e-01 -4.921117e+00 -1.967500e+00
     vertex  1.470155e+00 -5.888617e+00 -1.967500e+00
   endloop
 endfacet
 facet normal -5.000000e-01 -8.660254e-01  0.000000e+00
   outer loop
     vertex -2.056041e-01 -4.921117e+00 -1.532500e+00
     vertex  1.470155e+00 -5.888617e+00 -1.967500e+00
     vertex  1.470155e+00 -5.888617e+00 -1.532500e+00
   endloop
 endfacet
 facet normal  0.000000e+00  0.000000e+00 -1.000000e+00
   outer loop
     vertex -2.056041e-01 -4.921117e+00 -1.967500e+00
     vertex  1.937655e+00 -5.078883e+00 -1.967500e+00
     vertex  1.470155e+00 -5.888617e+00 -1.967500e+00
   endloop
 endfacet
 facet normal  0.000000e+00  0.000000e+00 -1.000000e+00
   outer loop
     vertex -2.056041e-01 -4.921117e+00 -1.967500e+00
     vertex  2.618959e-01 -4.111383e+00 -1.967500e+00
     vertex  1.937655e+00 -5.078883e+00 -1.967500e+00
   endloop
 endfacet
 facet normal  0.000000e+00  0.000000e+00  1.000000e+00
   outer loop
     vertex -2.056041e-01 -4.921117e+00 -1.532500e+00
     vertex  1.470155e+00 -5.888617e+00 -1.532500e+00
     vertex  1.937655e+00 -5.078883e+00 -1.532500e+00
   endloop
 endfacet
 facet normal -0.000000e+00  0.000000e+00  1.000000e+00
   outer loop
     vertex -2.056041e-01 -4.921117e+00 -1.532500e+00
     vertex  1.937655e+00 -5.078883e+00 -1.532500e+00
     vertex  2.618959e-01 -4.111383e+00 -1.532500e+00
   endloop
 endfacet
endsolid
