solid 
 facet normal -2.500000e-01 -8.660254e-01  4.330127e-01
   outer loop
     vertex  2.796033e+00 -7.651757e+00  9.212830e-02
     vertex  2.014445e+00 -7.184257e+00  5.758783e-01
     vertex  2.419312e+00 -7.651757e+00 -1.253717e-01
   endloop
 endfacet
 facet normal -2.500000e-01 -8.660254e-01  4.330127e-01
   outer loop
     vertex  2.796033e+00 -7.651757e+00  9.212830e-02
     vertex  2.391166e+00 -7.184257e+00  7.933783e-01
     vertex  2.014445e+00 -7.184257e+00  5.758783e-01
   endloop
 endfacet
 facet normal  2.500000e-01  8.660254e-01 -4.330127e-01
   outer loop
     vertex  3.279783e+00 -5.975997e+00 -7.457513e-01
     vertex  2.903062e+00 -5.975997e+00 -9.632513e-01
     vertex  2.498195e+00 -5.508497e+00 -2.620013e-01
   endloop
 endfacet
 facet normal  2.500000e-01  8.660254e-01 -4.330127e-01
   outer loop
     vertex  3.279783e+00 -5.975997e+00 -7.457513e-01
     vertex  2.498195e+00 -5.508497e+00 -2.620013e-01
     vertex  2.874916e+00 -5.508497e+00 -4.450128e-02
   endloop
 endfacet
 facet normal  4.330127e-01 -5.000000e-01 -7.500000e-01
   outer loop
     vertex  3.279783e+00 -5.975997e+00 -7.457513e-01
     vertex  2.419312e+00 -7.651757e+00 -1.253717e-01
     vertex  2.903062e+00 -5.975997e+00 -9.632513e-01
   endloop
 endfacet
 facet normal  4.330127e-01 -5.000000e-01 -7.500000e-01
   outer loop
     vertex  3.279783e+00 -5.975997e+00 -7.457513e-01
     vertex  2.796033e+00 -7.651757e+00  9.212830e-02
     vertex  2.419312e+00 -7.651757e+00 -1.253717e-01
   endloop
 endfacet
 facet normal -4.330127e-01  5.000000e-01  7.500000e-01
   outer loop
     vertex  2.874916e+00 -5.508497e+00 -4.450128e-02
     vertex  2.498195e+00 -5.508497e+00 -2.620013e-01
     vertex  2.014445e+00 -7.184257e+00  5.758783e-01
   endloop
 endfacet
 facet normal -4.330127e-01  5.000000e-01  7.500000e-01
   outer loop
     vertex  2.874916e+00 -5.508497e+00 -4.450128e-02
     vertex  2.014445e+00 -7.184257e+00  5.758783e-01
     vertex  2.391166e+00 -7.184257e+00  7.933783e-01
   endloop
 endfacet
 facet normal -8.660254e-01  1.534114e-17 -5.000000e-01
   outer loop
     vertex  2.498195e+00 -5.508497e+00 -2.620013e-01
     vertex  2.419312e+00 -7.651757e+00 -1.253717e-01
     vertex  2.014445e+00 -7.184257e+00  5.758783e-01
   endloop
 endfacet
 facet normal -8.660254e-01  5.369399e-17 -5.000000e-01
   outer loop
     vertex  2.498195e+00 -5.508497e+00 -2.620013e-01
     vertex  2.903062e+00 -5.975997e+00 -9.632513e-01
     vertex  2.419312e+00 -7.651757e+00 -1.253717e-01
   endloop
 endfacet
 facet normal  8.660254e-01 -1.457408e-16  5.000000e-01
   outer loop
     vertex  2.874916e+00 -5.508497e+00 -4.450128e-02
     vertex  2.391166e+00 -7.184257e+00  7.933783e-01
     vertex  2.796033e+00 -7.651757e+00  9.212830e-02
   endloop
 endfacet
 facet normal  8.660254e-01 -9.204685e-17  5.000000e-01
   outer loop
     vertex  2.874916e+00 -5.508497e+00 -4.450128e-02
     vertex  2.796033e+00 -7.651757e+00  9.212830e-02
     vertex  3.279783e+00 -5.975997e+00 -7.457513e-01
   endloop
 endfacet
 facet normal -4.330127e-01  5.000000e-01  7.500000e-01
   outer loop
     vertex  1.958154e+00 -7.184257e+00  5.433783e-01
     vertex  1.815183e+00 -6.374523e+00 -7.898858e-02
     vertex  1.581433e+00 -7.184257e+00  3.258783e-01
   endloop
 endfacet
 facet normal -4.330127e-01  5.000000e-01  7.500000e-01
   outer loop
     vertex  1.958154e+00 -7.184257e+00  5.433783e-01
     vertex  2.191904e+00 -6.374523e+00  1.385114e-01
     vertex  1.815183e+00 -6.374523e+00 -7.898858e-02
   endloop
 endfacet
 facet normal  4.330127e-01 -5.000000e-01 -7.500000e-01
   outer loop
     vertex  2.796033e+00 -8.151757e+00 -9.078717e-01
     vertex  2.419312e+00 -8.151757e+00 -1.125372e+00
     vertex  2.653062e+00 -7.342023e+00 -1.530239e+00
   endloop
 endfacet
 facet normal  4.330127e-01 -5.000000e-01 -7.500000e-01
   outer loop
     vertex  2.796033e+00 -8.151757e+00 -9.078717e-01
     vertex  2.653062e+00 -7.342023e+00 -1.530239e+00
     vertex  3.029783e+00 -7.342023e+00 -1.312739e+00
   endloop
 endfacet
 facet normal -2.500000e-01 -8.660254e-01  4.330127e-01
   outer loop
     vertex  2.796033e+00 -8.151757e+00 -9.078717e-01
     vertex  1.581433e+00 -7.184257e+00  3.258783e-01
     vertex  2.419312e+00 -8.151757e+00 -1.125372e+00
   endloop
 endfacet
 facet normal -2.500000e-01 -8.660254e-01  4.330127e-01
   outer loop
     vertex  2.796033e+00 -8.151757e+00 -9.078717e-01
     vertex  1.958154e+00 -7.184257e+00  5.433783e-01
     vertex  1.581433e+00 -7.184257e+00  3.258783e-01
   endloop
 endfacet
 facet normal  2.500000e-01  8.660254e-01 -4.330127e-01
   outer loop
     vertex  3.029783e+00 -7.342023e+00 -1.312739e+00
     vertex  2.653062e+00 -7.342023e+00 -1.530239e+00
     vertex  1.815183e+00 -6.374523e+00 -7.898858e-02
   endloop
 endfacet
 facet normal  2.500000e-01  8.660254e-01 -4.330127e-01
   outer loop
     vertex  3.029783e+00 -7.342023e+00 -1.312739e+00
     vertex  1.815183e+00 -6.374523e+00 -7.898858e-02
     vertex  2.191904e+00 -6.374523e+00  1.385114e-01
   endloop
 endfacet
 facet normal -8.660254e-01  0.000000e+00 -5.000000e-01
   outer loop
     vertex  2.653062e+00 -7.342023e+00 -1.530239e+00
     vertex  1.581433e+00 -7.184257e+00  3.258783e-01
     vertex  1.815183e+00 -6.374523e+00 -7.898858e-02
   endloop
 endfacet
 facet normal -8.660254e-01 -5.215988e-16 -5.000000e-01
   outer loop
     vertex  2.653062e+00 -7.342023e+00 -1.530239e+00
     vertex  2.419312e+00 -8.151757e+00 -1.125372e+00
     vertex  1.581433e+00 -7.184257e+00  3.258783e-01
   endloop
 endfacet
 facet normal  8.660254e-01 -2.454583e-16  5.000000e-01
   outer loop
     vertex  3.029783e+00 -7.342023e+00 -1.312739e+00
     vertex  2.191904e+00 -6.374523e+00  1.385114e-01
     vertex  1.958154e+00 -7.184257e+00  5.433783e-01
   endloop
 endfacet
 facet normal  8.660254e-01 -7.670570e-16  5.000000e-01
   outer loop
     vertex  3.029783e+00 -7.342023e+00 -1.312739e+00
     vertex  1.958154e+00 -7.184257e+00  5.433783e-01
     vertex  2.796033e+00 -8.151757e+00 -9.078717e-01
   endloop
 endfacet
 facet normal -2.500000e-01 -8.660254e-01  4.330127e-01
   outer loop
     vertex  1.930008e+00 -7.651757e+00 -4.078717e-01
     vertex  1.148420e+00 -7.184257e+00  7.587830e-02
     vertex  1.553287e+00 -7.651757e+00 -6.253717e-01
   endloop
 endfacet
 facet normal -2.500000e-01 -8.660254e-01  4.330127e-01
   outer loop
     vertex  1.930008e+00 -7.651757e+00 -4.078717e-01
     vertex  1.525141e+00 -7.184257e+00  2.933783e-01
     vertex  1.148420e+00 -7.184257e+00  7.587830e-02
   endloop
 endfacet
 facet normal  2.500000e-01  8.660254e-01 -4.330127e-01
   outer loop
     vertex  2.413758e+00 -5.975997e+00 -1.245751e+00
     vertex  2.037037e+00 -5.975997e+00 -1.463251e+00
     vertex  1.632170e+00 -5.508497e+00 -7.620013e-01
   endloop
 endfacet
 facet normal  2.500000e-01  8.660254e-01 -4.330127e-01
   outer loop
     vertex  2.413758e+00 -5.975997e+00 -1.245751e+00
     vertex  1.632170e+00 -5.508497e+00 -7.620013e-01
     vertex  2.008891e+00 -5.508497e+00 -5.445013e-01
   endloop
 endfacet
 facet normal  4.330127e-01 -5.000000e-01 -7.500000e-01
   outer loop
     vertex  2.413758e+00 -5.975997e+00 -1.245751e+00
     vertex  1.553287e+00 -7.651757e+00 -6.253717e-01
     vertex  2.037037e+00 -5.975997e+00 -1.463251e+00
   endloop
 endfacet
 facet normal  4.330127e-01 -5.000000e-01 -7.500000e-01
   outer loop
     vertex  2.413758e+00 -5.975997e+00 -1.245751e+00
     vertex  1.930008e+00 -7.651757e+00 -4.078717e-01
     vertex  1.553287e+00 -7.651757e+00 -6.253717e-01
   endloop
 endfacet
 facet normal -4.330127e-01  5.000000e-01  7.500000e-01
   outer loop
     vertex  2.008891e+00 -5.508497e+00 -5.445013e-01
     vertex  1.632170e+00 -5.508497e+00 -7.620013e-01
     vertex  1.148420e+00 -7.184257e+00  7.587830e-02
   endloop
 endfacet
 facet normal -4.330127e-01  5.000000e-01  7.500000e-01
   outer loop
     vertex  2.008891e+00 -5.508497e+00 -5.445013e-01
     vertex  1.148420e+00 -7.184257e+00  7.587830e-02
     vertex  1.525141e+00 -7.184257e+00  2.933783e-01
   endloop
 endfacet
 facet normal -8.660254e-01  8.437627e-17 -5.000000e-01
   outer loop
     vertex  1.632170e+00 -5.508497e+00 -7.620013e-01
     vertex  1.553287e+00 -7.651757e+00 -6.253717e-01
     vertex  1.148420e+00 -7.184257e+00  7.587830e-02
   endloop
 endfacet
 facet normal -8.660254e-01  1.035527e-16 -5.000000e-01
   outer loop
     vertex  1.632170e+00 -5.508497e+00 -7.620013e-01
     vertex  2.037037e+00 -5.975997e+00 -1.463251e+00
     vertex  1.553287e+00 -7.651757e+00 -6.253717e-01
   endloop
 endfacet
 facet normal  8.660254e-01 -1.687525e-16  5.000000e-01
   outer loop
     vertex  2.008891e+00 -5.508497e+00 -5.445013e-01
     vertex  1.525141e+00 -7.184257e+00  2.933783e-01
     vertex  1.930008e+00 -7.651757e+00 -4.078717e-01
   endloop
 endfacet
 facet normal  8.660254e-01 -1.879290e-16  5.000000e-01
   outer loop
     vertex  2.008891e+00 -5.508497e+00 -5.445013e-01
     vertex  1.930008e+00 -7.651757e+00 -4.078717e-01
     vertex  2.413758e+00 -5.975997e+00 -1.245751e+00
   endloop
 endfacet
 facet normal -4.330127e-01  5.000000e-01  7.500000e-01
   outer loop
     vertex  1.092128e+00 -7.184257e+00  4.337830e-02
     vertex  9.491572e-01 -6.374523e+00 -5.789886e-01
     vertex  7.154072e-01 -7.184257e+00 -1.741217e-01
   endloop
 endfacet
 facet normal -4.330127e-01  5.000000e-01  7.500000e-01
   outer loop
     vertex  1.092128e+00 -7.184257e+00  4.337830e-02
     vertex  1.325878e+00 -6.374523e+00 -3.614886e-01
     vertex  9.491572e-01 -6.374523e+00 -5.789886e-01
   endloop
 endfacet
 facet normal  4.330127e-01 -5.000000e-01 -7.500000e-01
   outer loop
     vertex  1.930008e+00 -8.151757e+00 -1.407872e+00
     vertex  1.553287e+00 -8.151757e+00 -1.625372e+00
     vertex  1.787037e+00 -7.342023e+00 -2.030239e+00
   endloop
 endfacet
 facet normal  4.330127e-01 -5.000000e-01 -7.500000e-01
   outer loop
     vertex  1.930008e+00 -8.151757e+00 -1.407872e+00
     vertex  1.787037e+00 -7.342023e+00 -2.030239e+00
     vertex  2.163758e+00 -7.342023e+00 -1.812739e+00
   endloop
 endfacet
 facet normal -2.500000e-01 -8.660254e-01  4.330127e-01
   outer loop
     vertex  1.930008e+00 -8.151757e+00 -1.407872e+00
     vertex  7.154072e-01 -7.184257e+00 -1.741217e-01
     vertex  1.553287e+00 -8.151757e+00 -1.625372e+00
   endloop
 endfacet
 facet normal -2.500000e-01 -8.660254e-01  4.330127e-01
   outer loop
     vertex  1.930008e+00 -8.151757e+00 -1.407872e+00
     vertex  1.092128e+00 -7.184257e+00  4.337830e-02
     vertex  7.154072e-01 -7.184257e+00 -1.741217e-01
   endloop
 endfacet
 facet normal  2.500000e-01  8.660254e-01 -4.330127e-01
   outer loop
     vertex  2.163758e+00 -7.342023e+00 -1.812739e+00
     vertex  1.787037e+00 -7.342023e+00 -2.030239e+00
     vertex  9.491572e-01 -6.374523e+00 -5.789886e-01
   endloop
 endfacet
 facet normal  2.500000e-01  8.660254e-01 -4.330127e-01
   outer loop
     vertex  2.163758e+00 -7.342023e+00 -1.812739e+00
     vertex  9.491572e-01 -6.374523e+00 -5.789886e-01
     vertex  1.325878e+00 -6.374523e+00 -3.614886e-01
   endloop
 endfacet
 facet normal -8.660254e-01  1.227291e-16 -5.000000e-01
   outer loop
     vertex  1.787037e+00 -7.342023e+00 -2.030239e+00
     vertex  7.154072e-01 -7.184257e+00 -1.741217e-01
     vertex  9.491572e-01 -6.374523e+00 -5.789886e-01
   endloop
 endfacet
 facet normal -8.660254e-01 -2.147760e-16 -5.000000e-01
   outer loop
     vertex  1.787037e+00 -7.342023e+00 -2.030239e+00
     vertex  1.553287e+00 -8.151757e+00 -1.625372e+00
     vertex  7.154072e-01 -7.184257e+00 -1.741217e-01
   endloop
 endfacet
 facet normal  8.660254e-01 -2.454583e-16  5.000000e-01
   outer loop
     vertex  2.163758e+00 -7.342023e+00 -1.812739e+00
     vertex  1.325878e+00 -6.374523e+00 -3.614886e-01
     vertex  1.092128e+00 -7.184257e+00  4.337830e-02
   endloop
 endfacet
 facet normal  8.660254e-01 -9.204685e-17  5.000000e-01
   outer loop
     vertex  2.163758e+00 -7.342023e+00 -1.812739e+00
     vertex  1.092128e+00 -7.184257e+00  4.337830e-02
     vertex  1.930008e+00 -8.151757e+00 -1.407872e+00
   endloop
 endfacet
 facet normal -2.500000e-01 -8.660254e-01  4.330127e-01
   outer loop
     vertex  1.063982e+00 -7.651757e+00 -9.078717e-01
     vertex  2.823945e-01 -7.184257e+00 -4.241217e-01
     vertex  6.872614e-01 -7.651757e+00 -1.125372e+00
   endloop
 endfacet
 facet normal -2.500000e-01 -8.660254e-01  4.330127e-01
   outer loop
     vertex  1.063982e+00 -7.651757e+00 -9.078717e-01
     vertex  6.591156e-01 -7.184257e+00 -2.066217e-01
     vertex  2.823945e-01 -7.184257e+00 -4.241217e-01
   endloop
 endfacet
 facet normal  2.500000e-01  8.660254e-01 -4.330127e-01
   outer loop
     vertex  1.547732e+00 -5.975997e+00 -1.745751e+00
     vertex  1.171011e+00 -5.975997e+00 -1.963251e+00
     vertex  7.661445e-01 -5.508497e+00 -1.262001e+00
   endloop
 endfacet
 facet normal  2.500000e-01  8.660254e-01 -4.330127e-01
   outer loop
     vertex  1.547732e+00 -5.975997e+00 -1.745751e+00
     vertex  7.661445e-01 -5.508497e+00 -1.262001e+00
     vertex  1.142866e+00 -5.508497e+00 -1.044501e+00
   endloop
 endfacet
 facet normal  4.330127e-01 -5.000000e-01 -7.500000e-01
   outer loop
     vertex  1.547732e+00 -5.975997e+00 -1.745751e+00
     vertex  6.872614e-01 -7.651757e+00 -1.125372e+00
     vertex  1.171011e+00 -5.975997e+00 -1.963251e+00
   endloop
 endfacet
 facet normal  4.330127e-01 -5.000000e-01 -7.500000e-01
   outer loop
     vertex  1.547732e+00 -5.975997e+00 -1.745751e+00
     vertex  1.063982e+00 -7.651757e+00 -9.078717e-01
     vertex  6.872614e-01 -7.651757e+00 -1.125372e+00
   endloop
 endfacet
 facet normal -4.330127e-01  5.000000e-01  7.500000e-01
   outer loop
     vertex  1.142866e+00 -5.508497e+00 -1.044501e+00
     vertex  7.661445e-01 -5.508497e+00 -1.262001e+00
     vertex  2.823945e-01 -7.184257e+00 -4.241217e-01
   endloop
 endfacet
 facet normal -4.330127e-01  5.000000e-01  7.500000e-01
   outer loop
     vertex  1.142866e+00 -5.508497e+00 -1.044501e+00
     vertex  2.823945e-01 -7.184257e+00 -4.241217e-01
     vertex  6.591156e-01 -7.184257e+00 -2.066217e-01
   endloop
 endfacet
 facet normal -8.660254e-01  1.687525e-16 -5.000000e-01
   outer loop
     vertex  7.661445e-01 -5.508497e+00 -1.262001e+00
     vertex  6.872614e-01 -7.651757e+00 -1.125372e+00
     vertex  2.823945e-01 -7.184257e+00 -4.241217e-01
   endloop
 endfacet
 facet normal -8.660254e-01  1.879290e-16 -5.000000e-01
   outer loop
     vertex  7.661445e-01 -5.508497e+00 -1.262001e+00
     vertex  1.171011e+00 -5.975997e+00 -1.963251e+00
     vertex  6.872614e-01 -7.651757e+00 -1.125372e+00
   endloop
 endfacet
 facet normal  8.660254e-01 -4.602342e-17  5.000000e-01
   outer loop
     vertex  1.142866e+00 -5.508497e+00 -1.044501e+00
     vertex  6.591156e-01 -7.184257e+00 -2.066217e-01
     vertex  1.063982e+00 -7.651757e+00 -9.078717e-01
   endloop
 endfacet
 facet normal  8.660254e-01 -5.369399e-17  5.000000e-01
   outer loop
     vertex  1.142866e+00 -5.508497e+00 -1.044501e+00
     vertex  1.063982e+00 -7.651757e+00 -9.078717e-01
     vertex  1.547732e+00 -5.975997e+00 -1.745751e+00
   endloop
 endfacet
 facet normal -4.330127e-01  5.000000e-01  7.500000e-01
   outer loop
     vertex  2.261029e-01 -7.184257e+00 -4.566217e-01
     vertex  8.313184e-02 -6.374523e+00 -1.078989e+00
     vertex -1.506182e-01 -7.184257e+00 -6.741217e-01
   endloop
 endfacet
 facet normal -4.330127e-01  5.000000e-01  7.500000e-01
   outer loop
     vertex  2.261029e-01 -7.184257e+00 -4.566217e-01
     vertex  4.598529e-01 -6.374523e+00 -8.614886e-01
     vertex  8.313184e-02 -6.374523e+00 -1.078989e+00
   endloop
 endfacet
 facet normal  4.330127e-01 -5.000000e-01 -7.500000e-01
   outer loop
     vertex  1.063982e+00 -8.151757e+00 -1.907872e+00
     vertex  6.872614e-01 -8.151757e+00 -2.125372e+00
     vertex  9.210114e-01 -7.342023e+00 -2.530239e+00
   endloop
 endfacet
 facet normal  4.330127e-01 -5.000000e-01 -7.500000e-01
   outer loop
     vertex  1.063982e+00 -8.151757e+00 -1.907872e+00
     vertex  9.210114e-01 -7.342023e+00 -2.530239e+00
     vertex  1.297732e+00 -7.342023e+00 -2.312739e+00
   endloop
 endfacet
 facet normal -2.500000e-01 -8.660254e-01  4.330127e-01
   outer loop
     vertex  1.063982e+00 -8.151757e+00 -1.907872e+00
     vertex -1.506182e-01 -7.184257e+00 -6.741217e-01
     vertex  6.872614e-01 -8.151757e+00 -2.125372e+00
   endloop
 endfacet
 facet normal -2.500000e-01 -8.660254e-01  4.330127e-01
   outer loop
     vertex  1.063982e+00 -8.151757e+00 -1.907872e+00
     vertex  2.261029e-01 -7.184257e+00 -4.566217e-01
     vertex -1.506182e-01 -7.184257e+00 -6.741217e-01
   endloop
 endfacet
 facet normal  2.500000e-01  8.660254e-01 -4.330127e-01
   outer loop
     vertex  1.297732e+00 -7.342023e+00 -2.312739e+00
     vertex  9.210114e-01 -7.342023e+00 -2.530239e+00
     vertex  8.313184e-02 -6.374523e+00 -1.078989e+00
   endloop
 endfacet
 facet normal  2.500000e-01  8.660254e-01 -4.330127e-01
   outer loop
     vertex  1.297732e+00 -7.342023e+00 -2.312739e+00
     vertex  8.313184e-02 -6.374523e+00 -1.078989e+00
     vertex  4.598529e-01 -6.374523e+00 -8.614886e-01
   endloop
 endfacet
 facet normal -8.660254e-01  1.227291e-16 -5.000000e-01
   outer loop
     vertex  9.210114e-01 -7.342023e+00 -2.530239e+00
     vertex -1.506182e-01 -7.184257e+00 -6.741217e-01
     vertex  8.313184e-02 -6.374523e+00 -1.078989e+00
   endloop
 endfacet
 facet normal -8.660254e-01 -6.136456e-17 -5.000000e-01
   outer loop
     vertex  9.210114e-01 -7.342023e+00 -2.530239e+00
     vertex  6.872614e-01 -8.151757e+00 -2.125372e+00
     vertex -1.506182e-01 -7.184257e+00 -6.741217e-01
   endloop
 endfacet
 facet normal  8.660254e-01 -2.454583e-16  5.000000e-01
   outer loop
     vertex  1.297732e+00 -7.342023e+00 -2.312739e+00
     vertex  4.598529e-01 -6.374523e+00 -8.614886e-01
     vertex  2.261029e-01 -7.184257e+00 -4.566217e-01
   endloop
 endfacet
 facet normal  8.660254e-01  2.454583e-16  5.000000e-01
   outer loop
     vertex  1.297732e+00 -7.342023e+00 -2.312739e+00
     vertex  2.261029e-01 -7.184257e+00 -4.566217e-01
     vertex  1.063982e+00 -8.151757e+00 -1.907872e+00
   endloop
 endfacet
 facet normal -2.500000e-01 -8.660254e-01  4.330127e-01
   outer loop
     vertex  1.979571e-01 -7.651757e+00 -1.407872e+00
     vertex -5.836309e-01 -7.184257e+00 -9.241217e-01
     vertex -1.787640e-01 -7.651757e+00 -1.625372e+00
   endloop
 endfacet
 facet normal -2.500000e-01 -8.660254e-01  4.330127e-01
   outer loop
     vertex  1.979571e-01 -7.651757e+00 -1.407872e+00
     vertex -2.069098e-01 -7.184257e+00 -7.066217e-01
     vertex -5.836309e-01 -7.184257e+00 -9.241217e-01
   endloop
 endfacet
 facet normal  2.500000e-01  8.660254e-01 -4.330127e-01
   outer loop
     vertex  6.817071e-01 -5.975997e+00 -2.245751e+00
     vertex  3.049860e-01 -5.975997e+00 -2.463251e+00
     vertex -9.988086e-02 -5.508497e+00 -1.762001e+00
   endloop
 endfacet
 facet normal  2.500000e-01  8.660254e-01 -4.330127e-01
   outer loop
     vertex  6.817071e-01 -5.975997e+00 -2.245751e+00
     vertex -9.988086e-02 -5.508497e+00 -1.762001e+00
     vertex  2.768402e-01 -5.508497e+00 -1.544501e+00
   endloop
 endfacet
 facet normal  4.330127e-01 -5.000000e-01 -7.500000e-01
   outer loop
     vertex  6.817071e-01 -5.975997e+00 -2.245751e+00
     vertex -1.787640e-01 -7.651757e+00 -1.625372e+00
     vertex  3.049860e-01 -5.975997e+00 -2.463251e+00
   endloop
 endfacet
 facet normal  4.330127e-01 -5.000000e-01 -7.500000e-01
   outer loop
     vertex  6.817071e-01 -5.975997e+00 -2.245751e+00
     vertex  1.979571e-01 -7.651757e+00 -1.407872e+00
     vertex -1.787640e-01 -7.651757e+00 -1.625372e+00
   endloop
 endfacet
 facet normal -4.330127e-01  5.000000e-01  7.500000e-01
   outer loop
     vertex  2.768402e-01 -5.508497e+00 -1.544501e+00
     vertex -9.988086e-02 -5.508497e+00 -1.762001e+00
     vertex -5.836309e-01 -7.184257e+00 -9.241217e-01
   endloop
 endfacet
 facet normal -4.330127e-01  5.000000e-01  7.500000e-01
   outer loop
     vertex  2.768402e-01 -5.508497e+00 -1.544501e+00
     vertex -5.836309e-01 -7.184257e+00 -9.241217e-01
     vertex -2.069098e-01 -7.184257e+00 -7.066217e-01
   endloop
 endfacet
 facet normal -8.660254e-01  1.073880e-16 -5.000000e-01
   outer loop
     vertex -9.988086e-02 -5.508497e+00 -1.762001e+00
     vertex -1.787640e-01 -7.651757e+00 -1.625372e+00
     vertex -5.836309e-01 -7.184257e+00 -9.241217e-01
   endloop
 endfacet
 facet normal -8.660254e-01  1.035527e-16 -5.000000e-01
   outer loop
     vertex -9.988086e-02 -5.508497e+00 -1.762001e+00
     vertex  3.049860e-01 -5.975997e+00 -2.463251e+00
     vertex -1.787640e-01 -7.651757e+00 -1.625372e+00
   endloop
 endfacet
 facet normal  8.660254e-01 -1.534114e-17  5.000000e-01
   outer loop
     vertex  2.768402e-01 -5.508497e+00 -1.544501e+00
     vertex -2.069098e-01 -7.184257e+00 -7.066217e-01
     vertex  1.979571e-01 -7.651757e+00 -1.407872e+00
   endloop
 endfacet
 facet normal  8.660254e-01 -1.534114e-17  5.000000e-01
   outer loop
     vertex  2.768402e-01 -5.508497e+00 -1.544501e+00
     vertex  1.979571e-01 -7.651757e+00 -1.407872e+00
     vertex  6.817071e-01 -5.975997e+00 -2.245751e+00
   endloop
 endfacet
 facet normal -4.330127e-01  5.000000e-01  7.500000e-01
   outer loop
     vertex -6.399225e-01 -7.184257e+00 -9.566217e-01
     vertex -7.828936e-01 -6.374523e+00 -1.578989e+00
     vertex -1.016644e+00 -7.184257e+00 -1.174122e+00
   endloop
 endfacet
 facet normal -4.330127e-01  5.000000e-01  7.500000e-01
   outer loop
     vertex -6.399225e-01 -7.184257e+00 -9.566217e-01
     vertex -4.061725e-01 -6.374523e+00 -1.361489e+00
     vertex -7.828936e-01 -6.374523e+00 -1.578989e+00
   endloop
 endfacet
 facet normal  4.330127e-01 -5.000000e-01 -7.500000e-01
   outer loop
     vertex  1.979571e-01 -8.151757e+00 -2.407872e+00
     vertex -1.787640e-01 -8.151757e+00 -2.625372e+00
     vertex  5.498602e-02 -7.342023e+00 -3.030239e+00
   endloop
 endfacet
 facet normal  4.330127e-01 -5.000000e-01 -7.500000e-01
   outer loop
     vertex  1.979571e-01 -8.151757e+00 -2.407872e+00
     vertex  5.498602e-02 -7.342023e+00 -3.030239e+00
     vertex  4.317071e-01 -7.342023e+00 -2.812739e+00
   endloop
 endfacet
 facet normal -2.500000e-01 -8.660254e-01  4.330127e-01
   outer loop
     vertex  1.979571e-01 -8.151757e+00 -2.407872e+00
     vertex -1.016644e+00 -7.184257e+00 -1.174122e+00
     vertex -1.787640e-01 -8.151757e+00 -2.625372e+00
   endloop
 endfacet
 facet normal -2.500000e-01 -8.660254e-01  4.330127e-01
   outer loop
     vertex  1.979571e-01 -8.151757e+00 -2.407872e+00
     vertex -6.399225e-01 -7.184257e+00 -9.566217e-01
     vertex -1.016644e+00 -7.184257e+00 -1.174122e+00
   endloop
 endfacet
 facet normal  2.500000e-01  8.660254e-01 -4.330127e-01
   outer loop
     vertex  4.317071e-01 -7.342023e+00 -2.812739e+00
     vertex  5.498602e-02 -7.342023e+00 -3.030239e+00
     vertex -7.828936e-01 -6.374523e+00 -1.578989e+00
   endloop
 endfacet
 facet normal  2.500000e-01  8.660254e-01 -4.330127e-01
   outer loop
     vertex  4.317071e-01 -7.342023e+00 -2.812739e+00
     vertex -7.828936e-01 -6.374523e+00 -1.578989e+00
     vertex -4.061725e-01 -6.374523e+00 -1.361489e+00
   endloop
 endfacet
 facet normal -8.660254e-01  0.000000e+00 -5.000000e-01
   outer loop
     vertex  5.498602e-02 -7.342023e+00 -3.030239e+00
     vertex -1.016644e+00 -7.184257e+00 -1.174122e+00
     vertex -7.828936e-01 -6.374523e+00 -1.578989e+00
   endloop
 endfacet
 facet normal -8.660254e-01 -3.068228e-17 -5.000000e-01
   outer loop
     vertex  5.498602e-02 -7.342023e+00 -3.030239e+00
     vertex -1.787640e-01 -8.151757e+00 -2.625372e+00
     vertex -1.016644e+00 -7.184257e+00 -1.174122e+00
   endloop
 endfacet
 facet normal  8.660254e-01 -4.909165e-16  5.000000e-01
   outer loop
     vertex  4.317071e-01 -7.342023e+00 -2.812739e+00
     vertex -4.061725e-01 -6.374523e+00 -1.361489e+00
     vertex -6.399225e-01 -7.184257e+00 -9.566217e-01
   endloop
 endfacet
 facet normal  8.660254e-01  2.454583e-16  5.000000e-01
   outer loop
     vertex  4.317071e-01 -7.342023e+00 -2.812739e+00
     vertex -6.399225e-01 -7.184257e+00 -9.566217e-01
     vertex  1.979571e-01 -8.151757e+00 -2.407872e+00
   endloop
 endfacet
 facet normal -2.500000e-01 -8.660254e-01  4.330127e-01
   outer loop
     vertex -6.680683e-01 -7.651757e+00 -1.907872e+00
     vertex -1.449656e+00 -7.184257e+00 -1.424122e+00
     vertex -1.044789e+00 -7.651757e+00 -2.125372e+00
   endloop
 endfacet
 facet normal -2.500000e-01 -8.660254e-01  4.330127e-01
   outer loop
     vertex -6.680683e-01 -7.651757e+00 -1.907872e+00
     vertex -1.072935e+00 -7.184257e+00 -1.206622e+00
     vertex -1.449656e+00 -7.184257e+00 -1.424122e+00
   endloop
 endfacet
 facet normal  2.500000e-01  8.660254e-01 -4.330127e-01
   outer loop
     vertex -1.843183e-01 -5.975997e+00 -2.745751e+00
     vertex -5.610394e-01 -5.975997e+00 -2.963251e+00
     vertex -9.659063e-01 -5.508497e+00 -2.262001e+00
   endloop
 endfacet
 facet normal  2.500000e-01  8.660254e-01 -4.330127e-01
   outer loop
     vertex -1.843183e-01 -5.975997e+00 -2.745751e+00
     vertex -9.659063e-01 -5.508497e+00 -2.262001e+00
     vertex -5.891852e-01 -5.508497e+00 -2.044501e+00
   endloop
 endfacet
 facet normal  4.330127e-01 -5.000000e-01 -7.500000e-01
   outer loop
     vertex -1.843183e-01 -5.975997e+00 -2.745751e+00
     vertex -1.044789e+00 -7.651757e+00 -2.125372e+00
     vertex -5.610394e-01 -5.975997e+00 -2.963251e+00
   endloop
 endfacet
 facet normal  4.330127e-01 -5.000000e-01 -7.500000e-01
   outer loop
     vertex -1.843183e-01 -5.975997e+00 -2.745751e+00
     vertex -6.680683e-01 -7.651757e+00 -1.907872e+00
     vertex -1.044789e+00 -7.651757e+00 -2.125372e+00
   endloop
 endfacet
 facet normal -4.330127e-01  5.000000e-01  7.500000e-01
   outer loop
     vertex -5.891852e-01 -5.508497e+00 -2.044501e+00
     vertex -9.659063e-01 -5.508497e+00 -2.262001e+00
     vertex -1.449656e+00 -7.184257e+00 -1.424122e+00
   endloop
 endfacet
 facet normal -4.330127e-01  5.000000e-01  7.500000e-01
   outer loop
     vertex -5.891852e-01 -5.508497e+00 -2.044501e+00
     vertex -1.449656e+00 -7.184257e+00 -1.424122e+00
     vertex -1.072935e+00 -7.184257e+00 -1.206622e+00
   endloop
 endfacet
 facet normal -8.660254e-01  1.687525e-16 -5.000000e-01
   outer loop
     vertex -9.659063e-01 -5.508497e+00 -2.262001e+00
     vertex -1.044789e+00 -7.651757e+00 -2.125372e+00
     vertex -1.449656e+00 -7.184257e+00 -1.424122e+00
   endloop
 endfacet
 facet normal -8.660254e-01  1.495761e-16 -5.000000e-01
   outer loop
     vertex -9.659063e-01 -5.508497e+00 -2.262001e+00
     vertex -5.610394e-01 -5.975997e+00 -2.963251e+00
     vertex -1.044789e+00 -7.651757e+00 -2.125372e+00
   endloop
 endfacet
 facet normal  8.660254e-01 -7.670570e-17  5.000000e-01
   outer loop
     vertex -5.891852e-01 -5.508497e+00 -2.044501e+00
     vertex -1.072935e+00 -7.184257e+00 -1.206622e+00
     vertex -6.680683e-01 -7.651757e+00 -1.907872e+00
   endloop
 endfacet
 facet normal  8.660254e-01 -4.602342e-17  5.000000e-01
   outer loop
     vertex -5.891852e-01 -5.508497e+00 -2.044501e+00
     vertex -6.680683e-01 -7.651757e+00 -1.907872e+00
     vertex -1.843183e-01 -5.975997e+00 -2.745751e+00
   endloop
 endfacet
 facet normal -4.330127e-01  5.000000e-01  7.500000e-01
   outer loop
     vertex -1.505948e+00 -7.184257e+00 -1.456622e+00
     vertex -1.648919e+00 -6.374523e+00 -2.078989e+00
     vertex -1.882669e+00 -7.184257e+00 -1.674122e+00
   endloop
 endfacet
 facet normal -4.330127e-01  5.000000e-01  7.500000e-01
   outer loop
     vertex -1.505948e+00 -7.184257e+00 -1.456622e+00
     vertex -1.272198e+00 -6.374523e+00 -1.861489e+00
     vertex -1.648919e+00 -6.374523e+00 -2.078989e+00
   endloop
 endfacet
 facet normal  4.330127e-01 -5.000000e-01 -7.500000e-01
   outer loop
     vertex -6.680683e-01 -8.151757e+00 -2.907872e+00
     vertex -1.044789e+00 -8.151757e+00 -3.125372e+00
     vertex -8.110394e-01 -7.342023e+00 -3.530239e+00
   endloop
 endfacet
 facet normal  4.330127e-01 -5.000000e-01 -7.500000e-01
   outer loop
     vertex -6.680683e-01 -8.151757e+00 -2.907872e+00
     vertex -8.110394e-01 -7.342023e+00 -3.530239e+00
     vertex -4.343183e-01 -7.342023e+00 -3.312739e+00
   endloop
 endfacet
 facet normal -2.500000e-01 -8.660254e-01  4.330127e-01
   outer loop
     vertex -6.680683e-01 -8.151757e+00 -2.907872e+00
     vertex -1.882669e+00 -7.184257e+00 -1.674122e+00
     vertex -1.044789e+00 -8.151757e+00 -3.125372e+00
   endloop
 endfacet
 facet normal -2.500000e-01 -8.660254e-01  4.330127e-01
   outer loop
     vertex -6.680683e-01 -8.151757e+00 -2.907872e+00
     vertex -1.505948e+00 -7.184257e+00 -1.456622e+00
     vertex -1.882669e+00 -7.184257e+00 -1.674122e+00
   endloop
 endfacet
 facet normal  2.500000e-01  8.660254e-01 -4.330127e-01
   outer loop
     vertex -4.343183e-01 -7.342023e+00 -3.312739e+00
     vertex -8.110394e-01 -7.342023e+00 -3.530239e+00
     vertex -1.648919e+00 -6.374523e+00 -2.078989e+00
   endloop
 endfacet
 facet normal  2.500000e-01  8.660254e-01 -4.330127e-01
   outer loop
     vertex -4.343183e-01 -7.342023e+00 -3.312739e+00
     vertex -1.648919e+00 -6.374523e+00 -2.078989e+00
     vertex -1.272198e+00 -6.374523e+00 -1.861489e+00
   endloop
 endfacet
 facet normal -8.660254e-01  1.227291e-16 -5.000000e-01
   outer loop
     vertex -8.110394e-01 -7.342023e+00 -3.530239e+00
     vertex -1.882669e+00 -7.184257e+00 -1.674122e+00
     vertex -1.648919e+00 -6.374523e+00 -2.078989e+00
   endloop
 endfacet
 facet normal -8.660254e-01  0.000000e+00 -5.000000e-01
   outer loop
     vertex -8.110394e-01 -7.342023e+00 -3.530239e+00
     vertex -1.044789e+00 -8.151757e+00 -3.125372e+00
     vertex -1.882669e+00 -7.184257e+00 -1.674122e+00
   endloop
 endfacet
 facet normal  8.660254e-01 -4.909165e-16  5.000000e-01
   outer loop
     vertex -4.343183e-01 -7.342023e+00 -3.312739e+00
     vertex -1.272198e+00 -6.374523e+00 -1.861489e+00
     vertex -1.505948e+00 -7.184257e+00 -1.456622e+00
   endloop
 endfacet
 facet normal  8.660254e-01  1.534114e-16  5.000000e-01
   outer loop
     vertex -4.343183e-01 -7.342023e+00 -3.312739e+00
     vertex -1.505948e+00 -7.184257e+00 -1.456622e+00
     vertex -6.680683e-01 -8.151757e+00 -2.907872e+00
   endloop
 endfacet
 facet normal -2.500000e-01 -8.660254e-01  4.330127e-01
   outer loop
     vertex  5.546033e+00  1.874523e+00 -4.671011e+00
     vertex  4.764445e+00  2.342023e+00 -4.187261e+00
     vertex  5.169312e+00  1.874523e+00 -4.888511e+00
   endloop
 endfacet
 facet normal -2.500000e-01 -8.660254e-01  4.330127e-01
   outer loop
     vertex  5.546033e+00  1.874523e+00 -4.671011e+00
     vertex  5.141166e+00  2.342023e+00 -3.969761e+00
     vertex  4.764445e+00  2.342023e+00 -4.187261e+00
   endloop
 endfacet
 facet normal  2.500000e-01  8.660254e-01 -4.330127e-01
   outer loop
     vertex  6.029783e+00  3.550282e+00 -5.508891e+00
     vertex  5.653062e+00  3.550282e+00 -5.726391e+00
     vertex  5.248195e+00  4.017782e+00 -5.025141e+00
   endloop
 endfacet
 facet normal  2.500000e-01  8.660254e-01 -4.330127e-01
   outer loop
     vertex  6.029783e+00  3.550282e+00 -5.508891e+00
     vertex  5.248195e+00  4.017782e+00 -5.025141e+00
     vertex  5.624916e+00  4.017782e+00 -4.807641e+00
   endloop
 endfacet
 facet normal  4.330127e-01 -5.000000e-01 -7.500000e-01
   outer loop
     vertex  6.029783e+00  3.550282e+00 -5.508891e+00
     vertex  5.169312e+00  1.874523e+00 -4.888511e+00
     vertex  5.653062e+00  3.550282e+00 -5.726391e+00
   endloop
 endfacet
 facet normal  4.330127e-01 -5.000000e-01 -7.500000e-01
   outer loop
     vertex  6.029783e+00  3.550282e+00 -5.508891e+00
     vertex  5.546033e+00  1.874523e+00 -4.671011e+00
     vertex  5.169312e+00  1.874523e+00 -4.888511e+00
   endloop
 endfacet
 facet normal -4.330127e-01  5.000000e-01  7.500000e-01
   outer loop
     vertex  5.624916e+00  4.017782e+00 -4.807641e+00
     vertex  5.248195e+00  4.017782e+00 -5.025141e+00
     vertex  4.764445e+00  2.342023e+00 -4.187261e+00
   endloop
 endfacet
 facet normal -4.330127e-01  5.000000e-01  7.500000e-01
   outer loop
     vertex  5.624916e+00  4.017782e+00 -4.807641e+00
     vertex  4.764445e+00  2.342023e+00 -4.187261e+00
     vertex  5.141166e+00  2.342023e+00 -3.969761e+00
   endloop
 endfacet
 facet normal -8.660254e-01  3.068228e-16 -5.000000e-01
   outer loop
     vertex  5.248195e+00  4.017782e+00 -5.025141e+00
     vertex  5.169312e+00  1.874523e+00 -4.888511e+00
     vertex  4.764445e+00  2.342023e+00 -4.187261e+00
   endloop
 endfacet
 facet normal -8.660254e-01  3.873638e-16 -5.000000e-01
   outer loop
     vertex  5.248195e+00  4.017782e+00 -5.025141e+00
     vertex  5.653062e+00  3.550282e+00 -5.726391e+00
     vertex  5.169312e+00  1.874523e+00 -4.888511e+00
   endloop
 endfacet
 facet normal  8.660254e-01 -6.519985e-16  5.000000e-01
   outer loop
     vertex  5.624916e+00  4.017782e+00 -4.807641e+00
     vertex  5.141166e+00  2.342023e+00 -3.969761e+00
     vertex  5.546033e+00  1.874523e+00 -4.671011e+00
   endloop
 endfacet
 facet normal  8.660254e-01 -6.635043e-16  5.000000e-01
   outer loop
     vertex  5.624916e+00  4.017782e+00 -4.807641e+00
     vertex  5.546033e+00  1.874523e+00 -4.671011e+00
     vertex  6.029783e+00  3.550282e+00 -5.508891e+00
   endloop
 endfacet
 facet normal -4.330127e-01  5.000000e-01  7.500000e-01
   outer loop
     vertex  4.708154e+00  2.342023e+00 -4.219761e+00
     vertex  4.565183e+00  3.151757e+00 -4.842128e+00
     vertex  4.331433e+00  2.342023e+00 -4.437261e+00
   endloop
 endfacet
 facet normal -4.330127e-01  5.000000e-01  7.500000e-01
   outer loop
     vertex  4.708154e+00  2.342023e+00 -4.219761e+00
     vertex  4.941904e+00  3.151757e+00 -4.624628e+00
     vertex  4.565183e+00  3.151757e+00 -4.842128e+00
   endloop
 endfacet
 facet normal  4.330127e-01 -5.000000e-01 -7.500000e-01
   outer loop
     vertex  5.546033e+00  1.374523e+00 -5.671011e+00
     vertex  5.169312e+00  1.374523e+00 -5.888511e+00
     vertex  5.403062e+00  2.184257e+00 -6.293378e+00
   endloop
 endfacet
 facet normal  4.330127e-01 -5.000000e-01 -7.500000e-01
   outer loop
     vertex  5.546033e+00  1.374523e+00 -5.671011e+00
     vertex  5.403062e+00  2.184257e+00 -6.293378e+00
     vertex  5.779783e+00  2.184257e+00 -6.075878e+00
   endloop
 endfacet
 facet normal -2.500000e-01 -8.660254e-01  4.330127e-01
   outer loop
     vertex  5.546033e+00  1.374523e+00 -5.671011e+00
     vertex  4.331433e+00  2.342023e+00 -4.437261e+00
     vertex  5.169312e+00  1.374523e+00 -5.888511e+00
   endloop
 endfacet
 facet normal -2.500000e-01 -8.660254e-01  4.330127e-01
   outer loop
     vertex  5.546033e+00  1.374523e+00 -5.671011e+00
     vertex  4.708154e+00  2.342023e+00 -4.219761e+00
     vertex  4.331433e+00  2.342023e+00 -4.437261e+00
   endloop
 endfacet
 facet normal  2.500000e-01  8.660254e-01 -4.330127e-01
   outer loop
     vertex  5.779783e+00  2.184257e+00 -6.075878e+00
     vertex  5.403062e+00  2.184257e+00 -6.293378e+00
     vertex  4.565183e+00  3.151757e+00 -4.842128e+00
   endloop
 endfacet
 facet normal  2.500000e-01  8.660254e-01 -4.330127e-01
   outer loop
     vertex  5.779783e+00  2.184257e+00 -6.075878e+00
     vertex  4.565183e+00  3.151757e+00 -4.842128e+00
     vertex  4.941904e+00  3.151757e+00 -4.624628e+00
   endloop
 endfacet
 facet normal -8.660254e-01 -2.454583e-16 -5.000000e-01
   outer loop
     vertex  5.403062e+00  2.184257e+00 -6.293378e+00
     vertex  4.331433e+00  2.342023e+00 -4.437261e+00
     vertex  4.565183e+00  3.151757e+00 -4.842128e+00
   endloop
 endfacet
 facet normal -8.660254e-01 -1.257974e-15 -5.000000e-01
   outer loop
     vertex  5.403062e+00  2.184257e+00 -6.293378e+00
     vertex  5.169312e+00  1.374523e+00 -5.888511e+00
     vertex  4.331433e+00  2.342023e+00 -4.437261e+00
   endloop
 endfacet
 facet normal  8.660254e-01 -2.454583e-16  5.000000e-01
   outer loop
     vertex  5.779783e+00  2.184257e+00 -6.075878e+00
     vertex  4.941904e+00  3.151757e+00 -4.624628e+00
     vertex  4.708154e+00  2.342023e+00 -4.219761e+00
   endloop
 endfacet
 facet normal  8.660254e-01  7.363748e-16  5.000000e-01
   outer loop
     vertex  5.779783e+00  2.184257e+00 -6.075878e+00
     vertex  4.708154e+00  2.342023e+00 -4.219761e+00
     vertex  5.546033e+00  1.374523e+00 -5.671011e+00
   endloop
 endfacet
 facet normal -2.500000e-01 -8.660254e-01  4.330127e-01
   outer loop
     vertex  4.680008e+00  1.874523e+00 -5.171011e+00
     vertex  3.898420e+00  2.342023e+00 -4.687261e+00
     vertex  4.303287e+00  1.874523e+00 -5.388511e+00
   endloop
 endfacet
 facet normal -2.500000e-01 -8.660254e-01  4.330127e-01
   outer loop
     vertex  4.680008e+00  1.874523e+00 -5.171011e+00
     vertex  4.275141e+00  2.342023e+00 -4.469761e+00
     vertex  3.898420e+00  2.342023e+00 -4.687261e+00
   endloop
 endfacet
 facet normal  2.500000e-01  8.660254e-01 -4.330127e-01
   outer loop
     vertex  5.163758e+00  3.550282e+00 -6.008891e+00
     vertex  4.787037e+00  3.550282e+00 -6.226391e+00
     vertex  4.382170e+00  4.017782e+00 -5.525141e+00
   endloop
 endfacet
 facet normal  2.500000e-01  8.660254e-01 -4.330127e-01
   outer loop
     vertex  5.163758e+00  3.550282e+00 -6.008891e+00
     vertex  4.382170e+00  4.017782e+00 -5.525141e+00
     vertex  4.758891e+00  4.017782e+00 -5.307641e+00
   endloop
 endfacet
 facet normal  4.330127e-01 -5.000000e-01 -7.500000e-01
   outer loop
     vertex  5.163758e+00  3.550282e+00 -6.008891e+00
     vertex  4.303287e+00  1.874523e+00 -5.388511e+00
     vertex  4.787037e+00  3.550282e+00 -6.226391e+00
   endloop
 endfacet
 facet normal  4.330127e-01 -5.000000e-01 -7.500000e-01
   outer loop
     vertex  5.163758e+00  3.550282e+00 -6.008891e+00
     vertex  4.680008e+00  1.874523e+00 -5.171011e+00
     vertex  4.303287e+00  1.874523e+00 -5.388511e+00
   endloop
 endfacet
 facet normal -4.330127e-01  5.000000e-01  7.500000e-01
   outer loop
     vertex  4.758891e+00  4.017782e+00 -5.307641e+00
     vertex  4.382170e+00  4.017782e+00 -5.525141e+00
     vertex  3.898420e+00  2.342023e+00 -4.687261e+00
   endloop
 endfacet
 facet normal -4.330127e-01  5.000000e-01  7.500000e-01
   outer loop
     vertex  4.758891e+00  4.017782e+00 -5.307641e+00
     vertex  3.898420e+00  2.342023e+00 -4.687261e+00
     vertex  4.275141e+00  2.342023e+00 -4.469761e+00
   endloop
 endfacet
 facet normal -8.660254e-01  3.835285e-17 -5.000000e-01
   outer loop
     vertex  4.382170e+00  4.017782e+00 -5.525141e+00
     vertex  4.303287e+00  1.874523e+00 -5.388511e+00
     vertex  3.898420e+00  2.342023e+00 -4.687261e+00
   endloop
 endfacet
 facet normal -8.660254e-01  8.437627e-17 -5.000000e-01
   outer loop
     vertex  4.382170e+00  4.017782e+00 -5.525141e+00
     vertex  4.787037e+00  3.550282e+00 -6.226391e+00
     vertex  4.303287e+00  1.874523e+00 -5.388511e+00
   endloop
 endfacet
 facet normal  8.660254e-01 -3.068228e-16  5.000000e-01
   outer loop
     vertex  4.758891e+00  4.017782e+00 -5.307641e+00
     vertex  4.275141e+00  2.342023e+00 -4.469761e+00
     vertex  4.680008e+00  1.874523e+00 -5.171011e+00
   endloop
 endfacet
 facet normal  8.660254e-01 -3.758580e-16  5.000000e-01
   outer loop
     vertex  4.758891e+00  4.017782e+00 -5.307641e+00
     vertex  4.680008e+00  1.874523e+00 -5.171011e+00
     vertex  5.163758e+00  3.550282e+00 -6.008891e+00
   endloop
 endfacet
 facet normal -4.330127e-01  5.000000e-01  7.500000e-01
   outer loop
     vertex  3.842128e+00  2.342023e+00 -4.719761e+00
     vertex  3.699157e+00  3.151757e+00 -5.342128e+00
     vertex  3.465407e+00  2.342023e+00 -4.937261e+00
   endloop
 endfacet
 facet normal -4.330127e-01  5.000000e-01  7.500000e-01
   outer loop
     vertex  3.842128e+00  2.342023e+00 -4.719761e+00
     vertex  4.075878e+00  3.151757e+00 -5.124628e+00
     vertex  3.699157e+00  3.151757e+00 -5.342128e+00
   endloop
 endfacet
 facet normal  4.330127e-01 -5.000000e-01 -7.500000e-01
   outer loop
     vertex  4.680008e+00  1.374523e+00 -6.171011e+00
     vertex  4.303287e+00  1.374523e+00 -6.388511e+00
     vertex  4.537037e+00  2.184257e+00 -6.793378e+00
   endloop
 endfacet
 facet normal  4.330127e-01 -5.000000e-01 -7.500000e-01
   outer loop
     vertex  4.680008e+00  1.374523e+00 -6.171011e+00
     vertex  4.537037e+00  2.184257e+00 -6.793378e+00
     vertex  4.913758e+00  2.184257e+00 -6.575878e+00
   endloop
 endfacet
 facet normal -2.500000e-01 -8.660254e-01  4.330127e-01
   outer loop
     vertex  4.680008e+00  1.374523e+00 -6.171011e+00
     vertex  3.465407e+00  2.342023e+00 -4.937261e+00
     vertex  4.303287e+00  1.374523e+00 -6.388511e+00
   endloop
 endfacet
 facet normal -2.500000e-01 -8.660254e-01  4.330127e-01
   outer loop
     vertex  4.680008e+00  1.374523e+00 -6.171011e+00
     vertex  3.842128e+00  2.342023e+00 -4.719761e+00
     vertex  3.465407e+00  2.342023e+00 -4.937261e+00
   endloop
 endfacet
 facet normal  2.500000e-01  8.660254e-01 -4.330127e-01
   outer loop
     vertex  4.913758e+00  2.184257e+00 -6.575878e+00
     vertex  4.537037e+00  2.184257e+00 -6.793378e+00
     vertex  3.699157e+00  3.151757e+00 -5.342128e+00
   endloop
 endfacet
 facet normal  2.500000e-01  8.660254e-01 -4.330127e-01
   outer loop
     vertex  4.913758e+00  2.184257e+00 -6.575878e+00
     vertex  3.699157e+00  3.151757e+00 -5.342128e+00
     vertex  4.075878e+00  3.151757e+00 -5.124628e+00
   endloop
 endfacet
 facet normal -8.660254e-01 -2.454583e-16 -5.000000e-01
   outer loop
     vertex  4.537037e+00  2.184257e+00 -6.793378e+00
     vertex  3.465407e+00  2.342023e+00 -4.937261e+00
     vertex  3.699157e+00  3.151757e+00 -5.342128e+00
   endloop
 endfacet
 facet normal -8.660254e-01  2.761405e-16 -5.000000e-01
   outer loop
     vertex  4.537037e+00  2.184257e+00 -6.793378e+00
     vertex  4.303287e+00  1.374523e+00 -6.388511e+00
     vertex  3.465407e+00  2.342023e+00 -4.937261e+00
   endloop
 endfacet
 facet normal  8.660254e-01  6.136456e-16  5.000000e-01
   outer loop
     vertex  4.913758e+00  2.184257e+00 -6.575878e+00
     vertex  4.075878e+00  3.151757e+00 -5.124628e+00
     vertex  3.842128e+00  2.342023e+00 -4.719761e+00
   endloop
 endfacet
 facet normal  8.660254e-01 -3.988697e-16  5.000000e-01
   outer loop
     vertex  4.913758e+00  2.184257e+00 -6.575878e+00
     vertex  3.842128e+00  2.342023e+00 -4.719761e+00
     vertex  4.680008e+00  1.374523e+00 -6.171011e+00
   endloop
 endfacet
 facet normal -2.500000e-01 -8.660254e-01  4.330127e-01
   outer loop
     vertex  3.813982e+00  1.874523e+00 -5.671011e+00
     vertex  3.032395e+00  2.342023e+00 -5.187261e+00
     vertex  3.437261e+00  1.874523e+00 -5.888511e+00
   endloop
 endfacet
 facet normal -2.500000e-01 -8.660254e-01  4.330127e-01
   outer loop
     vertex  3.813982e+00  1.874523e+00 -5.671011e+00
     vertex  3.409116e+00  2.342023e+00 -4.969761e+00
     vertex  3.032395e+00  2.342023e+00 -5.187261e+00
   endloop
 endfacet
 facet normal  2.500000e-01  8.660254e-01 -4.330127e-01
   outer loop
     vertex  4.297732e+00  3.550282e+00 -6.508891e+00
     vertex  3.921011e+00  3.550282e+00 -6.726391e+00
     vertex  3.516145e+00  4.017782e+00 -6.025141e+00
   endloop
 endfacet
 facet normal  2.500000e-01  8.660254e-01 -4.330127e-01
   outer loop
     vertex  4.297732e+00  3.550282e+00 -6.508891e+00
     vertex  3.516145e+00  4.017782e+00 -6.025141e+00
     vertex  3.892866e+00  4.017782e+00 -5.807641e+00
   endloop
 endfacet
 facet normal  4.330127e-01 -5.000000e-01 -7.500000e-01
   outer loop
     vertex  4.297732e+00  3.550282e+00 -6.508891e+00
     vertex  3.437261e+00  1.874523e+00 -5.888511e+00
     vertex  3.921011e+00  3.550282e+00 -6.726391e+00
   endloop
 endfacet
 facet normal  4.330127e-01 -5.000000e-01 -7.500000e-01
   outer loop
     vertex  4.297732e+00  3.550282e+00 -6.508891e+00
     vertex  3.813982e+00  1.874523e+00 -5.671011e+00
     vertex  3.437261e+00  1.874523e+00 -5.888511e+00
   endloop
 endfacet
 facet normal -4.330127e-01  5.000000e-01  7.500000e-01
   outer loop
     vertex  3.892866e+00  4.017782e+00 -5.807641e+00
     vertex  3.516145e+00  4.017782e+00 -6.025141e+00
     vertex  3.032395e+00  2.342023e+00 -5.187261e+00
   endloop
 endfacet
 facet normal -4.330127e-01  5.000000e-01  7.500000e-01
   outer loop
     vertex  3.892866e+00  4.017782e+00 -5.807641e+00
     vertex  3.032395e+00  2.342023e+00 -5.187261e+00
     vertex  3.409116e+00  2.342023e+00 -4.969761e+00
   endloop
 endfacet
 facet normal -8.660254e-01 -1.227291e-16 -5.000000e-01
   outer loop
     vertex  3.516145e+00  4.017782e+00 -6.025141e+00
     vertex  3.437261e+00  1.874523e+00 -5.888511e+00
     vertex  3.032395e+00  2.342023e+00 -5.187261e+00
   endloop
 endfacet
 facet normal -8.660254e-01 -5.752928e-17 -5.000000e-01
   outer loop
     vertex  3.516145e+00  4.017782e+00 -6.025141e+00
     vertex  3.921011e+00  3.550282e+00 -6.726391e+00
     vertex  3.437261e+00  1.874523e+00 -5.888511e+00
   endloop
 endfacet
 facet normal  8.660254e-01 -1.380703e-16  5.000000e-01
   outer loop
     vertex  3.892866e+00  4.017782e+00 -5.807641e+00
     vertex  3.409116e+00  2.342023e+00 -4.969761e+00
     vertex  3.813982e+00  1.874523e+00 -5.671011e+00
   endloop
 endfacet
 facet normal  8.660254e-01 -1.725878e-16  5.000000e-01
   outer loop
     vertex  3.892866e+00  4.017782e+00 -5.807641e+00
     vertex  3.813982e+00  1.874523e+00 -5.671011e+00
     vertex  4.297732e+00  3.550282e+00 -6.508891e+00
   endloop
 endfacet
 facet normal -4.330127e-01  5.000000e-01  7.500000e-01
   outer loop
     vertex  2.976103e+00  2.342023e+00 -5.219761e+00
     vertex  2.833132e+00  3.151757e+00 -5.842128e+00
     vertex  2.599382e+00  2.342023e+00 -5.437261e+00
   endloop
 endfacet
 facet normal -4.330127e-01  5.000000e-01  7.500000e-01
   outer loop
     vertex  2.976103e+00  2.342023e+00 -5.219761e+00
     vertex  3.209853e+00  3.151757e+00 -5.624628e+00
     vertex  2.833132e+00  3.151757e+00 -5.842128e+00
   endloop
 endfacet
 facet normal  4.330127e-01 -5.000000e-01 -7.500000e-01
   outer loop
     vertex  3.813982e+00  1.374523e+00 -6.671011e+00
     vertex  3.437261e+00  1.374523e+00 -6.888511e+00
     vertex  3.671011e+00  2.184257e+00 -7.293378e+00
   endloop
 endfacet
 facet normal  4.330127e-01 -5.000000e-01 -7.500000e-01
   outer loop
     vertex  3.813982e+00  1.374523e+00 -6.671011e+00
     vertex  3.671011e+00  2.184257e+00 -7.293378e+00
     vertex  4.047732e+00  2.184257e+00 -7.075878e+00
   endloop
 endfacet
 facet normal -2.500000e-01 -8.660254e-01  4.330127e-01
   outer loop
     vertex  3.813982e+00  1.374523e+00 -6.671011e+00
     vertex  2.599382e+00  2.342023e+00 -5.437261e+00
     vertex  3.437261e+00  1.374523e+00 -6.888511e+00
   endloop
 endfacet
 facet normal -2.500000e-01 -8.660254e-01  4.330127e-01
   outer loop
     vertex  3.813982e+00  1.374523e+00 -6.671011e+00
     vertex  2.976103e+00  2.342023e+00 -5.219761e+00
     vertex  2.599382e+00  2.342023e+00 -5.437261e+00
   endloop
 endfacet
 facet normal  2.500000e-01  8.660254e-01 -4.330127e-01
   outer loop
     vertex  4.047732e+00  2.184257e+00 -7.075878e+00
     vertex  3.671011e+00  2.184257e+00 -7.293378e+00
     vertex  2.833132e+00  3.151757e+00 -5.842128e+00
   endloop
 endfacet
 facet normal  2.500000e-01  8.660254e-01 -4.330127e-01
   outer loop
     vertex  4.047732e+00  2.184257e+00 -7.075878e+00
     vertex  2.833132e+00  3.151757e+00 -5.842128e+00
     vertex  3.209853e+00  3.151757e+00 -5.624628e+00
   endloop
 endfacet
 facet normal -8.660254e-01  4.909165e-16 -5.000000e-01
   outer loop
     vertex  3.671011e+00  2.184257e+00 -7.293378e+00
     vertex  2.599382e+00  2.342023e+00 -5.437261e+00
     vertex  2.833132e+00  3.151757e+00 -5.842128e+00
   endloop
 endfacet
 facet normal -8.660254e-01  6.136456e-17 -5.000000e-01
   outer loop
     vertex  3.671011e+00  2.184257e+00 -7.293378e+00
     vertex  3.437261e+00  1.374523e+00 -6.888511e+00
     vertex  2.599382e+00  2.342023e+00 -5.437261e+00
   endloop
 endfacet
 facet normal  8.660254e-01 -3.681874e-16  5.000000e-01
   outer loop
     vertex  4.047732e+00  2.184257e+00 -7.075878e+00
     vertex  3.209853e+00  3.151757e+00 -5.624628e+00
     vertex  2.976103e+00  2.342023e+00 -5.219761e+00
   endloop
 endfacet
 facet normal  8.660254e-01  5.215988e-16  5.000000e-01
   outer loop
     vertex  4.047732e+00  2.184257e+00 -7.075878e+00
     vertex  2.976103e+00  2.342023e+00 -5.219761e+00
     vertex  3.813982e+00  1.374523e+00 -6.671011e+00
   endloop
 endfacet
 facet normal -2.500000e-01 -8.660254e-01  4.330127e-01
   outer loop
     vertex  2.947957e+00  1.874523e+00 -6.171011e+00
     vertex  2.166369e+00  2.342023e+00 -5.687261e+00
     vertex  2.571236e+00  1.874523e+00 -6.388511e+00
   endloop
 endfacet
 facet normal -2.500000e-01 -8.660254e-01  4.330127e-01
   outer loop
     vertex  2.947957e+00  1.874523e+00 -6.171011e+00
     vertex  2.543090e+00  2.342023e+00 -5.469761e+00
     vertex  2.166369e+00  2.342023e+00 -5.687261e+00
   endloop
 endfacet
 facet normal  2.500000e-01  8.660254e-01 -4.330127e-01
   outer loop
     vertex  3.431707e+00  3.550282e+00 -7.008891e+00
     vertex  3.054986e+00  3.550282e+00 -7.226391e+00
     vertex  2.650119e+00  4.017782e+00 -6.525141e+00
   endloop
 endfacet
 facet normal  2.500000e-01  8.660254e-01 -4.330127e-01
   outer loop
     vertex  3.431707e+00  3.550282e+00 -7.008891e+00
     vertex  2.650119e+00  4.017782e+00 -6.525141e+00
     vertex  3.026840e+00  4.017782e+00 -6.307641e+00
   endloop
 endfacet
 facet normal  4.330127e-01 -5.000000e-01 -7.500000e-01
   outer loop
     vertex  3.431707e+00  3.550282e+00 -7.008891e+00
     vertex  2.571236e+00  1.874523e+00 -6.388511e+00
     vertex  3.054986e+00  3.550282e+00 -7.226391e+00
   endloop
 endfacet
 facet normal  4.330127e-01 -5.000000e-01 -7.500000e-01
   outer loop
     vertex  3.431707e+00  3.550282e+00 -7.008891e+00
     vertex  2.947957e+00  1.874523e+00 -6.171011e+00
     vertex  2.571236e+00  1.874523e+00 -6.388511e+00
   endloop
 endfacet
 facet normal -4.330127e-01  5.000000e-01  7.500000e-01
   outer loop
     vertex  3.026840e+00  4.017782e+00 -6.307641e+00
     vertex  2.650119e+00  4.017782e+00 -6.525141e+00
     vertex  2.166369e+00  2.342023e+00 -5.687261e+00
   endloop
 endfacet
 facet normal -4.330127e-01  5.000000e-01  7.500000e-01
   outer loop
     vertex  3.026840e+00  4.017782e+00 -6.307641e+00
     vertex  2.166369e+00  2.342023e+00 -5.687261e+00
     vertex  2.543090e+00  2.342023e+00 -5.469761e+00
   endloop
 endfacet
 facet normal -8.660254e-01 -3.221640e-16 -5.000000e-01
   outer loop
     vertex  2.650119e+00  4.017782e+00 -6.525141e+00
     vertex  2.571236e+00  1.874523e+00 -6.388511e+00
     vertex  2.166369e+00  2.342023e+00 -5.687261e+00
   endloop
 endfacet
 facet normal -8.660254e-01 -2.914817e-16 -5.000000e-01
   outer loop
     vertex  2.650119e+00  4.017782e+00 -6.525141e+00
     vertex  3.054986e+00  3.550282e+00 -7.226391e+00
     vertex  2.571236e+00  1.874523e+00 -6.388511e+00
   endloop
 endfacet
 facet normal  8.660254e-01 -1.457408e-16  5.000000e-01
   outer loop
     vertex  3.026840e+00  4.017782e+00 -6.307641e+00
     vertex  2.543090e+00  2.342023e+00 -5.469761e+00
     vertex  2.947957e+00  1.874523e+00 -6.171011e+00
   endloop
 endfacet
 facet normal  8.660254e-01 -1.112233e-16  5.000000e-01
   outer loop
     vertex  3.026840e+00  4.017782e+00 -6.307641e+00
     vertex  2.947957e+00  1.874523e+00 -6.171011e+00
     vertex  3.431707e+00  3.550282e+00 -7.008891e+00
   endloop
 endfacet
 facet normal -4.330127e-01  5.000000e-01  7.500000e-01
   outer loop
     vertex  2.110077e+00  2.342023e+00 -5.719761e+00
     vertex  1.967106e+00  3.151757e+00 -6.342128e+00
     vertex  1.733356e+00  2.342023e+00 -5.937261e+00
   endloop
 endfacet
 facet normal -4.330127e-01  5.000000e-01  7.500000e-01
   outer loop
     vertex  2.110077e+00  2.342023e+00 -5.719761e+00
     vertex  2.343827e+00  3.151757e+00 -6.124628e+00
     vertex  1.967106e+00  3.151757e+00 -6.342128e+00
   endloop
 endfacet
 facet normal  4.330127e-01 -5.000000e-01 -7.500000e-01
   outer loop
     vertex  2.947957e+00  1.374523e+00 -7.171011e+00
     vertex  2.571236e+00  1.374523e+00 -7.388511e+00
     vertex  2.804986e+00  2.184257e+00 -7.793378e+00
   endloop
 endfacet
 facet normal  4.330127e-01 -5.000000e-01 -7.500000e-01
   outer loop
     vertex  2.947957e+00  1.374523e+00 -7.171011e+00
     vertex  2.804986e+00  2.184257e+00 -7.793378e+00
     vertex  3.181707e+00  2.184257e+00 -7.575878e+00
   endloop
 endfacet
 facet normal -2.500000e-01 -8.660254e-01  4.330127e-01
   outer loop
     vertex  2.947957e+00  1.374523e+00 -7.171011e+00
     vertex  1.733356e+00  2.342023e+00 -5.937261e+00
     vertex  2.571236e+00  1.374523e+00 -7.388511e+00
   endloop
 endfacet
 facet normal -2.500000e-01 -8.660254e-01  4.330127e-01
   outer loop
     vertex  2.947957e+00  1.374523e+00 -7.171011e+00
     vertex  2.110077e+00  2.342023e+00 -5.719761e+00
     vertex  1.733356e+00  2.342023e+00 -5.937261e+00
   endloop
 endfacet
 facet normal  2.500000e-01  8.660254e-01 -4.330127e-01
   outer loop
     vertex  3.181707e+00  2.184257e+00 -7.575878e+00
     vertex  2.804986e+00  2.184257e+00 -7.793378e+00
     vertex  1.967106e+00  3.151757e+00 -6.342128e+00
   endloop
 endfacet
 facet normal  2.500000e-01  8.660254e-01 -4.330127e-01
   outer loop
     vertex  3.181707e+00  2.184257e+00 -7.575878e+00
     vertex  1.967106e+00  3.151757e+00 -6.342128e+00
     vertex  2.343827e+00  3.151757e+00 -6.124628e+00
   endloop
 endfacet
 facet normal -8.660254e-01 -3.681874e-16 -5.000000e-01
   outer loop
     vertex  2.804986e+00  2.184257e+00 -7.793378e+00
     vertex  1.733356e+00  2.342023e+00 -5.937261e+00
     vertex  1.967106e+00  3.151757e+00 -6.342128e+00
   endloop
 endfacet
 facet normal -8.660254e-01 -1.227291e-16 -5.000000e-01
   outer loop
     vertex  2.804986e+00  2.184257e+00 -7.793378e+00
     vertex  2.571236e+00  1.374523e+00 -7.388511e+00
     vertex  1.733356e+00  2.342023e+00 -5.937261e+00
   endloop
 endfacet
 facet normal  8.660254e-01  0.000000e+00  5.000000e-01
   outer loop
     vertex  3.181707e+00  2.184257e+00 -7.575878e+00
     vertex  2.343827e+00  3.151757e+00 -6.124628e+00
     vertex  2.110077e+00  2.342023e+00 -5.719761e+00
   endloop
 endfacet
 facet normal  8.660254e-01  1.534114e-16  5.000000e-01
   outer loop
     vertex  3.181707e+00  2.184257e+00 -7.575878e+00
     vertex  2.110077e+00  2.342023e+00 -5.719761e+00
     vertex  2.947957e+00  1.374523e+00 -7.171011e+00
   endloop
 endfacet
 facet normal -2.500000e-01 -8.660254e-01  4.330127e-01
   outer loop
     vertex  2.081932e+00  1.874523e+00 -6.671011e+00
     vertex  1.300344e+00  2.342023e+00 -6.187261e+00
     vertex  1.705211e+00  1.874523e+00 -6.888511e+00
   endloop
 endfacet
 facet normal -2.500000e-01 -8.660254e-01  4.330127e-01
   outer loop
     vertex  2.081932e+00  1.874523e+00 -6.671011e+00
     vertex  1.677065e+00  2.342023e+00 -5.969761e+00
     vertex  1.300344e+00  2.342023e+00 -6.187261e+00
   endloop
 endfacet
 facet normal  2.500000e-01  8.660254e-01 -4.330127e-01
   outer loop
     vertex  2.565682e+00  3.550282e+00 -7.508891e+00
     vertex  2.188961e+00  3.550282e+00 -7.726391e+00
     vertex  1.784094e+00  4.017782e+00 -7.025141e+00
   endloop
 endfacet
 facet normal  2.500000e-01  8.660254e-01 -4.330127e-01
   outer loop
     vertex  2.565682e+00  3.550282e+00 -7.508891e+00
     vertex  1.784094e+00  4.017782e+00 -7.025141e+00
     vertex  2.160815e+00  4.017782e+00 -6.807641e+00
   endloop
 endfacet
 facet normal  4.330127e-01 -5.000000e-01 -7.500000e-01
   outer loop
     vertex  2.565682e+00  3.550282e+00 -7.508891e+00
     vertex  1.705211e+00  1.874523e+00 -6.888511e+00
     vertex  2.188961e+00  3.550282e+00 -7.726391e+00
   endloop
 endfacet
 facet normal  4.330127e-01 -5.000000e-01 -7.500000e-01
   outer loop
     vertex  2.565682e+00  3.550282e+00 -7.508891e+00
     vertex  2.081932e+00  1.874523e+00 -6.671011e+00
     vertex  1.705211e+00  1.874523e+00 -6.888511e+00
   endloop
 endfacet
 facet normal -4.330127e-01  5.000000e-01  7.500000e-01
   outer loop
     vertex  2.160815e+00  4.017782e+00 -6.807641e+00
     vertex  1.784094e+00  4.017782e+00 -7.025141e+00
     vertex  1.300344e+00  2.342023e+00 -6.187261e+00
   endloop
 endfacet
 facet normal -4.330127e-01  5.000000e-01  7.500000e-01
   outer loop
     vertex  2.160815e+00  4.017782e+00 -6.807641e+00
     vertex  1.300344e+00  2.342023e+00 -6.187261e+00
     vertex  1.677065e+00  2.342023e+00 -5.969761e+00
   endloop
 endfacet
 facet normal -8.660254e-01  1.687525e-16 -5.000000e-01
   outer loop
     vertex  1.784094e+00  4.017782e+00 -7.025141e+00
     vertex  1.705211e+00  1.874523e+00 -6.888511e+00
     vertex  1.300344e+00  2.342023e+00 -6.187261e+00
   endloop
 endfacet
 facet normal -8.660254e-01  2.186113e-16 -5.000000e-01
   outer loop
     vertex  1.784094e+00  4.017782e+00 -7.025141e+00
     vertex  2.188961e+00  3.550282e+00 -7.726391e+00
     vertex  1.705211e+00  1.874523e+00 -6.888511e+00
   endloop
 endfacet
 facet normal  8.660254e-01 -3.451757e-16  5.000000e-01
   outer loop
     vertex  2.160815e+00  4.017782e+00 -6.807641e+00
     vertex  1.677065e+00  2.342023e+00 -5.969761e+00
     vertex  2.081932e+00  1.874523e+00 -6.671011e+00
   endloop
 endfacet
 facet normal  8.660254e-01 -3.490110e-16  5.000000e-01
   outer loop
     vertex  2.160815e+00  4.017782e+00 -6.807641e+00
     vertex  2.081932e+00  1.874523e+00 -6.671011e+00
     vertex  2.565682e+00  3.550282e+00 -7.508891e+00
   endloop
 endfacet
 facet normal -4.330127e-01  5.000000e-01  7.500000e-01
   outer loop
     vertex  1.244052e+00  2.342023e+00 -6.219761e+00
     vertex  1.101081e+00  3.151757e+00 -6.842128e+00
     vertex  8.673310e-01  2.342023e+00 -6.437261e+00
   endloop
 endfacet
 facet normal -4.330127e-01  5.000000e-01  7.500000e-01
   outer loop
     vertex  1.244052e+00  2.342023e+00 -6.219761e+00
     vertex  1.477802e+00  3.151757e+00 -6.624628e+00
     vertex  1.101081e+00  3.151757e+00 -6.842128e+00
   endloop
 endfacet
 facet normal  4.330127e-01 -5.000000e-01 -7.500000e-01
   outer loop
     vertex  2.081932e+00  1.374523e+00 -7.671011e+00
     vertex  1.705211e+00  1.374523e+00 -7.888511e+00
     vertex  1.938961e+00  2.184257e+00 -8.293378e+00
   endloop
 endfacet
 facet normal  4.330127e-01 -5.000000e-01 -7.500000e-01
   outer loop
     vertex  2.081932e+00  1.374523e+00 -7.671011e+00
     vertex  1.938961e+00  2.184257e+00 -8.293378e+00
     vertex  2.315682e+00  2.184257e+00 -8.075878e+00
   endloop
 endfacet
 facet normal -2.500000e-01 -8.660254e-01  4.330127e-01
   outer loop
     vertex  2.081932e+00  1.374523e+00 -7.671011e+00
     vertex  8.673310e-01  2.342023e+00 -6.437261e+00
     vertex  1.705211e+00  1.374523e+00 -7.888511e+00
   endloop
 endfacet
 facet normal -2.500000e-01 -8.660254e-01  4.330127e-01
   outer loop
     vertex  2.081932e+00  1.374523e+00 -7.671011e+00
     vertex  1.244052e+00  2.342023e+00 -6.219761e+00
     vertex  8.673310e-01  2.342023e+00 -6.437261e+00
   endloop
 endfacet
 facet normal  2.500000e-01  8.660254e-01 -4.330127e-01
   outer loop
     vertex  2.315682e+00  2.184257e+00 -8.075878e+00
     vertex  1.938961e+00  2.184257e+00 -8.293378e+00
     vertex  1.101081e+00  3.151757e+00 -6.842128e+00
   endloop
 endfacet
 facet normal  2.500000e-01  8.660254e-01 -4.330127e-01
   outer loop
     vertex  2.315682e+00  2.184257e+00 -8.075878e+00
     vertex  1.101081e+00  3.151757e+00 -6.842128e+00
     vertex  1.477802e+00  3.151757e+00 -6.624628e+00
   endloop
 endfacet
 facet normal -8.660254e-01  1.227291e-16 -5.000000e-01
   outer loop
     vertex  1.938961e+00  2.184257e+00 -8.293378e+00
     vertex  8.673310e-01  2.342023e+00 -6.437261e+00
     vertex  1.101081e+00  3.151757e+00 -6.842128e+00
   endloop
 endfacet
 facet normal -8.660254e-01  4.909165e-16 -5.000000e-01
   outer loop
     vertex  1.938961e+00  2.184257e+00 -8.293378e+00
     vertex  1.705211e+00  1.374523e+00 -7.888511e+00
     vertex  8.673310e-01  2.342023e+00 -6.437261e+00
   endloop
 endfacet
 facet normal  8.660254e-01 -4.909165e-16  5.000000e-01
   outer loop
     vertex  2.315682e+00  2.184257e+00 -8.075878e+00
     vertex  1.477802e+00  3.151757e+00 -6.624628e+00
     vertex  1.244052e+00  2.342023e+00 -6.219761e+00
   endloop
 endfacet
 facet normal  8.660254e-01 -1.227291e-16  5.000000e-01
   outer loop
     vertex  2.315682e+00  2.184257e+00 -8.075878e+00
     vertex  1.244052e+00  2.342023e+00 -6.219761e+00
     vertex  2.081932e+00  1.374523e+00 -7.671011e+00
   endloop
 endfacet
 facet normal -2.500000e-01 -8.660254e-01  4.330127e-01
   outer loop
     vertex  1.648919e+00  6.374523e+00  2.078989e+00
     vertex  8.673310e-01  6.842023e+00  2.562739e+00
     vertex  1.272198e+00  6.374523e+00  1.861489e+00
   endloop
 endfacet
 facet normal -2.500000e-01 -8.660254e-01  4.330127e-01
   outer loop
     vertex  1.648919e+00  6.374523e+00  2.078989e+00
     vertex  1.244052e+00  6.842023e+00  2.780239e+00
     vertex  8.673310e-01  6.842023e+00  2.562739e+00
   endloop
 endfacet
 facet normal  2.500000e-01  8.660254e-01 -4.330127e-01
   outer loop
     vertex  2.132669e+00  8.050282e+00  1.241109e+00
     vertex  1.755948e+00  8.050282e+00  1.023609e+00
     vertex  1.351081e+00  8.517782e+00  1.724859e+00
   endloop
 endfacet
 facet normal  2.500000e-01  8.660254e-01 -4.330127e-01
   outer loop
     vertex  2.132669e+00  8.050282e+00  1.241109e+00
     vertex  1.351081e+00  8.517782e+00  1.724859e+00
     vertex  1.727802e+00  8.517782e+00  1.942359e+00
   endloop
 endfacet
 facet normal  4.330127e-01 -5.000000e-01 -7.500000e-01
   outer loop
     vertex  2.132669e+00  8.050282e+00  1.241109e+00
     vertex  1.272198e+00  6.374523e+00  1.861489e+00
     vertex  1.755948e+00  8.050282e+00  1.023609e+00
   endloop
 endfacet
 facet normal  4.330127e-01 -5.000000e-01 -7.500000e-01
   outer loop
     vertex  2.132669e+00  8.050282e+00  1.241109e+00
     vertex  1.648919e+00  6.374523e+00  2.078989e+00
     vertex  1.272198e+00  6.374523e+00  1.861489e+00
   endloop
 endfacet
 facet normal -4.330127e-01  5.000000e-01  7.500000e-01
   outer loop
     vertex  1.727802e+00  8.517782e+00  1.942359e+00
     vertex  1.351081e+00  8.517782e+00  1.724859e+00
     vertex  8.673310e-01  6.842023e+00  2.562739e+00
   endloop
 endfacet
 facet normal -4.330127e-01  5.000000e-01  7.500000e-01
   outer loop
     vertex  1.727802e+00  8.517782e+00  1.942359e+00
     vertex  8.673310e-01  6.842023e+00  2.562739e+00
     vertex  1.244052e+00  6.842023e+00  2.780239e+00
   endloop
 endfacet
 facet normal -8.660254e-01 -2.301171e-17 -5.000000e-01
   outer loop
     vertex  1.351081e+00  8.517782e+00  1.724859e+00
     vertex  1.272198e+00  6.374523e+00  1.861489e+00
     vertex  8.673310e-01  6.842023e+00  2.562739e+00
   endloop
 endfacet
 facet normal -8.660254e-01  0.000000e+00 -5.000000e-01
   outer loop
     vertex  1.351081e+00  8.517782e+00  1.724859e+00
     vertex  1.755948e+00  8.050282e+00  1.023609e+00
     vertex  1.272198e+00  6.374523e+00  1.861489e+00
   endloop
 endfacet
 facet normal  8.660254e-01 -9.204685e-17  5.000000e-01
   outer loop
     vertex  1.727802e+00  8.517782e+00  1.942359e+00
     vertex  1.244052e+00  6.842023e+00  2.780239e+00
     vertex  1.648919e+00  6.374523e+00  2.078989e+00
   endloop
 endfacet
 facet normal  8.660254e-01 -6.136456e-17  5.000000e-01
   outer loop
     vertex  1.727802e+00  8.517782e+00  1.942359e+00
     vertex  1.648919e+00  6.374523e+00  2.078989e+00
     vertex  2.132669e+00  8.050282e+00  1.241109e+00
   endloop
 endfacet
 facet normal -4.330127e-01  5.000000e-01  7.500000e-01
   outer loop
     vertex  8.110394e-01  6.842023e+00  2.530239e+00
     vertex  6.680683e-01  7.651757e+00  1.907872e+00
     vertex  4.343183e-01  6.842023e+00  2.312739e+00
   endloop
 endfacet
 facet normal -4.330127e-01  5.000000e-01  7.500000e-01
   outer loop
     vertex  8.110394e-01  6.842023e+00  2.530239e+00
     vertex  1.044789e+00  7.651757e+00  2.125372e+00
     vertex  6.680683e-01  7.651757e+00  1.907872e+00
   endloop
 endfacet
 facet normal  4.330127e-01 -5.000000e-01 -7.500000e-01
   outer loop
     vertex  1.648919e+00  5.874523e+00  1.078989e+00
     vertex  1.272198e+00  5.874523e+00  8.614886e-01
     vertex  1.505948e+00  6.684257e+00  4.566217e-01
   endloop
 endfacet
 facet normal  4.330127e-01 -5.000000e-01 -7.500000e-01
   outer loop
     vertex  1.648919e+00  5.874523e+00  1.078989e+00
     vertex  1.505948e+00  6.684257e+00  4.566217e-01
     vertex  1.882669e+00  6.684257e+00  6.741217e-01
   endloop
 endfacet
 facet normal -2.500000e-01 -8.660254e-01  4.330127e-01
   outer loop
     vertex  1.648919e+00  5.874523e+00  1.078989e+00
     vertex  4.343183e-01  6.842023e+00  2.312739e+00
     vertex  1.272198e+00  5.874523e+00  8.614886e-01
   endloop
 endfacet
 facet normal -2.500000e-01 -8.660254e-01  4.330127e-01
   outer loop
     vertex  1.648919e+00  5.874523e+00  1.078989e+00
     vertex  8.110394e-01  6.842023e+00  2.530239e+00
     vertex  4.343183e-01  6.842023e+00  2.312739e+00
   endloop
 endfacet
 facet normal  2.500000e-01  8.660254e-01 -4.330127e-01
   outer loop
     vertex  1.882669e+00  6.684257e+00  6.741217e-01
     vertex  1.505948e+00  6.684257e+00  4.566217e-01
     vertex  6.680683e-01  7.651757e+00  1.907872e+00
   endloop
 endfacet
 facet normal  2.500000e-01  8.660254e-01 -4.330127e-01
   outer loop
     vertex  1.882669e+00  6.684257e+00  6.741217e-01
     vertex  6.680683e-01  7.651757e+00  1.907872e+00
     vertex  1.044789e+00  7.651757e+00  2.125372e+00
   endloop
 endfacet
 facet normal -8.660254e-01  4.909165e-16 -5.000000e-01
   outer loop
     vertex  1.505948e+00  6.684257e+00  4.566217e-01
     vertex  4.343183e-01  6.842023e+00  2.312739e+00
     vertex  6.680683e-01  7.651757e+00  1.907872e+00
   endloop
 endfacet
 facet normal -8.660254e-01  2.454583e-16 -5.000000e-01
   outer loop
     vertex  1.505948e+00  6.684257e+00  4.566217e-01
     vertex  1.272198e+00  5.874523e+00  8.614886e-01
     vertex  4.343183e-01  6.842023e+00  2.312739e+00
   endloop
 endfacet
 facet normal  8.660254e-01 -1.227291e-16  5.000000e-01
   outer loop
     vertex  1.882669e+00  6.684257e+00  6.741217e-01
     vertex  1.044789e+00  7.651757e+00  2.125372e+00
     vertex  8.110394e-01  6.842023e+00  2.530239e+00
   endloop
 endfacet
 facet normal  8.660254e-01  1.534114e-16  5.000000e-01
   outer loop
     vertex  1.882669e+00  6.684257e+00  6.741217e-01
     vertex  8.110394e-01  6.842023e+00  2.530239e+00
     vertex  1.648919e+00  5.874523e+00  1.078989e+00
   endloop
 endfacet
 facet normal -2.500000e-01 -8.660254e-01  4.330127e-01
   outer loop
     vertex  7.828936e-01  6.374523e+00  1.578989e+00
     vertex  1.305633e-03  6.842023e+00  2.062739e+00
     vertex  4.061725e-01  6.374523e+00  1.361489e+00
   endloop
 endfacet
 facet normal -2.500000e-01 -8.660254e-01  4.330127e-01
   outer loop
     vertex  7.828936e-01  6.374523e+00  1.578989e+00
     vertex  3.780267e-01  6.842023e+00  2.280239e+00
     vertex  1.305633e-03  6.842023e+00  2.062739e+00
   endloop
 endfacet
 facet normal  2.500000e-01  8.660254e-01 -4.330127e-01
   outer loop
     vertex  1.266644e+00  8.050282e+00  7.411090e-01
     vertex  8.899225e-01  8.050282e+00  5.236090e-01
     vertex  4.850556e-01  8.517782e+00  1.224859e+00
   endloop
 endfacet
 facet normal  2.500000e-01  8.660254e-01 -4.330127e-01
   outer loop
     vertex  1.266644e+00  8.050282e+00  7.411090e-01
     vertex  4.850556e-01  8.517782e+00  1.224859e+00
     vertex  8.617767e-01  8.517782e+00  1.442359e+00
   endloop
 endfacet
 facet normal  4.330127e-01 -5.000000e-01 -7.500000e-01
   outer loop
     vertex  1.266644e+00  8.050282e+00  7.411090e-01
     vertex  4.061725e-01  6.374523e+00  1.361489e+00
     vertex  8.899225e-01  8.050282e+00  5.236090e-01
   endloop
 endfacet
 facet normal  4.330127e-01 -5.000000e-01 -7.500000e-01
   outer loop
     vertex  1.266644e+00  8.050282e+00  7.411090e-01
     vertex  7.828936e-01  6.374523e+00  1.578989e+00
     vertex  4.061725e-01  6.374523e+00  1.361489e+00
   endloop
 endfacet
 facet normal -4.330127e-01  5.000000e-01  7.500000e-01
   outer loop
     vertex  8.617767e-01  8.517782e+00  1.442359e+00
     vertex  4.850556e-01  8.517782e+00  1.224859e+00
     vertex  1.305633e-03  6.842023e+00  2.062739e+00
   endloop
 endfacet
 facet normal -4.330127e-01  5.000000e-01  7.500000e-01
   outer loop
     vertex  8.617767e-01  8.517782e+00  1.442359e+00
     vertex  1.305633e-03  6.842023e+00  2.062739e+00
     vertex  3.780267e-01  6.842023e+00  2.280239e+00
   endloop
 endfacet
 facet normal -8.660254e-01  1.380703e-16 -5.000000e-01
   outer loop
     vertex  4.850556e-01  8.517782e+00  1.224859e+00
     vertex  4.061725e-01  6.374523e+00  1.361489e+00
     vertex  1.305633e-03  6.842023e+00  2.062739e+00
   endloop
 endfacet
 facet normal -8.660254e-01  1.802584e-16 -5.000000e-01
   outer loop
     vertex  4.850556e-01  8.517782e+00  1.224859e+00
     vertex  8.899225e-01  8.050282e+00  5.236090e-01
     vertex  4.061725e-01  6.374523e+00  1.361489e+00
   endloop
 endfacet
 facet normal  8.660254e-01  6.136456e-17  5.000000e-01
   outer loop
     vertex  8.617767e-01  8.517782e+00  1.442359e+00
     vertex  3.780267e-01  6.842023e+00  2.280239e+00
     vertex  7.828936e-01  6.374523e+00  1.578989e+00
   endloop
 endfacet
 facet normal  8.660254e-01  6.136456e-17  5.000000e-01
   outer loop
     vertex  8.617767e-01  8.517782e+00  1.442359e+00
     vertex  7.828936e-01  6.374523e+00  1.578989e+00
     vertex  1.266644e+00  8.050282e+00  7.411090e-01
   endloop
 endfacet
 facet normal -4.330127e-01  5.000000e-01  7.500000e-01
   outer loop
     vertex -5.498602e-02  6.842023e+00  2.030239e+00
     vertex -1.979571e-01  7.651757e+00  1.407872e+00
     vertex -4.317071e-01  6.842023e+00  1.812739e+00
   endloop
 endfacet
 facet normal -4.330127e-01  5.000000e-01  7.500000e-01
   outer loop
     vertex -5.498602e-02  6.842023e+00  2.030239e+00
     vertex  1.787640e-01  7.651757e+00  1.625372e+00
     vertex -1.979571e-01  7.651757e+00  1.407872e+00
   endloop
 endfacet
 facet normal  4.330127e-01 -5.000000e-01 -7.500000e-01
   outer loop
     vertex  7.828936e-01  5.874523e+00  5.789886e-01
     vertex  4.061725e-01  5.874523e+00  3.614886e-01
     vertex  6.399225e-01  6.684257e+00 -4.337830e-02
   endloop
 endfacet
 facet normal  4.330127e-01 -5.000000e-01 -7.500000e-01
   outer loop
     vertex  7.828936e-01  5.874523e+00  5.789886e-01
     vertex  6.399225e-01  6.684257e+00 -4.337830e-02
     vertex  1.016644e+00  6.684257e+00  1.741217e-01
   endloop
 endfacet
 facet normal -2.500000e-01 -8.660254e-01  4.330127e-01
   outer loop
     vertex  7.828936e-01  5.874523e+00  5.789886e-01
     vertex -4.317071e-01  6.842023e+00  1.812739e+00
     vertex  4.061725e-01  5.874523e+00  3.614886e-01
   endloop
 endfacet
 facet normal -2.500000e-01 -8.660254e-01  4.330127e-01
   outer loop
     vertex  7.828936e-01  5.874523e+00  5.789886e-01
     vertex -5.498602e-02  6.842023e+00  2.030239e+00
     vertex -4.317071e-01  6.842023e+00  1.812739e+00
   endloop
 endfacet
 facet normal  2.500000e-01  8.660254e-01 -4.330127e-01
   outer loop
     vertex  1.016644e+00  6.684257e+00  1.741217e-01
     vertex  6.399225e-01  6.684257e+00 -4.337830e-02
     vertex -1.979571e-01  7.651757e+00  1.407872e+00
   endloop
 endfacet
 facet normal  2.500000e-01  8.660254e-01 -4.330127e-01
   outer loop
     vertex  1.016644e+00  6.684257e+00  1.741217e-01
     vertex -1.979571e-01  7.651757e+00  1.407872e+00
     vertex  1.787640e-01  7.651757e+00  1.625372e+00
   endloop
 endfacet
 facet normal -8.660254e-01  0.000000e+00 -5.000000e-01
   outer loop
     vertex  6.399225e-01  6.684257e+00 -4.337830e-02
     vertex -4.317071e-01  6.842023e+00  1.812739e+00
     vertex -1.979571e-01  7.651757e+00  1.407872e+00
   endloop
 endfacet
 facet normal -8.660254e-01  0.000000e+00 -5.000000e-01
   outer loop
     vertex  6.399225e-01  6.684257e+00 -4.337830e-02
     vertex  4.061725e-01  5.874523e+00  3.614886e-01
     vertex -4.317071e-01  6.842023e+00  1.812739e+00
   endloop
 endfacet
 facet normal  8.660254e-01 -2.454583e-16  5.000000e-01
   outer loop
     vertex  1.016644e+00  6.684257e+00  1.741217e-01
     vertex  1.787640e-01  7.651757e+00  1.625372e+00
     vertex -5.498602e-02  6.842023e+00  2.030239e+00
   endloop
 endfacet
 facet normal  8.660254e-01 -9.204685e-17  5.000000e-01
   outer loop
     vertex  1.016644e+00  6.684257e+00  1.741217e-01
     vertex -5.498602e-02  6.842023e+00  2.030239e+00
     vertex  7.828936e-01  5.874523e+00  5.789886e-01
   endloop
 endfacet
 facet normal -2.500000e-01 -8.660254e-01  4.330127e-01
   outer loop
     vertex -8.313184e-02  6.374523e+00  1.078989e+00
     vertex -8.647198e-01  6.842023e+00  1.562739e+00
     vertex -4.598529e-01  6.374523e+00  8.614886e-01
   endloop
 endfacet
 facet normal -2.500000e-01 -8.660254e-01  4.330127e-01
   outer loop
     vertex -8.313184e-02  6.374523e+00  1.078989e+00
     vertex -4.879987e-01  6.842023e+00  1.780239e+00
     vertex -8.647198e-01  6.842023e+00  1.562739e+00
   endloop
 endfacet
 facet normal  2.500000e-01  8.660254e-01 -4.330127e-01
   outer loop
     vertex  4.006182e-01  8.050282e+00  2.411090e-01
     vertex  2.389711e-02  8.050282e+00  2.360900e-02
     vertex -3.809698e-01  8.517782e+00  7.248590e-01
   endloop
 endfacet
 facet normal  2.500000e-01  8.660254e-01 -4.330127e-01
   outer loop
     vertex  4.006182e-01  8.050282e+00  2.411090e-01
     vertex -3.809698e-01  8.517782e+00  7.248590e-01
     vertex -4.248720e-03  8.517782e+00  9.423590e-01
   endloop
 endfacet
 facet normal  4.330127e-01 -5.000000e-01 -7.500000e-01
   outer loop
     vertex  4.006182e-01  8.050282e+00  2.411090e-01
     vertex -4.598529e-01  6.374523e+00  8.614886e-01
     vertex  2.389711e-02  8.050282e+00  2.360900e-02
   endloop
 endfacet
 facet normal  4.330127e-01 -5.000000e-01 -7.500000e-01
   outer loop
     vertex  4.006182e-01  8.050282e+00  2.411090e-01
     vertex -8.313184e-02  6.374523e+00  1.078989e+00
     vertex -4.598529e-01  6.374523e+00  8.614886e-01
   endloop
 endfacet
 facet normal -4.330127e-01  5.000000e-01  7.500000e-01
   outer loop
     vertex -4.248720e-03  8.517782e+00  9.423590e-01
     vertex -3.809698e-01  8.517782e+00  7.248590e-01
     vertex -8.647198e-01  6.842023e+00  1.562739e+00
   endloop
 endfacet
 facet normal -4.330127e-01  5.000000e-01  7.500000e-01
   outer loop
     vertex -4.248720e-03  8.517782e+00  9.423590e-01
     vertex -8.647198e-01  6.842023e+00  1.562739e+00
     vertex -4.879987e-01  6.842023e+00  1.780239e+00
   endloop
 endfacet
 facet normal -8.660254e-01  1.227291e-16 -5.000000e-01
   outer loop
     vertex -3.809698e-01  8.517782e+00  7.248590e-01
     vertex -4.598529e-01  6.374523e+00  8.614886e-01
     vertex -8.647198e-01  6.842023e+00  1.562739e+00
   endloop
 endfacet
 facet normal -8.660254e-01  1.073880e-16 -5.000000e-01
   outer loop
     vertex -3.809698e-01  8.517782e+00  7.248590e-01
     vertex  2.389711e-02  8.050282e+00  2.360900e-02
     vertex -4.598529e-01  6.374523e+00  8.614886e-01
   endloop
 endfacet
 facet normal  8.660254e-01 -9.204685e-17  5.000000e-01
   outer loop
     vertex -4.248720e-03  8.517782e+00  9.423590e-01
     vertex -4.879987e-01  6.842023e+00  1.780239e+00
     vertex -8.313184e-02  6.374523e+00  1.078989e+00
   endloop
 endfacet
 facet normal  8.660254e-01 -8.821156e-17  5.000000e-01
   outer loop
     vertex -4.248720e-03  8.517782e+00  9.423590e-01
     vertex -8.313184e-02  6.374523e+00  1.078989e+00
     vertex  4.006182e-01  8.050282e+00  2.411090e-01
   endloop
 endfacet
 facet normal -4.330127e-01  5.000000e-01  7.500000e-01
   outer loop
     vertex -9.210114e-01  6.842023e+00  1.530239e+00
     vertex -1.063982e+00  7.651757e+00  9.078717e-01
     vertex -1.297732e+00  6.842023e+00  1.312739e+00
   endloop
 endfacet
 facet normal -4.330127e-01  5.000000e-01  7.500000e-01
   outer loop
     vertex -9.210114e-01  6.842023e+00  1.530239e+00
     vertex -6.872614e-01  7.651757e+00  1.125372e+00
     vertex -1.063982e+00  7.651757e+00  9.078717e-01
   endloop
 endfacet
 facet normal  4.330127e-01 -5.000000e-01 -7.500000e-01
   outer loop
     vertex -8.313184e-02  5.874523e+00  7.898858e-02
     vertex -4.598529e-01  5.874523e+00 -1.385114e-01
     vertex -2.261029e-01  6.684257e+00 -5.433783e-01
   endloop
 endfacet
 facet normal  4.330127e-01 -5.000000e-01 -7.500000e-01
   outer loop
     vertex -8.313184e-02  5.874523e+00  7.898858e-02
     vertex -2.261029e-01  6.684257e+00 -5.433783e-01
     vertex  1.506182e-01  6.684257e+00 -3.258783e-01
   endloop
 endfacet
 facet normal -2.500000e-01 -8.660254e-01  4.330127e-01
   outer loop
     vertex -8.313184e-02  5.874523e+00  7.898858e-02
     vertex -1.297732e+00  6.842023e+00  1.312739e+00
     vertex -4.598529e-01  5.874523e+00 -1.385114e-01
   endloop
 endfacet
 facet normal -2.500000e-01 -8.660254e-01  4.330127e-01
   outer loop
     vertex -8.313184e-02  5.874523e+00  7.898858e-02
     vertex -9.210114e-01  6.842023e+00  1.530239e+00
     vertex -1.297732e+00  6.842023e+00  1.312739e+00
   endloop
 endfacet
 facet normal  2.500000e-01  8.660254e-01 -4.330127e-01
   outer loop
     vertex  1.506182e-01  6.684257e+00 -3.258783e-01
     vertex -2.261029e-01  6.684257e+00 -5.433783e-01
     vertex -1.063982e+00  7.651757e+00  9.078717e-01
   endloop
 endfacet
 facet normal  2.500000e-01  8.660254e-01 -4.330127e-01
   outer loop
     vertex  1.506182e-01  6.684257e+00 -3.258783e-01
     vertex -1.063982e+00  7.651757e+00  9.078717e-01
     vertex -6.872614e-01  7.651757e+00  1.125372e+00
   endloop
 endfacet
 facet normal -8.660254e-01  2.454583e-16 -5.000000e-01
   outer loop
     vertex -2.261029e-01  6.684257e+00 -5.433783e-01
     vertex -1.297732e+00  6.842023e+00  1.312739e+00
     vertex -1.063982e+00  7.651757e+00  9.078717e-01
   endloop
 endfacet
 facet normal -8.660254e-01  1.534114e-16 -5.000000e-01
   outer loop
     vertex -2.261029e-01  6.684257e+00 -5.433783e-01
     vertex -4.598529e-01  5.874523e+00 -1.385114e-01
     vertex -1.297732e+00  6.842023e+00  1.312739e+00
   endloop
 endfacet
 facet normal  8.660254e-01 -1.227291e-16  5.000000e-01
   outer loop
     vertex  1.506182e-01  6.684257e+00 -3.258783e-01
     vertex -6.872614e-01  7.651757e+00  1.125372e+00
     vertex -9.210114e-01  6.842023e+00  1.530239e+00
   endloop
 endfacet
 facet normal  8.660254e-01 -6.136456e-17  5.000000e-01
   outer loop
     vertex  1.506182e-01  6.684257e+00 -3.258783e-01
     vertex -9.210114e-01  6.842023e+00  1.530239e+00
     vertex -8.313184e-02  5.874523e+00  7.898858e-02
   endloop
 endfacet
 facet normal -2.500000e-01 -8.660254e-01  4.330127e-01
   outer loop
     vertex -9.491572e-01  6.374523e+00  5.789886e-01
     vertex -1.730745e+00  6.842023e+00  1.062739e+00
     vertex -1.325878e+00  6.374523e+00  3.614886e-01
   endloop
 endfacet
 facet normal -2.500000e-01 -8.660254e-01  4.330127e-01
   outer loop
     vertex -9.491572e-01  6.374523e+00  5.789886e-01
     vertex -1.354024e+00  6.842023e+00  1.280239e+00
     vertex -1.730745e+00  6.842023e+00  1.062739e+00
   endloop
 endfacet
 facet normal  2.500000e-01  8.660254e-01 -4.330127e-01
   outer loop
     vertex -4.654072e-01  8.050282e+00 -2.588910e-01
     vertex -8.421283e-01  8.050282e+00 -4.763910e-01
     vertex -1.246995e+00  8.517782e+00  2.248590e-01
   endloop
 endfacet
 facet normal  2.500000e-01  8.660254e-01 -4.330127e-01
   outer loop
     vertex -4.654072e-01  8.050282e+00 -2.588910e-01
     vertex -1.246995e+00  8.517782e+00  2.248590e-01
     vertex -8.702741e-01  8.517782e+00  4.423590e-01
   endloop
 endfacet
 facet normal  4.330127e-01 -5.000000e-01 -7.500000e-01
   outer loop
     vertex -4.654072e-01  8.050282e+00 -2.588910e-01
     vertex -1.325878e+00  6.374523e+00  3.614886e-01
     vertex -8.421283e-01  8.050282e+00 -4.763910e-01
   endloop
 endfacet
 facet normal  4.330127e-01 -5.000000e-01 -7.500000e-01
   outer loop
     vertex -4.654072e-01  8.050282e+00 -2.588910e-01
     vertex -9.491572e-01  6.374523e+00  5.789886e-01
     vertex -1.325878e+00  6.374523e+00  3.614886e-01
   endloop
 endfacet
 facet normal -4.330127e-01  5.000000e-01  7.500000e-01
   outer loop
     vertex -8.702741e-01  8.517782e+00  4.423590e-01
     vertex -1.246995e+00  8.517782e+00  2.248590e-01
     vertex -1.730745e+00  6.842023e+00  1.062739e+00
   endloop
 endfacet
 facet normal -4.330127e-01  5.000000e-01  7.500000e-01
   outer loop
     vertex -8.702741e-01  8.517782e+00  4.423590e-01
     vertex -1.730745e+00  6.842023e+00  1.062739e+00
     vertex -1.354024e+00  6.842023e+00  1.280239e+00
   endloop
 endfacet
 facet normal -8.660254e-01  2.607994e-16 -5.000000e-01
   outer loop
     vertex -1.246995e+00  8.517782e+00  2.248590e-01
     vertex -1.325878e+00  6.374523e+00  3.614886e-01
     vertex -1.730745e+00  6.842023e+00  1.062739e+00
   endloop
 endfacet
 facet normal -8.660254e-01  2.377877e-16 -5.000000e-01
   outer loop
     vertex -1.246995e+00  8.517782e+00  2.248590e-01
     vertex -8.421283e-01  8.050282e+00 -4.763910e-01
     vertex -1.325878e+00  6.374523e+00  3.614886e-01
   endloop
 endfacet
 facet normal  8.660254e-01 -3.835285e-17  5.000000e-01
   outer loop
     vertex -8.702741e-01  8.517782e+00  4.423590e-01
     vertex -1.354024e+00  6.842023e+00  1.280239e+00
     vertex -9.491572e-01  6.374523e+00  5.789886e-01
   endloop
 endfacet
 facet normal  8.660254e-01 -5.752928e-17  5.000000e-01
   outer loop
     vertex -8.702741e-01  8.517782e+00  4.423590e-01
     vertex -9.491572e-01  6.374523e+00  5.789886e-01
     vertex -4.654072e-01  8.050282e+00 -2.588910e-01
   endloop
 endfacet
 facet normal -4.330127e-01  5.000000e-01  7.500000e-01
   outer loop
     vertex -1.787037e+00  6.842023e+00  1.030239e+00
     vertex -1.930008e+00  7.651757e+00  4.078717e-01
     vertex -2.163758e+00  6.842023e+00  8.127386e-01
   endloop
 endfacet
 facet normal -4.330127e-01  5.000000e-01  7.500000e-01
   outer loop
     vertex -1.787037e+00  6.842023e+00  1.030239e+00
     vertex -1.553287e+00  7.651757e+00  6.253717e-01
     vertex -1.930008e+00  7.651757e+00  4.078717e-01
   endloop
 endfacet
 facet normal  4.330127e-01 -5.000000e-01 -7.500000e-01
   outer loop
     vertex -9.491572e-01  5.874523e+00 -4.210114e-01
     vertex -1.325878e+00  5.874523e+00 -6.385114e-01
     vertex -1.092128e+00  6.684257e+00 -1.043378e+00
   endloop
 endfacet
 facet normal  4.330127e-01 -5.000000e-01 -7.500000e-01
   outer loop
     vertex -9.491572e-01  5.874523e+00 -4.210114e-01
     vertex -1.092128e+00  6.684257e+00 -1.043378e+00
     vertex -7.154072e-01  6.684257e+00 -8.258783e-01
   endloop
 endfacet
 facet normal -2.500000e-01 -8.660254e-01  4.330127e-01
   outer loop
     vertex -9.491572e-01  5.874523e+00 -4.210114e-01
     vertex -2.163758e+00  6.842023e+00  8.127386e-01
     vertex -1.325878e+00  5.874523e+00 -6.385114e-01
   endloop
 endfacet
 facet normal -2.500000e-01 -8.660254e-01  4.330127e-01
   outer loop
     vertex -9.491572e-01  5.874523e+00 -4.210114e-01
     vertex -1.787037e+00  6.842023e+00  1.030239e+00
     vertex -2.163758e+00  6.842023e+00  8.127386e-01
   endloop
 endfacet
 facet normal  2.500000e-01  8.660254e-01 -4.330127e-01
   outer loop
     vertex -7.154072e-01  6.684257e+00 -8.258783e-01
     vertex -1.092128e+00  6.684257e+00 -1.043378e+00
     vertex -1.930008e+00  7.651757e+00  4.078717e-01
   endloop
 endfacet
 facet normal  2.500000e-01  8.660254e-01 -4.330127e-01
   outer loop
     vertex -7.154072e-01  6.684257e+00 -8.258783e-01
     vertex -1.930008e+00  7.651757e+00  4.078717e-01
     vertex -1.553287e+00  7.651757e+00  6.253717e-01
   endloop
 endfacet
 facet normal -8.660254e-01 -2.454583e-16 -5.000000e-01
   outer loop
     vertex -1.092128e+00  6.684257e+00 -1.043378e+00
     vertex -2.163758e+00  6.842023e+00  8.127386e-01
     vertex -1.930008e+00  7.651757e+00  4.078717e-01
   endloop
 endfacet
 facet normal -8.660254e-01  9.204685e-17 -5.000000e-01
   outer loop
     vertex -1.092128e+00  6.684257e+00 -1.043378e+00
     vertex -1.325878e+00  5.874523e+00 -6.385114e-01
     vertex -2.163758e+00  6.842023e+00  8.127386e-01
   endloop
 endfacet
 facet normal  8.660254e-01  1.227291e-16  5.000000e-01
   outer loop
     vertex -7.154072e-01  6.684257e+00 -8.258783e-01
     vertex -1.553287e+00  7.651757e+00  6.253717e-01
     vertex -1.787037e+00  6.842023e+00  1.030239e+00
   endloop
 endfacet
 facet normal  8.660254e-01  0.000000e+00  5.000000e-01
   outer loop
     vertex -7.154072e-01  6.684257e+00 -8.258783e-01
     vertex -1.787037e+00  6.842023e+00  1.030239e+00
     vertex -9.491572e-01  5.874523e+00 -4.210114e-01
   endloop
 endfacet
 facet normal -4.330127e-01  5.000000e-01  7.500000e-01
   outer loop
     vertex -2.653062e+00  6.842023e+00  5.302386e-01
     vertex -2.796033e+00  7.651757e+00 -9.212830e-02
     vertex -3.029783e+00  6.842023e+00  3.127386e-01
   endloop
 endfacet
 facet normal -4.330127e-01  5.000000e-01  7.500000e-01
   outer loop
     vertex -2.653062e+00  6.842023e+00  5.302386e-01
     vertex -2.419312e+00  7.651757e+00  1.253717e-01
     vertex -2.796033e+00  7.651757e+00 -9.212830e-02
   endloop
 endfacet
 facet normal  4.330127e-01 -5.000000e-01 -7.500000e-01
   outer loop
     vertex -1.815183e+00  5.874523e+00 -9.210114e-01
     vertex -2.191904e+00  5.874523e+00 -1.138511e+00
     vertex -1.958154e+00  6.684257e+00 -1.543378e+00
   endloop
 endfacet
 facet normal  4.330127e-01 -5.000000e-01 -7.500000e-01
   outer loop
     vertex -1.815183e+00  5.874523e+00 -9.210114e-01
     vertex -1.958154e+00  6.684257e+00 -1.543378e+00
     vertex -1.581433e+00  6.684257e+00 -1.325878e+00
   endloop
 endfacet
 facet normal -2.500000e-01 -8.660254e-01  4.330127e-01
   outer loop
     vertex -1.815183e+00  5.874523e+00 -9.210114e-01
     vertex -3.029783e+00  6.842023e+00  3.127386e-01
     vertex -2.191904e+00  5.874523e+00 -1.138511e+00
   endloop
 endfacet
 facet normal -2.500000e-01 -8.660254e-01  4.330127e-01
   outer loop
     vertex -1.815183e+00  5.874523e+00 -9.210114e-01
     vertex -2.653062e+00  6.842023e+00  5.302386e-01
     vertex -3.029783e+00  6.842023e+00  3.127386e-01
   endloop
 endfacet
 facet normal  2.500000e-01  8.660254e-01 -4.330127e-01
   outer loop
     vertex -1.581433e+00  6.684257e+00 -1.325878e+00
     vertex -1.958154e+00  6.684257e+00 -1.543378e+00
     vertex -2.796033e+00  7.651757e+00 -9.212830e-02
   endloop
 endfacet
 facet normal  2.500000e-01  8.660254e-01 -4.330127e-01
   outer loop
     vertex -1.581433e+00  6.684257e+00 -1.325878e+00
     vertex -2.796033e+00  7.651757e+00 -9.212830e-02
     vertex -2.419312e+00  7.651757e+00  1.253717e-01
   endloop
 endfacet
 facet normal -8.660254e-01  0.000000e+00 -5.000000e-01
   outer loop
     vertex -1.958154e+00  6.684257e+00 -1.543378e+00
     vertex -3.029783e+00  6.842023e+00  3.127386e-01
     vertex -2.796033e+00  7.651757e+00 -9.212830e-02
   endloop
 endfacet
 facet normal -8.660254e-01 -1.840937e-16 -5.000000e-01
   outer loop
     vertex -1.958154e+00  6.684257e+00 -1.543378e+00
     vertex -2.191904e+00  5.874523e+00 -1.138511e+00
     vertex -3.029783e+00  6.842023e+00  3.127386e-01
   endloop
 endfacet
 facet normal  8.660254e-01 -1.227291e-16  5.000000e-01
   outer loop
     vertex -1.581433e+00  6.684257e+00 -1.325878e+00
     vertex -2.419312e+00  7.651757e+00  1.253717e-01
     vertex -2.653062e+00  6.842023e+00  5.302386e-01
   endloop
 endfacet
 facet normal  8.660254e-01  0.000000e+00  5.000000e-01
   outer loop
     vertex -1.581433e+00  6.684257e+00 -1.325878e+00
     vertex -2.653062e+00  6.842023e+00  5.302386e-01
     vertex -1.815183e+00  5.874523e+00 -9.210114e-01
   endloop
 endfacet
 facet normal -2.500000e-01 -8.660254e-01  4.330127e-01
   outer loop
     vertex -1.815183e+00  6.374523e+00  7.898858e-02
     vertex -2.596771e+00  6.842023e+00  5.627386e-01
     vertex -2.191904e+00  6.374523e+00 -1.385114e-01
   endloop
 endfacet
 facet normal -2.500000e-01 -8.660254e-01  4.330127e-01
   outer loop
     vertex -1.815183e+00  6.374523e+00  7.898858e-02
     vertex -2.220050e+00  6.842023e+00  7.802386e-01
     vertex -2.596771e+00  6.842023e+00  5.627386e-01
   endloop
 endfacet
 facet normal  2.500000e-01  8.660254e-01 -4.330127e-01
   outer loop
     vertex -1.331433e+00  8.050282e+00 -7.588910e-01
     vertex -1.708154e+00  8.050282e+00 -9.763910e-01
     vertex -2.113021e+00  8.517782e+00 -2.751410e-01
   endloop
 endfacet
 facet normal  2.500000e-01  8.660254e-01 -4.330127e-01
   outer loop
     vertex -1.331433e+00  8.050282e+00 -7.588910e-01
     vertex -2.113021e+00  8.517782e+00 -2.751410e-01
     vertex -1.736300e+00  8.517782e+00 -5.764100e-02
   endloop
 endfacet
 facet normal  4.330127e-01 -5.000000e-01 -7.500000e-01
   outer loop
     vertex -1.331433e+00  8.050282e+00 -7.588910e-01
     vertex -2.191904e+00  6.374523e+00 -1.385114e-01
     vertex -1.708154e+00  8.050282e+00 -9.763910e-01
   endloop
 endfacet
 facet normal  4.330127e-01 -5.000000e-01 -7.500000e-01
   outer loop
     vertex -1.331433e+00  8.050282e+00 -7.588910e-01
     vertex -1.815183e+00  6.374523e+00  7.898858e-02
     vertex -2.191904e+00  6.374523e+00 -1.385114e-01
   endloop
 endfacet
 facet normal -4.330127e-01  5.000000e-01  7.500000e-01
   outer loop
     vertex -1.736300e+00  8.517782e+00 -5.764100e-02
     vertex -2.113021e+00  8.517782e+00 -2.751410e-01
     vertex -2.596771e+00  6.842023e+00  5.627386e-01
   endloop
 endfacet
 facet normal -4.330127e-01  5.000000e-01  7.500000e-01
   outer loop
     vertex -1.736300e+00  8.517782e+00 -5.764100e-02
     vertex -2.596771e+00  6.842023e+00  5.627386e-01
     vertex -2.220050e+00  6.842023e+00  7.802386e-01
   endloop
 endfacet
 facet normal -8.660254e-01 -3.068228e-17 -5.000000e-01
   outer loop
     vertex -2.113021e+00  8.517782e+00 -2.751410e-01
     vertex -2.191904e+00  6.374523e+00 -1.385114e-01
     vertex -2.596771e+00  6.842023e+00  5.627386e-01
   endloop
 endfacet
 facet normal -8.660254e-01  3.068228e-17 -5.000000e-01
   outer loop
     vertex -2.113021e+00  8.517782e+00 -2.751410e-01
     vertex -1.708154e+00  8.050282e+00 -9.763910e-01
     vertex -2.191904e+00  6.374523e+00 -1.385114e-01
   endloop
 endfacet
 facet normal  8.660254e-01 -9.204685e-17  5.000000e-01
   outer loop
     vertex -1.736300e+00  8.517782e+00 -5.764100e-02
     vertex -2.220050e+00  6.842023e+00  7.802386e-01
     vertex -1.815183e+00  6.374523e+00  7.898858e-02
   endloop
 endfacet
 facet normal  8.660254e-01 -5.369399e-17  5.000000e-01
   outer loop
     vertex -1.736300e+00  8.517782e+00 -5.764100e-02
     vertex -1.815183e+00  6.374523e+00  7.898858e-02
     vertex -1.331433e+00  8.050282e+00 -7.588910e-01
   endloop
 endfacet
endsolid
