solid 
 facet normal -4.114324e-01  2.339784e-01 -8.808958e-01
   outer loop
     vertex  9.918827e-01 -2.842796e+00 -6.857503e+00
     vertex  7.547902e-01 -3.834719e+00 -7.010235e+00
     vertex  6.018438e-01 -2.963449e+00 -6.707378e+00
   endloop
 endfacet
 facet normal -4.114324e-01  2.339784e-01 -8.808958e-01
   outer loop
     vertex  9.918827e-01 -2.842796e+00 -6.857503e+00
     vertex  1.144829e+00 -3.714065e+00 -7.160360e+00
     vertex  7.547902e-01 -3.834719e+00 -7.010235e+00
   endloop
 endfacet
 facet normal  4.114324e-01 -2.339784e-01  8.808958e-01
   outer loop
     vertex  1.788004e+00 -3.295544e+00 -5.152970e+00
     vertex  1.397966e+00 -3.416198e+00 -5.002845e+00
     vertex  1.550912e+00 -4.287467e+00 -5.305702e+00
   endloop
 endfacet
 facet normal  4.114324e-01 -2.339784e-01  8.808958e-01
   outer loop
     vertex  1.788004e+00 -3.295544e+00 -5.152970e+00
     vertex  1.550912e+00 -4.287467e+00 -5.305702e+00
     vertex  1.940951e+00 -4.166814e+00 -5.455826e+00
   endloop
 endfacet
 facet normal -1.635790e-01  9.318388e-01  3.239111e-01
   outer loop
     vertex  1.788004e+00 -3.295544e+00 -5.152970e+00
     vertex  6.018438e-01 -2.963449e+00 -6.707378e+00
     vertex  1.397966e+00 -3.416198e+00 -5.002845e+00
   endloop
 endfacet
 facet normal -1.635790e-01  9.318388e-01  3.239111e-01
   outer loop
     vertex  1.788004e+00 -3.295544e+00 -5.152970e+00
     vertex  9.918827e-01 -2.842796e+00 -6.857503e+00
     vertex  6.018438e-01 -2.963449e+00 -6.707378e+00
   endloop
 endfacet
 facet normal  1.635790e-01 -9.318388e-01 -3.239111e-01
   outer loop
     vertex  1.940951e+00 -4.166814e+00 -5.455826e+00
     vertex  1.550912e+00 -4.287467e+00 -5.305702e+00
     vertex  7.547902e-01 -3.834719e+00 -7.010235e+00
   endloop
 endfacet
 facet normal  1.635790e-01 -9.318388e-01 -3.239111e-01
   outer loop
     vertex  1.940951e+00 -4.166814e+00 -5.455826e+00
     vertex  7.547902e-01 -3.834719e+00 -7.010235e+00
     vertex  1.144829e+00 -3.714065e+00 -7.160360e+00
   endloop
 endfacet
 facet normal -8.966411e-01 -2.773636e-01  3.451147e-01
   outer loop
     vertex  1.550912e+00 -4.287467e+00 -5.305702e+00
     vertex  6.018438e-01 -2.963449e+00 -6.707378e+00
     vertex  7.547902e-01 -3.834719e+00 -7.010235e+00
   endloop
 endfacet
 facet normal -8.966411e-01 -2.773636e-01  3.451147e-01
   outer loop
     vertex  1.550912e+00 -4.287467e+00 -5.305702e+00
     vertex  1.397966e+00 -3.416198e+00 -5.002845e+00
     vertex  6.018438e-01 -2.963449e+00 -6.707378e+00
   endloop
 endfacet
 facet normal  8.966411e-01  2.773636e-01 -3.451147e-01
   outer loop
     vertex  1.940951e+00 -4.166814e+00 -5.455826e+00
     vertex  1.144829e+00 -3.714065e+00 -7.160360e+00
     vertex  9.918827e-01 -2.842796e+00 -6.857503e+00
   endloop
 endfacet
 facet normal  8.966411e-01  2.773636e-01 -3.451147e-01
   outer loop
     vertex  1.940951e+00 -4.166814e+00 -5.455826e+00
     vertex  9.918827e-01 -2.842796e+00 -6.857503e+00
     vertex  1.788004e+00 -3.295544e+00 -5.152970e+00
   endloop
 endfacet
 facet normal  1.635790e-01 -9.318388e-01 -3.239111e-01
   outer loop
     vertex  6.965085e-01 -3.852747e+00 -6.987802e+00
     vertex  6.911590e-01 -4.192170e+00 -6.014040e+00
     vertex  3.064697e-01 -3.973400e+00 -6.837678e+00
   endloop
 endfacet
 facet normal  1.635790e-01 -9.318388e-01 -3.239111e-01
   outer loop
     vertex  6.965085e-01 -3.852747e+00 -6.987802e+00
     vertex  1.081198e+00 -4.071517e+00 -6.164165e+00
     vertex  6.911590e-01 -4.192170e+00 -6.014040e+00
   endloop
 endfacet
 facet normal -1.635790e-01  9.318388e-01  3.239111e-01
   outer loop
     vertex  3.799831e-01 -2.049639e+00 -6.361035e+00
     vertex -1.005574e-02 -2.170292e+00 -6.210910e+00
     vertex  3.746336e-01 -2.389062e+00 -5.387272e+00
   endloop
 endfacet
 facet normal -1.635790e-01  9.318388e-01  3.239111e-01
   outer loop
     vertex  3.799831e-01 -2.049639e+00 -6.361035e+00
     vertex  3.746336e-01 -2.389062e+00 -5.387272e+00
     vertex  7.646725e-01 -2.268409e+00 -5.537397e+00
   endloop
 endfacet
 facet normal -4.114324e-01  2.339784e-01 -8.808958e-01
   outer loop
     vertex  3.799831e-01 -2.049639e+00 -6.361035e+00
     vertex  3.064697e-01 -3.973400e+00 -6.837678e+00
     vertex -1.005574e-02 -2.170292e+00 -6.210910e+00
   endloop
 endfacet
 facet normal -4.114324e-01  2.339784e-01 -8.808958e-01
   outer loop
     vertex  3.799831e-01 -2.049639e+00 -6.361035e+00
     vertex  6.965085e-01 -3.852747e+00 -6.987802e+00
     vertex  3.064697e-01 -3.973400e+00 -6.837678e+00
   endloop
 endfacet
 facet normal  4.114324e-01 -2.339784e-01  8.808958e-01
   outer loop
     vertex  7.646725e-01 -2.268409e+00 -5.537397e+00
     vertex  3.746336e-01 -2.389062e+00 -5.387272e+00
     vertex  6.911590e-01 -4.192170e+00 -6.014040e+00
   endloop
 endfacet
 facet normal  4.114324e-01 -2.339784e-01  8.808958e-01
   outer loop
     vertex  7.646725e-01 -2.268409e+00 -5.537397e+00
     vertex  6.911590e-01 -4.192170e+00 -6.014040e+00
     vertex  1.081198e+00 -4.071517e+00 -6.164165e+00
   endloop
 endfacet
 facet normal -8.966411e-01 -2.773636e-01  3.451147e-01
   outer loop
     vertex  3.746336e-01 -2.389062e+00 -5.387272e+00
     vertex  3.064697e-01 -3.973400e+00 -6.837678e+00
     vertex  6.911590e-01 -4.192170e+00 -6.014040e+00
   endloop
 endfacet
 facet normal -8.966411e-01 -2.773636e-01  3.451147e-01
   outer loop
     vertex  3.746336e-01 -2.389062e+00 -5.387272e+00
     vertex -1.005574e-02 -2.170292e+00 -6.210910e+00
     vertex  3.064697e-01 -3.973400e+00 -6.837678e+00
   endloop
 endfacet
 facet normal  8.966411e-01  2.773636e-01 -3.451147e-01
   outer loop
     vertex  7.646725e-01 -2.268409e+00 -5.537397e+00
     vertex  1.081198e+00 -4.071517e+00 -6.164165e+00
     vertex  6.965085e-01 -3.852747e+00 -6.987802e+00
   endloop
 endfacet
 facet normal  8.966411e-01  2.773636e-01 -3.451147e-01
   outer loop
     vertex  7.646725e-01 -2.268409e+00 -5.537397e+00
     vertex  6.965085e-01 -3.852747e+00 -6.987802e+00
     vertex  3.799831e-01 -2.049639e+00 -6.361035e+00
   endloop
 endfacet
 facet normal -4.114324e-01  2.339784e-01 -8.808958e-01
   outer loop
     vertex  9.524161e-02 -3.120160e+00 -6.512388e+00
     vertex -1.418509e-01 -4.112082e+00 -6.665120e+00
     vertex -2.947973e-01 -3.240813e+00 -6.362263e+00
   endloop
 endfacet
 facet normal -4.114324e-01  2.339784e-01 -8.808958e-01
   outer loop
     vertex  9.524161e-02 -3.120160e+00 -6.512388e+00
     vertex  2.481880e-01 -3.991429e+00 -6.815245e+00
     vertex -1.418509e-01 -4.112082e+00 -6.665120e+00
   endloop
 endfacet
 facet normal  4.114324e-01 -2.339784e-01  8.808958e-01
   outer loop
     vertex  8.913634e-01 -3.572908e+00 -4.807855e+00
     vertex  5.013245e-01 -3.693561e+00 -4.657730e+00
     vertex  6.542709e-01 -4.564830e+00 -4.960587e+00
   endloop
 endfacet
 facet normal  4.114324e-01 -2.339784e-01  8.808958e-01
   outer loop
     vertex  8.913634e-01 -3.572908e+00 -4.807855e+00
     vertex  6.542709e-01 -4.564830e+00 -4.960587e+00
     vertex  1.044310e+00 -4.444177e+00 -5.110712e+00
   endloop
 endfacet
 facet normal -1.635790e-01  9.318388e-01  3.239111e-01
   outer loop
     vertex  8.913634e-01 -3.572908e+00 -4.807855e+00
     vertex -2.947973e-01 -3.240813e+00 -6.362263e+00
     vertex  5.013245e-01 -3.693561e+00 -4.657730e+00
   endloop
 endfacet
 facet normal -1.635790e-01  9.318388e-01  3.239111e-01
   outer loop
     vertex  8.913634e-01 -3.572908e+00 -4.807855e+00
     vertex  9.524161e-02 -3.120160e+00 -6.512388e+00
     vertex -2.947973e-01 -3.240813e+00 -6.362263e+00
   endloop
 endfacet
 facet normal  1.635790e-01 -9.318388e-01 -3.239111e-01
   outer loop
     vertex  1.044310e+00 -4.444177e+00 -5.110712e+00
     vertex  6.542709e-01 -4.564830e+00 -4.960587e+00
     vertex -1.418509e-01 -4.112082e+00 -6.665120e+00
   endloop
 endfacet
 facet normal  1.635790e-01 -9.318388e-01 -3.239111e-01
   outer loop
     vertex  1.044310e+00 -4.444177e+00 -5.110712e+00
     vertex -1.418509e-01 -4.112082e+00 -6.665120e+00
     vertex  2.481880e-01 -3.991429e+00 -6.815245e+00
   endloop
 endfacet
 facet normal -8.966411e-01 -2.773636e-01  3.451147e-01
   outer loop
     vertex  6.542709e-01 -4.564830e+00 -4.960587e+00
     vertex -2.947973e-01 -3.240813e+00 -6.362263e+00
     vertex -1.418509e-01 -4.112082e+00 -6.665120e+00
   endloop
 endfacet
 facet normal -8.966411e-01 -2.773636e-01  3.451147e-01
   outer loop
     vertex  6.542709e-01 -4.564830e+00 -4.960587e+00
     vertex  5.013245e-01 -3.693561e+00 -4.657730e+00
     vertex -2.947973e-01 -3.240813e+00 -6.362263e+00
   endloop
 endfacet
 facet normal  8.966411e-01  2.773636e-01 -3.451147e-01
   outer loop
     vertex  1.044310e+00 -4.444177e+00 -5.110712e+00
     vertex  2.481880e-01 -3.991429e+00 -6.815245e+00
     vertex  9.524161e-02 -3.120160e+00 -6.512388e+00
   endloop
 endfacet
 facet normal  8.966411e-01  2.773636e-01 -3.451147e-01
   outer loop
     vertex  1.044310e+00 -4.444177e+00 -5.110712e+00
     vertex  9.524161e-02 -3.120160e+00 -6.512388e+00
     vertex  8.913634e-01 -3.572908e+00 -4.807855e+00
   endloop
 endfacet
 facet normal  1.635790e-01 -9.318388e-01 -3.239111e-01
   outer loop
     vertex -2.001326e-01 -4.130111e+00 -6.642688e+00
     vertex -2.054821e-01 -4.469534e+00 -5.668925e+00
     vertex -5.901714e-01 -4.250764e+00 -6.492563e+00
   endloop
 endfacet
 facet normal  1.635790e-01 -9.318388e-01 -3.239111e-01
   outer loop
     vertex -2.001326e-01 -4.130111e+00 -6.642688e+00
     vertex  1.845568e-01 -4.348881e+00 -5.819050e+00
     vertex -2.054821e-01 -4.469534e+00 -5.668925e+00
   endloop
 endfacet
 facet normal -1.635790e-01  9.318388e-01  3.239111e-01
   outer loop
     vertex -5.166580e-01 -2.327003e+00 -6.015920e+00
     vertex -9.066968e-01 -2.447656e+00 -5.865795e+00
     vertex -5.220075e-01 -2.666426e+00 -5.042157e+00
   endloop
 endfacet
 facet normal -1.635790e-01  9.318388e-01  3.239111e-01
   outer loop
     vertex -5.166580e-01 -2.327003e+00 -6.015920e+00
     vertex -5.220075e-01 -2.666426e+00 -5.042157e+00
     vertex -1.319686e-01 -2.545773e+00 -5.192282e+00
   endloop
 endfacet
 facet normal -4.114324e-01  2.339784e-01 -8.808958e-01
   outer loop
     vertex -5.166580e-01 -2.327003e+00 -6.015920e+00
     vertex -5.901714e-01 -4.250764e+00 -6.492563e+00
     vertex -9.066968e-01 -2.447656e+00 -5.865795e+00
   endloop
 endfacet
 facet normal -4.114324e-01  2.339784e-01 -8.808958e-01
   outer loop
     vertex -5.166580e-01 -2.327003e+00 -6.015920e+00
     vertex -2.001326e-01 -4.130111e+00 -6.642688e+00
     vertex -5.901714e-01 -4.250764e+00 -6.492563e+00
   endloop
 endfacet
 facet normal  4.114324e-01 -2.339784e-01  8.808958e-01
   outer loop
     vertex -1.319686e-01 -2.545773e+00 -5.192282e+00
     vertex -5.220075e-01 -2.666426e+00 -5.042157e+00
     vertex -2.054821e-01 -4.469534e+00 -5.668925e+00
   endloop
 endfacet
 facet normal  4.114324e-01 -2.339784e-01  8.808958e-01
   outer loop
     vertex -1.319686e-01 -2.545773e+00 -5.192282e+00
     vertex -2.054821e-01 -4.469534e+00 -5.668925e+00
     vertex  1.845568e-01 -4.348881e+00 -5.819050e+00
   endloop
 endfacet
 facet normal -8.966411e-01 -2.773636e-01  3.451147e-01
   outer loop
     vertex -5.220075e-01 -2.666426e+00 -5.042157e+00
     vertex -5.901714e-01 -4.250764e+00 -6.492563e+00
     vertex -2.054821e-01 -4.469534e+00 -5.668925e+00
   endloop
 endfacet
 facet normal -8.966411e-01 -2.773636e-01  3.451147e-01
   outer loop
     vertex -5.220075e-01 -2.666426e+00 -5.042157e+00
     vertex -9.066968e-01 -2.447656e+00 -5.865795e+00
     vertex -5.901714e-01 -4.250764e+00 -6.492563e+00
   endloop
 endfacet
 facet normal  8.966411e-01  2.773636e-01 -3.451147e-01
   outer loop
     vertex -1.319686e-01 -2.545773e+00 -5.192282e+00
     vertex  1.845568e-01 -4.348881e+00 -5.819050e+00
     vertex -2.001326e-01 -4.130111e+00 -6.642688e+00
   endloop
 endfacet
 facet normal  8.966411e-01  2.773636e-01 -3.451147e-01
   outer loop
     vertex -1.319686e-01 -2.545773e+00 -5.192282e+00
     vertex -2.001326e-01 -4.130111e+00 -6.642688e+00
     vertex -5.166580e-01 -2.327003e+00 -6.015920e+00
   endloop
 endfacet
 facet normal -4.114324e-01  2.339784e-01 -8.808958e-01
   outer loop
     vertex -8.013995e-01 -3.397523e+00 -6.167274e+00
     vertex -1.038492e+00 -4.389446e+00 -6.320005e+00
     vertex -1.191438e+00 -3.518176e+00 -6.017149e+00
   endloop
 endfacet
 facet normal -4.114324e-01  2.339784e-01 -8.808958e-01
   outer loop
     vertex -8.013995e-01 -3.397523e+00 -6.167274e+00
     vertex -6.484531e-01 -4.268793e+00 -6.470130e+00
     vertex -1.038492e+00 -4.389446e+00 -6.320005e+00
   endloop
 endfacet
 facet normal  4.114324e-01 -2.339784e-01  8.808958e-01
   outer loop
     vertex -5.277724e-03 -3.850272e+00 -4.462740e+00
     vertex -3.953166e-01 -3.970925e+00 -4.312615e+00
     vertex -2.423702e-01 -4.842194e+00 -4.615472e+00
   endloop
 endfacet
 facet normal  4.114324e-01 -2.339784e-01  8.808958e-01
   outer loop
     vertex -5.277724e-03 -3.850272e+00 -4.462740e+00
     vertex -2.423702e-01 -4.842194e+00 -4.615472e+00
     vertex  1.476687e-01 -4.721541e+00 -4.765597e+00
   endloop
 endfacet
 facet normal -1.635790e-01  9.318388e-01  3.239111e-01
   outer loop
     vertex -5.277724e-03 -3.850272e+00 -4.462740e+00
     vertex -1.191438e+00 -3.518176e+00 -6.017149e+00
     vertex -3.953166e-01 -3.970925e+00 -4.312615e+00
   endloop
 endfacet
 facet normal -1.635790e-01  9.318388e-01  3.239111e-01
   outer loop
     vertex -5.277724e-03 -3.850272e+00 -4.462740e+00
     vertex -8.013995e-01 -3.397523e+00 -6.167274e+00
     vertex -1.191438e+00 -3.518176e+00 -6.017149e+00
   endloop
 endfacet
 facet normal  1.635790e-01 -9.318388e-01 -3.239111e-01
   outer loop
     vertex  1.476687e-01 -4.721541e+00 -4.765597e+00
     vertex -2.423702e-01 -4.842194e+00 -4.615472e+00
     vertex -1.038492e+00 -4.389446e+00 -6.320005e+00
   endloop
 endfacet
 facet normal  1.635790e-01 -9.318388e-01 -3.239111e-01
   outer loop
     vertex  1.476687e-01 -4.721541e+00 -4.765597e+00
     vertex -1.038492e+00 -4.389446e+00 -6.320005e+00
     vertex -6.484531e-01 -4.268793e+00 -6.470130e+00
   endloop
 endfacet
 facet normal -8.966411e-01 -2.773636e-01  3.451147e-01
   outer loop
     vertex -2.423702e-01 -4.842194e+00 -4.615472e+00
     vertex -1.191438e+00 -3.518176e+00 -6.017149e+00
     vertex -1.038492e+00 -4.389446e+00 -6.320005e+00
   endloop
 endfacet
 facet normal -8.966411e-01 -2.773636e-01  3.451147e-01
   outer loop
     vertex -2.423702e-01 -4.842194e+00 -4.615472e+00
     vertex -3.953166e-01 -3.970925e+00 -4.312615e+00
     vertex -1.191438e+00 -3.518176e+00 -6.017149e+00
   endloop
 endfacet
 facet normal  8.966411e-01  2.773636e-01 -3.451147e-01
   outer loop
     vertex  1.476687e-01 -4.721541e+00 -4.765597e+00
     vertex -6.484531e-01 -4.268793e+00 -6.470130e+00
     vertex -8.013995e-01 -3.397523e+00 -6.167274e+00
   endloop
 endfacet
 facet normal  8.966411e-01  2.773636e-01 -3.451147e-01
   outer loop
     vertex  1.476687e-01 -4.721541e+00 -4.765597e+00
     vertex -8.013995e-01 -3.397523e+00 -6.167274e+00
     vertex -5.277724e-03 -3.850272e+00 -4.462740e+00
   endloop
 endfacet
 facet normal  1.635790e-01 -9.318388e-01 -3.239111e-01
   outer loop
     vertex -1.096774e+00 -4.407474e+00 -6.297573e+00
     vertex -1.102123e+00 -4.746897e+00 -5.323811e+00
     vertex -1.486813e+00 -4.528128e+00 -6.147448e+00
   endloop
 endfacet
 facet normal  1.635790e-01 -9.318388e-01 -3.239111e-01
   outer loop
     vertex -1.096774e+00 -4.407474e+00 -6.297573e+00
     vertex -7.120843e-01 -4.626244e+00 -5.473935e+00
     vertex -1.102123e+00 -4.746897e+00 -5.323811e+00
   endloop
 endfacet
 facet normal -1.635790e-01  9.318388e-01  3.239111e-01
   outer loop
     vertex -1.413299e+00 -2.604366e+00 -5.670805e+00
     vertex -1.803338e+00 -2.725019e+00 -5.520680e+00
     vertex -1.418649e+00 -2.943789e+00 -4.697043e+00
   endloop
 endfacet
 facet normal -1.635790e-01  9.318388e-01  3.239111e-01
   outer loop
     vertex -1.413299e+00 -2.604366e+00 -5.670805e+00
     vertex -1.418649e+00 -2.943789e+00 -4.697043e+00
     vertex -1.028610e+00 -2.823136e+00 -4.847168e+00
   endloop
 endfacet
 facet normal -4.114324e-01  2.339784e-01 -8.808958e-01
   outer loop
     vertex -1.413299e+00 -2.604366e+00 -5.670805e+00
     vertex -1.486813e+00 -4.528128e+00 -6.147448e+00
     vertex -1.803338e+00 -2.725019e+00 -5.520680e+00
   endloop
 endfacet
 facet normal -4.114324e-01  2.339784e-01 -8.808958e-01
   outer loop
     vertex -1.413299e+00 -2.604366e+00 -5.670805e+00
     vertex -1.096774e+00 -4.407474e+00 -6.297573e+00
     vertex -1.486813e+00 -4.528128e+00 -6.147448e+00
   endloop
 endfacet
 facet normal  4.114324e-01 -2.339784e-01  8.808958e-01
   outer loop
     vertex -1.028610e+00 -2.823136e+00 -4.847168e+00
     vertex -1.418649e+00 -2.943789e+00 -4.697043e+00
     vertex -1.102123e+00 -4.746897e+00 -5.323811e+00
   endloop
 endfacet
 facet normal  4.114324e-01 -2.339784e-01  8.808958e-01
   outer loop
     vertex -1.028610e+00 -2.823136e+00 -4.847168e+00
     vertex -1.102123e+00 -4.746897e+00 -5.323811e+00
     vertex -7.120843e-01 -4.626244e+00 -5.473935e+00
   endloop
 endfacet
 facet normal -8.966411e-01 -2.773636e-01  3.451147e-01
   outer loop
     vertex -1.418649e+00 -2.943789e+00 -4.697043e+00
     vertex -1.486813e+00 -4.528128e+00 -6.147448e+00
     vertex -1.102123e+00 -4.746897e+00 -5.323811e+00
   endloop
 endfacet
 facet normal -8.966411e-01 -2.773636e-01  3.451147e-01
   outer loop
     vertex -1.418649e+00 -2.943789e+00 -4.697043e+00
     vertex -1.803338e+00 -2.725019e+00 -5.520680e+00
     vertex -1.486813e+00 -4.528128e+00 -6.147448e+00
   endloop
 endfacet
 facet normal  8.966411e-01  2.773636e-01 -3.451147e-01
   outer loop
     vertex -1.028610e+00 -2.823136e+00 -4.847168e+00
     vertex -7.120843e-01 -4.626244e+00 -5.473935e+00
     vertex -1.096774e+00 -4.407474e+00 -6.297573e+00
   endloop
 endfacet
 facet normal  8.966411e-01  2.773636e-01 -3.451147e-01
   outer loop
     vertex -1.028610e+00 -2.823136e+00 -4.847168e+00
     vertex -1.096774e+00 -4.407474e+00 -6.297573e+00
     vertex -1.413299e+00 -2.604366e+00 -5.670805e+00
   endloop
 endfacet
 facet normal -4.114324e-01  2.339784e-01 -8.808958e-01
   outer loop
     vertex -1.698041e+00 -3.674887e+00 -5.822159e+00
     vertex -1.935133e+00 -4.666809e+00 -5.974891e+00
     vertex -2.088079e+00 -3.795540e+00 -5.672034e+00
   endloop
 endfacet
 facet normal -4.114324e-01  2.339784e-01 -8.808958e-01
   outer loop
     vertex -1.698041e+00 -3.674887e+00 -5.822159e+00
     vertex -1.545094e+00 -4.546156e+00 -6.125016e+00
     vertex -1.935133e+00 -4.666809e+00 -5.974891e+00
   endloop
 endfacet
 facet normal  4.114324e-01 -2.339784e-01  8.808958e-01
   outer loop
     vertex -9.019188e-01 -4.127635e+00 -4.117625e+00
     vertex -1.291958e+00 -4.248288e+00 -3.967500e+00
     vertex -1.139011e+00 -5.119558e+00 -4.270357e+00
   endloop
 endfacet
 facet normal  4.114324e-01 -2.339784e-01  8.808958e-01
   outer loop
     vertex -9.019188e-01 -4.127635e+00 -4.117625e+00
     vertex -1.139011e+00 -5.119558e+00 -4.270357e+00
     vertex -7.489724e-01 -4.998904e+00 -4.420482e+00
   endloop
 endfacet
 facet normal -1.635790e-01  9.318388e-01  3.239111e-01
   outer loop
     vertex -9.019188e-01 -4.127635e+00 -4.117625e+00
     vertex -2.088079e+00 -3.795540e+00 -5.672034e+00
     vertex -1.291958e+00 -4.248288e+00 -3.967500e+00
   endloop
 endfacet
 facet normal -1.635790e-01  9.318388e-01  3.239111e-01
   outer loop
     vertex -9.019188e-01 -4.127635e+00 -4.117625e+00
     vertex -1.698041e+00 -3.674887e+00 -5.822159e+00
     vertex -2.088079e+00 -3.795540e+00 -5.672034e+00
   endloop
 endfacet
 facet normal  1.635790e-01 -9.318388e-01 -3.239111e-01
   outer loop
     vertex -7.489724e-01 -4.998904e+00 -4.420482e+00
     vertex -1.139011e+00 -5.119558e+00 -4.270357e+00
     vertex -1.935133e+00 -4.666809e+00 -5.974891e+00
   endloop
 endfacet
 facet normal  1.635790e-01 -9.318388e-01 -3.239111e-01
   outer loop
     vertex -7.489724e-01 -4.998904e+00 -4.420482e+00
     vertex -1.935133e+00 -4.666809e+00 -5.974891e+00
     vertex -1.545094e+00 -4.546156e+00 -6.125016e+00
   endloop
 endfacet
 facet normal -8.966411e-01 -2.773636e-01  3.451147e-01
   outer loop
     vertex -1.139011e+00 -5.119558e+00 -4.270357e+00
     vertex -2.088079e+00 -3.795540e+00 -5.672034e+00
     vertex -1.935133e+00 -4.666809e+00 -5.974891e+00
   endloop
 endfacet
 facet normal -8.966411e-01 -2.773636e-01  3.451147e-01
   outer loop
     vertex -1.139011e+00 -5.119558e+00 -4.270357e+00
     vertex -1.291958e+00 -4.248288e+00 -3.967500e+00
     vertex -2.088079e+00 -3.795540e+00 -5.672034e+00
   endloop
 endfacet
 facet normal  8.966411e-01  2.773636e-01 -3.451147e-01
   outer loop
     vertex -7.489724e-01 -4.998904e+00 -4.420482e+00
     vertex -1.545094e+00 -4.546156e+00 -6.125016e+00
     vertex -1.698041e+00 -3.674887e+00 -5.822159e+00
   endloop
 endfacet
 facet normal  8.966411e-01  2.773636e-01 -3.451147e-01
   outer loop
     vertex -7.489724e-01 -4.998904e+00 -4.420482e+00
     vertex -1.698041e+00 -3.674887e+00 -5.822159e+00
     vertex -9.019188e-01 -4.127635e+00 -4.117625e+00
   endloop
 endfacet
 facet normal  1.635790e-01 -9.318388e-01 -3.239111e-01
   outer loop
     vertex -1.993415e+00 -4.684838e+00 -5.952458e+00
     vertex -1.998764e+00 -5.024261e+00 -4.978696e+00
     vertex -2.383454e+00 -4.805491e+00 -5.802333e+00
   endloop
 endfacet
 facet normal  1.635790e-01 -9.318388e-01 -3.239111e-01
   outer loop
     vertex -1.993415e+00 -4.684838e+00 -5.952458e+00
     vertex -1.608725e+00 -4.903608e+00 -5.128821e+00
     vertex -1.998764e+00 -5.024261e+00 -4.978696e+00
   endloop
 endfacet
 facet normal -1.635790e-01  9.318388e-01  3.239111e-01
   outer loop
     vertex -2.309940e+00 -2.881730e+00 -5.325690e+00
     vertex -2.699979e+00 -3.002383e+00 -5.175565e+00
     vertex -2.315290e+00 -3.221153e+00 -4.351928e+00
   endloop
 endfacet
 facet normal -1.635790e-01  9.318388e-01  3.239111e-01
   outer loop
     vertex -2.309940e+00 -2.881730e+00 -5.325690e+00
     vertex -2.315290e+00 -3.221153e+00 -4.351928e+00
     vertex -1.925251e+00 -3.100500e+00 -4.502053e+00
   endloop
 endfacet
 facet normal -4.114324e-01  2.339784e-01 -8.808958e-01
   outer loop
     vertex -2.309940e+00 -2.881730e+00 -5.325690e+00
     vertex -2.383454e+00 -4.805491e+00 -5.802333e+00
     vertex -2.699979e+00 -3.002383e+00 -5.175565e+00
   endloop
 endfacet
 facet normal -4.114324e-01  2.339784e-01 -8.808958e-01
   outer loop
     vertex -2.309940e+00 -2.881730e+00 -5.325690e+00
     vertex -1.993415e+00 -4.684838e+00 -5.952458e+00
     vertex -2.383454e+00 -4.805491e+00 -5.802333e+00
   endloop
 endfacet
 facet normal  4.114324e-01 -2.339784e-01  8.808958e-01
   outer loop
     vertex -1.925251e+00 -3.100500e+00 -4.502053e+00
     vertex -2.315290e+00 -3.221153e+00 -4.351928e+00
     vertex -1.998764e+00 -5.024261e+00 -4.978696e+00
   endloop
 endfacet
 facet normal  4.114324e-01 -2.339784e-01  8.808958e-01
   outer loop
     vertex -1.925251e+00 -3.100500e+00 -4.502053e+00
     vertex -1.998764e+00 -5.024261e+00 -4.978696e+00
     vertex -1.608725e+00 -4.903608e+00 -5.128821e+00
   endloop
 endfacet
 facet normal -8.966411e-01 -2.773636e-01  3.451147e-01
   outer loop
     vertex -2.315290e+00 -3.221153e+00 -4.351928e+00
     vertex -2.383454e+00 -4.805491e+00 -5.802333e+00
     vertex -1.998764e+00 -5.024261e+00 -4.978696e+00
   endloop
 endfacet
 facet normal -8.966411e-01 -2.773636e-01  3.451147e-01
   outer loop
     vertex -2.315290e+00 -3.221153e+00 -4.351928e+00
     vertex -2.699979e+00 -3.002383e+00 -5.175565e+00
     vertex -2.383454e+00 -4.805491e+00 -5.802333e+00
   endloop
 endfacet
 facet normal  8.966411e-01  2.773636e-01 -3.451147e-01
   outer loop
     vertex -1.925251e+00 -3.100500e+00 -4.502053e+00
     vertex -1.608725e+00 -4.903608e+00 -5.128821e+00
     vertex -1.993415e+00 -4.684838e+00 -5.952458e+00
   endloop
 endfacet
 facet normal  8.966411e-01  2.773636e-01 -3.451147e-01
   outer loop
     vertex -1.925251e+00 -3.100500e+00 -4.502053e+00
     vertex -1.993415e+00 -4.684838e+00 -5.952458e+00
     vertex -2.309940e+00 -2.881730e+00 -5.325690e+00
   endloop
 endfacet
 facet normal -4.114324e-01  2.339784e-01 -8.808958e-01
   outer loop
     vertex -2.594682e+00 -3.952251e+00 -5.477044e+00
     vertex -2.831774e+00 -4.944173e+00 -5.629776e+00
     vertex -2.984721e+00 -4.072904e+00 -5.326919e+00
   endloop
 endfacet
 facet normal -4.114324e-01  2.339784e-01 -8.808958e-01
   outer loop
     vertex -2.594682e+00 -3.952251e+00 -5.477044e+00
     vertex -2.441735e+00 -4.823520e+00 -5.779901e+00
     vertex -2.831774e+00 -4.944173e+00 -5.629776e+00
   endloop
 endfacet
 facet normal  4.114324e-01 -2.339784e-01  8.808958e-01
   outer loop
     vertex -1.798560e+00 -4.404999e+00 -3.772511e+00
     vertex -2.188599e+00 -4.525652e+00 -3.622386e+00
     vertex -2.035652e+00 -5.396921e+00 -3.925243e+00
   endloop
 endfacet
 facet normal  4.114324e-01 -2.339784e-01  8.808958e-01
   outer loop
     vertex -1.798560e+00 -4.404999e+00 -3.772511e+00
     vertex -2.035652e+00 -5.396921e+00 -3.925243e+00
     vertex -1.645614e+00 -5.276268e+00 -4.075367e+00
   endloop
 endfacet
 facet normal -1.635790e-01  9.318388e-01  3.239111e-01
   outer loop
     vertex -1.798560e+00 -4.404999e+00 -3.772511e+00
     vertex -2.984721e+00 -4.072904e+00 -5.326919e+00
     vertex -2.188599e+00 -4.525652e+00 -3.622386e+00
   endloop
 endfacet
 facet normal -1.635790e-01  9.318388e-01  3.239111e-01
   outer loop
     vertex -1.798560e+00 -4.404999e+00 -3.772511e+00
     vertex -2.594682e+00 -3.952251e+00 -5.477044e+00
     vertex -2.984721e+00 -4.072904e+00 -5.326919e+00
   endloop
 endfacet
 facet normal  1.635790e-01 -9.318388e-01 -3.239111e-01
   outer loop
     vertex -1.645614e+00 -5.276268e+00 -4.075367e+00
     vertex -2.035652e+00 -5.396921e+00 -3.925243e+00
     vertex -2.831774e+00 -4.944173e+00 -5.629776e+00
   endloop
 endfacet
 facet normal  1.635790e-01 -9.318388e-01 -3.239111e-01
   outer loop
     vertex -1.645614e+00 -5.276268e+00 -4.075367e+00
     vertex -2.831774e+00 -4.944173e+00 -5.629776e+00
     vertex -2.441735e+00 -4.823520e+00 -5.779901e+00
   endloop
 endfacet
 facet normal -8.966411e-01 -2.773636e-01  3.451147e-01
   outer loop
     vertex -2.035652e+00 -5.396921e+00 -3.925243e+00
     vertex -2.984721e+00 -4.072904e+00 -5.326919e+00
     vertex -2.831774e+00 -4.944173e+00 -5.629776e+00
   endloop
 endfacet
 facet normal -8.966411e-01 -2.773636e-01  3.451147e-01
   outer loop
     vertex -2.035652e+00 -5.396921e+00 -3.925243e+00
     vertex -2.188599e+00 -4.525652e+00 -3.622386e+00
     vertex -2.984721e+00 -4.072904e+00 -5.326919e+00
   endloop
 endfacet
 facet normal  8.966411e-01  2.773636e-01 -3.451147e-01
   outer loop
     vertex -1.645614e+00 -5.276268e+00 -4.075367e+00
     vertex -2.441735e+00 -4.823520e+00 -5.779901e+00
     vertex -2.594682e+00 -3.952251e+00 -5.477044e+00
   endloop
 endfacet
 facet normal  8.966411e-01  2.773636e-01 -3.451147e-01
   outer loop
     vertex -1.645614e+00 -5.276268e+00 -4.075367e+00
     vertex -2.594682e+00 -3.952251e+00 -5.477044e+00
     vertex -1.798560e+00 -4.404999e+00 -3.772511e+00
   endloop
 endfacet
 facet normal  1.635790e-01 -9.318388e-01 -3.239111e-01
   outer loop
     vertex -2.890056e+00 -4.962202e+00 -5.607344e+00
     vertex -2.895405e+00 -5.301625e+00 -4.633581e+00
     vertex -3.280095e+00 -5.082855e+00 -5.457219e+00
   endloop
 endfacet
 facet normal  1.635790e-01 -9.318388e-01 -3.239111e-01
   outer loop
     vertex -2.890056e+00 -4.962202e+00 -5.607344e+00
     vertex -2.505367e+00 -5.180971e+00 -4.783706e+00
     vertex -2.895405e+00 -5.301625e+00 -4.633581e+00
   endloop
 endfacet
 facet normal -1.635790e-01  9.318388e-01  3.239111e-01
   outer loop
     vertex -3.206581e+00 -3.159094e+00 -4.980576e+00
     vertex -3.596620e+00 -3.279747e+00 -4.830451e+00
     vertex -3.211931e+00 -3.498517e+00 -4.006813e+00
   endloop
 endfacet
 facet normal -1.635790e-01  9.318388e-01  3.239111e-01
   outer loop
     vertex -3.206581e+00 -3.159094e+00 -4.980576e+00
     vertex -3.211931e+00 -3.498517e+00 -4.006813e+00
     vertex -2.821892e+00 -3.377863e+00 -4.156938e+00
   endloop
 endfacet
 facet normal -4.114324e-01  2.339784e-01 -8.808958e-01
   outer loop
     vertex -3.206581e+00 -3.159094e+00 -4.980576e+00
     vertex -3.280095e+00 -5.082855e+00 -5.457219e+00
     vertex -3.596620e+00 -3.279747e+00 -4.830451e+00
   endloop
 endfacet
 facet normal -4.114324e-01  2.339784e-01 -8.808958e-01
   outer loop
     vertex -3.206581e+00 -3.159094e+00 -4.980576e+00
     vertex -2.890056e+00 -4.962202e+00 -5.607344e+00
     vertex -3.280095e+00 -5.082855e+00 -5.457219e+00
   endloop
 endfacet
 facet normal  4.114324e-01 -2.339784e-01  8.808958e-01
   outer loop
     vertex -2.821892e+00 -3.377863e+00 -4.156938e+00
     vertex -3.211931e+00 -3.498517e+00 -4.006813e+00
     vertex -2.895405e+00 -5.301625e+00 -4.633581e+00
   endloop
 endfacet
 facet normal  4.114324e-01 -2.339784e-01  8.808958e-01
   outer loop
     vertex -2.821892e+00 -3.377863e+00 -4.156938e+00
     vertex -2.895405e+00 -5.301625e+00 -4.633581e+00
     vertex -2.505367e+00 -5.180971e+00 -4.783706e+00
   endloop
 endfacet
 facet normal -8.966411e-01 -2.773636e-01  3.451147e-01
   outer loop
     vertex -3.211931e+00 -3.498517e+00 -4.006813e+00
     vertex -3.280095e+00 -5.082855e+00 -5.457219e+00
     vertex -2.895405e+00 -5.301625e+00 -4.633581e+00
   endloop
 endfacet
 facet normal -8.966411e-01 -2.773636e-01  3.451147e-01
   outer loop
     vertex -3.211931e+00 -3.498517e+00 -4.006813e+00
     vertex -3.596620e+00 -3.279747e+00 -4.830451e+00
     vertex -3.280095e+00 -5.082855e+00 -5.457219e+00
   endloop
 endfacet
 facet normal  8.966411e-01  2.773636e-01 -3.451147e-01
   outer loop
     vertex -2.821892e+00 -3.377863e+00 -4.156938e+00
     vertex -2.505367e+00 -5.180971e+00 -4.783706e+00
     vertex -2.890056e+00 -4.962202e+00 -5.607344e+00
   endloop
 endfacet
 facet normal  8.966411e-01  2.773636e-01 -3.451147e-01
   outer loop
     vertex -2.821892e+00 -3.377863e+00 -4.156938e+00
     vertex -2.890056e+00 -4.962202e+00 -5.607344e+00
     vertex -3.206581e+00 -3.159094e+00 -4.980576e+00
   endloop
 endfacet
 facet normal -1.635790e-01  9.318388e-01  3.239111e-01
   outer loop
     vertex -4.227972e-01  7.188661e+00 -2.470844e+00
     vertex -1.197525e+00  7.286777e+00 -3.144356e+00
     vertex -8.128361e-01  7.068008e+00 -2.320719e+00
   endloop
 endfacet
 facet normal -1.635790e-01  9.318388e-01  3.239111e-01
   outer loop
     vertex -4.227972e-01  7.188661e+00 -2.470844e+00
     vertex -8.074865e-01  7.407431e+00 -3.294481e+00
     vertex -1.197525e+00  7.286777e+00 -3.144356e+00
   endloop
 endfacet
 facet normal  1.635790e-01 -9.318388e-01 -3.239111e-01
   outer loop
     vertex -1.062718e-01  5.385553e+00 -3.097612e+00
     vertex -4.963107e-01  5.264899e+00 -2.947487e+00
     vertex -8.810000e-01  5.483669e+00 -3.771124e+00
   endloop
 endfacet
 facet normal  1.635790e-01 -9.318388e-01 -3.239111e-01
   outer loop
     vertex -1.062718e-01  5.385553e+00 -3.097612e+00
     vertex -8.810000e-01  5.483669e+00 -3.771124e+00
     vertex -4.909611e-01  5.604322e+00 -3.921249e+00
   endloop
 endfacet
 facet normal  4.114324e-01 -2.339784e-01  8.808958e-01
   outer loop
     vertex -1.062718e-01  5.385553e+00 -3.097612e+00
     vertex -8.128361e-01  7.068008e+00 -2.320719e+00
     vertex -4.963107e-01  5.264899e+00 -2.947487e+00
   endloop
 endfacet
 facet normal  4.114324e-01 -2.339784e-01  8.808958e-01
   outer loop
     vertex -1.062718e-01  5.385553e+00 -3.097612e+00
     vertex -4.227972e-01  7.188661e+00 -2.470844e+00
     vertex -8.128361e-01  7.068008e+00 -2.320719e+00
   endloop
 endfacet
 facet normal -4.114324e-01  2.339784e-01 -8.808958e-01
   outer loop
     vertex -4.909611e-01  5.604322e+00 -3.921249e+00
     vertex -8.810000e-01  5.483669e+00 -3.771124e+00
     vertex -1.197525e+00  7.286777e+00 -3.144356e+00
   endloop
 endfacet
 facet normal -4.114324e-01  2.339784e-01 -8.808958e-01
   outer loop
     vertex -4.909611e-01  5.604322e+00 -3.921249e+00
     vertex -1.197525e+00  7.286777e+00 -3.144356e+00
     vertex -8.074865e-01  7.407431e+00 -3.294481e+00
   endloop
 endfacet
 facet normal -8.966411e-01 -2.773636e-01  3.451147e-01
   outer loop
     vertex -8.810000e-01  5.483669e+00 -3.771124e+00
     vertex -8.128361e-01  7.068008e+00 -2.320719e+00
     vertex -1.197525e+00  7.286777e+00 -3.144356e+00
   endloop
 endfacet
 facet normal -8.966411e-01 -2.773636e-01  3.451147e-01
   outer loop
     vertex -8.810000e-01  5.483669e+00 -3.771124e+00
     vertex -4.963107e-01  5.264899e+00 -2.947487e+00
     vertex -8.128361e-01  7.068008e+00 -2.320719e+00
   endloop
 endfacet
 facet normal  8.966411e-01  2.773636e-01 -3.451147e-01
   outer loop
     vertex -4.909611e-01  5.604322e+00 -3.921249e+00
     vertex -8.074865e-01  7.407431e+00 -3.294481e+00
     vertex -4.227972e-01  7.188661e+00 -2.470844e+00
   endloop
 endfacet
 facet normal  8.966411e-01  2.773636e-01 -3.451147e-01
   outer loop
     vertex -4.909611e-01  5.604322e+00 -3.921249e+00
     vertex -4.227972e-01  7.188661e+00 -2.470844e+00
     vertex -1.062718e-01  5.385553e+00 -3.097612e+00
   endloop
 endfacet
 facet normal -4.114324e-01  2.339784e-01 -8.808958e-01
   outer loop
     vertex -1.255807e+00  7.268749e+00 -3.121924e+00
     vertex -1.492900e+00  6.276826e+00 -3.274656e+00
     vertex -1.645846e+00  7.148096e+00 -2.971799e+00
   endloop
 endfacet
 facet normal -4.114324e-01  2.339784e-01 -8.808958e-01
   outer loop
     vertex -1.255807e+00  7.268749e+00 -3.121924e+00
     vertex -1.102861e+00  6.397479e+00 -3.424781e+00
     vertex -1.492900e+00  6.276826e+00 -3.274656e+00
   endloop
 endfacet
 facet normal  4.114324e-01 -2.339784e-01  8.808958e-01
   outer loop
     vertex -4.596853e-01  6.816000e+00 -1.417391e+00
     vertex -8.497242e-01  6.695347e+00 -1.267266e+00
     vertex -6.967778e-01  5.824078e+00 -1.570122e+00
   endloop
 endfacet
 facet normal  4.114324e-01 -2.339784e-01  8.808958e-01
   outer loop
     vertex -4.596853e-01  6.816000e+00 -1.417391e+00
     vertex -6.967778e-01  5.824078e+00 -1.570122e+00
     vertex -3.067389e-01  5.944731e+00 -1.720247e+00
   endloop
 endfacet
 facet normal -1.635790e-01  9.318388e-01  3.239111e-01
   outer loop
     vertex -4.596853e-01  6.816000e+00 -1.417391e+00
     vertex -1.645846e+00  7.148096e+00 -2.971799e+00
     vertex -8.497242e-01  6.695347e+00 -1.267266e+00
   endloop
 endfacet
 facet normal -1.635790e-01  9.318388e-01  3.239111e-01
   outer loop
     vertex -4.596853e-01  6.816000e+00 -1.417391e+00
     vertex -1.255807e+00  7.268749e+00 -3.121924e+00
     vertex -1.645846e+00  7.148096e+00 -2.971799e+00
   endloop
 endfacet
 facet normal  1.635790e-01 -9.318388e-01 -3.239111e-01
   outer loop
     vertex -3.067389e-01  5.944731e+00 -1.720247e+00
     vertex -6.967778e-01  5.824078e+00 -1.570122e+00
     vertex -1.492900e+00  6.276826e+00 -3.274656e+00
   endloop
 endfacet
 facet normal  1.635790e-01 -9.318388e-01 -3.239111e-01
   outer loop
     vertex -3.067389e-01  5.944731e+00 -1.720247e+00
     vertex -1.492900e+00  6.276826e+00 -3.274656e+00
     vertex -1.102861e+00  6.397479e+00 -3.424781e+00
   endloop
 endfacet
 facet normal -8.966411e-01 -2.773636e-01  3.451147e-01
   outer loop
     vertex -6.967778e-01  5.824078e+00 -1.570122e+00
     vertex -1.645846e+00  7.148096e+00 -2.971799e+00
     vertex -1.492900e+00  6.276826e+00 -3.274656e+00
   endloop
 endfacet
 facet normal -8.966411e-01 -2.773636e-01  3.451147e-01
   outer loop
     vertex -6.967778e-01  5.824078e+00 -1.570122e+00
     vertex -8.497242e-01  6.695347e+00 -1.267266e+00
     vertex -1.645846e+00  7.148096e+00 -2.971799e+00
   endloop
 endfacet
 facet normal  8.966411e-01  2.773636e-01 -3.451147e-01
   outer loop
     vertex -3.067389e-01  5.944731e+00 -1.720247e+00
     vertex -1.102861e+00  6.397479e+00 -3.424781e+00
     vertex -1.255807e+00  7.268749e+00 -3.121924e+00
   endloop
 endfacet
 facet normal  8.966411e-01  2.773636e-01 -3.451147e-01
   outer loop
     vertex -3.067389e-01  5.944731e+00 -1.720247e+00
     vertex -1.255807e+00  7.268749e+00 -3.121924e+00
     vertex -4.596853e-01  6.816000e+00 -1.417391e+00
   endloop
 endfacet
 facet normal -1.635790e-01  9.318388e-01  3.239111e-01
   outer loop
     vertex -1.319438e+00  6.911297e+00 -2.125729e+00
     vertex -2.094167e+00  7.009414e+00 -2.799242e+00
     vertex -1.709477e+00  6.790644e+00 -1.975604e+00
   endloop
 endfacet
 facet normal -1.635790e-01  9.318388e-01  3.239111e-01
   outer loop
     vertex -1.319438e+00  6.911297e+00 -2.125729e+00
     vertex -1.704128e+00  7.130067e+00 -2.949367e+00
     vertex -2.094167e+00  7.009414e+00 -2.799242e+00
   endloop
 endfacet
 facet normal  1.635790e-01 -9.318388e-01 -3.239111e-01
   outer loop
     vertex -1.002913e+00  5.108189e+00 -2.752497e+00
     vertex -1.392952e+00  4.987536e+00 -2.602372e+00
     vertex -1.777641e+00  5.206306e+00 -3.426010e+00
   endloop
 endfacet
 facet normal  1.635790e-01 -9.318388e-01 -3.239111e-01
   outer loop
     vertex -1.002913e+00  5.108189e+00 -2.752497e+00
     vertex -1.777641e+00  5.206306e+00 -3.426010e+00
     vertex -1.387602e+00  5.326959e+00 -3.576134e+00
   endloop
 endfacet
 facet normal  4.114324e-01 -2.339784e-01  8.808958e-01
   outer loop
     vertex -1.002913e+00  5.108189e+00 -2.752497e+00
     vertex -1.709477e+00  6.790644e+00 -1.975604e+00
     vertex -1.392952e+00  4.987536e+00 -2.602372e+00
   endloop
 endfacet
 facet normal  4.114324e-01 -2.339784e-01  8.808958e-01
   outer loop
     vertex -1.002913e+00  5.108189e+00 -2.752497e+00
     vertex -1.319438e+00  6.911297e+00 -2.125729e+00
     vertex -1.709477e+00  6.790644e+00 -1.975604e+00
   endloop
 endfacet
 facet normal -4.114324e-01  2.339784e-01 -8.808958e-01
   outer loop
     vertex -1.387602e+00  5.326959e+00 -3.576134e+00
     vertex -1.777641e+00  5.206306e+00 -3.426010e+00
     vertex -2.094167e+00  7.009414e+00 -2.799242e+00
   endloop
 endfacet
 facet normal -4.114324e-01  2.339784e-01 -8.808958e-01
   outer loop
     vertex -1.387602e+00  5.326959e+00 -3.576134e+00
     vertex -2.094167e+00  7.009414e+00 -2.799242e+00
     vertex -1.704128e+00  7.130067e+00 -2.949367e+00
   endloop
 endfacet
 facet normal -8.966411e-01 -2.773636e-01  3.451147e-01
   outer loop
     vertex -1.777641e+00  5.206306e+00 -3.426010e+00
     vertex -1.709477e+00  6.790644e+00 -1.975604e+00
     vertex -2.094167e+00  7.009414e+00 -2.799242e+00
   endloop
 endfacet
 facet normal -8.966411e-01 -2.773636e-01  3.451147e-01
   outer loop
     vertex -1.777641e+00  5.206306e+00 -3.426010e+00
     vertex -1.392952e+00  4.987536e+00 -2.602372e+00
     vertex -1.709477e+00  6.790644e+00 -1.975604e+00
   endloop
 endfacet
 facet normal  8.966411e-01  2.773636e-01 -3.451147e-01
   outer loop
     vertex -1.387602e+00  5.326959e+00 -3.576134e+00
     vertex -1.704128e+00  7.130067e+00 -2.949367e+00
     vertex -1.319438e+00  6.911297e+00 -2.125729e+00
   endloop
 endfacet
 facet normal  8.966411e-01  2.773636e-01 -3.451147e-01
   outer loop
     vertex -1.387602e+00  5.326959e+00 -3.576134e+00
     vertex -1.319438e+00  6.911297e+00 -2.125729e+00
     vertex -1.002913e+00  5.108189e+00 -2.752497e+00
   endloop
 endfacet
 facet normal -4.114324e-01  2.339784e-01 -8.808958e-01
   outer loop
     vertex -2.152448e+00  6.991385e+00 -2.776809e+00
     vertex -2.389541e+00  5.999463e+00 -2.929541e+00
     vertex -2.542487e+00  6.870732e+00 -2.626684e+00
   endloop
 endfacet
 facet normal -4.114324e-01  2.339784e-01 -8.808958e-01
   outer loop
     vertex -2.152448e+00  6.991385e+00 -2.776809e+00
     vertex -1.999502e+00  6.120116e+00 -3.079666e+00
     vertex -2.389541e+00  5.999463e+00 -2.929541e+00
   endloop
 endfacet
 facet normal  4.114324e-01 -2.339784e-01  8.808958e-01
   outer loop
     vertex -1.356326e+00  6.538637e+00 -1.072276e+00
     vertex -1.746365e+00  6.417984e+00 -9.221509e-01
     vertex -1.593419e+00  5.546714e+00 -1.225008e+00
   endloop
 endfacet
 facet normal  4.114324e-01 -2.339784e-01  8.808958e-01
   outer loop
     vertex -1.356326e+00  6.538637e+00 -1.072276e+00
     vertex -1.593419e+00  5.546714e+00 -1.225008e+00
     vertex -1.203380e+00  5.667368e+00 -1.375133e+00
   endloop
 endfacet
 facet normal -1.635790e-01  9.318388e-01  3.239111e-01
   outer loop
     vertex -1.356326e+00  6.538637e+00 -1.072276e+00
     vertex -2.542487e+00  6.870732e+00 -2.626684e+00
     vertex -1.746365e+00  6.417984e+00 -9.221509e-01
   endloop
 endfacet
 facet normal -1.635790e-01  9.318388e-01  3.239111e-01
   outer loop
     vertex -1.356326e+00  6.538637e+00 -1.072276e+00
     vertex -2.152448e+00  6.991385e+00 -2.776809e+00
     vertex -2.542487e+00  6.870732e+00 -2.626684e+00
   endloop
 endfacet
 facet normal  1.635790e-01 -9.318388e-01 -3.239111e-01
   outer loop
     vertex -1.203380e+00  5.667368e+00 -1.375133e+00
     vertex -1.593419e+00  5.546714e+00 -1.225008e+00
     vertex -2.389541e+00  5.999463e+00 -2.929541e+00
   endloop
 endfacet
 facet normal  1.635790e-01 -9.318388e-01 -3.239111e-01
   outer loop
     vertex -1.203380e+00  5.667368e+00 -1.375133e+00
     vertex -2.389541e+00  5.999463e+00 -2.929541e+00
     vertex -1.999502e+00  6.120116e+00 -3.079666e+00
   endloop
 endfacet
 facet normal -8.966411e-01 -2.773636e-01  3.451147e-01
   outer loop
     vertex -1.593419e+00  5.546714e+00 -1.225008e+00
     vertex -2.542487e+00  6.870732e+00 -2.626684e+00
     vertex -2.389541e+00  5.999463e+00 -2.929541e+00
   endloop
 endfacet
 facet normal -8.966411e-01 -2.773636e-01  3.451147e-01
   outer loop
     vertex -1.593419e+00  5.546714e+00 -1.225008e+00
     vertex -1.746365e+00  6.417984e+00 -9.221509e-01
     vertex -2.542487e+00  6.870732e+00 -2.626684e+00
   endloop
 endfacet
 facet normal  8.966411e-01  2.773636e-01 -3.451147e-01
   outer loop
     vertex -1.203380e+00  5.667368e+00 -1.375133e+00
     vertex -1.999502e+00  6.120116e+00 -3.079666e+00
     vertex -2.152448e+00  6.991385e+00 -2.776809e+00
   endloop
 endfacet
 facet normal  8.966411e-01  2.773636e-01 -3.451147e-01
   outer loop
     vertex -1.203380e+00  5.667368e+00 -1.375133e+00
     vertex -2.152448e+00  6.991385e+00 -2.776809e+00
     vertex -1.356326e+00  6.538637e+00 -1.072276e+00
   endloop
 endfacet
 facet normal -1.635790e-01  9.318388e-01  3.239111e-01
   outer loop
     vertex -2.216079e+00  6.633934e+00 -1.780614e+00
     vertex -2.990808e+00  6.732050e+00 -2.454127e+00
     vertex -2.606118e+00  6.513280e+00 -1.630489e+00
   endloop
 endfacet
 facet normal -1.635790e-01  9.318388e-01  3.239111e-01
   outer loop
     vertex -2.216079e+00  6.633934e+00 -1.780614e+00
     vertex -2.600769e+00  6.852703e+00 -2.604252e+00
     vertex -2.990808e+00  6.732050e+00 -2.454127e+00
   endloop
 endfacet
 facet normal  1.635790e-01 -9.318388e-01 -3.239111e-01
   outer loop
     vertex -1.899554e+00  4.830825e+00 -2.407382e+00
     vertex -2.289593e+00  4.710172e+00 -2.257257e+00
     vertex -2.674282e+00  4.928942e+00 -3.080895e+00
   endloop
 endfacet
 facet normal  1.635790e-01 -9.318388e-01 -3.239111e-01
   outer loop
     vertex -1.899554e+00  4.830825e+00 -2.407382e+00
     vertex -2.674282e+00  4.928942e+00 -3.080895e+00
     vertex -2.284243e+00  5.049595e+00 -3.231020e+00
   endloop
 endfacet
 facet normal  4.114324e-01 -2.339784e-01  8.808958e-01
   outer loop
     vertex -1.899554e+00  4.830825e+00 -2.407382e+00
     vertex -2.606118e+00  6.513280e+00 -1.630489e+00
     vertex -2.289593e+00  4.710172e+00 -2.257257e+00
   endloop
 endfacet
 facet normal  4.114324e-01 -2.339784e-01  8.808958e-01
   outer loop
     vertex -1.899554e+00  4.830825e+00 -2.407382e+00
     vertex -2.216079e+00  6.633934e+00 -1.780614e+00
     vertex -2.606118e+00  6.513280e+00 -1.630489e+00
   endloop
 endfacet
 facet normal -4.114324e-01  2.339784e-01 -8.808958e-01
   outer loop
     vertex -2.284243e+00  5.049595e+00 -3.231020e+00
     vertex -2.674282e+00  4.928942e+00 -3.080895e+00
     vertex -2.990808e+00  6.732050e+00 -2.454127e+00
   endloop
 endfacet
 facet normal -4.114324e-01  2.339784e-01 -8.808958e-01
   outer loop
     vertex -2.284243e+00  5.049595e+00 -3.231020e+00
     vertex -2.990808e+00  6.732050e+00 -2.454127e+00
     vertex -2.600769e+00  6.852703e+00 -2.604252e+00
   endloop
 endfacet
 facet normal -8.966411e-01 -2.773636e-01  3.451147e-01
   outer loop
     vertex -2.674282e+00  4.928942e+00 -3.080895e+00
     vertex -2.606118e+00  6.513280e+00 -1.630489e+00
     vertex -2.990808e+00  6.732050e+00 -2.454127e+00
   endloop
 endfacet
 facet normal -8.966411e-01 -2.773636e-01  3.451147e-01
   outer loop
     vertex -2.674282e+00  4.928942e+00 -3.080895e+00
     vertex -2.289593e+00  4.710172e+00 -2.257257e+00
     vertex -2.606118e+00  6.513280e+00 -1.630489e+00
   endloop
 endfacet
 facet normal  8.966411e-01  2.773636e-01 -3.451147e-01
   outer loop
     vertex -2.284243e+00  5.049595e+00 -3.231020e+00
     vertex -2.600769e+00  6.852703e+00 -2.604252e+00
     vertex -2.216079e+00  6.633934e+00 -1.780614e+00
   endloop
 endfacet
 facet normal  8.966411e-01  2.773636e-01 -3.451147e-01
   outer loop
     vertex -2.284243e+00  5.049595e+00 -3.231020e+00
     vertex -2.216079e+00  6.633934e+00 -1.780614e+00
     vertex -1.899554e+00  4.830825e+00 -2.407382e+00
   endloop
 endfacet
 facet normal -4.114324e-01  2.339784e-01 -8.808958e-01
   outer loop
     vertex -3.049089e+00  6.714022e+00 -2.431694e+00
     vertex -3.286182e+00  5.722099e+00 -2.584426e+00
     vertex -3.439128e+00  6.593368e+00 -2.281570e+00
   endloop
 endfacet
 facet normal -4.114324e-01  2.339784e-01 -8.808958e-01
   outer loop
     vertex -3.049089e+00  6.714022e+00 -2.431694e+00
     vertex -2.896143e+00  5.842752e+00 -2.734551e+00
     vertex -3.286182e+00  5.722099e+00 -2.584426e+00
   endloop
 endfacet
 facet normal  4.114324e-01 -2.339784e-01  8.808958e-01
   outer loop
     vertex -2.252968e+00  6.261273e+00 -7.271611e-01
     vertex -2.643006e+00  6.140620e+00 -5.770362e-01
     vertex -2.490060e+00  5.269351e+00 -8.798930e-01
   endloop
 endfacet
 facet normal  4.114324e-01 -2.339784e-01  8.808958e-01
   outer loop
     vertex -2.252968e+00  6.261273e+00 -7.271611e-01
     vertex -2.490060e+00  5.269351e+00 -8.798930e-01
     vertex -2.100021e+00  5.390004e+00 -1.030018e+00
   endloop
 endfacet
 facet normal -1.635790e-01  9.318388e-01  3.239111e-01
   outer loop
     vertex -2.252968e+00  6.261273e+00 -7.271611e-01
     vertex -3.439128e+00  6.593368e+00 -2.281570e+00
     vertex -2.643006e+00  6.140620e+00 -5.770362e-01
   endloop
 endfacet
 facet normal -1.635790e-01  9.318388e-01  3.239111e-01
   outer loop
     vertex -2.252968e+00  6.261273e+00 -7.271611e-01
     vertex -3.049089e+00  6.714022e+00 -2.431694e+00
     vertex -3.439128e+00  6.593368e+00 -2.281570e+00
   endloop
 endfacet
 facet normal  1.635790e-01 -9.318388e-01 -3.239111e-01
   outer loop
     vertex -2.100021e+00  5.390004e+00 -1.030018e+00
     vertex -2.490060e+00  5.269351e+00 -8.798930e-01
     vertex -3.286182e+00  5.722099e+00 -2.584426e+00
   endloop
 endfacet
 facet normal  1.635790e-01 -9.318388e-01 -3.239111e-01
   outer loop
     vertex -2.100021e+00  5.390004e+00 -1.030018e+00
     vertex -3.286182e+00  5.722099e+00 -2.584426e+00
     vertex -2.896143e+00  5.842752e+00 -2.734551e+00
   endloop
 endfacet
 facet normal -8.966411e-01 -2.773636e-01  3.451147e-01
   outer loop
     vertex -2.490060e+00  5.269351e+00 -8.798930e-01
     vertex -3.439128e+00  6.593368e+00 -2.281570e+00
     vertex -3.286182e+00  5.722099e+00 -2.584426e+00
   endloop
 endfacet
 facet normal -8.966411e-01 -2.773636e-01  3.451147e-01
   outer loop
     vertex -2.490060e+00  5.269351e+00 -8.798930e-01
     vertex -2.643006e+00  6.140620e+00 -5.770362e-01
     vertex -3.439128e+00  6.593368e+00 -2.281570e+00
   endloop
 endfacet
 facet normal  8.966411e-01  2.773636e-01 -3.451147e-01
   outer loop
     vertex -2.100021e+00  5.390004e+00 -1.030018e+00
     vertex -2.896143e+00  5.842752e+00 -2.734551e+00
     vertex -3.049089e+00  6.714022e+00 -2.431694e+00
   endloop
 endfacet
 facet normal  8.966411e-01  2.773636e-01 -3.451147e-01
   outer loop
     vertex -2.100021e+00  5.390004e+00 -1.030018e+00
     vertex -3.049089e+00  6.714022e+00 -2.431694e+00
     vertex -2.252968e+00  6.261273e+00 -7.271611e-01
   endloop
 endfacet
 facet normal -1.635790e-01  9.318388e-01  3.239111e-01
   outer loop
     vertex -3.112720e+00  6.356570e+00 -1.435500e+00
     vertex -3.887449e+00  6.454687e+00 -2.109012e+00
     vertex -3.502759e+00  6.235917e+00 -1.285375e+00
   endloop
 endfacet
 facet normal -1.635790e-01  9.318388e-01  3.239111e-01
   outer loop
     vertex -3.112720e+00  6.356570e+00 -1.435500e+00
     vertex -3.497410e+00  6.575340e+00 -2.259137e+00
     vertex -3.887449e+00  6.454687e+00 -2.109012e+00
   endloop
 endfacet
 facet normal  1.635790e-01 -9.318388e-01 -3.239111e-01
   outer loop
     vertex -2.796195e+00  4.553462e+00 -2.062267e+00
     vertex -3.186234e+00  4.432809e+00 -1.912143e+00
     vertex -3.570923e+00  4.651579e+00 -2.735780e+00
   endloop
 endfacet
 facet normal  1.635790e-01 -9.318388e-01 -3.239111e-01
   outer loop
     vertex -2.796195e+00  4.553462e+00 -2.062267e+00
     vertex -3.570923e+00  4.651579e+00 -2.735780e+00
     vertex -3.180884e+00  4.772232e+00 -2.885905e+00
   endloop
 endfacet
 facet normal  4.114324e-01 -2.339784e-01  8.808958e-01
   outer loop
     vertex -2.796195e+00  4.553462e+00 -2.062267e+00
     vertex -3.502759e+00  6.235917e+00 -1.285375e+00
     vertex -3.186234e+00  4.432809e+00 -1.912143e+00
   endloop
 endfacet
 facet normal  4.114324e-01 -2.339784e-01  8.808958e-01
   outer loop
     vertex -2.796195e+00  4.553462e+00 -2.062267e+00
     vertex -3.112720e+00  6.356570e+00 -1.435500e+00
     vertex -3.502759e+00  6.235917e+00 -1.285375e+00
   endloop
 endfacet
 facet normal -4.114324e-01  2.339784e-01 -8.808958e-01
   outer loop
     vertex -3.180884e+00  4.772232e+00 -2.885905e+00
     vertex -3.570923e+00  4.651579e+00 -2.735780e+00
     vertex -3.887449e+00  6.454687e+00 -2.109012e+00
   endloop
 endfacet
 facet normal -4.114324e-01  2.339784e-01 -8.808958e-01
   outer loop
     vertex -3.180884e+00  4.772232e+00 -2.885905e+00
     vertex -3.887449e+00  6.454687e+00 -2.109012e+00
     vertex -3.497410e+00  6.575340e+00 -2.259137e+00
   endloop
 endfacet
 facet normal -8.966411e-01 -2.773636e-01  3.451147e-01
   outer loop
     vertex -3.570923e+00  4.651579e+00 -2.735780e+00
     vertex -3.502759e+00  6.235917e+00 -1.285375e+00
     vertex -3.887449e+00  6.454687e+00 -2.109012e+00
   endloop
 endfacet
 facet normal -8.966411e-01 -2.773636e-01  3.451147e-01
   outer loop
     vertex -3.570923e+00  4.651579e+00 -2.735780e+00
     vertex -3.186234e+00  4.432809e+00 -1.912143e+00
     vertex -3.502759e+00  6.235917e+00 -1.285375e+00
   endloop
 endfacet
 facet normal  8.966411e-01  2.773636e-01 -3.451147e-01
   outer loop
     vertex -3.180884e+00  4.772232e+00 -2.885905e+00
     vertex -3.497410e+00  6.575340e+00 -2.259137e+00
     vertex -3.112720e+00  6.356570e+00 -1.435500e+00
   endloop
 endfacet
 facet normal  8.966411e-01  2.773636e-01 -3.451147e-01
   outer loop
     vertex -3.180884e+00  4.772232e+00 -2.885905e+00
     vertex -3.112720e+00  6.356570e+00 -1.435500e+00
     vertex -2.796195e+00  4.553462e+00 -2.062267e+00
   endloop
 endfacet
 facet normal -4.114324e-01  2.339784e-01 -8.808958e-01
   outer loop
     vertex -3.945730e+00  6.436658e+00 -2.086580e+00
     vertex -4.182823e+00  5.444736e+00 -2.239312e+00
     vertex -4.335769e+00  6.316005e+00 -1.936455e+00
   endloop
 endfacet
 facet normal -4.114324e-01  2.339784e-01 -8.808958e-01
   outer loop
     vertex -3.945730e+00  6.436658e+00 -2.086580e+00
     vertex -3.792784e+00  5.565389e+00 -2.389437e+00
     vertex -4.182823e+00  5.444736e+00 -2.239312e+00
   endloop
 endfacet
 facet normal  4.114324e-01 -2.339784e-01  8.808958e-01
   outer loop
     vertex -3.149609e+00  5.983910e+00 -3.820463e-01
     vertex -3.539647e+00  5.863257e+00 -2.319214e-01
     vertex -3.386701e+00  4.991987e+00 -5.347783e-01
   endloop
 endfacet
 facet normal  4.114324e-01 -2.339784e-01  8.808958e-01
   outer loop
     vertex -3.149609e+00  5.983910e+00 -3.820463e-01
     vertex -3.386701e+00  4.991987e+00 -5.347783e-01
     vertex -2.996662e+00  5.112640e+00 -6.849032e-01
   endloop
 endfacet
 facet normal -1.635790e-01  9.318388e-01  3.239111e-01
   outer loop
     vertex -3.149609e+00  5.983910e+00 -3.820463e-01
     vertex -4.335769e+00  6.316005e+00 -1.936455e+00
     vertex -3.539647e+00  5.863257e+00 -2.319214e-01
   endloop
 endfacet
 facet normal -1.635790e-01  9.318388e-01  3.239111e-01
   outer loop
     vertex -3.149609e+00  5.983910e+00 -3.820463e-01
     vertex -3.945730e+00  6.436658e+00 -2.086580e+00
     vertex -4.335769e+00  6.316005e+00 -1.936455e+00
   endloop
 endfacet
 facet normal  1.635790e-01 -9.318388e-01 -3.239111e-01
   outer loop
     vertex -2.996662e+00  5.112640e+00 -6.849032e-01
     vertex -3.386701e+00  4.991987e+00 -5.347783e-01
     vertex -4.182823e+00  5.444736e+00 -2.239312e+00
   endloop
 endfacet
 facet normal  1.635790e-01 -9.318388e-01 -3.239111e-01
   outer loop
     vertex -2.996662e+00  5.112640e+00 -6.849032e-01
     vertex -4.182823e+00  5.444736e+00 -2.239312e+00
     vertex -3.792784e+00  5.565389e+00 -2.389437e+00
   endloop
 endfacet
 facet normal -8.966411e-01 -2.773636e-01  3.451147e-01
   outer loop
     vertex -3.386701e+00  4.991987e+00 -5.347783e-01
     vertex -4.335769e+00  6.316005e+00 -1.936455e+00
     vertex -4.182823e+00  5.444736e+00 -2.239312e+00
   endloop
 endfacet
 facet normal -8.966411e-01 -2.773636e-01  3.451147e-01
   outer loop
     vertex -3.386701e+00  4.991987e+00 -5.347783e-01
     vertex -3.539647e+00  5.863257e+00 -2.319214e-01
     vertex -4.335769e+00  6.316005e+00 -1.936455e+00
   endloop
 endfacet
 facet normal  8.966411e-01  2.773636e-01 -3.451147e-01
   outer loop
     vertex -2.996662e+00  5.112640e+00 -6.849032e-01
     vertex -3.792784e+00  5.565389e+00 -2.389437e+00
     vertex -3.945730e+00  6.436658e+00 -2.086580e+00
   endloop
 endfacet
 facet normal  8.966411e-01  2.773636e-01 -3.451147e-01
   outer loop
     vertex -2.996662e+00  5.112640e+00 -6.849032e-01
     vertex -3.945730e+00  6.436658e+00 -2.086580e+00
     vertex -3.149609e+00  5.983910e+00 -3.820463e-01
   endloop
 endfacet
 facet normal -1.635790e-01  9.318388e-01  3.239111e-01
   outer loop
     vertex -4.009362e+00  6.079206e+00 -1.090385e+00
     vertex -4.784090e+00  6.177323e+00 -1.763897e+00
     vertex -4.399400e+00  5.958553e+00 -9.402599e-01
   endloop
 endfacet
 facet normal -1.635790e-01  9.318388e-01  3.239111e-01
   outer loop
     vertex -4.009362e+00  6.079206e+00 -1.090385e+00
     vertex -4.394051e+00  6.297976e+00 -1.914022e+00
     vertex -4.784090e+00  6.177323e+00 -1.763897e+00
   endloop
 endfacet
 facet normal  1.635790e-01 -9.318388e-01 -3.239111e-01
   outer loop
     vertex -3.692836e+00  4.276098e+00 -1.717153e+00
     vertex -4.082875e+00  4.155445e+00 -1.567028e+00
     vertex -4.467564e+00  4.374215e+00 -2.390665e+00
   endloop
 endfacet
 facet normal  1.635790e-01 -9.318388e-01 -3.239111e-01
   outer loop
     vertex -3.692836e+00  4.276098e+00 -1.717153e+00
     vertex -4.467564e+00  4.374215e+00 -2.390665e+00
     vertex -4.077526e+00  4.494868e+00 -2.540790e+00
   endloop
 endfacet
 facet normal  4.114324e-01 -2.339784e-01  8.808958e-01
   outer loop
     vertex -3.692836e+00  4.276098e+00 -1.717153e+00
     vertex -4.399400e+00  5.958553e+00 -9.402599e-01
     vertex -4.082875e+00  4.155445e+00 -1.567028e+00
   endloop
 endfacet
 facet normal  4.114324e-01 -2.339784e-01  8.808958e-01
   outer loop
     vertex -3.692836e+00  4.276098e+00 -1.717153e+00
     vertex -4.009362e+00  6.079206e+00 -1.090385e+00
     vertex -4.399400e+00  5.958553e+00 -9.402599e-01
   endloop
 endfacet
 facet normal -4.114324e-01  2.339784e-01 -8.808958e-01
   outer loop
     vertex -4.077526e+00  4.494868e+00 -2.540790e+00
     vertex -4.467564e+00  4.374215e+00 -2.390665e+00
     vertex -4.784090e+00  6.177323e+00 -1.763897e+00
   endloop
 endfacet
 facet normal -4.114324e-01  2.339784e-01 -8.808958e-01
   outer loop
     vertex -4.077526e+00  4.494868e+00 -2.540790e+00
     vertex -4.784090e+00  6.177323e+00 -1.763897e+00
     vertex -4.394051e+00  6.297976e+00 -1.914022e+00
   endloop
 endfacet
 facet normal -8.966411e-01 -2.773636e-01  3.451147e-01
   outer loop
     vertex -4.467564e+00  4.374215e+00 -2.390665e+00
     vertex -4.399400e+00  5.958553e+00 -9.402599e-01
     vertex -4.784090e+00  6.177323e+00 -1.763897e+00
   endloop
 endfacet
 facet normal -8.966411e-01 -2.773636e-01  3.451147e-01
   outer loop
     vertex -4.467564e+00  4.374215e+00 -2.390665e+00
     vertex -4.082875e+00  4.155445e+00 -1.567028e+00
     vertex -4.399400e+00  5.958553e+00 -9.402599e-01
   endloop
 endfacet
 facet normal  8.966411e-01  2.773636e-01 -3.451147e-01
   outer loop
     vertex -4.077526e+00  4.494868e+00 -2.540790e+00
     vertex -4.394051e+00  6.297976e+00 -1.914022e+00
     vertex -4.009362e+00  6.079206e+00 -1.090385e+00
   endloop
 endfacet
 facet normal  8.966411e-01  2.773636e-01 -3.451147e-01
   outer loop
     vertex -4.077526e+00  4.494868e+00 -2.540790e+00
     vertex -4.009362e+00  6.079206e+00 -1.090385e+00
     vertex -3.692836e+00  4.276098e+00 -1.717153e+00
   endloop
 endfacet
 facet normal -4.114324e-01  2.339784e-01 -8.808958e-01
   outer loop
     vertex -4.842371e+00  6.159294e+00 -1.741465e+00
     vertex -5.079464e+00  5.167372e+00 -1.894197e+00
     vertex -5.232410e+00  6.038641e+00 -1.591340e+00
   endloop
 endfacet
 facet normal -4.114324e-01  2.339784e-01 -8.808958e-01
   outer loop
     vertex -4.842371e+00  6.159294e+00 -1.741465e+00
     vertex -4.689425e+00  5.288025e+00 -2.044322e+00
     vertex -5.079464e+00  5.167372e+00 -1.894197e+00
   endloop
 endfacet
 facet normal  4.114324e-01 -2.339784e-01  8.808958e-01
   outer loop
     vertex -4.046250e+00  5.706546e+00 -3.693159e-02
     vertex -4.436289e+00  5.585893e+00  1.131933e-01
     vertex -4.283342e+00  4.714624e+00 -1.896635e-01
   endloop
 endfacet
 facet normal  4.114324e-01 -2.339784e-01  8.808958e-01
   outer loop
     vertex -4.046250e+00  5.706546e+00 -3.693159e-02
     vertex -4.283342e+00  4.714624e+00 -1.896635e-01
     vertex -3.893303e+00  4.835277e+00 -3.397884e-01
   endloop
 endfacet
 facet normal -1.635790e-01  9.318388e-01  3.239111e-01
   outer loop
     vertex -4.046250e+00  5.706546e+00 -3.693159e-02
     vertex -5.232410e+00  6.038641e+00 -1.591340e+00
     vertex -4.436289e+00  5.585893e+00  1.131933e-01
   endloop
 endfacet
 facet normal -1.635790e-01  9.318388e-01  3.239111e-01
   outer loop
     vertex -4.046250e+00  5.706546e+00 -3.693159e-02
     vertex -4.842371e+00  6.159294e+00 -1.741465e+00
     vertex -5.232410e+00  6.038641e+00 -1.591340e+00
   endloop
 endfacet
 facet normal  1.635790e-01 -9.318388e-01 -3.239111e-01
   outer loop
     vertex -3.893303e+00  4.835277e+00 -3.397884e-01
     vertex -4.283342e+00  4.714624e+00 -1.896635e-01
     vertex -5.079464e+00  5.167372e+00 -1.894197e+00
   endloop
 endfacet
 facet normal  1.635790e-01 -9.318388e-01 -3.239111e-01
   outer loop
     vertex -3.893303e+00  4.835277e+00 -3.397884e-01
     vertex -5.079464e+00  5.167372e+00 -1.894197e+00
     vertex -4.689425e+00  5.288025e+00 -2.044322e+00
   endloop
 endfacet
 facet normal -8.966411e-01 -2.773636e-01  3.451147e-01
   outer loop
     vertex -4.283342e+00  4.714624e+00 -1.896635e-01
     vertex -5.232410e+00  6.038641e+00 -1.591340e+00
     vertex -5.079464e+00  5.167372e+00 -1.894197e+00
   endloop
 endfacet
 facet normal -8.966411e-01 -2.773636e-01  3.451147e-01
   outer loop
     vertex -4.283342e+00  4.714624e+00 -1.896635e-01
     vertex -4.436289e+00  5.585893e+00  1.131933e-01
     vertex -5.232410e+00  6.038641e+00 -1.591340e+00
   endloop
 endfacet
 facet normal  8.966411e-01  2.773636e-01 -3.451147e-01
   outer loop
     vertex -3.893303e+00  4.835277e+00 -3.397884e-01
     vertex -4.689425e+00  5.288025e+00 -2.044322e+00
     vertex -4.842371e+00  6.159294e+00 -1.741465e+00
   endloop
 endfacet
 facet normal  8.966411e-01  2.773636e-01 -3.451147e-01
   outer loop
     vertex -3.893303e+00  4.835277e+00 -3.397884e-01
     vertex -4.842371e+00  6.159294e+00 -1.741465e+00
     vertex -4.046250e+00  5.706546e+00 -3.693159e-02
   endloop
 endfacet
 facet normal  1.635790e-01 -9.318388e-01 -3.239111e-01
   outer loop
     vertex  3.048352e+00  4.430355e+00  4.330724e+00
     vertex  3.043002e+00  4.090932e+00  5.304487e+00
     vertex  2.658313e+00  4.309702e+00  4.480849e+00
   endloop
 endfacet
 facet normal  1.635790e-01 -9.318388e-01 -3.239111e-01
   outer loop
     vertex  3.048352e+00  4.430355e+00  4.330724e+00
     vertex  3.433041e+00  4.211585e+00  5.154362e+00
     vertex  3.043002e+00  4.090932e+00  5.304487e+00
   endloop
 endfacet
 facet normal -1.635790e-01  9.318388e-01  3.239111e-01
   outer loop
     vertex  2.731826e+00  6.233463e+00  4.957492e+00
     vertex  2.341787e+00  6.112810e+00  5.107617e+00
     vertex  2.726477e+00  5.894040e+00  5.931255e+00
   endloop
 endfacet
 facet normal -1.635790e-01  9.318388e-01  3.239111e-01
   outer loop
     vertex  2.731826e+00  6.233463e+00  4.957492e+00
     vertex  2.726477e+00  5.894040e+00  5.931255e+00
     vertex  3.116516e+00  6.014694e+00  5.781130e+00
   endloop
 endfacet
 facet normal -4.114324e-01  2.339784e-01 -8.808958e-01
   outer loop
     vertex  2.731826e+00  6.233463e+00  4.957492e+00
     vertex  2.658313e+00  4.309702e+00  4.480849e+00
     vertex  2.341787e+00  6.112810e+00  5.107617e+00
   endloop
 endfacet
 facet normal -4.114324e-01  2.339784e-01 -8.808958e-01
   outer loop
     vertex  2.731826e+00  6.233463e+00  4.957492e+00
     vertex  3.048352e+00  4.430355e+00  4.330724e+00
     vertex  2.658313e+00  4.309702e+00  4.480849e+00
   endloop
 endfacet
 facet normal  4.114324e-01 -2.339784e-01  8.808958e-01
   outer loop
     vertex  3.116516e+00  6.014694e+00  5.781130e+00
     vertex  2.726477e+00  5.894040e+00  5.931255e+00
     vertex  3.043002e+00  4.090932e+00  5.304487e+00
   endloop
 endfacet
 facet normal  4.114324e-01 -2.339784e-01  8.808958e-01
   outer loop
     vertex  3.116516e+00  6.014694e+00  5.781130e+00
     vertex  3.043002e+00  4.090932e+00  5.304487e+00
     vertex  3.433041e+00  4.211585e+00  5.154362e+00
   endloop
 endfacet
 facet normal -8.966411e-01 -2.773636e-01  3.451147e-01
   outer loop
     vertex  2.726477e+00  5.894040e+00  5.931255e+00
     vertex  2.658313e+00  4.309702e+00  4.480849e+00
     vertex  3.043002e+00  4.090932e+00  5.304487e+00
   endloop
 endfacet
 facet normal -8.966411e-01 -2.773636e-01  3.451147e-01
   outer loop
     vertex  2.726477e+00  5.894040e+00  5.931255e+00
     vertex  2.341787e+00  6.112810e+00  5.107617e+00
     vertex  2.658313e+00  4.309702e+00  4.480849e+00
   endloop
 endfacet
 facet normal  8.966411e-01  2.773636e-01 -3.451147e-01
   outer loop
     vertex  3.116516e+00  6.014694e+00  5.781130e+00
     vertex  3.433041e+00  4.211585e+00  5.154362e+00
     vertex  3.048352e+00  4.430355e+00  4.330724e+00
   endloop
 endfacet
 facet normal  8.966411e-01  2.773636e-01 -3.451147e-01
   outer loop
     vertex  3.116516e+00  6.014694e+00  5.781130e+00
     vertex  3.048352e+00  4.430355e+00  4.330724e+00
     vertex  2.731826e+00  6.233463e+00  4.957492e+00
   endloop
 endfacet
 facet normal  4.114324e-01 -2.339784e-01  8.808958e-01
   outer loop
     vertex  2.984721e+00  4.072904e+00  5.326919e+00
     vertex  2.441735e+00  4.823520e+00  5.779901e+00
     vertex  2.594682e+00  3.952251e+00  5.477044e+00
   endloop
 endfacet
 facet normal  4.114324e-01 -2.339784e-01  8.808958e-01
   outer loop
     vertex  2.984721e+00  4.072904e+00  5.326919e+00
     vertex  2.831774e+00  4.944173e+00  5.629776e+00
     vertex  2.441735e+00  4.823520e+00  5.779901e+00
   endloop
 endfacet
 facet normal -4.114324e-01  2.339784e-01 -8.808958e-01
   outer loop
     vertex  2.188599e+00  4.525652e+00  3.622386e+00
     vertex  1.798560e+00  4.404999e+00  3.772511e+00
     vertex  1.645614e+00  5.276268e+00  4.075367e+00
   endloop
 endfacet
 facet normal -4.114324e-01  2.339784e-01 -8.808958e-01
   outer loop
     vertex  2.188599e+00  4.525652e+00  3.622386e+00
     vertex  1.645614e+00  5.276268e+00  4.075367e+00
     vertex  2.035652e+00  5.396921e+00  3.925243e+00
   endloop
 endfacet
 facet normal  1.635790e-01 -9.318388e-01 -3.239111e-01
   outer loop
     vertex  2.188599e+00  4.525652e+00  3.622386e+00
     vertex  2.594682e+00  3.952251e+00  5.477044e+00
     vertex  1.798560e+00  4.404999e+00  3.772511e+00
   endloop
 endfacet
 facet normal  1.635790e-01 -9.318388e-01 -3.239111e-01
   outer loop
     vertex  2.188599e+00  4.525652e+00  3.622386e+00
     vertex  2.984721e+00  4.072904e+00  5.326919e+00
     vertex  2.594682e+00  3.952251e+00  5.477044e+00
   endloop
 endfacet
 facet normal -1.635790e-01  9.318388e-01  3.239111e-01
   outer loop
     vertex  2.035652e+00  5.396921e+00  3.925243e+00
     vertex  1.645614e+00  5.276268e+00  4.075367e+00
     vertex  2.441735e+00  4.823520e+00  5.779901e+00
   endloop
 endfacet
 facet normal -1.635790e-01  9.318388e-01  3.239111e-01
   outer loop
     vertex  2.035652e+00  5.396921e+00  3.925243e+00
     vertex  2.441735e+00  4.823520e+00  5.779901e+00
     vertex  2.831774e+00  4.944173e+00  5.629776e+00
   endloop
 endfacet
 facet normal -8.966411e-01 -2.773636e-01  3.451147e-01
   outer loop
     vertex  1.645614e+00  5.276268e+00  4.075367e+00
     vertex  2.594682e+00  3.952251e+00  5.477044e+00
     vertex  2.441735e+00  4.823520e+00  5.779901e+00
   endloop
 endfacet
 facet normal -8.966411e-01 -2.773636e-01  3.451147e-01
   outer loop
     vertex  1.645614e+00  5.276268e+00  4.075367e+00
     vertex  1.798560e+00  4.404999e+00  3.772511e+00
     vertex  2.594682e+00  3.952251e+00  5.477044e+00
   endloop
 endfacet
 facet normal  8.966411e-01  2.773636e-01 -3.451147e-01
   outer loop
     vertex  2.035652e+00  5.396921e+00  3.925243e+00
     vertex  2.831774e+00  4.944173e+00  5.629776e+00
     vertex  2.984721e+00  4.072904e+00  5.326919e+00
   endloop
 endfacet
 facet normal  8.966411e-01  2.773636e-01 -3.451147e-01
   outer loop
     vertex  2.035652e+00  5.396921e+00  3.925243e+00
     vertex  2.984721e+00  4.072904e+00  5.326919e+00
     vertex  2.188599e+00  4.525652e+00  3.622386e+00
   endloop
 endfacet
 facet normal  1.635790e-01 -9.318388e-01 -3.239111e-01
   outer loop
     vertex  2.151711e+00  4.152992e+00  4.675839e+00
     vertex  2.146361e+00  3.813569e+00  5.649601e+00
     vertex  1.761672e+00  4.032339e+00  4.825964e+00
   endloop
 endfacet
 facet normal  1.635790e-01 -9.318388e-01 -3.239111e-01
   outer loop
     vertex  2.151711e+00  4.152992e+00  4.675839e+00
     vertex  2.536400e+00  3.934222e+00  5.499477e+00
     vertex  2.146361e+00  3.813569e+00  5.649601e+00
   endloop
 endfacet
 facet normal -1.635790e-01  9.318388e-01  3.239111e-01
   outer loop
     vertex  1.835185e+00  5.956100e+00  5.302607e+00
     vertex  1.445146e+00  5.835447e+00  5.452732e+00
     vertex  1.829836e+00  5.616677e+00  6.276369e+00
   endloop
 endfacet
 facet normal -1.635790e-01  9.318388e-01  3.239111e-01
   outer loop
     vertex  1.835185e+00  5.956100e+00  5.302607e+00
     vertex  1.829836e+00  5.616677e+00  6.276369e+00
     vertex  2.219875e+00  5.737330e+00  6.126244e+00
   endloop
 endfacet
 facet normal -4.114324e-01  2.339784e-01 -8.808958e-01
   outer loop
     vertex  1.835185e+00  5.956100e+00  5.302607e+00
     vertex  1.761672e+00  4.032339e+00  4.825964e+00
     vertex  1.445146e+00  5.835447e+00  5.452732e+00
   endloop
 endfacet
 facet normal -4.114324e-01  2.339784e-01 -8.808958e-01
   outer loop
     vertex  1.835185e+00  5.956100e+00  5.302607e+00
     vertex  2.151711e+00  4.152992e+00  4.675839e+00
     vertex  1.761672e+00  4.032339e+00  4.825964e+00
   endloop
 endfacet
 facet normal  4.114324e-01 -2.339784e-01  8.808958e-01
   outer loop
     vertex  2.219875e+00  5.737330e+00  6.126244e+00
     vertex  1.829836e+00  5.616677e+00  6.276369e+00
     vertex  2.146361e+00  3.813569e+00  5.649601e+00
   endloop
 endfacet
 facet normal  4.114324e-01 -2.339784e-01  8.808958e-01
   outer loop
     vertex  2.219875e+00  5.737330e+00  6.126244e+00
     vertex  2.146361e+00  3.813569e+00  5.649601e+00
     vertex  2.536400e+00  3.934222e+00  5.499477e+00
   endloop
 endfacet
 facet normal -8.966411e-01 -2.773636e-01  3.451147e-01
   outer loop
     vertex  1.829836e+00  5.616677e+00  6.276369e+00
     vertex  1.761672e+00  4.032339e+00  4.825964e+00
     vertex  2.146361e+00  3.813569e+00  5.649601e+00
   endloop
 endfacet
 facet normal -8.966411e-01 -2.773636e-01  3.451147e-01
   outer loop
     vertex  1.829836e+00  5.616677e+00  6.276369e+00
     vertex  1.445146e+00  5.835447e+00  5.452732e+00
     vertex  1.761672e+00  4.032339e+00  4.825964e+00
   endloop
 endfacet
 facet normal  8.966411e-01  2.773636e-01 -3.451147e-01
   outer loop
     vertex  2.219875e+00  5.737330e+00  6.126244e+00
     vertex  2.536400e+00  3.934222e+00  5.499477e+00
     vertex  2.151711e+00  4.152992e+00  4.675839e+00
   endloop
 endfacet
 facet normal  8.966411e-01  2.773636e-01 -3.451147e-01
   outer loop
     vertex  2.219875e+00  5.737330e+00  6.126244e+00
     vertex  2.151711e+00  4.152992e+00  4.675839e+00
     vertex  1.835185e+00  5.956100e+00  5.302607e+00
   endloop
 endfacet
 facet normal  4.114324e-01 -2.339784e-01  8.808958e-01
   outer loop
     vertex  2.088079e+00  3.795540e+00  5.672034e+00
     vertex  1.545094e+00  4.546156e+00  6.125016e+00
     vertex  1.698041e+00  3.674887e+00  5.822159e+00
   endloop
 endfacet
 facet normal  4.114324e-01 -2.339784e-01  8.808958e-01
   outer loop
     vertex  2.088079e+00  3.795540e+00  5.672034e+00
     vertex  1.935133e+00  4.666809e+00  5.974891e+00
     vertex  1.545094e+00  4.546156e+00  6.125016e+00
   endloop
 endfacet
 facet normal -4.114324e-01  2.339784e-01 -8.808958e-01
   outer loop
     vertex  1.291958e+00  4.248288e+00  3.967500e+00
     vertex  9.019188e-01  4.127635e+00  4.117625e+00
     vertex  7.489724e-01  4.998904e+00  4.420482e+00
   endloop
 endfacet
 facet normal -4.114324e-01  2.339784e-01 -8.808958e-01
   outer loop
     vertex  1.291958e+00  4.248288e+00  3.967500e+00
     vertex  7.489724e-01  4.998904e+00  4.420482e+00
     vertex  1.139011e+00  5.119558e+00  4.270357e+00
   endloop
 endfacet
 facet normal  1.635790e-01 -9.318388e-01 -3.239111e-01
   outer loop
     vertex  1.291958e+00  4.248288e+00  3.967500e+00
     vertex  1.698041e+00  3.674887e+00  5.822159e+00
     vertex  9.019188e-01  4.127635e+00  4.117625e+00
   endloop
 endfacet
 facet normal  1.635790e-01 -9.318388e-01 -3.239111e-01
   outer loop
     vertex  1.291958e+00  4.248288e+00  3.967500e+00
     vertex  2.088079e+00  3.795540e+00  5.672034e+00
     vertex  1.698041e+00  3.674887e+00  5.822159e+00
   endloop
 endfacet
 facet normal -1.635790e-01  9.318388e-01  3.239111e-01
   outer loop
     vertex  1.139011e+00  5.119558e+00  4.270357e+00
     vertex  7.489724e-01  4.998904e+00  4.420482e+00
     vertex  1.545094e+00  4.546156e+00  6.125016e+00
   endloop
 endfacet
 facet normal -1.635790e-01  9.318388e-01  3.239111e-01
   outer loop
     vertex  1.139011e+00  5.119558e+00  4.270357e+00
     vertex  1.545094e+00  4.546156e+00  6.125016e+00
     vertex  1.935133e+00  4.666809e+00  5.974891e+00
   endloop
 endfacet
 facet normal -8.966411e-01 -2.773636e-01  3.451147e-01
   outer loop
     vertex  7.489724e-01  4.998904e+00  4.420482e+00
     vertex  1.698041e+00  3.674887e+00  5.822159e+00
     vertex  1.545094e+00  4.546156e+00  6.125016e+00
   endloop
 endfacet
 facet normal -8.966411e-01 -2.773636e-01  3.451147e-01
   outer loop
     vertex  7.489724e-01  4.998904e+00  4.420482e+00
     vertex  9.019188e-01  4.127635e+00  4.117625e+00
     vertex  1.698041e+00  3.674887e+00  5.822159e+00
   endloop
 endfacet
 facet normal  8.966411e-01  2.773636e-01 -3.451147e-01
   outer loop
     vertex  1.139011e+00  5.119558e+00  4.270357e+00
     vertex  1.935133e+00  4.666809e+00  5.974891e+00
     vertex  2.088079e+00  3.795540e+00  5.672034e+00
   endloop
 endfacet
 facet normal  8.966411e-01  2.773636e-01 -3.451147e-01
   outer loop
     vertex  1.139011e+00  5.119558e+00  4.270357e+00
     vertex  2.088079e+00  3.795540e+00  5.672034e+00
     vertex  1.291958e+00  4.248288e+00  3.967500e+00
   endloop
 endfacet
 facet normal  1.635790e-01 -9.318388e-01 -3.239111e-01
   outer loop
     vertex  1.255070e+00  3.875628e+00  5.020954e+00
     vertex  1.249720e+00  3.536205e+00  5.994716e+00
     vertex  8.650307e-01  3.754975e+00  5.171079e+00
   endloop
 endfacet
 facet normal  1.635790e-01 -9.318388e-01 -3.239111e-01
   outer loop
     vertex  1.255070e+00  3.875628e+00  5.020954e+00
     vertex  1.639759e+00  3.656858e+00  5.844591e+00
     vertex  1.249720e+00  3.536205e+00  5.994716e+00
   endloop
 endfacet
 facet normal -1.635790e-01  9.318388e-01  3.239111e-01
   outer loop
     vertex  9.385442e-01  5.678736e+00  5.647722e+00
     vertex  5.485053e-01  5.558083e+00  5.797846e+00
     vertex  9.331946e-01  5.339313e+00  6.621484e+00
   endloop
 endfacet
 facet normal -1.635790e-01  9.318388e-01  3.239111e-01
   outer loop
     vertex  9.385442e-01  5.678736e+00  5.647722e+00
     vertex  9.331946e-01  5.339313e+00  6.621484e+00
     vertex  1.323234e+00  5.459966e+00  6.471359e+00
   endloop
 endfacet
 facet normal -4.114324e-01  2.339784e-01 -8.808958e-01
   outer loop
     vertex  9.385442e-01  5.678736e+00  5.647722e+00
     vertex  8.650307e-01  3.754975e+00  5.171079e+00
     vertex  5.485053e-01  5.558083e+00  5.797846e+00
   endloop
 endfacet
 facet normal -4.114324e-01  2.339784e-01 -8.808958e-01
   outer loop
     vertex  9.385442e-01  5.678736e+00  5.647722e+00
     vertex  1.255070e+00  3.875628e+00  5.020954e+00
     vertex  8.650307e-01  3.754975e+00  5.171079e+00
   endloop
 endfacet
 facet normal  4.114324e-01 -2.339784e-01  8.808958e-01
   outer loop
     vertex  1.323234e+00  5.459966e+00  6.471359e+00
     vertex  9.331946e-01  5.339313e+00  6.621484e+00
     vertex  1.249720e+00  3.536205e+00  5.994716e+00
   endloop
 endfacet
 facet normal  4.114324e-01 -2.339784e-01  8.808958e-01
   outer loop
     vertex  1.323234e+00  5.459966e+00  6.471359e+00
     vertex  1.249720e+00  3.536205e+00  5.994716e+00
     vertex  1.639759e+00  3.656858e+00  5.844591e+00
   endloop
 endfacet
 facet normal -8.966411e-01 -2.773636e-01  3.451147e-01
   outer loop
     vertex  9.331946e-01  5.339313e+00  6.621484e+00
     vertex  8.650307e-01  3.754975e+00  5.171079e+00
     vertex  1.249720e+00  3.536205e+00  5.994716e+00
   endloop
 endfacet
 facet normal -8.966411e-01 -2.773636e-01  3.451147e-01
   outer loop
     vertex  9.331946e-01  5.339313e+00  6.621484e+00
     vertex  5.485053e-01  5.558083e+00  5.797846e+00
     vertex  8.650307e-01  3.754975e+00  5.171079e+00
   endloop
 endfacet
 facet normal  8.966411e-01  2.773636e-01 -3.451147e-01
   outer loop
     vertex  1.323234e+00  5.459966e+00  6.471359e+00
     vertex  1.639759e+00  3.656858e+00  5.844591e+00
     vertex  1.255070e+00  3.875628e+00  5.020954e+00
   endloop
 endfacet
 facet normal  8.966411e-01  2.773636e-01 -3.451147e-01
   outer loop
     vertex  1.323234e+00  5.459966e+00  6.471359e+00
     vertex  1.255070e+00  3.875628e+00  5.020954e+00
     vertex  9.385442e-01  5.678736e+00  5.647722e+00
   endloop
 endfacet
 facet normal  4.114324e-01 -2.339784e-01  8.808958e-01
   outer loop
     vertex  1.191438e+00  3.518176e+00  6.017149e+00
     vertex  6.484531e-01  4.268793e+00  6.470130e+00
     vertex  8.013995e-01  3.397523e+00  6.167274e+00
   endloop
 endfacet
 facet normal  4.114324e-01 -2.339784e-01  8.808958e-01
   outer loop
     vertex  1.191438e+00  3.518176e+00  6.017149e+00
     vertex  1.038492e+00  4.389446e+00  6.320005e+00
     vertex  6.484531e-01  4.268793e+00  6.470130e+00
   endloop
 endfacet
 facet normal -4.114324e-01  2.339784e-01 -8.808958e-01
   outer loop
     vertex  3.953166e-01  3.970925e+00  4.312615e+00
     vertex  5.277724e-03  3.850272e+00  4.462740e+00
     vertex -1.476687e-01  4.721541e+00  4.765597e+00
   endloop
 endfacet
 facet normal -4.114324e-01  2.339784e-01 -8.808958e-01
   outer loop
     vertex  3.953166e-01  3.970925e+00  4.312615e+00
     vertex -1.476687e-01  4.721541e+00  4.765597e+00
     vertex  2.423702e-01  4.842194e+00  4.615472e+00
   endloop
 endfacet
 facet normal  1.635790e-01 -9.318388e-01 -3.239111e-01
   outer loop
     vertex  3.953166e-01  3.970925e+00  4.312615e+00
     vertex  8.013995e-01  3.397523e+00  6.167274e+00
     vertex  5.277724e-03  3.850272e+00  4.462740e+00
   endloop
 endfacet
 facet normal  1.635790e-01 -9.318388e-01 -3.239111e-01
   outer loop
     vertex  3.953166e-01  3.970925e+00  4.312615e+00
     vertex  1.191438e+00  3.518176e+00  6.017149e+00
     vertex  8.013995e-01  3.397523e+00  6.167274e+00
   endloop
 endfacet
 facet normal -1.635790e-01  9.318388e-01  3.239111e-01
   outer loop
     vertex  2.423702e-01  4.842194e+00  4.615472e+00
     vertex -1.476687e-01  4.721541e+00  4.765597e+00
     vertex  6.484531e-01  4.268793e+00  6.470130e+00
   endloop
 endfacet
 facet normal -1.635790e-01  9.318388e-01  3.239111e-01
   outer loop
     vertex  2.423702e-01  4.842194e+00  4.615472e+00
     vertex  6.484531e-01  4.268793e+00  6.470130e+00
     vertex  1.038492e+00  4.389446e+00  6.320005e+00
   endloop
 endfacet
 facet normal -8.966411e-01 -2.773636e-01  3.451147e-01
   outer loop
     vertex -1.476687e-01  4.721541e+00  4.765597e+00
     vertex  8.013995e-01  3.397523e+00  6.167274e+00
     vertex  6.484531e-01  4.268793e+00  6.470130e+00
   endloop
 endfacet
 facet normal -8.966411e-01 -2.773636e-01  3.451147e-01
   outer loop
     vertex -1.476687e-01  4.721541e+00  4.765597e+00
     vertex  5.277724e-03  3.850272e+00  4.462740e+00
     vertex  8.013995e-01  3.397523e+00  6.167274e+00
   endloop
 endfacet
 facet normal  8.966411e-01  2.773636e-01 -3.451147e-01
   outer loop
     vertex  2.423702e-01  4.842194e+00  4.615472e+00
     vertex  1.038492e+00  4.389446e+00  6.320005e+00
     vertex  1.191438e+00  3.518176e+00  6.017149e+00
   endloop
 endfacet
 facet normal  8.966411e-01  2.773636e-01 -3.451147e-01
   outer loop
     vertex  2.423702e-01  4.842194e+00  4.615472e+00
     vertex  1.191438e+00  3.518176e+00  6.017149e+00
     vertex  3.953166e-01  3.970925e+00  4.312615e+00
   endloop
 endfacet
 facet normal  1.635790e-01 -9.318388e-01 -3.239111e-01
   outer loop
     vertex  3.584285e-01  3.598265e+00  5.366068e+00
     vertex  3.530789e-01  3.258842e+00  6.339831e+00
     vertex -3.161039e-02  3.477611e+00  5.516193e+00
   endloop
 endfacet
 facet normal  1.635790e-01 -9.318388e-01 -3.239111e-01
   outer loop
     vertex  3.584285e-01  3.598265e+00  5.366068e+00
     vertex  7.431178e-01  3.379495e+00  6.189706e+00
     vertex  3.530789e-01  3.258842e+00  6.339831e+00
   endloop
 endfacet
 facet normal -1.635790e-01  9.318388e-01  3.239111e-01
   outer loop
     vertex  4.190308e-02  5.401373e+00  5.992836e+00
     vertex -3.481358e-01  5.280719e+00  6.142961e+00
     vertex  3.655353e-02  5.061950e+00  6.966599e+00
   endloop
 endfacet
 facet normal -1.635790e-01  9.318388e-01  3.239111e-01
   outer loop
     vertex  4.190308e-02  5.401373e+00  5.992836e+00
     vertex  3.655353e-02  5.061950e+00  6.966599e+00
     vertex  4.265924e-01  5.182603e+00  6.816474e+00
   endloop
 endfacet
 facet normal -4.114324e-01  2.339784e-01 -8.808958e-01
   outer loop
     vertex  4.190308e-02  5.401373e+00  5.992836e+00
     vertex -3.161039e-02  3.477611e+00  5.516193e+00
     vertex -3.481358e-01  5.280719e+00  6.142961e+00
   endloop
 endfacet
 facet normal -4.114324e-01  2.339784e-01 -8.808958e-01
   outer loop
     vertex  4.190308e-02  5.401373e+00  5.992836e+00
     vertex  3.584285e-01  3.598265e+00  5.366068e+00
     vertex -3.161039e-02  3.477611e+00  5.516193e+00
   endloop
 endfacet
 facet normal  4.114324e-01 -2.339784e-01  8.808958e-01
   outer loop
     vertex  4.265924e-01  5.182603e+00  6.816474e+00
     vertex  3.655353e-02  5.061950e+00  6.966599e+00
     vertex  3.530789e-01  3.258842e+00  6.339831e+00
   endloop
 endfacet
 facet normal  4.114324e-01 -2.339784e-01  8.808958e-01
   outer loop
     vertex  4.265924e-01  5.182603e+00  6.816474e+00
     vertex  3.530789e-01  3.258842e+00  6.339831e+00
     vertex  7.431178e-01  3.379495e+00  6.189706e+00
   endloop
 endfacet
 facet normal -8.966411e-01 -2.773636e-01  3.451147e-01
   outer loop
     vertex  3.655353e-02  5.061950e+00  6.966599e+00
     vertex -3.161039e-02  3.477611e+00  5.516193e+00
     vertex  3.530789e-01  3.258842e+00  6.339831e+00
   endloop
 endfacet
 facet normal -8.966411e-01 -2.773636e-01  3.451147e-01
   outer loop
     vertex  3.655353e-02  5.061950e+00  6.966599e+00
     vertex -3.481358e-01  5.280719e+00  6.142961e+00
     vertex -3.161039e-02  3.477611e+00  5.516193e+00
   endloop
 endfacet
 facet normal  8.966411e-01  2.773636e-01 -3.451147e-01
   outer loop
     vertex  4.265924e-01  5.182603e+00  6.816474e+00
     vertex  7.431178e-01  3.379495e+00  6.189706e+00
     vertex  3.584285e-01  3.598265e+00  5.366068e+00
   endloop
 endfacet
 facet normal  8.966411e-01  2.773636e-01 -3.451147e-01
   outer loop
     vertex  4.265924e-01  5.182603e+00  6.816474e+00
     vertex  3.584285e-01  3.598265e+00  5.366068e+00
     vertex  4.190308e-02  5.401373e+00  5.992836e+00
   endloop
 endfacet
 facet normal  4.114324e-01 -2.339784e-01  8.808958e-01
   outer loop
     vertex  2.947973e-01  3.240813e+00  6.362263e+00
     vertex -2.481880e-01  3.991429e+00  6.815245e+00
     vertex -9.524161e-02  3.120160e+00  6.512388e+00
   endloop
 endfacet
 facet normal  4.114324e-01 -2.339784e-01  8.808958e-01
   outer loop
     vertex  2.947973e-01  3.240813e+00  6.362263e+00
     vertex  1.418509e-01  4.112082e+00  6.665120e+00
     vertex -2.481880e-01  3.991429e+00  6.815245e+00
   endloop
 endfacet
 facet normal -4.114324e-01  2.339784e-01 -8.808958e-01
   outer loop
     vertex -5.013245e-01  3.693561e+00  4.657730e+00
     vertex -8.913634e-01  3.572908e+00  4.807855e+00
     vertex -1.044310e+00  4.444177e+00  5.110712e+00
   endloop
 endfacet
 facet normal -4.114324e-01  2.339784e-01 -8.808958e-01
   outer loop
     vertex -5.013245e-01  3.693561e+00  4.657730e+00
     vertex -1.044310e+00  4.444177e+00  5.110712e+00
     vertex -6.542709e-01  4.564830e+00  4.960587e+00
   endloop
 endfacet
 facet normal  1.635790e-01 -9.318388e-01 -3.239111e-01
   outer loop
     vertex -5.013245e-01  3.693561e+00  4.657730e+00
     vertex -9.524161e-02  3.120160e+00  6.512388e+00
     vertex -8.913634e-01  3.572908e+00  4.807855e+00
   endloop
 endfacet
 facet normal  1.635790e-01 -9.318388e-01 -3.239111e-01
   outer loop
     vertex -5.013245e-01  3.693561e+00  4.657730e+00
     vertex  2.947973e-01  3.240813e+00  6.362263e+00
     vertex -9.524161e-02  3.120160e+00  6.512388e+00
   endloop
 endfacet
 facet normal -1.635790e-01  9.318388e-01  3.239111e-01
   outer loop
     vertex -6.542709e-01  4.564830e+00  4.960587e+00
     vertex -1.044310e+00  4.444177e+00  5.110712e+00
     vertex -2.481880e-01  3.991429e+00  6.815245e+00
   endloop
 endfacet
 facet normal -1.635790e-01  9.318388e-01  3.239111e-01
   outer loop
     vertex -6.542709e-01  4.564830e+00  4.960587e+00
     vertex -2.481880e-01  3.991429e+00  6.815245e+00
     vertex  1.418509e-01  4.112082e+00  6.665120e+00
   endloop
 endfacet
 facet normal -8.966411e-01 -2.773636e-01  3.451147e-01
   outer loop
     vertex -1.044310e+00  4.444177e+00  5.110712e+00
     vertex -9.524161e-02  3.120160e+00  6.512388e+00
     vertex -2.481880e-01  3.991429e+00  6.815245e+00
   endloop
 endfacet
 facet normal -8.966411e-01 -2.773636e-01  3.451147e-01
   outer loop
     vertex -1.044310e+00  4.444177e+00  5.110712e+00
     vertex -8.913634e-01  3.572908e+00  4.807855e+00
     vertex -9.524161e-02  3.120160e+00  6.512388e+00
   endloop
 endfacet
 facet normal  8.966411e-01  2.773636e-01 -3.451147e-01
   outer loop
     vertex -6.542709e-01  4.564830e+00  4.960587e+00
     vertex  1.418509e-01  4.112082e+00  6.665120e+00
     vertex  2.947973e-01  3.240813e+00  6.362263e+00
   endloop
 endfacet
 facet normal  8.966411e-01  2.773636e-01 -3.451147e-01
   outer loop
     vertex -6.542709e-01  4.564830e+00  4.960587e+00
     vertex  2.947973e-01  3.240813e+00  6.362263e+00
     vertex -5.013245e-01  3.693561e+00  4.657730e+00
   endloop
 endfacet
 facet normal  4.114324e-01 -2.339784e-01  8.808958e-01
   outer loop
     vertex -6.018438e-01  2.963449e+00  6.707378e+00
     vertex -1.144829e+00  3.714065e+00  7.160360e+00
     vertex -9.918827e-01  2.842796e+00  6.857503e+00
   endloop
 endfacet
 facet normal  4.114324e-01 -2.339784e-01  8.808958e-01
   outer loop
     vertex -6.018438e-01  2.963449e+00  6.707378e+00
     vertex -7.547902e-01  3.834719e+00  7.010235e+00
     vertex -1.144829e+00  3.714065e+00  7.160360e+00
   endloop
 endfacet
 facet normal -4.114324e-01  2.339784e-01 -8.808958e-01
   outer loop
     vertex -1.397966e+00  3.416198e+00  5.002845e+00
     vertex -1.788004e+00  3.295544e+00  5.152970e+00
     vertex -1.940951e+00  4.166814e+00  5.455826e+00
   endloop
 endfacet
 facet normal -4.114324e-01  2.339784e-01 -8.808958e-01
   outer loop
     vertex -1.397966e+00  3.416198e+00  5.002845e+00
     vertex -1.940951e+00  4.166814e+00  5.455826e+00
     vertex -1.550912e+00  4.287467e+00  5.305702e+00
   endloop
 endfacet
 facet normal  1.635790e-01 -9.318388e-01 -3.239111e-01
   outer loop
     vertex -1.397966e+00  3.416198e+00  5.002845e+00
     vertex -9.918827e-01  2.842796e+00  6.857503e+00
     vertex -1.788004e+00  3.295544e+00  5.152970e+00
   endloop
 endfacet
 facet normal  1.635790e-01 -9.318388e-01 -3.239111e-01
   outer loop
     vertex -1.397966e+00  3.416198e+00  5.002845e+00
     vertex -6.018438e-01  2.963449e+00  6.707378e+00
     vertex -9.918827e-01  2.842796e+00  6.857503e+00
   endloop
 endfacet
 facet normal -1.635790e-01  9.318388e-01  3.239111e-01
   outer loop
     vertex -1.550912e+00  4.287467e+00  5.305702e+00
     vertex -1.940951e+00  4.166814e+00  5.455826e+00
     vertex -1.144829e+00  3.714065e+00  7.160360e+00
   endloop
 endfacet
 facet normal -1.635790e-01  9.318388e-01  3.239111e-01
   outer loop
     vertex -1.550912e+00  4.287467e+00  5.305702e+00
     vertex -1.144829e+00  3.714065e+00  7.160360e+00
     vertex -7.547902e-01  3.834719e+00  7.010235e+00
   endloop
 endfacet
 facet normal -8.966411e-01 -2.773636e-01  3.451147e-01
   outer loop
     vertex -1.940951e+00  4.166814e+00  5.455826e+00
     vertex -9.918827e-01  2.842796e+00  6.857503e+00
     vertex -1.144829e+00  3.714065e+00  7.160360e+00
   endloop
 endfacet
 facet normal -8.966411e-01 -2.773636e-01  3.451147e-01
   outer loop
     vertex -1.940951e+00  4.166814e+00  5.455826e+00
     vertex -1.788004e+00  3.295544e+00  5.152970e+00
     vertex -9.918827e-01  2.842796e+00  6.857503e+00
   endloop
 endfacet
 facet normal  8.966411e-01  2.773636e-01 -3.451147e-01
   outer loop
     vertex -1.550912e+00  4.287467e+00  5.305702e+00
     vertex -7.547902e-01  3.834719e+00  7.010235e+00
     vertex -6.018438e-01  2.963449e+00  6.707378e+00
   endloop
 endfacet
 facet normal  8.966411e-01  2.773636e-01 -3.451147e-01
   outer loop
     vertex -1.550912e+00  4.287467e+00  5.305702e+00
     vertex -6.018438e-01  2.963449e+00  6.707378e+00
     vertex -1.397966e+00  3.416198e+00  5.002845e+00
   endloop
 endfacet
 facet normal  1.635790e-01 -9.318388e-01 -3.239111e-01
   outer loop
     vertex -5.382126e-01  3.320901e+00  5.711183e+00
     vertex -5.435622e-01  2.981478e+00  6.684946e+00
     vertex -9.282515e-01  3.200248e+00  5.861308e+00
   endloop
 endfacet
 facet normal  1.635790e-01 -9.318388e-01 -3.239111e-01
   outer loop
     vertex -5.382126e-01  3.320901e+00  5.711183e+00
     vertex -1.535233e-01  3.102131e+00  6.534821e+00
     vertex -5.435622e-01  2.981478e+00  6.684946e+00
   endloop
 endfacet
 facet normal -1.635790e-01  9.318388e-01  3.239111e-01
   outer loop
     vertex -8.547380e-01  5.124009e+00  6.337951e+00
     vertex -1.244777e+00  5.003356e+00  6.488076e+00
     vertex -8.600876e-01  4.784586e+00  7.311714e+00
   endloop
 endfacet
 facet normal -1.635790e-01  9.318388e-01  3.239111e-01
   outer loop
     vertex -8.547380e-01  5.124009e+00  6.337951e+00
     vertex -8.600876e-01  4.784586e+00  7.311714e+00
     vertex -4.700487e-01  4.905239e+00  7.161589e+00
   endloop
 endfacet
 facet normal -4.114324e-01  2.339784e-01 -8.808958e-01
   outer loop
     vertex -8.547380e-01  5.124009e+00  6.337951e+00
     vertex -9.282515e-01  3.200248e+00  5.861308e+00
     vertex -1.244777e+00  5.003356e+00  6.488076e+00
   endloop
 endfacet
 facet normal -4.114324e-01  2.339784e-01 -8.808958e-01
   outer loop
     vertex -8.547380e-01  5.124009e+00  6.337951e+00
     vertex -5.382126e-01  3.320901e+00  5.711183e+00
     vertex -9.282515e-01  3.200248e+00  5.861308e+00
   endloop
 endfacet
 facet normal  4.114324e-01 -2.339784e-01  8.808958e-01
   outer loop
     vertex -4.700487e-01  4.905239e+00  7.161589e+00
     vertex -8.600876e-01  4.784586e+00  7.311714e+00
     vertex -5.435622e-01  2.981478e+00  6.684946e+00
   endloop
 endfacet
 facet normal  4.114324e-01 -2.339784e-01  8.808958e-01
   outer loop
     vertex -4.700487e-01  4.905239e+00  7.161589e+00
     vertex -5.435622e-01  2.981478e+00  6.684946e+00
     vertex -1.535233e-01  3.102131e+00  6.534821e+00
   endloop
 endfacet
 facet normal -8.966411e-01 -2.773636e-01  3.451147e-01
   outer loop
     vertex -8.600876e-01  4.784586e+00  7.311714e+00
     vertex -9.282515e-01  3.200248e+00  5.861308e+00
     vertex -5.435622e-01  2.981478e+00  6.684946e+00
   endloop
 endfacet
 facet normal -8.966411e-01 -2.773636e-01  3.451147e-01
   outer loop
     vertex -8.600876e-01  4.784586e+00  7.311714e+00
     vertex -1.244777e+00  5.003356e+00  6.488076e+00
     vertex -9.282515e-01  3.200248e+00  5.861308e+00
   endloop
 endfacet
 facet normal  8.966411e-01  2.773636e-01 -3.451147e-01
   outer loop
     vertex -4.700487e-01  4.905239e+00  7.161589e+00
     vertex -1.535233e-01  3.102131e+00  6.534821e+00
     vertex -5.382126e-01  3.320901e+00  5.711183e+00
   endloop
 endfacet
 facet normal  8.966411e-01  2.773636e-01 -3.451147e-01
   outer loop
     vertex -4.700487e-01  4.905239e+00  7.161589e+00
     vertex -5.382126e-01  3.320901e+00  5.711183e+00
     vertex -8.547380e-01  5.124009e+00  6.337951e+00
   endloop
 endfacet
endsolid
