solid 
 facet normal  1.000000e+00  0.000000e+00  0.000000e+00
   outer loop
     vertex  5.967500e+00 -4.032500e+00 -3.250000e-02
     vertex  5.967500e+00 -4.967500e+00 -4.675000e-01
     vertex  5.967500e+00 -4.032500e+00 -4.675000e-01
   endloop
 endfacet
 facet normal  1.000000e+00  0.000000e+00  0.000000e+00
   outer loop
     vertex  5.967500e+00 -4.032500e+00 -3.250000e-02
     vertex  5.967500e+00 -4.967500e+00 -3.250000e-02
     vertex  5.967500e+00 -4.967500e+00 -4.675000e-01
   endloop
 endfacet
 facet normal -1.000000e+00  0.000000e+00 -0.000000e+00
   outer loop
     vertex  4.032500e+00 -4.032500e+00 -3.250000e-02
     vertex  4.032500e+00 -4.032500e+00 -4.675000e-01
     vertex  4.032500e+00 -4.967500e+00 -4.675000e-01
   endloop
 endfacet
 facet normal -1.000000e+00 -0.000000e+00  0.000000e+00
   outer loop
     vertex  4.032500e+00 -4.032500e+00 -3.250000e-02
     vertex  4.032500e+00 -4.967500e+00 -4.675000e-01
     vertex  4.032500e+00 -4.967500e+00 -3.250000e-02
   endloop
 endfacet
 facet normal  9.180139e-16  1.000000e+00  0.000000e+00
   outer loop
     vertex  4.032500e+00 -4.032500e+00 -3.250000e-02
     vertex  5.967500e+00 -4.032500e+00 -4.675000e-01
     vertex  4.032500e+00 -4.032500e+00 -4.675000e-01
   endloop
 endfacet
 facet normal  9.180139e-16  1.000000e+00  0.000000e+00
   outer loop
     vertex  4.032500e+00 -4.032500e+00 -3.250000e-02
     vertex  5.967500e+00 -4.032500e+00 -3.250000e-02
     vertex  5.967500e+00 -4.032500e+00 -4.675000e-01
   endloop
 endfacet
 facet normal  0.000000e+00 -1.000000e+00  0.000000e+00
   outer loop
     vertex  4.032500e+00 -4.967500e+00 -3.250000e-02
     vertex  4.032500e+00 -4.967500e+00 -4.675000e-01
     vertex  5.967500e+00 -4.967500e+00 -4.675000e-01
   endloop
 endfacet
 facet normal  0.000000e+00 -1.000000e+00  0.000000e+00
   outer loop
     vertex  4.032500e+00 -4.967500e+00 -3.250000e-02
     vertex  5.967500e+00 -4.967500e+00 -4.675000e-01
     vertex  5.967500e+00 -4.967500e+00 -3.250000e-02
   endloop
 endfacet
 facet normal  0.000000e+00  0.000000e+00 -1.000000e+00
   outer loop
     vertex  4.032500e+00 -4.967500e+00 -4.675000e-01
     vertex  5.967500e+00 -4.032500e+00 -4.675000e-01
     vertex  5.967500e+00 -4.967500e+00 -4.675000e-01
   endloop
 endfacet
 facet normal  0.000000e+00  0.000000e+00 -1.000000e+00
   outer loop
     vertex  4.032500e+00 -4.967500e+00 -4.675000e-01
     vertex  4.032500e+00 -4.032500e+00 -4.675000e-01
     vertex  5.967500e+00 -4.032500e+00 -4.675000e-01
   endloop
 endfacet
 facet normal  0.000000e+00  0.000000e+00  1.000000e+00
   outer loop
     vertex  4.032500e+00 -4.967500e+00 -3.250000e-02
     vertex  5.967500e+00 -4.967500e+00 -3.250000e-02
     vertex  5.967500e+00 -4.032500e+00 -3.250000e-02
   endloop
 endfacet
 facet normal  0.000000e+00  0.000000e+00  1.000000e+00
   outer loop
     vertex  4.032500e+00 -4.967500e+00 -3.250000e-02
     vertex  5.967500e+00 -4.032500e+00 -3.250000e-02
     vertex  4.032500e+00 -4.032500e+00 -3.250000e-02
   endloop
 endfacet
 facet normal  0.000000e+00 -1.000000e+00 -0.000000e+00
   outer loop
     vertex  5.967500e+00 -4.967500e+00 -5.325000e-01
     vertex  5.032500e+00 -4.967500e+00 -9.675000e-01
     vertex  5.967500e+00 -4.967500e+00 -9.675000e-01
   endloop
 endfacet
 facet normal -0.000000e+00 -1.000000e+00  0.000000e+00
   outer loop
     vertex  5.967500e+00 -4.967500e+00 -5.325000e-01
     vertex  5.032500e+00 -4.967500e+00 -5.325000e-01
     vertex  5.032500e+00 -4.967500e+00 -9.675000e-01
   endloop
 endfacet
 facet normal  4.749617e-16  1.000000e+00  0.000000e+00
   outer loop
     vertex  5.967500e+00 -3.032500e+00 -5.325000e-01
     vertex  5.967500e+00 -3.032500e+00 -9.675000e-01
     vertex  5.032500e+00 -3.032500e+00 -9.675000e-01
   endloop
 endfacet
 facet normal  4.749617e-16  1.000000e+00  0.000000e+00
   outer loop
     vertex  5.967500e+00 -3.032500e+00 -5.325000e-01
     vertex  5.032500e+00 -3.032500e+00 -9.675000e-01
     vertex  5.032500e+00 -3.032500e+00 -5.325000e-01
   endloop
 endfacet
 facet normal  1.000000e+00  0.000000e+00  0.000000e+00
   outer loop
     vertex  5.967500e+00 -3.032500e+00 -5.325000e-01
     vertex  5.967500e+00 -4.967500e+00 -9.675000e-01
     vertex  5.967500e+00 -3.032500e+00 -9.675000e-01
   endloop
 endfacet
 facet normal  1.000000e+00  0.000000e+00  0.000000e+00
   outer loop
     vertex  5.967500e+00 -3.032500e+00 -5.325000e-01
     vertex  5.967500e+00 -4.967500e+00 -5.325000e-01
     vertex  5.967500e+00 -4.967500e+00 -9.675000e-01
   endloop
 endfacet
 facet normal -1.000000e+00  0.000000e+00 -0.000000e+00
   outer loop
     vertex  5.032500e+00 -3.032500e+00 -5.325000e-01
     vertex  5.032500e+00 -3.032500e+00 -9.675000e-01
     vertex  5.032500e+00 -4.967500e+00 -9.675000e-01
   endloop
 endfacet
 facet normal -1.000000e+00 -0.000000e+00  0.000000e+00
   outer loop
     vertex  5.032500e+00 -3.032500e+00 -5.325000e-01
     vertex  5.032500e+00 -4.967500e+00 -9.675000e-01
     vertex  5.032500e+00 -4.967500e+00 -5.325000e-01
   endloop
 endfacet
 facet normal  0.000000e+00  0.000000e+00 -1.000000e+00
   outer loop
     vertex  5.032500e+00 -3.032500e+00 -9.675000e-01
     vertex  5.967500e+00 -4.967500e+00 -9.675000e-01
     vertex  5.032500e+00 -4.967500e+00 -9.675000e-01
   endloop
 endfacet
 facet normal  0.000000e+00  0.000000e+00 -1.000000e+00
   outer loop
     vertex  5.032500e+00 -3.032500e+00 -9.675000e-01
     vertex  5.967500e+00 -3.032500e+00 -9.675000e-01
     vertex  5.967500e+00 -4.967500e+00 -9.675000e-01
   endloop
 endfacet
 facet normal  0.000000e+00  0.000000e+00  1.000000e+00
   outer loop
     vertex  5.032500e+00 -3.032500e+00 -5.325000e-01
     vertex  5.032500e+00 -4.967500e+00 -5.325000e-01
     vertex  5.967500e+00 -4.967500e+00 -5.325000e-01
   endloop
 endfacet
 facet normal  0.000000e+00  0.000000e+00  1.000000e+00
   outer loop
     vertex  5.032500e+00 -3.032500e+00 -5.325000e-01
     vertex  5.967500e+00 -4.967500e+00 -5.325000e-01
     vertex  5.967500e+00 -3.032500e+00 -5.325000e-01
   endloop
 endfacet
 facet normal  1.000000e+00  0.000000e+00  0.000000e+00
   outer loop
     vertex  5.967500e+00 -4.032500e+00 -1.032500e+00
     vertex  5.967500e+00 -4.967500e+00 -1.467500e+00
     vertex  5.967500e+00 -4.032500e+00 -1.467500e+00
   endloop
 endfacet
 facet normal  1.000000e+00  0.000000e+00  0.000000e+00
   outer loop
     vertex  5.967500e+00 -4.032500e+00 -1.032500e+00
     vertex  5.967500e+00 -4.967500e+00 -1.032500e+00
     vertex  5.967500e+00 -4.967500e+00 -1.467500e+00
   endloop
 endfacet
 facet normal -1.000000e+00  0.000000e+00 -0.000000e+00
   outer loop
     vertex  4.032500e+00 -4.032500e+00 -1.032500e+00
     vertex  4.032500e+00 -4.032500e+00 -1.467500e+00
     vertex  4.032500e+00 -4.967500e+00 -1.467500e+00
   endloop
 endfacet
 facet normal -1.000000e+00 -0.000000e+00  0.000000e+00
   outer loop
     vertex  4.032500e+00 -4.032500e+00 -1.032500e+00
     vertex  4.032500e+00 -4.967500e+00 -1.467500e+00
     vertex  4.032500e+00 -4.967500e+00 -1.032500e+00
   endloop
 endfacet
 facet normal  9.180139e-16  1.000000e+00  0.000000e+00
   outer loop
     vertex  4.032500e+00 -4.032500e+00 -1.032500e+00
     vertex  5.967500e+00 -4.032500e+00 -1.467500e+00
     vertex  4.032500e+00 -4.032500e+00 -1.467500e+00
   endloop
 endfacet
 facet normal  9.180139e-16  1.000000e+00  0.000000e+00
   outer loop
     vertex  4.032500e+00 -4.032500e+00 -1.032500e+00
     vertex  5.967500e+00 -4.032500e+00 -1.032500e+00
     vertex  5.967500e+00 -4.032500e+00 -1.467500e+00
   endloop
 endfacet
 facet normal  0.000000e+00 -1.000000e+00  0.000000e+00
   outer loop
     vertex  4.032500e+00 -4.967500e+00 -1.032500e+00
     vertex  4.032500e+00 -4.967500e+00 -1.467500e+00
     vertex  5.967500e+00 -4.967500e+00 -1.467500e+00
   endloop
 endfacet
 facet normal  0.000000e+00 -1.000000e+00  0.000000e+00
   outer loop
     vertex  4.032500e+00 -4.967500e+00 -1.032500e+00
     vertex  5.967500e+00 -4.967500e+00 -1.467500e+00
     vertex  5.967500e+00 -4.967500e+00 -1.032500e+00
   endloop
 endfacet
 facet normal  0.000000e+00  0.000000e+00 -1.000000e+00
   outer loop
     vertex  4.032500e+00 -4.967500e+00 -1.467500e+00
     vertex  5.967500e+00 -4.032500e+00 -1.467500e+00
     vertex  5.967500e+00 -4.967500e+00 -1.467500e+00
   endloop
 endfacet
 facet normal  0.000000e+00  0.000000e+00 -1.000000e+00
   outer loop
     vertex  4.032500e+00 -4.967500e+00 -1.467500e+00
     vertex  4.032500e+00 -4.032500e+00 -1.467500e+00
     vertex  5.967500e+00 -4.032500e+00 -1.467500e+00
   endloop
 endfacet
 facet normal  0.000000e+00  0.000000e+00  1.000000e+00
   outer loop
     vertex  4.032500e+00 -4.967500e+00 -1.032500e+00
     vertex  5.967500e+00 -4.967500e+00 -1.032500e+00
     vertex  5.967500e+00 -4.032500e+00 -1.032500e+00
   endloop
 endfacet
 facet normal  0.000000e+00  0.000000e+00  1.000000e+00
   outer loop
     vertex  4.032500e+00 -4.967500e+00 -1.032500e+00
     vertex  5.967500e+00 -4.032500e+00 -1.032500e+00
     vertex  4.032500e+00 -4.032500e+00 -1.032500e+00
   endloop
 endfacet
 facet normal  0.000000e+00 -1.000000e+00 -0.000000e+00
   outer loop
     vertex  5.967500e+00 -4.967500e+00 -1.532500e+00
     vertex  5.032500e+00 -4.967500e+00 -1.967500e+00
     vertex  5.967500e+00 -4.967500e+00 -1.967500e+00
   endloop
 endfacet
 facet normal -0.000000e+00 -1.000000e+00  0.000000e+00
   outer loop
     vertex  5.967500e+00 -4.967500e+00 -1.532500e+00
     vertex  5.032500e+00 -4.967500e+00 -1.532500e+00
     vertex  5.032500e+00 -4.967500e+00 -1.967500e+00
   endloop
 endfacet
 facet normal  4.749617e-16  1.000000e+00  0.000000e+00
   outer loop
     vertex  5.967500e+00 -3.032500e+00 -1.532500e+00
     vertex  5.967500e+00 -3.032500e+00 -1.967500e+00
     vertex  5.032500e+00 -3.032500e+00 -1.967500e+00
   endloop
 endfacet
 facet normal  4.749617e-16  1.000000e+00  0.000000e+00
   outer loop
     vertex  5.967500e+00 -3.032500e+00 -1.532500e+00
     vertex  5.032500e+00 -3.032500e+00 -1.967500e+00
     vertex  5.032500e+00 -3.032500e+00 -1.532500e+00
   endloop
 endfacet
 facet normal  1.000000e+00  0.000000e+00  0.000000e+00
   outer loop
     vertex  5.967500e+00 -3.032500e+00 -1.532500e+00
     vertex  5.967500e+00 -4.967500e+00 -1.967500e+00
     vertex  5.967500e+00 -3.032500e+00 -1.967500e+00
   endloop
 endfacet
 facet normal  1.000000e+00  0.000000e+00  0.000000e+00
   outer loop
     vertex  5.967500e+00 -3.032500e+00 -1.532500e+00
     vertex  5.967500e+00 -4.967500e+00 -1.532500e+00
     vertex  5.967500e+00 -4.967500e+00 -1.967500e+00
   endloop
 endfacet
 facet normal -1.000000e+00  0.000000e+00 -0.000000e+00
   outer loop
     vertex  5.032500e+00 -3.032500e+00 -1.532500e+00
     vertex  5.032500e+00 -3.032500e+00 -1.967500e+00
     vertex  5.032500e+00 -4.967500e+00 -1.967500e+00
   endloop
 endfacet
 facet normal -1.000000e+00 -0.000000e+00  0.000000e+00
   outer loop
     vertex  5.032500e+00 -3.032500e+00 -1.532500e+00
     vertex  5.032500e+00 -4.967500e+00 -1.967500e+00
     vertex  5.032500e+00 -4.967500e+00 -1.532500e+00
   endloop
 endfacet
 facet normal  0.000000e+00  0.000000e+00 -1.000000e+00
   outer loop
     vertex  5.032500e+00 -3.032500e+00 -1.967500e+00
     vertex  5.967500e+00 -4.967500e+00 -1.967500e+00
     vertex  5.032500e+00 -4.967500e+00 -1.967500e+00
   endloop
 endfacet
 facet normal  0.000000e+00  0.000000e+00 -1.000000e+00
   outer loop
     vertex  5.032500e+00 -3.032500e+00 -1.967500e+00
     vertex  5.967500e+00 -3.032500e+00 -1.967500e+00
     vertex  5.967500e+00 -4.967500e+00 -1.967500e+00
   endloop
 endfacet
 facet normal  0.000000e+00  0.000000e+00  1.000000e+00
   outer loop
     vertex  5.032500e+00 -3.032500e+00 -1.532500e+00
     vertex  5.032500e+00 -4.967500e+00 -1.532500e+00
     vertex  5.967500e+00 -4.967500e+00 -1.532500e+00
   endloop
 endfacet
 facet normal  0.000000e+00  0.000000e+00  1.000000e+00
   outer loop
     vertex  5.032500e+00 -3.032500e+00 -1.532500e+00
     vertex  5.967500e+00 -4.967500e+00 -1.532500e+00
     vertex  5.967500e+00 -3.032500e+00 -1.532500e+00
   endloop
 endfacet
 facet normal  1.000000e+00  0.000000e+00  0.000000e+00
   outer loop
     vertex  5.967500e+00 -4.032500e+00 -2.032500e+00
     vertex  5.967500e+00 -4.967500e+00 -2.467500e+00
     vertex  5.967500e+00 -4.032500e+00 -2.467500e+00
   endloop
 endfacet
 facet normal  1.000000e+00  0.000000e+00  0.000000e+00
   outer loop
     vertex  5.967500e+00 -4.032500e+00 -2.032500e+00
     vertex  5.967500e+00 -4.967500e+00 -2.032500e+00
     vertex  5.967500e+00 -4.967500e+00 -2.467500e+00
   endloop
 endfacet
 facet normal -1.000000e+00  0.000000e+00 -0.000000e+00
   outer loop
     vertex  4.032500e+00 -4.032500e+00 -2.032500e+00
     vertex  4.032500e+00 -4.032500e+00 -2.467500e+00
     vertex  4.032500e+00 -4.967500e+00 -2.467500e+00
   endloop
 endfacet
 facet normal -1.000000e+00 -0.000000e+00  0.000000e+00
   outer loop
     vertex  4.032500e+00 -4.032500e+00 -2.032500e+00
     vertex  4.032500e+00 -4.967500e+00 -2.467500e+00
     vertex  4.032500e+00 -4.967500e+00 -2.032500e+00
   endloop
 endfacet
 facet normal  9.180139e-16  1.000000e+00  0.000000e+00
   outer loop
     vertex  4.032500e+00 -4.032500e+00 -2.032500e+00
     vertex  5.967500e+00 -4.032500e+00 -2.467500e+00
     vertex  4.032500e+00 -4.032500e+00 -2.467500e+00
   endloop
 endfacet
 facet normal  9.180139e-16  1.000000e+00  0.000000e+00
   outer loop
     vertex  4.032500e+00 -4.032500e+00 -2.032500e+00
     vertex  5.967500e+00 -4.032500e+00 -2.032500e+00
     vertex  5.967500e+00 -4.032500e+00 -2.467500e+00
   endloop
 endfacet
 facet normal  0.000000e+00 -1.000000e+00  0.000000e+00
   outer loop
     vertex  4.032500e+00 -4.967500e+00 -2.032500e+00
     vertex  4.032500e+00 -4.967500e+00 -2.467500e+00
     vertex  5.967500e+00 -4.967500e+00 -2.467500e+00
   endloop
 endfacet
 facet normal  0.000000e+00 -1.000000e+00  0.000000e+00
   outer loop
     vertex  4.032500e+00 -4.967500e+00 -2.032500e+00
     vertex  5.967500e+00 -4.967500e+00 -2.467500e+00
     vertex  5.967500e+00 -4.967500e+00 -2.032500e+00
   endloop
 endfacet
 facet normal  0.000000e+00  0.000000e+00 -1.000000e+00
   outer loop
     vertex  4.032500e+00 -4.967500e+00 -2.467500e+00
     vertex  5.967500e+00 -4.032500e+00 -2.467500e+00
     vertex  5.967500e+00 -4.967500e+00 -2.467500e+00
   endloop
 endfacet
 facet normal  0.000000e+00  0.000000e+00 -1.000000e+00
   outer loop
     vertex  4.032500e+00 -4.967500e+00 -2.467500e+00
     vertex  4.032500e+00 -4.032500e+00 -2.467500e+00
     vertex  5.967500e+00 -4.032500e+00 -2.467500e+00
   endloop
 endfacet
 facet normal  0.000000e+00  0.000000e+00  1.000000e+00
   outer loop
     vertex  4.032500e+00 -4.967500e+00 -2.032500e+00
     vertex  5.967500e+00 -4.967500e+00 -2.032500e+00
     vertex  5.967500e+00 -4.032500e+00 -2.032500e+00
   endloop
 endfacet
 facet normal  0.000000e+00  0.000000e+00  1.000000e+00
   outer loop
     vertex  4.032500e+00 -4.967500e+00 -2.032500e+00
     vertex  5.967500e+00 -4.032500e+00 -2.032500e+00
     vertex  4.032500e+00 -4.032500e+00 -2.032500e+00
   endloop
 endfacet
 facet normal  0.000000e+00 -1.000000e+00 -0.000000e+00
   outer loop
     vertex  5.967500e+00 -4.967500e+00 -2.532500e+00
     vertex  5.032500e+00 -4.967500e+00 -2.967500e+00
     vertex  5.967500e+00 -4.967500e+00 -2.967500e+00
   endloop
 endfacet
 facet normal -0.000000e+00 -1.000000e+00  0.000000e+00
   outer loop
     vertex  5.967500e+00 -4.967500e+00 -2.532500e+00
     vertex  5.032500e+00 -4.967500e+00 -2.532500e+00
     vertex  5.032500e+00 -4.967500e+00 -2.967500e+00
   endloop
 endfacet
 facet normal  4.749617e-16  1.000000e+00  0.000000e+00
   outer loop
     vertex  5.967500e+00 -3.032500e+00 -2.532500e+00
     vertex  5.967500e+00 -3.032500e+00 -2.967500e+00
     vertex  5.032500e+00 -3.032500e+00 -2.967500e+00
   endloop
 endfacet
 facet normal  4.749617e-16  1.000000e+00  0.000000e+00
   outer loop
     vertex  5.967500e+00 -3.032500e+00 -2.532500e+00
     vertex  5.032500e+00 -3.032500e+00 -2.967500e+00
     vertex  5.032500e+00 -3.032500e+00 -2.532500e+00
   endloop
 endfacet
 facet normal  1.000000e+00  0.000000e+00  0.000000e+00
   outer loop
     vertex  5.967500e+00 -3.032500e+00 -2.532500e+00
     vertex  5.967500e+00 -4.967500e+00 -2.967500e+00
     vertex  5.967500e+00 -3.032500e+00 -2.967500e+00
   endloop
 endfacet
 facet normal  1.000000e+00  0.000000e+00  0.000000e+00
   outer loop
     vertex  5.967500e+00 -3.032500e+00 -2.532500e+00
     vertex  5.967500e+00 -4.967500e+00 -2.532500e+00
     vertex  5.967500e+00 -4.967500e+00 -2.967500e+00
   endloop
 endfacet
 facet normal -1.000000e+00  0.000000e+00 -0.000000e+00
   outer loop
     vertex  5.032500e+00 -3.032500e+00 -2.532500e+00
     vertex  5.032500e+00 -3.032500e+00 -2.967500e+00
     vertex  5.032500e+00 -4.967500e+00 -2.967500e+00
   endloop
 endfacet
 facet normal -1.000000e+00 -0.000000e+00  0.000000e+00
   outer loop
     vertex  5.032500e+00 -3.032500e+00 -2.532500e+00
     vertex  5.032500e+00 -4.967500e+00 -2.967500e+00
     vertex  5.032500e+00 -4.967500e+00 -2.532500e+00
   endloop
 endfacet
 facet normal  0.000000e+00  0.000000e+00 -1.000000e+00
   outer loop
     vertex  5.032500e+00 -3.032500e+00 -2.967500e+00
     vertex  5.967500e+00 -4.967500e+00 -2.967500e+00
     vertex  5.032500e+00 -4.967500e+00 -2.967500e+00
   endloop
 endfacet
 facet normal  0.000000e+00  0.000000e+00 -1.000000e+00
   outer loop
     vertex  5.032500e+00 -3.032500e+00 -2.967500e+00
     vertex  5.967500e+00 -3.032500e+00 -2.967500e+00
     vertex  5.967500e+00 -4.967500e+00 -2.967500e+00
   endloop
 endfacet
 facet normal  0.000000e+00  0.000000e+00  1.000000e+00
   outer loop
     vertex  5.032500e+00 -3.032500e+00 -2.532500e+00
     vertex  5.032500e+00 -4.967500e+00 -2.532500e+00
     vertex  5.967500e+00 -4.967500e+00 -2.532500e+00
   endloop
 endfacet
 facet normal  0.000000e+00  0.000000e+00  1.000000e+00
   outer loop
     vertex  5.032500e+00 -3.032500e+00 -2.532500e+00
     vertex  5.967500e+00 -4.967500e+00 -2.532500e+00
     vertex  5.967500e+00 -3.032500e+00 -2.532500e+00
   endloop
 endfacet
 facet normal  1.000000e+00  0.000000e+00  0.000000e+00
   outer loop
     vertex  5.967500e+00 -4.032500e+00 -3.032500e+00
     vertex  5.967500e+00 -4.967500e+00 -3.467500e+00
     vertex  5.967500e+00 -4.032500e+00 -3.467500e+00
   endloop
 endfacet
 facet normal  1.000000e+00  0.000000e+00  0.000000e+00
   outer loop
     vertex  5.967500e+00 -4.032500e+00 -3.032500e+00
     vertex  5.967500e+00 -4.967500e+00 -3.032500e+00
     vertex  5.967500e+00 -4.967500e+00 -3.467500e+00
   endloop
 endfacet
 facet normal -1.000000e+00  0.000000e+00 -0.000000e+00
   outer loop
     vertex  4.032500e+00 -4.032500e+00 -3.032500e+00
     vertex  4.032500e+00 -4.032500e+00 -3.467500e+00
     vertex  4.032500e+00 -4.967500e+00 -3.467500e+00
   endloop
 endfacet
 facet normal -1.000000e+00 -0.000000e+00  0.000000e+00
   outer loop
     vertex  4.032500e+00 -4.032500e+00 -3.032500e+00
     vertex  4.032500e+00 -4.967500e+00 -3.467500e+00
     vertex  4.032500e+00 -4.967500e+00 -3.032500e+00
   endloop
 endfacet
 facet normal  9.180139e-16  1.000000e+00  0.000000e+00
   outer loop
     vertex  4.032500e+00 -4.032500e+00 -3.032500e+00
     vertex  5.967500e+00 -4.032500e+00 -3.467500e+00
     vertex  4.032500e+00 -4.032500e+00 -3.467500e+00
   endloop
 endfacet
 facet normal  9.180139e-16  1.000000e+00  0.000000e+00
   outer loop
     vertex  4.032500e+00 -4.032500e+00 -3.032500e+00
     vertex  5.967500e+00 -4.032500e+00 -3.032500e+00
     vertex  5.967500e+00 -4.032500e+00 -3.467500e+00
   endloop
 endfacet
 facet normal  0.000000e+00 -1.000000e+00  0.000000e+00
   outer loop
     vertex  4.032500e+00 -4.967500e+00 -3.032500e+00
     vertex  4.032500e+00 -4.967500e+00 -3.467500e+00
     vertex  5.967500e+00 -4.967500e+00 -3.467500e+00
   endloop
 endfacet
 facet normal  0.000000e+00 -1.000000e+00  0.000000e+00
   outer loop
     vertex  4.032500e+00 -4.967500e+00 -3.032500e+00
     vertex  5.967500e+00 -4.967500e+00 -3.467500e+00
     vertex  5.967500e+00 -4.967500e+00 -3.032500e+00
   endloop
 endfacet
 facet normal  0.000000e+00  0.000000e+00 -1.000000e+00
   outer loop
     vertex  4.032500e+00 -4.967500e+00 -3.467500e+00
     vertex  5.967500e+00 -4.032500e+00 -3.467500e+00
     vertex  5.967500e+00 -4.967500e+00 -3.467500e+00
   endloop
 endfacet
 facet normal  0.000000e+00  0.000000e+00 -1.000000e+00
   outer loop
     vertex  4.032500e+00 -4.967500e+00 -3.467500e+00
     vertex  4.032500e+00 -4.032500e+00 -3.467500e+00
     vertex  5.967500e+00 -4.032500e+00 -3.467500e+00
   endloop
 endfacet
 facet normal  0.000000e+00  0.000000e+00  1.000000e+00
   outer loop
     vertex  4.032500e+00 -4.967500e+00 -3.032500e+00
     vertex  5.967500e+00 -4.967500e+00 -3.032500e+00
     vertex  5.967500e+00 -4.032500e+00 -3.032500e+00
   endloop
 endfacet
 facet normal  0.000000e+00  0.000000e+00  1.000000e+00
   outer loop
     vertex  4.032500e+00 -4.967500e+00 -3.032500e+00
     vertex  5.967500e+00 -4.032500e+00 -3.032500e+00
     vertex  4.032500e+00 -4.032500e+00 -3.032500e+00
   endloop
 endfacet
 facet normal  0.000000e+00 -1.000000e+00 -0.000000e+00
   outer loop
     vertex  5.967500e+00 -4.967500e+00 -3.532500e+00
     vertex  5.032500e+00 -4.967500e+00 -3.967500e+00
     vertex  5.967500e+00 -4.967500e+00 -3.967500e+00
   endloop
 endfacet
 facet normal -0.000000e+00 -1.000000e+00  0.000000e+00
   outer loop
     vertex  5.967500e+00 -4.967500e+00 -3.532500e+00
     vertex  5.032500e+00 -4.967500e+00 -3.532500e+00
     vertex  5.032500e+00 -4.967500e+00 -3.967500e+00
   endloop
 endfacet
 facet normal  4.749617e-16  1.000000e+00  0.000000e+00
   outer loop
     vertex  5.967500e+00 -3.032500e+00 -3.532500e+00
     vertex  5.967500e+00 -3.032500e+00 -3.967500e+00
     vertex  5.032500e+00 -3.032500e+00 -3.967500e+00
   endloop
 endfacet
 facet normal  4.749617e-16  1.000000e+00  0.000000e+00
   outer loop
     vertex  5.967500e+00 -3.032500e+00 -3.532500e+00
     vertex  5.032500e+00 -3.032500e+00 -3.967500e+00
     vertex  5.032500e+00 -3.032500e+00 -3.532500e+00
   endloop
 endfacet
 facet normal  1.000000e+00  0.000000e+00  0.000000e+00
   outer loop
     vertex  5.967500e+00 -3.032500e+00 -3.532500e+00
     vertex  5.967500e+00 -4.967500e+00 -3.967500e+00
     vertex  5.967500e+00 -3.032500e+00 -3.967500e+00
   endloop
 endfacet
 facet normal  1.000000e+00  0.000000e+00  0.000000e+00
   outer loop
     vertex  5.967500e+00 -3.032500e+00 -3.532500e+00
     vertex  5.967500e+00 -4.967500e+00 -3.532500e+00
     vertex  5.967500e+00 -4.967500e+00 -3.967500e+00
   endloop
 endfacet
 facet normal -1.000000e+00  0.000000e+00 -0.000000e+00
   outer loop
     vertex  5.032500e+00 -3.032500e+00 -3.532500e+00
     vertex  5.032500e+00 -3.032500e+00 -3.967500e+00
     vertex  5.032500e+00 -4.967500e+00 -3.967500e+00
   endloop
 endfacet
 facet normal -1.000000e+00 -0.000000e+00  0.000000e+00
   outer loop
     vertex  5.032500e+00 -3.032500e+00 -3.532500e+00
     vertex  5.032500e+00 -4.967500e+00 -3.967500e+00
     vertex  5.032500e+00 -4.967500e+00 -3.532500e+00
   endloop
 endfacet
 facet normal  0.000000e+00  0.000000e+00 -1.000000e+00
   outer loop
     vertex  5.032500e+00 -3.032500e+00 -3.967500e+00
     vertex  5.967500e+00 -4.967500e+00 -3.967500e+00
     vertex  5.032500e+00 -4.967500e+00 -3.967500e+00
   endloop
 endfacet
 facet normal  0.000000e+00  0.000000e+00 -1.000000e+00
   outer loop
     vertex  5.032500e+00 -3.032500e+00 -3.967500e+00
     vertex  5.967500e+00 -3.032500e+00 -3.967500e+00
     vertex  5.967500e+00 -4.967500e+00 -3.967500e+00
   endloop
 endfacet
 facet normal  0.000000e+00  0.000000e+00  1.000000e+00
   outer loop
     vertex  5.032500e+00 -3.032500e+00 -3.532500e+00
     vertex  5.032500e+00 -4.967500e+00 -3.532500e+00
     vertex  5.967500e+00 -4.967500e+00 -3.532500e+00
   endloop
 endfacet
 facet normal  0.000000e+00  0.000000e+00  1.000000e+00
   outer loop
     vertex  5.032500e+00 -3.032500e+00 -3.532500e+00
     vertex  5.967500e+00 -4.967500e+00 -3.532500e+00
     vertex  5.967500e+00 -3.032500e+00 -3.532500e+00
   endloop
 endfacet
 facet normal  0.000000e+00 -1.000000e+00 -0.000000e+00
   outer loop
     vertex  5.967500e+00 -4.967500e+00 -4.532500e+00
     vertex  5.032500e+00 -4.967500e+00 -4.967500e+00
     vertex  5.967500e+00 -4.967500e+00 -4.967500e+00
   endloop
 endfacet
 facet normal -0.000000e+00 -1.000000e+00  0.000000e+00
   outer loop
     vertex  5.967500e+00 -4.967500e+00 -4.532500e+00
     vertex  5.032500e+00 -4.967500e+00 -4.532500e+00
     vertex  5.032500e+00 -4.967500e+00 -4.967500e+00
   endloop
 endfacet
 facet normal  4.749617e-16  1.000000e+00  0.000000e+00
   outer loop
     vertex  5.967500e+00 -3.032500e+00 -4.532500e+00
     vertex  5.967500e+00 -3.032500e+00 -4.967500e+00
     vertex  5.032500e+00 -3.032500e+00 -4.967500e+00
   endloop
 endfacet
 facet normal  4.749617e-16  1.000000e+00  0.000000e+00
   outer loop
     vertex  5.967500e+00 -3.032500e+00 -4.532500e+00
     vertex  5.032500e+00 -3.032500e+00 -4.967500e+00
     vertex  5.032500e+00 -3.032500e+00 -4.532500e+00
   endloop
 endfacet
 facet normal  1.000000e+00  0.000000e+00  0.000000e+00
   outer loop
     vertex  5.967500e+00 -3.032500e+00 -4.532500e+00
     vertex  5.967500e+00 -4.967500e+00 -4.967500e+00
     vertex  5.967500e+00 -3.032500e+00 -4.967500e+00
   endloop
 endfacet
 facet normal  1.000000e+00  0.000000e+00  0.000000e+00
   outer loop
     vertex  5.967500e+00 -3.032500e+00 -4.532500e+00
     vertex  5.967500e+00 -4.967500e+00 -4.532500e+00
     vertex  5.967500e+00 -4.967500e+00 -4.967500e+00
   endloop
 endfacet
 facet normal -1.000000e+00  0.000000e+00 -0.000000e+00
   outer loop
     vertex  5.032500e+00 -3.032500e+00 -4.532500e+00
     vertex  5.032500e+00 -3.032500e+00 -4.967500e+00
     vertex  5.032500e+00 -4.967500e+00 -4.967500e+00
   endloop
 endfacet
 facet normal -1.000000e+00 -0.000000e+00  0.000000e+00
   outer loop
     vertex  5.032500e+00 -3.032500e+00 -4.532500e+00
     vertex  5.032500e+00 -4.967500e+00 -4.967500e+00
     vertex  5.032500e+00 -4.967500e+00 -4.532500e+00
   endloop
 endfacet
 facet normal  0.000000e+00  0.000000e+00 -1.000000e+00
   outer loop
     vertex  5.032500e+00 -3.032500e+00 -4.967500e+00
     vertex  5.967500e+00 -4.967500e+00 -4.967500e+00
     vertex  5.032500e+00 -4.967500e+00 -4.967500e+00
   endloop
 endfacet
 facet normal  0.000000e+00  0.000000e+00 -1.000000e+00
   outer loop
     vertex  5.032500e+00 -3.032500e+00 -4.967500e+00
     vertex  5.967500e+00 -3.032500e+00 -4.967500e+00
     vertex  5.967500e+00 -4.967500e+00 -4.967500e+00
   endloop
 endfacet
 facet normal  0.000000e+00  0.000000e+00  1.000000e+00
   outer loop
     vertex  5.032500e+00 -3.032500e+00 -4.532500e+00
     vertex  5.032500e+00 -4.967500e+00 -4.532500e+00
     vertex  5.967500e+00 -4.967500e+00 -4.532500e+00
   endloop
 endfacet
 facet normal  0.000000e+00  0.000000e+00  1.000000e+00
   outer loop
     vertex  5.032500e+00 -3.032500e+00 -4.532500e+00
     vertex  5.967500e+00 -4.967500e+00 -4.532500e+00
     vertex  5.967500e+00 -3.032500e+00 -4.532500e+00
   endloop
 endfacet
 facet normal  1.000000e+00  0.000000e+00  0.000000e+00
   outer loop
     vertex  5.967500e+00 -4.032500e+00 -4.032500e+00
     vertex  5.967500e+00 -4.967500e+00 -4.467500e+00
     vertex  5.967500e+00 -4.032500e+00 -4.467500e+00
   endloop
 endfacet
 facet normal  1.000000e+00  0.000000e+00  0.000000e+00
   outer loop
     vertex  5.967500e+00 -4.032500e+00 -4.032500e+00
     vertex  5.967500e+00 -4.967500e+00 -4.032500e+00
     vertex  5.967500e+00 -4.967500e+00 -4.467500e+00
   endloop
 endfacet
 facet normal -1.000000e+00  0.000000e+00 -0.000000e+00
   outer loop
     vertex  4.032500e+00 -4.032500e+00 -4.032500e+00
     vertex  4.032500e+00 -4.032500e+00 -4.467500e+00
     vertex  4.032500e+00 -4.967500e+00 -4.467500e+00
   endloop
 endfacet
 facet normal -1.000000e+00 -0.000000e+00  0.000000e+00
   outer loop
     vertex  4.032500e+00 -4.032500e+00 -4.032500e+00
     vertex  4.032500e+00 -4.967500e+00 -4.467500e+00
     vertex  4.032500e+00 -4.967500e+00 -4.032500e+00
   endloop
 endfacet
 facet normal  9.180139e-16  1.000000e+00  0.000000e+00
   outer loop
     vertex  4.032500e+00 -4.032500e+00 -4.032500e+00
     vertex  5.967500e+00 -4.032500e+00 -4.467500e+00
     vertex  4.032500e+00 -4.032500e+00 -4.467500e+00
   endloop
 endfacet
 facet normal  9.180139e-16  1.000000e+00  0.000000e+00
   outer loop
     vertex  4.032500e+00 -4.032500e+00 -4.032500e+00
     vertex  5.967500e+00 -4.032500e+00 -4.032500e+00
     vertex  5.967500e+00 -4.032500e+00 -4.467500e+00
   endloop
 endfacet
 facet normal  0.000000e+00 -1.000000e+00  0.000000e+00
   outer loop
     vertex  4.032500e+00 -4.967500e+00 -4.032500e+00
     vertex  4.032500e+00 -4.967500e+00 -4.467500e+00
     vertex  5.967500e+00 -4.967500e+00 -4.467500e+00
   endloop
 endfacet
 facet normal  0.000000e+00 -1.000000e+00  0.000000e+00
   outer loop
     vertex  4.032500e+00 -4.967500e+00 -4.032500e+00
     vertex  5.967500e+00 -4.967500e+00 -4.467500e+00
     vertex  5.967500e+00 -4.967500e+00 -4.032500e+00
   endloop
 endfacet
 facet normal  0.000000e+00  0.000000e+00 -1.000000e+00
   outer loop
     vertex  4.032500e+00 -4.967500e+00 -4.467500e+00
     vertex  5.967500e+00 -4.032500e+00 -4.467500e+00
     vertex  5.967500e+00 -4.967500e+00 -4.467500e+00
   endloop
 endfacet
 facet normal  0.000000e+00  0.000000e+00 -1.000000e+00
   outer loop
     vertex  4.032500e+00 -4.967500e+00 -4.467500e+00
     vertex  4.032500e+00 -4.032500e+00 -4.467500e+00
     vertex  5.967500e+00 -4.032500e+00 -4.467500e+00
   endloop
 endfacet
 facet normal  0.000000e+00  0.000000e+00  1.000000e+00
   outer loop
     vertex  4.032500e+00 -4.967500e+00 -4.032500e+00
     vertex  5.967500e+00 -4.967500e+00 -4.032500e+00
     vertex  5.967500e+00 -4.032500e+00 -4.032500e+00
   endloop
 endfacet
 facet normal  0.000000e+00  0.000000e+00  1.000000e+00
   outer loop
     vertex  4.032500e+00 -4.967500e+00 -4.032500e+00
     vertex  5.967500e+00 -4.032500e+00 -4.032500e+00
     vertex  4.032500e+00 -4.032500e+00 -4.032500e+00
   endloop
 endfacet
endsolid
