solid 
 facet normal -1.000000e+00  0.000000e+00  0.000000e+00
   outer loop
     vertex  2.000000e+00  0.000000e+00  9.500000e+00
     vertex  2.000000e+00  2.000000e+00  9.000000e+00
     vertex  2.000000e+00  0.000000e+00  9.000000e+00
   endloop
 endfacet
 facet normal -1.000000e+00  0.000000e+00  0.000000e+00
   outer loop
     vertex  2.000000e+00  0.000000e+00  9.500000e+00
     vertex  2.000000e+00  2.000000e+00  9.500000e+00
     vertex  2.000000e+00  2.000000e+00  9.000000e+00
   endloop
 endfacet
 facet normal  1.000000e+00  0.000000e+00  0.000000e+00
   outer loop
     vertex  3.000000e+00  0.000000e+00  9.500000e+00
     vertex  3.000000e+00  0.000000e+00  9.000000e+00
     vertex  3.000000e+00  2.000000e+00  9.000000e+00
   endloop
 endfacet
 facet normal  1.000000e+00 -0.000000e+00  0.000000e+00
   outer loop
     vertex  3.000000e+00  0.000000e+00  9.500000e+00
     vertex  3.000000e+00  2.000000e+00  9.000000e+00
     vertex  3.000000e+00  2.000000e+00  9.500000e+00
   endloop
 endfacet
 facet normal  0.000000e+00 -1.000000e+00 -0.000000e+00
   outer loop
     vertex  3.000000e+00  0.000000e+00  9.500000e+00
     vertex  2.000000e+00  0.000000e+00  9.000000e+00
     vertex  3.000000e+00  0.000000e+00  9.000000e+00
   endloop
 endfacet
 facet normal -0.000000e+00 -1.000000e+00  0.000000e+00
   outer loop
     vertex  3.000000e+00  0.000000e+00  9.500000e+00
     vertex  2.000000e+00  0.000000e+00  9.500000e+00
     vertex  2.000000e+00  0.000000e+00  9.000000e+00
   endloop
 endfacet
 facet normal  0.000000e+00  1.000000e+00  0.000000e+00
   outer loop
     vertex  3.000000e+00  2.000000e+00  9.500000e+00
     vertex  3.000000e+00  2.000000e+00  9.000000e+00
     vertex  2.000000e+00  2.000000e+00  9.000000e+00
   endloop
 endfacet
 facet normal  0.000000e+00  1.000000e+00  0.000000e+00
   outer loop
     vertex  3.000000e+00  2.000000e+00  9.500000e+00
     vertex  2.000000e+00  2.000000e+00  9.000000e+00
     vertex  2.000000e+00  2.000000e+00  9.500000e+00
   endloop
 endfacet
 facet normal -0.000000e+00  0.000000e+00 -1.000000e+00
   outer loop
     vertex  3.000000e+00  2.000000e+00  9.000000e+00
     vertex  2.000000e+00  0.000000e+00  9.000000e+00
     vertex  2.000000e+00  2.000000e+00  9.000000e+00
   endloop
 endfacet
 facet normal  0.000000e+00 -0.000000e+00 -1.000000e+00
   outer loop
     vertex  3.000000e+00  2.000000e+00  9.000000e+00
     vertex  3.000000e+00  0.000000e+00  9.000000e+00
     vertex  2.000000e+00  0.000000e+00  9.000000e+00
   endloop
 endfacet
 facet normal  0.000000e+00  0.000000e+00  1.000000e+00
   outer loop
     vertex  3.000000e+00  2.000000e+00  9.500000e+00
     vertex  2.000000e+00  2.000000e+00  9.500000e+00
     vertex  2.000000e+00  0.000000e+00  9.500000e+00
   endloop
 endfacet
 facet normal  0.000000e+00  0.000000e+00  1.000000e+00
   outer loop
     vertex  3.000000e+00  2.000000e+00  9.500000e+00
     vertex  2.000000e+00  0.000000e+00  9.500000e+00
     vertex  3.000000e+00  0.000000e+00  9.500000e+00
   endloop
 endfacet
 facet normal -1.000000e+00  0.000000e+00  0.000000e+00
   outer loop
     vertex  0.000000e+00  0.000000e+00  8.500000e+00
     vertex  0.000000e+00  2.000000e+00  8.000000e+00
     vertex  0.000000e+00  0.000000e+00  8.000000e+00
   endloop
 endfacet
 facet normal -1.000000e+00  0.000000e+00  0.000000e+00
   outer loop
     vertex  0.000000e+00  0.000000e+00  8.500000e+00
     vertex  0.000000e+00  2.000000e+00  8.500000e+00
     vertex  0.000000e+00  2.000000e+00  8.000000e+00
   endloop
 endfacet
 facet normal  1.000000e+00  0.000000e+00  0.000000e+00
   outer loop
     vertex  1.000000e+00  0.000000e+00  8.500000e+00
     vertex  1.000000e+00  0.000000e+00  8.000000e+00
     vertex  1.000000e+00  2.000000e+00  8.000000e+00
   endloop
 endfacet
 facet normal  1.000000e+00 -0.000000e+00  0.000000e+00
   outer loop
     vertex  1.000000e+00  0.000000e+00  8.500000e+00
     vertex  1.000000e+00  2.000000e+00  8.000000e+00
     vertex  1.000000e+00  2.000000e+00  8.500000e+00
   endloop
 endfacet
 facet normal  0.000000e+00 -1.000000e+00 -0.000000e+00
   outer loop
     vertex  1.000000e+00  0.000000e+00  8.500000e+00
     vertex  0.000000e+00  0.000000e+00  8.000000e+00
     vertex  1.000000e+00  0.000000e+00  8.000000e+00
   endloop
 endfacet
 facet normal -0.000000e+00 -1.000000e+00  0.000000e+00
   outer loop
     vertex  1.000000e+00  0.000000e+00  8.500000e+00
     vertex  0.000000e+00  0.000000e+00  8.500000e+00
     vertex  0.000000e+00  0.000000e+00  8.000000e+00
   endloop
 endfacet
 facet normal  0.000000e+00  1.000000e+00  0.000000e+00
   outer loop
     vertex  1.000000e+00  2.000000e+00  8.500000e+00
     vertex  1.000000e+00  2.000000e+00  8.000000e+00
     vertex  0.000000e+00  2.000000e+00  8.000000e+00
   endloop
 endfacet
 facet normal  0.000000e+00  1.000000e+00  0.000000e+00
   outer loop
     vertex  1.000000e+00  2.000000e+00  8.500000e+00
     vertex  0.000000e+00  2.000000e+00  8.000000e+00
     vertex  0.000000e+00  2.000000e+00  8.500000e+00
   endloop
 endfacet
 facet normal -0.000000e+00  0.000000e+00 -1.000000e+00
   outer loop
     vertex  1.000000e+00  2.000000e+00  8.000000e+00
     vertex  0.000000e+00  0.000000e+00  8.000000e+00
     vertex  0.000000e+00  2.000000e+00  8.000000e+00
   endloop
 endfacet
 facet normal  0.000000e+00 -0.000000e+00 -1.000000e+00
   outer loop
     vertex  1.000000e+00  2.000000e+00  8.000000e+00
     vertex  1.000000e+00  0.000000e+00  8.000000e+00
     vertex  0.000000e+00  0.000000e+00  8.000000e+00
   endloop
 endfacet
 facet normal  0.000000e+00  0.000000e+00  1.000000e+00
   outer loop
     vertex  1.000000e+00  2.000000e+00  8.500000e+00
     vertex  0.000000e+00  2.000000e+00  8.500000e+00
     vertex  0.000000e+00  0.000000e+00  8.500000e+00
   endloop
 endfacet
 facet normal  0.000000e+00  0.000000e+00  1.000000e+00
   outer loop
     vertex  1.000000e+00  2.000000e+00  8.500000e+00
     vertex  0.000000e+00  0.000000e+00  8.500000e+00
     vertex  1.000000e+00  0.000000e+00  8.500000e+00
   endloop
 endfacet
 facet normal -1.000000e+00  0.000000e+00  0.000000e+00
   outer loop
     vertex  2.000000e+00  0.000000e+00  7.500000e+00
     vertex  2.000000e+00  2.000000e+00  7.000000e+00
     vertex  2.000000e+00  0.000000e+00  7.000000e+00
   endloop
 endfacet
 facet normal -1.000000e+00  0.000000e+00  0.000000e+00
   outer loop
     vertex  2.000000e+00  0.000000e+00  7.500000e+00
     vertex  2.000000e+00  2.000000e+00  7.500000e+00
     vertex  2.000000e+00  2.000000e+00  7.000000e+00
   endloop
 endfacet
 facet normal  1.000000e+00  0.000000e+00  0.000000e+00
   outer loop
     vertex  3.000000e+00  0.000000e+00  7.500000e+00
     vertex  3.000000e+00  0.000000e+00  7.000000e+00
     vertex  3.000000e+00  2.000000e+00  7.000000e+00
   endloop
 endfacet
 facet normal  1.000000e+00 -0.000000e+00  0.000000e+00
   outer loop
     vertex  3.000000e+00  0.000000e+00  7.500000e+00
     vertex  3.000000e+00  2.000000e+00  7.000000e+00
     vertex  3.000000e+00  2.000000e+00  7.500000e+00
   endloop
 endfacet
 facet normal  0.000000e+00 -1.000000e+00 -0.000000e+00
   outer loop
     vertex  3.000000e+00  0.000000e+00  7.500000e+00
     vertex  2.000000e+00  0.000000e+00  7.000000e+00
     vertex  3.000000e+00  0.000000e+00  7.000000e+00
   endloop
 endfacet
 facet normal -0.000000e+00 -1.000000e+00  0.000000e+00
   outer loop
     vertex  3.000000e+00  0.000000e+00  7.500000e+00
     vertex  2.000000e+00  0.000000e+00  7.500000e+00
     vertex  2.000000e+00  0.000000e+00  7.000000e+00
   endloop
 endfacet
 facet normal  0.000000e+00  1.000000e+00  0.000000e+00
   outer loop
     vertex  3.000000e+00  2.000000e+00  7.500000e+00
     vertex  3.000000e+00  2.000000e+00  7.000000e+00
     vertex  2.000000e+00  2.000000e+00  7.000000e+00
   endloop
 endfacet
 facet normal  0.000000e+00  1.000000e+00  0.000000e+00
   outer loop
     vertex  3.000000e+00  2.000000e+00  7.500000e+00
     vertex  2.000000e+00  2.000000e+00  7.000000e+00
     vertex  2.000000e+00  2.000000e+00  7.500000e+00
   endloop
 endfacet
 facet normal -0.000000e+00  0.000000e+00 -1.000000e+00
   outer loop
     vertex  3.000000e+00  2.000000e+00  7.000000e+00
     vertex  2.000000e+00  0.000000e+00  7.000000e+00
     vertex  2.000000e+00  2.000000e+00  7.000000e+00
   endloop
 endfacet
 facet normal  0.000000e+00 -0.000000e+00 -1.000000e+00
   outer loop
     vertex  3.000000e+00  2.000000e+00  7.000000e+00
     vertex  3.000000e+00  0.000000e+00  7.000000e+00
     vertex  2.000000e+00  0.000000e+00  7.000000e+00
   endloop
 endfacet
 facet normal  0.000000e+00  0.000000e+00  1.000000e+00
   outer loop
     vertex  3.000000e+00  2.000000e+00  7.500000e+00
     vertex  2.000000e+00  2.000000e+00  7.500000e+00
     vertex  2.000000e+00  0.000000e+00  7.500000e+00
   endloop
 endfacet
 facet normal  0.000000e+00  0.000000e+00  1.000000e+00
   outer loop
     vertex  3.000000e+00  2.000000e+00  7.500000e+00
     vertex  2.000000e+00  0.000000e+00  7.500000e+00
     vertex  3.000000e+00  0.000000e+00  7.500000e+00
   endloop
 endfacet
 facet normal -1.000000e+00  0.000000e+00  0.000000e+00
   outer loop
     vertex  0.000000e+00  0.000000e+00  6.500000e+00
     vertex  0.000000e+00  2.000000e+00  6.000000e+00
     vertex  0.000000e+00  0.000000e+00  6.000000e+00
   endloop
 endfacet
 facet normal -1.000000e+00  0.000000e+00  0.000000e+00
   outer loop
     vertex  0.000000e+00  0.000000e+00  6.500000e+00
     vertex  0.000000e+00  2.000000e+00  6.500000e+00
     vertex  0.000000e+00  2.000000e+00  6.000000e+00
   endloop
 endfacet
 facet normal  1.000000e+00  0.000000e+00  0.000000e+00
   outer loop
     vertex  1.000000e+00  0.000000e+00  6.500000e+00
     vertex  1.000000e+00  0.000000e+00  6.000000e+00
     vertex  1.000000e+00  2.000000e+00  6.000000e+00
   endloop
 endfacet
 facet normal  1.000000e+00 -0.000000e+00  0.000000e+00
   outer loop
     vertex  1.000000e+00  0.000000e+00  6.500000e+00
     vertex  1.000000e+00  2.000000e+00  6.000000e+00
     vertex  1.000000e+00  2.000000e+00  6.500000e+00
   endloop
 endfacet
 facet normal  0.000000e+00 -1.000000e+00 -0.000000e+00
   outer loop
     vertex  1.000000e+00  0.000000e+00  6.500000e+00
     vertex  0.000000e+00  0.000000e+00  6.000000e+00
     vertex  1.000000e+00  0.000000e+00  6.000000e+00
   endloop
 endfacet
 facet normal -0.000000e+00 -1.000000e+00  0.000000e+00
   outer loop
     vertex  1.000000e+00  0.000000e+00  6.500000e+00
     vertex  0.000000e+00  0.000000e+00  6.500000e+00
     vertex  0.000000e+00  0.000000e+00  6.000000e+00
   endloop
 endfacet
 facet normal  0.000000e+00  1.000000e+00  0.000000e+00
   outer loop
     vertex  1.000000e+00  2.000000e+00  6.500000e+00
     vertex  1.000000e+00  2.000000e+00  6.000000e+00
     vertex  0.000000e+00  2.000000e+00  6.000000e+00
   endloop
 endfacet
 facet normal  0.000000e+00  1.000000e+00  0.000000e+00
   outer loop
     vertex  1.000000e+00  2.000000e+00  6.500000e+00
     vertex  0.000000e+00  2.000000e+00  6.000000e+00
     vertex  0.000000e+00  2.000000e+00  6.500000e+00
   endloop
 endfacet
 facet normal -0.000000e+00  0.000000e+00 -1.000000e+00
   outer loop
     vertex  1.000000e+00  2.000000e+00  6.000000e+00
     vertex  0.000000e+00  0.000000e+00  6.000000e+00
     vertex  0.000000e+00  2.000000e+00  6.000000e+00
   endloop
 endfacet
 facet normal  0.000000e+00 -0.000000e+00 -1.000000e+00
   outer loop
     vertex  1.000000e+00  2.000000e+00  6.000000e+00
     vertex  1.000000e+00  0.000000e+00  6.000000e+00
     vertex  0.000000e+00  0.000000e+00  6.000000e+00
   endloop
 endfacet
 facet normal  0.000000e+00  0.000000e+00  1.000000e+00
   outer loop
     vertex  1.000000e+00  2.000000e+00  6.500000e+00
     vertex  0.000000e+00  2.000000e+00  6.500000e+00
     vertex  0.000000e+00  0.000000e+00  6.500000e+00
   endloop
 endfacet
 facet normal  0.000000e+00  0.000000e+00  1.000000e+00
   outer loop
     vertex  1.000000e+00  2.000000e+00  6.500000e+00
     vertex  0.000000e+00  0.000000e+00  6.500000e+00
     vertex  1.000000e+00  0.000000e+00  6.500000e+00
   endloop
 endfacet
 facet normal -1.000000e+00  0.000000e+00  0.000000e+00
   outer loop
     vertex  2.000000e+00  0.000000e+00  5.500000e+00
     vertex  2.000000e+00  2.000000e+00  5.000000e+00
     vertex  2.000000e+00  0.000000e+00  5.000000e+00
   endloop
 endfacet
 facet normal -1.000000e+00  0.000000e+00  0.000000e+00
   outer loop
     vertex  2.000000e+00  0.000000e+00  5.500000e+00
     vertex  2.000000e+00  2.000000e+00  5.500000e+00
     vertex  2.000000e+00  2.000000e+00  5.000000e+00
   endloop
 endfacet
 facet normal  1.000000e+00  0.000000e+00  0.000000e+00
   outer loop
     vertex  3.000000e+00  0.000000e+00  5.500000e+00
     vertex  3.000000e+00  0.000000e+00  5.000000e+00
     vertex  3.000000e+00  2.000000e+00  5.000000e+00
   endloop
 endfacet
 facet normal  1.000000e+00 -0.000000e+00  0.000000e+00
   outer loop
     vertex  3.000000e+00  0.000000e+00  5.500000e+00
     vertex  3.000000e+00  2.000000e+00  5.000000e+00
     vertex  3.000000e+00  2.000000e+00  5.500000e+00
   endloop
 endfacet
 facet normal  0.000000e+00 -1.000000e+00 -0.000000e+00
   outer loop
     vertex  3.000000e+00  0.000000e+00  5.500000e+00
     vertex  2.000000e+00  0.000000e+00  5.000000e+00
     vertex  3.000000e+00  0.000000e+00  5.000000e+00
   endloop
 endfacet
 facet normal -0.000000e+00 -1.000000e+00  0.000000e+00
   outer loop
     vertex  3.000000e+00  0.000000e+00  5.500000e+00
     vertex  2.000000e+00  0.000000e+00  5.500000e+00
     vertex  2.000000e+00  0.000000e+00  5.000000e+00
   endloop
 endfacet
 facet normal  0.000000e+00  1.000000e+00  0.000000e+00
   outer loop
     vertex  3.000000e+00  2.000000e+00  5.500000e+00
     vertex  3.000000e+00  2.000000e+00  5.000000e+00
     vertex  2.000000e+00  2.000000e+00  5.000000e+00
   endloop
 endfacet
 facet normal  0.000000e+00  1.000000e+00  0.000000e+00
   outer loop
     vertex  3.000000e+00  2.000000e+00  5.500000e+00
     vertex  2.000000e+00  2.000000e+00  5.000000e+00
     vertex  2.000000e+00  2.000000e+00  5.500000e+00
   endloop
 endfacet
 facet normal -0.000000e+00  0.000000e+00 -1.000000e+00
   outer loop
     vertex  3.000000e+00  2.000000e+00  5.000000e+00
     vertex  2.000000e+00  0.000000e+00  5.000000e+00
     vertex  2.000000e+00  2.000000e+00  5.000000e+00
   endloop
 endfacet
 facet normal  0.000000e+00 -0.000000e+00 -1.000000e+00
   outer loop
     vertex  3.000000e+00  2.000000e+00  5.000000e+00
     vertex  3.000000e+00  0.000000e+00  5.000000e+00
     vertex  2.000000e+00  0.000000e+00  5.000000e+00
   endloop
 endfacet
 facet normal  0.000000e+00  0.000000e+00  1.000000e+00
   outer loop
     vertex  3.000000e+00  2.000000e+00  5.500000e+00
     vertex  2.000000e+00  2.000000e+00  5.500000e+00
     vertex  2.000000e+00  0.000000e+00  5.500000e+00
   endloop
 endfacet
 facet normal  0.000000e+00  0.000000e+00  1.000000e+00
   outer loop
     vertex  3.000000e+00  2.000000e+00  5.500000e+00
     vertex  2.000000e+00  0.000000e+00  5.500000e+00
     vertex  3.000000e+00  0.000000e+00  5.500000e+00
   endloop
 endfacet
 facet normal -1.000000e+00  0.000000e+00  0.000000e+00
   outer loop
     vertex  0.000000e+00  0.000000e+00  4.500000e+00
     vertex  0.000000e+00  2.000000e+00  4.000000e+00
     vertex  0.000000e+00  0.000000e+00  4.000000e+00
   endloop
 endfacet
 facet normal -1.000000e+00  0.000000e+00  0.000000e+00
   outer loop
     vertex  0.000000e+00  0.000000e+00  4.500000e+00
     vertex  0.000000e+00  2.000000e+00  4.500000e+00
     vertex  0.000000e+00  2.000000e+00  4.000000e+00
   endloop
 endfacet
 facet normal  1.000000e+00  0.000000e+00  0.000000e+00
   outer loop
     vertex  1.000000e+00  0.000000e+00  4.500000e+00
     vertex  1.000000e+00  0.000000e+00  4.000000e+00
     vertex  1.000000e+00  2.000000e+00  4.000000e+00
   endloop
 endfacet
 facet normal  1.000000e+00 -0.000000e+00  0.000000e+00
   outer loop
     vertex  1.000000e+00  0.000000e+00  4.500000e+00
     vertex  1.000000e+00  2.000000e+00  4.000000e+00
     vertex  1.000000e+00  2.000000e+00  4.500000e+00
   endloop
 endfacet
 facet normal  0.000000e+00 -1.000000e+00 -0.000000e+00
   outer loop
     vertex  1.000000e+00  0.000000e+00  4.500000e+00
     vertex  0.000000e+00  0.000000e+00  4.000000e+00
     vertex  1.000000e+00  0.000000e+00  4.000000e+00
   endloop
 endfacet
 facet normal -0.000000e+00 -1.000000e+00  0.000000e+00
   outer loop
     vertex  1.000000e+00  0.000000e+00  4.500000e+00
     vertex  0.000000e+00  0.000000e+00  4.500000e+00
     vertex  0.000000e+00  0.000000e+00  4.000000e+00
   endloop
 endfacet
 facet normal  0.000000e+00  1.000000e+00  0.000000e+00
   outer loop
     vertex  1.000000e+00  2.000000e+00  4.500000e+00
     vertex  1.000000e+00  2.000000e+00  4.000000e+00
     vertex  0.000000e+00  2.000000e+00  4.000000e+00
   endloop
 endfacet
 facet normal  0.000000e+00  1.000000e+00  0.000000e+00
   outer loop
     vertex  1.000000e+00  2.000000e+00  4.500000e+00
     vertex  0.000000e+00  2.000000e+00  4.000000e+00
     vertex  0.000000e+00  2.000000e+00  4.500000e+00
   endloop
 endfacet
 facet normal -0.000000e+00  0.000000e+00 -1.000000e+00
   outer loop
     vertex  1.000000e+00  2.000000e+00  4.000000e+00
     vertex  0.000000e+00  0.000000e+00  4.000000e+00
     vertex  0.000000e+00  2.000000e+00  4.000000e+00
   endloop
 endfacet
 facet normal  0.000000e+00 -0.000000e+00 -1.000000e+00
   outer loop
     vertex  1.000000e+00  2.000000e+00  4.000000e+00
     vertex  1.000000e+00  0.000000e+00  4.000000e+00
     vertex  0.000000e+00  0.000000e+00  4.000000e+00
   endloop
 endfacet
 facet normal  0.000000e+00  0.000000e+00  1.000000e+00
   outer loop
     vertex  1.000000e+00  2.000000e+00  4.500000e+00
     vertex  0.000000e+00  2.000000e+00  4.500000e+00
     vertex  0.000000e+00  0.000000e+00  4.500000e+00
   endloop
 endfacet
 facet normal  0.000000e+00  0.000000e+00  1.000000e+00
   outer loop
     vertex  1.000000e+00  2.000000e+00  4.500000e+00
     vertex  0.000000e+00  0.000000e+00  4.500000e+00
     vertex  1.000000e+00  0.000000e+00  4.500000e+00
   endloop
 endfacet
 facet normal -1.000000e+00  0.000000e+00  0.000000e+00
   outer loop
     vertex  2.000000e+00  0.000000e+00  3.500000e+00
     vertex  2.000000e+00  2.000000e+00  3.000000e+00
     vertex  2.000000e+00  0.000000e+00  3.000000e+00
   endloop
 endfacet
 facet normal -1.000000e+00  0.000000e+00  0.000000e+00
   outer loop
     vertex  2.000000e+00  0.000000e+00  3.500000e+00
     vertex  2.000000e+00  2.000000e+00  3.500000e+00
     vertex  2.000000e+00  2.000000e+00  3.000000e+00
   endloop
 endfacet
 facet normal  1.000000e+00  0.000000e+00  0.000000e+00
   outer loop
     vertex  3.000000e+00  0.000000e+00  3.500000e+00
     vertex  3.000000e+00  0.000000e+00  3.000000e+00
     vertex  3.000000e+00  2.000000e+00  3.000000e+00
   endloop
 endfacet
 facet normal  1.000000e+00 -0.000000e+00  0.000000e+00
   outer loop
     vertex  3.000000e+00  0.000000e+00  3.500000e+00
     vertex  3.000000e+00  2.000000e+00  3.000000e+00
     vertex  3.000000e+00  2.000000e+00  3.500000e+00
   endloop
 endfacet
 facet normal  0.000000e+00 -1.000000e+00 -0.000000e+00
   outer loop
     vertex  3.000000e+00  0.000000e+00  3.500000e+00
     vertex  2.000000e+00  0.000000e+00  3.000000e+00
     vertex  3.000000e+00  0.000000e+00  3.000000e+00
   endloop
 endfacet
 facet normal -0.000000e+00 -1.000000e+00  0.000000e+00
   outer loop
     vertex  3.000000e+00  0.000000e+00  3.500000e+00
     vertex  2.000000e+00  0.000000e+00  3.500000e+00
     vertex  2.000000e+00  0.000000e+00  3.000000e+00
   endloop
 endfacet
 facet normal  0.000000e+00  1.000000e+00  0.000000e+00
   outer loop
     vertex  3.000000e+00  2.000000e+00  3.500000e+00
     vertex  3.000000e+00  2.000000e+00  3.000000e+00
     vertex  2.000000e+00  2.000000e+00  3.000000e+00
   endloop
 endfacet
 facet normal  0.000000e+00  1.000000e+00  0.000000e+00
   outer loop
     vertex  3.000000e+00  2.000000e+00  3.500000e+00
     vertex  2.000000e+00  2.000000e+00  3.000000e+00
     vertex  2.000000e+00  2.000000e+00  3.500000e+00
   endloop
 endfacet
 facet normal -0.000000e+00  0.000000e+00 -1.000000e+00
   outer loop
     vertex  3.000000e+00  2.000000e+00  3.000000e+00
     vertex  2.000000e+00  0.000000e+00  3.000000e+00
     vertex  2.000000e+00  2.000000e+00  3.000000e+00
   endloop
 endfacet
 facet normal  0.000000e+00 -0.000000e+00 -1.000000e+00
   outer loop
     vertex  3.000000e+00  2.000000e+00  3.000000e+00
     vertex  3.000000e+00  0.000000e+00  3.000000e+00
     vertex  2.000000e+00  0.000000e+00  3.000000e+00
   endloop
 endfacet
 facet normal  0.000000e+00  0.000000e+00  1.000000e+00
   outer loop
     vertex  3.000000e+00  2.000000e+00  3.500000e+00
     vertex  2.000000e+00  2.000000e+00  3.500000e+00
     vertex  2.000000e+00  0.000000e+00  3.500000e+00
   endloop
 endfacet
 facet normal  0.000000e+00  0.000000e+00  1.000000e+00
   outer loop
     vertex  3.000000e+00  2.000000e+00  3.500000e+00
     vertex  2.000000e+00  0.000000e+00  3.500000e+00
     vertex  3.000000e+00  0.000000e+00  3.500000e+00
   endloop
 endfacet
 facet normal -1.000000e+00  0.000000e+00  0.000000e+00
   outer loop
     vertex  0.000000e+00  0.000000e+00  2.500000e+00
     vertex  0.000000e+00  2.000000e+00  2.000000e+00
     vertex  0.000000e+00  0.000000e+00  2.000000e+00
   endloop
 endfacet
 facet normal -1.000000e+00  0.000000e+00  0.000000e+00
   outer loop
     vertex  0.000000e+00  0.000000e+00  2.500000e+00
     vertex  0.000000e+00  2.000000e+00  2.500000e+00
     vertex  0.000000e+00  2.000000e+00  2.000000e+00
   endloop
 endfacet
 facet normal  1.000000e+00  0.000000e+00  0.000000e+00
   outer loop
     vertex  1.000000e+00  0.000000e+00  2.500000e+00
     vertex  1.000000e+00  0.000000e+00  2.000000e+00
     vertex  1.000000e+00  2.000000e+00  2.000000e+00
   endloop
 endfacet
 facet normal  1.000000e+00 -0.000000e+00  0.000000e+00
   outer loop
     vertex  1.000000e+00  0.000000e+00  2.500000e+00
     vertex  1.000000e+00  2.000000e+00  2.000000e+00
     vertex  1.000000e+00  2.000000e+00  2.500000e+00
   endloop
 endfacet
 facet normal  0.000000e+00 -1.000000e+00 -0.000000e+00
   outer loop
     vertex  1.000000e+00  0.000000e+00  2.500000e+00
     vertex  0.000000e+00  0.000000e+00  2.000000e+00
     vertex  1.000000e+00  0.000000e+00  2.000000e+00
   endloop
 endfacet
 facet normal -0.000000e+00 -1.000000e+00  0.000000e+00
   outer loop
     vertex  1.000000e+00  0.000000e+00  2.500000e+00
     vertex  0.000000e+00  0.000000e+00  2.500000e+00
     vertex  0.000000e+00  0.000000e+00  2.000000e+00
   endloop
 endfacet
 facet normal  0.000000e+00  1.000000e+00  0.000000e+00
   outer loop
     vertex  1.000000e+00  2.000000e+00  2.500000e+00
     vertex  1.000000e+00  2.000000e+00  2.000000e+00
     vertex  0.000000e+00  2.000000e+00  2.000000e+00
   endloop
 endfacet
 facet normal  0.000000e+00  1.000000e+00  0.000000e+00
   outer loop
     vertex  1.000000e+00  2.000000e+00  2.500000e+00
     vertex  0.000000e+00  2.000000e+00  2.000000e+00
     vertex  0.000000e+00  2.000000e+00  2.500000e+00
   endloop
 endfacet
 facet normal -0.000000e+00  0.000000e+00 -1.000000e+00
   outer loop
     vertex  1.000000e+00  2.000000e+00  2.000000e+00
     vertex  0.000000e+00  0.000000e+00  2.000000e+00
     vertex  0.000000e+00  2.000000e+00  2.000000e+00
   endloop
 endfacet
 facet normal  0.000000e+00 -0.000000e+00 -1.000000e+00
   outer loop
     vertex  1.000000e+00  2.000000e+00  2.000000e+00
     vertex  1.000000e+00  0.000000e+00  2.000000e+00
     vertex  0.000000e+00  0.000000e+00  2.000000e+00
   endloop
 endfacet
 facet normal  0.000000e+00  0.000000e+00  1.000000e+00
   outer loop
     vertex  1.000000e+00  2.000000e+00  2.500000e+00
     vertex  0.000000e+00  2.000000e+00  2.500000e+00
     vertex  0.000000e+00  0.000000e+00  2.500000e+00
   endloop
 endfacet
 facet normal  0.000000e+00  0.000000e+00  1.000000e+00
   outer loop
     vertex  1.000000e+00  2.000000e+00  2.500000e+00
     vertex  0.000000e+00  0.000000e+00  2.500000e+00
     vertex  1.000000e+00  0.000000e+00  2.500000e+00
   endloop
 endfacet
 facet normal -1.000000e+00  0.000000e+00  0.000000e+00
   outer loop
     vertex  0.000000e+00  0.000000e+00  5.000000e-01
     vertex  0.000000e+00  2.000000e+00  0.000000e+00
     vertex  0.000000e+00  0.000000e+00  0.000000e+00
   endloop
 endfacet
 facet normal -1.000000e+00  0.000000e+00  0.000000e+00
   outer loop
     vertex  0.000000e+00  0.000000e+00  5.000000e-01
     vertex  0.000000e+00  2.000000e+00  5.000000e-01
     vertex  0.000000e+00  2.000000e+00  0.000000e+00
   endloop
 endfacet
 facet normal  1.000000e+00  0.000000e+00  0.000000e+00
   outer loop
     vertex  1.000000e+00  0.000000e+00  5.000000e-01
     vertex  1.000000e+00  0.000000e+00  0.000000e+00
     vertex  1.000000e+00  2.000000e+00  0.000000e+00
   endloop
 endfacet
 facet normal  1.000000e+00 -0.000000e+00  0.000000e+00
   outer loop
     vertex  1.000000e+00  0.000000e+00  5.000000e-01
     vertex  1.000000e+00  2.000000e+00  0.000000e+00
     vertex  1.000000e+00  2.000000e+00  5.000000e-01
   endloop
 endfacet
 facet normal  0.000000e+00 -1.000000e+00 -0.000000e+00
   outer loop
     vertex  1.000000e+00  0.000000e+00  5.000000e-01
     vertex  0.000000e+00  0.000000e+00  0.000000e+00
     vertex  1.000000e+00  0.000000e+00  0.000000e+00
   endloop
 endfacet
 facet normal -0.000000e+00 -1.000000e+00  0.000000e+00
   outer loop
     vertex  1.000000e+00  0.000000e+00  5.000000e-01
     vertex  0.000000e+00  0.000000e+00  5.000000e-01
     vertex  0.000000e+00  0.000000e+00  0.000000e+00
   endloop
 endfacet
 facet normal  0.000000e+00  1.000000e+00  0.000000e+00
   outer loop
     vertex  1.000000e+00  2.000000e+00  5.000000e-01
     vertex  1.000000e+00  2.000000e+00  0.000000e+00
     vertex  0.000000e+00  2.000000e+00  0.000000e+00
   endloop
 endfacet
 facet normal  0.000000e+00  1.000000e+00  0.000000e+00
   outer loop
     vertex  1.000000e+00  2.000000e+00  5.000000e-01
     vertex  0.000000e+00  2.000000e+00  0.000000e+00
     vertex  0.000000e+00  2.000000e+00  5.000000e-01
   endloop
 endfacet
 facet normal -0.000000e+00  0.000000e+00 -1.000000e+00
   outer loop
     vertex  1.000000e+00  2.000000e+00  0.000000e+00
     vertex  0.000000e+00  0.000000e+00  0.000000e+00
     vertex  0.000000e+00  2.000000e+00  0.000000e+00
   endloop
 endfacet
 facet normal  0.000000e+00 -0.000000e+00 -1.000000e+00
   outer loop
     vertex  1.000000e+00  2.000000e+00  0.000000e+00
     vertex  1.000000e+00  0.000000e+00  0.000000e+00
     vertex  0.000000e+00  0.000000e+00  0.000000e+00
   endloop
 endfacet
 facet normal  0.000000e+00  0.000000e+00  1.000000e+00
   outer loop
     vertex  1.000000e+00  2.000000e+00  5.000000e-01
     vertex  0.000000e+00  2.000000e+00  5.000000e-01
     vertex  0.000000e+00  0.000000e+00  5.000000e-01
   endloop
 endfacet
 facet normal  0.000000e+00  0.000000e+00  1.000000e+00
   outer loop
     vertex  1.000000e+00  2.000000e+00  5.000000e-01
     vertex  0.000000e+00  0.000000e+00  5.000000e-01
     vertex  1.000000e+00  0.000000e+00  5.000000e-01
   endloop
 endfacet
 facet normal -1.000000e+00  0.000000e+00  0.000000e+00
   outer loop
     vertex  2.000000e+00  0.000000e+00  1.500000e+00
     vertex  2.000000e+00  2.000000e+00  1.000000e+00
     vertex  2.000000e+00  0.000000e+00  1.000000e+00
   endloop
 endfacet
 facet normal -1.000000e+00  0.000000e+00  0.000000e+00
   outer loop
     vertex  2.000000e+00  0.000000e+00  1.500000e+00
     vertex  2.000000e+00  2.000000e+00  1.500000e+00
     vertex  2.000000e+00  2.000000e+00  1.000000e+00
   endloop
 endfacet
 facet normal  1.000000e+00  0.000000e+00  0.000000e+00
   outer loop
     vertex  3.000000e+00  0.000000e+00  1.500000e+00
     vertex  3.000000e+00  0.000000e+00  1.000000e+00
     vertex  3.000000e+00  2.000000e+00  1.000000e+00
   endloop
 endfacet
 facet normal  1.000000e+00 -0.000000e+00  0.000000e+00
   outer loop
     vertex  3.000000e+00  0.000000e+00  1.500000e+00
     vertex  3.000000e+00  2.000000e+00  1.000000e+00
     vertex  3.000000e+00  2.000000e+00  1.500000e+00
   endloop
 endfacet
 facet normal  0.000000e+00 -1.000000e+00 -0.000000e+00
   outer loop
     vertex  3.000000e+00  0.000000e+00  1.500000e+00
     vertex  2.000000e+00  0.000000e+00  1.000000e+00
     vertex  3.000000e+00  0.000000e+00  1.000000e+00
   endloop
 endfacet
 facet normal -0.000000e+00 -1.000000e+00  0.000000e+00
   outer loop
     vertex  3.000000e+00  0.000000e+00  1.500000e+00
     vertex  2.000000e+00  0.000000e+00  1.500000e+00
     vertex  2.000000e+00  0.000000e+00  1.000000e+00
   endloop
 endfacet
 facet normal  0.000000e+00  1.000000e+00  0.000000e+00
   outer loop
     vertex  3.000000e+00  2.000000e+00  1.500000e+00
     vertex  3.000000e+00  2.000000e+00  1.000000e+00
     vertex  2.000000e+00  2.000000e+00  1.000000e+00
   endloop
 endfacet
 facet normal  0.000000e+00  1.000000e+00  0.000000e+00
   outer loop
     vertex  3.000000e+00  2.000000e+00  1.500000e+00
     vertex  2.000000e+00  2.000000e+00  1.000000e+00
     vertex  2.000000e+00  2.000000e+00  1.500000e+00
   endloop
 endfacet
 facet normal -0.000000e+00  0.000000e+00 -1.000000e+00
   outer loop
     vertex  3.000000e+00  2.000000e+00  1.000000e+00
     vertex  2.000000e+00  0.000000e+00  1.000000e+00
     vertex  2.000000e+00  2.000000e+00  1.000000e+00
   endloop
 endfacet
 facet normal  0.000000e+00 -0.000000e+00 -1.000000e+00
   outer loop
     vertex  3.000000e+00  2.000000e+00  1.000000e+00
     vertex  3.000000e+00  0.000000e+00  1.000000e+00
     vertex  2.000000e+00  0.000000e+00  1.000000e+00
   endloop
 endfacet
 facet normal  0.000000e+00  0.000000e+00  1.000000e+00
   outer loop
     vertex  3.000000e+00  2.000000e+00  1.500000e+00
     vertex  2.000000e+00  2.000000e+00  1.500000e+00
     vertex  2.000000e+00  0.000000e+00  1.500000e+00
   endloop
 endfacet
 facet normal  0.000000e+00  0.000000e+00  1.000000e+00
   outer loop
     vertex  3.000000e+00  2.000000e+00  1.500000e+00
     vertex  2.000000e+00  0.000000e+00  1.500000e+00
     vertex  3.000000e+00  0.000000e+00  1.500000e+00
   endloop
 endfacet
endsolid
