solid 
 facet normal  0.000000e+00 -1.000000e+00 -0.000000e+00
   outer loop
     vertex  1.933333e-01  5.006667e+00  1.133333e-01
     vertex  6.666667e-03  5.006667e+00  6.666667e-03
     vertex  1.933333e-01  5.006667e+00  6.666667e-03
   endloop
 endfacet
 facet normal -0.000000e+00 -1.000000e+00  0.000000e+00
   outer loop
     vertex  1.933333e-01  5.006667e+00  1.133333e-01
     vertex  6.666667e-03  5.006667e+00  1.133333e-01
     vertex  6.666667e-03  5.006667e+00  6.666667e-03
   endloop
 endfacet
 facet normal  1.000000e+00 -1.936436e-16  0.000000e+00
   outer loop
     vertex  1.933333e-01  5.293333e+00  1.133333e-01
     vertex  1.933333e-01  5.006667e+00  6.666667e-03
     vertex  1.933333e-01  5.293333e+00  6.666667e-03
   endloop
 endfacet
 facet normal  1.000000e+00 -1.936436e-16  0.000000e+00
   outer loop
     vertex  1.933333e-01  5.293333e+00  1.133333e-01
     vertex  1.933333e-01  5.006667e+00  1.133333e-01
     vertex  1.933333e-01  5.006667e+00  6.666667e-03
   endloop
 endfacet
 facet normal  0.000000e+00  0.000000e+00  1.000000e+00
   outer loop
     vertex  6.666667e-03  5.293333e+00  1.133333e-01
     vertex  6.666667e-03  5.006667e+00  1.133333e-01
     vertex  1.933333e-01  5.006667e+00  1.133333e-01
   endloop
 endfacet
 facet normal -0.000000e+00  0.000000e+00  1.000000e+00
   outer loop
     vertex  6.666667e-03  5.293333e+00  1.133333e-01
     vertex  1.933333e-01  5.006667e+00  1.133333e-01
     vertex  1.933333e-01  5.293333e+00  1.133333e-01
   endloop
 endfacet
 facet normal -1.000000e+00  1.936436e-16  0.000000e+00
   outer loop
     vertex  6.666667e-03  5.293333e+00  1.133333e-01
     vertex  6.666667e-03  5.293333e+00  6.666667e-03
     vertex  6.666667e-03  5.006667e+00  6.666667e-03
   endloop
 endfacet
 facet normal -1.000000e+00  1.936436e-16  0.000000e+00
   outer loop
     vertex  6.666667e-03  5.293333e+00  1.133333e-01
     vertex  6.666667e-03  5.006667e+00  6.666667e-03
     vertex  6.666667e-03  5.006667e+00  1.133333e-01
   endloop
 endfacet
 facet normal  0.000000e+00 -0.000000e+00 -1.000000e+00
   outer loop
     vertex  6.666667e-03  5.293333e+00  6.666667e-03
     vertex  1.933333e-01  5.006667e+00  6.666667e-03
     vertex  6.666667e-03  5.006667e+00  6.666667e-03
   endloop
 endfacet
 facet normal  0.000000e+00  0.000000e+00 -1.000000e+00
   outer loop
     vertex  6.666667e-03  5.293333e+00  6.666667e-03
     vertex  1.933333e-01  5.293333e+00  6.666667e-03
     vertex  1.933333e-01  5.006667e+00  6.666667e-03
   endloop
 endfacet
 facet normal  0.000000e+00  1.000000e+00  0.000000e+00
   outer loop
     vertex  1.933333e-01  5.293333e+00  1.133333e-01
     vertex  1.933333e-01  5.293333e+00  6.666667e-03
     vertex  6.666667e-03  5.293333e+00  6.666667e-03
   endloop
 endfacet
 facet normal  0.000000e+00  1.000000e+00  0.000000e+00
   outer loop
     vertex  1.933333e-01  5.293333e+00  1.133333e-01
     vertex  6.666667e-03  5.293333e+00  6.666667e-03
     vertex  6.666667e-03  5.293333e+00  1.133333e-01
   endloop
 endfacet
 facet normal  0.000000e+00 -1.000000e+00 -0.000000e+00
   outer loop
     vertex  3.933333e-01  5.006667e+00  1.133333e-01
     vertex  2.066667e-01  5.006667e+00  6.666667e-03
     vertex  3.933333e-01  5.006667e+00  6.666667e-03
   endloop
 endfacet
 facet normal -0.000000e+00 -1.000000e+00  0.000000e+00
   outer loop
     vertex  3.933333e-01  5.006667e+00  1.133333e-01
     vertex  2.066667e-01  5.006667e+00  1.133333e-01
     vertex  2.066667e-01  5.006667e+00  6.666667e-03
   endloop
 endfacet
 facet normal  1.000000e+00 -1.936436e-16  0.000000e+00
   outer loop
     vertex  3.933333e-01  5.293333e+00  1.133333e-01
     vertex  3.933333e-01  5.006667e+00  6.666667e-03
     vertex  3.933333e-01  5.293333e+00  6.666667e-03
   endloop
 endfacet
 facet normal  1.000000e+00 -1.936436e-16  0.000000e+00
   outer loop
     vertex  3.933333e-01  5.293333e+00  1.133333e-01
     vertex  3.933333e-01  5.006667e+00  1.133333e-01
     vertex  3.933333e-01  5.006667e+00  6.666667e-03
   endloop
 endfacet
 facet normal  0.000000e+00  0.000000e+00  1.000000e+00
   outer loop
     vertex  2.066667e-01  5.293333e+00  1.133333e-01
     vertex  2.066667e-01  5.006667e+00  1.133333e-01
     vertex  3.933333e-01  5.006667e+00  1.133333e-01
   endloop
 endfacet
 facet normal -0.000000e+00  0.000000e+00  1.000000e+00
   outer loop
     vertex  2.066667e-01  5.293333e+00  1.133333e-01
     vertex  3.933333e-01  5.006667e+00  1.133333e-01
     vertex  3.933333e-01  5.293333e+00  1.133333e-01
   endloop
 endfacet
 facet normal -1.000000e+00  1.936436e-16  0.000000e+00
   outer loop
     vertex  2.066667e-01  5.293333e+00  1.133333e-01
     vertex  2.066667e-01  5.293333e+00  6.666667e-03
     vertex  2.066667e-01  5.006667e+00  6.666667e-03
   endloop
 endfacet
 facet normal -1.000000e+00  1.936436e-16  0.000000e+00
   outer loop
     vertex  2.066667e-01  5.293333e+00  1.133333e-01
     vertex  2.066667e-01  5.006667e+00  6.666667e-03
     vertex  2.066667e-01  5.006667e+00  1.133333e-01
   endloop
 endfacet
 facet normal  0.000000e+00 -0.000000e+00 -1.000000e+00
   outer loop
     vertex  2.066667e-01  5.293333e+00  6.666667e-03
     vertex  3.933333e-01  5.006667e+00  6.666667e-03
     vertex  2.066667e-01  5.006667e+00  6.666667e-03
   endloop
 endfacet
 facet normal  0.000000e+00  0.000000e+00 -1.000000e+00
   outer loop
     vertex  2.066667e-01  5.293333e+00  6.666667e-03
     vertex  3.933333e-01  5.293333e+00  6.666667e-03
     vertex  3.933333e-01  5.006667e+00  6.666667e-03
   endloop
 endfacet
 facet normal  0.000000e+00  1.000000e+00  0.000000e+00
   outer loop
     vertex  3.933333e-01  5.293333e+00  1.133333e-01
     vertex  3.933333e-01  5.293333e+00  6.666667e-03
     vertex  2.066667e-01  5.293333e+00  6.666667e-03
   endloop
 endfacet
 facet normal  0.000000e+00  1.000000e+00  0.000000e+00
   outer loop
     vertex  3.933333e-01  5.293333e+00  1.133333e-01
     vertex  2.066667e-01  5.293333e+00  6.666667e-03
     vertex  2.066667e-01  5.293333e+00  1.133333e-01
   endloop
 endfacet
 facet normal -1.000000e+00  2.183893e-16  0.000000e+00
   outer loop
     vertex  6.666667e-03  5.006667e+00  2.333333e-01
     vertex  6.666667e-03  5.193333e+00  1.266667e-01
     vertex  6.666667e-03  5.006667e+00  1.266667e-01
   endloop
 endfacet
 facet normal -1.000000e+00  2.183893e-16  0.000000e+00
   outer loop
     vertex  6.666667e-03  5.006667e+00  2.333333e-01
     vertex  6.666667e-03  5.193333e+00  2.333333e-01
     vertex  6.666667e-03  5.193333e+00  1.266667e-01
   endloop
 endfacet
 facet normal  0.000000e+00 -1.000000e+00 -0.000000e+00
   outer loop
     vertex  2.933333e-01  5.006667e+00  2.333333e-01
     vertex  6.666667e-03  5.006667e+00  1.266667e-01
     vertex  2.933333e-01  5.006667e+00  1.266667e-01
   endloop
 endfacet
 facet normal -0.000000e+00 -1.000000e+00  0.000000e+00
   outer loop
     vertex  2.933333e-01  5.006667e+00  2.333333e-01
     vertex  6.666667e-03  5.006667e+00  2.333333e-01
     vertex  6.666667e-03  5.006667e+00  1.266667e-01
   endloop
 endfacet
 facet normal  0.000000e+00  0.000000e+00  1.000000e+00
   outer loop
     vertex  2.933333e-01  5.193333e+00  2.333333e-01
     vertex  6.666667e-03  5.193333e+00  2.333333e-01
     vertex  6.666667e-03  5.006667e+00  2.333333e-01
   endloop
 endfacet
 facet normal  0.000000e+00  0.000000e+00  1.000000e+00
   outer loop
     vertex  2.933333e-01  5.193333e+00  2.333333e-01
     vertex  6.666667e-03  5.006667e+00  2.333333e-01
     vertex  2.933333e-01  5.006667e+00  2.333333e-01
   endloop
 endfacet
 facet normal  0.000000e+00  1.000000e+00  0.000000e+00
   outer loop
     vertex  2.933333e-01  5.193333e+00  2.333333e-01
     vertex  2.933333e-01  5.193333e+00  1.266667e-01
     vertex  6.666667e-03  5.193333e+00  1.266667e-01
   endloop
 endfacet
 facet normal  0.000000e+00  1.000000e+00  0.000000e+00
   outer loop
     vertex  2.933333e-01  5.193333e+00  2.333333e-01
     vertex  6.666667e-03  5.193333e+00  1.266667e-01
     vertex  6.666667e-03  5.193333e+00  2.333333e-01
   endloop
 endfacet
 facet normal -0.000000e+00  0.000000e+00 -1.000000e+00
   outer loop
     vertex  2.933333e-01  5.193333e+00  1.266667e-01
     vertex  6.666667e-03  5.006667e+00  1.266667e-01
     vertex  6.666667e-03  5.193333e+00  1.266667e-01
   endloop
 endfacet
 facet normal  0.000000e+00  0.000000e+00 -1.000000e+00
   outer loop
     vertex  2.933333e-01  5.193333e+00  1.266667e-01
     vertex  2.933333e-01  5.006667e+00  1.266667e-01
     vertex  6.666667e-03  5.006667e+00  1.266667e-01
   endloop
 endfacet
 facet normal  1.000000e+00 -2.973812e-16  0.000000e+00
   outer loop
     vertex  2.933333e-01  5.006667e+00  2.333333e-01
     vertex  2.933333e-01  5.006667e+00  1.266667e-01
     vertex  2.933333e-01  5.193333e+00  1.266667e-01
   endloop
 endfacet
 facet normal  1.000000e+00 -2.973812e-16  0.000000e+00
   outer loop
     vertex  2.933333e-01  5.006667e+00  2.333333e-01
     vertex  2.933333e-01  5.193333e+00  1.266667e-01
     vertex  2.933333e-01  5.193333e+00  2.333333e-01
   endloop
 endfacet
 facet normal -1.000000e+00  2.137427e-16  0.000000e+00
   outer loop
     vertex  6.666667e-03  5.206667e+00  2.333333e-01
     vertex  6.666667e-03  5.393333e+00  1.266667e-01
     vertex  6.666667e-03  5.206667e+00  1.266667e-01
   endloop
 endfacet
 facet normal -1.000000e+00  2.137427e-16  0.000000e+00
   outer loop
     vertex  6.666667e-03  5.206667e+00  2.333333e-01
     vertex  6.666667e-03  5.393333e+00  2.333333e-01
     vertex  6.666667e-03  5.393333e+00  1.266667e-01
   endloop
 endfacet
 facet normal  0.000000e+00 -1.000000e+00 -0.000000e+00
   outer loop
     vertex  2.933333e-01  5.206667e+00  2.333333e-01
     vertex  6.666667e-03  5.206667e+00  1.266667e-01
     vertex  2.933333e-01  5.206667e+00  1.266667e-01
   endloop
 endfacet
 facet normal -0.000000e+00 -1.000000e+00  0.000000e+00
   outer loop
     vertex  2.933333e-01  5.206667e+00  2.333333e-01
     vertex  6.666667e-03  5.206667e+00  2.333333e-01
     vertex  6.666667e-03  5.206667e+00  1.266667e-01
   endloop
 endfacet
 facet normal  0.000000e+00  0.000000e+00  1.000000e+00
   outer loop
     vertex  2.933333e-01  5.393333e+00  2.333333e-01
     vertex  6.666667e-03  5.393333e+00  2.333333e-01
     vertex  6.666667e-03  5.206667e+00  2.333333e-01
   endloop
 endfacet
 facet normal  0.000000e+00  0.000000e+00  1.000000e+00
   outer loop
     vertex  2.933333e-01  5.393333e+00  2.333333e-01
     vertex  6.666667e-03  5.206667e+00  2.333333e-01
     vertex  2.933333e-01  5.206667e+00  2.333333e-01
   endloop
 endfacet
 facet normal  0.000000e+00  1.000000e+00  0.000000e+00
   outer loop
     vertex  2.933333e-01  5.393333e+00  2.333333e-01
     vertex  2.933333e-01  5.393333e+00  1.266667e-01
     vertex  6.666667e-03  5.393333e+00  1.266667e-01
   endloop
 endfacet
 facet normal  0.000000e+00  1.000000e+00  0.000000e+00
   outer loop
     vertex  2.933333e-01  5.393333e+00  2.333333e-01
     vertex  6.666667e-03  5.393333e+00  1.266667e-01
     vertex  6.666667e-03  5.393333e+00  2.333333e-01
   endloop
 endfacet
 facet normal -0.000000e+00  0.000000e+00 -1.000000e+00
   outer loop
     vertex  2.933333e-01  5.393333e+00  1.266667e-01
     vertex  6.666667e-03  5.206667e+00  1.266667e-01
     vertex  6.666667e-03  5.393333e+00  1.266667e-01
   endloop
 endfacet
 facet normal  0.000000e+00  0.000000e+00 -1.000000e+00
   outer loop
     vertex  2.933333e-01  5.393333e+00  1.266667e-01
     vertex  2.933333e-01  5.206667e+00  1.266667e-01
     vertex  6.666667e-03  5.206667e+00  1.266667e-01
   endloop
 endfacet
 facet normal  1.000000e+00 -2.973812e-16  0.000000e+00
   outer loop
     vertex  2.933333e-01  5.206667e+00  2.333333e-01
     vertex  2.933333e-01  5.206667e+00  1.266667e-01
     vertex  2.933333e-01  5.393333e+00  1.266667e-01
   endloop
 endfacet
 facet normal  1.000000e+00 -2.973812e-16  0.000000e+00
   outer loop
     vertex  2.933333e-01  5.206667e+00  2.333333e-01
     vertex  2.933333e-01  5.393333e+00  1.266667e-01
     vertex  2.933333e-01  5.393333e+00  2.333333e-01
   endloop
 endfacet
 facet normal  0.000000e+00 -1.000000e+00 -0.000000e+00
   outer loop
     vertex  5.933333e-01  5.006667e+00  1.133333e-01
     vertex  4.066667e-01  5.006667e+00  6.666667e-03
     vertex  5.933333e-01  5.006667e+00  6.666667e-03
   endloop
 endfacet
 facet normal -0.000000e+00 -1.000000e+00  0.000000e+00
   outer loop
     vertex  5.933333e-01  5.006667e+00  1.133333e-01
     vertex  4.066667e-01  5.006667e+00  1.133333e-01
     vertex  4.066667e-01  5.006667e+00  6.666667e-03
   endloop
 endfacet
 facet normal  1.000000e+00  0.000000e+00  0.000000e+00
   outer loop
     vertex  5.933333e-01  5.393333e+00  1.133333e-01
     vertex  5.933333e-01  5.006667e+00  6.666667e-03
     vertex  5.933333e-01  5.393333e+00  6.666667e-03
   endloop
 endfacet
 facet normal  1.000000e+00  0.000000e+00  0.000000e+00
   outer loop
     vertex  5.933333e-01  5.393333e+00  1.133333e-01
     vertex  5.933333e-01  5.006667e+00  1.133333e-01
     vertex  5.933333e-01  5.006667e+00  6.666667e-03
   endloop
 endfacet
 facet normal  0.000000e+00  0.000000e+00  1.000000e+00
   outer loop
     vertex  4.066667e-01  5.393333e+00  1.133333e-01
     vertex  4.066667e-01  5.006667e+00  1.133333e-01
     vertex  5.933333e-01  5.006667e+00  1.133333e-01
   endloop
 endfacet
 facet normal -0.000000e+00  0.000000e+00  1.000000e+00
   outer loop
     vertex  4.066667e-01  5.393333e+00  1.133333e-01
     vertex  5.933333e-01  5.006667e+00  1.133333e-01
     vertex  5.933333e-01  5.393333e+00  1.133333e-01
   endloop
 endfacet
 facet normal -1.000000e+00  0.000000e+00 -0.000000e+00
   outer loop
     vertex  4.066667e-01  5.393333e+00  1.133333e-01
     vertex  4.066667e-01  5.393333e+00  6.666667e-03
     vertex  4.066667e-01  5.006667e+00  6.666667e-03
   endloop
 endfacet
 facet normal -1.000000e+00 -0.000000e+00  0.000000e+00
   outer loop
     vertex  4.066667e-01  5.393333e+00  1.133333e-01
     vertex  4.066667e-01  5.006667e+00  6.666667e-03
     vertex  4.066667e-01  5.006667e+00  1.133333e-01
   endloop
 endfacet
 facet normal  0.000000e+00  0.000000e+00 -1.000000e+00
   outer loop
     vertex  4.066667e-01  5.393333e+00  6.666667e-03
     vertex  5.933333e-01  5.006667e+00  6.666667e-03
     vertex  4.066667e-01  5.006667e+00  6.666667e-03
   endloop
 endfacet
 facet normal  0.000000e+00  0.000000e+00 -1.000000e+00
   outer loop
     vertex  4.066667e-01  5.393333e+00  6.666667e-03
     vertex  5.933333e-01  5.393333e+00  6.666667e-03
     vertex  5.933333e-01  5.006667e+00  6.666667e-03
   endloop
 endfacet
 facet normal  0.000000e+00  1.000000e+00  0.000000e+00
   outer loop
     vertex  5.933333e-01  5.393333e+00  1.133333e-01
     vertex  5.933333e-01  5.393333e+00  6.666667e-03
     vertex  4.066667e-01  5.393333e+00  6.666667e-03
   endloop
 endfacet
 facet normal  0.000000e+00  1.000000e+00  0.000000e+00
   outer loop
     vertex  5.933333e-01  5.393333e+00  1.133333e-01
     vertex  4.066667e-01  5.393333e+00  6.666667e-03
     vertex  4.066667e-01  5.393333e+00  1.133333e-01
   endloop
 endfacet
 facet normal  0.000000e+00 -1.000000e+00 -0.000000e+00
   outer loop
     vertex  7.933333e-01  5.006667e+00  1.133333e-01
     vertex  6.066667e-01  5.006667e+00  6.666667e-03
     vertex  7.933333e-01  5.006667e+00  6.666667e-03
   endloop
 endfacet
 facet normal -0.000000e+00 -1.000000e+00  0.000000e+00
   outer loop
     vertex  7.933333e-01  5.006667e+00  1.133333e-01
     vertex  6.066667e-01  5.006667e+00  1.133333e-01
     vertex  6.066667e-01  5.006667e+00  6.666667e-03
   endloop
 endfacet
 facet normal  1.000000e+00  0.000000e+00  0.000000e+00
   outer loop
     vertex  7.933333e-01  5.393333e+00  1.133333e-01
     vertex  7.933333e-01  5.006667e+00  6.666667e-03
     vertex  7.933333e-01  5.393333e+00  6.666667e-03
   endloop
 endfacet
 facet normal  1.000000e+00  0.000000e+00  0.000000e+00
   outer loop
     vertex  7.933333e-01  5.393333e+00  1.133333e-01
     vertex  7.933333e-01  5.006667e+00  1.133333e-01
     vertex  7.933333e-01  5.006667e+00  6.666667e-03
   endloop
 endfacet
 facet normal  0.000000e+00  0.000000e+00  1.000000e+00
   outer loop
     vertex  6.066667e-01  5.393333e+00  1.133333e-01
     vertex  6.066667e-01  5.006667e+00  1.133333e-01
     vertex  7.933333e-01  5.006667e+00  1.133333e-01
   endloop
 endfacet
 facet normal -0.000000e+00  0.000000e+00  1.000000e+00
   outer loop
     vertex  6.066667e-01  5.393333e+00  1.133333e-01
     vertex  7.933333e-01  5.006667e+00  1.133333e-01
     vertex  7.933333e-01  5.393333e+00  1.133333e-01
   endloop
 endfacet
 facet normal -1.000000e+00  0.000000e+00 -0.000000e+00
   outer loop
     vertex  6.066667e-01  5.393333e+00  1.133333e-01
     vertex  6.066667e-01  5.393333e+00  6.666667e-03
     vertex  6.066667e-01  5.006667e+00  6.666667e-03
   endloop
 endfacet
 facet normal -1.000000e+00 -0.000000e+00  0.000000e+00
   outer loop
     vertex  6.066667e-01  5.393333e+00  1.133333e-01
     vertex  6.066667e-01  5.006667e+00  6.666667e-03
     vertex  6.066667e-01  5.006667e+00  1.133333e-01
   endloop
 endfacet
 facet normal  0.000000e+00  0.000000e+00 -1.000000e+00
   outer loop
     vertex  6.066667e-01  5.393333e+00  6.666667e-03
     vertex  7.933333e-01  5.006667e+00  6.666667e-03
     vertex  6.066667e-01  5.006667e+00  6.666667e-03
   endloop
 endfacet
 facet normal  0.000000e+00  0.000000e+00 -1.000000e+00
   outer loop
     vertex  6.066667e-01  5.393333e+00  6.666667e-03
     vertex  7.933333e-01  5.393333e+00  6.666667e-03
     vertex  7.933333e-01  5.006667e+00  6.666667e-03
   endloop
 endfacet
 facet normal  0.000000e+00  1.000000e+00  0.000000e+00
   outer loop
     vertex  7.933333e-01  5.393333e+00  1.133333e-01
     vertex  7.933333e-01  5.393333e+00  6.666667e-03
     vertex  6.066667e-01  5.393333e+00  6.666667e-03
   endloop
 endfacet
 facet normal  0.000000e+00  1.000000e+00  0.000000e+00
   outer loop
     vertex  7.933333e-01  5.393333e+00  1.133333e-01
     vertex  6.066667e-01  5.393333e+00  6.666667e-03
     vertex  6.066667e-01  5.393333e+00  1.133333e-01
   endloop
 endfacet
 facet normal  0.000000e+00 -1.000000e+00 -0.000000e+00
   outer loop
     vertex  9.933333e-01  5.006667e+00  1.133333e-01
     vertex  8.066667e-01  5.006667e+00  6.666667e-03
     vertex  9.933333e-01  5.006667e+00  6.666667e-03
   endloop
 endfacet
 facet normal -0.000000e+00 -1.000000e+00  0.000000e+00
   outer loop
     vertex  9.933333e-01  5.006667e+00  1.133333e-01
     vertex  8.066667e-01  5.006667e+00  1.133333e-01
     vertex  8.066667e-01  5.006667e+00  6.666667e-03
   endloop
 endfacet
 facet normal  1.000000e+00  0.000000e+00  0.000000e+00
   outer loop
     vertex  9.933333e-01  5.393333e+00  1.133333e-01
     vertex  9.933333e-01  5.006667e+00  6.666667e-03
     vertex  9.933333e-01  5.393333e+00  6.666667e-03
   endloop
 endfacet
 facet normal  1.000000e+00  0.000000e+00  0.000000e+00
   outer loop
     vertex  9.933333e-01  5.393333e+00  1.133333e-01
     vertex  9.933333e-01  5.006667e+00  1.133333e-01
     vertex  9.933333e-01  5.006667e+00  6.666667e-03
   endloop
 endfacet
 facet normal  0.000000e+00  0.000000e+00  1.000000e+00
   outer loop
     vertex  8.066667e-01  5.393333e+00  1.133333e-01
     vertex  8.066667e-01  5.006667e+00  1.133333e-01
     vertex  9.933333e-01  5.006667e+00  1.133333e-01
   endloop
 endfacet
 facet normal -0.000000e+00  0.000000e+00  1.000000e+00
   outer loop
     vertex  8.066667e-01  5.393333e+00  1.133333e-01
     vertex  9.933333e-01  5.006667e+00  1.133333e-01
     vertex  9.933333e-01  5.393333e+00  1.133333e-01
   endloop
 endfacet
 facet normal -1.000000e+00  0.000000e+00 -0.000000e+00
   outer loop
     vertex  8.066667e-01  5.393333e+00  1.133333e-01
     vertex  8.066667e-01  5.393333e+00  6.666667e-03
     vertex  8.066667e-01  5.006667e+00  6.666667e-03
   endloop
 endfacet
 facet normal -1.000000e+00 -0.000000e+00  0.000000e+00
   outer loop
     vertex  8.066667e-01  5.393333e+00  1.133333e-01
     vertex  8.066667e-01  5.006667e+00  6.666667e-03
     vertex  8.066667e-01  5.006667e+00  1.133333e-01
   endloop
 endfacet
 facet normal  0.000000e+00  0.000000e+00 -1.000000e+00
   outer loop
     vertex  8.066667e-01  5.393333e+00  6.666667e-03
     vertex  9.933333e-01  5.006667e+00  6.666667e-03
     vertex  8.066667e-01  5.006667e+00  6.666667e-03
   endloop
 endfacet
 facet normal  0.000000e+00  0.000000e+00 -1.000000e+00
   outer loop
     vertex  8.066667e-01  5.393333e+00  6.666667e-03
     vertex  9.933333e-01  5.393333e+00  6.666667e-03
     vertex  9.933333e-01  5.006667e+00  6.666667e-03
   endloop
 endfacet
 facet normal  0.000000e+00  1.000000e+00  0.000000e+00
   outer loop
     vertex  9.933333e-01  5.393333e+00  1.133333e-01
     vertex  9.933333e-01  5.393333e+00  6.666667e-03
     vertex  8.066667e-01  5.393333e+00  6.666667e-03
   endloop
 endfacet
 facet normal  0.000000e+00  1.000000e+00  0.000000e+00
   outer loop
     vertex  9.933333e-01  5.393333e+00  1.133333e-01
     vertex  8.066667e-01  5.393333e+00  6.666667e-03
     vertex  8.066667e-01  5.393333e+00  1.133333e-01
   endloop
 endfacet
 facet normal  0.000000e+00 -1.000000e+00 -0.000000e+00
   outer loop
     vertex  1.193333e+00  5.006667e+00  1.133333e-01
     vertex  1.006667e+00  5.006667e+00  6.666667e-03
     vertex  1.193333e+00  5.006667e+00  6.666667e-03
   endloop
 endfacet
 facet normal -0.000000e+00 -1.000000e+00  0.000000e+00
   outer loop
     vertex  1.193333e+00  5.006667e+00  1.133333e-01
     vertex  1.006667e+00  5.006667e+00  1.133333e-01
     vertex  1.006667e+00  5.006667e+00  6.666667e-03
   endloop
 endfacet
 facet normal  1.000000e+00  0.000000e+00  0.000000e+00
   outer loop
     vertex  1.193333e+00  5.393333e+00  1.133333e-01
     vertex  1.193333e+00  5.006667e+00  6.666667e-03
     vertex  1.193333e+00  5.393333e+00  6.666667e-03
   endloop
 endfacet
 facet normal  1.000000e+00  0.000000e+00  0.000000e+00
   outer loop
     vertex  1.193333e+00  5.393333e+00  1.133333e-01
     vertex  1.193333e+00  5.006667e+00  1.133333e-01
     vertex  1.193333e+00  5.006667e+00  6.666667e-03
   endloop
 endfacet
 facet normal  0.000000e+00  0.000000e+00  1.000000e+00
   outer loop
     vertex  1.006667e+00  5.393333e+00  1.133333e-01
     vertex  1.006667e+00  5.006667e+00  1.133333e-01
     vertex  1.193333e+00  5.006667e+00  1.133333e-01
   endloop
 endfacet
 facet normal -0.000000e+00  0.000000e+00  1.000000e+00
   outer loop
     vertex  1.006667e+00  5.393333e+00  1.133333e-01
     vertex  1.193333e+00  5.006667e+00  1.133333e-01
     vertex  1.193333e+00  5.393333e+00  1.133333e-01
   endloop
 endfacet
 facet normal -1.000000e+00  0.000000e+00 -0.000000e+00
   outer loop
     vertex  1.006667e+00  5.393333e+00  1.133333e-01
     vertex  1.006667e+00  5.393333e+00  6.666667e-03
     vertex  1.006667e+00  5.006667e+00  6.666667e-03
   endloop
 endfacet
 facet normal -1.000000e+00 -0.000000e+00  0.000000e+00
   outer loop
     vertex  1.006667e+00  5.393333e+00  1.133333e-01
     vertex  1.006667e+00  5.006667e+00  6.666667e-03
     vertex  1.006667e+00  5.006667e+00  1.133333e-01
   endloop
 endfacet
 facet normal  0.000000e+00  0.000000e+00 -1.000000e+00
   outer loop
     vertex  1.006667e+00  5.393333e+00  6.666667e-03
     vertex  1.193333e+00  5.006667e+00  6.666667e-03
     vertex  1.006667e+00  5.006667e+00  6.666667e-03
   endloop
 endfacet
 facet normal  0.000000e+00  0.000000e+00 -1.000000e+00
   outer loop
     vertex  1.006667e+00  5.393333e+00  6.666667e-03
     vertex  1.193333e+00  5.393333e+00  6.666667e-03
     vertex  1.193333e+00  5.006667e+00  6.666667e-03
   endloop
 endfacet
 facet normal  0.000000e+00  1.000000e+00  0.000000e+00
   outer loop
     vertex  1.193333e+00  5.393333e+00  1.133333e-01
     vertex  1.193333e+00  5.393333e+00  6.666667e-03
     vertex  1.006667e+00  5.393333e+00  6.666667e-03
   endloop
 endfacet
 facet normal  0.000000e+00  1.000000e+00  0.000000e+00
   outer loop
     vertex  1.193333e+00  5.393333e+00  1.133333e-01
     vertex  1.006667e+00  5.393333e+00  6.666667e-03
     vertex  1.006667e+00  5.393333e+00  1.133333e-01
   endloop
 endfacet
 facet normal  0.000000e+00 -1.000000e+00 -0.000000e+00
   outer loop
     vertex  1.393333e+00  5.006667e+00  1.133333e-01
     vertex  1.206667e+00  5.006667e+00  6.666667e-03
     vertex  1.393333e+00  5.006667e+00  6.666667e-03
   endloop
 endfacet
 facet normal -0.000000e+00 -1.000000e+00  0.000000e+00
   outer loop
     vertex  1.393333e+00  5.006667e+00  1.133333e-01
     vertex  1.206667e+00  5.006667e+00  1.133333e-01
     vertex  1.206667e+00  5.006667e+00  6.666667e-03
   endloop
 endfacet
 facet normal  1.000000e+00  0.000000e+00  0.000000e+00
   outer loop
     vertex  1.393333e+00  5.393333e+00  1.133333e-01
     vertex  1.393333e+00  5.006667e+00  6.666667e-03
     vertex  1.393333e+00  5.393333e+00  6.666667e-03
   endloop
 endfacet
 facet normal  1.000000e+00  0.000000e+00  0.000000e+00
   outer loop
     vertex  1.393333e+00  5.393333e+00  1.133333e-01
     vertex  1.393333e+00  5.006667e+00  1.133333e-01
     vertex  1.393333e+00  5.006667e+00  6.666667e-03
   endloop
 endfacet
 facet normal  0.000000e+00  0.000000e+00  1.000000e+00
   outer loop
     vertex  1.206667e+00  5.393333e+00  1.133333e-01
     vertex  1.206667e+00  5.006667e+00  1.133333e-01
     vertex  1.393333e+00  5.006667e+00  1.133333e-01
   endloop
 endfacet
 facet normal -0.000000e+00  0.000000e+00  1.000000e+00
   outer loop
     vertex  1.206667e+00  5.393333e+00  1.133333e-01
     vertex  1.393333e+00  5.006667e+00  1.133333e-01
     vertex  1.393333e+00  5.393333e+00  1.133333e-01
   endloop
 endfacet
 facet normal -1.000000e+00  0.000000e+00 -0.000000e+00
   outer loop
     vertex  1.206667e+00  5.393333e+00  1.133333e-01
     vertex  1.206667e+00  5.393333e+00  6.666667e-03
     vertex  1.206667e+00  5.006667e+00  6.666667e-03
   endloop
 endfacet
 facet normal -1.000000e+00 -0.000000e+00  0.000000e+00
   outer loop
     vertex  1.206667e+00  5.393333e+00  1.133333e-01
     vertex  1.206667e+00  5.006667e+00  6.666667e-03
     vertex  1.206667e+00  5.006667e+00  1.133333e-01
   endloop
 endfacet
 facet normal  0.000000e+00  0.000000e+00 -1.000000e+00
   outer loop
     vertex  1.206667e+00  5.393333e+00  6.666667e-03
     vertex  1.393333e+00  5.006667e+00  6.666667e-03
     vertex  1.206667e+00  5.006667e+00  6.666667e-03
   endloop
 endfacet
 facet normal  0.000000e+00  0.000000e+00 -1.000000e+00
   outer loop
     vertex  1.206667e+00  5.393333e+00  6.666667e-03
     vertex  1.393333e+00  5.393333e+00  6.666667e-03
     vertex  1.393333e+00  5.006667e+00  6.666667e-03
   endloop
 endfacet
 facet normal  0.000000e+00  1.000000e+00  0.000000e+00
   outer loop
     vertex  1.393333e+00  5.393333e+00  1.133333e-01
     vertex  1.393333e+00  5.393333e+00  6.666667e-03
     vertex  1.206667e+00  5.393333e+00  6.666667e-03
   endloop
 endfacet
 facet normal  0.000000e+00  1.000000e+00  0.000000e+00
   outer loop
     vertex  1.393333e+00  5.393333e+00  1.133333e-01
     vertex  1.206667e+00  5.393333e+00  6.666667e-03
     vertex  1.206667e+00  5.393333e+00  1.133333e-01
   endloop
 endfacet
 facet normal  0.000000e+00 -1.000000e+00 -0.000000e+00
   outer loop
     vertex  6.933333e-01  5.006667e+00  2.333333e-01
     vertex  5.066667e-01  5.006667e+00  1.266667e-01
     vertex  6.933333e-01  5.006667e+00  1.266667e-01
   endloop
 endfacet
 facet normal -0.000000e+00 -1.000000e+00  0.000000e+00
   outer loop
     vertex  6.933333e-01  5.006667e+00  2.333333e-01
     vertex  5.066667e-01  5.006667e+00  2.333333e-01
     vertex  5.066667e-01  5.006667e+00  1.266667e-01
   endloop
 endfacet
 facet normal  1.000000e+00  0.000000e+00  0.000000e+00
   outer loop
     vertex  6.933333e-01  5.393333e+00  2.333333e-01
     vertex  6.933333e-01  5.006667e+00  1.266667e-01
     vertex  6.933333e-01  5.393333e+00  1.266667e-01
   endloop
 endfacet
 facet normal  1.000000e+00  0.000000e+00  0.000000e+00
   outer loop
     vertex  6.933333e-01  5.393333e+00  2.333333e-01
     vertex  6.933333e-01  5.006667e+00  2.333333e-01
     vertex  6.933333e-01  5.006667e+00  1.266667e-01
   endloop
 endfacet
 facet normal  0.000000e+00  0.000000e+00  1.000000e+00
   outer loop
     vertex  5.066667e-01  5.393333e+00  2.333333e-01
     vertex  5.066667e-01  5.006667e+00  2.333333e-01
     vertex  6.933333e-01  5.006667e+00  2.333333e-01
   endloop
 endfacet
 facet normal -0.000000e+00  0.000000e+00  1.000000e+00
   outer loop
     vertex  5.066667e-01  5.393333e+00  2.333333e-01
     vertex  6.933333e-01  5.006667e+00  2.333333e-01
     vertex  6.933333e-01  5.393333e+00  2.333333e-01
   endloop
 endfacet
 facet normal -1.000000e+00  0.000000e+00 -0.000000e+00
   outer loop
     vertex  5.066667e-01  5.393333e+00  2.333333e-01
     vertex  5.066667e-01  5.393333e+00  1.266667e-01
     vertex  5.066667e-01  5.006667e+00  1.266667e-01
   endloop
 endfacet
 facet normal -1.000000e+00 -0.000000e+00  0.000000e+00
   outer loop
     vertex  5.066667e-01  5.393333e+00  2.333333e-01
     vertex  5.066667e-01  5.006667e+00  1.266667e-01
     vertex  5.066667e-01  5.006667e+00  2.333333e-01
   endloop
 endfacet
 facet normal  0.000000e+00  0.000000e+00 -1.000000e+00
   outer loop
     vertex  5.066667e-01  5.393333e+00  1.266667e-01
     vertex  6.933333e-01  5.006667e+00  1.266667e-01
     vertex  5.066667e-01  5.006667e+00  1.266667e-01
   endloop
 endfacet
 facet normal  0.000000e+00  0.000000e+00 -1.000000e+00
   outer loop
     vertex  5.066667e-01  5.393333e+00  1.266667e-01
     vertex  6.933333e-01  5.393333e+00  1.266667e-01
     vertex  6.933333e-01  5.006667e+00  1.266667e-01
   endloop
 endfacet
 facet normal  0.000000e+00  1.000000e+00  0.000000e+00
   outer loop
     vertex  6.933333e-01  5.393333e+00  2.333333e-01
     vertex  6.933333e-01  5.393333e+00  1.266667e-01
     vertex  5.066667e-01  5.393333e+00  1.266667e-01
   endloop
 endfacet
 facet normal  0.000000e+00  1.000000e+00  0.000000e+00
   outer loop
     vertex  6.933333e-01  5.393333e+00  2.333333e-01
     vertex  5.066667e-01  5.393333e+00  1.266667e-01
     vertex  5.066667e-01  5.393333e+00  2.333333e-01
   endloop
 endfacet
 facet normal  0.000000e+00 -1.000000e+00 -0.000000e+00
   outer loop
     vertex  8.933333e-01  5.006667e+00  2.333333e-01
     vertex  7.066667e-01  5.006667e+00  1.266667e-01
     vertex  8.933333e-01  5.006667e+00  1.266667e-01
   endloop
 endfacet
 facet normal -0.000000e+00 -1.000000e+00  0.000000e+00
   outer loop
     vertex  8.933333e-01  5.006667e+00  2.333333e-01
     vertex  7.066667e-01  5.006667e+00  2.333333e-01
     vertex  7.066667e-01  5.006667e+00  1.266667e-01
   endloop
 endfacet
 facet normal  1.000000e+00  0.000000e+00  0.000000e+00
   outer loop
     vertex  8.933333e-01  5.393333e+00  2.333333e-01
     vertex  8.933333e-01  5.006667e+00  1.266667e-01
     vertex  8.933333e-01  5.393333e+00  1.266667e-01
   endloop
 endfacet
 facet normal  1.000000e+00  0.000000e+00  0.000000e+00
   outer loop
     vertex  8.933333e-01  5.393333e+00  2.333333e-01
     vertex  8.933333e-01  5.006667e+00  2.333333e-01
     vertex  8.933333e-01  5.006667e+00  1.266667e-01
   endloop
 endfacet
 facet normal  0.000000e+00  0.000000e+00  1.000000e+00
   outer loop
     vertex  7.066667e-01  5.393333e+00  2.333333e-01
     vertex  7.066667e-01  5.006667e+00  2.333333e-01
     vertex  8.933333e-01  5.006667e+00  2.333333e-01
   endloop
 endfacet
 facet normal -0.000000e+00  0.000000e+00  1.000000e+00
   outer loop
     vertex  7.066667e-01  5.393333e+00  2.333333e-01
     vertex  8.933333e-01  5.006667e+00  2.333333e-01
     vertex  8.933333e-01  5.393333e+00  2.333333e-01
   endloop
 endfacet
 facet normal -1.000000e+00  0.000000e+00 -0.000000e+00
   outer loop
     vertex  7.066667e-01  5.393333e+00  2.333333e-01
     vertex  7.066667e-01  5.393333e+00  1.266667e-01
     vertex  7.066667e-01  5.006667e+00  1.266667e-01
   endloop
 endfacet
 facet normal -1.000000e+00 -0.000000e+00  0.000000e+00
   outer loop
     vertex  7.066667e-01  5.393333e+00  2.333333e-01
     vertex  7.066667e-01  5.006667e+00  1.266667e-01
     vertex  7.066667e-01  5.006667e+00  2.333333e-01
   endloop
 endfacet
 facet normal  0.000000e+00  0.000000e+00 -1.000000e+00
   outer loop
     vertex  7.066667e-01  5.393333e+00  1.266667e-01
     vertex  8.933333e-01  5.006667e+00  1.266667e-01
     vertex  7.066667e-01  5.006667e+00  1.266667e-01
   endloop
 endfacet
 facet normal  0.000000e+00  0.000000e+00 -1.000000e+00
   outer loop
     vertex  7.066667e-01  5.393333e+00  1.266667e-01
     vertex  8.933333e-01  5.393333e+00  1.266667e-01
     vertex  8.933333e-01  5.006667e+00  1.266667e-01
   endloop
 endfacet
 facet normal  0.000000e+00  1.000000e+00  0.000000e+00
   outer loop
     vertex  8.933333e-01  5.393333e+00  2.333333e-01
     vertex  8.933333e-01  5.393333e+00  1.266667e-01
     vertex  7.066667e-01  5.393333e+00  1.266667e-01
   endloop
 endfacet
 facet normal  0.000000e+00  1.000000e+00  0.000000e+00
   outer loop
     vertex  8.933333e-01  5.393333e+00  2.333333e-01
     vertex  7.066667e-01  5.393333e+00  1.266667e-01
     vertex  7.066667e-01  5.393333e+00  2.333333e-01
   endloop
 endfacet
 facet normal  0.000000e+00 -1.000000e+00 -0.000000e+00
   outer loop
     vertex  1.093333e+00  5.006667e+00  2.333333e-01
     vertex  9.066667e-01  5.006667e+00  1.266667e-01
     vertex  1.093333e+00  5.006667e+00  1.266667e-01
   endloop
 endfacet
 facet normal -0.000000e+00 -1.000000e+00  0.000000e+00
   outer loop
     vertex  1.093333e+00  5.006667e+00  2.333333e-01
     vertex  9.066667e-01  5.006667e+00  2.333333e-01
     vertex  9.066667e-01  5.006667e+00  1.266667e-01
   endloop
 endfacet
 facet normal  1.000000e+00  0.000000e+00  0.000000e+00
   outer loop
     vertex  1.093333e+00  5.393333e+00  2.333333e-01
     vertex  1.093333e+00  5.006667e+00  1.266667e-01
     vertex  1.093333e+00  5.393333e+00  1.266667e-01
   endloop
 endfacet
 facet normal  1.000000e+00  0.000000e+00  0.000000e+00
   outer loop
     vertex  1.093333e+00  5.393333e+00  2.333333e-01
     vertex  1.093333e+00  5.006667e+00  2.333333e-01
     vertex  1.093333e+00  5.006667e+00  1.266667e-01
   endloop
 endfacet
 facet normal  0.000000e+00  0.000000e+00  1.000000e+00
   outer loop
     vertex  9.066667e-01  5.393333e+00  2.333333e-01
     vertex  9.066667e-01  5.006667e+00  2.333333e-01
     vertex  1.093333e+00  5.006667e+00  2.333333e-01
   endloop
 endfacet
 facet normal -0.000000e+00  0.000000e+00  1.000000e+00
   outer loop
     vertex  9.066667e-01  5.393333e+00  2.333333e-01
     vertex  1.093333e+00  5.006667e+00  2.333333e-01
     vertex  1.093333e+00  5.393333e+00  2.333333e-01
   endloop
 endfacet
 facet normal -1.000000e+00  0.000000e+00 -0.000000e+00
   outer loop
     vertex  9.066667e-01  5.393333e+00  2.333333e-01
     vertex  9.066667e-01  5.393333e+00  1.266667e-01
     vertex  9.066667e-01  5.006667e+00  1.266667e-01
   endloop
 endfacet
 facet normal -1.000000e+00 -0.000000e+00  0.000000e+00
   outer loop
     vertex  9.066667e-01  5.393333e+00  2.333333e-01
     vertex  9.066667e-01  5.006667e+00  1.266667e-01
     vertex  9.066667e-01  5.006667e+00  2.333333e-01
   endloop
 endfacet
 facet normal  0.000000e+00  0.000000e+00 -1.000000e+00
   outer loop
     vertex  9.066667e-01  5.393333e+00  1.266667e-01
     vertex  1.093333e+00  5.006667e+00  1.266667e-01
     vertex  9.066667e-01  5.006667e+00  1.266667e-01
   endloop
 endfacet
 facet normal  0.000000e+00  0.000000e+00 -1.000000e+00
   outer loop
     vertex  9.066667e-01  5.393333e+00  1.266667e-01
     vertex  1.093333e+00  5.393333e+00  1.266667e-01
     vertex  1.093333e+00  5.006667e+00  1.266667e-01
   endloop
 endfacet
 facet normal  0.000000e+00  1.000000e+00  0.000000e+00
   outer loop
     vertex  1.093333e+00  5.393333e+00  2.333333e-01
     vertex  1.093333e+00  5.393333e+00  1.266667e-01
     vertex  9.066667e-01  5.393333e+00  1.266667e-01
   endloop
 endfacet
 facet normal  0.000000e+00  1.000000e+00  0.000000e+00
   outer loop
     vertex  1.093333e+00  5.393333e+00  2.333333e-01
     vertex  9.066667e-01  5.393333e+00  1.266667e-01
     vertex  9.066667e-01  5.393333e+00  2.333333e-01
   endloop
 endfacet
 facet normal  0.000000e+00 -1.000000e+00 -0.000000e+00
   outer loop
     vertex  1.293333e+00  5.006667e+00  2.333333e-01
     vertex  1.106667e+00  5.006667e+00  1.266667e-01
     vertex  1.293333e+00  5.006667e+00  1.266667e-01
   endloop
 endfacet
 facet normal  0.000000e+00 -1.000000e+00  0.000000e+00
   outer loop
     vertex  1.293333e+00  5.006667e+00  2.333333e-01
     vertex  1.106667e+00  5.006667e+00  2.333333e-01
     vertex  1.106667e+00  5.006667e+00  1.266667e-01
   endloop
 endfacet
 facet normal  0.000000e+00 -1.000000e+00 -0.000000e+00
   outer loop
     vertex  1.393333e+00  5.006667e+00  2.333333e-01
     vertex  1.293333e+00  5.006667e+00  1.266667e-01
     vertex  1.393333e+00  5.006667e+00  1.266667e-01
   endloop
 endfacet
 facet normal -0.000000e+00 -1.000000e+00  0.000000e+00
   outer loop
     vertex  1.393333e+00  5.006667e+00  2.333333e-01
     vertex  1.293333e+00  5.006667e+00  2.333333e-01
     vertex  1.293333e+00  5.006667e+00  1.266667e-01
   endloop
 endfacet
 facet normal -1.486906e-16  0.000000e+00  1.000000e+00
   outer loop
     vertex  1.106667e+00  5.393333e+00  2.333333e-01
     vertex  1.106667e+00  5.006667e+00  2.333333e-01
     vertex  1.293333e+00  5.006667e+00  2.333333e-01
   endloop
 endfacet
 facet normal -1.486906e-16  0.000000e+00  1.000000e+00
   outer loop
     vertex  1.106667e+00  5.393333e+00  2.333333e-01
     vertex  1.293333e+00  5.006667e+00  2.333333e-01
     vertex  1.293333e+00  5.393333e+00  2.333333e-01
   endloop
 endfacet
 facet normal -1.000000e+00  0.000000e+00 -0.000000e+00
   outer loop
     vertex  1.106667e+00  5.393333e+00  2.333333e-01
     vertex  1.106667e+00  5.393333e+00  1.266667e-01
     vertex  1.106667e+00  5.006667e+00  1.266667e-01
   endloop
 endfacet
 facet normal -1.000000e+00 -0.000000e+00  0.000000e+00
   outer loop
     vertex  1.106667e+00  5.393333e+00  2.333333e-01
     vertex  1.106667e+00  5.006667e+00  1.266667e-01
     vertex  1.106667e+00  5.006667e+00  2.333333e-01
   endloop
 endfacet
 facet normal  0.000000e+00  0.000000e+00 -1.000000e+00
   outer loop
     vertex  1.106667e+00  5.393333e+00  1.266667e-01
     vertex  1.293333e+00  5.006667e+00  1.266667e-01
     vertex  1.106667e+00  5.006667e+00  1.266667e-01
   endloop
 endfacet
 facet normal  0.000000e+00  0.000000e+00 -1.000000e+00
   outer loop
     vertex  1.106667e+00  5.393333e+00  1.266667e-01
     vertex  1.293333e+00  5.393333e+00  1.266667e-01
     vertex  1.293333e+00  5.006667e+00  1.266667e-01
   endloop
 endfacet
 facet normal  0.000000e+00  0.000000e+00  1.000000e+00
   outer loop
     vertex  1.293333e+00  5.393333e+00  2.333333e-01
     vertex  1.293333e+00  5.006667e+00  2.333333e-01
     vertex  1.393333e+00  5.006667e+00  2.333333e-01
   endloop
 endfacet
 facet normal -0.000000e+00  0.000000e+00  1.000000e+00
   outer loop
     vertex  1.293333e+00  5.393333e+00  2.333333e-01
     vertex  1.393333e+00  5.006667e+00  2.333333e-01
     vertex  1.393333e+00  5.393333e+00  2.333333e-01
   endloop
 endfacet
 facet normal  0.000000e+00  0.000000e+00 -1.000000e+00
   outer loop
     vertex  1.293333e+00  5.393333e+00  1.266667e-01
     vertex  1.393333e+00  5.006667e+00  1.266667e-01
     vertex  1.293333e+00  5.006667e+00  1.266667e-01
   endloop
 endfacet
 facet normal  0.000000e+00  0.000000e+00 -1.000000e+00
   outer loop
     vertex  1.293333e+00  5.393333e+00  1.266667e-01
     vertex  1.393333e+00  5.393333e+00  1.266667e-01
     vertex  1.393333e+00  5.006667e+00  1.266667e-01
   endloop
 endfacet
 facet normal  1.000000e+00  0.000000e+00  0.000000e+00
   outer loop
     vertex  1.393333e+00  5.393333e+00  2.333333e-01
     vertex  1.393333e+00  5.006667e+00  1.266667e-01
     vertex  1.393333e+00  5.393333e+00  1.266667e-01
   endloop
 endfacet
 facet normal  1.000000e+00  0.000000e+00  0.000000e+00
   outer loop
     vertex  1.393333e+00  5.393333e+00  2.333333e-01
     vertex  1.393333e+00  5.006667e+00  2.333333e-01
     vertex  1.393333e+00  5.006667e+00  1.266667e-01
   endloop
 endfacet
 facet normal  0.000000e+00  1.000000e+00  0.000000e+00
   outer loop
     vertex  1.293333e+00  5.393333e+00  2.333333e-01
     vertex  1.293333e+00  5.393333e+00  1.266667e-01
     vertex  1.106667e+00  5.393333e+00  1.266667e-01
   endloop
 endfacet
 facet normal  0.000000e+00  1.000000e+00  0.000000e+00
   outer loop
     vertex  1.293333e+00  5.393333e+00  2.333333e-01
     vertex  1.106667e+00  5.393333e+00  1.266667e-01
     vertex  1.106667e+00  5.393333e+00  2.333333e-01
   endloop
 endfacet
 facet normal  0.000000e+00  1.000000e+00  0.000000e+00
   outer loop
     vertex  1.393333e+00  5.393333e+00  2.333333e-01
     vertex  1.393333e+00  5.393333e+00  1.266667e-01
     vertex  1.293333e+00  5.393333e+00  1.266667e-01
   endloop
 endfacet
 facet normal  0.000000e+00  1.000000e+00  0.000000e+00
   outer loop
     vertex  1.393333e+00  5.393333e+00  2.333333e-01
     vertex  1.293333e+00  5.393333e+00  1.266667e-01
     vertex  1.293333e+00  5.393333e+00  2.333333e-01
   endloop
 endfacet
 facet normal -1.000000e+00  2.137427e-16  0.000000e+00
   outer loop
     vertex  6.666667e-03  5.706667e+00  1.133333e-01
     vertex  6.666667e-03  5.893333e+00  6.666667e-03
     vertex  6.666667e-03  5.706667e+00  6.666667e-03
   endloop
 endfacet
 facet normal -1.000000e+00  2.137427e-16  0.000000e+00
   outer loop
     vertex  6.666667e-03  5.706667e+00  1.133333e-01
     vertex  6.666667e-03  5.893333e+00  1.133333e-01
     vertex  6.666667e-03  5.893333e+00  6.666667e-03
   endloop
 endfacet
 facet normal  0.000000e+00 -1.000000e+00 -0.000000e+00
   outer loop
     vertex  3.933333e-01  5.706667e+00  1.133333e-01
     vertex  6.666667e-03  5.706667e+00  6.666667e-03
     vertex  3.933333e-01  5.706667e+00  6.666667e-03
   endloop
 endfacet
 facet normal -0.000000e+00 -1.000000e+00  0.000000e+00
   outer loop
     vertex  3.933333e-01  5.706667e+00  1.133333e-01
     vertex  6.666667e-03  5.706667e+00  1.133333e-01
     vertex  6.666667e-03  5.706667e+00  6.666667e-03
   endloop
 endfacet
 facet normal  0.000000e+00  0.000000e+00  1.000000e+00
   outer loop
     vertex  3.933333e-01  5.893333e+00  1.133333e-01
     vertex  6.666667e-03  5.893333e+00  1.133333e-01
     vertex  6.666667e-03  5.706667e+00  1.133333e-01
   endloop
 endfacet
 facet normal  0.000000e+00  0.000000e+00  1.000000e+00
   outer loop
     vertex  3.933333e-01  5.893333e+00  1.133333e-01
     vertex  6.666667e-03  5.706667e+00  1.133333e-01
     vertex  3.933333e-01  5.706667e+00  1.133333e-01
   endloop
 endfacet
 facet normal  0.000000e+00  1.000000e+00  0.000000e+00
   outer loop
     vertex  3.933333e-01  5.893333e+00  1.133333e-01
     vertex  3.933333e-01  5.893333e+00  6.666667e-03
     vertex  6.666667e-03  5.893333e+00  6.666667e-03
   endloop
 endfacet
 facet normal  0.000000e+00  1.000000e+00  0.000000e+00
   outer loop
     vertex  3.933333e-01  5.893333e+00  1.133333e-01
     vertex  6.666667e-03  5.893333e+00  6.666667e-03
     vertex  6.666667e-03  5.893333e+00  1.133333e-01
   endloop
 endfacet
 facet normal -0.000000e+00  0.000000e+00 -1.000000e+00
   outer loop
     vertex  3.933333e-01  5.893333e+00  6.666667e-03
     vertex  6.666667e-03  5.706667e+00  6.666667e-03
     vertex  6.666667e-03  5.893333e+00  6.666667e-03
   endloop
 endfacet
 facet normal  0.000000e+00 -0.000000e+00 -1.000000e+00
   outer loop
     vertex  3.933333e-01  5.893333e+00  6.666667e-03
     vertex  3.933333e-01  5.706667e+00  6.666667e-03
     vertex  6.666667e-03  5.706667e+00  6.666667e-03
   endloop
 endfacet
 facet normal  1.000000e+00  0.000000e+00  0.000000e+00
   outer loop
     vertex  3.933333e-01  5.706667e+00  1.133333e-01
     vertex  3.933333e-01  5.706667e+00  6.666667e-03
     vertex  3.933333e-01  5.893333e+00  6.666667e-03
   endloop
 endfacet
 facet normal  1.000000e+00 -0.000000e+00  0.000000e+00
   outer loop
     vertex  3.933333e-01  5.706667e+00  1.133333e-01
     vertex  3.933333e-01  5.893333e+00  6.666667e-03
     vertex  3.933333e-01  5.893333e+00  1.133333e-01
   endloop
 endfacet
 facet normal -1.000000e+00  2.183893e-16  0.000000e+00
   outer loop
     vertex  6.666667e-03  5.506667e+00  1.133333e-01
     vertex  6.666667e-03  5.693333e+00  6.666667e-03
     vertex  6.666667e-03  5.506667e+00  6.666667e-03
   endloop
 endfacet
 facet normal -1.000000e+00  2.183893e-16  0.000000e+00
   outer loop
     vertex  6.666667e-03  5.506667e+00  1.133333e-01
     vertex  6.666667e-03  5.693333e+00  1.133333e-01
     vertex  6.666667e-03  5.693333e+00  6.666667e-03
   endloop
 endfacet
 facet normal  0.000000e+00 -1.000000e+00 -0.000000e+00
   outer loop
     vertex  3.933333e-01  5.506667e+00  1.133333e-01
     vertex  6.666667e-03  5.506667e+00  6.666667e-03
     vertex  3.933333e-01  5.506667e+00  6.666667e-03
   endloop
 endfacet
 facet normal -0.000000e+00 -1.000000e+00  0.000000e+00
   outer loop
     vertex  3.933333e-01  5.506667e+00  1.133333e-01
     vertex  6.666667e-03  5.506667e+00  1.133333e-01
     vertex  6.666667e-03  5.506667e+00  6.666667e-03
   endloop
 endfacet
 facet normal  0.000000e+00  0.000000e+00  1.000000e+00
   outer loop
     vertex  3.933333e-01  5.693333e+00  1.133333e-01
     vertex  6.666667e-03  5.693333e+00  1.133333e-01
     vertex  6.666667e-03  5.506667e+00  1.133333e-01
   endloop
 endfacet
 facet normal  0.000000e+00  0.000000e+00  1.000000e+00
   outer loop
     vertex  3.933333e-01  5.693333e+00  1.133333e-01
     vertex  6.666667e-03  5.506667e+00  1.133333e-01
     vertex  3.933333e-01  5.506667e+00  1.133333e-01
   endloop
 endfacet
 facet normal  0.000000e+00  1.000000e+00  0.000000e+00
   outer loop
     vertex  3.933333e-01  5.693333e+00  1.133333e-01
     vertex  3.933333e-01  5.693333e+00  6.666667e-03
     vertex  6.666667e-03  5.693333e+00  6.666667e-03
   endloop
 endfacet
 facet normal  0.000000e+00  1.000000e+00  0.000000e+00
   outer loop
     vertex  3.933333e-01  5.693333e+00  1.133333e-01
     vertex  6.666667e-03  5.693333e+00  6.666667e-03
     vertex  6.666667e-03  5.693333e+00  1.133333e-01
   endloop
 endfacet
 facet normal -0.000000e+00  0.000000e+00 -1.000000e+00
   outer loop
     vertex  3.933333e-01  5.693333e+00  6.666667e-03
     vertex  6.666667e-03  5.506667e+00  6.666667e-03
     vertex  6.666667e-03  5.693333e+00  6.666667e-03
   endloop
 endfacet
 facet normal  0.000000e+00  0.000000e+00 -1.000000e+00
   outer loop
     vertex  3.933333e-01  5.693333e+00  6.666667e-03
     vertex  3.933333e-01  5.506667e+00  6.666667e-03
     vertex  6.666667e-03  5.506667e+00  6.666667e-03
   endloop
 endfacet
 facet normal  1.000000e+00 -2.973812e-16  0.000000e+00
   outer loop
     vertex  3.933333e-01  5.506667e+00  1.133333e-01
     vertex  3.933333e-01  5.506667e+00  6.666667e-03
     vertex  3.933333e-01  5.693333e+00  6.666667e-03
   endloop
 endfacet
 facet normal  1.000000e+00 -2.973812e-16  0.000000e+00
   outer loop
     vertex  3.933333e-01  5.506667e+00  1.133333e-01
     vertex  3.933333e-01  5.693333e+00  6.666667e-03
     vertex  3.933333e-01  5.693333e+00  1.133333e-01
   endloop
 endfacet
 facet normal -1.000000e+00  2.183893e-16  0.000000e+00
   outer loop
     vertex  6.666667e-03  5.306667e+00  1.133333e-01
     vertex  6.666667e-03  5.493333e+00  6.666667e-03
     vertex  6.666667e-03  5.306667e+00  6.666667e-03
   endloop
 endfacet
 facet normal -1.000000e+00  2.183893e-16  0.000000e+00
   outer loop
     vertex  6.666667e-03  5.306667e+00  1.133333e-01
     vertex  6.666667e-03  5.493333e+00  1.133333e-01
     vertex  6.666667e-03  5.493333e+00  6.666667e-03
   endloop
 endfacet
 facet normal  0.000000e+00 -1.000000e+00 -0.000000e+00
   outer loop
     vertex  3.933333e-01  5.306667e+00  1.133333e-01
     vertex  6.666667e-03  5.306667e+00  6.666667e-03
     vertex  3.933333e-01  5.306667e+00  6.666667e-03
   endloop
 endfacet
 facet normal -0.000000e+00 -1.000000e+00  0.000000e+00
   outer loop
     vertex  3.933333e-01  5.306667e+00  1.133333e-01
     vertex  6.666667e-03  5.306667e+00  1.133333e-01
     vertex  6.666667e-03  5.306667e+00  6.666667e-03
   endloop
 endfacet
 facet normal  0.000000e+00  0.000000e+00  1.000000e+00
   outer loop
     vertex  3.933333e-01  5.493333e+00  1.133333e-01
     vertex  6.666667e-03  5.493333e+00  1.133333e-01
     vertex  6.666667e-03  5.306667e+00  1.133333e-01
   endloop
 endfacet
 facet normal  0.000000e+00  0.000000e+00  1.000000e+00
   outer loop
     vertex  3.933333e-01  5.493333e+00  1.133333e-01
     vertex  6.666667e-03  5.306667e+00  1.133333e-01
     vertex  3.933333e-01  5.306667e+00  1.133333e-01
   endloop
 endfacet
 facet normal  0.000000e+00  1.000000e+00  0.000000e+00
   outer loop
     vertex  3.933333e-01  5.493333e+00  1.133333e-01
     vertex  3.933333e-01  5.493333e+00  6.666667e-03
     vertex  6.666667e-03  5.493333e+00  6.666667e-03
   endloop
 endfacet
 facet normal  0.000000e+00  1.000000e+00  0.000000e+00
   outer loop
     vertex  3.933333e-01  5.493333e+00  1.133333e-01
     vertex  6.666667e-03  5.493333e+00  6.666667e-03
     vertex  6.666667e-03  5.493333e+00  1.133333e-01
   endloop
 endfacet
 facet normal -0.000000e+00  0.000000e+00 -1.000000e+00
   outer loop
     vertex  3.933333e-01  5.493333e+00  6.666667e-03
     vertex  6.666667e-03  5.306667e+00  6.666667e-03
     vertex  6.666667e-03  5.493333e+00  6.666667e-03
   endloop
 endfacet
 facet normal  0.000000e+00  0.000000e+00 -1.000000e+00
   outer loop
     vertex  3.933333e-01  5.493333e+00  6.666667e-03
     vertex  3.933333e-01  5.306667e+00  6.666667e-03
     vertex  6.666667e-03  5.306667e+00  6.666667e-03
   endloop
 endfacet
 facet normal  1.000000e+00 -2.973812e-16  0.000000e+00
   outer loop
     vertex  3.933333e-01  5.306667e+00  1.133333e-01
     vertex  3.933333e-01  5.306667e+00  6.666667e-03
     vertex  3.933333e-01  5.493333e+00  6.666667e-03
   endloop
 endfacet
 facet normal  1.000000e+00 -2.973812e-16  0.000000e+00
   outer loop
     vertex  3.933333e-01  5.306667e+00  1.133333e-01
     vertex  3.933333e-01  5.493333e+00  6.666667e-03
     vertex  3.933333e-01  5.493333e+00  1.133333e-01
   endloop
 endfacet
 facet normal -1.000000e+00  2.201764e-16  0.000000e+00
   outer loop
     vertex  6.666667e-03  5.906667e+00  1.133333e-01
     vertex  6.666667e-03  5.993333e+00  6.666667e-03
     vertex  6.666667e-03  5.906667e+00  6.666667e-03
   endloop
 endfacet
 facet normal -1.000000e+00  2.201764e-16  0.000000e+00
   outer loop
     vertex  6.666667e-03  5.906667e+00  1.133333e-01
     vertex  6.666667e-03  5.993333e+00  1.133333e-01
     vertex  6.666667e-03  5.993333e+00  6.666667e-03
   endloop
 endfacet
 facet normal  0.000000e+00 -1.000000e+00 -0.000000e+00
   outer loop
     vertex  3.933333e-01  5.906667e+00  1.133333e-01
     vertex  6.666667e-03  5.906667e+00  6.666667e-03
     vertex  3.933333e-01  5.906667e+00  6.666667e-03
   endloop
 endfacet
 facet normal -0.000000e+00 -1.000000e+00  0.000000e+00
   outer loop
     vertex  3.933333e-01  5.906667e+00  1.133333e-01
     vertex  6.666667e-03  5.906667e+00  1.133333e-01
     vertex  6.666667e-03  5.906667e+00  6.666667e-03
   endloop
 endfacet
 facet normal  0.000000e+00  0.000000e+00  1.000000e+00
   outer loop
     vertex  3.933333e-01  5.993333e+00  1.133333e-01
     vertex  6.666667e-03  5.993333e+00  1.133333e-01
     vertex  6.666667e-03  5.906667e+00  1.133333e-01
   endloop
 endfacet
 facet normal  0.000000e+00  0.000000e+00  1.000000e+00
   outer loop
     vertex  3.933333e-01  5.993333e+00  1.133333e-01
     vertex  6.666667e-03  5.906667e+00  1.133333e-01
     vertex  3.933333e-01  5.906667e+00  1.133333e-01
   endloop
 endfacet
 facet normal  2.297013e-15  1.000000e+00  0.000000e+00
   outer loop
     vertex  3.933333e-01  5.993333e+00  1.133333e-01
     vertex  3.933333e-01  5.993333e+00  6.666667e-03
     vertex  6.666667e-03  5.993333e+00  6.666667e-03
   endloop
 endfacet
 facet normal  2.297013e-15  1.000000e+00  0.000000e+00
   outer loop
     vertex  3.933333e-01  5.993333e+00  1.133333e-01
     vertex  6.666667e-03  5.993333e+00  6.666667e-03
     vertex  6.666667e-03  5.993333e+00  1.133333e-01
   endloop
 endfacet
 facet normal -0.000000e+00  0.000000e+00 -1.000000e+00
   outer loop
     vertex  3.933333e-01  5.993333e+00  6.666667e-03
     vertex  6.666667e-03  5.906667e+00  6.666667e-03
     vertex  6.666667e-03  5.993333e+00  6.666667e-03
   endloop
 endfacet
 facet normal  0.000000e+00 -0.000000e+00 -1.000000e+00
   outer loop
     vertex  3.933333e-01  5.993333e+00  6.666667e-03
     vertex  3.933333e-01  5.906667e+00  6.666667e-03
     vertex  6.666667e-03  5.906667e+00  6.666667e-03
   endloop
 endfacet
 facet normal  1.000000e+00  0.000000e+00  0.000000e+00
   outer loop
     vertex  3.933333e-01  5.906667e+00  1.133333e-01
     vertex  3.933333e-01  5.906667e+00  6.666667e-03
     vertex  3.933333e-01  5.993333e+00  6.666667e-03
   endloop
 endfacet
 facet normal  1.000000e+00 -0.000000e+00  0.000000e+00
   outer loop
     vertex  3.933333e-01  5.906667e+00  1.133333e-01
     vertex  3.933333e-01  5.993333e+00  6.666667e-03
     vertex  3.933333e-01  5.993333e+00  1.133333e-01
   endloop
 endfacet
 facet normal -1.000000e+00  2.183893e-16  0.000000e+00
   outer loop
     vertex  6.666667e-03  5.806667e+00  2.333333e-01
     vertex  6.666667e-03  5.993333e+00  1.266667e-01
     vertex  6.666667e-03  5.806667e+00  1.266667e-01
   endloop
 endfacet
 facet normal -1.000000e+00  2.183893e-16  0.000000e+00
   outer loop
     vertex  6.666667e-03  5.806667e+00  2.333333e-01
     vertex  6.666667e-03  5.993333e+00  2.333333e-01
     vertex  6.666667e-03  5.993333e+00  1.266667e-01
   endloop
 endfacet
 facet normal  0.000000e+00 -1.000000e+00 -0.000000e+00
   outer loop
     vertex  3.933333e-01  5.806667e+00  2.333333e-01
     vertex  6.666667e-03  5.806667e+00  1.266667e-01
     vertex  3.933333e-01  5.806667e+00  1.266667e-01
   endloop
 endfacet
 facet normal -0.000000e+00 -1.000000e+00  0.000000e+00
   outer loop
     vertex  3.933333e-01  5.806667e+00  2.333333e-01
     vertex  6.666667e-03  5.806667e+00  2.333333e-01
     vertex  6.666667e-03  5.806667e+00  1.266667e-01
   endloop
 endfacet
 facet normal  0.000000e+00  0.000000e+00  1.000000e+00
   outer loop
     vertex  3.933333e-01  5.993333e+00  2.333333e-01
     vertex  6.666667e-03  5.993333e+00  2.333333e-01
     vertex  6.666667e-03  5.806667e+00  2.333333e-01
   endloop
 endfacet
 facet normal  0.000000e+00  0.000000e+00  1.000000e+00
   outer loop
     vertex  3.933333e-01  5.993333e+00  2.333333e-01
     vertex  6.666667e-03  5.806667e+00  2.333333e-01
     vertex  3.933333e-01  5.806667e+00  2.333333e-01
   endloop
 endfacet
 facet normal  0.000000e+00  1.000000e+00  0.000000e+00
   outer loop
     vertex  3.933333e-01  5.993333e+00  2.333333e-01
     vertex  3.933333e-01  5.993333e+00  1.266667e-01
     vertex  6.666667e-03  5.993333e+00  1.266667e-01
   endloop
 endfacet
 facet normal  0.000000e+00  1.000000e+00  0.000000e+00
   outer loop
     vertex  3.933333e-01  5.993333e+00  2.333333e-01
     vertex  6.666667e-03  5.993333e+00  1.266667e-01
     vertex  6.666667e-03  5.993333e+00  2.333333e-01
   endloop
 endfacet
 facet normal -0.000000e+00  0.000000e+00 -1.000000e+00
   outer loop
     vertex  3.933333e-01  5.993333e+00  1.266667e-01
     vertex  6.666667e-03  5.806667e+00  1.266667e-01
     vertex  6.666667e-03  5.993333e+00  1.266667e-01
   endloop
 endfacet
 facet normal  0.000000e+00  0.000000e+00 -1.000000e+00
   outer loop
     vertex  3.933333e-01  5.993333e+00  1.266667e-01
     vertex  3.933333e-01  5.806667e+00  1.266667e-01
     vertex  6.666667e-03  5.806667e+00  1.266667e-01
   endloop
 endfacet
 facet normal  1.000000e+00 -2.973812e-16  0.000000e+00
   outer loop
     vertex  3.933333e-01  5.806667e+00  2.333333e-01
     vertex  3.933333e-01  5.806667e+00  1.266667e-01
     vertex  3.933333e-01  5.993333e+00  1.266667e-01
   endloop
 endfacet
 facet normal  1.000000e+00 -2.973812e-16  0.000000e+00
   outer loop
     vertex  3.933333e-01  5.806667e+00  2.333333e-01
     vertex  3.933333e-01  5.993333e+00  1.266667e-01
     vertex  3.933333e-01  5.993333e+00  2.333333e-01
   endloop
 endfacet
 facet normal -1.000000e+00  2.137427e-16  0.000000e+00
   outer loop
     vertex  6.666667e-03  5.606667e+00  2.333333e-01
     vertex  6.666667e-03  5.793333e+00  1.266667e-01
     vertex  6.666667e-03  5.606667e+00  1.266667e-01
   endloop
 endfacet
 facet normal -1.000000e+00  2.137427e-16  0.000000e+00
   outer loop
     vertex  6.666667e-03  5.606667e+00  2.333333e-01
     vertex  6.666667e-03  5.793333e+00  2.333333e-01
     vertex  6.666667e-03  5.793333e+00  1.266667e-01
   endloop
 endfacet
 facet normal  0.000000e+00 -1.000000e+00 -0.000000e+00
   outer loop
     vertex  3.933333e-01  5.606667e+00  2.333333e-01
     vertex  6.666667e-03  5.606667e+00  1.266667e-01
     vertex  3.933333e-01  5.606667e+00  1.266667e-01
   endloop
 endfacet
 facet normal -0.000000e+00 -1.000000e+00  0.000000e+00
   outer loop
     vertex  3.933333e-01  5.606667e+00  2.333333e-01
     vertex  6.666667e-03  5.606667e+00  2.333333e-01
     vertex  6.666667e-03  5.606667e+00  1.266667e-01
   endloop
 endfacet
 facet normal  0.000000e+00  0.000000e+00  1.000000e+00
   outer loop
     vertex  3.933333e-01  5.793333e+00  2.333333e-01
     vertex  6.666667e-03  5.793333e+00  2.333333e-01
     vertex  6.666667e-03  5.606667e+00  2.333333e-01
   endloop
 endfacet
 facet normal  0.000000e+00  0.000000e+00  1.000000e+00
   outer loop
     vertex  3.933333e-01  5.793333e+00  2.333333e-01
     vertex  6.666667e-03  5.606667e+00  2.333333e-01
     vertex  3.933333e-01  5.606667e+00  2.333333e-01
   endloop
 endfacet
 facet normal  0.000000e+00  1.000000e+00  0.000000e+00
   outer loop
     vertex  3.933333e-01  5.793333e+00  2.333333e-01
     vertex  3.933333e-01  5.793333e+00  1.266667e-01
     vertex  6.666667e-03  5.793333e+00  1.266667e-01
   endloop
 endfacet
 facet normal  0.000000e+00  1.000000e+00  0.000000e+00
   outer loop
     vertex  3.933333e-01  5.793333e+00  2.333333e-01
     vertex  6.666667e-03  5.793333e+00  1.266667e-01
     vertex  6.666667e-03  5.793333e+00  2.333333e-01
   endloop
 endfacet
 facet normal -0.000000e+00  0.000000e+00 -1.000000e+00
   outer loop
     vertex  3.933333e-01  5.793333e+00  1.266667e-01
     vertex  6.666667e-03  5.606667e+00  1.266667e-01
     vertex  6.666667e-03  5.793333e+00  1.266667e-01
   endloop
 endfacet
 facet normal  0.000000e+00  0.000000e+00 -1.000000e+00
   outer loop
     vertex  3.933333e-01  5.793333e+00  1.266667e-01
     vertex  3.933333e-01  5.606667e+00  1.266667e-01
     vertex  6.666667e-03  5.606667e+00  1.266667e-01
   endloop
 endfacet
 facet normal  1.000000e+00 -2.973812e-16  0.000000e+00
   outer loop
     vertex  3.933333e-01  5.606667e+00  2.333333e-01
     vertex  3.933333e-01  5.606667e+00  1.266667e-01
     vertex  3.933333e-01  5.793333e+00  1.266667e-01
   endloop
 endfacet
 facet normal  1.000000e+00 -2.973812e-16  0.000000e+00
   outer loop
     vertex  3.933333e-01  5.606667e+00  2.333333e-01
     vertex  3.933333e-01  5.793333e+00  1.266667e-01
     vertex  3.933333e-01  5.793333e+00  2.333333e-01
   endloop
 endfacet
 facet normal  0.000000e+00 -1.000000e+00 -0.000000e+00
   outer loop
     vertex  1.933333e-01  1.006667e+00  1.133333e-01
     vertex  6.666667e-03  1.006667e+00  6.666667e-03
     vertex  1.933333e-01  1.006667e+00  6.666667e-03
   endloop
 endfacet
 facet normal -0.000000e+00 -1.000000e+00  0.000000e+00
   outer loop
     vertex  1.933333e-01  1.006667e+00  1.133333e-01
     vertex  6.666667e-03  1.006667e+00  1.133333e-01
     vertex  6.666667e-03  1.006667e+00  6.666667e-03
   endloop
 endfacet
 facet normal  1.000000e+00 -2.153450e-16  0.000000e+00
   outer loop
     vertex  1.933333e-01  1.393333e+00  1.133333e-01
     vertex  1.933333e-01  1.006667e+00  6.666667e-03
     vertex  1.933333e-01  1.393333e+00  6.666667e-03
   endloop
 endfacet
 facet normal  1.000000e+00 -2.153450e-16  0.000000e+00
   outer loop
     vertex  1.933333e-01  1.393333e+00  1.133333e-01
     vertex  1.933333e-01  1.006667e+00  1.133333e-01
     vertex  1.933333e-01  1.006667e+00  6.666667e-03
   endloop
 endfacet
 facet normal  0.000000e+00  0.000000e+00  1.000000e+00
   outer loop
     vertex  6.666667e-03  1.393333e+00  1.133333e-01
     vertex  6.666667e-03  1.006667e+00  1.133333e-01
     vertex  1.933333e-01  1.006667e+00  1.133333e-01
   endloop
 endfacet
 facet normal -0.000000e+00  0.000000e+00  1.000000e+00
   outer loop
     vertex  6.666667e-03  1.393333e+00  1.133333e-01
     vertex  1.933333e-01  1.006667e+00  1.133333e-01
     vertex  1.933333e-01  1.393333e+00  1.133333e-01
   endloop
 endfacet
 facet normal -1.000000e+00  2.153450e-16  0.000000e+00
   outer loop
     vertex  6.666667e-03  1.393333e+00  1.133333e-01
     vertex  6.666667e-03  1.393333e+00  6.666667e-03
     vertex  6.666667e-03  1.006667e+00  6.666667e-03
   endloop
 endfacet
 facet normal -1.000000e+00  2.153450e-16  0.000000e+00
   outer loop
     vertex  6.666667e-03  1.393333e+00  1.133333e-01
     vertex  6.666667e-03  1.006667e+00  6.666667e-03
     vertex  6.666667e-03  1.006667e+00  1.133333e-01
   endloop
 endfacet
 facet normal  0.000000e+00 -0.000000e+00 -1.000000e+00
   outer loop
     vertex  6.666667e-03  1.393333e+00  6.666667e-03
     vertex  1.933333e-01  1.006667e+00  6.666667e-03
     vertex  6.666667e-03  1.006667e+00  6.666667e-03
   endloop
 endfacet
 facet normal  0.000000e+00  0.000000e+00 -1.000000e+00
   outer loop
     vertex  6.666667e-03  1.393333e+00  6.666667e-03
     vertex  1.933333e-01  1.393333e+00  6.666667e-03
     vertex  1.933333e-01  1.006667e+00  6.666667e-03
   endloop
 endfacet
 facet normal  0.000000e+00  1.000000e+00  0.000000e+00
   outer loop
     vertex  1.933333e-01  1.393333e+00  1.133333e-01
     vertex  1.933333e-01  1.393333e+00  6.666667e-03
     vertex  6.666667e-03  1.393333e+00  6.666667e-03
   endloop
 endfacet
 facet normal  0.000000e+00  1.000000e+00  0.000000e+00
   outer loop
     vertex  1.933333e-01  1.393333e+00  1.133333e-01
     vertex  6.666667e-03  1.393333e+00  6.666667e-03
     vertex  6.666667e-03  1.393333e+00  1.133333e-01
   endloop
 endfacet
 facet normal -1.000000e+00  2.183893e-16  0.000000e+00
   outer loop
     vertex  6.666667e-03  1.006667e+00  2.333333e-01
     vertex  6.666667e-03  1.193333e+00  1.266667e-01
     vertex  6.666667e-03  1.006667e+00  1.266667e-01
   endloop
 endfacet
 facet normal -1.000000e+00  2.183893e-16  0.000000e+00
   outer loop
     vertex  6.666667e-03  1.006667e+00  2.333333e-01
     vertex  6.666667e-03  1.193333e+00  2.333333e-01
     vertex  6.666667e-03  1.193333e+00  1.266667e-01
   endloop
 endfacet
 facet normal -5.742533e-16 -1.000000e+00 -0.000000e+00
   outer loop
     vertex  3.933333e-01  1.006667e+00  2.333333e-01
     vertex  6.666667e-03  1.006667e+00  1.266667e-01
     vertex  3.933333e-01  1.006667e+00  1.266667e-01
   endloop
 endfacet
 facet normal -5.742533e-16 -1.000000e+00  0.000000e+00
   outer loop
     vertex  3.933333e-01  1.006667e+00  2.333333e-01
     vertex  6.666667e-03  1.006667e+00  2.333333e-01
     vertex  6.666667e-03  1.006667e+00  1.266667e-01
   endloop
 endfacet
 facet normal  0.000000e+00  0.000000e+00  1.000000e+00
   outer loop
     vertex  3.933333e-01  1.193333e+00  2.333333e-01
     vertex  6.666667e-03  1.193333e+00  2.333333e-01
     vertex  6.666667e-03  1.006667e+00  2.333333e-01
   endloop
 endfacet
 facet normal  0.000000e+00  0.000000e+00  1.000000e+00
   outer loop
     vertex  3.933333e-01  1.193333e+00  2.333333e-01
     vertex  6.666667e-03  1.006667e+00  2.333333e-01
     vertex  3.933333e-01  1.006667e+00  2.333333e-01
   endloop
 endfacet
 facet normal  0.000000e+00  1.000000e+00  0.000000e+00
   outer loop
     vertex  3.933333e-01  1.193333e+00  2.333333e-01
     vertex  3.933333e-01  1.193333e+00  1.266667e-01
     vertex  6.666667e-03  1.193333e+00  1.266667e-01
   endloop
 endfacet
 facet normal  0.000000e+00  1.000000e+00  0.000000e+00
   outer loop
     vertex  3.933333e-01  1.193333e+00  2.333333e-01
     vertex  6.666667e-03  1.193333e+00  1.266667e-01
     vertex  6.666667e-03  1.193333e+00  2.333333e-01
   endloop
 endfacet
 facet normal -0.000000e+00  0.000000e+00 -1.000000e+00
   outer loop
     vertex  3.933333e-01  1.193333e+00  1.266667e-01
     vertex  6.666667e-03  1.006667e+00  1.266667e-01
     vertex  6.666667e-03  1.193333e+00  1.266667e-01
   endloop
 endfacet
 facet normal  0.000000e+00  0.000000e+00 -1.000000e+00
   outer loop
     vertex  3.933333e-01  1.193333e+00  1.266667e-01
     vertex  3.933333e-01  1.006667e+00  1.266667e-01
     vertex  6.666667e-03  1.006667e+00  1.266667e-01
   endloop
 endfacet
 facet normal  1.000000e+00 -2.973812e-16  0.000000e+00
   outer loop
     vertex  3.933333e-01  1.006667e+00  2.333333e-01
     vertex  3.933333e-01  1.006667e+00  1.266667e-01
     vertex  3.933333e-01  1.193333e+00  1.266667e-01
   endloop
 endfacet
 facet normal  1.000000e+00 -2.973812e-16  0.000000e+00
   outer loop
     vertex  3.933333e-01  1.006667e+00  2.333333e-01
     vertex  3.933333e-01  1.193333e+00  1.266667e-01
     vertex  3.933333e-01  1.193333e+00  2.333333e-01
   endloop
 endfacet
 facet normal -1.000000e+00  0.000000e+00  0.000000e+00
   outer loop
     vertex  2.066667e-01  1.006667e+00  1.133333e-01
     vertex  2.066667e-01  1.193333e+00  6.666667e-03
     vertex  2.066667e-01  1.006667e+00  6.666667e-03
   endloop
 endfacet
 facet normal -1.000000e+00  0.000000e+00  0.000000e+00
   outer loop
     vertex  2.066667e-01  1.006667e+00  1.133333e-01
     vertex  2.066667e-01  1.193333e+00  1.133333e-01
     vertex  2.066667e-01  1.193333e+00  6.666667e-03
   endloop
 endfacet
 facet normal  0.000000e+00 -1.000000e+00 -0.000000e+00
   outer loop
     vertex  5.933333e-01  1.006667e+00  1.133333e-01
     vertex  2.066667e-01  1.006667e+00  6.666667e-03
     vertex  5.933333e-01  1.006667e+00  6.666667e-03
   endloop
 endfacet
 facet normal -0.000000e+00 -1.000000e+00  0.000000e+00
   outer loop
     vertex  5.933333e-01  1.006667e+00  1.133333e-01
     vertex  2.066667e-01  1.006667e+00  1.133333e-01
     vertex  2.066667e-01  1.006667e+00  6.666667e-03
   endloop
 endfacet
 facet normal  0.000000e+00  0.000000e+00  1.000000e+00
   outer loop
     vertex  5.933333e-01  1.193333e+00  1.133333e-01
     vertex  2.066667e-01  1.193333e+00  1.133333e-01
     vertex  2.066667e-01  1.006667e+00  1.133333e-01
   endloop
 endfacet
 facet normal  0.000000e+00  0.000000e+00  1.000000e+00
   outer loop
     vertex  5.933333e-01  1.193333e+00  1.133333e-01
     vertex  2.066667e-01  1.006667e+00  1.133333e-01
     vertex  5.933333e-01  1.006667e+00  1.133333e-01
   endloop
 endfacet
 facet normal  0.000000e+00  1.000000e+00  0.000000e+00
   outer loop
     vertex  5.933333e-01  1.193333e+00  1.133333e-01
     vertex  5.933333e-01  1.193333e+00  6.666667e-03
     vertex  2.066667e-01  1.193333e+00  6.666667e-03
   endloop
 endfacet
 facet normal  0.000000e+00  1.000000e+00  0.000000e+00
   outer loop
     vertex  5.933333e-01  1.193333e+00  1.133333e-01
     vertex  2.066667e-01  1.193333e+00  6.666667e-03
     vertex  2.066667e-01  1.193333e+00  1.133333e-01
   endloop
 endfacet
 facet normal -0.000000e+00  0.000000e+00 -1.000000e+00
   outer loop
     vertex  5.933333e-01  1.193333e+00  6.666667e-03
     vertex  2.066667e-01  1.006667e+00  6.666667e-03
     vertex  2.066667e-01  1.193333e+00  6.666667e-03
   endloop
 endfacet
 facet normal  0.000000e+00 -0.000000e+00 -1.000000e+00
   outer loop
     vertex  5.933333e-01  1.193333e+00  6.666667e-03
     vertex  5.933333e-01  1.006667e+00  6.666667e-03
     vertex  2.066667e-01  1.006667e+00  6.666667e-03
   endloop
 endfacet
 facet normal  1.000000e+00  0.000000e+00  0.000000e+00
   outer loop
     vertex  5.933333e-01  1.006667e+00  1.133333e-01
     vertex  5.933333e-01  1.006667e+00  6.666667e-03
     vertex  5.933333e-01  1.193333e+00  6.666667e-03
   endloop
 endfacet
 facet normal  1.000000e+00 -0.000000e+00  0.000000e+00
   outer loop
     vertex  5.933333e-01  1.006667e+00  1.133333e-01
     vertex  5.933333e-01  1.193333e+00  6.666667e-03
     vertex  5.933333e-01  1.193333e+00  1.133333e-01
   endloop
 endfacet
 facet normal -1.000000e+00  0.000000e+00  0.000000e+00
   outer loop
     vertex  6.066667e-01  1.006667e+00  1.133333e-01
     vertex  6.066667e-01  1.193333e+00  6.666667e-03
     vertex  6.066667e-01  1.006667e+00  6.666667e-03
   endloop
 endfacet
 facet normal -1.000000e+00  0.000000e+00  0.000000e+00
   outer loop
     vertex  6.066667e-01  1.006667e+00  1.133333e-01
     vertex  6.066667e-01  1.193333e+00  1.133333e-01
     vertex  6.066667e-01  1.193333e+00  6.666667e-03
   endloop
 endfacet
 facet normal  0.000000e+00 -1.000000e+00 -0.000000e+00
   outer loop
     vertex  9.933333e-01  1.006667e+00  1.133333e-01
     vertex  6.066667e-01  1.006667e+00  6.666667e-03
     vertex  9.933333e-01  1.006667e+00  6.666667e-03
   endloop
 endfacet
 facet normal -0.000000e+00 -1.000000e+00  0.000000e+00
   outer loop
     vertex  9.933333e-01  1.006667e+00  1.133333e-01
     vertex  6.066667e-01  1.006667e+00  1.133333e-01
     vertex  6.066667e-01  1.006667e+00  6.666667e-03
   endloop
 endfacet
 facet normal  0.000000e+00  0.000000e+00  1.000000e+00
   outer loop
     vertex  9.933333e-01  1.193333e+00  1.133333e-01
     vertex  6.066667e-01  1.193333e+00  1.133333e-01
     vertex  6.066667e-01  1.006667e+00  1.133333e-01
   endloop
 endfacet
 facet normal  0.000000e+00  0.000000e+00  1.000000e+00
   outer loop
     vertex  9.933333e-01  1.193333e+00  1.133333e-01
     vertex  6.066667e-01  1.006667e+00  1.133333e-01
     vertex  9.933333e-01  1.006667e+00  1.133333e-01
   endloop
 endfacet
 facet normal  0.000000e+00  1.000000e+00  0.000000e+00
   outer loop
     vertex  9.933333e-01  1.193333e+00  1.133333e-01
     vertex  9.933333e-01  1.193333e+00  6.666667e-03
     vertex  6.066667e-01  1.193333e+00  6.666667e-03
   endloop
 endfacet
 facet normal  0.000000e+00  1.000000e+00  0.000000e+00
   outer loop
     vertex  9.933333e-01  1.193333e+00  1.133333e-01
     vertex  6.066667e-01  1.193333e+00  6.666667e-03
     vertex  6.066667e-01  1.193333e+00  1.133333e-01
   endloop
 endfacet
 facet normal -0.000000e+00  0.000000e+00 -1.000000e+00
   outer loop
     vertex  9.933333e-01  1.193333e+00  6.666667e-03
     vertex  6.066667e-01  1.006667e+00  6.666667e-03
     vertex  6.066667e-01  1.193333e+00  6.666667e-03
   endloop
 endfacet
 facet normal  0.000000e+00 -0.000000e+00 -1.000000e+00
   outer loop
     vertex  9.933333e-01  1.193333e+00  6.666667e-03
     vertex  9.933333e-01  1.006667e+00  6.666667e-03
     vertex  6.066667e-01  1.006667e+00  6.666667e-03
   endloop
 endfacet
 facet normal  1.000000e+00  0.000000e+00  0.000000e+00
   outer loop
     vertex  9.933333e-01  1.006667e+00  1.133333e-01
     vertex  9.933333e-01  1.006667e+00  6.666667e-03
     vertex  9.933333e-01  1.193333e+00  6.666667e-03
   endloop
 endfacet
 facet normal  1.000000e+00 -0.000000e+00  0.000000e+00
   outer loop
     vertex  9.933333e-01  1.006667e+00  1.133333e-01
     vertex  9.933333e-01  1.193333e+00  6.666667e-03
     vertex  9.933333e-01  1.193333e+00  1.133333e-01
   endloop
 endfacet
 facet normal -1.000000e+00  0.000000e+00  0.000000e+00
   outer loop
     vertex  1.006667e+00  1.006667e+00  1.133333e-01
     vertex  1.006667e+00  1.193333e+00  6.666667e-03
     vertex  1.006667e+00  1.006667e+00  6.666667e-03
   endloop
 endfacet
 facet normal -1.000000e+00  0.000000e+00  0.000000e+00
   outer loop
     vertex  1.006667e+00  1.006667e+00  1.133333e-01
     vertex  1.006667e+00  1.193333e+00  1.133333e-01
     vertex  1.006667e+00  1.193333e+00  6.666667e-03
   endloop
 endfacet
 facet normal  0.000000e+00 -1.000000e+00 -0.000000e+00
   outer loop
     vertex  1.193333e+00  1.006667e+00  1.133333e-01
     vertex  1.006667e+00  1.006667e+00  6.666667e-03
     vertex  1.193333e+00  1.006667e+00  6.666667e-03
   endloop
 endfacet
 facet normal -0.000000e+00 -1.000000e+00  0.000000e+00
   outer loop
     vertex  1.193333e+00  1.006667e+00  1.133333e-01
     vertex  1.006667e+00  1.006667e+00  1.133333e-01
     vertex  1.006667e+00  1.006667e+00  6.666667e-03
   endloop
 endfacet
 facet normal  0.000000e+00  0.000000e+00  1.000000e+00
   outer loop
     vertex  1.193333e+00  1.193333e+00  1.133333e-01
     vertex  1.006667e+00  1.193333e+00  1.133333e-01
     vertex  1.006667e+00  1.006667e+00  1.133333e-01
   endloop
 endfacet
 facet normal  0.000000e+00  0.000000e+00  1.000000e+00
   outer loop
     vertex  1.193333e+00  1.193333e+00  1.133333e-01
     vertex  1.006667e+00  1.006667e+00  1.133333e-01
     vertex  1.193333e+00  1.006667e+00  1.133333e-01
   endloop
 endfacet
 facet normal  0.000000e+00  1.000000e+00  0.000000e+00
   outer loop
     vertex  1.193333e+00  1.193333e+00  1.133333e-01
     vertex  1.193333e+00  1.193333e+00  6.666667e-03
     vertex  1.006667e+00  1.193333e+00  6.666667e-03
   endloop
 endfacet
 facet normal  0.000000e+00  1.000000e+00  0.000000e+00
   outer loop
     vertex  1.193333e+00  1.193333e+00  1.133333e-01
     vertex  1.006667e+00  1.193333e+00  6.666667e-03
     vertex  1.006667e+00  1.193333e+00  1.133333e-01
   endloop
 endfacet
 facet normal -0.000000e+00  0.000000e+00 -1.000000e+00
   outer loop
     vertex  1.193333e+00  1.193333e+00  6.666667e-03
     vertex  1.006667e+00  1.006667e+00  6.666667e-03
     vertex  1.006667e+00  1.193333e+00  6.666667e-03
   endloop
 endfacet
 facet normal  0.000000e+00 -0.000000e+00 -1.000000e+00
   outer loop
     vertex  1.193333e+00  1.193333e+00  6.666667e-03
     vertex  1.193333e+00  1.006667e+00  6.666667e-03
     vertex  1.006667e+00  1.006667e+00  6.666667e-03
   endloop
 endfacet
 facet normal  1.000000e+00  0.000000e+00  0.000000e+00
   outer loop
     vertex  1.193333e+00  1.006667e+00  1.133333e-01
     vertex  1.193333e+00  1.006667e+00  6.666667e-03
     vertex  1.193333e+00  1.193333e+00  6.666667e-03
   endloop
 endfacet
 facet normal  1.000000e+00 -0.000000e+00  0.000000e+00
   outer loop
     vertex  1.193333e+00  1.006667e+00  1.133333e-01
     vertex  1.193333e+00  1.193333e+00  6.666667e-03
     vertex  1.193333e+00  1.193333e+00  1.133333e-01
   endloop
 endfacet
 facet normal -1.000000e+00  0.000000e+00  0.000000e+00
   outer loop
     vertex  4.066667e-01  1.006667e+00  2.333333e-01
     vertex  4.066667e-01  1.193333e+00  1.266667e-01
     vertex  4.066667e-01  1.006667e+00  1.266667e-01
   endloop
 endfacet
 facet normal -1.000000e+00  0.000000e+00  0.000000e+00
   outer loop
     vertex  4.066667e-01  1.006667e+00  2.333333e-01
     vertex  4.066667e-01  1.193333e+00  2.333333e-01
     vertex  4.066667e-01  1.193333e+00  1.266667e-01
   endloop
 endfacet
 facet normal  0.000000e+00 -1.000000e+00 -0.000000e+00
   outer loop
     vertex  7.933333e-01  1.006667e+00  2.333333e-01
     vertex  4.066667e-01  1.006667e+00  1.266667e-01
     vertex  7.933333e-01  1.006667e+00  1.266667e-01
   endloop
 endfacet
 facet normal -0.000000e+00 -1.000000e+00  0.000000e+00
   outer loop
     vertex  7.933333e-01  1.006667e+00  2.333333e-01
     vertex  4.066667e-01  1.006667e+00  2.333333e-01
     vertex  4.066667e-01  1.006667e+00  1.266667e-01
   endloop
 endfacet
 facet normal  0.000000e+00  0.000000e+00  1.000000e+00
   outer loop
     vertex  7.933333e-01  1.193333e+00  2.333333e-01
     vertex  4.066667e-01  1.193333e+00  2.333333e-01
     vertex  4.066667e-01  1.006667e+00  2.333333e-01
   endloop
 endfacet
 facet normal  0.000000e+00  0.000000e+00  1.000000e+00
   outer loop
     vertex  7.933333e-01  1.193333e+00  2.333333e-01
     vertex  4.066667e-01  1.006667e+00  2.333333e-01
     vertex  7.933333e-01  1.006667e+00  2.333333e-01
   endloop
 endfacet
 facet normal  0.000000e+00  1.000000e+00  0.000000e+00
   outer loop
     vertex  7.933333e-01  1.193333e+00  2.333333e-01
     vertex  7.933333e-01  1.193333e+00  1.266667e-01
     vertex  4.066667e-01  1.193333e+00  1.266667e-01
   endloop
 endfacet
 facet normal  0.000000e+00  1.000000e+00  0.000000e+00
   outer loop
     vertex  7.933333e-01  1.193333e+00  2.333333e-01
     vertex  4.066667e-01  1.193333e+00  1.266667e-01
     vertex  4.066667e-01  1.193333e+00  2.333333e-01
   endloop
 endfacet
 facet normal -0.000000e+00  0.000000e+00 -1.000000e+00
   outer loop
     vertex  7.933333e-01  1.193333e+00  1.266667e-01
     vertex  4.066667e-01  1.006667e+00  1.266667e-01
     vertex  4.066667e-01  1.193333e+00  1.266667e-01
   endloop
 endfacet
 facet normal  0.000000e+00 -0.000000e+00 -1.000000e+00
   outer loop
     vertex  7.933333e-01  1.193333e+00  1.266667e-01
     vertex  7.933333e-01  1.006667e+00  1.266667e-01
     vertex  4.066667e-01  1.006667e+00  1.266667e-01
   endloop
 endfacet
 facet normal  1.000000e+00  0.000000e+00  0.000000e+00
   outer loop
     vertex  7.933333e-01  1.006667e+00  2.333333e-01
     vertex  7.933333e-01  1.006667e+00  1.266667e-01
     vertex  7.933333e-01  1.193333e+00  1.266667e-01
   endloop
 endfacet
 facet normal  1.000000e+00 -0.000000e+00  0.000000e+00
   outer loop
     vertex  7.933333e-01  1.006667e+00  2.333333e-01
     vertex  7.933333e-01  1.193333e+00  1.266667e-01
     vertex  7.933333e-01  1.193333e+00  2.333333e-01
   endloop
 endfacet
 facet normal -1.000000e+00  0.000000e+00  0.000000e+00
   outer loop
     vertex  8.066667e-01  1.006667e+00  2.333333e-01
     vertex  8.066667e-01  1.193333e+00  1.266667e-01
     vertex  8.066667e-01  1.006667e+00  1.266667e-01
   endloop
 endfacet
 facet normal -1.000000e+00  0.000000e+00  0.000000e+00
   outer loop
     vertex  8.066667e-01  1.006667e+00  2.333333e-01
     vertex  8.066667e-01  1.193333e+00  2.333333e-01
     vertex  8.066667e-01  1.193333e+00  1.266667e-01
   endloop
 endfacet
 facet normal  0.000000e+00 -1.000000e+00 -0.000000e+00
   outer loop
     vertex  1.193333e+00  1.006667e+00  2.333333e-01
     vertex  8.066667e-01  1.006667e+00  1.266667e-01
     vertex  1.193333e+00  1.006667e+00  1.266667e-01
   endloop
 endfacet
 facet normal -0.000000e+00 -1.000000e+00  0.000000e+00
   outer loop
     vertex  1.193333e+00  1.006667e+00  2.333333e-01
     vertex  8.066667e-01  1.006667e+00  2.333333e-01
     vertex  8.066667e-01  1.006667e+00  1.266667e-01
   endloop
 endfacet
 facet normal  0.000000e+00  0.000000e+00  1.000000e+00
   outer loop
     vertex  1.193333e+00  1.193333e+00  2.333333e-01
     vertex  8.066667e-01  1.193333e+00  2.333333e-01
     vertex  8.066667e-01  1.006667e+00  2.333333e-01
   endloop
 endfacet
 facet normal  0.000000e+00  0.000000e+00  1.000000e+00
   outer loop
     vertex  1.193333e+00  1.193333e+00  2.333333e-01
     vertex  8.066667e-01  1.006667e+00  2.333333e-01
     vertex  1.193333e+00  1.006667e+00  2.333333e-01
   endloop
 endfacet
 facet normal  0.000000e+00  1.000000e+00  0.000000e+00
   outer loop
     vertex  1.193333e+00  1.193333e+00  2.333333e-01
     vertex  1.193333e+00  1.193333e+00  1.266667e-01
     vertex  8.066667e-01  1.193333e+00  1.266667e-01
   endloop
 endfacet
 facet normal  0.000000e+00  1.000000e+00  0.000000e+00
   outer loop
     vertex  1.193333e+00  1.193333e+00  2.333333e-01
     vertex  8.066667e-01  1.193333e+00  1.266667e-01
     vertex  8.066667e-01  1.193333e+00  2.333333e-01
   endloop
 endfacet
 facet normal -0.000000e+00  0.000000e+00 -1.000000e+00
   outer loop
     vertex  1.193333e+00  1.193333e+00  1.266667e-01
     vertex  8.066667e-01  1.006667e+00  1.266667e-01
     vertex  8.066667e-01  1.193333e+00  1.266667e-01
   endloop
 endfacet
 facet normal  0.000000e+00 -0.000000e+00 -1.000000e+00
   outer loop
     vertex  1.193333e+00  1.193333e+00  1.266667e-01
     vertex  1.193333e+00  1.006667e+00  1.266667e-01
     vertex  8.066667e-01  1.006667e+00  1.266667e-01
   endloop
 endfacet
 facet normal  1.000000e+00  0.000000e+00  0.000000e+00
   outer loop
     vertex  1.193333e+00  1.006667e+00  2.333333e-01
     vertex  1.193333e+00  1.006667e+00  1.266667e-01
     vertex  1.193333e+00  1.193333e+00  1.266667e-01
   endloop
 endfacet
 facet normal  1.000000e+00 -0.000000e+00  0.000000e+00
   outer loop
     vertex  1.193333e+00  1.006667e+00  2.333333e-01
     vertex  1.193333e+00  1.193333e+00  1.266667e-01
     vertex  1.193333e+00  1.193333e+00  2.333333e-01
   endloop
 endfacet
 facet normal  1.189525e-15  1.000000e+00  0.000000e+00
   outer loop
     vertex  6.666667e-03  1.993333e+00  1.133333e-01
     vertex  1.933333e-01  1.993333e+00  6.666667e-03
     vertex  6.666667e-03  1.993333e+00  6.666667e-03
   endloop
 endfacet
 facet normal  1.189525e-15  1.000000e+00  0.000000e+00
   outer loop
     vertex  6.666667e-03  1.993333e+00  1.133333e-01
     vertex  1.933333e-01  1.993333e+00  1.133333e-01
     vertex  1.933333e-01  1.993333e+00  6.666667e-03
   endloop
 endfacet
 facet normal -1.000000e+00  2.183893e-16  0.000000e+00
   outer loop
     vertex  6.666667e-03  1.806667e+00  1.133333e-01
     vertex  6.666667e-03  1.993333e+00  6.666667e-03
     vertex  6.666667e-03  1.806667e+00  6.666667e-03
   endloop
 endfacet
 facet normal -1.000000e+00  2.183893e-16  0.000000e+00
   outer loop
     vertex  6.666667e-03  1.806667e+00  1.133333e-01
     vertex  6.666667e-03  1.993333e+00  1.133333e-01
     vertex  6.666667e-03  1.993333e+00  6.666667e-03
   endloop
 endfacet
 facet normal  0.000000e+00 -0.000000e+00  1.000000e+00
   outer loop
     vertex  1.933333e-01  1.806667e+00  1.133333e-01
     vertex  1.933333e-01  1.993333e+00  1.133333e-01
     vertex  6.666667e-03  1.993333e+00  1.133333e-01
   endloop
 endfacet
 facet normal  0.000000e+00  0.000000e+00  1.000000e+00
   outer loop
     vertex  1.933333e-01  1.806667e+00  1.133333e-01
     vertex  6.666667e-03  1.993333e+00  1.133333e-01
     vertex  6.666667e-03  1.806667e+00  1.133333e-01
   endloop
 endfacet
 facet normal  1.000000e+00 -2.973812e-16  0.000000e+00
   outer loop
     vertex  1.933333e-01  1.806667e+00  1.133333e-01
     vertex  1.933333e-01  1.806667e+00  6.666667e-03
     vertex  1.933333e-01  1.993333e+00  6.666667e-03
   endloop
 endfacet
 facet normal  1.000000e+00 -2.973812e-16  0.000000e+00
   outer loop
     vertex  1.933333e-01  1.806667e+00  1.133333e-01
     vertex  1.933333e-01  1.993333e+00  6.666667e-03
     vertex  1.933333e-01  1.993333e+00  1.133333e-01
   endloop
 endfacet
 facet normal  0.000000e+00  0.000000e+00 -1.000000e+00
   outer loop
     vertex  1.933333e-01  1.806667e+00  6.666667e-03
     vertex  6.666667e-03  1.993333e+00  6.666667e-03
     vertex  1.933333e-01  1.993333e+00  6.666667e-03
   endloop
 endfacet
 facet normal  0.000000e+00  0.000000e+00 -1.000000e+00
   outer loop
     vertex  1.933333e-01  1.806667e+00  6.666667e-03
     vertex  6.666667e-03  1.806667e+00  6.666667e-03
     vertex  6.666667e-03  1.993333e+00  6.666667e-03
   endloop
 endfacet
 facet normal  0.000000e+00 -1.000000e+00  0.000000e+00
   outer loop
     vertex  6.666667e-03  1.806667e+00  1.133333e-01
     vertex  6.666667e-03  1.806667e+00  6.666667e-03
     vertex  1.933333e-01  1.806667e+00  6.666667e-03
   endloop
 endfacet
 facet normal  0.000000e+00 -1.000000e+00  0.000000e+00
   outer loop
     vertex  6.666667e-03  1.806667e+00  1.133333e-01
     vertex  1.933333e-01  1.806667e+00  6.666667e-03
     vertex  1.933333e-01  1.806667e+00  1.133333e-01
   endloop
 endfacet
 facet normal  1.189525e-15  1.000000e+00  0.000000e+00
   outer loop
     vertex  6.666667e-03  1.993333e+00  2.333333e-01
     vertex  1.933333e-01  1.993333e+00  1.266667e-01
     vertex  6.666667e-03  1.993333e+00  1.266667e-01
   endloop
 endfacet
 facet normal  1.189525e-15  1.000000e+00  0.000000e+00
   outer loop
     vertex  6.666667e-03  1.993333e+00  2.333333e-01
     vertex  1.933333e-01  1.993333e+00  2.333333e-01
     vertex  1.933333e-01  1.993333e+00  1.266667e-01
   endloop
 endfacet
 facet normal -1.000000e+00  2.220745e-16  0.000000e+00
   outer loop
     vertex  6.666667e-03  1.606667e+00  2.333333e-01
     vertex  6.666667e-03  1.993333e+00  1.266667e-01
     vertex  6.666667e-03  1.606667e+00  1.266667e-01
   endloop
 endfacet
 facet normal -1.000000e+00  2.220745e-16  0.000000e+00
   outer loop
     vertex  6.666667e-03  1.606667e+00  2.333333e-01
     vertex  6.666667e-03  1.993333e+00  2.333333e-01
     vertex  6.666667e-03  1.993333e+00  1.266667e-01
   endloop
 endfacet
 facet normal  0.000000e+00 -0.000000e+00  1.000000e+00
   outer loop
     vertex  1.933333e-01  1.606667e+00  2.333333e-01
     vertex  1.933333e-01  1.993333e+00  2.333333e-01
     vertex  6.666667e-03  1.993333e+00  2.333333e-01
   endloop
 endfacet
 facet normal  0.000000e+00  0.000000e+00  1.000000e+00
   outer loop
     vertex  1.933333e-01  1.606667e+00  2.333333e-01
     vertex  6.666667e-03  1.993333e+00  2.333333e-01
     vertex  6.666667e-03  1.606667e+00  2.333333e-01
   endloop
 endfacet
 facet normal  1.000000e+00 -2.153450e-16  0.000000e+00
   outer loop
     vertex  1.933333e-01  1.606667e+00  2.333333e-01
     vertex  1.933333e-01  1.606667e+00  1.266667e-01
     vertex  1.933333e-01  1.993333e+00  1.266667e-01
   endloop
 endfacet
 facet normal  1.000000e+00 -2.153450e-16  0.000000e+00
   outer loop
     vertex  1.933333e-01  1.606667e+00  2.333333e-01
     vertex  1.933333e-01  1.993333e+00  1.266667e-01
     vertex  1.933333e-01  1.993333e+00  2.333333e-01
   endloop
 endfacet
 facet normal  0.000000e+00  0.000000e+00 -1.000000e+00
   outer loop
     vertex  1.933333e-01  1.606667e+00  1.266667e-01
     vertex  6.666667e-03  1.993333e+00  1.266667e-01
     vertex  1.933333e-01  1.993333e+00  1.266667e-01
   endloop
 endfacet
 facet normal  0.000000e+00  0.000000e+00 -1.000000e+00
   outer loop
     vertex  1.933333e-01  1.606667e+00  1.266667e-01
     vertex  6.666667e-03  1.606667e+00  1.266667e-01
     vertex  6.666667e-03  1.993333e+00  1.266667e-01
   endloop
 endfacet
 facet normal -1.189525e-15 -1.000000e+00 -0.000000e+00
   outer loop
     vertex  6.666667e-03  1.606667e+00  2.333333e-01
     vertex  6.666667e-03  1.606667e+00  1.266667e-01
     vertex  1.933333e-01  1.606667e+00  1.266667e-01
   endloop
 endfacet
 facet normal -1.189525e-15 -1.000000e+00  0.000000e+00
   outer loop
     vertex  6.666667e-03  1.606667e+00  2.333333e-01
     vertex  1.933333e-01  1.606667e+00  1.266667e-01
     vertex  1.933333e-01  1.606667e+00  2.333333e-01
   endloop
 endfacet
 facet normal  1.189525e-15  1.000000e+00  0.000000e+00
   outer loop
     vertex  6.666667e-03  1.593333e+00  2.333333e-01
     vertex  1.933333e-01  1.593333e+00  1.266667e-01
     vertex  6.666667e-03  1.593333e+00  1.266667e-01
   endloop
 endfacet
 facet normal  1.189525e-15  1.000000e+00  0.000000e+00
   outer loop
     vertex  6.666667e-03  1.593333e+00  2.333333e-01
     vertex  1.933333e-01  1.593333e+00  2.333333e-01
     vertex  1.933333e-01  1.593333e+00  1.266667e-01
   endloop
 endfacet
 facet normal -1.000000e+00  2.220745e-16  0.000000e+00
   outer loop
     vertex  6.666667e-03  1.206667e+00  2.333333e-01
     vertex  6.666667e-03  1.593333e+00  1.266667e-01
     vertex  6.666667e-03  1.206667e+00  1.266667e-01
   endloop
 endfacet
 facet normal -1.000000e+00  2.220745e-16  0.000000e+00
   outer loop
     vertex  6.666667e-03  1.206667e+00  2.333333e-01
     vertex  6.666667e-03  1.593333e+00  2.333333e-01
     vertex  6.666667e-03  1.593333e+00  1.266667e-01
   endloop
 endfacet
 facet normal  0.000000e+00 -0.000000e+00  1.000000e+00
   outer loop
     vertex  1.933333e-01  1.206667e+00  2.333333e-01
     vertex  1.933333e-01  1.593333e+00  2.333333e-01
     vertex  6.666667e-03  1.593333e+00  2.333333e-01
   endloop
 endfacet
 facet normal  0.000000e+00  0.000000e+00  1.000000e+00
   outer loop
     vertex  1.933333e-01  1.206667e+00  2.333333e-01
     vertex  6.666667e-03  1.593333e+00  2.333333e-01
     vertex  6.666667e-03  1.206667e+00  2.333333e-01
   endloop
 endfacet
 facet normal  1.000000e+00 -2.153450e-16  0.000000e+00
   outer loop
     vertex  1.933333e-01  1.206667e+00  2.333333e-01
     vertex  1.933333e-01  1.206667e+00  1.266667e-01
     vertex  1.933333e-01  1.593333e+00  1.266667e-01
   endloop
 endfacet
 facet normal  1.000000e+00 -2.153450e-16  0.000000e+00
   outer loop
     vertex  1.933333e-01  1.206667e+00  2.333333e-01
     vertex  1.933333e-01  1.593333e+00  1.266667e-01
     vertex  1.933333e-01  1.593333e+00  2.333333e-01
   endloop
 endfacet
 facet normal  0.000000e+00  0.000000e+00 -1.000000e+00
   outer loop
     vertex  1.933333e-01  1.206667e+00  1.266667e-01
     vertex  6.666667e-03  1.593333e+00  1.266667e-01
     vertex  1.933333e-01  1.593333e+00  1.266667e-01
   endloop
 endfacet
 facet normal  0.000000e+00  0.000000e+00 -1.000000e+00
   outer loop
     vertex  1.933333e-01  1.206667e+00  1.266667e-01
     vertex  6.666667e-03  1.206667e+00  1.266667e-01
     vertex  6.666667e-03  1.593333e+00  1.266667e-01
   endloop
 endfacet
 facet normal -1.189525e-15 -1.000000e+00 -0.000000e+00
   outer loop
     vertex  6.666667e-03  1.206667e+00  2.333333e-01
     vertex  6.666667e-03  1.206667e+00  1.266667e-01
     vertex  1.933333e-01  1.206667e+00  1.266667e-01
   endloop
 endfacet
 facet normal -1.189525e-15 -1.000000e+00  0.000000e+00
   outer loop
     vertex  6.666667e-03  1.206667e+00  2.333333e-01
     vertex  1.933333e-01  1.206667e+00  1.266667e-01
     vertex  1.933333e-01  1.206667e+00  2.333333e-01
   endloop
 endfacet
endsolid
