solid 
 facet normal  0.000000e+00 -1.000000e+00 -0.000000e+00
   outer loop
     vertex  1.046750e+01 -9.675000e-01  2.175000e-01
     vertex  9.532500e+00 -9.675000e-01 -2.175000e-01
     vertex  1.046750e+01 -9.675000e-01 -2.175000e-01
   endloop
 endfacet
 facet normal -0.000000e+00 -1.000000e+00  0.000000e+00
   outer loop
     vertex  1.046750e+01 -9.675000e-01  2.175000e-01
     vertex  9.532500e+00 -9.675000e-01  2.175000e-01
     vertex  9.532500e+00 -9.675000e-01 -2.175000e-01
   endloop
 endfacet
 facet normal  1.000000e+00  0.000000e+00  0.000000e+00
   outer loop
     vertex  1.046750e+01  9.675000e-01  2.175000e-01
     vertex  1.046750e+01 -9.675000e-01 -2.175000e-01
     vertex  1.046750e+01  9.675000e-01 -2.175000e-01
   endloop
 endfacet
 facet normal  1.000000e+00  0.000000e+00  0.000000e+00
   outer loop
     vertex  1.046750e+01  9.675000e-01  2.175000e-01
     vertex  1.046750e+01 -9.675000e-01  2.175000e-01
     vertex  1.046750e+01 -9.675000e-01 -2.175000e-01
   endloop
 endfacet
 facet normal  0.000000e+00  0.000000e+00  1.000000e+00
   outer loop
     vertex  9.532500e+00  9.675000e-01  2.175000e-01
     vertex  9.532500e+00 -9.675000e-01  2.175000e-01
     vertex  1.046750e+01 -9.675000e-01  2.175000e-01
   endloop
 endfacet
 facet normal -0.000000e+00  0.000000e+00  1.000000e+00
   outer loop
     vertex  9.532500e+00  9.675000e-01  2.175000e-01
     vertex  1.046750e+01 -9.675000e-01  2.175000e-01
     vertex  1.046750e+01  9.675000e-01  2.175000e-01
   endloop
 endfacet
 facet normal -1.000000e+00  0.000000e+00 -0.000000e+00
   outer loop
     vertex  9.532500e+00  9.675000e-01  2.175000e-01
     vertex  9.532500e+00  9.675000e-01 -2.175000e-01
     vertex  9.532500e+00 -9.675000e-01 -2.175000e-01
   endloop
 endfacet
 facet normal -1.000000e+00 -0.000000e+00  0.000000e+00
   outer loop
     vertex  9.532500e+00  9.675000e-01  2.175000e-01
     vertex  9.532500e+00 -9.675000e-01 -2.175000e-01
     vertex  9.532500e+00 -9.675000e-01  2.175000e-01
   endloop
 endfacet
 facet normal  0.000000e+00  0.000000e+00 -1.000000e+00
   outer loop
     vertex  9.532500e+00  9.675000e-01 -2.175000e-01
     vertex  1.046750e+01 -9.675000e-01 -2.175000e-01
     vertex  9.532500e+00 -9.675000e-01 -2.175000e-01
   endloop
 endfacet
 facet normal  0.000000e+00  0.000000e+00 -1.000000e+00
   outer loop
     vertex  9.532500e+00  9.675000e-01 -2.175000e-01
     vertex  1.046750e+01  9.675000e-01 -2.175000e-01
     vertex  1.046750e+01 -9.675000e-01 -2.175000e-01
   endloop
 endfacet
 facet normal  0.000000e+00  1.000000e+00  0.000000e+00
   outer loop
     vertex  1.046750e+01  9.675000e-01  2.175000e-01
     vertex  1.046750e+01  9.675000e-01 -2.175000e-01
     vertex  9.532500e+00  9.675000e-01 -2.175000e-01
   endloop
 endfacet
 facet normal  0.000000e+00  1.000000e+00  0.000000e+00
   outer loop
     vertex  1.046750e+01  9.675000e-01  2.175000e-01
     vertex  9.532500e+00  9.675000e-01 -2.175000e-01
     vertex  9.532500e+00  9.675000e-01  2.175000e-01
   endloop
 endfacet
endsolid
