solid 
 facet normal -1.000000e+00  0.000000e+00  0.000000e+00
   outer loop
     vertex  1.103250e+01  5.032500e+00  9.675000e-01
     vertex  1.103250e+01  5.967500e+00  5.325000e-01
     vertex  1.103250e+01  5.032500e+00  5.325000e-01
   endloop
 endfacet
 facet normal -1.000000e+00  0.000000e+00  0.000000e+00
   outer loop
     vertex  1.103250e+01  5.032500e+00  9.675000e-01
     vertex  1.103250e+01  5.967500e+00  9.675000e-01
     vertex  1.103250e+01  5.967500e+00  5.325000e-01
   endloop
 endfacet
 facet normal  1.000000e+00  0.000000e+00  0.000000e+00
   outer loop
     vertex  1.296750e+01  5.032500e+00  9.675000e-01
     vertex  1.296750e+01  5.032500e+00  5.325000e-01
     vertex  1.296750e+01  5.967500e+00  5.325000e-01
   endloop
 endfacet
 facet normal  1.000000e+00 -0.000000e+00  0.000000e+00
   outer loop
     vertex  1.296750e+01  5.032500e+00  9.675000e-01
     vertex  1.296750e+01  5.967500e+00  5.325000e-01
     vertex  1.296750e+01  5.967500e+00  9.675000e-01
   endloop
 endfacet
 facet normal  0.000000e+00 -1.000000e+00 -0.000000e+00
   outer loop
     vertex  1.296750e+01  5.032500e+00  9.675000e-01
     vertex  1.103250e+01  5.032500e+00  5.325000e-01
     vertex  1.296750e+01  5.032500e+00  5.325000e-01
   endloop
 endfacet
 facet normal -0.000000e+00 -1.000000e+00  0.000000e+00
   outer loop
     vertex  1.296750e+01  5.032500e+00  9.675000e-01
     vertex  1.103250e+01  5.032500e+00  9.675000e-01
     vertex  1.103250e+01  5.032500e+00  5.325000e-01
   endloop
 endfacet
 facet normal  0.000000e+00  1.000000e+00  0.000000e+00
   outer loop
     vertex  1.296750e+01  5.967500e+00  9.675000e-01
     vertex  1.296750e+01  5.967500e+00  5.325000e-01
     vertex  1.103250e+01  5.967500e+00  5.325000e-01
   endloop
 endfacet
 facet normal  0.000000e+00  1.000000e+00  0.000000e+00
   outer loop
     vertex  1.296750e+01  5.967500e+00  9.675000e-01
     vertex  1.103250e+01  5.967500e+00  5.325000e-01
     vertex  1.103250e+01  5.967500e+00  9.675000e-01
   endloop
 endfacet
 facet normal -0.000000e+00  0.000000e+00 -1.000000e+00
   outer loop
     vertex  1.296750e+01  5.967500e+00  5.325000e-01
     vertex  1.103250e+01  5.032500e+00  5.325000e-01
     vertex  1.103250e+01  5.967500e+00  5.325000e-01
   endloop
 endfacet
 facet normal  0.000000e+00 -0.000000e+00 -1.000000e+00
   outer loop
     vertex  1.296750e+01  5.967500e+00  5.325000e-01
     vertex  1.296750e+01  5.032500e+00  5.325000e-01
     vertex  1.103250e+01  5.032500e+00  5.325000e-01
   endloop
 endfacet
 facet normal  0.000000e+00  0.000000e+00  1.000000e+00
   outer loop
     vertex  1.296750e+01  5.967500e+00  9.675000e-01
     vertex  1.103250e+01  5.967500e+00  9.675000e-01
     vertex  1.103250e+01  5.032500e+00  9.675000e-01
   endloop
 endfacet
 facet normal  0.000000e+00  0.000000e+00  1.000000e+00
   outer loop
     vertex  1.296750e+01  5.967500e+00  9.675000e-01
     vertex  1.103250e+01  5.032500e+00  9.675000e-01
     vertex  1.296750e+01  5.032500e+00  9.675000e-01
   endloop
 endfacet
 facet normal -1.000000e+00  0.000000e+00  0.000000e+00
   outer loop
     vertex  9.032500e+00  5.032500e+00  9.675000e-01
     vertex  9.032500e+00  5.967500e+00  5.325000e-01
     vertex  9.032500e+00  5.032500e+00  5.325000e-01
   endloop
 endfacet
 facet normal -1.000000e+00  0.000000e+00  0.000000e+00
   outer loop
     vertex  9.032500e+00  5.032500e+00  9.675000e-01
     vertex  9.032500e+00  5.967500e+00  9.675000e-01
     vertex  9.032500e+00  5.967500e+00  5.325000e-01
   endloop
 endfacet
 facet normal  1.000000e+00  0.000000e+00  0.000000e+00
   outer loop
     vertex  1.096750e+01  5.032500e+00  9.675000e-01
     vertex  1.096750e+01  5.032500e+00  5.325000e-01
     vertex  1.096750e+01  5.967500e+00  5.325000e-01
   endloop
 endfacet
 facet normal  1.000000e+00 -0.000000e+00  0.000000e+00
   outer loop
     vertex  1.096750e+01  5.032500e+00  9.675000e-01
     vertex  1.096750e+01  5.967500e+00  5.325000e-01
     vertex  1.096750e+01  5.967500e+00  9.675000e-01
   endloop
 endfacet
 facet normal  0.000000e+00 -1.000000e+00 -0.000000e+00
   outer loop
     vertex  1.096750e+01  5.032500e+00  9.675000e-01
     vertex  9.032500e+00  5.032500e+00  5.325000e-01
     vertex  1.096750e+01  5.032500e+00  5.325000e-01
   endloop
 endfacet
 facet normal -0.000000e+00 -1.000000e+00  0.000000e+00
   outer loop
     vertex  1.096750e+01  5.032500e+00  9.675000e-01
     vertex  9.032500e+00  5.032500e+00  9.675000e-01
     vertex  9.032500e+00  5.032500e+00  5.325000e-01
   endloop
 endfacet
 facet normal  0.000000e+00  1.000000e+00  0.000000e+00
   outer loop
     vertex  1.096750e+01  5.967500e+00  9.675000e-01
     vertex  1.096750e+01  5.967500e+00  5.325000e-01
     vertex  9.032500e+00  5.967500e+00  5.325000e-01
   endloop
 endfacet
 facet normal  0.000000e+00  1.000000e+00  0.000000e+00
   outer loop
     vertex  1.096750e+01  5.967500e+00  9.675000e-01
     vertex  9.032500e+00  5.967500e+00  5.325000e-01
     vertex  9.032500e+00  5.967500e+00  9.675000e-01
   endloop
 endfacet
 facet normal -0.000000e+00  0.000000e+00 -1.000000e+00
   outer loop
     vertex  1.096750e+01  5.967500e+00  5.325000e-01
     vertex  9.032500e+00  5.032500e+00  5.325000e-01
     vertex  9.032500e+00  5.967500e+00  5.325000e-01
   endloop
 endfacet
 facet normal  0.000000e+00 -0.000000e+00 -1.000000e+00
   outer loop
     vertex  1.096750e+01  5.967500e+00  5.325000e-01
     vertex  1.096750e+01  5.032500e+00  5.325000e-01
     vertex  9.032500e+00  5.032500e+00  5.325000e-01
   endloop
 endfacet
 facet normal  0.000000e+00  0.000000e+00  1.000000e+00
   outer loop
     vertex  1.096750e+01  5.967500e+00  9.675000e-01
     vertex  9.032500e+00  5.967500e+00  9.675000e-01
     vertex  9.032500e+00  5.032500e+00  9.675000e-01
   endloop
 endfacet
 facet normal  0.000000e+00  0.000000e+00  1.000000e+00
   outer loop
     vertex  1.096750e+01  5.967500e+00  9.675000e-01
     vertex  9.032500e+00  5.032500e+00  9.675000e-01
     vertex  1.096750e+01  5.032500e+00  9.675000e-01
   endloop
 endfacet
 facet normal -1.000000e+00  0.000000e+00  0.000000e+00
   outer loop
     vertex  7.032500e+00  5.032500e+00  9.675000e-01
     vertex  7.032500e+00  5.967500e+00  5.325000e-01
     vertex  7.032500e+00  5.032500e+00  5.325000e-01
   endloop
 endfacet
 facet normal -1.000000e+00  0.000000e+00  0.000000e+00
   outer loop
     vertex  7.032500e+00  5.032500e+00  9.675000e-01
     vertex  7.032500e+00  5.967500e+00  9.675000e-01
     vertex  7.032500e+00  5.967500e+00  5.325000e-01
   endloop
 endfacet
 facet normal  1.000000e+00  0.000000e+00  0.000000e+00
   outer loop
     vertex  8.967500e+00  5.032500e+00  9.675000e-01
     vertex  8.967500e+00  5.032500e+00  5.325000e-01
     vertex  8.967500e+00  5.967500e+00  5.325000e-01
   endloop
 endfacet
 facet normal  1.000000e+00 -0.000000e+00  0.000000e+00
   outer loop
     vertex  8.967500e+00  5.032500e+00  9.675000e-01
     vertex  8.967500e+00  5.967500e+00  5.325000e-01
     vertex  8.967500e+00  5.967500e+00  9.675000e-01
   endloop
 endfacet
 facet normal  0.000000e+00 -1.000000e+00 -0.000000e+00
   outer loop
     vertex  8.967500e+00  5.032500e+00  9.675000e-01
     vertex  7.032500e+00  5.032500e+00  5.325000e-01
     vertex  8.967500e+00  5.032500e+00  5.325000e-01
   endloop
 endfacet
 facet normal -0.000000e+00 -1.000000e+00  0.000000e+00
   outer loop
     vertex  8.967500e+00  5.032500e+00  9.675000e-01
     vertex  7.032500e+00  5.032500e+00  9.675000e-01
     vertex  7.032500e+00  5.032500e+00  5.325000e-01
   endloop
 endfacet
 facet normal  0.000000e+00  1.000000e+00  0.000000e+00
   outer loop
     vertex  8.967500e+00  5.967500e+00  9.675000e-01
     vertex  8.967500e+00  5.967500e+00  5.325000e-01
     vertex  7.032500e+00  5.967500e+00  5.325000e-01
   endloop
 endfacet
 facet normal  0.000000e+00  1.000000e+00  0.000000e+00
   outer loop
     vertex  8.967500e+00  5.967500e+00  9.675000e-01
     vertex  7.032500e+00  5.967500e+00  5.325000e-01
     vertex  7.032500e+00  5.967500e+00  9.675000e-01
   endloop
 endfacet
 facet normal -0.000000e+00  0.000000e+00 -1.000000e+00
   outer loop
     vertex  8.967500e+00  5.967500e+00  5.325000e-01
     vertex  7.032500e+00  5.032500e+00  5.325000e-01
     vertex  7.032500e+00  5.967500e+00  5.325000e-01
   endloop
 endfacet
 facet normal  0.000000e+00 -0.000000e+00 -1.000000e+00
   outer loop
     vertex  8.967500e+00  5.967500e+00  5.325000e-01
     vertex  8.967500e+00  5.032500e+00  5.325000e-01
     vertex  7.032500e+00  5.032500e+00  5.325000e-01
   endloop
 endfacet
 facet normal  0.000000e+00  0.000000e+00  1.000000e+00
   outer loop
     vertex  8.967500e+00  5.967500e+00  9.675000e-01
     vertex  7.032500e+00  5.967500e+00  9.675000e-01
     vertex  7.032500e+00  5.032500e+00  9.675000e-01
   endloop
 endfacet
 facet normal  0.000000e+00  0.000000e+00  1.000000e+00
   outer loop
     vertex  8.967500e+00  5.967500e+00  9.675000e-01
     vertex  7.032500e+00  5.032500e+00  9.675000e-01
     vertex  8.967500e+00  5.032500e+00  9.675000e-01
   endloop
 endfacet
 facet normal -1.000000e+00  0.000000e+00  0.000000e+00
   outer loop
     vertex  1.203250e+01  5.032500e+00  4.675000e-01
     vertex  1.203250e+01  5.967500e+00  3.250000e-02
     vertex  1.203250e+01  5.032500e+00  3.250000e-02
   endloop
 endfacet
 facet normal -1.000000e+00  0.000000e+00  0.000000e+00
   outer loop
     vertex  1.203250e+01  5.032500e+00  4.675000e-01
     vertex  1.203250e+01  5.967500e+00  4.675000e-01
     vertex  1.203250e+01  5.967500e+00  3.250000e-02
   endloop
 endfacet
 facet normal  1.000000e+00  0.000000e+00  0.000000e+00
   outer loop
     vertex  1.296750e+01  5.032500e+00  4.675000e-01
     vertex  1.296750e+01  5.032500e+00  3.250000e-02
     vertex  1.296750e+01  5.967500e+00  3.250000e-02
   endloop
 endfacet
 facet normal  1.000000e+00 -0.000000e+00  0.000000e+00
   outer loop
     vertex  1.296750e+01  5.032500e+00  4.675000e-01
     vertex  1.296750e+01  5.967500e+00  3.250000e-02
     vertex  1.296750e+01  5.967500e+00  4.675000e-01
   endloop
 endfacet
 facet normal  0.000000e+00 -1.000000e+00 -0.000000e+00
   outer loop
     vertex  1.296750e+01  5.032500e+00  4.675000e-01
     vertex  1.203250e+01  5.032500e+00  3.250000e-02
     vertex  1.296750e+01  5.032500e+00  3.250000e-02
   endloop
 endfacet
 facet normal -0.000000e+00 -1.000000e+00  0.000000e+00
   outer loop
     vertex  1.296750e+01  5.032500e+00  4.675000e-01
     vertex  1.203250e+01  5.032500e+00  4.675000e-01
     vertex  1.203250e+01  5.032500e+00  3.250000e-02
   endloop
 endfacet
 facet normal  0.000000e+00  1.000000e+00  0.000000e+00
   outer loop
     vertex  1.296750e+01  5.967500e+00  4.675000e-01
     vertex  1.296750e+01  5.967500e+00  3.250000e-02
     vertex  1.203250e+01  5.967500e+00  3.250000e-02
   endloop
 endfacet
 facet normal  0.000000e+00  1.000000e+00  0.000000e+00
   outer loop
     vertex  1.296750e+01  5.967500e+00  4.675000e-01
     vertex  1.203250e+01  5.967500e+00  3.250000e-02
     vertex  1.203250e+01  5.967500e+00  4.675000e-01
   endloop
 endfacet
 facet normal -0.000000e+00  0.000000e+00 -1.000000e+00
   outer loop
     vertex  1.296750e+01  5.967500e+00  3.250000e-02
     vertex  1.203250e+01  5.032500e+00  3.250000e-02
     vertex  1.203250e+01  5.967500e+00  3.250000e-02
   endloop
 endfacet
 facet normal  0.000000e+00 -0.000000e+00 -1.000000e+00
   outer loop
     vertex  1.296750e+01  5.967500e+00  3.250000e-02
     vertex  1.296750e+01  5.032500e+00  3.250000e-02
     vertex  1.203250e+01  5.032500e+00  3.250000e-02
   endloop
 endfacet
 facet normal  0.000000e+00  0.000000e+00  1.000000e+00
   outer loop
     vertex  1.296750e+01  5.967500e+00  4.675000e-01
     vertex  1.203250e+01  5.967500e+00  4.675000e-01
     vertex  1.203250e+01  5.032500e+00  4.675000e-01
   endloop
 endfacet
 facet normal  0.000000e+00  0.000000e+00  1.000000e+00
   outer loop
     vertex  1.296750e+01  5.967500e+00  4.675000e-01
     vertex  1.203250e+01  5.032500e+00  4.675000e-01
     vertex  1.296750e+01  5.032500e+00  4.675000e-01
   endloop
 endfacet
 facet normal -1.000000e+00  0.000000e+00  0.000000e+00
   outer loop
     vertex  1.003250e+01  5.032500e+00  4.675000e-01
     vertex  1.003250e+01  5.967500e+00  3.250000e-02
     vertex  1.003250e+01  5.032500e+00  3.250000e-02
   endloop
 endfacet
 facet normal -1.000000e+00  0.000000e+00  0.000000e+00
   outer loop
     vertex  1.003250e+01  5.032500e+00  4.675000e-01
     vertex  1.003250e+01  5.967500e+00  4.675000e-01
     vertex  1.003250e+01  5.967500e+00  3.250000e-02
   endloop
 endfacet
 facet normal  1.000000e+00  0.000000e+00  0.000000e+00
   outer loop
     vertex  1.196750e+01  5.032500e+00  4.675000e-01
     vertex  1.196750e+01  5.032500e+00  3.250000e-02
     vertex  1.196750e+01  5.967500e+00  3.250000e-02
   endloop
 endfacet
 facet normal  1.000000e+00 -0.000000e+00  0.000000e+00
   outer loop
     vertex  1.196750e+01  5.032500e+00  4.675000e-01
     vertex  1.196750e+01  5.967500e+00  3.250000e-02
     vertex  1.196750e+01  5.967500e+00  4.675000e-01
   endloop
 endfacet
 facet normal  0.000000e+00 -1.000000e+00 -0.000000e+00
   outer loop
     vertex  1.196750e+01  5.032500e+00  4.675000e-01
     vertex  1.003250e+01  5.032500e+00  3.250000e-02
     vertex  1.196750e+01  5.032500e+00  3.250000e-02
   endloop
 endfacet
 facet normal -0.000000e+00 -1.000000e+00  0.000000e+00
   outer loop
     vertex  1.196750e+01  5.032500e+00  4.675000e-01
     vertex  1.003250e+01  5.032500e+00  4.675000e-01
     vertex  1.003250e+01  5.032500e+00  3.250000e-02
   endloop
 endfacet
 facet normal  0.000000e+00  1.000000e+00  0.000000e+00
   outer loop
     vertex  1.196750e+01  5.967500e+00  4.675000e-01
     vertex  1.196750e+01  5.967500e+00  3.250000e-02
     vertex  1.003250e+01  5.967500e+00  3.250000e-02
   endloop
 endfacet
 facet normal  0.000000e+00  1.000000e+00  0.000000e+00
   outer loop
     vertex  1.196750e+01  5.967500e+00  4.675000e-01
     vertex  1.003250e+01  5.967500e+00  3.250000e-02
     vertex  1.003250e+01  5.967500e+00  4.675000e-01
   endloop
 endfacet
 facet normal -0.000000e+00  0.000000e+00 -1.000000e+00
   outer loop
     vertex  1.196750e+01  5.967500e+00  3.250000e-02
     vertex  1.003250e+01  5.032500e+00  3.250000e-02
     vertex  1.003250e+01  5.967500e+00  3.250000e-02
   endloop
 endfacet
 facet normal  0.000000e+00 -0.000000e+00 -1.000000e+00
   outer loop
     vertex  1.196750e+01  5.967500e+00  3.250000e-02
     vertex  1.196750e+01  5.032500e+00  3.250000e-02
     vertex  1.003250e+01  5.032500e+00  3.250000e-02
   endloop
 endfacet
 facet normal  0.000000e+00  0.000000e+00  1.000000e+00
   outer loop
     vertex  1.196750e+01  5.967500e+00  4.675000e-01
     vertex  1.003250e+01  5.967500e+00  4.675000e-01
     vertex  1.003250e+01  5.032500e+00  4.675000e-01
   endloop
 endfacet
 facet normal  0.000000e+00  0.000000e+00  1.000000e+00
   outer loop
     vertex  1.196750e+01  5.967500e+00  4.675000e-01
     vertex  1.003250e+01  5.032500e+00  4.675000e-01
     vertex  1.196750e+01  5.032500e+00  4.675000e-01
   endloop
 endfacet
 facet normal -1.000000e+00  0.000000e+00  0.000000e+00
   outer loop
     vertex  8.032500e+00  5.032500e+00  4.675000e-01
     vertex  8.032500e+00  5.967500e+00  3.250000e-02
     vertex  8.032500e+00  5.032500e+00  3.250000e-02
   endloop
 endfacet
 facet normal -1.000000e+00  0.000000e+00  0.000000e+00
   outer loop
     vertex  8.032500e+00  5.032500e+00  4.675000e-01
     vertex  8.032500e+00  5.967500e+00  4.675000e-01
     vertex  8.032500e+00  5.967500e+00  3.250000e-02
   endloop
 endfacet
 facet normal  1.000000e+00  0.000000e+00  0.000000e+00
   outer loop
     vertex  9.967500e+00  5.032500e+00  4.675000e-01
     vertex  9.967500e+00  5.032500e+00  3.250000e-02
     vertex  9.967500e+00  5.967500e+00  3.250000e-02
   endloop
 endfacet
 facet normal  1.000000e+00 -0.000000e+00  0.000000e+00
   outer loop
     vertex  9.967500e+00  5.032500e+00  4.675000e-01
     vertex  9.967500e+00  5.967500e+00  3.250000e-02
     vertex  9.967500e+00  5.967500e+00  4.675000e-01
   endloop
 endfacet
 facet normal  0.000000e+00 -1.000000e+00 -0.000000e+00
   outer loop
     vertex  9.967500e+00  5.032500e+00  4.675000e-01
     vertex  8.032500e+00  5.032500e+00  3.250000e-02
     vertex  9.967500e+00  5.032500e+00  3.250000e-02
   endloop
 endfacet
 facet normal -0.000000e+00 -1.000000e+00  0.000000e+00
   outer loop
     vertex  9.967500e+00  5.032500e+00  4.675000e-01
     vertex  8.032500e+00  5.032500e+00  4.675000e-01
     vertex  8.032500e+00  5.032500e+00  3.250000e-02
   endloop
 endfacet
 facet normal  0.000000e+00  1.000000e+00  0.000000e+00
   outer loop
     vertex  9.967500e+00  5.967500e+00  4.675000e-01
     vertex  9.967500e+00  5.967500e+00  3.250000e-02
     vertex  8.032500e+00  5.967500e+00  3.250000e-02
   endloop
 endfacet
 facet normal  0.000000e+00  1.000000e+00  0.000000e+00
   outer loop
     vertex  9.967500e+00  5.967500e+00  4.675000e-01
     vertex  8.032500e+00  5.967500e+00  3.250000e-02
     vertex  8.032500e+00  5.967500e+00  4.675000e-01
   endloop
 endfacet
 facet normal -0.000000e+00  0.000000e+00 -1.000000e+00
   outer loop
     vertex  9.967500e+00  5.967500e+00  3.250000e-02
     vertex  8.032500e+00  5.032500e+00  3.250000e-02
     vertex  8.032500e+00  5.967500e+00  3.250000e-02
   endloop
 endfacet
 facet normal  0.000000e+00 -0.000000e+00 -1.000000e+00
   outer loop
     vertex  9.967500e+00  5.967500e+00  3.250000e-02
     vertex  9.967500e+00  5.032500e+00  3.250000e-02
     vertex  8.032500e+00  5.032500e+00  3.250000e-02
   endloop
 endfacet
 facet normal  0.000000e+00  0.000000e+00  1.000000e+00
   outer loop
     vertex  9.967500e+00  5.967500e+00  4.675000e-01
     vertex  8.032500e+00  5.967500e+00  4.675000e-01
     vertex  8.032500e+00  5.032500e+00  4.675000e-01
   endloop
 endfacet
 facet normal  0.000000e+00  0.000000e+00  1.000000e+00
   outer loop
     vertex  9.967500e+00  5.967500e+00  4.675000e-01
     vertex  8.032500e+00  5.032500e+00  4.675000e-01
     vertex  9.967500e+00  5.032500e+00  4.675000e-01
   endloop
 endfacet
 facet normal -1.000000e+00  0.000000e+00  0.000000e+00
   outer loop
     vertex  6.032500e+00  5.032500e+00  4.675000e-01
     vertex  6.032500e+00  5.967500e+00  3.250000e-02
     vertex  6.032500e+00  5.032500e+00  3.250000e-02
   endloop
 endfacet
 facet normal -1.000000e+00  0.000000e+00  0.000000e+00
   outer loop
     vertex  6.032500e+00  5.032500e+00  4.675000e-01
     vertex  6.032500e+00  5.967500e+00  4.675000e-01
     vertex  6.032500e+00  5.967500e+00  3.250000e-02
   endloop
 endfacet
 facet normal  1.000000e+00  0.000000e+00  0.000000e+00
   outer loop
     vertex  7.967500e+00  5.032500e+00  4.675000e-01
     vertex  7.967500e+00  5.032500e+00  3.250000e-02
     vertex  7.967500e+00  5.967500e+00  3.250000e-02
   endloop
 endfacet
 facet normal  1.000000e+00 -0.000000e+00  0.000000e+00
   outer loop
     vertex  7.967500e+00  5.032500e+00  4.675000e-01
     vertex  7.967500e+00  5.967500e+00  3.250000e-02
     vertex  7.967500e+00  5.967500e+00  4.675000e-01
   endloop
 endfacet
 facet normal  0.000000e+00 -1.000000e+00 -0.000000e+00
   outer loop
     vertex  7.967500e+00  5.032500e+00  4.675000e-01
     vertex  6.032500e+00  5.032500e+00  3.250000e-02
     vertex  7.967500e+00  5.032500e+00  3.250000e-02
   endloop
 endfacet
 facet normal -0.000000e+00 -1.000000e+00  0.000000e+00
   outer loop
     vertex  7.967500e+00  5.032500e+00  4.675000e-01
     vertex  6.032500e+00  5.032500e+00  4.675000e-01
     vertex  6.032500e+00  5.032500e+00  3.250000e-02
   endloop
 endfacet
 facet normal  0.000000e+00  1.000000e+00  0.000000e+00
   outer loop
     vertex  7.967500e+00  5.967500e+00  4.675000e-01
     vertex  7.967500e+00  5.967500e+00  3.250000e-02
     vertex  6.032500e+00  5.967500e+00  3.250000e-02
   endloop
 endfacet
 facet normal  0.000000e+00  1.000000e+00  0.000000e+00
   outer loop
     vertex  7.967500e+00  5.967500e+00  4.675000e-01
     vertex  6.032500e+00  5.967500e+00  3.250000e-02
     vertex  6.032500e+00  5.967500e+00  4.675000e-01
   endloop
 endfacet
 facet normal -0.000000e+00  0.000000e+00 -1.000000e+00
   outer loop
     vertex  7.967500e+00  5.967500e+00  3.250000e-02
     vertex  6.032500e+00  5.032500e+00  3.250000e-02
     vertex  6.032500e+00  5.967500e+00  3.250000e-02
   endloop
 endfacet
 facet normal  0.000000e+00 -0.000000e+00 -1.000000e+00
   outer loop
     vertex  7.967500e+00  5.967500e+00  3.250000e-02
     vertex  7.967500e+00  5.032500e+00  3.250000e-02
     vertex  6.032500e+00  5.032500e+00  3.250000e-02
   endloop
 endfacet
 facet normal  0.000000e+00  0.000000e+00  1.000000e+00
   outer loop
     vertex  7.967500e+00  5.967500e+00  4.675000e-01
     vertex  6.032500e+00  5.967500e+00  4.675000e-01
     vertex  6.032500e+00  5.032500e+00  4.675000e-01
   endloop
 endfacet
 facet normal  0.000000e+00  0.000000e+00  1.000000e+00
   outer loop
     vertex  7.967500e+00  5.967500e+00  4.675000e-01
     vertex  6.032500e+00  5.032500e+00  4.675000e-01
     vertex  7.967500e+00  5.032500e+00  4.675000e-01
   endloop
 endfacet
 facet normal  0.000000e+00 -1.000000e+00 -0.000000e+00
   outer loop
     vertex  5.967500e+00 -4.967500e+00  9.675000e-01
     vertex  5.032500e+00 -4.967500e+00  5.325000e-01
     vertex  5.967500e+00 -4.967500e+00  5.325000e-01
   endloop
 endfacet
 facet normal -0.000000e+00 -1.000000e+00  0.000000e+00
   outer loop
     vertex  5.967500e+00 -4.967500e+00  9.675000e-01
     vertex  5.032500e+00 -4.967500e+00  9.675000e-01
     vertex  5.032500e+00 -4.967500e+00  5.325000e-01
   endloop
 endfacet
 facet normal  0.000000e+00  1.000000e+00  0.000000e+00
   outer loop
     vertex  5.967500e+00 -4.032500e+00  9.675000e-01
     vertex  5.967500e+00 -4.032500e+00  5.325000e-01
     vertex  5.032500e+00 -4.032500e+00  5.325000e-01
   endloop
 endfacet
 facet normal  0.000000e+00  1.000000e+00  0.000000e+00
   outer loop
     vertex  5.967500e+00 -4.032500e+00  9.675000e-01
     vertex  5.032500e+00 -4.032500e+00  5.325000e-01
     vertex  5.032500e+00 -4.032500e+00  9.675000e-01
   endloop
 endfacet
 facet normal  1.000000e+00  0.000000e+00  0.000000e+00
   outer loop
     vertex  5.967500e+00 -4.032500e+00  9.675000e-01
     vertex  5.967500e+00 -4.967500e+00  5.325000e-01
     vertex  5.967500e+00 -4.032500e+00  5.325000e-01
   endloop
 endfacet
 facet normal  1.000000e+00  0.000000e+00  0.000000e+00
   outer loop
     vertex  5.967500e+00 -4.032500e+00  9.675000e-01
     vertex  5.967500e+00 -4.967500e+00  9.675000e-01
     vertex  5.967500e+00 -4.967500e+00  5.325000e-01
   endloop
 endfacet
 facet normal -1.000000e+00  0.000000e+00 -0.000000e+00
   outer loop
     vertex  5.032500e+00 -4.032500e+00  9.675000e-01
     vertex  5.032500e+00 -4.032500e+00  5.325000e-01
     vertex  5.032500e+00 -4.967500e+00  5.325000e-01
   endloop
 endfacet
 facet normal -1.000000e+00 -0.000000e+00  0.000000e+00
   outer loop
     vertex  5.032500e+00 -4.032500e+00  9.675000e-01
     vertex  5.032500e+00 -4.967500e+00  5.325000e-01
     vertex  5.032500e+00 -4.967500e+00  9.675000e-01
   endloop
 endfacet
 facet normal  0.000000e+00  0.000000e+00 -1.000000e+00
   outer loop
     vertex  5.032500e+00 -4.032500e+00  5.325000e-01
     vertex  5.967500e+00 -4.967500e+00  5.325000e-01
     vertex  5.032500e+00 -4.967500e+00  5.325000e-01
   endloop
 endfacet
 facet normal  0.000000e+00  0.000000e+00 -1.000000e+00
   outer loop
     vertex  5.032500e+00 -4.032500e+00  5.325000e-01
     vertex  5.967500e+00 -4.032500e+00  5.325000e-01
     vertex  5.967500e+00 -4.967500e+00  5.325000e-01
   endloop
 endfacet
 facet normal  0.000000e+00  0.000000e+00  1.000000e+00
   outer loop
     vertex  5.032500e+00 -4.032500e+00  9.675000e-01
     vertex  5.032500e+00 -4.967500e+00  9.675000e-01
     vertex  5.967500e+00 -4.967500e+00  9.675000e-01
   endloop
 endfacet
 facet normal -0.000000e+00  0.000000e+00  1.000000e+00
   outer loop
     vertex  5.032500e+00 -4.032500e+00  9.675000e-01
     vertex  5.967500e+00 -4.967500e+00  9.675000e-01
     vertex  5.967500e+00 -4.032500e+00  9.675000e-01
   endloop
 endfacet
 facet normal  0.000000e+00 -1.000000e+00 -0.000000e+00
   outer loop
     vertex  5.967500e+00  2.032500e+00  9.675000e-01
     vertex  5.032500e+00  2.032500e+00  5.325000e-01
     vertex  5.967500e+00  2.032500e+00  5.325000e-01
   endloop
 endfacet
 facet normal -0.000000e+00 -1.000000e+00  0.000000e+00
   outer loop
     vertex  5.967500e+00  2.032500e+00  9.675000e-01
     vertex  5.032500e+00  2.032500e+00  9.675000e-01
     vertex  5.032500e+00  2.032500e+00  5.325000e-01
   endloop
 endfacet
 facet normal  0.000000e+00  1.000000e+00  0.000000e+00
   outer loop
     vertex  5.967500e+00  3.967500e+00  9.675000e-01
     vertex  5.967500e+00  3.967500e+00  5.325000e-01
     vertex  5.032500e+00  3.967500e+00  5.325000e-01
   endloop
 endfacet
 facet normal  0.000000e+00  1.000000e+00  0.000000e+00
   outer loop
     vertex  5.967500e+00  3.967500e+00  9.675000e-01
     vertex  5.032500e+00  3.967500e+00  5.325000e-01
     vertex  5.032500e+00  3.967500e+00  9.675000e-01
   endloop
 endfacet
 facet normal  1.000000e+00  0.000000e+00  0.000000e+00
   outer loop
     vertex  5.967500e+00  3.967500e+00  9.675000e-01
     vertex  5.967500e+00  2.032500e+00  5.325000e-01
     vertex  5.967500e+00  3.967500e+00  5.325000e-01
   endloop
 endfacet
 facet normal  1.000000e+00  0.000000e+00  0.000000e+00
   outer loop
     vertex  5.967500e+00  3.967500e+00  9.675000e-01
     vertex  5.967500e+00  2.032500e+00  9.675000e-01
     vertex  5.967500e+00  2.032500e+00  5.325000e-01
   endloop
 endfacet
 facet normal -1.000000e+00  0.000000e+00 -0.000000e+00
   outer loop
     vertex  5.032500e+00  3.967500e+00  9.675000e-01
     vertex  5.032500e+00  3.967500e+00  5.325000e-01
     vertex  5.032500e+00  2.032500e+00  5.325000e-01
   endloop
 endfacet
 facet normal -1.000000e+00 -0.000000e+00  0.000000e+00
   outer loop
     vertex  5.032500e+00  3.967500e+00  9.675000e-01
     vertex  5.032500e+00  2.032500e+00  5.325000e-01
     vertex  5.032500e+00  2.032500e+00  9.675000e-01
   endloop
 endfacet
 facet normal  0.000000e+00  0.000000e+00 -1.000000e+00
   outer loop
     vertex  5.032500e+00  3.967500e+00  5.325000e-01
     vertex  5.967500e+00  2.032500e+00  5.325000e-01
     vertex  5.032500e+00  2.032500e+00  5.325000e-01
   endloop
 endfacet
 facet normal  0.000000e+00  0.000000e+00 -1.000000e+00
   outer loop
     vertex  5.032500e+00  3.967500e+00  5.325000e-01
     vertex  5.967500e+00  3.967500e+00  5.325000e-01
     vertex  5.967500e+00  2.032500e+00  5.325000e-01
   endloop
 endfacet
 facet normal  0.000000e+00  0.000000e+00  1.000000e+00
   outer loop
     vertex  5.032500e+00  3.967500e+00  9.675000e-01
     vertex  5.032500e+00  2.032500e+00  9.675000e-01
     vertex  5.967500e+00  2.032500e+00  9.675000e-01
   endloop
 endfacet
 facet normal -0.000000e+00  0.000000e+00  1.000000e+00
   outer loop
     vertex  5.032500e+00  3.967500e+00  9.675000e-01
     vertex  5.967500e+00  2.032500e+00  9.675000e-01
     vertex  5.967500e+00  3.967500e+00  9.675000e-01
   endloop
 endfacet
 facet normal  0.000000e+00 -1.000000e+00 -0.000000e+00
   outer loop
     vertex  5.967500e+00  3.250000e-02  9.675000e-01
     vertex  5.032500e+00  3.250000e-02  5.325000e-01
     vertex  5.967500e+00  3.250000e-02  5.325000e-01
   endloop
 endfacet
 facet normal -0.000000e+00 -1.000000e+00  0.000000e+00
   outer loop
     vertex  5.967500e+00  3.250000e-02  9.675000e-01
     vertex  5.032500e+00  3.250000e-02  9.675000e-01
     vertex  5.032500e+00  3.250000e-02  5.325000e-01
   endloop
 endfacet
 facet normal  0.000000e+00  1.000000e+00  0.000000e+00
   outer loop
     vertex  5.967500e+00  1.967500e+00  9.675000e-01
     vertex  5.967500e+00  1.967500e+00  5.325000e-01
     vertex  5.032500e+00  1.967500e+00  5.325000e-01
   endloop
 endfacet
 facet normal  0.000000e+00  1.000000e+00  0.000000e+00
   outer loop
     vertex  5.967500e+00  1.967500e+00  9.675000e-01
     vertex  5.032500e+00  1.967500e+00  5.325000e-01
     vertex  5.032500e+00  1.967500e+00  9.675000e-01
   endloop
 endfacet
 facet normal  1.000000e+00  0.000000e+00  0.000000e+00
   outer loop
     vertex  5.967500e+00  1.967500e+00  9.675000e-01
     vertex  5.967500e+00  3.250000e-02  5.325000e-01
     vertex  5.967500e+00  1.967500e+00  5.325000e-01
   endloop
 endfacet
 facet normal  1.000000e+00  0.000000e+00  0.000000e+00
   outer loop
     vertex  5.967500e+00  1.967500e+00  9.675000e-01
     vertex  5.967500e+00  3.250000e-02  9.675000e-01
     vertex  5.967500e+00  3.250000e-02  5.325000e-01
   endloop
 endfacet
 facet normal -1.000000e+00  0.000000e+00 -0.000000e+00
   outer loop
     vertex  5.032500e+00  1.967500e+00  9.675000e-01
     vertex  5.032500e+00  1.967500e+00  5.325000e-01
     vertex  5.032500e+00  3.250000e-02  5.325000e-01
   endloop
 endfacet
 facet normal -1.000000e+00 -0.000000e+00  0.000000e+00
   outer loop
     vertex  5.032500e+00  1.967500e+00  9.675000e-01
     vertex  5.032500e+00  3.250000e-02  5.325000e-01
     vertex  5.032500e+00  3.250000e-02  9.675000e-01
   endloop
 endfacet
 facet normal  0.000000e+00  0.000000e+00 -1.000000e+00
   outer loop
     vertex  5.032500e+00  1.967500e+00  5.325000e-01
     vertex  5.967500e+00  3.250000e-02  5.325000e-01
     vertex  5.032500e+00  3.250000e-02  5.325000e-01
   endloop
 endfacet
 facet normal  0.000000e+00  0.000000e+00 -1.000000e+00
   outer loop
     vertex  5.032500e+00  1.967500e+00  5.325000e-01
     vertex  5.967500e+00  1.967500e+00  5.325000e-01
     vertex  5.967500e+00  3.250000e-02  5.325000e-01
   endloop
 endfacet
 facet normal  0.000000e+00  0.000000e+00  1.000000e+00
   outer loop
     vertex  5.032500e+00  1.967500e+00  9.675000e-01
     vertex  5.032500e+00  3.250000e-02  9.675000e-01
     vertex  5.967500e+00  3.250000e-02  9.675000e-01
   endloop
 endfacet
 facet normal -0.000000e+00  0.000000e+00  1.000000e+00
   outer loop
     vertex  5.032500e+00  1.967500e+00  9.675000e-01
     vertex  5.967500e+00  3.250000e-02  9.675000e-01
     vertex  5.967500e+00  1.967500e+00  9.675000e-01
   endloop
 endfacet
 facet normal  0.000000e+00 -1.000000e+00 -0.000000e+00
   outer loop
     vertex  5.967500e+00 -1.967500e+00  9.675000e-01
     vertex  5.032500e+00 -1.967500e+00  5.325000e-01
     vertex  5.967500e+00 -1.967500e+00  5.325000e-01
   endloop
 endfacet
 facet normal -0.000000e+00 -1.000000e+00  0.000000e+00
   outer loop
     vertex  5.967500e+00 -1.967500e+00  9.675000e-01
     vertex  5.032500e+00 -1.967500e+00  9.675000e-01
     vertex  5.032500e+00 -1.967500e+00  5.325000e-01
   endloop
 endfacet
 facet normal  0.000000e+00  1.000000e+00  0.000000e+00
   outer loop
     vertex  5.967500e+00 -3.250000e-02  9.675000e-01
     vertex  5.967500e+00 -3.250000e-02  5.325000e-01
     vertex  5.032500e+00 -3.250000e-02  5.325000e-01
   endloop
 endfacet
 facet normal  0.000000e+00  1.000000e+00  0.000000e+00
   outer loop
     vertex  5.967500e+00 -3.250000e-02  9.675000e-01
     vertex  5.032500e+00 -3.250000e-02  5.325000e-01
     vertex  5.032500e+00 -3.250000e-02  9.675000e-01
   endloop
 endfacet
 facet normal  1.000000e+00  0.000000e+00  0.000000e+00
   outer loop
     vertex  5.967500e+00 -3.250000e-02  9.675000e-01
     vertex  5.967500e+00 -1.967500e+00  5.325000e-01
     vertex  5.967500e+00 -3.250000e-02  5.325000e-01
   endloop
 endfacet
 facet normal  1.000000e+00  0.000000e+00  0.000000e+00
   outer loop
     vertex  5.967500e+00 -3.250000e-02  9.675000e-01
     vertex  5.967500e+00 -1.967500e+00  9.675000e-01
     vertex  5.967500e+00 -1.967500e+00  5.325000e-01
   endloop
 endfacet
 facet normal -1.000000e+00  0.000000e+00 -0.000000e+00
   outer loop
     vertex  5.032500e+00 -3.250000e-02  9.675000e-01
     vertex  5.032500e+00 -3.250000e-02  5.325000e-01
     vertex  5.032500e+00 -1.967500e+00  5.325000e-01
   endloop
 endfacet
 facet normal -1.000000e+00 -0.000000e+00  0.000000e+00
   outer loop
     vertex  5.032500e+00 -3.250000e-02  9.675000e-01
     vertex  5.032500e+00 -1.967500e+00  5.325000e-01
     vertex  5.032500e+00 -1.967500e+00  9.675000e-01
   endloop
 endfacet
 facet normal  0.000000e+00  0.000000e+00 -1.000000e+00
   outer loop
     vertex  5.032500e+00 -3.250000e-02  5.325000e-01
     vertex  5.967500e+00 -1.967500e+00  5.325000e-01
     vertex  5.032500e+00 -1.967500e+00  5.325000e-01
   endloop
 endfacet
 facet normal  0.000000e+00  0.000000e+00 -1.000000e+00
   outer loop
     vertex  5.032500e+00 -3.250000e-02  5.325000e-01
     vertex  5.967500e+00 -3.250000e-02  5.325000e-01
     vertex  5.967500e+00 -1.967500e+00  5.325000e-01
   endloop
 endfacet
 facet normal  0.000000e+00  0.000000e+00  1.000000e+00
   outer loop
     vertex  5.032500e+00 -3.250000e-02  9.675000e-01
     vertex  5.032500e+00 -1.967500e+00  9.675000e-01
     vertex  5.967500e+00 -1.967500e+00  9.675000e-01
   endloop
 endfacet
 facet normal -0.000000e+00  0.000000e+00  1.000000e+00
   outer loop
     vertex  5.032500e+00 -3.250000e-02  9.675000e-01
     vertex  5.967500e+00 -1.967500e+00  9.675000e-01
     vertex  5.967500e+00 -3.250000e-02  9.675000e-01
   endloop
 endfacet
 facet normal  0.000000e+00 -1.000000e+00 -0.000000e+00
   outer loop
     vertex  5.967500e+00 -3.967500e+00  9.675000e-01
     vertex  5.032500e+00 -3.967500e+00  5.325000e-01
     vertex  5.967500e+00 -3.967500e+00  5.325000e-01
   endloop
 endfacet
 facet normal -0.000000e+00 -1.000000e+00  0.000000e+00
   outer loop
     vertex  5.967500e+00 -3.967500e+00  9.675000e-01
     vertex  5.032500e+00 -3.967500e+00  9.675000e-01
     vertex  5.032500e+00 -3.967500e+00  5.325000e-01
   endloop
 endfacet
 facet normal  0.000000e+00  1.000000e+00  0.000000e+00
   outer loop
     vertex  5.967500e+00 -2.032500e+00  9.675000e-01
     vertex  5.967500e+00 -2.032500e+00  5.325000e-01
     vertex  5.032500e+00 -2.032500e+00  5.325000e-01
   endloop
 endfacet
 facet normal  0.000000e+00  1.000000e+00  0.000000e+00
   outer loop
     vertex  5.967500e+00 -2.032500e+00  9.675000e-01
     vertex  5.032500e+00 -2.032500e+00  5.325000e-01
     vertex  5.032500e+00 -2.032500e+00  9.675000e-01
   endloop
 endfacet
 facet normal  1.000000e+00  0.000000e+00  0.000000e+00
   outer loop
     vertex  5.967500e+00 -2.032500e+00  9.675000e-01
     vertex  5.967500e+00 -3.967500e+00  5.325000e-01
     vertex  5.967500e+00 -2.032500e+00  5.325000e-01
   endloop
 endfacet
 facet normal  1.000000e+00  0.000000e+00  0.000000e+00
   outer loop
     vertex  5.967500e+00 -2.032500e+00  9.675000e-01
     vertex  5.967500e+00 -3.967500e+00  9.675000e-01
     vertex  5.967500e+00 -3.967500e+00  5.325000e-01
   endloop
 endfacet
 facet normal -1.000000e+00  0.000000e+00 -0.000000e+00
   outer loop
     vertex  5.032500e+00 -2.032500e+00  9.675000e-01
     vertex  5.032500e+00 -2.032500e+00  5.325000e-01
     vertex  5.032500e+00 -3.967500e+00  5.325000e-01
   endloop
 endfacet
 facet normal -1.000000e+00 -0.000000e+00  0.000000e+00
   outer loop
     vertex  5.032500e+00 -2.032500e+00  9.675000e-01
     vertex  5.032500e+00 -3.967500e+00  5.325000e-01
     vertex  5.032500e+00 -3.967500e+00  9.675000e-01
   endloop
 endfacet
 facet normal  0.000000e+00  0.000000e+00 -1.000000e+00
   outer loop
     vertex  5.032500e+00 -2.032500e+00  5.325000e-01
     vertex  5.967500e+00 -3.967500e+00  5.325000e-01
     vertex  5.032500e+00 -3.967500e+00  5.325000e-01
   endloop
 endfacet
 facet normal  0.000000e+00  0.000000e+00 -1.000000e+00
   outer loop
     vertex  5.032500e+00 -2.032500e+00  5.325000e-01
     vertex  5.967500e+00 -2.032500e+00  5.325000e-01
     vertex  5.967500e+00 -3.967500e+00  5.325000e-01
   endloop
 endfacet
 facet normal  0.000000e+00  0.000000e+00  1.000000e+00
   outer loop
     vertex  5.032500e+00 -2.032500e+00  9.675000e-01
     vertex  5.032500e+00 -3.967500e+00  9.675000e-01
     vertex  5.967500e+00 -3.967500e+00  9.675000e-01
   endloop
 endfacet
 facet normal -0.000000e+00  0.000000e+00  1.000000e+00
   outer loop
     vertex  5.032500e+00 -2.032500e+00  9.675000e-01
     vertex  5.967500e+00 -3.967500e+00  9.675000e-01
     vertex  5.967500e+00 -2.032500e+00  9.675000e-01
   endloop
 endfacet
 facet normal  0.000000e+00 -1.000000e+00 -0.000000e+00
   outer loop
     vertex  5.967500e+00  1.032500e+00  4.675000e-01
     vertex  5.032500e+00  1.032500e+00  3.250000e-02
     vertex  5.967500e+00  1.032500e+00  3.250000e-02
   endloop
 endfacet
 facet normal -0.000000e+00 -1.000000e+00  0.000000e+00
   outer loop
     vertex  5.967500e+00  1.032500e+00  4.675000e-01
     vertex  5.032500e+00  1.032500e+00  4.675000e-01
     vertex  5.032500e+00  1.032500e+00  3.250000e-02
   endloop
 endfacet
 facet normal  0.000000e+00  1.000000e+00  0.000000e+00
   outer loop
     vertex  5.967500e+00  2.967500e+00  4.675000e-01
     vertex  5.967500e+00  2.967500e+00  3.250000e-02
     vertex  5.032500e+00  2.967500e+00  3.250000e-02
   endloop
 endfacet
 facet normal  0.000000e+00  1.000000e+00  0.000000e+00
   outer loop
     vertex  5.967500e+00  2.967500e+00  4.675000e-01
     vertex  5.032500e+00  2.967500e+00  3.250000e-02
     vertex  5.032500e+00  2.967500e+00  4.675000e-01
   endloop
 endfacet
 facet normal  1.000000e+00  0.000000e+00  0.000000e+00
   outer loop
     vertex  5.967500e+00  2.967500e+00  4.675000e-01
     vertex  5.967500e+00  1.032500e+00  3.250000e-02
     vertex  5.967500e+00  2.967500e+00  3.250000e-02
   endloop
 endfacet
 facet normal  1.000000e+00  0.000000e+00  0.000000e+00
   outer loop
     vertex  5.967500e+00  2.967500e+00  4.675000e-01
     vertex  5.967500e+00  1.032500e+00  4.675000e-01
     vertex  5.967500e+00  1.032500e+00  3.250000e-02
   endloop
 endfacet
 facet normal -1.000000e+00  0.000000e+00 -0.000000e+00
   outer loop
     vertex  5.032500e+00  2.967500e+00  4.675000e-01
     vertex  5.032500e+00  2.967500e+00  3.250000e-02
     vertex  5.032500e+00  1.032500e+00  3.250000e-02
   endloop
 endfacet
 facet normal -1.000000e+00 -0.000000e+00  0.000000e+00
   outer loop
     vertex  5.032500e+00  2.967500e+00  4.675000e-01
     vertex  5.032500e+00  1.032500e+00  3.250000e-02
     vertex  5.032500e+00  1.032500e+00  4.675000e-01
   endloop
 endfacet
 facet normal  0.000000e+00  0.000000e+00 -1.000000e+00
   outer loop
     vertex  5.032500e+00  2.967500e+00  3.250000e-02
     vertex  5.967500e+00  1.032500e+00  3.250000e-02
     vertex  5.032500e+00  1.032500e+00  3.250000e-02
   endloop
 endfacet
 facet normal  0.000000e+00  0.000000e+00 -1.000000e+00
   outer loop
     vertex  5.032500e+00  2.967500e+00  3.250000e-02
     vertex  5.967500e+00  2.967500e+00  3.250000e-02
     vertex  5.967500e+00  1.032500e+00  3.250000e-02
   endloop
 endfacet
 facet normal  0.000000e+00  0.000000e+00  1.000000e+00
   outer loop
     vertex  5.032500e+00  2.967500e+00  4.675000e-01
     vertex  5.032500e+00  1.032500e+00  4.675000e-01
     vertex  5.967500e+00  1.032500e+00  4.675000e-01
   endloop
 endfacet
 facet normal -0.000000e+00  0.000000e+00  1.000000e+00
   outer loop
     vertex  5.032500e+00  2.967500e+00  4.675000e-01
     vertex  5.967500e+00  1.032500e+00  4.675000e-01
     vertex  5.967500e+00  2.967500e+00  4.675000e-01
   endloop
 endfacet
 facet normal  0.000000e+00 -1.000000e+00 -0.000000e+00
   outer loop
     vertex  5.967500e+00 -9.675000e-01  4.675000e-01
     vertex  5.032500e+00 -9.675000e-01  3.250000e-02
     vertex  5.967500e+00 -9.675000e-01  3.250000e-02
   endloop
 endfacet
 facet normal -0.000000e+00 -1.000000e+00  0.000000e+00
   outer loop
     vertex  5.967500e+00 -9.675000e-01  4.675000e-01
     vertex  5.032500e+00 -9.675000e-01  4.675000e-01
     vertex  5.032500e+00 -9.675000e-01  3.250000e-02
   endloop
 endfacet
 facet normal  0.000000e+00  1.000000e+00  0.000000e+00
   outer loop
     vertex  5.967500e+00  9.675000e-01  4.675000e-01
     vertex  5.967500e+00  9.675000e-01  3.250000e-02
     vertex  5.032500e+00  9.675000e-01  3.250000e-02
   endloop
 endfacet
 facet normal  0.000000e+00  1.000000e+00  0.000000e+00
   outer loop
     vertex  5.967500e+00  9.675000e-01  4.675000e-01
     vertex  5.032500e+00  9.675000e-01  3.250000e-02
     vertex  5.032500e+00  9.675000e-01  4.675000e-01
   endloop
 endfacet
 facet normal  1.000000e+00  0.000000e+00  0.000000e+00
   outer loop
     vertex  5.967500e+00  9.675000e-01  4.675000e-01
     vertex  5.967500e+00 -9.675000e-01  3.250000e-02
     vertex  5.967500e+00  9.675000e-01  3.250000e-02
   endloop
 endfacet
 facet normal  1.000000e+00  0.000000e+00  0.000000e+00
   outer loop
     vertex  5.967500e+00  9.675000e-01  4.675000e-01
     vertex  5.967500e+00 -9.675000e-01  4.675000e-01
     vertex  5.967500e+00 -9.675000e-01  3.250000e-02
   endloop
 endfacet
 facet normal -1.000000e+00  0.000000e+00 -0.000000e+00
   outer loop
     vertex  5.032500e+00  9.675000e-01  4.675000e-01
     vertex  5.032500e+00  9.675000e-01  3.250000e-02
     vertex  5.032500e+00 -9.675000e-01  3.250000e-02
   endloop
 endfacet
 facet normal -1.000000e+00 -0.000000e+00  0.000000e+00
   outer loop
     vertex  5.032500e+00  9.675000e-01  4.675000e-01
     vertex  5.032500e+00 -9.675000e-01  3.250000e-02
     vertex  5.032500e+00 -9.675000e-01  4.675000e-01
   endloop
 endfacet
 facet normal  0.000000e+00  0.000000e+00 -1.000000e+00
   outer loop
     vertex  5.032500e+00  9.675000e-01  3.250000e-02
     vertex  5.967500e+00 -9.675000e-01  3.250000e-02
     vertex  5.032500e+00 -9.675000e-01  3.250000e-02
   endloop
 endfacet
 facet normal  0.000000e+00  0.000000e+00 -1.000000e+00
   outer loop
     vertex  5.032500e+00  9.675000e-01  3.250000e-02
     vertex  5.967500e+00  9.675000e-01  3.250000e-02
     vertex  5.967500e+00 -9.675000e-01  3.250000e-02
   endloop
 endfacet
 facet normal  0.000000e+00  0.000000e+00  1.000000e+00
   outer loop
     vertex  5.032500e+00  9.675000e-01  4.675000e-01
     vertex  5.032500e+00 -9.675000e-01  4.675000e-01
     vertex  5.967500e+00 -9.675000e-01  4.675000e-01
   endloop
 endfacet
 facet normal -0.000000e+00  0.000000e+00  1.000000e+00
   outer loop
     vertex  5.032500e+00  9.675000e-01  4.675000e-01
     vertex  5.967500e+00 -9.675000e-01  4.675000e-01
     vertex  5.967500e+00  9.675000e-01  4.675000e-01
   endloop
 endfacet
 facet normal  0.000000e+00 -1.000000e+00 -0.000000e+00
   outer loop
     vertex  5.967500e+00 -2.967500e+00  4.675000e-01
     vertex  5.032500e+00 -2.967500e+00  3.250000e-02
     vertex  5.967500e+00 -2.967500e+00  3.250000e-02
   endloop
 endfacet
 facet normal -0.000000e+00 -1.000000e+00  0.000000e+00
   outer loop
     vertex  5.967500e+00 -2.967500e+00  4.675000e-01
     vertex  5.032500e+00 -2.967500e+00  4.675000e-01
     vertex  5.032500e+00 -2.967500e+00  3.250000e-02
   endloop
 endfacet
 facet normal  0.000000e+00  1.000000e+00  0.000000e+00
   outer loop
     vertex  5.967500e+00 -1.032500e+00  4.675000e-01
     vertex  5.967500e+00 -1.032500e+00  3.250000e-02
     vertex  5.032500e+00 -1.032500e+00  3.250000e-02
   endloop
 endfacet
 facet normal  0.000000e+00  1.000000e+00  0.000000e+00
   outer loop
     vertex  5.967500e+00 -1.032500e+00  4.675000e-01
     vertex  5.032500e+00 -1.032500e+00  3.250000e-02
     vertex  5.032500e+00 -1.032500e+00  4.675000e-01
   endloop
 endfacet
 facet normal  1.000000e+00  0.000000e+00  0.000000e+00
   outer loop
     vertex  5.967500e+00 -1.032500e+00  4.675000e-01
     vertex  5.967500e+00 -2.967500e+00  3.250000e-02
     vertex  5.967500e+00 -1.032500e+00  3.250000e-02
   endloop
 endfacet
 facet normal  1.000000e+00  0.000000e+00  0.000000e+00
   outer loop
     vertex  5.967500e+00 -1.032500e+00  4.675000e-01
     vertex  5.967500e+00 -2.967500e+00  4.675000e-01
     vertex  5.967500e+00 -2.967500e+00  3.250000e-02
   endloop
 endfacet
 facet normal -1.000000e+00  0.000000e+00 -0.000000e+00
   outer loop
     vertex  5.032500e+00 -1.032500e+00  4.675000e-01
     vertex  5.032500e+00 -1.032500e+00  3.250000e-02
     vertex  5.032500e+00 -2.967500e+00  3.250000e-02
   endloop
 endfacet
 facet normal -1.000000e+00 -0.000000e+00  0.000000e+00
   outer loop
     vertex  5.032500e+00 -1.032500e+00  4.675000e-01
     vertex  5.032500e+00 -2.967500e+00  3.250000e-02
     vertex  5.032500e+00 -2.967500e+00  4.675000e-01
   endloop
 endfacet
 facet normal  0.000000e+00  0.000000e+00 -1.000000e+00
   outer loop
     vertex  5.032500e+00 -1.032500e+00  3.250000e-02
     vertex  5.967500e+00 -2.967500e+00  3.250000e-02
     vertex  5.032500e+00 -2.967500e+00  3.250000e-02
   endloop
 endfacet
 facet normal  0.000000e+00  0.000000e+00 -1.000000e+00
   outer loop
     vertex  5.032500e+00 -1.032500e+00  3.250000e-02
     vertex  5.967500e+00 -1.032500e+00  3.250000e-02
     vertex  5.967500e+00 -2.967500e+00  3.250000e-02
   endloop
 endfacet
 facet normal  0.000000e+00  0.000000e+00  1.000000e+00
   outer loop
     vertex  5.032500e+00 -1.032500e+00  4.675000e-01
     vertex  5.032500e+00 -2.967500e+00  4.675000e-01
     vertex  5.967500e+00 -2.967500e+00  4.675000e-01
   endloop
 endfacet
 facet normal -0.000000e+00  0.000000e+00  1.000000e+00
   outer loop
     vertex  5.032500e+00 -1.032500e+00  4.675000e-01
     vertex  5.967500e+00 -2.967500e+00  4.675000e-01
     vertex  5.967500e+00 -1.032500e+00  4.675000e-01
   endloop
 endfacet
 facet normal  0.000000e+00 -1.000000e+00 -0.000000e+00
   outer loop
     vertex  5.967500e+00 -4.967500e+00  4.675000e-01
     vertex  5.032500e+00 -4.967500e+00  3.250000e-02
     vertex  5.967500e+00 -4.967500e+00  3.250000e-02
   endloop
 endfacet
 facet normal -0.000000e+00 -1.000000e+00  0.000000e+00
   outer loop
     vertex  5.967500e+00 -4.967500e+00  4.675000e-01
     vertex  5.032500e+00 -4.967500e+00  4.675000e-01
     vertex  5.032500e+00 -4.967500e+00  3.250000e-02
   endloop
 endfacet
 facet normal  0.000000e+00  1.000000e+00  0.000000e+00
   outer loop
     vertex  5.967500e+00 -3.032500e+00  4.675000e-01
     vertex  5.967500e+00 -3.032500e+00  3.250000e-02
     vertex  5.032500e+00 -3.032500e+00  3.250000e-02
   endloop
 endfacet
 facet normal  0.000000e+00  1.000000e+00  0.000000e+00
   outer loop
     vertex  5.967500e+00 -3.032500e+00  4.675000e-01
     vertex  5.032500e+00 -3.032500e+00  3.250000e-02
     vertex  5.032500e+00 -3.032500e+00  4.675000e-01
   endloop
 endfacet
 facet normal  1.000000e+00  0.000000e+00  0.000000e+00
   outer loop
     vertex  5.967500e+00 -3.032500e+00  4.675000e-01
     vertex  5.967500e+00 -4.967500e+00  3.250000e-02
     vertex  5.967500e+00 -3.032500e+00  3.250000e-02
   endloop
 endfacet
 facet normal  1.000000e+00  0.000000e+00  0.000000e+00
   outer loop
     vertex  5.967500e+00 -3.032500e+00  4.675000e-01
     vertex  5.967500e+00 -4.967500e+00  4.675000e-01
     vertex  5.967500e+00 -4.967500e+00  3.250000e-02
   endloop
 endfacet
 facet normal -1.000000e+00  0.000000e+00 -0.000000e+00
   outer loop
     vertex  5.032500e+00 -3.032500e+00  4.675000e-01
     vertex  5.032500e+00 -3.032500e+00  3.250000e-02
     vertex  5.032500e+00 -4.967500e+00  3.250000e-02
   endloop
 endfacet
 facet normal -1.000000e+00 -0.000000e+00  0.000000e+00
   outer loop
     vertex  5.032500e+00 -3.032500e+00  4.675000e-01
     vertex  5.032500e+00 -4.967500e+00  3.250000e-02
     vertex  5.032500e+00 -4.967500e+00  4.675000e-01
   endloop
 endfacet
 facet normal  0.000000e+00  0.000000e+00 -1.000000e+00
   outer loop
     vertex  5.032500e+00 -3.032500e+00  3.250000e-02
     vertex  5.967500e+00 -4.967500e+00  3.250000e-02
     vertex  5.032500e+00 -4.967500e+00  3.250000e-02
   endloop
 endfacet
 facet normal  0.000000e+00  0.000000e+00 -1.000000e+00
   outer loop
     vertex  5.032500e+00 -3.032500e+00  3.250000e-02
     vertex  5.967500e+00 -3.032500e+00  3.250000e-02
     vertex  5.967500e+00 -4.967500e+00  3.250000e-02
   endloop
 endfacet
 facet normal  0.000000e+00  0.000000e+00  1.000000e+00
   outer loop
     vertex  5.032500e+00 -3.032500e+00  4.675000e-01
     vertex  5.032500e+00 -4.967500e+00  4.675000e-01
     vertex  5.967500e+00 -4.967500e+00  4.675000e-01
   endloop
 endfacet
 facet normal -0.000000e+00  0.000000e+00  1.000000e+00
   outer loop
     vertex  5.032500e+00 -3.032500e+00  4.675000e-01
     vertex  5.967500e+00 -4.967500e+00  4.675000e-01
     vertex  5.967500e+00 -3.032500e+00  4.675000e-01
   endloop
 endfacet
 facet normal  0.000000e+00  1.000000e+00  0.000000e+00
   outer loop
     vertex  5.032500e+00  5.967500e+00  4.675000e-01
     vertex  5.967500e+00  5.967500e+00  3.250000e-02
     vertex  5.032500e+00  5.967500e+00  3.250000e-02
   endloop
 endfacet
 facet normal -0.000000e+00  1.000000e+00  0.000000e+00
   outer loop
     vertex  5.032500e+00  5.967500e+00  4.675000e-01
     vertex  5.967500e+00  5.967500e+00  4.675000e-01
     vertex  5.967500e+00  5.967500e+00  3.250000e-02
   endloop
 endfacet
 facet normal  0.000000e+00 -1.000000e+00  0.000000e+00
   outer loop
     vertex  5.032500e+00  4.032500e+00  4.675000e-01
     vertex  5.032500e+00  4.032500e+00  3.250000e-02
     vertex  5.967500e+00  4.032500e+00  3.250000e-02
   endloop
 endfacet
 facet normal  0.000000e+00 -1.000000e+00  0.000000e+00
   outer loop
     vertex  5.032500e+00  4.032500e+00  4.675000e-01
     vertex  5.967500e+00  4.032500e+00  3.250000e-02
     vertex  5.967500e+00  4.032500e+00  4.675000e-01
   endloop
 endfacet
 facet normal -1.000000e+00  0.000000e+00  0.000000e+00
   outer loop
     vertex  5.032500e+00  4.032500e+00  4.675000e-01
     vertex  5.032500e+00  5.967500e+00  3.250000e-02
     vertex  5.032500e+00  4.032500e+00  3.250000e-02
   endloop
 endfacet
 facet normal -1.000000e+00  0.000000e+00  0.000000e+00
   outer loop
     vertex  5.032500e+00  4.032500e+00  4.675000e-01
     vertex  5.032500e+00  5.967500e+00  4.675000e-01
     vertex  5.032500e+00  5.967500e+00  3.250000e-02
   endloop
 endfacet
 facet normal  1.000000e+00  0.000000e+00  0.000000e+00
   outer loop
     vertex  5.967500e+00  4.032500e+00  4.675000e-01
     vertex  5.967500e+00  4.032500e+00  3.250000e-02
     vertex  5.967500e+00  5.967500e+00  3.250000e-02
   endloop
 endfacet
 facet normal  1.000000e+00 -0.000000e+00  0.000000e+00
   outer loop
     vertex  5.967500e+00  4.032500e+00  4.675000e-01
     vertex  5.967500e+00  5.967500e+00  3.250000e-02
     vertex  5.967500e+00  5.967500e+00  4.675000e-01
   endloop
 endfacet
 facet normal  0.000000e+00  0.000000e+00 -1.000000e+00
   outer loop
     vertex  5.967500e+00  4.032500e+00  3.250000e-02
     vertex  5.032500e+00  5.967500e+00  3.250000e-02
     vertex  5.967500e+00  5.967500e+00  3.250000e-02
   endloop
 endfacet
 facet normal  0.000000e+00  0.000000e+00 -1.000000e+00
   outer loop
     vertex  5.967500e+00  4.032500e+00  3.250000e-02
     vertex  5.032500e+00  4.032500e+00  3.250000e-02
     vertex  5.032500e+00  5.967500e+00  3.250000e-02
   endloop
 endfacet
 facet normal  0.000000e+00 -0.000000e+00  1.000000e+00
   outer loop
     vertex  5.967500e+00  4.032500e+00  4.675000e-01
     vertex  5.967500e+00  5.967500e+00  4.675000e-01
     vertex  5.032500e+00  5.967500e+00  4.675000e-01
   endloop
 endfacet
 facet normal  0.000000e+00  0.000000e+00  1.000000e+00
   outer loop
     vertex  5.967500e+00  4.032500e+00  4.675000e-01
     vertex  5.032500e+00  5.967500e+00  4.675000e-01
     vertex  5.032500e+00  4.032500e+00  4.675000e-01
   endloop
 endfacet
 facet normal -1.000000e+00  0.000000e+00  0.000000e+00
   outer loop
     vertex  5.032500e+00  5.032500e+00  9.675000e-01
     vertex  5.032500e+00  5.967500e+00  5.325000e-01
     vertex  5.032500e+00  5.032500e+00  5.325000e-01
   endloop
 endfacet
 facet normal -1.000000e+00  0.000000e+00  0.000000e+00
   outer loop
     vertex  5.032500e+00  5.032500e+00  9.675000e-01
     vertex  5.032500e+00  5.967500e+00  9.675000e-01
     vertex  5.032500e+00  5.967500e+00  5.325000e-01
   endloop
 endfacet
 facet normal  1.000000e+00  0.000000e+00  0.000000e+00
   outer loop
     vertex  6.967500e+00  5.032500e+00  9.675000e-01
     vertex  6.967500e+00  5.032500e+00  5.325000e-01
     vertex  6.967500e+00  5.967500e+00  5.325000e-01
   endloop
 endfacet
 facet normal  1.000000e+00 -0.000000e+00  0.000000e+00
   outer loop
     vertex  6.967500e+00  5.032500e+00  9.675000e-01
     vertex  6.967500e+00  5.967500e+00  5.325000e-01
     vertex  6.967500e+00  5.967500e+00  9.675000e-01
   endloop
 endfacet
 facet normal  0.000000e+00 -1.000000e+00 -0.000000e+00
   outer loop
     vertex  6.967500e+00  5.032500e+00  9.675000e-01
     vertex  5.032500e+00  5.032500e+00  5.325000e-01
     vertex  6.967500e+00  5.032500e+00  5.325000e-01
   endloop
 endfacet
 facet normal -0.000000e+00 -1.000000e+00  0.000000e+00
   outer loop
     vertex  6.967500e+00  5.032500e+00  9.675000e-01
     vertex  5.032500e+00  5.032500e+00  9.675000e-01
     vertex  5.032500e+00  5.032500e+00  5.325000e-01
   endloop
 endfacet
 facet normal  0.000000e+00  1.000000e+00  0.000000e+00
   outer loop
     vertex  6.967500e+00  5.967500e+00  9.675000e-01
     vertex  6.967500e+00  5.967500e+00  5.325000e-01
     vertex  5.032500e+00  5.967500e+00  5.325000e-01
   endloop
 endfacet
 facet normal  0.000000e+00  1.000000e+00  0.000000e+00
   outer loop
     vertex  6.967500e+00  5.967500e+00  9.675000e-01
     vertex  5.032500e+00  5.967500e+00  5.325000e-01
     vertex  5.032500e+00  5.967500e+00  9.675000e-01
   endloop
 endfacet
 facet normal -0.000000e+00  0.000000e+00 -1.000000e+00
   outer loop
     vertex  6.967500e+00  5.967500e+00  5.325000e-01
     vertex  5.032500e+00  5.032500e+00  5.325000e-01
     vertex  5.032500e+00  5.967500e+00  5.325000e-01
   endloop
 endfacet
 facet normal  0.000000e+00 -0.000000e+00 -1.000000e+00
   outer loop
     vertex  6.967500e+00  5.967500e+00  5.325000e-01
     vertex  6.967500e+00  5.032500e+00  5.325000e-01
     vertex  5.032500e+00  5.032500e+00  5.325000e-01
   endloop
 endfacet
 facet normal  0.000000e+00  0.000000e+00  1.000000e+00
   outer loop
     vertex  6.967500e+00  5.967500e+00  9.675000e-01
     vertex  5.032500e+00  5.967500e+00  9.675000e-01
     vertex  5.032500e+00  5.032500e+00  9.675000e-01
   endloop
 endfacet
 facet normal  0.000000e+00  0.000000e+00  1.000000e+00
   outer loop
     vertex  6.967500e+00  5.967500e+00  9.675000e-01
     vertex  5.032500e+00  5.032500e+00  9.675000e-01
     vertex  6.967500e+00  5.032500e+00  9.675000e-01
   endloop
 endfacet
endsolid
