solid 
 facet normal -1.000000e+00  0.000000e+00  0.000000e+00
   outer loop
     vertex  1.000000e+00 -7.857872e+00 -2.500769e+00
     vertex  1.000000e+00 -6.229964e+00  4.380359e+00
     vertex  1.000000e+00 -3.603355e+00  1.258411e-01
   endloop
 endfacet
 facet normal -1.000000e+00  0.000000e+00  0.000000e+00
   outer loop
     vertex  1.000000e+00 -7.857872e+00 -2.500769e+00
     vertex  1.000000e+00 -1.048448e+01  1.753749e+00
     vertex  1.000000e+00 -6.229964e+00  4.380359e+00
   endloop
 endfacet
 facet normal  1.000000e+00  0.000000e+00  0.000000e+00
   outer loop
     vertex  6.000000e+00 -7.857872e+00 -2.500769e+00
     vertex  6.000000e+00 -3.603355e+00  1.258411e-01
     vertex  6.000000e+00 -6.229964e+00  4.380359e+00
   endloop
 endfacet
 facet normal  1.000000e+00  0.000000e+00 -0.000000e+00
   outer loop
     vertex  6.000000e+00 -7.857872e+00 -2.500769e+00
     vertex  6.000000e+00 -6.229964e+00  4.380359e+00
     vertex  6.000000e+00 -1.048448e+01  1.753749e+00
   endloop
 endfacet
 facet normal  0.000000e+00  5.253220e-01 -8.509035e-01
   outer loop
     vertex  6.000000e+00 -7.857872e+00 -2.500769e+00
     vertex  1.000000e+00 -3.603355e+00  1.258411e-01
     vertex  6.000000e+00 -3.603355e+00  1.258411e-01
   endloop
 endfacet
 facet normal  0.000000e+00  5.253220e-01 -8.509035e-01
   outer loop
     vertex  6.000000e+00 -7.857872e+00 -2.500769e+00
     vertex  1.000000e+00 -7.857872e+00 -2.500769e+00
     vertex  1.000000e+00 -3.603355e+00  1.258411e-01
   endloop
 endfacet
 facet normal  0.000000e+00 -5.253220e-01  8.509035e-01
   outer loop
     vertex  6.000000e+00 -1.048448e+01  1.753749e+00
     vertex  6.000000e+00 -6.229964e+00  4.380359e+00
     vertex  1.000000e+00 -6.229964e+00  4.380359e+00
   endloop
 endfacet
 facet normal  0.000000e+00 -5.253220e-01  8.509035e-01
   outer loop
     vertex  6.000000e+00 -1.048448e+01  1.753749e+00
     vertex  1.000000e+00 -6.229964e+00  4.380359e+00
     vertex  1.000000e+00 -1.048448e+01  1.753749e+00
   endloop
 endfacet
 facet normal  0.000000e+00  8.509035e-01  5.253220e-01
   outer loop
     vertex  6.000000e+00 -6.229964e+00  4.380359e+00
     vertex  1.000000e+00 -3.603355e+00  1.258411e-01
     vertex  1.000000e+00 -6.229964e+00  4.380359e+00
   endloop
 endfacet
 facet normal  0.000000e+00  8.509035e-01  5.253220e-01
   outer loop
     vertex  6.000000e+00 -6.229964e+00  4.380359e+00
     vertex  6.000000e+00 -3.603355e+00  1.258411e-01
     vertex  1.000000e+00 -3.603355e+00  1.258411e-01
   endloop
 endfacet
 facet normal -0.000000e+00 -8.509035e-01 -5.253220e-01
   outer loop
     vertex  6.000000e+00 -1.048448e+01  1.753749e+00
     vertex  1.000000e+00 -1.048448e+01  1.753749e+00
     vertex  1.000000e+00 -7.857872e+00 -2.500769e+00
   endloop
 endfacet
 facet normal  0.000000e+00 -8.509035e-01 -5.253220e-01
   outer loop
     vertex  6.000000e+00 -1.048448e+01  1.753749e+00
     vertex  1.000000e+00 -7.857872e+00 -2.500769e+00
     vertex  6.000000e+00 -7.857872e+00 -2.500769e+00
   endloop
 endfacet
endsolid
