<svg xmlns="http://www.w3.org/2000/svg" xmlns:xlink="http://www.w3.org/1999/xlink" xmlns:ifc="http://www.ifcopenshell.org/ns" width="149.83mm" height="160mm" viewBox="0 0 149.83 160">
    <defs>
        <marker id="arrowend" markerWidth="10" markerHeight="7" refX="10" refY="3.5" orient="auto">
          <polygon points="0 0, 10 3.5, 0 7"/>
        </marker>
        <marker id="arrowstart" markerWidth="10" markerHeight="7" refX="0" refY="3.5" orient="auto">
          <polygon points="10 0, 0 3.5, 10 7"/>
        </marker>
    </defs>
    <g ifc:name="Elevation MY STOREY PLAN" class="section" ifc:plane="[[1.000000,0.000000,0.000000,0.000000],[0.000000,1.000000,0.000000,0.000000],[0.000000,0.000000,1.000000,1.630000],[0.000000,0.000000,0.000000,1.000000]]" ifc:matrix3="[[333.333343,0.000000,45.053715],[0.000000,333.333343,101.962613],[0.000000,0.000000,1.000000]]">
        <g id="product-8f075a9b-2058-431b-9a5b-0bf865f1baff" class="IfcWall material-null projection" ifc:name="Wall" ifc:guid="2F1rgR85X36vfR2$XbyRh$">
            <path d="M82.3871,85.9626 L74.387,85.9626"/>
            <path d="M82.3871,83.2959 L82.3871,85.9626"/>
            <path d="M74.387,83.2959 L82.3871,83.2959"/>
            <path d="M74.387,85.9626 L74.387,83.2959"/>
        </g>
    <g id="product-fda5005e-d50b-4a54-b09e-9ecdc6052cdb" class="IfcWall material-null projection" ifc:name="Wall" ifc:guid="3zfG1UrGjALB2Udit61IpR">
            <path d="M85.0537,83.2959 L85.0537,96.6293"/>
            <path d="M82.387,83.2959 L85.0537,83.2959"/>
            <path d="M82.387,96.6293 L82.387,83.2959"/>
            <path d="M85.0537,96.6293 L82.387,96.6293"/>
        </g>
        <g id="product-fb2900b3-40c0-43f0-9183-74a2e334d450" class="IfcWall material-null projection" ifc:name="Wall" ifc:guid="3xAG2pGC13y963TABZDDHG">
            <path d="M74.387,75.2959 L74.387,85.9626"/>
            <path d="M71.7204,75.2959 L74.387,75.2959"/>
            <path d="M71.7204,85.9626 L71.7204,75.2959"/>
            <path d="M74.387,85.9626 L71.7204,85.9626"/>
        </g>
        <g id="product-b8a5931c-6fc0-4822-9ca3-97d759e37734" class="IfcWall material-null projection" ifc:name="Wall" ifc:guid="2ufPCSRy188foZbzTPutSq">
            <path d="M71.7204,75.2959 L50.387,75.2959"/>
            <path d="M71.7204,77.9626 L50.387,77.9626"/>
            <path d="M50.387,77.9626 L50.387,75.2959"/>
            <path d="M71.7204,77.9626 L71.7204,75.2959"/>
        </g>
        <g id="product-72e8b0c7-0113-4449-92a4-e974ca60255d" class="IfcWall material-null projection" ifc:name="Wall" ifc:guid="1owB370HD4IPAawNJAO2LT">
            <path d="M109.054,101.963 L109.054,53.9626"/>
            <path d="M103.72,101.963 L103.72,53.9626"/>
            <path d="M103.72,53.9626 L109.054,53.9626"/>
            <path d="M103.72,101.963 L109.054,101.963"/>
        </g>
        <g id="product-ad204bc9-b86e-411a-96ae-1fbfde08a160" class="IfcWall material-null projection" ifc:name="Wall" ifc:guid="2j84l9k6v16fQk7x$U2A5W">
            <path d="M50.3871,53.9626 L50.387,101.963"/>
            <path d="M45.0537,53.9626 L50.3871,53.9626"/>
            <path d="M45.0537,101.963 L45.0537,53.9626"/>
            <path d="M50.387,101.963 L45.0537,101.963"/>
        </g>
        <g id="product-d4428fcc-6405-4f14-8ec9-48b80e0c9e15" class="IfcWall material-null projection" ifc:name="Wall" ifc:guid="3KGe$CP0LF58x9IBWE39uL">
            <path d="M103.72,53.9626 L50.387,53.9626"/>
            <path d="M103.72,59.2959 L50.387,59.2959"/>
            <path d="M50.387,59.2959 L50.387,53.9626"/>
            <path d="M103.72,59.2959 L103.72,53.9626"/>
        </g>
        <g id="product-48953282-77c3-48e2-bf60-6694ae276746" class="IfcWall material-null projection" ifc:name="Wall" ifc:guid="18bJA2TyD8uhzWPfIk9sT6">
            <path d="M103.72,96.6293 L50.387,96.6293"/>
            <path d="M103.72,101.963 L50.387,101.963"/>
            <path d="M50.387,101.963 L50.387,96.6293"/>
            <path d="M103.72,101.963 L103.72,96.6293"/>
        </g>
        <g id="product-0c76a9e6-0cd7-48ac-a1c3-63e0bca61fc3" class="IfcWindow material-null projection" ifc:name="Window" ifc:guid="0CTgdc3DT8hA73O_2yfX$3">
            <path d="M114.037,74.6293 L114.037,86.6293"/>
            <path d="M114.054,74.6293 L114.054,86.6293"/>
            <path d="M114.02,74.6293 L114.02,86.6293"/>
            <path d="M114.054,85.9626 L114.02,85.9626"/>
            <path d="M114.054,86.6293 L114.054,85.9626"/>
            <path d="M114.02,86.6293 L114.054,86.6293"/>
            <path d="M114.02,85.9626 L114.02,86.6293"/>
            <path d="M114.054,75.2959 L114.02,75.2959"/>
            <path d="M114.054,74.6293 L114.054,75.2959"/>
            <path d="M114.02,74.6293 L114.054,74.6293"/>
            <path d="M114.02,75.2959 L114.02,74.6293"/>
            <path d="M110.054,85.9626 L114.054,85.9626"/>
            <path d="M110.054,85.9593 L110.054,85.9626"/>
            <path d="M114.02,85.9593 L110.054,85.9593"/>
            <path d="M114.02,85.9626 L114.02,85.9593"/>
            <path d="M114.054,85.9626 L114.02,85.9626"/>
            <path d="M110.054,75.2959 L114.054,75.2959"/>
            <path d="M110.054,75.2993 L110.054,75.2959"/>
            <path d="M114.02,75.2993 L110.054,75.2993"/>
            <path d="M114.02,75.2959 L114.02,75.2993"/>
            <path d="M114.054,75.2959 L114.02,75.2959"/>
            <path d="M110.054,75.2993 L110.054,85.9593"/>
        </g>
        <g id="product-ae2d4b3f-fa90-400a-9794-bfd105ecbbba" class="IfcWindow material-null projection" ifc:name="Window" ifc:guid="2kBKi$_f102fUKlz45xBkw">
            <path d="M60.387,101.979 L72.3871,101.979"/>
            <path d="M60.387,101.996 L72.3871,101.996"/>
            <path d="M71.7204,101.963 L71.7204,101.996"/>
            <path d="M72.3871,101.996 L72.3871,101.963"/>
            <path d="M71.7204,101.996 L72.3871,101.996"/>
            <path d="M61.0537,101.963 L61.0537,101.996"/>
            <path d="M60.387,101.996 L60.387,101.963"/>
            <path d="M61.0537,101.996 L60.387,101.996"/>
            <path d="M71.7204,105.963 L71.7204,101.963"/>
            <path d="M71.717,105.963 L71.7204,105.963"/>
            <path d="M71.717,101.996 L71.717,105.963"/>
            <path d="M71.7204,101.996 L71.717,101.996"/>
            <path d="M71.7204,101.963 L71.7204,101.996"/>
            <path d="M61.0537,105.963 L61.0537,101.963"/>
            <path d="M61.057,105.963 L61.0537,105.963"/>
            <path d="M61.057,101.996 L61.057,105.963"/>
            <path d="M61.0537,101.996 L61.057,101.996"/>
            <path d="M61.0537,101.963 L61.0537,101.996"/>
            <path d="M61.057,105.963 L71.7171,105.963"/>
        </g>
        <g id="product-63864052-bd86-42c2-bdfd-f1d59ce10b57" class="IfcWindow material-null projection" ifc:name="Window" ifc:guid="1ZXa1IlOP2mhtzyTMSuGjN">
            <path d="M60.387,48.9793 L72.3871,48.9793"/>
            <path d="M60.387,48.9626 L72.3871,48.9626"/>
            <path d="M60.387,48.9959 L72.3871,48.9959"/>
            <path d="M71.7204,48.9626 L71.7204,48.9959"/>
            <path d="M72.3871,48.9626 L71.7204,48.9626"/>
            <path d="M72.3871,48.9959 L72.3871,48.9626"/>
            <path d="M71.7204,48.9959 L72.3871,48.9959"/>
            <path d="M61.0537,48.9626 L61.0537,48.9959"/>
            <path d="M60.387,48.9626 L61.0537,48.9626"/>
            <path d="M60.387,48.9959 L60.387,48.9626"/>
            <path d="M61.0537,48.9959 L60.387,48.9959"/>
            <path d="M71.7204,52.9626 L71.7204,48.9626"/>
            <path d="M71.717,52.9626 L71.7204,52.9626"/>
            <path d="M71.717,48.9959 L71.717,52.9626"/>
            <path d="M71.7204,48.9959 L71.717,48.9959"/>
            <path d="M71.7204,48.9626 L71.7204,48.9959"/>
            <path d="M61.0537,52.9626 L61.0537,48.9626"/>
            <path d="M61.057,52.9626 L61.0537,52.9626"/>
            <path d="M61.057,48.9959 L61.057,52.9626"/>
            <path d="M61.0537,48.9959 L61.057,48.9959"/>
            <path d="M61.0537,48.9626 L61.0537,48.9959"/>
            <path d="M61.057,52.9626 L71.7171,52.9626"/>
        </g>
        <g id="product-aecfbb5d-a2a2-4973-ac9f-0c7c265db9c8" class="IfcDoor material-null projection" ifc:name="Door" ifc:guid="2kpxjTeg99SwoV37mcNRd8">
            <path d="M55.7237,64.6682 L55.7237,75.2959"/>
            <path d="M57.057,64.6682 L55.7237,64.6682"/>
            <path d="M57.057,75.2959 L57.057,64.6682"/>
            <path d="M60.6262,65.4797 L57.057,64.6682"/>
            <path d="M63.652,67.7905 L60.6262,65.4797"/>
            <path d="M65.6738,71.2488 L63.652,67.7905"/>
            <path d="M66.3781,75.2959 L65.6738,71.2488"/>
        </g>
        <g id="product-783162b4-1fd6-48ea-aa79-0e01eefd2c20" class="IfcDoor material-null projection" ifc:name="Door" ifc:guid="1uCMAq7zP8wgfv3W7k$ImW">
            <path d="M82.3904,43.1963 L82.3904,53.8563"/>
            <path d="M83.7237,43.1963 L82.3904,43.1963"/>
            <path d="M83.7237,53.8563 L83.7237,43.1963"/>
            <path d="M82.3904,53.8563 L83.7237,53.8563"/>
            <path d="M87.2929,44.0077 L83.7237,43.1963"/>
            <path d="M90.3187,46.3185 L87.2929,44.0077"/>
            <path d="M92.3404,49.7769 L90.3187,46.3185"/>
            <path d="M93.0504,53.8563 L92.3404,49.7769"/>
            <path d="M93.0504,53.8563 L93.0504,53.9626"/>
            <path d="M93.0537,53.8563 L93.0504,53.8563"/>
            <path d="M93.0537,53.9626 L93.0537,53.8563"/>
            <path d="M82.3904,53.8563 L82.3904,53.9626"/>
            <path d="M82.3871,53.8563 L82.3904,53.8563"/>
            <path d="M82.3871,53.9626 L82.3871,53.8563"/>
        </g>
        </g>
</svg>