solid tile.stl
facet normal 0.0 0.75 1.5
  outer loop
    vertex 0.5 0.5 -1.0
    vertex -0.5 -0.5 -0.5
    vertex 1.0 -0.5 -0.5
  endloop
endfacet
facet normal 1.5 0.75 0.0
  outer loop
    vertex -0.5 -0.5 1.0
    vertex -0.5 -0.5 -0.5
    vertex -1.0 0.5 0.5
  endloop
endfacet
facet normal -1.0 -0.0 -0.5
  outer loop
    vertex -0.5 0.5 -0.5
    vertex -0.5 -0.5 -0.5
    vertex -1.0 0.5 0.5
  endloop
endfacet
facet normal -0.5 -0.0 -1.0
  outer loop
    vertex -0.5 0.5 -0.5
    vertex 0.5 0.5 -1.0
    vertex -0.5 -0.5 -0.5
  endloop
endfacet
facet normal -1.5 -0.75 -0.0
  outer loop
    vertex 0.5 0.5 0.5
    vertex 0.5 0.5 -1.0
    vertex 1.0 -0.5 -0.5
  endloop
endfacet
facet normal -0.0 -0.75 -1.5
  outer loop
    vertex 0.5 0.5 0.5
    vertex -0.5 -0.5 1.0
    vertex -1.0 0.5 0.5
  endloop
endfacet
facet normal -1.0 0.0 -0.5
  outer loop
    vertex 0.5 -0.5 0.5
    vertex 0.5 0.5 0.5
    vertex 1.0 -0.5 -0.5
  endloop
endfacet
facet normal 0.5 -0.0 1.0
  outer loop
    vertex 0.5 -0.5 0.5
    vertex 0.5 0.5 0.5
    vertex -0.5 -0.5 1.0
  endloop
endfacet
facet normal 0.0 -1.5 -0.0
  outer loop
    vertex 0.5 0.5 0.5
    vertex -0.5 0.5 -0.5
    vertex 0.5 0.5 -1.0
  endloop
endfacet
facet normal 0.0 1.5 0.0
  outer loop
    vertex 0.5 0.5 0.5
    vertex -0.5 0.5 -0.5
    vertex -1.0 0.5 0.5
  endloop
endfacet
facet normal -0.0 -1.5 0.0
  outer loop
    vertex 0.5 -0.5 0.5
    vertex -0.5 -0.5 1.0
    vertex -0.5 -0.5 -0.5
  endloop
endfacet
facet normal 0.0 -1.5 -0.0
  outer loop
    vertex 0.5 -0.5 0.5
    vertex -0.5 -0.5 -0.5
    vertex 1.0 -0.5 -0.5
  endloop
endfacet
endsolid tile.stl
