solid tile.stl
facet normal 0.0 0.0 2.0
  outer loop
    vertex 1.0 0.5 -2.0
    vertex -1.0 -0.5 -2.0
    vertex 1.0 -0.5 -2.0
  endloop
endfacet
facet normal -0.0 0.0 -2.0
  outer loop
    vertex 1.0 0.5 -2.0
    vertex -1.0 -0.5 -2.0
    vertex -1.0 0.5 -2.0
  endloop
endfacet
facet normal -0.0 5.0 0.0
  outer loop
    vertex -1.0 -0.5 0.5
    vertex 1.0 -0.5 0.5
    vertex 1.0 -0.5 -2.0
  endloop
endfacet
facet normal 0.0 -5.0 0.0
  outer loop
    vertex -1.0 -0.5 0.5
    vertex -1.0 -0.5 -2.0
    vertex 1.0 -0.5 -2.0
  endloop
endfacet
facet normal 2.5 0.0 0.0
  outer loop
    vertex 1.0 0.5 0.5
    vertex 1.0 -0.5 0.5
    vertex 1.0 -0.5 -2.0
  endloop
endfacet
facet normal -2.5 0.0 -0.0
  outer loop
    vertex 1.0 0.5 0.5
    vertex 1.0 0.5 -2.0
    vertex 1.0 -0.5 -2.0
  endloop
endfacet
facet normal 2.5 0.0 0.0
  outer loop
    vertex -1.0 0.5 0.5
    vertex -1.0 -0.5 0.5
    vertex -1.0 -0.5 -2.0
  endloop
endfacet
facet normal 2.5 0.0 0.0
  outer loop
    vertex -1.0 0.5 0.5
    vertex -1.0 -0.5 -2.0
    vertex -1.0 0.5 -2.0
  endloop
endfacet
facet normal -0.0 5.0 0.0
  outer loop
    vertex -1.0 0.5 0.5
    vertex 1.0 0.5 0.5
    vertex 1.0 0.5 -2.0
  endloop
endfacet
facet normal 0.0 5.0 0.0
  outer loop
    vertex -1.0 0.5 0.5
    vertex 1.0 0.5 -2.0
    vertex -1.0 0.5 -2.0
  endloop
endfacet
facet normal 0.0 0.0 2.0
  outer loop
    vertex -1.0 0.5 0.5
    vertex -1.0 -0.5 0.5
    vertex 1.0 -0.5 0.5
  endloop
endfacet
facet normal 0.0 0.0 -2.0
  outer loop
    vertex -1.0 0.5 0.5
    vertex 1.0 0.5 0.5
    vertex 1.0 -0.5 0.5
  endloop
endfacet
endsolid tile.stl
