solid cube.stl
facet normal 3.469447e-18 4.8844272e-11 -0.0010239992
  outer loop
    vertex 0.304 0.06399989 7.631873e-10
    vertex 0.304 0.047999892 -5.066782e-15
    vertex 0.24000004 0.047999915 -4.2234714e-15
  endloop
endfacet
facet normal 3.7360026e-18 4.8844272e-11 -0.0010239992
  outer loop
    vertex 0.24000004 0.06399991 7.631881e-10
    vertex 0.304 0.06399989 7.631873e-10
    vertex 0.24000004 0.047999915 -4.2234714e-15
  endloop
endfacet
facet normal -0.0009216 0.0 0.0
  outer loop
    vertex 0.24000004 0.047999915 -4.2234714e-15
    vertex 0.24000004 0.04799991 0.057599988
    vertex 0.24000004 0.06399991 0.057599988
  endloop
endfacet
facet normal -0.00092159974 0.0 0.0
  outer loop
    vertex 0.24000004 0.047999915 -4.2234714e-15
    vertex 0.24000004 0.06399991 0.057599988
    vertex 0.24000004 0.06399991 7.631881e-10
  endloop
endfacet
facet normal 0.0 0.0 -0.00051200006
  outer loop
    vertex 0.24000004 0.04799991 0.057599988
    vertex 0.20800003 0.047999922 0.057599988
    vertex 0.20800003 0.06399992 0.057599988
  endloop
endfacet
facet normal 0.0 0.0 -0.0005120002
  outer loop
    vertex 0.24000004 0.04799991 0.057599988
    vertex 0.20800003 0.06399992 0.057599988
    vertex 0.24000004 0.06399991 0.057599988
  endloop
endfacet
facet normal 0.0009215999 0.0 0.0
  outer loop
    vertex 0.20800003 0.047999922 0.057599988
    vertex 0.20800003 0.047999926 -3.6901257e-15
    vertex 0.20800003 0.06399993 7.631887e-10
  endloop
endfacet
facet normal 0.00092159974 -0.0 0.0
  outer loop
    vertex 0.20800003 0.047999922 0.057599988
    vertex 0.20800003 0.06399993 7.631887e-10
    vertex 0.20800003 0.06399992 0.057599988
  endloop
endfacet
facet normal -1.7347235e-18 1.16005254e-10 -0.0024320008
  outer loop
    vertex 0.20800003 0.06399993 7.631887e-10
    vertex 0.20800003 0.047999926 -3.6901257e-15
    vertex 0.056000013 0.04799998 -8.713229e-16
  endloop
endfacet
facet normal -5.4935083e-18 1.16005254e-10 -0.002432
  outer loop
    vertex 0.056000017 0.06399998 7.631915e-10
    vertex 0.20800003 0.06399993 7.631887e-10
    vertex 0.056000013 0.04799998 -8.713229e-16
  endloop
endfacet
facet normal -0.0009215996 2.1457665e-10 1.3877788e-17
  outer loop
    vertex 0.056000017 0.06399998 7.631915e-10
    vertex 0.056000013 0.04799998 -8.713229e-16
    vertex 0.056000013 0.047999978 0.05759998
  endloop
endfacet
facet normal -0.00092159986 2.1457665e-10 0.0
  outer loop
    vertex 0.056000017 0.06399998 0.05759998
    vertex 0.056000017 0.06399998 7.631915e-10
    vertex 0.056000013 0.047999978 0.05759998
  endloop
endfacet
facet normal 0.0 0.0 -0.0005119999
  outer loop
    vertex 0.056000013 0.047999978 0.05759998
    vertex 0.024000019 0.04799999 0.05759998
    vertex 0.024000024 0.06399999 0.05759998
  endloop
endfacet
facet normal 0.0 0.0 -0.000512
  outer loop
    vertex 0.056000013 0.047999978 0.05759998
    vertex 0.024000024 0.06399999 0.05759998
    vertex 0.056000017 0.06399998 0.05759998
  endloop
endfacet
facet normal 0.0009215994 -3.2186498e-10 -2.0816682e-17
  outer loop
    vertex 0.024000019 0.04799999 0.05759998
    vertex 0.024000019 0.047999993 -3.379775e-16
    vertex 0.024000024 0.06399999 7.63192e-10
  endloop
endfacet
facet normal 0.0009215996 -3.2186498e-10 0.0
  outer loop
    vertex 0.024000019 0.04799999 0.05759998
    vertex 0.024000024 0.06399999 7.63192e-10
    vertex 0.024000024 0.06399999 0.05759998
  endloop
endfacet
facet normal 0.0 1.8316631e-11 -0.0003840002
  outer loop
    vertex 0.024000024 0.06399999 7.63192e-10
    vertex 0.024000019 0.047999993 -3.379775e-16
    vertex 0.0 0.048 0.0
  endloop
endfacet
facet normal 6.0433807e-18 1.8316631e-11 -0.00038400036
  outer loop
    vertex 5.722046e-09 0.064 7.6319234e-10
    vertex 0.024000024 0.06399999 7.63192e-10
    vertex 0.0 0.048 0.0
  endloop
endfacet
facet normal -0.0019200003 6.866455e-10 4.1633363e-17
  outer loop
    vertex 5.722046e-09 0.064 7.6319234e-10
    vertex 0.0 0.048 0.0
    vertex -4.6995793e-17 0.047999993 0.12
  endloop
endfacet
facet normal -0.0019200003 6.866455e-10 4.2632565e-17
  outer loop
    vertex 5.722046e-09 0.063999996 0.12
    vertex 5.722046e-09 0.064 7.6319234e-10
    vertex -4.6995793e-17 0.047999993 0.12
  endloop
endfacet
facet normal -0.0 0.0 0.004864
  outer loop
    vertex -4.6995793e-17 0.047999993 0.12
    vertex 0.304 0.047999885 0.12
    vertex 0.304 0.063999884 0.12
  endloop
endfacet
facet normal 0.0 0.0 0.0048640007
  outer loop
    vertex -4.6995793e-17 0.047999993 0.12
    vertex 0.304 0.063999884 0.12
    vertex 5.722046e-09 0.063999996 0.12
  endloop
endfacet
facet normal 0.0019199998 0.0 0.0
  outer loop
    vertex 0.304 0.047999885 0.12
    vertex 0.304 0.047999892 -5.066782e-15
    vertex 0.304 0.06399989 7.631873e-10
  endloop
endfacet
facet normal 0.0019199998 -0.0 0.0
  outer loop
    vertex 0.304 0.047999885 0.12
    vertex 0.304 0.06399989 7.631873e-10
    vertex 0.304 0.063999884 0.12
  endloop
endfacet
facet normal -2.6643274e-09 -0.0076799938 -4.768368e-10
  outer loop
    vertex 0.24000004 0.04799991 0.057599988
    vertex 0.304 0.047999892 -5.066782e-15
    vertex 0.304 0.047999885 0.12
  endloop
endfacet
facet normal -6.9737444e-10 -0.0019968005 -1.1920998e-10
  outer loop
    vertex 0.20800003 0.047999922 0.057599988
    vertex 0.24000004 0.04799991 0.057599988
    vertex 0.304 0.047999885 0.12
  endloop
endfacet
facet normal -1.28746e-09 -0.0036863964 -2.384184e-10
  outer loop
    vertex 0.24000004 0.047999915 -4.2234714e-15
    vertex 0.304 0.047999892 -5.066782e-15
    vertex 0.24000004 0.04799991 0.057599988
  endloop
endfacet
facet normal -6.741286e-09 -0.018969603 -9.53678e-10
  outer loop
    vertex -4.6995793e-17 0.047999993 0.12
    vertex 0.20800003 0.047999922 0.057599988
    vertex 0.304 0.047999885 0.12
  endloop
endfacet
facet normal -3.2186502e-09 -0.0087552 -5.6624483e-10
  outer loop
    vertex 0.056000013 0.047999978 0.05759998
    vertex 0.20800003 0.047999926 -3.6901257e-15
    vertex 0.20800003 0.047999922 0.057599988
  endloop
endfacet
facet normal -3.4868726e-09 -0.009484804 -8.6426777e-10
  outer loop
    vertex 0.056000013 0.047999978 0.05759998
    vertex 0.20800003 0.047999922 0.057599988
    vertex -4.6995793e-17 0.047999993 0.12
  endloop
endfacet
facet normal -6.9737455e-10 -0.0019968 -1.4901184e-10
  outer loop
    vertex 0.024000019 0.04799999 0.05759998
    vertex 0.056000013 0.047999978 0.05759998
    vertex -4.6995793e-17 0.047999993 0.12
  endloop
endfacet
facet normal -3.2186498e-09 -0.008755199 -5.662442e-10
  outer loop
    vertex 0.056000013 0.04799998 -8.713229e-16
    vertex 0.20800003 0.047999926 -3.6901257e-15
    vertex 0.056000013 0.047999978 0.05759998
  endloop
endfacet
facet normal -4.291533e-10 -0.0013824006 -8.940704e-11
  outer loop
    vertex 0.0 0.048 0.0
    vertex 0.024000019 0.047999993 -3.379775e-16
    vertex 0.024000019 0.04799999 0.05759998
  endloop
endfacet
facet normal -9.119512e-10 -0.0028800021 -1.7881407e-10
  outer loop
    vertex 0.0 0.048 0.0
    vertex 0.024000019 0.04799999 0.05759998
    vertex -4.6995793e-17 0.047999993 0.12
  endloop
endfacet
facet normal 3.1113623e-09 0.0076799938 4.768368e-10
  outer loop
    vertex 0.304 0.063999884 0.12
    vertex 0.304 0.06399989 7.631873e-10
    vertex 0.24000004 0.06399991 0.057599988
  endloop
endfacet
facet normal 4.6491622e-10 0.0019968008 4.768377e-10
  outer loop
    vertex 0.304 0.063999884 0.12
    vertex 0.24000004 0.06399991 0.057599988
    vertex 0.20800003 0.06399992 0.057599988
  endloop
endfacet
facet normal 1.28746e-09 0.0036863964 0.0
  outer loop
    vertex 0.24000004 0.06399991 0.057599988
    vertex 0.304 0.06399989 7.631873e-10
    vertex 0.24000004 0.06399991 7.631881e-10
  endloop
endfacet
facet normal 6.9737447e-09 0.018969603 5.960512e-10
  outer loop
    vertex 0.304 0.063999884 0.12
    vertex 0.20800003 0.06399992 0.057599988
    vertex 5.722046e-09 0.063999996 0.12
  endloop
endfacet
facet normal 3.4332268e-09 0.008755199 1.1324883e-09
  outer loop
    vertex 0.20800003 0.06399992 0.057599988
    vertex 0.20800003 0.06399993 7.631887e-10
    vertex 0.056000017 0.06399998 0.05759998
  endloop
endfacet
facet normal 3.719331e-09 0.009484805 1.0728836e-09
  outer loop
    vertex 5.722046e-09 0.063999996 0.12
    vertex 0.20800003 0.06399992 0.057599988
    vertex 0.056000017 0.06399998 0.05759998
  endloop
endfacet
facet normal 4.6491636e-10 0.0019967998 -5.960443e-11
  outer loop
    vertex 5.722046e-09 0.063999996 0.12
    vertex 0.056000017 0.06399998 0.05759998
    vertex 0.024000024 0.06399999 0.05759998
  endloop
endfacet
facet normal 3.004073e-09 0.008755198 0.0
  outer loop
    vertex 0.056000017 0.06399998 0.05759998
    vertex 0.20800003 0.06399993 7.631887e-10
    vertex 0.056000017 0.06399998 7.631915e-10
  endloop
endfacet
facet normal 8.583066e-10 0.0013824006 0.0
  outer loop
    vertex 0.024000024 0.06399999 0.05759998
    vertex 0.024000024 0.06399999 7.63192e-10
    vertex 5.722046e-09 0.064 7.6319234e-10
  endloop
endfacet
facet normal 1.358986e-09 0.0028800021 1.7881407e-10
  outer loop
    vertex 5.722046e-09 0.063999996 0.12
    vertex 0.024000024 0.06399999 0.05759998
    vertex 5.722046e-09 0.064 7.6319234e-10
  endloop
endfacet
facet normal 0.0 -0.0019199967 0.0
  outer loop
    vertex -0.528 -0.232 0.0
    vertex -0.512 -0.232 0.0
    vertex -0.512 -0.232 0.12
  endloop
endfacet
facet normal 0.0 -0.0019199967 0.0
  outer loop
    vertex -0.528 -0.232 0.0
    vertex -0.512 -0.232 0.12
    vertex -0.528 -0.232 0.12
  endloop
endfacet
facet normal -0.036000002 7.152557e-09 0.0
  outer loop
    vertex -0.52799994 0.06800002 0.0
    vertex -0.528 -0.232 0.0
    vertex -0.528 -0.232 0.12
  endloop
endfacet
facet normal -0.036000002 7.152557e-09 0.0
  outer loop
    vertex -0.52799994 0.06800002 0.0
    vertex -0.528 -0.232 0.12
    vertex -0.52799994 0.06800002 0.12
  endloop
endfacet
facet normal 8.9406965e-10 0.0019200038 0.0
  outer loop
    vertex -0.5119999 0.06800001 0.0
    vertex -0.52799994 0.06800002 0.0
    vertex -0.52799994 0.06800002 0.12
  endloop
endfacet
facet normal 8.9406965e-10 0.0019200038 -0.0
  outer loop
    vertex -0.5119999 0.06800001 0.0
    vertex -0.52799994 0.06800002 0.12
    vertex -0.5119999 0.06800001 0.12
  endloop
endfacet
facet normal 0.036000002 -1.4305114e-08 0.0
  outer loop
    vertex -0.512 -0.232 0.0
    vertex -0.5119999 0.06800001 0.0
    vertex -0.5119999 0.06800001 0.12
  endloop
endfacet
facet normal 0.036000002 -1.4305114e-08 0.0
  outer loop
    vertex -0.512 -0.232 0.0
    vertex -0.5119999 0.06800001 0.12
    vertex -0.512 -0.232 0.12
  endloop
endfacet
facet normal 0.0 0.0 -0.00480001
  outer loop
    vertex -0.528 -0.232 0.0
    vertex -0.52799994 0.06800002 0.0
    vertex -0.5119999 0.06800001 0.0
  endloop
endfacet
facet normal 0.0 0.0 -0.004799992
  outer loop
    vertex -0.528 -0.232 0.0
    vertex -0.5119999 0.06800001 0.0
    vertex -0.512 -0.232 0.0
  endloop
endfacet
facet normal 0.0 0.0 0.00480001
  outer loop
    vertex -0.5119999 0.06800001 0.12
    vertex -0.52799994 0.06800002 0.12
    vertex -0.528 -0.232 0.12
  endloop
endfacet
facet normal 0.0 -0.0 0.004799992
  outer loop
    vertex -0.512 -0.232 0.12
    vertex -0.5119999 0.06800001 0.12
    vertex -0.528 -0.232 0.12
  endloop
endfacet
facet normal -0.004800001 0.0 0.0
  outer loop
    vertex 0.08 -0.13599999 0.0
    vertex 0.08 -0.152 0.0
    vertex 0.08 -0.152 0.3
  endloop
endfacet
facet normal -0.004800001 0.0 0.0
  outer loop
    vertex 0.08 -0.13599999 0.0
    vertex 0.08 -0.152 0.3
    vertex 0.08 -0.13599999 0.3
  endloop
endfacet
facet normal 0.0 0.036000002 0.0
  outer loop
    vertex 0.2 -0.13599999 0.0
    vertex 0.08 -0.13599999 0.0
    vertex 0.08 -0.13599999 0.3
  endloop
endfacet
facet normal 0.0 0.036000002 -0.0
  outer loop
    vertex 0.2 -0.13599999 0.0
    vertex 0.08 -0.13599999 0.3
    vertex 0.2 -0.13599999 0.3
  endloop
endfacet
facet normal 0.004800001 0.0 0.0
  outer loop
    vertex 0.2 -0.152 0.0
    vertex 0.2 -0.13599999 0.0
    vertex 0.2 -0.13599999 0.3
  endloop
endfacet
facet normal 0.004800001 0.0 0.0
  outer loop
    vertex 0.2 -0.152 0.0
    vertex 0.2 -0.13599999 0.3
    vertex 0.2 -0.152 0.3
  endloop
endfacet
facet normal 0.0 -0.036000002 0.0
  outer loop
    vertex 0.08 -0.152 0.0
    vertex 0.2 -0.152 0.0
    vertex 0.2 -0.152 0.3
  endloop
endfacet
facet normal 0.0 -0.036000002 0.0
  outer loop
    vertex 0.08 -0.152 0.0
    vertex 0.2 -0.152 0.3
    vertex 0.08 -0.152 0.3
  endloop
endfacet
facet normal 0.0 0.0 -0.0019200004
  outer loop
    vertex 0.08 -0.13599999 0.0
    vertex 0.2 -0.13599999 0.0
    vertex 0.2 -0.152 0.0
  endloop
endfacet
facet normal 0.0 0.0 -0.0019200004
  outer loop
    vertex 0.08 -0.13599999 0.0
    vertex 0.2 -0.152 0.0
    vertex 0.08 -0.152 0.0
  endloop
endfacet
facet normal 0.0 -0.0 0.0019200004
  outer loop
    vertex 0.2 -0.152 0.3
    vertex 0.2 -0.13599999 0.3
    vertex 0.08 -0.13599999 0.3
  endloop
endfacet
facet normal 0.0 0.0 0.0019200004
  outer loop
    vertex 0.08 -0.152 0.3
    vertex 0.2 -0.152 0.3
    vertex 0.08 -0.13599999 0.3
  endloop
endfacet
endsolid cube.stl
