solid cube.stl
facet normal -8.6736174e-19 4.579152e-11 -0.00095999974
  outer loop
    vertex 0.3 0.1839999 7.6318735e-10
    vertex 0.3 0.1679999 -5.0001143e-15
    vertex 0.24000004 0.16799991 -4.2234714e-15
  endloop
endfacet
facet normal -1.0620478e-18 4.579152e-11 -0.00095999974
  outer loop
    vertex 0.24000004 0.18399991 7.631881e-10
    vertex 0.3 0.1839999 7.6318735e-10
    vertex 0.24000004 0.16799991 -4.2234714e-15
  endloop
endfacet
facet normal -0.0009216 0.0 0.0
  outer loop
    vertex 0.24000004 0.16799991 -4.2234714e-15
    vertex 0.24000004 0.16799991 0.057599988
    vertex 0.24000004 0.18399991 0.057599988
  endloop
endfacet
facet normal -0.0009216 0.0 0.0
  outer loop
    vertex 0.24000004 0.16799991 -4.2234714e-15
    vertex 0.24000004 0.18399991 0.057599988
    vertex 0.24000004 0.18399991 7.631881e-10
  endloop
endfacet
facet normal 0.0 0.0 -0.0005120002
  outer loop
    vertex 0.24000004 0.16799991 0.057599988
    vertex 0.20800003 0.16799992 0.057599988
    vertex 0.20800003 0.18399993 0.057599988
  endloop
endfacet
facet normal 0.0 0.0 -0.0005120002
  outer loop
    vertex 0.24000004 0.16799991 0.057599988
    vertex 0.20800003 0.18399993 0.057599988
    vertex 0.24000004 0.18399991 0.057599988
  endloop
endfacet
facet normal 0.0009216 0.0 0.0
  outer loop
    vertex 0.20800003 0.16799992 0.057599988
    vertex 0.20800003 0.16799992 -3.6901257e-15
    vertex 0.20800003 0.18399993 7.631887e-10
  endloop
endfacet
facet normal 0.0009216 -0.0 0.0
  outer loop
    vertex 0.20800003 0.16799992 0.057599988
    vertex 0.20800003 0.18399993 7.631887e-10
    vertex 0.20800003 0.18399993 0.057599988
  endloop
endfacet
facet normal 8.6736174e-19 1.16005254e-10 -0.0024320008
  outer loop
    vertex 0.20800003 0.18399993 7.631887e-10
    vertex 0.20800003 0.16799992 -3.6901257e-15
    vertex 0.056000013 0.16799998 -8.713229e-16
  endloop
endfacet
facet normal -1.1179707e-17 1.16005254e-10 -0.0024319983
  outer loop
    vertex 0.056000017 0.18399997 7.631915e-10
    vertex 0.20800003 0.18399993 7.631887e-10
    vertex 0.056000013 0.16799998 -8.713229e-16
  endloop
endfacet
facet normal -0.000921599 2.1457665e-10 5.551115e-17
  outer loop
    vertex 0.056000017 0.18399997 7.631915e-10
    vertex 0.056000013 0.16799998 -8.713229e-16
    vertex 0.056000013 0.16799997 0.05759998
  endloop
endfacet
facet normal -0.00092159986 2.1457665e-10 0.0
  outer loop
    vertex 0.056000017 0.18399997 0.05759998
    vertex 0.056000017 0.18399997 7.631915e-10
    vertex 0.056000013 0.16799997 0.05759998
  endloop
endfacet
facet normal 0.0 0.0 -0.000512
  outer loop
    vertex 0.056000013 0.16799997 0.05759998
    vertex 0.024000019 0.16799998 0.05759998
    vertex 0.024000024 0.18399999 0.05759998
  endloop
endfacet
facet normal 0.0 0.0 -0.000512
  outer loop
    vertex 0.056000013 0.16799997 0.05759998
    vertex 0.024000024 0.18399999 0.05759998
    vertex 0.056000017 0.18399997 0.05759998
  endloop
endfacet
facet normal 0.00092159986 -3.2186498e-10 0.0
  outer loop
    vertex 0.024000019 0.16799998 0.05759998
    vertex 0.024000019 0.16799998 -3.379775e-16
    vertex 0.024000024 0.18399999 7.63192e-10
  endloop
endfacet
facet normal 0.00092159986 -3.2186498e-10 0.0
  outer loop
    vertex 0.024000019 0.16799998 0.05759998
    vertex 0.024000024 0.18399999 7.63192e-10
    vertex 0.024000024 0.18399999 0.05759998
  endloop
endfacet
facet normal 6.071532e-18 1.8316631e-11 -0.00038400036
  outer loop
    vertex 0.024000024 0.18399999 7.63192e-10
    vertex 0.024000019 0.16799998 -3.379775e-16
    vertex 0.0 0.168 0.0
  endloop
endfacet
facet normal 6.0433807e-18 1.8316631e-11 -0.00038400036
  outer loop
    vertex 5.722046e-09 0.184 7.6319234e-10
    vertex 0.024000024 0.18399999 7.63192e-10
    vertex 0.0 0.168 0.0
  endloop
endfacet
facet normal -0.0019200003 6.866455e-10 0.0
  outer loop
    vertex 5.722046e-09 0.184 7.6319234e-10
    vertex 0.0 0.168 0.0
    vertex -4.6995793e-17 0.168 0.12
  endloop
endfacet
facet normal -0.0019199984 6.866455e-10 8.526513e-17
  outer loop
    vertex 5.722046e-09 0.18399999 0.12
    vertex 5.722046e-09 0.184 7.6319234e-10
    vertex -4.6995793e-17 0.168 0.12
  endloop
endfacet
facet normal -0.0 0.0 0.004800001
  outer loop
    vertex -4.6995793e-17 0.168 0.12
    vertex 0.3 0.16799988 0.12
    vertex 0.3 0.18399988 0.12
  endloop
endfacet
facet normal 0.0 0.0 0.0047999965
  outer loop
    vertex -4.6995793e-17 0.168 0.12
    vertex 0.3 0.18399988 0.12
    vertex 5.722046e-09 0.18399999 0.12
  endloop
endfacet
facet normal 0.0019200003 0.0 0.0
  outer loop
    vertex 0.3 0.16799988 0.12
    vertex 0.3 0.1679999 -5.0001143e-15
    vertex 0.3 0.1839999 7.6318735e-10
  endloop
endfacet
facet normal 0.0019200003 -0.0 0.0
  outer loop
    vertex 0.3 0.16799988 0.12
    vertex 0.3 0.1839999 7.6318735e-10
    vertex 0.3 0.18399988 0.12
  endloop
endfacet
facet normal -2.646446e-09 -0.0071999966 -8.9406926e-10
  outer loop
    vertex 0.24000004 0.16799991 0.057599988
    vertex 0.3 0.1679999 -5.0001143e-15
    vertex 0.3 0.16799988 0.12
  endloop
endfacet
facet normal -9.298326e-10 -0.0019968005 -5.960521e-11
  outer loop
    vertex 0.20800003 0.16799992 0.057599988
    vertex 0.24000004 0.16799991 0.057599988
    vertex 0.3 0.16799988 0.12
  endloop
endfacet
facet normal -8.583067e-10 -0.0034559977 0.0
  outer loop
    vertex 0.24000004 0.16799991 -4.2234714e-15
    vertex 0.3 0.1679999 -5.0001143e-15
    vertex 0.24000004 0.16799991 0.057599988
  endloop
endfacet
facet normal -7.438661e-09 -0.018720003 -2.4437945e-09
  outer loop
    vertex -4.6995793e-17 0.168 0.12
    vertex 0.20800003 0.16799992 0.057599988
    vertex 0.3 0.16799988 0.12
  endloop
endfacet
facet normal -2.5749203e-09 -0.0087552 0.0
  outer loop
    vertex 0.056000013 0.16799997 0.05759998
    vertex 0.20800003 0.16799992 -3.6901257e-15
    vertex 0.20800003 0.16799992 0.057599988
  endloop
endfacet
facet normal -2.7894984e-09 -0.009484804 2.026558e-09
  outer loop
    vertex 0.056000013 0.16799997 0.05759998
    vertex 0.20800003 0.16799992 0.057599988
    vertex -4.6995793e-17 0.168 0.12
  endloop
endfacet
facet normal -9.298327e-10 -0.0019968 1.1920892e-10
  outer loop
    vertex 0.024000019 0.16799998 0.05759998
    vertex 0.056000013 0.16799997 0.05759998
    vertex -4.6995793e-17 0.168 0.12
  endloop
endfacet
facet normal -3.4332264e-09 -0.008755199 -2.2649769e-09
  outer loop
    vertex 0.056000013 0.16799998 -8.713229e-16
    vertex 0.20800003 0.16799992 -3.6901257e-15
    vertex 0.056000013 0.16799997 0.05759998
  endloop
endfacet
facet normal -8.583066e-10 -0.0013824006 0.0
  outer loop
    vertex 0.0 0.168 0.0
    vertex 0.024000019 0.16799998 -3.379775e-16
    vertex 0.024000019 0.16799998 0.05759998
  endloop
endfacet
facet normal -1.7881393e-09 -0.0028800021 -7.002919e-25
  outer loop
    vertex 0.0 0.168 0.0
    vertex 0.024000019 0.16799998 0.05759998
    vertex -4.6995793e-17 0.168 0.12
  endloop
endfacet
facet normal 2.646446e-09 0.0071999966 8.9406926e-10
  outer loop
    vertex 0.3 0.18399988 0.12
    vertex 0.3 0.1839999 7.6318735e-10
    vertex 0.24000004 0.18399991 0.057599988
  endloop
endfacet
facet normal 9.2983254e-10 0.0019968005 5.960521e-11
  outer loop
    vertex 0.3 0.18399988 0.12
    vertex 0.24000004 0.18399991 0.057599988
    vertex 0.20800003 0.18399993 0.057599988
  endloop
endfacet
facet normal 8.583067e-10 0.0034559977 0.0
  outer loop
    vertex 0.24000004 0.18399991 0.057599988
    vertex 0.3 0.1839999 7.6318735e-10
    vertex 0.24000004 0.18399991 7.631881e-10
  endloop
endfacet
facet normal 6.508828e-09 0.018720003 3.8147006e-09
  outer loop
    vertex 0.3 0.18399988 0.12
    vertex 0.20800003 0.18399993 0.057599988
    vertex 5.722046e-09 0.18399999 0.12
  endloop
endfacet
facet normal 2.57492e-09 0.008755199 0.0
  outer loop
    vertex 0.20800003 0.18399993 0.057599988
    vertex 0.20800003 0.18399993 7.631887e-10
    vertex 0.056000017 0.18399997 0.05759998
  endloop
endfacet
facet normal 2.7894982e-09 0.009484805 2.3841862e-10
  outer loop
    vertex 5.722046e-09 0.18399999 0.12
    vertex 0.20800003 0.18399993 0.057599988
    vertex 0.056000017 0.18399997 0.05759998
  endloop
endfacet
facet normal 9.298327e-10 0.0019967998 3.5762815e-10
  outer loop
    vertex 5.722046e-09 0.18399999 0.12
    vertex 0.056000017 0.18399997 0.05759998
    vertex 0.024000024 0.18399999 0.05759998
  endloop
endfacet
facet normal 2.5749198e-09 0.008755198 0.0
  outer loop
    vertex 0.056000017 0.18399997 0.05759998
    vertex 0.20800003 0.18399993 7.631887e-10
    vertex 0.056000017 0.18399997 7.631915e-10
  endloop
endfacet
facet normal 8.583066e-10 0.0013824006 0.0
  outer loop
    vertex 0.024000024 0.18399999 0.05759998
    vertex 0.024000024 0.18399999 7.63192e-10
    vertex 5.722046e-09 0.184 7.6319234e-10
  endloop
endfacet
facet normal 9.298327e-10 0.0028800021 3.5762815e-10
  outer loop
    vertex 5.722046e-09 0.18399999 0.12
    vertex 0.024000024 0.18399999 0.05759998
    vertex 5.722046e-09 0.184 7.6319234e-10
  endloop
endfacet
facet normal 0.0 -0.0032 0.0
  outer loop
    vertex -0.016 -0.312 0.16176996
    vertex 0.0 -0.312 0.16176996
    vertex 0.0 -0.312 0.36176994
  endloop
endfacet
facet normal 0.0 -0.0032 0.0
  outer loop
    vertex -0.016 -0.312 0.16176996
    vertex 0.0 -0.312 0.36176994
    vertex -0.016 -0.312 0.36176994
  endloop
endfacet
facet normal -0.060799994 1.9371509e-08 0.0
  outer loop
    vertex -0.015999904 -0.008000008 0.16176996
    vertex -0.016 -0.312 0.16176996
    vertex -0.016 -0.312 0.36176994
  endloop
endfacet
facet normal -0.060799994 1.9371509e-08 0.0
  outer loop
    vertex -0.015999904 -0.008000008 0.16176996
    vertex -0.016 -0.312 0.36176994
    vertex -0.015999904 -0.008000008 0.36176994
  endloop
endfacet
facet normal 1.117587e-09 0.0031999997 0.0
  outer loop
    vertex 9.543061e-08 -0.008000013 0.16176996
    vertex -0.015999904 -0.008000008 0.16176996
    vertex -0.015999904 -0.008000008 0.36176994
  endloop
endfacet
facet normal 1.117587e-09 0.0031999997 -0.0
  outer loop
    vertex 9.543061e-08 -0.008000013 0.16176996
    vertex -0.015999904 -0.008000008 0.36176994
    vertex 9.543061e-08 -0.008000013 0.36176994
  endloop
endfacet
facet normal 0.060799994 -1.9086121e-08 0.0
  outer loop
    vertex 0.0 -0.312 0.16176996
    vertex 9.543061e-08 -0.008000013 0.16176996
    vertex 9.543061e-08 -0.008000013 0.36176994
  endloop
endfacet
facet normal 0.060799994 -1.9086121e-08 0.0
  outer loop
    vertex 0.0 -0.312 0.16176996
    vertex 9.543061e-08 -0.008000013 0.36176994
    vertex 0.0 -0.312 0.36176994
  endloop
endfacet
facet normal 0.0 0.0 -0.004864
  outer loop
    vertex -0.016 -0.312 0.16176996
    vertex -0.015999904 -0.008000008 0.16176996
    vertex 9.543061e-08 -0.008000013 0.16176996
  endloop
endfacet
facet normal 0.0 0.0 -0.0048640002
  outer loop
    vertex -0.016 -0.312 0.16176996
    vertex 9.543061e-08 -0.008000013 0.16176996
    vertex 0.0 -0.312 0.16176996
  endloop
endfacet
facet normal 0.0 0.0 0.0048639993
  outer loop
    vertex 9.543061e-08 -0.008000013 0.36176994
    vertex -0.015999904 -0.008000008 0.36176994
    vertex -0.016 -0.312 0.36176994
  endloop
endfacet
facet normal 0.0 -0.0 0.0048640002
  outer loop
    vertex 0.0 -0.312 0.36176994
    vertex 9.543061e-08 -0.008000013 0.36176994
    vertex -0.016 -0.312 0.36176994
  endloop
endfacet
facet normal -0.0032033606 0.0 0.0
  outer loop
    vertex 0.072 -0.120000005 0.0
    vertex 0.072 -0.136 0.0
    vertex 0.072 -0.136 0.20021
  endloop
endfacet
facet normal -0.0032033606 0.0 0.0
  outer loop
    vertex 0.072 -0.120000005 0.0
    vertex 0.072 -0.136 0.20021
    vertex 0.072 -0.120000005 0.20021
  endloop
endfacet
facet normal 0.0 0.07527896 0.0
  outer loop
    vertex 0.44799998 -0.120000005 0.0
    vertex 0.072 -0.120000005 0.0
    vertex 0.072 -0.120000005 0.20021
  endloop
endfacet
facet normal 0.0 0.07527896 -0.0
  outer loop
    vertex 0.44799998 -0.120000005 0.0
    vertex 0.072 -0.120000005 0.20021
    vertex 0.44799998 -0.120000005 0.20021
  endloop
endfacet
facet normal 0.0032033606 0.0 0.0
  outer loop
    vertex 0.44799998 -0.136 0.0
    vertex 0.44799998 -0.120000005 0.0
    vertex 0.44799998 -0.120000005 0.20021
  endloop
endfacet
facet normal 0.0032033606 0.0 0.0
  outer loop
    vertex 0.44799998 -0.136 0.0
    vertex 0.44799998 -0.120000005 0.20021
    vertex 0.44799998 -0.136 0.20021
  endloop
endfacet
facet normal 0.0 -0.07527896 0.0
  outer loop
    vertex 0.072 -0.136 0.0
    vertex 0.44799998 -0.136 0.0
    vertex 0.44799998 -0.136 0.20021
  endloop
endfacet
facet normal 0.0 -0.07527896 0.0
  outer loop
    vertex 0.072 -0.136 0.0
    vertex 0.44799998 -0.136 0.20021
    vertex 0.072 -0.136 0.20021
  endloop
endfacet
facet normal 0.0 0.0 -0.0060160006
  outer loop
    vertex 0.072 -0.120000005 0.0
    vertex 0.44799998 -0.120000005 0.0
    vertex 0.44799998 -0.136 0.0
  endloop
endfacet
facet normal 0.0 0.0 -0.0060160006
  outer loop
    vertex 0.072 -0.120000005 0.0
    vertex 0.44799998 -0.136 0.0
    vertex 0.072 -0.136 0.0
  endloop
endfacet
facet normal 0.0 -0.0 0.0060160006
  outer loop
    vertex 0.44799998 -0.136 0.20021
    vertex 0.44799998 -0.120000005 0.20021
    vertex 0.072 -0.120000005 0.20021
  endloop
endfacet
facet normal 0.0 0.0 0.0060160006
  outer loop
    vertex 0.072 -0.136 0.20021
    vertex 0.44799998 -0.136 0.20021
    vertex 0.072 -0.120000005 0.20021
  endloop
endfacet
endsolid cube.stl
