solid cube.stl
facet normal -8.251937e-10 -0.0012288002 0.0
  outer loop
    vertex 7.599628e-10 1.0744709e-08 0.0
    vertex 0.016 0.0 0.0
    vertex 0.016 0.0 0.0768
  endloop
endfacet
facet normal -8.251937e-10 -0.0012288002 0.0
  outer loop
    vertex 7.599628e-10 1.0744709e-08 0.0
    vertex 0.016 0.0 0.0768
    vertex 7.599628e-10 1.0744709e-08 0.0768
  endloop
endfacet
facet normal 0.00061440043 -3.9339104e-10 -4.470313e-11
  outer loop
    vertex 0.016000055 0.080000006 0.057599984
    vertex 0.016000075 0.111999996 0.057599984
    vertex 0.016000092 0.136 0.0768
  endloop
endfacet
facet normal 0.001843201 -1.2874604e-09 0.0
  outer loop
    vertex 0.016000092 0.136 0.0
    vertex 0.016000092 0.136 0.0768
    vertex 0.016000075 0.111999996 0.057599984
  endloop
endfacet
facet normal 0.0013824003 -9.655949e-10 0.0
  outer loop
    vertex 0.016000075 0.111999996 0.0
    vertex 0.016000092 0.136 0.0
    vertex 0.016000075 0.111999996 0.057599984
  endloop
endfacet
facet normal 0.002611203 -1.7523784e-09 4.4703352e-11
  outer loop
    vertex 0.016 0.0 0.0768
    vertex 0.016000055 0.080000006 0.057599984
    vertex 0.016000092 0.136 0.0768
  endloop
endfacet
facet normal 0.004607999 -3.1113616e-09 0.0
  outer loop
    vertex 0.016 0.0 0.0
    vertex 0.016000055 0.080000006 0.0
    vertex 0.016000055 0.080000006 0.057599984
  endloop
endfacet
facet normal 0.0061440007 -4.1484833e-09 0.0
  outer loop
    vertex 0.016 0.0 0.0
    vertex 0.016000055 0.080000006 0.057599984
    vertex 0.016 0.0 0.0768
  endloop
endfacet
facet normal -0.006144001 4.1259685e-09 0.0
  outer loop
    vertex 5.448351e-08 0.08000001 0.057599984
    vertex 7.599628e-10 1.0744709e-08 0.0
    vertex 7.599628e-10 1.0744709e-08 0.0768
  endloop
endfacet
facet normal -0.0006144005 4.1259718e-10 -3.330669e-16
  outer loop
    vertex 9.209e-08 0.13600002 0.0768
    vertex 7.597293e-08 0.112 0.057599984
    vertex 5.448351e-08 0.08000001 0.057599984
  endloop
endfacet
facet normal -0.002611203 1.7535385e-09 -4.440892e-16
  outer loop
    vertex 9.209e-08 0.13600002 0.0768
    vertex 5.448351e-08 0.08000001 0.057599984
    vertex 7.599628e-10 1.0744709e-08 0.0768
  endloop
endfacet
facet normal -0.004607999 3.0944753e-09 0.0
  outer loop
    vertex 5.448351e-08 0.08000001 0.0
    vertex 7.599628e-10 1.0744709e-08 0.0
    vertex 5.448351e-08 0.08000001 0.057599984
  endloop
endfacet
facet normal -0.0013824007 9.28343e-10 0.0
  outer loop
    vertex 9.209e-08 0.13600002 0.0
    vertex 7.597293e-08 0.112 0.0
    vertex 7.597293e-08 0.112 0.057599984
  endloop
endfacet
facet normal -0.0018432016 1.2377911e-09 0.0
  outer loop
    vertex 9.209e-08 0.13600002 0.0
    vertex 7.597293e-08 0.112 0.057599984
    vertex 9.209e-08 0.13600002 0.0768
  endloop
endfacet
facet normal 0.0 0.0 -0.0012800001
  outer loop
    vertex 0.016 0.0 0.0
    vertex 5.448351e-08 0.08000001 0.0
    vertex 0.016000055 0.080000006 0.0
  endloop
endfacet
facet normal 0.0 0.0 -0.0012800002
  outer loop
    vertex 7.599628e-10 1.0744709e-08 0.0
    vertex 5.448351e-08 0.08000001 0.0
    vertex 0.016 0.0 0.0
  endloop
endfacet
facet normal 0.0 0.0 0.0021760003
  outer loop
    vertex 0.016000092 0.136 0.0768
    vertex 9.209e-08 0.13600002 0.0768
    vertex 7.599628e-10 1.0744709e-08 0.0768
  endloop
endfacet
facet normal 0.0 -0.0 0.0021760003
  outer loop
    vertex 0.016 0.0 0.0768
    vertex 0.016000092 0.136 0.0768
    vertex 7.599628e-10 1.0744709e-08 0.0768
  endloop
endfacet
facet normal 0.0 0.0 -0.00038400022
  outer loop
    vertex 0.016000075 0.111999996 0.0
    vertex 9.209e-08 0.13600002 0.0
    vertex 0.016000092 0.136 0.0
  endloop
endfacet
facet normal 0.0 0.0 -0.00038400028
  outer loop
    vertex 7.597293e-08 0.112 0.0
    vertex 9.209e-08 0.13600002 0.0
    vertex 0.016000075 0.111999996 0.0
  endloop
endfacet
facet normal -4.2915332e-10 -0.0009215997 0.0
  outer loop
    vertex 7.597293e-08 0.112 0.0
    vertex 0.016000075 0.111999996 0.0
    vertex 0.016000075 0.111999996 0.057599984
  endloop
endfacet
facet normal -4.2915332e-10 -0.0009215997 -0.0
  outer loop
    vertex 7.597293e-08 0.112 0.057599984
    vertex 7.597293e-08 0.112 0.0
    vertex 0.016000075 0.111999996 0.057599984
  endloop
endfacet
facet normal -0.0 0.0 -0.0005119998
  outer loop
    vertex 0.016000075 0.111999996 0.057599984
    vertex 0.016000055 0.080000006 0.057599984
    vertex 7.597293e-08 0.112 0.057599984
  endloop
endfacet
facet normal 0.0 0.0 -0.0005119999
  outer loop
    vertex 0.016000055 0.080000006 0.057599984
    vertex 5.448351e-08 0.08000001 0.057599984
    vertex 7.597293e-08 0.112 0.057599984
  endloop
endfacet
facet normal 4.2915332e-10 0.0009215998 0.0
  outer loop
    vertex 5.448351e-08 0.08000001 0.057599984
    vertex 0.016000055 0.080000006 0.057599984
    vertex 0.016000055 0.080000006 0.0
  endloop
endfacet
facet normal 4.2915332e-10 0.0009215998 -0.0
  outer loop
    vertex 5.448351e-08 0.08000001 0.0
    vertex 5.448351e-08 0.08000001 0.057599984
    vertex 0.016000055 0.080000006 0.0
  endloop
endfacet
facet normal 1.1444092e-09 0.0012288002 0.0
  outer loop
    vertex 0.016000092 0.136 0.0
    vertex 9.209e-08 0.13600002 0.0
    vertex 9.209e-08 0.13600002 0.0768
  endloop
endfacet
facet normal 1.1444092e-09 0.0012288002 -0.0
  outer loop
    vertex 0.016000092 0.136 0.0
    vertex 9.209e-08 0.13600002 0.0768
    vertex 0.016000092 0.136 0.0768
  endloop
endfacet
facet normal 0.0 0.0 -0.00038400025
  outer loop
    vertex 0.17600012 0.13600002 0.0
    vertex 0.19200012 0.136 0.0
    vertex 0.1920001 0.111999996 0.0
  endloop
endfacet
facet normal 0.0 0.0 -0.00038400025
  outer loop
    vertex 0.1760001 0.11200001 0.0
    vertex 0.17600012 0.13600002 0.0
    vertex 0.1920001 0.111999996 0.0
  endloop
endfacet
facet normal -8.5830665e-10 -0.0009215999 0.0
  outer loop
    vertex 0.1760001 0.11200001 0.0
    vertex 0.1920001 0.111999996 0.0
    vertex 0.1920001 0.111999996 0.057599984
  endloop
endfacet
facet normal -8.5830665e-10 -0.0009215999 -0.0
  outer loop
    vertex 0.1760001 0.11200001 0.057599984
    vertex 0.1760001 0.11200001 0.0
    vertex 0.1920001 0.111999996 0.057599984
  endloop
endfacet
facet normal 0.0 0.0 -0.00051199994
  outer loop
    vertex 0.1920001 0.111999996 0.057599984
    vertex 0.19200008 0.080000006 0.057599984
    vertex 0.17600007 0.08000002 0.057599984
  endloop
endfacet
facet normal -0.0 0.0 -0.00051199994
  outer loop
    vertex 0.1920001 0.111999996 0.057599984
    vertex 0.17600007 0.08000002 0.057599984
    vertex 0.1760001 0.11200001 0.057599984
  endloop
endfacet
facet normal 8.5830665e-10 0.0009215999 0.0
  outer loop
    vertex 0.19200008 0.080000006 0.057599984
    vertex 0.19200008 0.080000006 0.0
    vertex 0.17600007 0.08000002 0.0
  endloop
endfacet
facet normal 8.5830665e-10 0.0009215999 0.0
  outer loop
    vertex 0.19200008 0.080000006 0.057599984
    vertex 0.17600007 0.08000002 0.0
    vertex 0.17600007 0.08000002 0.057599984
  endloop
endfacet
facet normal 0.0 0.0 -0.0012800003
  outer loop
    vertex 0.17600007 0.08000002 0.0
    vertex 0.19200008 0.080000006 0.0
    vertex 0.192 0.0 0.0
  endloop
endfacet
facet normal 0.0 0.0 -0.0012800003
  outer loop
    vertex 0.176 1.4559407e-08 0.0
    vertex 0.17600007 0.08000002 0.0
    vertex 0.192 0.0 0.0
  endloop
endfacet
facet normal -1.1181626e-09 -0.0012288003 0.0
  outer loop
    vertex 0.176 1.4559407e-08 0.0
    vertex 0.192 0.0 0.0
    vertex 0.192 0.0 0.0768
  endloop
endfacet
facet normal -1.1181626e-09 -0.0012288003 -0.0
  outer loop
    vertex 0.176 1.4559407e-08 0.0768
    vertex 0.176 1.4559407e-08 0.0
    vertex 0.192 0.0 0.0768
  endloop
endfacet
facet normal 0.0 -0.0 0.0021760005
  outer loop
    vertex 0.192 0.0 0.0768
    vertex 0.19200012 0.136 0.0768
    vertex 0.17600012 0.13600002 0.0768
  endloop
endfacet
facet normal 0.0 0.0 0.0021760005
  outer loop
    vertex 0.192 0.0 0.0768
    vertex 0.17600012 0.13600002 0.0768
    vertex 0.176 1.4559407e-08 0.0768
  endloop
endfacet
facet normal 1.1444092e-09 0.0012288003 0.0
  outer loop
    vertex 0.19200012 0.136 0.0768
    vertex 0.19200012 0.136 0.0
    vertex 0.17600012 0.13600002 0.0
  endloop
endfacet
facet normal 1.1444092e-09 0.0012288003 0.0
  outer loop
    vertex 0.19200012 0.136 0.0768
    vertex 0.17600012 0.13600002 0.0
    vertex 0.17600012 0.13600002 0.0768
  endloop
endfacet
facet normal -0.0 0.0 0.00051199965
  outer loop
    vertex 0.17600003 0.024000015 0.0192
    vertex 0.19200002 0.024 0.0192
    vertex 0.19200005 0.056 0.0192
  endloop
endfacet
facet normal 0.0 0.0 0.00051199965
  outer loop
    vertex 0.17600006 0.056000017 0.0192
    vertex 0.17600003 0.024000015 0.0192
    vertex 0.19200005 0.056 0.0192
  endloop
endfacet
facet normal -4.2915338e-10 -0.00046079958 0.0
  outer loop
    vertex 0.17600006 0.056000017 0.0192
    vertex 0.19200005 0.056 0.0192
    vertex 0.19200005 0.056 0.047999997
  endloop
endfacet
facet normal -4.2915338e-10 -0.00046079958 -0.0
  outer loop
    vertex 0.17600006 0.056000017 0.047999997
    vertex 0.17600006 0.056000017 0.0192
    vertex 0.19200005 0.056 0.047999997
  endloop
endfacet
facet normal 0.0 0.0 -0.00051199965
  outer loop
    vertex 0.19200005 0.056 0.047999997
    vertex 0.19200002 0.024 0.047999997
    vertex 0.17600003 0.024000015 0.047999997
  endloop
endfacet
facet normal -0.0 0.0 -0.00051199965
  outer loop
    vertex 0.19200005 0.056 0.047999997
    vertex 0.17600003 0.024000015 0.047999997
    vertex 0.17600006 0.056000017 0.047999997
  endloop
endfacet
facet normal 4.2915338e-10 0.00046079958 0.0
  outer loop
    vertex 0.19200002 0.024 0.047999997
    vertex 0.19200002 0.024 0.0192
    vertex 0.17600003 0.024000015 0.0192
  endloop
endfacet
facet normal 4.2915338e-10 0.00046079958 0.0
  outer loop
    vertex 0.19200002 0.024 0.047999997
    vertex 0.17600003 0.024000015 0.0192
    vertex 0.17600003 0.024000015 0.047999997
  endloop
endfacet
facet normal 0.00061440043 -5.7220517e-10 2.3841906e-10
  outer loop
    vertex 0.19200008 0.080000006 0.057599984
    vertex 0.1920001 0.111999996 0.057599984
    vertex 0.19200012 0.136 0.0768
  endloop
endfacet
facet normal 0.001843201 -1.1444092e-09 0.0
  outer loop
    vertex 0.19200012 0.136 0.0
    vertex 0.19200012 0.136 0.0768
    vertex 0.1920001 0.111999996 0.057599984
  endloop
endfacet
facet normal 0.0013824003 -8.5830665e-10 0.0
  outer loop
    vertex 0.1920001 0.111999996 0.0
    vertex 0.19200012 0.136 0.0
    vertex 0.1920001 0.111999996 0.057599984
  endloop
endfacet
facet normal 0.002611203 -2.2888207e-09 5.9604677e-10
  outer loop
    vertex 0.192 0.0 0.0768
    vertex 0.19200008 0.080000006 0.057599984
    vertex 0.19200012 0.136 0.0768
  endloop
endfacet
facet normal 0.0012287997 -1.28746e-09 -5.960463e-10
  outer loop
    vertex 0.192 0.0 0.0768
    vertex 0.19200005 0.056 0.047999997
    vertex 0.19200008 0.080000006 0.057599984
  endloop
endfacet
facet normal 0.0013823998 -1.7166133e-09 0.0
  outer loop
    vertex 0.19200005 0.056 0.0192
    vertex 0.19200008 0.080000006 0.0
    vertex 0.19200008 0.080000006 0.057599984
  endloop
endfacet
facet normal 0.0006912 -8.5830676e-10 0.0
  outer loop
    vertex 0.19200005 0.056 0.0192
    vertex 0.19200008 0.080000006 0.057599984
    vertex 0.19200005 0.056 0.047999997
  endloop
endfacet
facet normal 0.00092160027 -8.583071e-10 -2.3841856e-10
  outer loop
    vertex 0.19200002 0.024 0.047999997
    vertex 0.19200005 0.056 0.047999997
    vertex 0.192 0.0 0.0768
  endloop
endfacet
facet normal 0.0006144 -5.722046e-10 2.384185e-10
  outer loop
    vertex 0.192 0.0 0.0
    vertex 0.19200005 0.056 0.0192
    vertex 0.19200002 0.024 0.0192
  endloop
endfacet
facet normal 0.0006911999 -4.2915338e-10 0.0
  outer loop
    vertex 0.192 0.0 0.0
    vertex 0.19200002 0.024 0.0192
    vertex 0.19200002 0.024 0.047999997
  endloop
endfacet
facet normal 0.0015360002 -1.4305115e-09 5.960463e-10
  outer loop
    vertex 0.192 0.0 0.0
    vertex 0.19200008 0.080000006 0.0
    vertex 0.19200005 0.056 0.0192
  endloop
endfacet
facet normal 0.0018432001 -1.1444092e-09 0.0
  outer loop
    vertex 0.192 0.0 0.0
    vertex 0.19200002 0.024 0.047999997
    vertex 0.192 0.0 0.0768
  endloop
endfacet
facet normal -0.0006144004 5.7220517e-10 -2.3841906e-10
  outer loop
    vertex 0.17600012 0.13600002 0.0768
    vertex 0.1760001 0.11200001 0.057599984
    vertex 0.17600007 0.08000002 0.057599984
  endloop
endfacet
facet normal -0.001843201 1.1444092e-09 0.0
  outer loop
    vertex 0.1760001 0.11200001 0.057599984
    vertex 0.17600012 0.13600002 0.0768
    vertex 0.17600012 0.13600002 0.0
  endloop
endfacet
facet normal -0.0013824003 8.5830665e-10 0.0
  outer loop
    vertex 0.1760001 0.11200001 0.057599984
    vertex 0.17600012 0.13600002 0.0
    vertex 0.1760001 0.11200001 0.0
  endloop
endfacet
facet normal -0.002611203 2.2888207e-09 -5.960463e-10
  outer loop
    vertex 0.17600012 0.13600002 0.0768
    vertex 0.17600007 0.08000002 0.057599984
    vertex 0.176 1.4559407e-08 0.0768
  endloop
endfacet
facet normal -0.0012287996 1.0013574e-09 -5.9604666e-10
  outer loop
    vertex 0.17600007 0.08000002 0.057599984
    vertex 0.17600006 0.056000017 0.047999997
    vertex 0.176 1.4559407e-08 0.0768
  endloop
endfacet
facet normal -0.0013823998 8.5830665e-10 0.0
  outer loop
    vertex 0.17600007 0.08000002 0.057599984
    vertex 0.17600007 0.08000002 0.0
    vertex 0.17600006 0.056000017 0.0192
  endloop
endfacet
facet normal -0.0006912 4.2915338e-10 0.0
  outer loop
    vertex 0.17600006 0.056000017 0.047999997
    vertex 0.17600007 0.08000002 0.057599984
    vertex 0.17600006 0.056000017 0.0192
  endloop
endfacet
facet normal -0.0009216002 8.583071e-10 -2.3841862e-10
  outer loop
    vertex 0.176 1.4559407e-08 0.0768
    vertex 0.17600006 0.056000017 0.047999997
    vertex 0.17600003 0.024000015 0.047999997
  endloop
endfacet
facet normal -0.0006144001 5.722046e-10 2.3841862e-10
  outer loop
    vertex 0.17600003 0.024000015 0.0192
    vertex 0.17600006 0.056000017 0.0192
    vertex 0.176 1.4559407e-08 0.0
  endloop
endfacet
facet normal -0.0006911999 8.5830676e-10 0.0
  outer loop
    vertex 0.17600003 0.024000015 0.047999997
    vertex 0.17600003 0.024000015 0.0192
    vertex 0.176 1.4559407e-08 0.0
  endloop
endfacet
facet normal -0.0015360002 1.4305115e-09 5.9604666e-10
  outer loop
    vertex 0.17600006 0.056000017 0.0192
    vertex 0.17600007 0.08000002 0.0
    vertex 0.176 1.4559407e-08 0.0
  endloop
endfacet
facet normal -0.0018432001 2.2888185e-09 0.0
  outer loop
    vertex 0.176 1.4559407e-08 0.0768
    vertex 0.17600003 0.024000015 0.047999997
    vertex 0.176 1.4559407e-08 0.0
  endloop
endfacet
facet normal -0.0012288002 0.0 0.0
  outer loop
    vertex 0.016 0.016 0.0
    vertex 0.016 0.0 0.0
    vertex 0.016 0.0 0.0768
  endloop
endfacet
facet normal -0.0012288002 0.0 0.0
  outer loop
    vertex 0.016 0.016 0.0
    vertex 0.016 0.0 0.0768
    vertex 0.016 0.016 0.0768
  endloop
endfacet
facet normal 0.0 0.012288 0.0
  outer loop
    vertex 0.176 0.016 0.0
    vertex 0.016 0.016 0.0
    vertex 0.016 0.016 0.0768
  endloop
endfacet
facet normal 0.0 0.012288 -0.0
  outer loop
    vertex 0.176 0.016 0.0
    vertex 0.016 0.016 0.0768
    vertex 0.176 0.016 0.0768
  endloop
endfacet
facet normal 0.0012288002 0.0 0.0
  outer loop
    vertex 0.176 0.0 0.0
    vertex 0.176 0.016 0.0
    vertex 0.176 0.016 0.0768
  endloop
endfacet
facet normal 0.0012288002 0.0 0.0
  outer loop
    vertex 0.176 0.0 0.0
    vertex 0.176 0.016 0.0768
    vertex 0.176 0.0 0.0768
  endloop
endfacet
facet normal 0.0 -0.012288 0.0
  outer loop
    vertex 0.016 0.0 0.0
    vertex 0.176 0.0 0.0
    vertex 0.176 0.0 0.0768
  endloop
endfacet
facet normal 0.0 -0.012288 0.0
  outer loop
    vertex 0.016 0.0 0.0
    vertex 0.176 0.0 0.0768
    vertex 0.016 0.0 0.0768
  endloop
endfacet
facet normal 0.0 0.0 -0.0025600002
  outer loop
    vertex 0.016 0.016 0.0
    vertex 0.176 0.016 0.0
    vertex 0.176 0.0 0.0
  endloop
endfacet
facet normal 0.0 0.0 -0.0025600002
  outer loop
    vertex 0.016 0.016 0.0
    vertex 0.176 0.0 0.0
    vertex 0.016 0.0 0.0
  endloop
endfacet
facet normal 0.0 -0.0 0.0025600002
  outer loop
    vertex 0.176 0.0 0.0768
    vertex 0.176 0.016 0.0768
    vertex 0.016 0.016 0.0768
  endloop
endfacet
facet normal 0.0 0.0 0.0025600002
  outer loop
    vertex 0.016 0.0 0.0768
    vertex 0.176 0.0 0.0768
    vertex 0.016 0.016 0.0768
  endloop
endfacet
facet normal -0.0012288003 8.583069e-10 0.0
  outer loop
    vertex 0.016000012 0.136 0.0
    vertex 0.016 0.120000005 0.0
    vertex 0.016 0.120000005 0.0768
  endloop
endfacet
facet normal -0.0012288003 8.583069e-10 0.0
  outer loop
    vertex 0.016000012 0.136 0.0
    vertex 0.016 0.120000005 0.0768
    vertex 0.016000012 0.136 0.0768
  endloop
endfacet
facet normal 9.155274e-09 0.012288 0.0
  outer loop
    vertex 0.17600001 0.13599989 0.0
    vertex 0.016000012 0.136 0.0
    vertex 0.016000012 0.136 0.0768
  endloop
endfacet
facet normal 9.155274e-09 0.012288 -0.0
  outer loop
    vertex 0.17600001 0.13599989 0.0
    vertex 0.016000012 0.136 0.0768
    vertex 0.17600001 0.13599989 0.0768
  endloop
endfacet
facet normal 0.0012287997 -1.1444092e-09 0.0
  outer loop
    vertex 0.176 0.11999989 0.0
    vertex 0.17600001 0.13599989 0.0
    vertex 0.17600001 0.13599989 0.0768
  endloop
endfacet
facet normal 0.0012287997 -1.1444092e-09 0.0
  outer loop
    vertex 0.176 0.11999989 0.0
    vertex 0.17600001 0.13599989 0.0768
    vertex 0.176 0.11999989 0.0768
  endloop
endfacet
facet normal -8.583069e-09 -0.012288 0.0
  outer loop
    vertex 0.016 0.120000005 0.0
    vertex 0.176 0.11999989 0.0
    vertex 0.176 0.11999989 0.0768
  endloop
endfacet
facet normal -8.583069e-09 -0.012288 0.0
  outer loop
    vertex 0.016 0.120000005 0.0
    vertex 0.176 0.11999989 0.0768
    vertex 0.016 0.120000005 0.0768
  endloop
endfacet
facet normal 0.0 0.0 -0.0025599992
  outer loop
    vertex 0.016000012 0.136 0.0
    vertex 0.17600001 0.13599989 0.0
    vertex 0.176 0.11999989 0.0
  endloop
endfacet
facet normal 0.0 -0.0 -0.0025600004
  outer loop
    vertex 0.016000012 0.136 0.0
    vertex 0.176 0.11999989 0.0
    vertex 0.016 0.120000005 0.0
  endloop
endfacet
facet normal 0.0 -0.0 0.0025599992
  outer loop
    vertex 0.176 0.11999989 0.0768
    vertex 0.17600001 0.13599989 0.0768
    vertex 0.016000012 0.136 0.0768
  endloop
endfacet
facet normal -0.0 0.0 0.0025600004
  outer loop
    vertex 0.016 0.120000005 0.0768
    vertex 0.176 0.11999989 0.0768
    vertex 0.016000012 0.136 0.0768
  endloop
endfacet
facet normal 0.0 0.0 -6.400041e-05
  outer loop
    vertex 0.06400005 0.06400014 0.0
    vertex 0.06400004 0.056000136 0.0
    vertex 0.05599999 0.05600014 0.0
  endloop
endfacet
facet normal 0.0 -0.0 -6.400041e-05
  outer loop
    vertex 0.055999994 0.06400014 0.0
    vertex 0.06400005 0.06400014 0.0
    vertex 0.05599999 0.05600014 0.0
  endloop
endfacet
facet normal -0.00046079973 2.1457666e-10 0.0
  outer loop
    vertex 0.055999994 0.06400014 0.0
    vertex 0.05599999 0.05600014 0.0
    vertex 0.05599999 0.05600014 0.057599984
  endloop
endfacet
facet normal -0.00046079973 2.1457666e-10 0.0
  outer loop
    vertex 0.055999994 0.06400014 0.057599984
    vertex 0.055999994 0.06400014 0.0
    vertex 0.05599999 0.05600014 0.057599984
  endloop
endfacet
facet normal 0.0 0.0 -0.00025599988
  outer loop
    vertex 0.05599999 0.05600014 0.057599984
    vertex 0.023999996 0.056000154 0.057599984
    vertex 0.024 0.06400015 0.057599984
  endloop
endfacet
facet normal 0.0 0.0 -0.00025599988
  outer loop
    vertex 0.05599999 0.05600014 0.057599984
    vertex 0.024 0.06400015 0.057599984
    vertex 0.055999994 0.06400014 0.057599984
  endloop
endfacet
facet normal 0.00046079973 -2.1457666e-10 0.0
  outer loop
    vertex 0.023999996 0.056000154 0.057599984
    vertex 0.023999996 0.056000154 0.0
    vertex 0.024 0.06400015 0.0
  endloop
endfacet
facet normal 0.00046079973 -2.1457666e-10 0.0
  outer loop
    vertex 0.023999996 0.056000154 0.057599984
    vertex 0.024 0.06400015 0.0
    vertex 0.024 0.06400015 0.057599984
  endloop
endfacet
facet normal 0.0 0.0 -6.3999636e-05
  outer loop
    vertex 0.024 0.06400015 0.0
    vertex 0.023999996 0.056000154 0.0
    vertex 0.01600004 0.05600016 0.0
  endloop
endfacet
facet normal 0.0 -0.0 -6.3999665e-05
  outer loop
    vertex 0.016000044 0.06400016 0.0
    vertex 0.024 0.06400015 0.0
    vertex 0.01600004 0.05600016 0.0
  endloop
endfacet
facet normal -0.00061440014 2.861023e-10 0.0
  outer loop
    vertex 0.016000044 0.06400016 0.0
    vertex 0.01600004 0.05600016 0.0
    vertex 0.01600004 0.05600016 0.0768
  endloop
endfacet
facet normal -0.00061440014 2.861023e-10 0.0
  outer loop
    vertex 0.016000044 0.06400016 0.0768
    vertex 0.016000044 0.06400016 0.0
    vertex 0.01600004 0.05600016 0.0768
  endloop
endfacet
facet normal -0.0 0.0 0.00038400007
  outer loop
    vertex 0.01600004 0.05600016 0.0768
    vertex 0.06400004 0.056000136 0.0768
    vertex 0.06400005 0.06400014 0.0768
  endloop
endfacet
facet normal 0.0 0.0 0.0003840001
  outer loop
    vertex 0.01600004 0.05600016 0.0768
    vertex 0.06400005 0.06400014 0.0768
    vertex 0.016000044 0.06400016 0.0768
  endloop
endfacet
facet normal 0.00061440014 -5.722046e-10 0.0
  outer loop
    vertex 0.06400004 0.056000136 0.0768
    vertex 0.06400004 0.056000136 0.0
    vertex 0.06400005 0.06400014 0.0
  endloop
endfacet
facet normal 0.00061440014 -5.722046e-10 0.0
  outer loop
    vertex 0.06400004 0.056000136 0.0768
    vertex 0.06400005 0.06400014 0.0
    vertex 0.06400005 0.06400014 0.0768
  endloop
endfacet
facet normal -4.2915388e-10 -0.00092160096 1.110223e-15
  outer loop
    vertex 0.01600004 0.05600016 0.0768
    vertex 0.05599999 0.05600014 0.057599984
    vertex 0.06400004 0.056000136 0.0768
  endloop
endfacet
facet normal -2.8610259e-10 -0.0006144005 6.2450045e-16
  outer loop
    vertex 0.023999996 0.056000154 0.057599984
    vertex 0.05599999 0.05600014 0.057599984
    vertex 0.01600004 0.05600016 0.0768
  endloop
endfacet
facet normal -2.861023e-10 -0.00061440386 0.0
  outer loop
    vertex 0.06400004 0.056000136 0.0
    vertex 0.06400004 0.056000136 0.0768
    vertex 0.05599999 0.05600014 0.057599984
  endloop
endfacet
facet normal -2.1457666e-10 -0.00046080275 0.0
  outer loop
    vertex 0.05599999 0.05600014 0.0
    vertex 0.06400004 0.056000136 0.0
    vertex 0.05599999 0.05600014 0.057599984
  endloop
endfacet
facet normal -2.1457666e-10 -0.00046079737 0.0
  outer loop
    vertex 0.01600004 0.05600016 0.0
    vertex 0.023999996 0.056000154 0.0
    vertex 0.023999996 0.056000154 0.057599984
  endloop
endfacet
facet normal -2.861023e-10 -0.0006143967 0.0
  outer loop
    vertex 0.01600004 0.05600016 0.0
    vertex 0.023999996 0.056000154 0.057599984
    vertex 0.01600004 0.05600016 0.0768
  endloop
endfacet
facet normal 4.2915388e-10 0.000921601 -1.7881513e-10
  outer loop
    vertex 0.06400005 0.06400014 0.0768
    vertex 0.055999994 0.06400014 0.057599984
    vertex 0.016000044 0.06400016 0.0768
  endloop
endfacet
facet normal 2.8610259e-10 0.00061440055 -1.1920989e-10
  outer loop
    vertex 0.016000044 0.06400016 0.0768
    vertex 0.055999994 0.06400014 0.057599984
    vertex 0.024 0.06400015 0.057599984
  endloop
endfacet
facet normal -0.0 0.00061440415 0.0
  outer loop
    vertex 0.055999994 0.06400014 0.057599984
    vertex 0.06400005 0.06400014 0.0768
    vertex 0.06400005 0.06400014 0.0
  endloop
endfacet
facet normal 0.0 0.00046080296 0.0
  outer loop
    vertex 0.055999994 0.06400014 0.057599984
    vertex 0.06400005 0.06400014 0.0
    vertex 0.055999994 0.06400014 0.0
  endloop
endfacet
facet normal 4.2915332e-10 0.00046079737 0.0
  outer loop
    vertex 0.024 0.06400015 0.057599984
    vertex 0.024 0.06400015 0.0
    vertex 0.016000044 0.06400016 0.0
  endloop
endfacet
facet normal 5.722046e-10 0.0006143967 0.0
  outer loop
    vertex 0.016000044 0.06400016 0.0768
    vertex 0.024 0.06400015 0.057599984
    vertex 0.016000044 0.06400016 0.0
  endloop
endfacet
facet normal -0.00061440014 0.0 0.0
  outer loop
    vertex 0.072000004 0.048000038 0.0
    vertex 0.072000004 0.040000036 0.0
    vertex 0.072000004 0.040000036 0.0768
  endloop
endfacet
facet normal -0.00061440014 0.0 0.0
  outer loop
    vertex 0.072000004 0.048000038 0.0
    vertex 0.072000004 0.040000036 0.0768
    vertex 0.072000004 0.048000038 0.0768
  endloop
endfacet
facet normal 0.0 0.0018431998 0.0
  outer loop
    vertex 0.096 0.048000038 0.0
    vertex 0.072000004 0.048000038 0.0
    vertex 0.072000004 0.048000038 0.0768
  endloop
endfacet
facet normal 0.0 0.0018431998 -0.0
  outer loop
    vertex 0.096 0.048000038 0.0
    vertex 0.072000004 0.048000038 0.0768
    vertex 0.096 0.048000038 0.0768
  endloop
endfacet
facet normal 0.00061440014 0.0 0.0
  outer loop
    vertex 0.096 0.040000036 0.0
    vertex 0.096 0.048000038 0.0
    vertex 0.096 0.048000038 0.0768
  endloop
endfacet
facet normal 0.00061440014 0.0 0.0
  outer loop
    vertex 0.096 0.040000036 0.0
    vertex 0.096 0.048000038 0.0768
    vertex 0.096 0.040000036 0.0768
  endloop
endfacet
facet normal 0.0 -0.0018431998 0.0
  outer loop
    vertex 0.072000004 0.040000036 0.0
    vertex 0.096 0.040000036 0.0
    vertex 0.096 0.040000036 0.0768
  endloop
endfacet
facet normal 0.0 -0.0018431998 0.0
  outer loop
    vertex 0.072000004 0.040000036 0.0
    vertex 0.096 0.040000036 0.0768
    vertex 0.072000004 0.040000036 0.0768
  endloop
endfacet
facet normal 0.0 0.0 -0.000192
  outer loop
    vertex 0.072000004 0.048000038 0.0
    vertex 0.096 0.048000038 0.0
    vertex 0.096 0.040000036 0.0
  endloop
endfacet
facet normal 0.0 0.0 -0.000192
  outer loop
    vertex 0.072000004 0.048000038 0.0
    vertex 0.096 0.040000036 0.0
    vertex 0.072000004 0.040000036 0.0
  endloop
endfacet
facet normal 0.0 -0.0 0.000192
  outer loop
    vertex 0.096 0.040000036 0.0768
    vertex 0.096 0.048000038 0.0768
    vertex 0.072000004 0.048000038 0.0768
  endloop
endfacet
facet normal 0.0 0.0 0.000192
  outer loop
    vertex 0.072000004 0.040000036 0.0768
    vertex 0.096 0.040000036 0.0768
    vertex 0.072000004 0.048000038 0.0768
  endloop
endfacet
facet normal -2.861023e-10 -0.00061440014 0.0
  outer loop
    vertex 0.06400001 0.03999999 0.0
    vertex 0.07200001 0.039999988 0.0
    vertex 0.07200001 0.039999988 0.0768
  endloop
endfacet
facet normal -2.861023e-10 -0.00061440014 0.0
  outer loop
    vertex 0.06400001 0.03999999 0.0
    vertex 0.07200001 0.039999988 0.0768
    vertex 0.06400001 0.03999999 0.0768
  endloop
endfacet
facet normal -0.0018431998 1.1444092e-09 0.0
  outer loop
    vertex 0.064000025 0.06399999 0.0
    vertex 0.06400001 0.03999999 0.0
    vertex 0.06400001 0.03999999 0.0768
  endloop
endfacet
facet normal -0.0018431998 1.1444092e-09 0.0
  outer loop
    vertex 0.064000025 0.06399999 0.0
    vertex 0.06400001 0.03999999 0.0768
    vertex 0.064000025 0.06399999 0.0768
  endloop
endfacet
facet normal 0.0 0.00061440014 0.0
  outer loop
    vertex 0.07200003 0.06399999 0.0
    vertex 0.064000025 0.06399999 0.0
    vertex 0.064000025 0.06399999 0.0768
  endloop
endfacet
facet normal 0.0 0.00061440014 -0.0
  outer loop
    vertex 0.07200003 0.06399999 0.0
    vertex 0.064000025 0.06399999 0.0768
    vertex 0.07200003 0.06399999 0.0768
  endloop
endfacet
facet normal 0.0018432001 -1.1444092e-09 0.0
  outer loop
    vertex 0.07200001 0.039999988 0.0
    vertex 0.07200003 0.06399999 0.0
    vertex 0.07200003 0.06399999 0.0768
  endloop
endfacet
facet normal 0.0018432001 -1.1444092e-09 0.0
  outer loop
    vertex 0.07200001 0.039999988 0.0
    vertex 0.07200003 0.06399999 0.0768
    vertex 0.07200001 0.039999988 0.0768
  endloop
endfacet
facet normal 0.0 0.0 -0.00019199999
  outer loop
    vertex 0.06400001 0.03999999 0.0
    vertex 0.064000025 0.06399999 0.0
    vertex 0.07200003 0.06399999 0.0
  endloop
endfacet
facet normal 0.0 0.0 -0.00019200004
  outer loop
    vertex 0.06400001 0.03999999 0.0
    vertex 0.07200003 0.06399999 0.0
    vertex 0.07200001 0.039999988 0.0
  endloop
endfacet
facet normal 0.0 0.0 0.000192
  outer loop
    vertex 0.07200003 0.06399999 0.0768
    vertex 0.064000025 0.06399999 0.0768
    vertex 0.06400001 0.03999999 0.0768
  endloop
endfacet
facet normal 0.0 -0.0 0.00019200004
  outer loop
    vertex 0.07200001 0.039999988 0.0768
    vertex 0.07200003 0.06399999 0.0768
    vertex 0.06400001 0.03999999 0.0768
  endloop
endfacet
facet normal -2.861023e-10 -0.00061440014 0.0
  outer loop
    vertex 0.096000016 0.015999982 0.0
    vertex 0.10400002 0.015999978 0.0
    vertex 0.10400002 0.015999978 0.0768
  endloop
endfacet
facet normal -2.861023e-10 -0.00061440014 0.0
  outer loop
    vertex 0.096000016 0.015999982 0.0
    vertex 0.10400002 0.015999978 0.0768
    vertex 0.096000016 0.015999982 0.0768
  endloop
endfacet
facet normal -0.003072 1.7166139e-09 0.0
  outer loop
    vertex 0.09600004 0.055999983 0.0
    vertex 0.096000016 0.015999982 0.0
    vertex 0.096000016 0.015999982 0.0768
  endloop
endfacet
facet normal -0.003072 1.7166139e-09 0.0
  outer loop
    vertex 0.09600004 0.055999983 0.0
    vertex 0.096000016 0.015999982 0.0768
    vertex 0.09600004 0.055999983 0.0768
  endloop
endfacet
facet normal 2.861023e-10 0.00061440014 0.0
  outer loop
    vertex 0.10400004 0.05599998 0.0
    vertex 0.09600004 0.055999983 0.0
    vertex 0.09600004 0.055999983 0.0768
  endloop
endfacet
facet normal 2.861023e-10 0.00061440014 -0.0
  outer loop
    vertex 0.10400004 0.05599998 0.0
    vertex 0.09600004 0.055999983 0.0768
    vertex 0.10400004 0.05599998 0.0768
  endloop
endfacet
facet normal 0.003072 -1.7166139e-09 0.0
  outer loop
    vertex 0.10400002 0.015999978 0.0
    vertex 0.10400004 0.05599998 0.0
    vertex 0.10400004 0.05599998 0.0768
  endloop
endfacet
facet normal 0.003072 -1.7166139e-09 0.0
  outer loop
    vertex 0.10400002 0.015999978 0.0
    vertex 0.10400004 0.05599998 0.0768
    vertex 0.10400002 0.015999978 0.0768
  endloop
endfacet
facet normal 0.0 0.0 -0.00032000005
  outer loop
    vertex 0.096000016 0.015999982 0.0
    vertex 0.09600004 0.055999983 0.0
    vertex 0.10400004 0.05599998 0.0
  endloop
endfacet
facet normal 0.0 0.0 -0.00032000008
  outer loop
    vertex 0.096000016 0.015999982 0.0
    vertex 0.10400004 0.05599998 0.0
    vertex 0.10400002 0.015999978 0.0
  endloop
endfacet
facet normal 0.0 0.0 0.00032000008
  outer loop
    vertex 0.10400004 0.05599998 0.0768
    vertex 0.09600004 0.055999983 0.0768
    vertex 0.096000016 0.015999982 0.0768
  endloop
endfacet
facet normal 0.0 -0.0 0.00032000005
  outer loop
    vertex 0.10400002 0.015999978 0.0768
    vertex 0.10400004 0.05599998 0.0768
    vertex 0.096000016 0.015999982 0.0768
  endloop
endfacet
endsolid cube.stl
