solid cube.stl
facet normal 3.469447e-18 4.8844272e-11 -0.0010239992
  outer loop
    vertex 0.304 0.01599989 7.631873e-10
    vertex 0.304 -1.0871887e-07 -5.066782e-15
    vertex 0.24000004 -8.58307e-08 -4.2234714e-15
  endloop
endfacet
facet normal 5.157557e-18 4.8844272e-11 -0.0010239993
  outer loop
    vertex 0.24000004 0.015999915 7.631881e-10
    vertex 0.304 0.01599989 7.631873e-10
    vertex 0.24000004 -8.58307e-08 -4.2234714e-15
  endloop
endfacet
facet normal -0.0009215998 0.0 0.0
  outer loop
    vertex 0.24000004 -8.58307e-08 -4.2234714e-15
    vertex 0.24000004 -8.857819e-08 0.057599988
    vertex 0.24000004 0.015999911 0.057599988
  endloop
endfacet
facet normal -0.00092159986 0.0 0.0
  outer loop
    vertex 0.24000004 -8.58307e-08 -4.2234714e-15
    vertex 0.24000004 0.015999911 0.057599988
    vertex 0.24000004 0.015999915 7.631881e-10
  endloop
endfacet
facet normal 0.0 0.0 -0.0005120001
  outer loop
    vertex 0.24000004 -8.857819e-08 0.057599988
    vertex 0.20800003 -7.71341e-08 0.057599988
    vertex 0.20800003 0.015999923 0.057599988
  endloop
endfacet
facet normal 0.0 0.0 -0.0005120001
  outer loop
    vertex 0.24000004 -8.857819e-08 0.057599988
    vertex 0.20800003 0.015999923 0.057599988
    vertex 0.24000004 0.015999911 0.057599988
  endloop
endfacet
facet normal 0.0009215998 0.0 0.0
  outer loop
    vertex 0.20800003 -7.71341e-08 0.057599988
    vertex 0.20800003 -7.4386605e-08 -3.6901257e-15
    vertex 0.20800003 0.015999926 7.631887e-10
  endloop
endfacet
facet normal 0.00092159974 -0.0 0.0
  outer loop
    vertex 0.20800003 -7.71341e-08 0.057599988
    vertex 0.20800003 0.015999926 7.631887e-10
    vertex 0.20800003 0.015999923 0.057599988
  endloop
endfacet
facet normal -3.469447e-18 1.16005254e-10 -0.0024320006
  outer loop
    vertex 0.20800003 0.015999926 7.631887e-10
    vertex 0.20800003 -7.4386605e-08 -3.6901257e-15
    vertex 0.056000013 -2.0027164e-08 -8.713229e-16
  endloop
endfacet
facet normal -4.0719587e-18 1.16005254e-10 -0.0024320004
  outer loop
    vertex 0.056000017 0.01599998 7.631915e-10
    vertex 0.20800003 0.015999926 7.631887e-10
    vertex 0.056000013 -2.0027164e-08 -8.713229e-16
  endloop
endfacet
facet normal -0.00092159974 2.1457665e-10 6.938894e-18
  outer loop
    vertex 0.056000017 0.01599998 7.631915e-10
    vertex 0.056000013 -2.0027164e-08 -8.713229e-16
    vertex 0.056000013 -2.2774657e-08 0.05759998
  endloop
endfacet
facet normal -0.0009215996 2.1457665e-10 1.3877788e-17
  outer loop
    vertex 0.056000017 0.015999977 0.05759998
    vertex 0.056000017 0.01599998 7.631915e-10
    vertex 0.056000013 -2.2774657e-08 0.05759998
  endloop
endfacet
facet normal 0.0 0.0 -0.00051199994
  outer loop
    vertex 0.056000013 -2.2774657e-08 0.05759998
    vertex 0.024000019 -1.1330567e-08 0.05759998
    vertex 0.024000024 0.01599999 0.05759998
  endloop
endfacet
facet normal 0.0 0.0 -0.0005119999
  outer loop
    vertex 0.056000013 -2.2774657e-08 0.05759998
    vertex 0.024000024 0.01599999 0.05759998
    vertex 0.056000017 0.015999977 0.05759998
  endloop
endfacet
facet normal 0.0009215997 -3.2186498e-10 -1.5352803e-17
  outer loop
    vertex 0.024000019 -1.1330567e-08 0.05759998
    vertex 0.024000019 -8.583076e-09 -3.379775e-16
    vertex 0.024000024 0.015999991 7.63192e-10
  endloop
endfacet
facet normal 0.00092159974 -3.2186498e-10 -1.3877788e-17
  outer loop
    vertex 0.024000019 -1.1330567e-08 0.05759998
    vertex 0.024000024 0.015999991 7.63192e-10
    vertex 0.024000024 0.01599999 0.05759998
  endloop
endfacet
facet normal 1.7347235e-18 1.8316631e-11 -0.00038400033
  outer loop
    vertex 0.024000024 0.015999991 7.63192e-10
    vertex 0.024000019 -8.583076e-09 -3.379775e-16
    vertex 0.0 0.0 0.0
  endloop
endfacet
facet normal 1.7787121e-18 1.8316631e-11 -0.00038400033
  outer loop
    vertex 5.722046e-09 0.016 7.6319234e-10
    vertex 0.024000024 0.015999991 7.63192e-10
    vertex 0.0 0.0 0.0
  endloop
endfacet
facet normal -0.0019200001 6.866455e-10 3.469447e-17
  outer loop
    vertex 5.722046e-09 0.016 7.6319234e-10
    vertex 0.0 0.0 0.0
    vertex -4.6995793e-17 -5.7239427e-09 0.12
  endloop
endfacet
facet normal -0.0019200001 6.866455e-10 3.1974422e-17
  outer loop
    vertex 5.722046e-09 0.015999995 0.12
    vertex 5.722046e-09 0.016 7.6319234e-10
    vertex -4.6995793e-17 -5.7239427e-09 0.12
  endloop
endfacet
facet normal -0.0 0.0 0.004864
  outer loop
    vertex -4.6995793e-17 -5.7239427e-09 0.12
    vertex 0.304 -1.1444281e-07 0.12
    vertex 0.304 0.015999885 0.12
  endloop
endfacet
facet normal 0.0 0.0 0.0048640002
  outer loop
    vertex -4.6995793e-17 -5.7239427e-09 0.12
    vertex 0.304 0.015999885 0.12
    vertex 5.722046e-09 0.015999995 0.12
  endloop
endfacet
facet normal 0.0019199998 0.0 0.0
  outer loop
    vertex 0.304 -1.1444281e-07 0.12
    vertex 0.304 -1.0871887e-07 -5.066782e-15
    vertex 0.304 0.01599989 7.631873e-10
  endloop
endfacet
facet normal 0.0019199998 -0.0 0.0
  outer loop
    vertex 0.304 -1.1444281e-07 0.12
    vertex 0.304 0.01599989 7.631873e-10
    vertex 0.304 0.015999885 0.12
  endloop
endfacet
facet normal -2.7465807e-09 -0.0076799938 -3.6633185e-10
  outer loop
    vertex 0.24000004 -8.857819e-08 0.057599988
    vertex 0.304 -1.0871887e-07 -5.066782e-15
    vertex 0.304 -1.1444281e-07 0.12
  endloop
endfacet
facet normal -7.141111e-10 -0.0019968005 -9.524703e-11
  outer loop
    vertex 0.20800003 -7.71341e-08 0.057599988
    vertex 0.24000004 -8.857819e-08 0.057599988
    vertex 0.304 -1.1444281e-07 0.12
  endloop
endfacet
facet normal -1.3183585e-09 -0.0036863964 -1.758393e-10
  outer loop
    vertex 0.24000004 -8.58307e-08 -4.2234714e-15
    vertex 0.304 -1.0871887e-07 -5.066782e-15
    vertex 0.24000004 -8.857819e-08 0.057599988
  endloop
endfacet
facet normal -6.7840586e-09 -0.018969603 -9.0484065e-10
  outer loop
    vertex -4.6995793e-17 -5.7239427e-09 0.12
    vertex 0.20800003 -7.71341e-08 0.057599988
    vertex 0.304 -1.1444281e-07 0.12
  endloop
endfacet
facet normal -3.1311036e-09 -0.0087552 -4.176206e-10
  outer loop
    vertex 0.056000013 -2.2774657e-08 0.05759998
    vertex 0.20800003 -7.4386605e-08 -3.6901257e-15
    vertex 0.20800003 -7.71341e-08 0.057599988
  endloop
endfacet
facet normal -3.3920307e-09 -0.009484804 -4.5242055e-10
  outer loop
    vertex 0.056000013 -2.2774657e-08 0.05759998
    vertex 0.20800003 -7.71341e-08 0.057599988
    vertex -4.6995793e-17 -5.7239427e-09 0.12
  endloop
endfacet
facet normal -7.1411144e-10 -0.0019968 -9.524645e-11
  outer loop
    vertex 0.024000019 -1.1330567e-08 0.05759998
    vertex 0.056000013 -2.2774657e-08 0.05759998
    vertex -4.6995793e-17 -5.7239427e-09 0.12
  endloop
endfacet
facet normal -3.1311027e-09 -0.008755199 -4.17619e-10
  outer loop
    vertex 0.056000013 -2.0027164e-08 -8.713229e-16
    vertex 0.20800003 -7.4386605e-08 -3.6901257e-15
    vertex 0.056000013 -2.2774657e-08 0.05759998
  endloop
endfacet
facet normal -4.94385e-10 -0.0013824006 -6.593984e-11
  outer loop
    vertex 0.0 0.0 0.0
    vertex 0.024000019 -8.583076e-09 -3.379775e-16
    vertex 0.024000019 -1.1330567e-08 0.05759998
  endloop
endfacet
facet normal -1.029969e-09 -0.0028800021 -1.3737474e-10
  outer loop
    vertex 0.0 0.0 0.0
    vertex 0.024000019 -1.1330567e-08 0.05759998
    vertex -4.6995793e-17 -5.7239427e-09 0.12
  endloop
endfacet
facet normal 2.7805565e-09 0.0076799938 3.576276e-10
  outer loop
    vertex 0.304 0.015999885 0.12
    vertex 0.304 0.01599989 7.631873e-10
    vertex 0.24000004 0.015999911 0.057599988
  endloop
endfacet
facet normal 6.973744e-10 0.0019968008 1.1920998e-10
  outer loop
    vertex 0.304 0.015999885 0.12
    vertex 0.24000004 0.015999911 0.057599988
    vertex 0.20800003 0.015999923 0.057599988
  endloop
endfacet
facet normal 1.3947484e-09 0.0036863964 2.384184e-10
  outer loop
    vertex 0.24000004 0.015999911 0.057599988
    vertex 0.304 0.01599989 7.631873e-10
    vertex 0.24000004 0.015999915 7.631881e-10
  endloop
endfacet
facet normal 6.8575154e-09 0.018969603 7.748646e-10
  outer loop
    vertex 0.304 0.015999885 0.12
    vertex 0.20800003 0.015999923 0.057599988
    vertex 5.722046e-09 0.015999995 0.12
  endloop
endfacet
facet normal 3.1113618e-09 0.008755199 5.6624416e-10
  outer loop
    vertex 0.20800003 0.015999923 0.057599988
    vertex 0.20800003 0.015999926 7.631887e-10
    vertex 0.056000017 0.015999977 0.05759998
  endloop
endfacet
facet normal 3.3706438e-09 0.009484805 1.9371482e-10
  outer loop
    vertex 5.722046e-09 0.015999995 0.12
    vertex 0.20800003 0.015999923 0.057599988
    vertex 0.056000017 0.015999977 0.05759998
  endloop
endfacet
facet normal 8.1360363e-10 0.0019967998 1.3411075e-10
  outer loop
    vertex 5.722046e-09 0.015999995 0.12
    vertex 0.056000017 0.015999977 0.05759998
    vertex 0.024000024 0.01599999 0.05759998
  endloop
endfacet
facet normal 3.1113614e-09 0.008755198 5.6624416e-10
  outer loop
    vertex 0.056000017 0.015999977 0.05759998
    vertex 0.20800003 0.015999926 7.631887e-10
    vertex 0.056000017 0.01599998 7.631915e-10
  endloop
endfacet
facet normal 5.364416e-10 0.0013824006 4.470352e-11
  outer loop
    vertex 0.024000024 0.01599999 0.05759998
    vertex 0.024000024 0.015999991 7.63192e-10
    vertex 5.722046e-09 0.016 7.6319234e-10
  endloop
endfacet
facet normal 1.0192395e-09 0.0028800021 1.3411056e-10
  outer loop
    vertex 5.722046e-09 0.015999995 0.12
    vertex 0.024000024 0.01599999 0.05759998
    vertex 5.722046e-09 0.016 7.6319234e-10
  endloop
endfacet
facet normal -3.7383777e-10 -0.0019200001 0.0
  outer loop
    vertex -0.016 3.115315e-09 0.0
    vertex 0.0 0.0 0.0
    vertex 0.0 0.0 0.12
  endloop
endfacet
facet normal -3.7383777e-10 -0.0019200001 0.0
  outer loop
    vertex -0.016 3.115315e-09 0.0
    vertex 0.0 0.0 0.12
    vertex -0.016 3.115315e-09 0.12
  endloop
endfacet
facet normal -0.036000002 7.152557e-09 0.0
  outer loop
    vertex -0.015999941 0.3 0.0
    vertex -0.016 3.115315e-09 0.0
    vertex -0.016 3.115315e-09 0.12
  endloop
endfacet
facet normal -0.036000002 7.152557e-09 0.0
  outer loop
    vertex -0.015999941 0.3 0.0
    vertex -0.016 3.115315e-09 0.12
    vertex -0.015999941 0.3 0.12
  endloop
endfacet
facet normal 0.0 0.0019199998 0.0
  outer loop
    vertex 5.8412155e-08 0.3 0.0
    vertex -0.015999941 0.3 0.0
    vertex -0.015999941 0.3 0.12
  endloop
endfacet
facet normal 0.0 0.0019199998 -0.0
  outer loop
    vertex 5.8412155e-08 0.3 0.0
    vertex -0.015999941 0.3 0.12
    vertex 5.8412155e-08 0.3 0.12
  endloop
endfacet
facet normal 0.036000002 -7.0094583e-09 0.0
  outer loop
    vertex 0.0 0.0 0.0
    vertex 5.8412155e-08 0.3 0.0
    vertex 5.8412155e-08 0.3 0.12
  endloop
endfacet
facet normal 0.036000002 -7.0094583e-09 0.0
  outer loop
    vertex 0.0 0.0 0.0
    vertex 5.8412155e-08 0.3 0.12
    vertex 0.0 0.0 0.12
  endloop
endfacet
facet normal 0.0 0.0 -0.0048
  outer loop
    vertex -0.016 3.115315e-09 0.0
    vertex -0.015999941 0.3 0.0
    vertex 5.8412155e-08 0.3 0.0
  endloop
endfacet
facet normal 0.0 0.0 -0.0048
  outer loop
    vertex -0.016 3.115315e-09 0.0
    vertex 5.8412155e-08 0.3 0.0
    vertex 0.0 0.0 0.0
  endloop
endfacet
facet normal 0.0 0.0 0.0047999998
  outer loop
    vertex 5.8412155e-08 0.3 0.12
    vertex -0.015999941 0.3 0.12
    vertex -0.016 3.115315e-09 0.12
  endloop
endfacet
facet normal 0.0 -0.0 0.0048
  outer loop
    vertex 0.0 0.0 0.12
    vertex 5.8412155e-08 0.3 0.12
    vertex -0.016 3.115315e-09 0.12
  endloop
endfacet
facet normal -0.004800013 0.0 0.0
  outer loop
    vertex 2.0 3.016 5.0
    vertex 2.0 3.0 5.0
    vertex 2.0 3.0 5.3
  endloop
endfacet
facet normal -0.004800013 0.0 0.0
  outer loop
    vertex 2.0 3.016 5.0
    vertex 2.0 3.0 5.3
    vertex 2.0 3.016 5.3
  endloop
endfacet
facet normal 0.0 0.035999987 0.0
  outer loop
    vertex 2.12 3.016 5.0
    vertex 2.0 3.016 5.0
    vertex 2.0 3.016 5.3
  endloop
endfacet
facet normal 0.0 0.035999987 -0.0
  outer loop
    vertex 2.12 3.016 5.0
    vertex 2.0 3.016 5.3
    vertex 2.12 3.016 5.3
  endloop
endfacet
facet normal 0.004800013 0.0 0.0
  outer loop
    vertex 2.12 3.0 5.0
    vertex 2.12 3.016 5.0
    vertex 2.12 3.016 5.3
  endloop
endfacet
facet normal 0.004800013 0.0 0.0
  outer loop
    vertex 2.12 3.0 5.0
    vertex 2.12 3.016 5.3
    vertex 2.12 3.0 5.3
  endloop
endfacet
facet normal 0.0 -0.035999987 0.0
  outer loop
    vertex 2.0 3.0 5.0
    vertex 2.12 3.0 5.0
    vertex 2.12 3.0 5.3
  endloop
endfacet
facet normal 0.0 -0.035999987 0.0
  outer loop
    vertex 2.0 3.0 5.0
    vertex 2.12 3.0 5.3
    vertex 2.0 3.0 5.3
  endloop
endfacet
facet normal 0.0 0.0 -0.001920002
  outer loop
    vertex 2.0 3.016 5.0
    vertex 2.12 3.016 5.0
    vertex 2.12 3.0 5.0
  endloop
endfacet
facet normal 0.0 0.0 -0.001920002
  outer loop
    vertex 2.0 3.016 5.0
    vertex 2.12 3.0 5.0
    vertex 2.0 3.0 5.0
  endloop
endfacet
facet normal 0.0 -0.0 0.001920002
  outer loop
    vertex 2.12 3.0 5.3
    vertex 2.12 3.016 5.3
    vertex 2.0 3.016 5.3
  endloop
endfacet
facet normal 0.0 0.0 0.001920002
  outer loop
    vertex 2.0 3.0 5.3
    vertex 2.12 3.0 5.3
    vertex 2.0 3.016 5.3
  endloop
endfacet
endsolid cube.stl
