solid 
 facet normal -1.000000e+00  0.000000e+00  0.000000e+00
   outer loop
     vertex -1.967500e+00 -9.675000e-01 -1.032500e+00
     vertex -1.967500e+00  9.675000e-01 -1.967500e+00
     vertex -1.967500e+00 -9.675000e-01 -1.967500e+00
   endloop
 endfacet
 facet normal -1.000000e+00  0.000000e+00  0.000000e+00
   outer loop
     vertex -1.967500e+00 -9.675000e-01 -1.032500e+00
     vertex -1.967500e+00  9.675000e-01 -1.032500e+00
     vertex -1.967500e+00  9.675000e-01 -1.967500e+00
   endloop
 endfacet
 facet normal  0.000000e+00 -1.000000e+00 -0.000000e+00
   outer loop
     vertex -3.250000e-02 -9.675000e-01 -1.032500e+00
     vertex -1.967500e+00 -9.675000e-01 -1.967500e+00
     vertex -3.250000e-02 -9.675000e-01 -1.967500e+00
   endloop
 endfacet
 facet normal -0.000000e+00 -1.000000e+00  0.000000e+00
   outer loop
     vertex -3.250000e-02 -9.675000e-01 -1.032500e+00
     vertex -1.967500e+00 -9.675000e-01 -1.032500e+00
     vertex -1.967500e+00 -9.675000e-01 -1.967500e+00
   endloop
 endfacet
 facet normal  0.000000e+00  0.000000e+00  1.000000e+00
   outer loop
     vertex -3.250000e-02  9.675000e-01 -1.032500e+00
     vertex -1.967500e+00  9.675000e-01 -1.032500e+00
     vertex -1.967500e+00 -9.675000e-01 -1.032500e+00
   endloop
 endfacet
 facet normal  0.000000e+00  0.000000e+00  1.000000e+00
   outer loop
     vertex -3.250000e-02  9.675000e-01 -1.032500e+00
     vertex -1.967500e+00 -9.675000e-01 -1.032500e+00
     vertex -3.250000e-02 -9.675000e-01 -1.032500e+00
   endloop
 endfacet
 facet normal  0.000000e+00  1.000000e+00  0.000000e+00
   outer loop
     vertex -3.250000e-02  9.675000e-01 -1.032500e+00
     vertex -3.250000e-02  9.675000e-01 -1.967500e+00
     vertex -1.967500e+00  9.675000e-01 -1.967500e+00
   endloop
 endfacet
 facet normal  0.000000e+00  1.000000e+00  0.000000e+00
   outer loop
     vertex -3.250000e-02  9.675000e-01 -1.032500e+00
     vertex -1.967500e+00  9.675000e-01 -1.967500e+00
     vertex -1.967500e+00  9.675000e-01 -1.032500e+00
   endloop
 endfacet
 facet normal -0.000000e+00  0.000000e+00 -1.000000e+00
   outer loop
     vertex -3.250000e-02  9.675000e-01 -1.967500e+00
     vertex -1.967500e+00 -9.675000e-01 -1.967500e+00
     vertex -1.967500e+00  9.675000e-01 -1.967500e+00
   endloop
 endfacet
 facet normal  0.000000e+00 -0.000000e+00 -1.000000e+00
   outer loop
     vertex -3.250000e-02  9.675000e-01 -1.967500e+00
     vertex -3.250000e-02 -9.675000e-01 -1.967500e+00
     vertex -1.967500e+00 -9.675000e-01 -1.967500e+00
   endloop
 endfacet
 facet normal  1.000000e+00  0.000000e+00  0.000000e+00
   outer loop
     vertex -3.250000e-02 -9.675000e-01 -1.032500e+00
     vertex -3.250000e-02 -9.675000e-01 -1.967500e+00
     vertex -3.250000e-02  9.675000e-01 -1.967500e+00
   endloop
 endfacet
 facet normal  1.000000e+00 -0.000000e+00  0.000000e+00
   outer loop
     vertex -3.250000e-02 -9.675000e-01 -1.032500e+00
     vertex -3.250000e-02  9.675000e-01 -1.967500e+00
     vertex -3.250000e-02  9.675000e-01 -1.032500e+00
   endloop
 endfacet
 facet normal  0.000000e+00 -1.000000e+00 -0.000000e+00
   outer loop
     vertex  2.967500e+00 -9.675000e-01 -1.032500e+00
     vertex  2.032500e+00 -9.675000e-01 -1.967500e+00
     vertex  2.967500e+00 -9.675000e-01 -1.967500e+00
   endloop
 endfacet
 facet normal -0.000000e+00 -1.000000e+00  0.000000e+00
   outer loop
     vertex  2.967500e+00 -9.675000e-01 -1.032500e+00
     vertex  2.032500e+00 -9.675000e-01 -1.032500e+00
     vertex  2.032500e+00 -9.675000e-01 -1.967500e+00
   endloop
 endfacet
 facet normal  1.000000e+00  0.000000e+00  0.000000e+00
   outer loop
     vertex  2.967500e+00  9.675000e-01 -1.032500e+00
     vertex  2.967500e+00 -9.675000e-01 -1.967500e+00
     vertex  2.967500e+00  9.675000e-01 -1.967500e+00
   endloop
 endfacet
 facet normal  1.000000e+00  0.000000e+00  0.000000e+00
   outer loop
     vertex  2.967500e+00  9.675000e-01 -1.032500e+00
     vertex  2.967500e+00 -9.675000e-01 -1.032500e+00
     vertex  2.967500e+00 -9.675000e-01 -1.967500e+00
   endloop
 endfacet
 facet normal  0.000000e+00  0.000000e+00  1.000000e+00
   outer loop
     vertex  2.032500e+00  9.675000e-01 -1.032500e+00
     vertex  2.032500e+00 -9.675000e-01 -1.032500e+00
     vertex  2.967500e+00 -9.675000e-01 -1.032500e+00
   endloop
 endfacet
 facet normal -0.000000e+00  0.000000e+00  1.000000e+00
   outer loop
     vertex  2.032500e+00  9.675000e-01 -1.032500e+00
     vertex  2.967500e+00 -9.675000e-01 -1.032500e+00
     vertex  2.967500e+00  9.675000e-01 -1.032500e+00
   endloop
 endfacet
 facet normal -1.000000e+00  0.000000e+00 -0.000000e+00
   outer loop
     vertex  2.032500e+00  9.675000e-01 -1.032500e+00
     vertex  2.032500e+00  9.675000e-01 -1.967500e+00
     vertex  2.032500e+00 -9.675000e-01 -1.967500e+00
   endloop
 endfacet
 facet normal -1.000000e+00 -0.000000e+00  0.000000e+00
   outer loop
     vertex  2.032500e+00  9.675000e-01 -1.032500e+00
     vertex  2.032500e+00 -9.675000e-01 -1.967500e+00
     vertex  2.032500e+00 -9.675000e-01 -1.032500e+00
   endloop
 endfacet
 facet normal  0.000000e+00  0.000000e+00 -1.000000e+00
   outer loop
     vertex  2.032500e+00  9.675000e-01 -1.967500e+00
     vertex  2.967500e+00 -9.675000e-01 -1.967500e+00
     vertex  2.032500e+00 -9.675000e-01 -1.967500e+00
   endloop
 endfacet
 facet normal  0.000000e+00  0.000000e+00 -1.000000e+00
   outer loop
     vertex  2.032500e+00  9.675000e-01 -1.967500e+00
     vertex  2.967500e+00  9.675000e-01 -1.967500e+00
     vertex  2.967500e+00 -9.675000e-01 -1.967500e+00
   endloop
 endfacet
 facet normal  0.000000e+00  1.000000e+00  0.000000e+00
   outer loop
     vertex  2.967500e+00  9.675000e-01 -1.032500e+00
     vertex  2.967500e+00  9.675000e-01 -1.967500e+00
     vertex  2.032500e+00  9.675000e-01 -1.967500e+00
   endloop
 endfacet
 facet normal  0.000000e+00  1.000000e+00  0.000000e+00
   outer loop
     vertex  2.967500e+00  9.675000e-01 -1.032500e+00
     vertex  2.032500e+00  9.675000e-01 -1.967500e+00
     vertex  2.032500e+00  9.675000e-01 -1.032500e+00
   endloop
 endfacet
 facet normal  0.000000e+00 -1.000000e+00 -0.000000e+00
   outer loop
     vertex -2.032500e+00 -9.675000e-01 -1.032500e+00
     vertex -2.967500e+00 -9.675000e-01 -1.967500e+00
     vertex -2.032500e+00 -9.675000e-01 -1.967500e+00
   endloop
 endfacet
 facet normal -0.000000e+00 -1.000000e+00  0.000000e+00
   outer loop
     vertex -2.032500e+00 -9.675000e-01 -1.032500e+00
     vertex -2.967500e+00 -9.675000e-01 -1.032500e+00
     vertex -2.967500e+00 -9.675000e-01 -1.967500e+00
   endloop
 endfacet
 facet normal  1.000000e+00  0.000000e+00  0.000000e+00
   outer loop
     vertex -2.032500e+00  9.675000e-01 -1.032500e+00
     vertex -2.032500e+00 -9.675000e-01 -1.967500e+00
     vertex -2.032500e+00  9.675000e-01 -1.967500e+00
   endloop
 endfacet
 facet normal  1.000000e+00  0.000000e+00  0.000000e+00
   outer loop
     vertex -2.032500e+00  9.675000e-01 -1.032500e+00
     vertex -2.032500e+00 -9.675000e-01 -1.032500e+00
     vertex -2.032500e+00 -9.675000e-01 -1.967500e+00
   endloop
 endfacet
 facet normal  0.000000e+00  0.000000e+00  1.000000e+00
   outer loop
     vertex -2.967500e+00  9.675000e-01 -1.032500e+00
     vertex -2.967500e+00 -9.675000e-01 -1.032500e+00
     vertex -2.032500e+00 -9.675000e-01 -1.032500e+00
   endloop
 endfacet
 facet normal -0.000000e+00  0.000000e+00  1.000000e+00
   outer loop
     vertex -2.967500e+00  9.675000e-01 -1.032500e+00
     vertex -2.032500e+00 -9.675000e-01 -1.032500e+00
     vertex -2.032500e+00  9.675000e-01 -1.032500e+00
   endloop
 endfacet
 facet normal -1.000000e+00  0.000000e+00 -0.000000e+00
   outer loop
     vertex -2.967500e+00  9.675000e-01 -1.032500e+00
     vertex -2.967500e+00  9.675000e-01 -1.967500e+00
     vertex -2.967500e+00 -9.675000e-01 -1.967500e+00
   endloop
 endfacet
 facet normal -1.000000e+00 -0.000000e+00  0.000000e+00
   outer loop
     vertex -2.967500e+00  9.675000e-01 -1.032500e+00
     vertex -2.967500e+00 -9.675000e-01 -1.967500e+00
     vertex -2.967500e+00 -9.675000e-01 -1.032500e+00
   endloop
 endfacet
 facet normal  0.000000e+00  0.000000e+00 -1.000000e+00
   outer loop
     vertex -2.967500e+00  9.675000e-01 -1.967500e+00
     vertex -2.032500e+00 -9.675000e-01 -1.967500e+00
     vertex -2.967500e+00 -9.675000e-01 -1.967500e+00
   endloop
 endfacet
 facet normal  0.000000e+00  0.000000e+00 -1.000000e+00
   outer loop
     vertex -2.967500e+00  9.675000e-01 -1.967500e+00
     vertex -2.032500e+00  9.675000e-01 -1.967500e+00
     vertex -2.032500e+00 -9.675000e-01 -1.967500e+00
   endloop
 endfacet
 facet normal  0.000000e+00  1.000000e+00  0.000000e+00
   outer loop
     vertex -2.032500e+00  9.675000e-01 -1.032500e+00
     vertex -2.032500e+00  9.675000e-01 -1.967500e+00
     vertex -2.967500e+00  9.675000e-01 -1.967500e+00
   endloop
 endfacet
 facet normal  0.000000e+00  1.000000e+00  0.000000e+00
   outer loop
     vertex -2.032500e+00  9.675000e-01 -1.032500e+00
     vertex -2.967500e+00  9.675000e-01 -1.967500e+00
     vertex -2.967500e+00  9.675000e-01 -1.032500e+00
   endloop
 endfacet
 facet normal -1.000000e+00  0.000000e+00  0.000000e+00
   outer loop
     vertex -2.967500e+00 -9.675000e-01 -3.250000e-02
     vertex -2.967500e+00  9.675000e-01 -9.675000e-01
     vertex -2.967500e+00 -9.675000e-01 -9.675000e-01
   endloop
 endfacet
 facet normal -1.000000e+00  0.000000e+00  0.000000e+00
   outer loop
     vertex -2.967500e+00 -9.675000e-01 -3.250000e-02
     vertex -2.967500e+00  9.675000e-01 -3.250000e-02
     vertex -2.967500e+00  9.675000e-01 -9.675000e-01
   endloop
 endfacet
 facet normal  0.000000e+00 -1.000000e+00 -0.000000e+00
   outer loop
     vertex -1.032500e+00 -9.675000e-01 -3.250000e-02
     vertex -2.967500e+00 -9.675000e-01 -9.675000e-01
     vertex -1.032500e+00 -9.675000e-01 -9.675000e-01
   endloop
 endfacet
 facet normal -0.000000e+00 -1.000000e+00  0.000000e+00
   outer loop
     vertex -1.032500e+00 -9.675000e-01 -3.250000e-02
     vertex -2.967500e+00 -9.675000e-01 -3.250000e-02
     vertex -2.967500e+00 -9.675000e-01 -9.675000e-01
   endloop
 endfacet
 facet normal  0.000000e+00  0.000000e+00  1.000000e+00
   outer loop
     vertex -1.032500e+00  9.675000e-01 -3.250000e-02
     vertex -2.967500e+00  9.675000e-01 -3.250000e-02
     vertex -2.967500e+00 -9.675000e-01 -3.250000e-02
   endloop
 endfacet
 facet normal  0.000000e+00  0.000000e+00  1.000000e+00
   outer loop
     vertex -1.032500e+00  9.675000e-01 -3.250000e-02
     vertex -2.967500e+00 -9.675000e-01 -3.250000e-02
     vertex -1.032500e+00 -9.675000e-01 -3.250000e-02
   endloop
 endfacet
 facet normal  0.000000e+00  1.000000e+00  0.000000e+00
   outer loop
     vertex -1.032500e+00  9.675000e-01 -3.250000e-02
     vertex -1.032500e+00  9.675000e-01 -9.675000e-01
     vertex -2.967500e+00  9.675000e-01 -9.675000e-01
   endloop
 endfacet
 facet normal  0.000000e+00  1.000000e+00  0.000000e+00
   outer loop
     vertex -1.032500e+00  9.675000e-01 -3.250000e-02
     vertex -2.967500e+00  9.675000e-01 -9.675000e-01
     vertex -2.967500e+00  9.675000e-01 -3.250000e-02
   endloop
 endfacet
 facet normal -0.000000e+00  0.000000e+00 -1.000000e+00
   outer loop
     vertex -1.032500e+00  9.675000e-01 -9.675000e-01
     vertex -2.967500e+00 -9.675000e-01 -9.675000e-01
     vertex -2.967500e+00  9.675000e-01 -9.675000e-01
   endloop
 endfacet
 facet normal  0.000000e+00 -0.000000e+00 -1.000000e+00
   outer loop
     vertex -1.032500e+00  9.675000e-01 -9.675000e-01
     vertex -1.032500e+00 -9.675000e-01 -9.675000e-01
     vertex -2.967500e+00 -9.675000e-01 -9.675000e-01
   endloop
 endfacet
 facet normal  1.000000e+00  0.000000e+00  0.000000e+00
   outer loop
     vertex -1.032500e+00 -9.675000e-01 -3.250000e-02
     vertex -1.032500e+00 -9.675000e-01 -9.675000e-01
     vertex -1.032500e+00  9.675000e-01 -9.675000e-01
   endloop
 endfacet
 facet normal  1.000000e+00 -0.000000e+00  0.000000e+00
   outer loop
     vertex -1.032500e+00 -9.675000e-01 -3.250000e-02
     vertex -1.032500e+00  9.675000e-01 -9.675000e-01
     vertex -1.032500e+00  9.675000e-01 -3.250000e-02
   endloop
 endfacet
 facet normal -1.000000e+00  0.000000e+00  0.000000e+00
   outer loop
     vertex  3.250000e-02 -9.675000e-01 -1.032500e+00
     vertex  3.250000e-02  9.675000e-01 -1.967500e+00
     vertex  3.250000e-02 -9.675000e-01 -1.967500e+00
   endloop
 endfacet
 facet normal -1.000000e+00  0.000000e+00  0.000000e+00
   outer loop
     vertex  3.250000e-02 -9.675000e-01 -1.032500e+00
     vertex  3.250000e-02  9.675000e-01 -1.032500e+00
     vertex  3.250000e-02  9.675000e-01 -1.967500e+00
   endloop
 endfacet
 facet normal  0.000000e+00 -1.000000e+00 -0.000000e+00
   outer loop
     vertex  1.967500e+00 -9.675000e-01 -1.032500e+00
     vertex  3.250000e-02 -9.675000e-01 -1.967500e+00
     vertex  1.967500e+00 -9.675000e-01 -1.967500e+00
   endloop
 endfacet
 facet normal -0.000000e+00 -1.000000e+00  0.000000e+00
   outer loop
     vertex  1.967500e+00 -9.675000e-01 -1.032500e+00
     vertex  3.250000e-02 -9.675000e-01 -1.032500e+00
     vertex  3.250000e-02 -9.675000e-01 -1.967500e+00
   endloop
 endfacet
 facet normal  0.000000e+00  0.000000e+00  1.000000e+00
   outer loop
     vertex  1.967500e+00  9.675000e-01 -1.032500e+00
     vertex  3.250000e-02  9.675000e-01 -1.032500e+00
     vertex  3.250000e-02 -9.675000e-01 -1.032500e+00
   endloop
 endfacet
 facet normal  0.000000e+00  0.000000e+00  1.000000e+00
   outer loop
     vertex  1.967500e+00  9.675000e-01 -1.032500e+00
     vertex  3.250000e-02 -9.675000e-01 -1.032500e+00
     vertex  1.967500e+00 -9.675000e-01 -1.032500e+00
   endloop
 endfacet
 facet normal  0.000000e+00  1.000000e+00  0.000000e+00
   outer loop
     vertex  1.967500e+00  9.675000e-01 -1.032500e+00
     vertex  1.967500e+00  9.675000e-01 -1.967500e+00
     vertex  3.250000e-02  9.675000e-01 -1.967500e+00
   endloop
 endfacet
 facet normal  0.000000e+00  1.000000e+00  0.000000e+00
   outer loop
     vertex  1.967500e+00  9.675000e-01 -1.032500e+00
     vertex  3.250000e-02  9.675000e-01 -1.967500e+00
     vertex  3.250000e-02  9.675000e-01 -1.032500e+00
   endloop
 endfacet
 facet normal -0.000000e+00  0.000000e+00 -1.000000e+00
   outer loop
     vertex  1.967500e+00  9.675000e-01 -1.967500e+00
     vertex  3.250000e-02 -9.675000e-01 -1.967500e+00
     vertex  3.250000e-02  9.675000e-01 -1.967500e+00
   endloop
 endfacet
 facet normal  0.000000e+00 -0.000000e+00 -1.000000e+00
   outer loop
     vertex  1.967500e+00  9.675000e-01 -1.967500e+00
     vertex  1.967500e+00 -9.675000e-01 -1.967500e+00
     vertex  3.250000e-02 -9.675000e-01 -1.967500e+00
   endloop
 endfacet
 facet normal  1.000000e+00  0.000000e+00  0.000000e+00
   outer loop
     vertex  1.967500e+00 -9.675000e-01 -1.032500e+00
     vertex  1.967500e+00 -9.675000e-01 -1.967500e+00
     vertex  1.967500e+00  9.675000e-01 -1.967500e+00
   endloop
 endfacet
 facet normal  1.000000e+00 -0.000000e+00  0.000000e+00
   outer loop
     vertex  1.967500e+00 -9.675000e-01 -1.032500e+00
     vertex  1.967500e+00  9.675000e-01 -1.967500e+00
     vertex  1.967500e+00  9.675000e-01 -1.032500e+00
   endloop
 endfacet
 facet normal -1.000000e+00  0.000000e+00  0.000000e+00
   outer loop
     vertex -9.675000e-01 -9.675000e-01 -3.250000e-02
     vertex -9.675000e-01  9.675000e-01 -9.675000e-01
     vertex -9.675000e-01 -9.675000e-01 -9.675000e-01
   endloop
 endfacet
 facet normal -1.000000e+00  0.000000e+00  0.000000e+00
   outer loop
     vertex -9.675000e-01 -9.675000e-01 -3.250000e-02
     vertex -9.675000e-01  9.675000e-01 -3.250000e-02
     vertex -9.675000e-01  9.675000e-01 -9.675000e-01
   endloop
 endfacet
 facet normal  0.000000e+00 -1.000000e+00 -0.000000e+00
   outer loop
     vertex  9.675000e-01 -9.675000e-01 -3.250000e-02
     vertex -9.675000e-01 -9.675000e-01 -9.675000e-01
     vertex  9.675000e-01 -9.675000e-01 -9.675000e-01
   endloop
 endfacet
 facet normal -0.000000e+00 -1.000000e+00  0.000000e+00
   outer loop
     vertex  9.675000e-01 -9.675000e-01 -3.250000e-02
     vertex -9.675000e-01 -9.675000e-01 -3.250000e-02
     vertex -9.675000e-01 -9.675000e-01 -9.675000e-01
   endloop
 endfacet
 facet normal  0.000000e+00  0.000000e+00  1.000000e+00
   outer loop
     vertex  9.675000e-01  9.675000e-01 -3.250000e-02
     vertex -9.675000e-01  9.675000e-01 -3.250000e-02
     vertex -9.675000e-01 -9.675000e-01 -3.250000e-02
   endloop
 endfacet
 facet normal  0.000000e+00  0.000000e+00  1.000000e+00
   outer loop
     vertex  9.675000e-01  9.675000e-01 -3.250000e-02
     vertex -9.675000e-01 -9.675000e-01 -3.250000e-02
     vertex  9.675000e-01 -9.675000e-01 -3.250000e-02
   endloop
 endfacet
 facet normal  0.000000e+00  1.000000e+00  0.000000e+00
   outer loop
     vertex  9.675000e-01  9.675000e-01 -3.250000e-02
     vertex  9.675000e-01  9.675000e-01 -9.675000e-01
     vertex -9.675000e-01  9.675000e-01 -9.675000e-01
   endloop
 endfacet
 facet normal  0.000000e+00  1.000000e+00  0.000000e+00
   outer loop
     vertex  9.675000e-01  9.675000e-01 -3.250000e-02
     vertex -9.675000e-01  9.675000e-01 -9.675000e-01
     vertex -9.675000e-01  9.675000e-01 -3.250000e-02
   endloop
 endfacet
 facet normal -0.000000e+00  0.000000e+00 -1.000000e+00
   outer loop
     vertex  9.675000e-01  9.675000e-01 -9.675000e-01
     vertex -9.675000e-01 -9.675000e-01 -9.675000e-01
     vertex -9.675000e-01  9.675000e-01 -9.675000e-01
   endloop
 endfacet
 facet normal  0.000000e+00 -0.000000e+00 -1.000000e+00
   outer loop
     vertex  9.675000e-01  9.675000e-01 -9.675000e-01
     vertex  9.675000e-01 -9.675000e-01 -9.675000e-01
     vertex -9.675000e-01 -9.675000e-01 -9.675000e-01
   endloop
 endfacet
 facet normal  1.000000e+00  0.000000e+00  0.000000e+00
   outer loop
     vertex  9.675000e-01 -9.675000e-01 -3.250000e-02
     vertex  9.675000e-01 -9.675000e-01 -9.675000e-01
     vertex  9.675000e-01  9.675000e-01 -9.675000e-01
   endloop
 endfacet
 facet normal  1.000000e+00 -0.000000e+00  0.000000e+00
   outer loop
     vertex  9.675000e-01 -9.675000e-01 -3.250000e-02
     vertex  9.675000e-01  9.675000e-01 -9.675000e-01
     vertex  9.675000e-01  9.675000e-01 -3.250000e-02
   endloop
 endfacet
 facet normal -1.000000e+00  0.000000e+00  0.000000e+00
   outer loop
     vertex -1.967500e+00 -9.675000e-01  9.675000e-01
     vertex -1.967500e+00  9.675000e-01  3.250000e-02
     vertex -1.967500e+00 -9.675000e-01  3.250000e-02
   endloop
 endfacet
 facet normal -1.000000e+00  0.000000e+00  0.000000e+00
   outer loop
     vertex -1.967500e+00 -9.675000e-01  9.675000e-01
     vertex -1.967500e+00  9.675000e-01  9.675000e-01
     vertex -1.967500e+00  9.675000e-01  3.250000e-02
   endloop
 endfacet
 facet normal  0.000000e+00 -1.000000e+00 -0.000000e+00
   outer loop
     vertex -3.250000e-02 -9.675000e-01  9.675000e-01
     vertex -1.967500e+00 -9.675000e-01  3.250000e-02
     vertex -3.250000e-02 -9.675000e-01  3.250000e-02
   endloop
 endfacet
 facet normal -0.000000e+00 -1.000000e+00  0.000000e+00
   outer loop
     vertex -3.250000e-02 -9.675000e-01  9.675000e-01
     vertex -1.967500e+00 -9.675000e-01  9.675000e-01
     vertex -1.967500e+00 -9.675000e-01  3.250000e-02
   endloop
 endfacet
 facet normal  0.000000e+00  0.000000e+00  1.000000e+00
   outer loop
     vertex -3.250000e-02  9.675000e-01  9.675000e-01
     vertex -1.967500e+00  9.675000e-01  9.675000e-01
     vertex -1.967500e+00 -9.675000e-01  9.675000e-01
   endloop
 endfacet
 facet normal  0.000000e+00  0.000000e+00  1.000000e+00
   outer loop
     vertex -3.250000e-02  9.675000e-01  9.675000e-01
     vertex -1.967500e+00 -9.675000e-01  9.675000e-01
     vertex -3.250000e-02 -9.675000e-01  9.675000e-01
   endloop
 endfacet
 facet normal  0.000000e+00  1.000000e+00  0.000000e+00
   outer loop
     vertex -3.250000e-02  9.675000e-01  9.675000e-01
     vertex -3.250000e-02  9.675000e-01  3.250000e-02
     vertex -1.967500e+00  9.675000e-01  3.250000e-02
   endloop
 endfacet
 facet normal  0.000000e+00  1.000000e+00  0.000000e+00
   outer loop
     vertex -3.250000e-02  9.675000e-01  9.675000e-01
     vertex -1.967500e+00  9.675000e-01  3.250000e-02
     vertex -1.967500e+00  9.675000e-01  9.675000e-01
   endloop
 endfacet
 facet normal -0.000000e+00  0.000000e+00 -1.000000e+00
   outer loop
     vertex -3.250000e-02  9.675000e-01  3.250000e-02
     vertex -1.967500e+00 -9.675000e-01  3.250000e-02
     vertex -1.967500e+00  9.675000e-01  3.250000e-02
   endloop
 endfacet
 facet normal  0.000000e+00 -0.000000e+00 -1.000000e+00
   outer loop
     vertex -3.250000e-02  9.675000e-01  3.250000e-02
     vertex -3.250000e-02 -9.675000e-01  3.250000e-02
     vertex -1.967500e+00 -9.675000e-01  3.250000e-02
   endloop
 endfacet
 facet normal  1.000000e+00  0.000000e+00  0.000000e+00
   outer loop
     vertex -3.250000e-02 -9.675000e-01  9.675000e-01
     vertex -3.250000e-02 -9.675000e-01  3.250000e-02
     vertex -3.250000e-02  9.675000e-01  3.250000e-02
   endloop
 endfacet
 facet normal  1.000000e+00 -0.000000e+00  0.000000e+00
   outer loop
     vertex -3.250000e-02 -9.675000e-01  9.675000e-01
     vertex -3.250000e-02  9.675000e-01  3.250000e-02
     vertex -3.250000e-02  9.675000e-01  9.675000e-01
   endloop
 endfacet
 facet normal -1.000000e+00  0.000000e+00  0.000000e+00
   outer loop
     vertex  1.032500e+00 -9.675000e-01 -3.250000e-02
     vertex  1.032500e+00  9.675000e-01 -9.675000e-01
     vertex  1.032500e+00 -9.675000e-01 -9.675000e-01
   endloop
 endfacet
 facet normal -1.000000e+00  0.000000e+00  0.000000e+00
   outer loop
     vertex  1.032500e+00 -9.675000e-01 -3.250000e-02
     vertex  1.032500e+00  9.675000e-01 -3.250000e-02
     vertex  1.032500e+00  9.675000e-01 -9.675000e-01
   endloop
 endfacet
 facet normal  0.000000e+00 -1.000000e+00 -0.000000e+00
   outer loop
     vertex  2.967500e+00 -9.675000e-01 -3.250000e-02
     vertex  1.032500e+00 -9.675000e-01 -9.675000e-01
     vertex  2.967500e+00 -9.675000e-01 -9.675000e-01
   endloop
 endfacet
 facet normal -0.000000e+00 -1.000000e+00  0.000000e+00
   outer loop
     vertex  2.967500e+00 -9.675000e-01 -3.250000e-02
     vertex  1.032500e+00 -9.675000e-01 -3.250000e-02
     vertex  1.032500e+00 -9.675000e-01 -9.675000e-01
   endloop
 endfacet
 facet normal  0.000000e+00  0.000000e+00  1.000000e+00
   outer loop
     vertex  2.967500e+00  9.675000e-01 -3.250000e-02
     vertex  1.032500e+00  9.675000e-01 -3.250000e-02
     vertex  1.032500e+00 -9.675000e-01 -3.250000e-02
   endloop
 endfacet
 facet normal  0.000000e+00  0.000000e+00  1.000000e+00
   outer loop
     vertex  2.967500e+00  9.675000e-01 -3.250000e-02
     vertex  1.032500e+00 -9.675000e-01 -3.250000e-02
     vertex  2.967500e+00 -9.675000e-01 -3.250000e-02
   endloop
 endfacet
 facet normal  0.000000e+00  1.000000e+00  0.000000e+00
   outer loop
     vertex  2.967500e+00  9.675000e-01 -3.250000e-02
     vertex  2.967500e+00  9.675000e-01 -9.675000e-01
     vertex  1.032500e+00  9.675000e-01 -9.675000e-01
   endloop
 endfacet
 facet normal  0.000000e+00  1.000000e+00  0.000000e+00
   outer loop
     vertex  2.967500e+00  9.675000e-01 -3.250000e-02
     vertex  1.032500e+00  9.675000e-01 -9.675000e-01
     vertex  1.032500e+00  9.675000e-01 -3.250000e-02
   endloop
 endfacet
 facet normal -0.000000e+00  0.000000e+00 -1.000000e+00
   outer loop
     vertex  2.967500e+00  9.675000e-01 -9.675000e-01
     vertex  1.032500e+00 -9.675000e-01 -9.675000e-01
     vertex  1.032500e+00  9.675000e-01 -9.675000e-01
   endloop
 endfacet
 facet normal  0.000000e+00 -0.000000e+00 -1.000000e+00
   outer loop
     vertex  2.967500e+00  9.675000e-01 -9.675000e-01
     vertex  2.967500e+00 -9.675000e-01 -9.675000e-01
     vertex  1.032500e+00 -9.675000e-01 -9.675000e-01
   endloop
 endfacet
 facet normal  1.000000e+00  0.000000e+00  0.000000e+00
   outer loop
     vertex  2.967500e+00 -9.675000e-01 -3.250000e-02
     vertex  2.967500e+00 -9.675000e-01 -9.675000e-01
     vertex  2.967500e+00  9.675000e-01 -9.675000e-01
   endloop
 endfacet
 facet normal  1.000000e+00 -0.000000e+00  0.000000e+00
   outer loop
     vertex  2.967500e+00 -9.675000e-01 -3.250000e-02
     vertex  2.967500e+00  9.675000e-01 -9.675000e-01
     vertex  2.967500e+00  9.675000e-01 -3.250000e-02
   endloop
 endfacet
 facet normal  0.000000e+00 -1.000000e+00 -0.000000e+00
   outer loop
     vertex  2.967500e+00 -9.675000e-01  9.675000e-01
     vertex  2.032500e+00 -9.675000e-01  3.250000e-02
     vertex  2.967500e+00 -9.675000e-01  3.250000e-02
   endloop
 endfacet
 facet normal -0.000000e+00 -1.000000e+00  0.000000e+00
   outer loop
     vertex  2.967500e+00 -9.675000e-01  9.675000e-01
     vertex  2.032500e+00 -9.675000e-01  9.675000e-01
     vertex  2.032500e+00 -9.675000e-01  3.250000e-02
   endloop
 endfacet
 facet normal  1.000000e+00  0.000000e+00  0.000000e+00
   outer loop
     vertex  2.967500e+00  9.675000e-01  9.675000e-01
     vertex  2.967500e+00 -9.675000e-01  3.250000e-02
     vertex  2.967500e+00  9.675000e-01  3.250000e-02
   endloop
 endfacet
 facet normal  1.000000e+00  0.000000e+00  0.000000e+00
   outer loop
     vertex  2.967500e+00  9.675000e-01  9.675000e-01
     vertex  2.967500e+00 -9.675000e-01  9.675000e-01
     vertex  2.967500e+00 -9.675000e-01  3.250000e-02
   endloop
 endfacet
 facet normal  0.000000e+00  0.000000e+00  1.000000e+00
   outer loop
     vertex  2.032500e+00  9.675000e-01  9.675000e-01
     vertex  2.032500e+00 -9.675000e-01  9.675000e-01
     vertex  2.967500e+00 -9.675000e-01  9.675000e-01
   endloop
 endfacet
 facet normal -0.000000e+00  0.000000e+00  1.000000e+00
   outer loop
     vertex  2.032500e+00  9.675000e-01  9.675000e-01
     vertex  2.967500e+00 -9.675000e-01  9.675000e-01
     vertex  2.967500e+00  9.675000e-01  9.675000e-01
   endloop
 endfacet
 facet normal -1.000000e+00  0.000000e+00 -0.000000e+00
   outer loop
     vertex  2.032500e+00  9.675000e-01  9.675000e-01
     vertex  2.032500e+00  9.675000e-01  3.250000e-02
     vertex  2.032500e+00 -9.675000e-01  3.250000e-02
   endloop
 endfacet
 facet normal -1.000000e+00 -0.000000e+00  0.000000e+00
   outer loop
     vertex  2.032500e+00  9.675000e-01  9.675000e-01
     vertex  2.032500e+00 -9.675000e-01  3.250000e-02
     vertex  2.032500e+00 -9.675000e-01  9.675000e-01
   endloop
 endfacet
 facet normal  0.000000e+00  0.000000e+00 -1.000000e+00
   outer loop
     vertex  2.032500e+00  9.675000e-01  3.250000e-02
     vertex  2.967500e+00 -9.675000e-01  3.250000e-02
     vertex  2.032500e+00 -9.675000e-01  3.250000e-02
   endloop
 endfacet
 facet normal  0.000000e+00  0.000000e+00 -1.000000e+00
   outer loop
     vertex  2.032500e+00  9.675000e-01  3.250000e-02
     vertex  2.967500e+00  9.675000e-01  3.250000e-02
     vertex  2.967500e+00 -9.675000e-01  3.250000e-02
   endloop
 endfacet
 facet normal  0.000000e+00  1.000000e+00  0.000000e+00
   outer loop
     vertex  2.967500e+00  9.675000e-01  9.675000e-01
     vertex  2.967500e+00  9.675000e-01  3.250000e-02
     vertex  2.032500e+00  9.675000e-01  3.250000e-02
   endloop
 endfacet
 facet normal  0.000000e+00  1.000000e+00  0.000000e+00
   outer loop
     vertex  2.967500e+00  9.675000e-01  9.675000e-01
     vertex  2.032500e+00  9.675000e-01  3.250000e-02
     vertex  2.032500e+00  9.675000e-01  9.675000e-01
   endloop
 endfacet
 facet normal  0.000000e+00 -1.000000e+00 -0.000000e+00
   outer loop
     vertex -2.032500e+00 -9.675000e-01  9.675000e-01
     vertex -2.967500e+00 -9.675000e-01  3.250000e-02
     vertex -2.032500e+00 -9.675000e-01  3.250000e-02
   endloop
 endfacet
 facet normal -0.000000e+00 -1.000000e+00  0.000000e+00
   outer loop
     vertex -2.032500e+00 -9.675000e-01  9.675000e-01
     vertex -2.967500e+00 -9.675000e-01  9.675000e-01
     vertex -2.967500e+00 -9.675000e-01  3.250000e-02
   endloop
 endfacet
 facet normal  1.000000e+00  0.000000e+00  0.000000e+00
   outer loop
     vertex -2.032500e+00  9.675000e-01  9.675000e-01
     vertex -2.032500e+00 -9.675000e-01  3.250000e-02
     vertex -2.032500e+00  9.675000e-01  3.250000e-02
   endloop
 endfacet
 facet normal  1.000000e+00  0.000000e+00  0.000000e+00
   outer loop
     vertex -2.032500e+00  9.675000e-01  9.675000e-01
     vertex -2.032500e+00 -9.675000e-01  9.675000e-01
     vertex -2.032500e+00 -9.675000e-01  3.250000e-02
   endloop
 endfacet
 facet normal  0.000000e+00  0.000000e+00  1.000000e+00
   outer loop
     vertex -2.967500e+00  9.675000e-01  9.675000e-01
     vertex -2.967500e+00 -9.675000e-01  9.675000e-01
     vertex -2.032500e+00 -9.675000e-01  9.675000e-01
   endloop
 endfacet
 facet normal -0.000000e+00  0.000000e+00  1.000000e+00
   outer loop
     vertex -2.967500e+00  9.675000e-01  9.675000e-01
     vertex -2.032500e+00 -9.675000e-01  9.675000e-01
     vertex -2.032500e+00  9.675000e-01  9.675000e-01
   endloop
 endfacet
 facet normal -1.000000e+00  0.000000e+00 -0.000000e+00
   outer loop
     vertex -2.967500e+00  9.675000e-01  9.675000e-01
     vertex -2.967500e+00  9.675000e-01  3.250000e-02
     vertex -2.967500e+00 -9.675000e-01  3.250000e-02
   endloop
 endfacet
 facet normal -1.000000e+00 -0.000000e+00  0.000000e+00
   outer loop
     vertex -2.967500e+00  9.675000e-01  9.675000e-01
     vertex -2.967500e+00 -9.675000e-01  3.250000e-02
     vertex -2.967500e+00 -9.675000e-01  9.675000e-01
   endloop
 endfacet
 facet normal  0.000000e+00  0.000000e+00 -1.000000e+00
   outer loop
     vertex -2.967500e+00  9.675000e-01  3.250000e-02
     vertex -2.032500e+00 -9.675000e-01  3.250000e-02
     vertex -2.967500e+00 -9.675000e-01  3.250000e-02
   endloop
 endfacet
 facet normal  0.000000e+00  0.000000e+00 -1.000000e+00
   outer loop
     vertex -2.967500e+00  9.675000e-01  3.250000e-02
     vertex -2.032500e+00  9.675000e-01  3.250000e-02
     vertex -2.032500e+00 -9.675000e-01  3.250000e-02
   endloop
 endfacet
 facet normal  0.000000e+00  1.000000e+00  0.000000e+00
   outer loop
     vertex -2.032500e+00  9.675000e-01  9.675000e-01
     vertex -2.032500e+00  9.675000e-01  3.250000e-02
     vertex -2.967500e+00  9.675000e-01  3.250000e-02
   endloop
 endfacet
 facet normal  0.000000e+00  1.000000e+00  0.000000e+00
   outer loop
     vertex -2.032500e+00  9.675000e-01  9.675000e-01
     vertex -2.967500e+00  9.675000e-01  3.250000e-02
     vertex -2.967500e+00  9.675000e-01  9.675000e-01
   endloop
 endfacet
 facet normal -1.000000e+00  0.000000e+00  0.000000e+00
   outer loop
     vertex -2.967500e+00 -9.675000e-01  1.967500e+00
     vertex -2.967500e+00  9.675000e-01  1.032500e+00
     vertex -2.967500e+00 -9.675000e-01  1.032500e+00
   endloop
 endfacet
 facet normal -1.000000e+00  0.000000e+00  0.000000e+00
   outer loop
     vertex -2.967500e+00 -9.675000e-01  1.967500e+00
     vertex -2.967500e+00  9.675000e-01  1.967500e+00
     vertex -2.967500e+00  9.675000e-01  1.032500e+00
   endloop
 endfacet
 facet normal  0.000000e+00 -1.000000e+00 -0.000000e+00
   outer loop
     vertex -1.032500e+00 -9.675000e-01  1.967500e+00
     vertex -2.967500e+00 -9.675000e-01  1.032500e+00
     vertex -1.032500e+00 -9.675000e-01  1.032500e+00
   endloop
 endfacet
 facet normal -0.000000e+00 -1.000000e+00  0.000000e+00
   outer loop
     vertex -1.032500e+00 -9.675000e-01  1.967500e+00
     vertex -2.967500e+00 -9.675000e-01  1.967500e+00
     vertex -2.967500e+00 -9.675000e-01  1.032500e+00
   endloop
 endfacet
 facet normal  0.000000e+00  0.000000e+00  1.000000e+00
   outer loop
     vertex -1.032500e+00  9.675000e-01  1.967500e+00
     vertex -2.967500e+00  9.675000e-01  1.967500e+00
     vertex -2.967500e+00 -9.675000e-01  1.967500e+00
   endloop
 endfacet
 facet normal  0.000000e+00  0.000000e+00  1.000000e+00
   outer loop
     vertex -1.032500e+00  9.675000e-01  1.967500e+00
     vertex -2.967500e+00 -9.675000e-01  1.967500e+00
     vertex -1.032500e+00 -9.675000e-01  1.967500e+00
   endloop
 endfacet
 facet normal  0.000000e+00  1.000000e+00  0.000000e+00
   outer loop
     vertex -1.032500e+00  9.675000e-01  1.967500e+00
     vertex -1.032500e+00  9.675000e-01  1.032500e+00
     vertex -2.967500e+00  9.675000e-01  1.032500e+00
   endloop
 endfacet
 facet normal  0.000000e+00  1.000000e+00  0.000000e+00
   outer loop
     vertex -1.032500e+00  9.675000e-01  1.967500e+00
     vertex -2.967500e+00  9.675000e-01  1.032500e+00
     vertex -2.967500e+00  9.675000e-01  1.967500e+00
   endloop
 endfacet
 facet normal -0.000000e+00  0.000000e+00 -1.000000e+00
   outer loop
     vertex -1.032500e+00  9.675000e-01  1.032500e+00
     vertex -2.967500e+00 -9.675000e-01  1.032500e+00
     vertex -2.967500e+00  9.675000e-01  1.032500e+00
   endloop
 endfacet
 facet normal  0.000000e+00 -0.000000e+00 -1.000000e+00
   outer loop
     vertex -1.032500e+00  9.675000e-01  1.032500e+00
     vertex -1.032500e+00 -9.675000e-01  1.032500e+00
     vertex -2.967500e+00 -9.675000e-01  1.032500e+00
   endloop
 endfacet
 facet normal  1.000000e+00  0.000000e+00  0.000000e+00
   outer loop
     vertex -1.032500e+00 -9.675000e-01  1.967500e+00
     vertex -1.032500e+00 -9.675000e-01  1.032500e+00
     vertex -1.032500e+00  9.675000e-01  1.032500e+00
   endloop
 endfacet
 facet normal  1.000000e+00 -0.000000e+00  0.000000e+00
   outer loop
     vertex -1.032500e+00 -9.675000e-01  1.967500e+00
     vertex -1.032500e+00  9.675000e-01  1.032500e+00
     vertex -1.032500e+00  9.675000e-01  1.967500e+00
   endloop
 endfacet
 facet normal  0.000000e+00 -1.000000e+00 -0.000000e+00
   outer loop
     vertex -2.032500e+00 -9.675000e-01  2.967500e+00
     vertex -2.967500e+00 -9.675000e-01  2.032500e+00
     vertex -2.032500e+00 -9.675000e-01  2.032500e+00
   endloop
 endfacet
 facet normal -0.000000e+00 -1.000000e+00  0.000000e+00
   outer loop
     vertex -2.032500e+00 -9.675000e-01  2.967500e+00
     vertex -2.967500e+00 -9.675000e-01  2.967500e+00
     vertex -2.967500e+00 -9.675000e-01  2.032500e+00
   endloop
 endfacet
 facet normal  1.000000e+00  0.000000e+00  0.000000e+00
   outer loop
     vertex -2.032500e+00  9.675000e-01  2.967500e+00
     vertex -2.032500e+00 -9.675000e-01  2.032500e+00
     vertex -2.032500e+00  9.675000e-01  2.032500e+00
   endloop
 endfacet
 facet normal  1.000000e+00  0.000000e+00  0.000000e+00
   outer loop
     vertex -2.032500e+00  9.675000e-01  2.967500e+00
     vertex -2.032500e+00 -9.675000e-01  2.967500e+00
     vertex -2.032500e+00 -9.675000e-01  2.032500e+00
   endloop
 endfacet
 facet normal  0.000000e+00  0.000000e+00  1.000000e+00
   outer loop
     vertex -2.967500e+00  9.675000e-01  2.967500e+00
     vertex -2.967500e+00 -9.675000e-01  2.967500e+00
     vertex -2.032500e+00 -9.675000e-01  2.967500e+00
   endloop
 endfacet
 facet normal -0.000000e+00  0.000000e+00  1.000000e+00
   outer loop
     vertex -2.967500e+00  9.675000e-01  2.967500e+00
     vertex -2.032500e+00 -9.675000e-01  2.967500e+00
     vertex -2.032500e+00  9.675000e-01  2.967500e+00
   endloop
 endfacet
 facet normal -1.000000e+00  0.000000e+00 -0.000000e+00
   outer loop
     vertex -2.967500e+00  9.675000e-01  2.967500e+00
     vertex -2.967500e+00  9.675000e-01  2.032500e+00
     vertex -2.967500e+00 -9.675000e-01  2.032500e+00
   endloop
 endfacet
 facet normal -1.000000e+00 -0.000000e+00  0.000000e+00
   outer loop
     vertex -2.967500e+00  9.675000e-01  2.967500e+00
     vertex -2.967500e+00 -9.675000e-01  2.032500e+00
     vertex -2.967500e+00 -9.675000e-01  2.967500e+00
   endloop
 endfacet
 facet normal  0.000000e+00  0.000000e+00 -1.000000e+00
   outer loop
     vertex -2.967500e+00  9.675000e-01  2.032500e+00
     vertex -2.032500e+00 -9.675000e-01  2.032500e+00
     vertex -2.967500e+00 -9.675000e-01  2.032500e+00
   endloop
 endfacet
 facet normal  0.000000e+00  0.000000e+00 -1.000000e+00
   outer loop
     vertex -2.967500e+00  9.675000e-01  2.032500e+00
     vertex -2.032500e+00  9.675000e-01  2.032500e+00
     vertex -2.032500e+00 -9.675000e-01  2.032500e+00
   endloop
 endfacet
 facet normal  0.000000e+00  1.000000e+00  0.000000e+00
   outer loop
     vertex -2.032500e+00  9.675000e-01  2.967500e+00
     vertex -2.032500e+00  9.675000e-01  2.032500e+00
     vertex -2.967500e+00  9.675000e-01  2.032500e+00
   endloop
 endfacet
 facet normal  0.000000e+00  1.000000e+00  0.000000e+00
   outer loop
     vertex -2.032500e+00  9.675000e-01  2.967500e+00
     vertex -2.967500e+00  9.675000e-01  2.032500e+00
     vertex -2.967500e+00  9.675000e-01  2.967500e+00
   endloop
 endfacet
 facet normal -1.000000e+00  0.000000e+00  0.000000e+00
   outer loop
     vertex  3.250000e-02 -9.675000e-01  9.675000e-01
     vertex  3.250000e-02  9.675000e-01  3.250000e-02
     vertex  3.250000e-02 -9.675000e-01  3.250000e-02
   endloop
 endfacet
 facet normal -1.000000e+00  0.000000e+00  0.000000e+00
   outer loop
     vertex  3.250000e-02 -9.675000e-01  9.675000e-01
     vertex  3.250000e-02  9.675000e-01  9.675000e-01
     vertex  3.250000e-02  9.675000e-01  3.250000e-02
   endloop
 endfacet
 facet normal  0.000000e+00 -1.000000e+00 -0.000000e+00
   outer loop
     vertex  1.967500e+00 -9.675000e-01  9.675000e-01
     vertex  3.250000e-02 -9.675000e-01  3.250000e-02
     vertex  1.967500e+00 -9.675000e-01  3.250000e-02
   endloop
 endfacet
 facet normal -0.000000e+00 -1.000000e+00  0.000000e+00
   outer loop
     vertex  1.967500e+00 -9.675000e-01  9.675000e-01
     vertex  3.250000e-02 -9.675000e-01  9.675000e-01
     vertex  3.250000e-02 -9.675000e-01  3.250000e-02
   endloop
 endfacet
 facet normal  0.000000e+00  0.000000e+00  1.000000e+00
   outer loop
     vertex  1.967500e+00  9.675000e-01  9.675000e-01
     vertex  3.250000e-02  9.675000e-01  9.675000e-01
     vertex  3.250000e-02 -9.675000e-01  9.675000e-01
   endloop
 endfacet
 facet normal  0.000000e+00  0.000000e+00  1.000000e+00
   outer loop
     vertex  1.967500e+00  9.675000e-01  9.675000e-01
     vertex  3.250000e-02 -9.675000e-01  9.675000e-01
     vertex  1.967500e+00 -9.675000e-01  9.675000e-01
   endloop
 endfacet
 facet normal  0.000000e+00  1.000000e+00  0.000000e+00
   outer loop
     vertex  1.967500e+00  9.675000e-01  9.675000e-01
     vertex  1.967500e+00  9.675000e-01  3.250000e-02
     vertex  3.250000e-02  9.675000e-01  3.250000e-02
   endloop
 endfacet
 facet normal  0.000000e+00  1.000000e+00  0.000000e+00
   outer loop
     vertex  1.967500e+00  9.675000e-01  9.675000e-01
     vertex  3.250000e-02  9.675000e-01  3.250000e-02
     vertex  3.250000e-02  9.675000e-01  9.675000e-01
   endloop
 endfacet
 facet normal -0.000000e+00  0.000000e+00 -1.000000e+00
   outer loop
     vertex  1.967500e+00  9.675000e-01  3.250000e-02
     vertex  3.250000e-02 -9.675000e-01  3.250000e-02
     vertex  3.250000e-02  9.675000e-01  3.250000e-02
   endloop
 endfacet
 facet normal  0.000000e+00 -0.000000e+00 -1.000000e+00
   outer loop
     vertex  1.967500e+00  9.675000e-01  3.250000e-02
     vertex  1.967500e+00 -9.675000e-01  3.250000e-02
     vertex  3.250000e-02 -9.675000e-01  3.250000e-02
   endloop
 endfacet
 facet normal  1.000000e+00  0.000000e+00  0.000000e+00
   outer loop
     vertex  1.967500e+00 -9.675000e-01  9.675000e-01
     vertex  1.967500e+00 -9.675000e-01  3.250000e-02
     vertex  1.967500e+00  9.675000e-01  3.250000e-02
   endloop
 endfacet
 facet normal  1.000000e+00 -0.000000e+00  0.000000e+00
   outer loop
     vertex  1.967500e+00 -9.675000e-01  9.675000e-01
     vertex  1.967500e+00  9.675000e-01  3.250000e-02
     vertex  1.967500e+00  9.675000e-01  9.675000e-01
   endloop
 endfacet
 facet normal -1.000000e+00  0.000000e+00  0.000000e+00
   outer loop
     vertex  1.032500e+00 -9.675000e-01  1.967500e+00
     vertex  1.032500e+00  9.675000e-01  1.032500e+00
     vertex  1.032500e+00 -9.675000e-01  1.032500e+00
   endloop
 endfacet
 facet normal -1.000000e+00  0.000000e+00  0.000000e+00
   outer loop
     vertex  1.032500e+00 -9.675000e-01  1.967500e+00
     vertex  1.032500e+00  9.675000e-01  1.967500e+00
     vertex  1.032500e+00  9.675000e-01  1.032500e+00
   endloop
 endfacet
 facet normal  0.000000e+00 -1.000000e+00 -0.000000e+00
   outer loop
     vertex  2.967500e+00 -9.675000e-01  1.967500e+00
     vertex  1.032500e+00 -9.675000e-01  1.032500e+00
     vertex  2.967500e+00 -9.675000e-01  1.032500e+00
   endloop
 endfacet
 facet normal -0.000000e+00 -1.000000e+00  0.000000e+00
   outer loop
     vertex  2.967500e+00 -9.675000e-01  1.967500e+00
     vertex  1.032500e+00 -9.675000e-01  1.967500e+00
     vertex  1.032500e+00 -9.675000e-01  1.032500e+00
   endloop
 endfacet
 facet normal  0.000000e+00  0.000000e+00  1.000000e+00
   outer loop
     vertex  2.967500e+00  9.675000e-01  1.967500e+00
     vertex  1.032500e+00  9.675000e-01  1.967500e+00
     vertex  1.032500e+00 -9.675000e-01  1.967500e+00
   endloop
 endfacet
 facet normal  0.000000e+00  0.000000e+00  1.000000e+00
   outer loop
     vertex  2.967500e+00  9.675000e-01  1.967500e+00
     vertex  1.032500e+00 -9.675000e-01  1.967500e+00
     vertex  2.967500e+00 -9.675000e-01  1.967500e+00
   endloop
 endfacet
 facet normal  0.000000e+00  1.000000e+00  0.000000e+00
   outer loop
     vertex  2.967500e+00  9.675000e-01  1.967500e+00
     vertex  2.967500e+00  9.675000e-01  1.032500e+00
     vertex  1.032500e+00  9.675000e-01  1.032500e+00
   endloop
 endfacet
 facet normal  0.000000e+00  1.000000e+00  0.000000e+00
   outer loop
     vertex  2.967500e+00  9.675000e-01  1.967500e+00
     vertex  1.032500e+00  9.675000e-01  1.032500e+00
     vertex  1.032500e+00  9.675000e-01  1.967500e+00
   endloop
 endfacet
 facet normal -0.000000e+00  0.000000e+00 -1.000000e+00
   outer loop
     vertex  2.967500e+00  9.675000e-01  1.032500e+00
     vertex  1.032500e+00 -9.675000e-01  1.032500e+00
     vertex  1.032500e+00  9.675000e-01  1.032500e+00
   endloop
 endfacet
 facet normal  0.000000e+00 -0.000000e+00 -1.000000e+00
   outer loop
     vertex  2.967500e+00  9.675000e-01  1.032500e+00
     vertex  2.967500e+00 -9.675000e-01  1.032500e+00
     vertex  1.032500e+00 -9.675000e-01  1.032500e+00
   endloop
 endfacet
 facet normal  1.000000e+00  0.000000e+00  0.000000e+00
   outer loop
     vertex  2.967500e+00 -9.675000e-01  1.967500e+00
     vertex  2.967500e+00 -9.675000e-01  1.032500e+00
     vertex  2.967500e+00  9.675000e-01  1.032500e+00
   endloop
 endfacet
 facet normal  1.000000e+00 -0.000000e+00  0.000000e+00
   outer loop
     vertex  2.967500e+00 -9.675000e-01  1.967500e+00
     vertex  2.967500e+00  9.675000e-01  1.032500e+00
     vertex  2.967500e+00  9.675000e-01  1.967500e+00
   endloop
 endfacet
 facet normal -1.000000e+00  0.000000e+00  0.000000e+00
   outer loop
     vertex -9.675000e-01 -9.675000e-01  1.967500e+00
     vertex -9.675000e-01  9.675000e-01  1.032500e+00
     vertex -9.675000e-01 -9.675000e-01  1.032500e+00
   endloop
 endfacet
 facet normal -1.000000e+00  0.000000e+00  0.000000e+00
   outer loop
     vertex -9.675000e-01 -9.675000e-01  1.967500e+00
     vertex -9.675000e-01  9.675000e-01  1.967500e+00
     vertex -9.675000e-01  9.675000e-01  1.032500e+00
   endloop
 endfacet
 facet normal  0.000000e+00 -1.000000e+00 -0.000000e+00
   outer loop
     vertex  9.675000e-01 -9.675000e-01  1.967500e+00
     vertex -9.675000e-01 -9.675000e-01  1.032500e+00
     vertex  9.675000e-01 -9.675000e-01  1.032500e+00
   endloop
 endfacet
 facet normal -0.000000e+00 -1.000000e+00  0.000000e+00
   outer loop
     vertex  9.675000e-01 -9.675000e-01  1.967500e+00
     vertex -9.675000e-01 -9.675000e-01  1.967500e+00
     vertex -9.675000e-01 -9.675000e-01  1.032500e+00
   endloop
 endfacet
 facet normal  0.000000e+00  0.000000e+00  1.000000e+00
   outer loop
     vertex  9.675000e-01  9.675000e-01  1.967500e+00
     vertex -9.675000e-01  9.675000e-01  1.967500e+00
     vertex -9.675000e-01 -9.675000e-01  1.967500e+00
   endloop
 endfacet
 facet normal  0.000000e+00  0.000000e+00  1.000000e+00
   outer loop
     vertex  9.675000e-01  9.675000e-01  1.967500e+00
     vertex -9.675000e-01 -9.675000e-01  1.967500e+00
     vertex  9.675000e-01 -9.675000e-01  1.967500e+00
   endloop
 endfacet
 facet normal  0.000000e+00  1.000000e+00  0.000000e+00
   outer loop
     vertex  9.675000e-01  9.675000e-01  1.967500e+00
     vertex  9.675000e-01  9.675000e-01  1.032500e+00
     vertex -9.675000e-01  9.675000e-01  1.032500e+00
   endloop
 endfacet
 facet normal  0.000000e+00  1.000000e+00  0.000000e+00
   outer loop
     vertex  9.675000e-01  9.675000e-01  1.967500e+00
     vertex -9.675000e-01  9.675000e-01  1.032500e+00
     vertex -9.675000e-01  9.675000e-01  1.967500e+00
   endloop
 endfacet
 facet normal -0.000000e+00  0.000000e+00 -1.000000e+00
   outer loop
     vertex  9.675000e-01  9.675000e-01  1.032500e+00
     vertex -9.675000e-01 -9.675000e-01  1.032500e+00
     vertex -9.675000e-01  9.675000e-01  1.032500e+00
   endloop
 endfacet
 facet normal  0.000000e+00 -0.000000e+00 -1.000000e+00
   outer loop
     vertex  9.675000e-01  9.675000e-01  1.032500e+00
     vertex  9.675000e-01 -9.675000e-01  1.032500e+00
     vertex -9.675000e-01 -9.675000e-01  1.032500e+00
   endloop
 endfacet
 facet normal  1.000000e+00  0.000000e+00  0.000000e+00
   outer loop
     vertex  9.675000e-01 -9.675000e-01  1.967500e+00
     vertex  9.675000e-01 -9.675000e-01  1.032500e+00
     vertex  9.675000e-01  9.675000e-01  1.032500e+00
   endloop
 endfacet
 facet normal  1.000000e+00 -0.000000e+00  0.000000e+00
   outer loop
     vertex  9.675000e-01 -9.675000e-01  1.967500e+00
     vertex  9.675000e-01  9.675000e-01  1.032500e+00
     vertex  9.675000e-01  9.675000e-01  1.967500e+00
   endloop
 endfacet
endsolid
